<svg id="Capa_1" data-name="Capa 1" xmlns="http://www.w3.org/2000/svg" viewBox="0 0 256 192"><defs><style>.cls-1{fill:#fab900;}.cls-2{fill:#fff;}.cls-3{fill:#1d1d1b;}.cls-4{fill:#004c99;}</style></defs><title>distintivo-subseisenero-negro</title><rect class="cls-1" width="256" height="192"/><path class="cls-2" d="M145.85,165.8c-1.24-5.15-5.21-9.89-7.27-12.46C133.37,146.7,128,168,119.93,168c-6,0-4.93-8-9.46-3.93-7,6.36-14.67,7.18-23-13.82-3.57-6.23,31-14.89.68-24.37a17.35,17.35,0,0,0-1.1-1.76c4.53-5.29,5.08-10.7,5.21-17.61-3-1.9-4.11,2.17-6.44-1.9,4.11-4.74,4.8-6,3-12.19,2.06-7.44-6.58.82-9.46-2.16C79.07,86,85,81.16,82.22,76.41c-2.88-.67-6.58-.94-8.22-3.65,1.51-2.71,6.44-2.85,9.32-4.47.82-3.39,1.92-6.78,3-10.16-2.61-7.31-.69-12.6-.28-20C85.65,32.94,82,27.12,87.3,24a25.44,25.44,0,0,0,3.84,2.85c4.38.4,8.22,3.65,12.06,6,11.11,16,7.27,4.19,15.63-1.76,1.38,2.43,2.75,4.6,4.12,6.76,7.68-.4,8-5.68,13.71-8,1.78,3,.82,7,.82,10.29,3.16-1.76,4.39-7.31,7.68-9.76,3.84,4.47,3.15,9.08,7.82,13.28,3.83-2.3,21.94-12,25.09-6.64-1.51,5.42-1.1,10.57-1.1,16.12-2.47,4.47-4.66,6.23-8.5,9.08,1.92,3.11,4.25,4.33,6.45,6.9-2.75,1.49-6.31,2.84-8.1,5.42,1.24,2.3,3,1.89,5.49,2a12.32,12.32,0,0,0,1.1,2.44c-2.75,3.93-6,3.25-9.33,5.82.28,4.33,6,4.74,5.35,7.18-3.57,1.49-6.31,2.3-9.73,4.6,2.46,4.34,3.42,4.47,8.08,6a11.21,11.21,0,0,1,0,2.17c-11,6.37,3,16.93,6.18,19.91,4.79,4.47,10.42,21.67,7,29.52-1.91,4.6-9.18,6.23-15.48,0-4.94-4.87-11.8,19.37-19.61,11.65"/><path class="cls-3" d="M173.54,41.34a15,15,0,0,1-1.23-1.49c-2.6.94-5.35,1.76-7.95,2.43-12.2,6.91-9.6,11.25-19.47-1.89-5.35,3.52-7.27,5.82-10.84-.27-6.71,3.25-9.73,4.74-14.39-1.76-9,10.83-13.58,6.63-20.84-2.84-2.47-1.09-6.31-3.94-8.78-5.29-.41,8.94-4.66,18.69,2.61,26.28,1.37,4.73-4.12,12.32-7,16a1,1,0,0,0,1.1.13c2.47,4.2-3.29,8.13-.69,12.6,8.37-1.08,7.82,11.24,8.23,16.79,5.76,6.1.68,13.28,1.78,20.45,8.64,4.06,10.84,20-4.8,27.77,10.56,21.66,15.5,5.68,20.57-.82s3.16,15.71,8.09,13.28,15.08-23.3,23.58-12.46c9.19,33,13.44-10.16,28.11.81,11.38,8.53,3.3-14.36,1.51-21.54-1.37-6-14-10-13.3-22.21-4.25-7.17-4.93-11.51,1.65-17.47-.82-4.74-1.37-7.58,2.33-11.37-.83-5.15-.55-6.1,3.15-9.76-2.19-3.79-3.43-5.41-2.88-10.15,11.39-7.18,10-5,9.46-17.2"/><path class="cls-2" d="M122.54,105.67c-.42-3.25,1.51-6.1,4.38-6.37a1.59,1.59,0,0,1,.69-.13,5.79,5.79,0,0,1,5.21,5.14c.41,3.26-1.65,6.1-4.39,6.5h-.82A5.65,5.65,0,0,1,122.54,105.67ZM115,77.36c1.64-.4,2.6-2.84,2-5.42s-2.33-4.46-4.11-4.19-2.61,2.84-2.06,5.41S113.21,77.63,115,77.36ZM92.1,40.79c1.92,2.58,4,5,5.89,7.45-.82,2-2.74,2.44-2.6,4.75a6.13,6.13,0,0,0,1.23.8c4.94-.94,5.22-3.51,5.08-7.85C99.78,42.83,96.07,38.49,92.1,40.79Zm70.75,7.05c-2.47,1.49-9.19,7.85-5.07,10.15,3-1.76,7.95-4.06,8.91-7.58C165.45,49.6,164.08,48.79,162.85,47.84ZM143,67.07c-1.79,0-3,2.3-3,5s1.51,4.74,3.29,4.74,3-2.3,3-5S144.75,66.93,143,67.07Zm-15.36,50.11a16.65,16.65,0,0,1-5.49-1.63c-7.81-3.51-7.81-11.64-10.14-19-.68.55-1.65.27-2.19.55.82,9.48,6.72,22.61,16.58,22.88h1.24c15.08-.4,17.14-13.14,17.42-27.22l-3.3.27C141.73,105.13,138.72,118.67,127.61,117.18Z"/><rect class="cls-4" width="256" height="16"/></svg>