<svg id="Capa_1" data-name="Capa 1" xmlns="http://www.w3.org/2000/svg" viewBox="0 0 256 192"><defs><style>.cls-1{fill:#ffed97;}.cls-2{fill:#ffdc00;}.cls-3{fill:#1d1d1b;}.cls-4{fill:#fab900;}.cls-5{fill:#00471f;}</style></defs><title>enlace</title><rect class="cls-1" width="256" height="192"/><path class="cls-2" d="M8.38,47.22C28.17,36.38,42.29,27.71,77,20.85c37.69-7.45,92.81-7.63,136.28,17,62.26,35.31,53,91-5.68,119.15-38.79,18.57-106.87,24.24-150.47,12.16-17-4.71-59-24.54-45.42-51.06C28.18,86,103.16,48.4,145.16,59.76c24.66,6.66,45.88,37.44,31.23,58.36-20.89,29.81-83.33,13-45.43-19.46-13.68,2.93-48.28,12.22-42.58,26.75,15.69,40,107.42,19,113.56-19.45C211.55,45.78,128,35.57,79.86,47.6,51.37,54.71,31,66.63,9.34,82.06c-13,9.29-11.58-29-1-34.84" transform="translate(0)"/><path class="cls-3" d="M64.74,174.09c-.81-3.34-3.5-6.35-4.88-8.1-3.39-4.26-7,9.55-12.35,9.55-4,0-3.31-5.24-6.25-2.6-4.65,4.18-9.75,4.68-15.34-8.91-2.38-4,20.62-9.67.46-15.82L25.69,147c2.95-3.34,3.36-6.93,3.41-11.35-2-1.25-2.67,1.42-4.24-1.22,2.71-3.08,3.2-3.9,2-7.9,1.34-4.83-4.4.52-6.29-1.38-.17-2.75,3.68-5.94,1.89-9-1.89-.49-4.39-.64-5.42-2.39C18,112,21.3,112,23.21,110.92c.59-2.14,1.29-4.34,2-6.55-1.73-4.71-.44-8.16-.11-13-.35-3.29-2.76-7.12.75-9.08a22.22,22.22,0,0,0,2.54,1.8c3,.28,5.52,2.34,8.05,3.89,7.32,10.29,4.84,2.68,10.38-1.17.93,1.55,1.79,3,2.76,4.4,5-.25,5.26-3.73,9-5.21,1.15,1.94.59,4.59.51,6.7,2.1-1.18,3-4.76,5.11-6.35,2.58,2.91,2.15,5.94,5.17,8.6C72,93.49,84,87.14,86.06,90.64c-1,3.52-.73,6.87-.71,10.49a16.25,16.25,0,0,1-5.6,5.86c1.2,2,2.75,2.85,4.25,4.47-1.8,1-4.24,1.85-5.38,3.53.87,1.46,2,1.18,3.6,1.34a8.68,8.68,0,0,0,.77,1.52c-1.82,2.56-4,2.09-6.14,3.83.17,2.75,4,3.08,3.54,4.61a29,29,0,0,0-6.5,3c1.67,2.81,2.25,2.88,5.36,3.85a11.28,11.28,0,0,1,0,1.4c-7.31,4.11,1.94,10.94,4,12.87,3.18,2.93,7,14,4.71,19.13-1.31,3-6.16,4.09-10.36,0-3.21-3.12-7.76,12.59-12.93,7.55" transform="translate(0)"/><path class="cls-4" d="M83.12,93.45a4.13,4.13,0,0,1-.83-1c-1.78.6-3.61,1.12-5.34,1.57-8,4.5-6.34,7.31-12.86-1.19-3.59,2.28-4.84,3.76-7.21-.22-4.47,2.13-6.44,3.1-9.58-1.08-6,7-9,4.25-13.78-1.84-1.65-.76-4.19-2.54-5.8-3.45-.32,5.74-3.13,12.08,1.7,17,.91,3.11-2.73,8-4.65,10.37a1.19,1.19,0,0,0,.73.11c1.61,2.71-2.22,5.25-.5,8.16,5.55-.78,5.26,7.27,5.52,10.87,3.81,3.95.42,8.57,1.16,13.2,5.7,2.62,7.18,13-3.17,18,7,14,10.3,3.68,13.63-.58s2.12,10.23,5.37,8.64S57.5,157,63.19,164c6.09,21.41,8.93-6.56,18.63.5,7.57,5.52,2.16-9.33,1-14-.93-3.86-9.28-6.47-8.91-14.33-2.76-4.65-3.24-7.49,1.13-11.37-.49-3.08-.91-4.91,1.53-7.32-.51-3.33-.34-4,2.1-6.35-1.44-2.43-2.23-3.54-1.89-6.57,7.53-4.62,6.64-3.21,6.31-11.18" transform="translate(0)"/><path class="cls-3" d="M78.56,99.37c-.63,2.3-3.91,3.75-5.92,4.88-2.72-1.45,1.74-5.63,3.34-6.53l2.58,1.65M35.43,96.43c.06,2.81-.15,4.48-3.37,5.12a2.18,2.18,0,0,1-.86-.55c-.09-1.5,1.24-1.73,1.78-3.07-1.33-1.58-2.67-3.15-3.91-4.79,2.6-1.46,5,1.31,6.36,3.29m27.37,13.7c1.14,0,2.11,1.36,2.16,3.11s-.85,3.18-2,3.22-2.11-1.36-2.16-3.11.84-3.18,2-3.22m-19.9.48c1.12-.22,2.32,1,2.68,2.69s-.25,3.28-1.37,3.51-2.33-1-2.69-2.69.25-3.28,1.38-3.51M52.15,131A3.63,3.63,0,0,1,56,134.3a3.59,3.59,0,0,1-2.93,4.15,3.63,3.63,0,0,1-3.89-3.31A3.59,3.59,0,0,1,52.15,131m12-4.13c-.22,9.3-1.63,17.75-12.4,17.57-6.53-.11-10.45-8.62-11-14.77.4-.22,1.07,0,1.51-.37,1.49,4.72,1.49,10,6.74,12.29C59.38,146.17,62,136,62,127Z" transform="translate(0)"/><path class="cls-3" d="M187,139.89c0,5.05-17.28,13.71-17.28,13.71s-17.28-8.66-17.28-13.71,8.64-8.11,8.64-22.16l7,1.06,1.62,21.1,1.62-21.1,7-1.06C178.39,131.78,187,134.84,187,139.89ZM169.75,16.46c0,9.64-27,13.71-27,33.76S159,63.93,159,103l7.56-1,3.24-60.13L173,101.91l7.56,1c0-39,16.19-32.7,16.19-52.74S169.75,26.1,169.75,16.46Zm23.75,89.67c0-11.19,16.2-20,22.07-8.18,3.12,6.31-5.87,12.4-5.87,12.4,41.61,0,35.63-48.53,2.16-48.53-18.36,0-27,25.32-27,42.2Zm-9.71,10.55c0,11.57,7.55,23.21,13,23.21,13,0,13-14.77,13-14.77-10.81,9.28-18.36-1.83-18.36-9.5Zm-35.63-1.06c0,7.67-7.55,18.78-18.36,9.5,0,0,0,14.77,13,14.77,5.4,0,13-11.64,13-23.21Zm6.47-11.6c0-16.88-8.62-42.2-26.95-42.2-33.42,0-39.43,48.53,2.12,48.53,0,0-8.94-6.09-5.83-12.4,5.87-11.87,22-3,22,8.18Zm15.12,1c-32.39,0-32.39,10.55,0,10.55S202.14,105.07,169.75,105.07Z" transform="translate(0)"/><path class="cls-5" d="M185.49,135c0,4.6-15.74,12.5-15.74,12.5S154,139.61,154,135s7.87-7.38,7.87-20.18l6.4,1L169.75,135l1.48-19.22,6.39-1C177.62,127.63,185.49,130.41,185.49,135ZM169.75,22.55c0,8.79-24.59,12.5-24.59,30.76s14.75,12.5,14.75,48.06l6.89-1,2.95-54.79,2.95,54.79,6.89,1c0-35.56,14.76-29.8,14.76-48.06S169.75,31.34,169.75,22.55Zm21.64,81.7c0-10.19,14.76-18.26,20.11-7.44,2.84,5.74-5.35,11.29-5.35,11.29,37.91,0,32.46-44.22,2-44.22-16.73,0-24.6,23.07-24.6,38.45Zm-8.85,9.62c0,10.54,6.89,21.14,11.81,21.14,11.8,0,11.8-13.46,11.8-13.46-9.85,8.47-16.72-1.66-16.72-8.65Zm-32.46-1c0,7-6.88,17.12-16.73,8.65,0,0,0,13.46,11.81,13.46,4.92,0,11.8-10.6,11.8-21.14Zm5.9-10.57c0-15.38-7.86-38.45-24.56-38.45-30.45,0-35.92,44.22,1.93,44.22,0,0-8.14-5.55-5.31-11.29,5.35-10.82,20.08-2.75,20.08,7.44Zm13.77,1c-29.51,0-29.51,9.61,0,9.61S199.26,103.29,169.75,103.29Z" transform="translate(0)"/></svg>