<svg id="Capa_1" data-name="Capa 1" xmlns="http://www.w3.org/2000/svg" viewBox="0 0 192 256"><defs><style>.cls-1{fill:#fff;}.cls-2{fill:#1d1d1b;}</style></defs><title>icono-lobato-negro</title><path class="cls-1" d="M112.9,27.92a16.49,16.49,0,0,0,4.95-5.51c7-11.69,8.52-16.11,14.93.79,5.05,21.5,23.25-.55,37-1.94,2.92-.78,16.22-4.26,14.48,4.13-2.4,13.86,2.07,32.28-14.73,40.86-3,3.21,3.83,7.36,7.45,11.1,4.47,4.26-6.52,5.58-10.25,10.06-8.17,6.76,27,5.34-2,17.72-5.64,2.32-6.13,3.93-1.29,8.79,1.4,1.41,3.3,2.33,4.81,3.65,4.1,5-9.52,6.17-14,9.9-4.28,3.76,4.9,9.86,9.68,11.12,2.45.09,4.29,3.23.91,5.93-5.91,4.22-7.08,9.23-3.85,15.75a36.61,36.61,0,0,0,10.64,12.92c11.33,8.67,15.76,20.89,18.77,33.89,1.58,6.8,2.32,13.73.79,20.68-1.8,8.18-8.48,12.26-16.79,10.4a23.17,23.17,0,0,1-11.29-6.29c-5-4.78-10.74,4.17-14.4,9.22-3,4-5.72,8.17-9.73,11.28-2.34,1.81-4.89,3.09-8,1.95a6,6,0,0,1-4.08-4.06c-2.43-8.06-7.6-14.54-12.87-20.91-1.9-2.29-4.2-2.23-6.5-.46a30.68,30.68,0,0,0-6,7c-4,5.18-7.71,13-14.47,18-4.89,3.3-10.23,2.8-13.57-1.93-4.6-6.53-5.4-6.15-11.51-1.09-9.14,7.57-17.36,6.82-25.14-2-6.4-7.27-10.14-16-13.75-24.82-.76-1.86.05-3.5,1.27-5,4.59-5.2,12.12-9.2,18.35-15.25,6-6.1,5.43-11.07-1.78-15.79-4.39-2.87-9.31-4.64-14.26-6.34-3.93-1.34-4.6-3.19-2.22-6.38,6.09-8.17,7.15-17.67,7.25-27.33,0-5.59-12.56,2-10.35-6.18,23.56-50.82-28.8-.68-6.77-40.15,1.42-4.25,1.1-8.36-4.42-9.49-2.46-.43-15.47-3.83-7.73-8.66,15.27-2.12,19.87-17.07,17-31.68C22.27,14.56,13.06,6.21,22.77,0,61.32,15.81,47.91,19.21,65.19,29.49,70.4,28.91,76,5.36,81.46,15.88c10,26.62,31.89-24.64,31.45,3.95C112.88,22.41,112.9,25,112.9,27.92Z" transform="translate(0 0)"/><path class="cls-2" d="M183.89,225.37c-10.61,15.32-11.36-26.37-43.7,19.51-3.38,3-6.28,2.7-8.95-.9-3.53-4.76-5.18-10.35-6.85-15.89-2.73-9-10-11.79-18.11-6.73-4.85,3-8.51,7.33-12.21,11.57-3.41,3.91-6.45,8.14-10.28,11.69-3.62,3.35-5.82,2.82-7.38-1.86-1.74-5.22-2.09-10.74-3.4-16-.45-7.33-5.69-6.6-7.78-1.57-2.42,3.47-4.61,7.09-7,10.62a25.46,25.46,0,0,1-5,5.75c-3.68,3-7.4,3.2-11.08.29-10.33-12.1-17.5-15.11.17-26.51,10.86-10.92,11.17-31.29-2-39.33-1.69-1-2-2.16-2.06-3.85-.05-12,5.68-23.69-2.33-32.94-.19-42-21.39-22.74-15.19-40.88,6.74-19.34-7.13-4,8.78-27,3.2-6.24,4.42-12.06.81-16.44C26.72,50.71,25.36,45.42,25,40c-.56-9.76,2.23-19.18,2.81-29.71,6.55,5.46,14.57,7.51,19.31,14.25a38.4,38.4,0,0,0,9.11,9.28c4.92,3.48,9.47,3.62,14.6.44a37.68,37.68,0,0,0,8.51-7.62c.74-.86,1.32-1.68,2.38-.23,6.64,9.11,12.54,7.57,20.65,3.75,3-1.79,4.37-1.55,5.43.27A6.87,6.87,0,0,0,109,31.92c2.77,3.33,5.14,3.86,9,1.78a52.79,52.79,0,0,0,5.91-3.77c1.44-1.06,2.26-.91,3.32.55a85.13,85.13,0,0,0,8.43,10.34c5.55,6.65,12.54-.83,16.35-3.39,4.59-3.15,23.06-13.75,24.93-6.1,2.35,16.61-.2,20.83-14.41,28.17-6.17,4.67-.52,13.5,1.39,17.27,1.13,1.71,1.11,2.9-.49,4.28-6.18,4.66-3.15,12.15-4.86,16.66-7.08,6.15-1.23,16.2-5.47,21.47-7.07,7.07-8.15,13.4-3.85,22.39,1.86,3.91,3.36,7.69,3.67,12.17.43,6.27,3.92,11.5,8.24,16,2.93,3.07,6,6,9.11,8.91A23,23,0,0,1,177,190.22c2.27,9.08,5.27,18,6.69,27.28A25.67,25.67,0,0,1,183.89,225.37Z" transform="translate(0 0)"/><path class="cls-1" d="M125.82,127.64c-.56,9.36-1.33,17.71-4.54,25.66-3.93,9.77-11.18,15.29-21.7,16.89-11,1.67-19.42-2.17-25.75-11-4.38-6.05-16.31-31.32-6.9-29.77,4.2,14.9,8.94,36.65,30.16,36.23,7.53.2,12.76-3.51,16.33-9.74,4.46-7.81,5.7-16.44,6.4-25.18.91-1.1-1.66-6.45,2-8.38C125.75,121.59,126.1,122.52,125.82,127.64Z" transform="translate(0 0)"/><path class="cls-1" d="M104.32,144.15c-.9,13.79-18.38,12.34-18.51-1,.13-5.61,4.09-9.75,9.26-9.66C100,133.53,104.39,138.66,104.32,144.15Z" transform="translate(0 0)"/><path class="cls-1" d="M48.67,41.82c2.54,7.47-14.55,16.86-9.86,5.33,7.21-6.37-6-11.21-6.2-18.22C39,25.73,48.29,35,48.67,41.82Z" transform="translate(0 0)"/><path class="cls-1" d="M146.43,56.31A9.84,9.84,0,0,1,147.92,52a37.15,37.15,0,0,1,7.62-8.41c1.57-1.39,2.9-1.52,4.37,0a4.13,4.13,0,0,0,.54.34c4.79,3.2,4.87,4.14.54,8.25C158.1,53.36,148.78,64.71,146.43,56.31Z" transform="translate(0 0)"/><path class="cls-1" d="M128.21,85.14a14.51,14.51,0,0,1-1.15,5c-1,3-5.92,5.38-8.64.32C112.78,81.8,125.2,66.31,128.21,85.14Z" transform="translate(0 0)"/><path class="cls-1" d="M76.28,86.3c.3,8.14-6.28,11.89-10.59,2.89C61.31,78.67,73.71,71.35,76.28,86.3Z" transform="translate(0 0)"/></svg>