<svg id="Capa_1" data-name="Capa 1" xmlns="http://www.w3.org/2000/svg" viewBox="0 0 256 192"><defs><style>.cls-1{fill:#0075be;}.cls-2{fill:#deedfa;}.cls-3{fill:#008ad1;}.cls-4{fill:#004c98;}</style></defs><title>ids</title><polygon class="cls-1" points="170.24 7.15 170.24 6.62 170 6.89 169.76 6.62 6.41 6.62 85.63 96 6.42 185.38 169.76 185.38 170 185.11 170.24 185.38 170.24 184.86 249.59 96 170.24 7.15"/><path class="cls-2" d="M211.28,103c-1.61-.19-3.34-.34-5-.47h-3.68l-.48,0-.3,0a49.89,49.89,0,0,0-9.29,1.43,150.09,150.09,0,0,0-16.32,5.4c-.76.3-1.06.36-1.45.5s-.85.19-1.27.31a20.14,20.14,0,0,1-2.92.27,36.54,36.54,0,0,1-6.77-.63c-4.78-.85-9.8-2.27-15.05-3.75-2.64-.73-5.33-1.49-8.31-2.07a35.91,35.91,0,0,0-4.88-.64,17.71,17.71,0,0,0-6.43.71,12.52,12.52,0,0,0-2,.87,12.19,12.19,0,0,0-2,1.43c-.32.3-.64.62-.94.93s-.3.31-.45.5l-.47.66c-.29.45-.57.93-.83,1.42-.1.2-.28.56-.3.64l-.09.23-.42,1.17a4.78,4.78,0,0,1-.92.56,16.33,16.33,0,0,1-2.54.79c-16.42,3.83-33,.09-49-4.94v14.36h-4c4.49,1.36,9,2.63,13.59,3.58,7,1.45,17.94-.58,25,.24a63.5,63.5,0,0,0,16.66,0,28,28,0,0,0,4.91-1.26,16.23,16.23,0,0,0,5.55-3.34,13,13,0,0,0,2.54-3.28,6.51,6.51,0,0,0,.49-1c.21,0,.45,0,.7,0a26.38,26.38,0,0,1,3,.53c2.24.54,4.71,1.26,7.24,2a146.4,146.4,0,0,0,16.42,4.43,50.06,50.06,0,0,0,9.48.92,36.48,36.48,0,0,0,5.21-.46c.92-.21,1.81-.34,2.73-.64s1.93-.59,2.45-.81a145.66,145.66,0,0,1,14.76-5,43.56,43.56,0,0,1,6.78-1.16l.24,0h.36l1,0,2,0,3.08.25A73.17,73.17,0,0,1,220,119.94l11.68-9.83c-4.58-1.57-15.06-6.31-20.4-7.08"/><path class="cls-3" d="M128.15,131l0-.16s0-.06,0-.08c0,.19,0,.32,0,.24"/><path class="cls-3" d="M129.32,124.73c.63-1,.56-.53,0,0"/><path class="cls-3" d="M160.8,126.24l0-.32c0,.13.05.38.07.56s0,.14,0,.22c0-.15,0-.31,0-.46"/><path class="cls-3" d="M160.82,126.17c0,.09,0,.18,0,.28l0-.21v-.31c0-.09,0,.17,0,.24"/><path class="cls-3" d="M155.47,159.45v0s0,.08,0,0Z"/><path class="cls-3" d="M155.54,158.8c0-.1.06-.14,0,0a.15.15,0,0,0,0,0"/><path class="cls-3" d="M171.77,156.7c0,.1,0,.2,0,.29v0l0-.21c0-.08,0-.19,0-.05"/><path class="cls-3" d="M119,101.55c0-.14.08-.23.06-.18a.69.69,0,0,1-.06.18"/><path class="cls-3" d="M134.32,99.22a2.41,2.41,0,0,1,0,.6l0-.55V99c0-.1,0,.18,0,.24"/><path class="cls-3" d="M134.3,100l0-.32c0,.24-.09-.85,0,.3v0Z"/><path class="cls-3" d="M193.43,160.38c6.25-5.73,12.58-13.27,20.31-16.94l.57-1.24c-.81-.3-1.69-.58-2.55-.86l5.34-11.55c-1.12-.41-2.28-.81-3.5-1.18-1.65-.49-3.46-.84-5.28-1.24a51.82,51.82,0,0,0-5.83-.59,53.06,53.06,0,0,0-12.09.9,104.43,104.43,0,0,0-11.12,2.77c-1.57.48-3.15,1-4.76,1.48a10.22,10.22,0,0,1-1.72.19,31.41,31.41,0,0,1-7.09-.83c-2.9-.63-6.14-1.52-9.65-2.57s-7.27-2.21-12-3.27a39.3,39.3,0,0,0-8.83-1,22.94,22.94,0,0,0-7.39,1.21,19.3,19.3,0,0,0-9.54,7.17c-.1.15-.17.28-.26.41,4.26-.29,8.74-.45,13.35-.45,29.53,0,53.47,6.41,53.47,14.32s-23.94,14.32-53.47,14.32S77.93,155,77.93,147.08c0-4.93,9.33-9.29,23.52-11.86-3.66-.18-7.38-.48-11-.82-6.85-.68-13.6-1.42-20-2.28-6-.76-11.79-1.57-17.17-2.32q-5.88,5.92-11.49,12.11l.08,0-3.56,7.71H34.69q-2.91,3.22-5.83,6.42a107.93,107.93,0,0,1-10,10.09v12.24h160c2.52-7.27,9.24-13.17,14.56-18"/><path class="cls-4" d="M129.52,72.77l13.62,6.79,9.74,18,4.88,10.71-.54,9.74,6.12,9.85,4.66,8.63,5.38,11.72s-36.93,21.45-83.09,0L98,130.77l12.3-9.16,2.31-21L122,89.33Z"/><path class="cls-3" d="M111.65,137.49,121.87,129l1.55-19L131.1,99.6l6.07-15.12L144.1,88l-1.71-3.24-11.63-5.87L124.7,94,117,104.4l-1.55,19-10.21,8.52-6.17,15.94c2.5,1.17,5,2.2,7.38,3.07Z"/><path class="cls-2" d="M119,58.19S117,66,124.13,69.37c0,0-6.94,2.7-8.95-4.52,0,0-.45,11.57,10.51,11.68,0,0-2.67,3.69-9.68,2.61,0,0,6.12,1.49,7.2,6.15,0,0,3.8-8.4,8.75-8.35,0,0,7.78-.61,8.19-7.63a3.37,3.37,0,0,1,2.68-3.84s-2.72-4.9-7.6-1.16l-3.78,2.88s-2.12-4.26-5.4-4.76-6.23-.18-7-4.24"/><path class="cls-4" d="M119.12,30.59a13.07,13.07,0,0,0-7.43-1.43c-.34-1.59-9.19-6.11-10.44-6.64-4.93-2.06-11.08-3-16.38-3.66-6.1-.76-13-1.06-18.49,1.5a6.5,6.5,0,0,0-1.11.36c-4.59,2-9.88,1.91-14.64,3.37-5.2,1.6-5.52,8.11-1.51,11.16a19.19,19.19,0,0,0-2.65,3.35c-1.94,3.11-.18,8.39,3.56,9,10.49,1.8,20.12-.84,30.63-1.14,9.11-.26,18.2,1.6,27.35,1.31,4.45-.14,10.83-1.08,13.34-5.5,2.1-3.71,1.67-9.36-2.23-11.72"/><path class="cls-2" d="M73,28.6a6.44,6.44,0,0,0-4.23-1c-.19-1.09-5.24-4.18-5.95-4.54a31.88,31.88,0,0,0-9.33-2.51c-3.48-.52-7.42-.73-10.53,1a2.82,2.82,0,0,0-.63.24c-2.62,1.38-5.64,1.31-8.35,2.31-3,1.1-3.15,5.56-.86,7.65a13,13,0,0,0-1.51,2.29c-1.11,2.12-.1,5.75,2,6.18,6,1.24,11.47-.57,17.46-.77,5.19-.18,10.36,1.09,15.58.89,2.53-.1,6.17-.74,7.6-3.76,1.2-2.55,1-6.41-1.27-8"/><path class="cls-2" d="M203.11,43.47A107.13,107.13,0,0,0,187,26.54c-2.58-2.19-5.59-3.85-7-6.78-4.35.64-9.24,1.54-13.21,3.44-1.08.51-8.63,4.91-8.93,6.46A9.94,9.94,0,0,0,151.5,31c-3.34,2.3-3.7,7.79-1.91,11.4,2.14,4.29,7.6,5.2,11.4,5.34,7.82.29,15.58-1.52,23.37-1.27,7.45.24,14.38,2,21.63,1.63a52.72,52.72,0,0,0-2.88-4.67"/><path class="cls-4" d="M203.68,51.75c-1.74-2-11.83-12.44-12.41-16.8a34.62,34.62,0,0,0-7,.27,42.82,42.82,0,0,0-10.78,2.37c-.83.35-6.65,3.29-6.88,4.32a8.67,8.67,0,0,0-4.89.94c-2.57,1.53-2.85,5.21-1.46,7.62,1.64,2.87,5.85,3.49,8.77,3.58,6,.18,12-1,18-.86,6.49.19,12.46,1.68,18.88.9-.76-.73-1.51-1.5-2.25-2.34"/><path class="cls-4" d="M21,178.76H167L240.87,96,167,13.24H21L90.36,91.53a6.76,6.76,0,0,1,0,8.94ZM170.24,192H6.42a6.41,6.41,0,0,1-5.87-3.95,6.79,6.79,0,0,1,1.15-7.14L76.94,96,1.68,11.09A6.81,6.81,0,0,1,.54,4,6.42,6.42,0,0,1,6.41,0H170a6.25,6.25,0,0,1,2.59.45A6.49,6.49,0,0,1,176.11,4L254.3,91.51a6.77,6.77,0,0,1,0,9L176.11,188a6.49,6.49,0,0,1-3.52,3.5,6.26,6.26,0,0,1-2.35.46"/></svg>