<svg id="Capa_1" data-name="Capa 1" xmlns="http://www.w3.org/2000/svg" viewBox="0 0 256 192"><defs><style>.cls-1{fill:#e10613;}.cls-2{fill:#881002;}.cls-3{fill:#ffcd00;}</style></defs><title>ids</title><polygon class="cls-1" points="170.24 7.15 170.24 6.62 170 6.89 169.77 6.62 6.41 6.62 85.64 96 6.42 185.38 169.77 185.38 170 185.11 170.24 185.38 170.24 184.85 249.59 96 170.24 7.15"/><path class="cls-2" d="M162.69,36.22c-2.91-2-13.08,6.16-20.23,11.14l-7.58,6.39c-11.75-11.54-30-29.14-38.95-31.64-3.6-2.48-16.17,7.61-25,13.78L50.35,53.23l2.73,5.38c1.27-1,7.77-7.09,8.9-8.19l1.75-1.57c10.27-9.6,22.91-23,32.62-21.74C104.42,28.06,122.5,45,134,54.52l-8.15,6.87,2.2,4.36c1-.78,6.28-5.73,7.2-6.63l1.42-1.27C145,50.08,155.19,39.27,163,40.26c6.66.78,21.75,15,31,22.64l.68-.58c-9.47-9.32-24.62-24-32-26.1"/><path class="cls-3" d="M106.08,35.35c-1.52-1.09-3.69-1.89-5-1.6-1.15.25-1.68,1.32-.57,3.73,1.8,3.92,8.13,6,11.44,8.38,2.73,2,5.48,3.93,8.32,5.74,2.11,1.34,4.36,2.55,6.7,1.3-1.27.59-11.09-9.58-12.25-10.56-2.81-2.41-5.61-4.83-8.61-7"/><path class="cls-3" d="M176.27,52.47c-2.27-1.95-4.54-3.91-7-5.66a6.12,6.12,0,0,0-4.06-1.29c-.94.2-1.37,1.07-.47,3,1.46,3.18,6.58,4.87,9.25,6.79,2.22,1.59,4.44,3.18,6.74,4.64,1.71,1.09,3.52,2.07,5.42,1-1,.48-9-7.74-9.91-8.54"/><path class="cls-3" d="M199,128.13V128H188.83v5.24c-1.28.91-2,.93-5.27,2.26a110.7,110.7,0,0,1-21.36,6.31V105l-24.69-.38V143a93.64,93.64,0,0,1-11.93-1.87,72.5,72.5,0,0,1-12.76-4l2-7.07A24.73,24.73,0,0,0,110,112.08l-11.7,6.62L96,126.77c-.76.75-1.37,1.31-1.49,1.21H53.61a1,1,0,0,1-.27.92c-5.73,6-10.81,12.89-16.75,18.7,9.34,4.22,35.55,14.9,71.82,20.82,17.49-10.44,32.93-27.56,32.93-27.56,7,6.23,15.24,2,15.24,2L162,172.47c7.41-.09,15-.45,22.79-1.16a1.45,1.45,0,0,1,.08-.5c3.37-8.72,9.53-15.75,15.79-22.5a76,76,0,0,1,10.19-11.13,99,99,0,0,1,9.47-9.2c-4.65.26-11.47.38-21.36.15"/><path class="cls-2" d="M105.53,97.36c2.07.57,4.16,1,6.26,1.51s4.19.85,6.31,1.19,4.23.66,6.35.91A184.9,184.9,0,0,0,150,102.29a235.19,235.19,0,0,0,25.46-1.82A225,225,0,0,0,200.56,96l-.08-.35a224.83,224.83,0,0,1-25.14,3.76,238.62,238.62,0,0,1-25.35,1.1,185.33,185.33,0,0,1-25.25-1.85q-3.12-.43-6.23-1c-2.07-.38-4.13-.84-6.18-1.3s-4.09-1-6.11-1.61c-1.29-.34-2.56-.76-3.82-1.17.88-.92,1.78-1.81,2.69-2.69.76.39,1.58.77,2.54,1.15l2.08.73c.73.22,1.51.41,2.31.63,1.61.46,3.37.75,5.23,1.12s3.8.63,5.84.79,4.11.45,6.24.53,4.28.28,6.44.29,4.32.13,6.44.1l6.23-.07c2,0,4-.14,5.81-.2l5.2-.21L170.18,95l-10.74.08-5.2-.09c-1.84,0-3.79,0-5.8-.14l-6.19-.29c-2.11-.1-4.23-.32-6.37-.48s-4.25-.42-6.34-.66-4.12-.57-6.1-.88-3.84-.75-5.62-1.09-3.44-.84-4.91-1.35a37.69,37.69,0,0,1-4-1.48c-.33-.15-.61-.3-.91-.45.75-.68,1.49-1.37,2.26-2,.49.22,1,.44,1.54.66l2.07.72c.74.23,1.51.42,2.32.64,1.61.46,3.37.74,5.22,1.11s3.81.63,5.84.8,4.11.44,6.24.52,4.29.28,6.44.3,4.32.12,6.44.1l6.23-.08c2,0,4-.13,5.81-.19l5.21-.21,10.73-.71-10.74.08-5.21-.09c-1.84-.05-3.79,0-5.79-.14l-6.19-.3c-2.11-.09-4.24-.32-6.37-.47s-4.26-.42-6.35-.66-4.13-.58-6.1-.88-3.83-.76-5.62-1.1-3.43-.83-4.9-1.34a33.6,33.6,0,0,1-3.64-1.36c.75-.6,1.5-1.22,2.27-1.81l.44.2,4,1.18a39.77,39.77,0,0,0,4.69.92,46.16,46.16,0,0,0,5.22.75l5.59.42c1.9.12,3.83.34,5.76.28h11.32c1.81,0,3.56-.16,5.2-.24s3.22-.18,4.65-.26l9.6-.54-9.6-.08-4.65,0c-1.65,0-3.39,0-5.18-.1l-11.22-.74a55.35,55.35,0,0,1-5.66-.65L130.41,82a43.35,43.35,0,0,1-5-1.06A36.68,36.68,0,0,1,121,79.82l-1.76-.65c.92-.65,1.82-1.33,2.76-1.94q2.89-1.89,5.89-3.56c2-1.06,4-2.13,6.13-3A47.8,47.8,0,0,1,147,67c1.07-.17,2.28-.19,3.25-.26a6.59,6.59,0,0,1,1.46.16,15.2,15.2,0,0,1,1.54.4,46.94,46.94,0,0,1,6.27,2.56c4.14,2,8.2,4.31,12.25,6.62s8,4.81,12,7.27l11.91,7.48.19-.29c-3.71-2.92-7.49-5.7-11.29-8.49s-7.7-5.41-11.63-8a135.26,135.26,0,0,0-12.17-7.27,49.87,49.87,0,0,0-6.6-2.94,16.74,16.74,0,0,0-1.82-.53,10.39,10.39,0,0,0-2-.29,36.64,36.64,0,0,0-3.7.15,46.19,46.19,0,0,0-14,3.69,72,72,0,0,0-12.53,7c-1.53,1-3,2.17-4.49,3.29l-.54-.31a2.35,2.35,0,0,1-.64-.47,1.75,1.75,0,0,0-.38-.28,2.86,2.86,0,0,1-.39-.49l-3.18,2.32a4.43,4.43,0,0,0,.52.58c.24.22.54.49.9.78l.52.42c-.71.59-1.43,1.18-2.13,1.79a7.32,7.32,0,0,1-1.27-1c-.16-.16,0-.09-.1-.12s-.09-.14-.09-.12l-3.32,2.08a1.46,1.46,0,0,0,.14.21,4.48,4.48,0,0,0,.66.76,8,8,0,0,0,1,.85c-.71.65-1.39,1.3-2.09,2-.18-.16-.33-.31-.43-.41s-.06-.1-.11-.12a.55.55,0,0,1-.08-.13l-3.33,2.09.14.21a5.5,5.5,0,0,0,.66.76l.37.31c-1.29,1.31-2.55,2.64-3.79,4.06l-1.53,1.75,2.14.62c2.06.6,4.11,1.29,6.2,1.8"/><path class="cls-2" d="M116.14,118.32c.4,2.7,14.12,3.75,14.12,3.75V111.12l-14.12-1.67Z"/><path class="cls-2" d="M169.07,122.07s11.51-1,11.84-3.75v-8.87l-11.84,1.67Z"/><path class="cls-2" d="M101.48,143l4.23-13.38,8.2,3.32c-1.78,4.38-5.93,7.77-12.43,10.06m-1.49-.51c-1.79-2.84-5.64-10.05-3.95-16.79l8.2,3.32Zm9-28.57-4.24,13.44L96.59,124c1.76-4.41,5.91-7.82,12.42-10.13m1.5.49c1.79,2.86,5.68,10.11,4,16.87l-8.23-3.33Zm78.57,2.27c-.12-2.49-.19-5-.36-7.43s-.3-4.94-.5-7.42h-.36c-.21,2.48-.34,5-.5,7.42s-.25,4.94-.37,7.43c-.23,4.64-.38,9.28-.51,13.93a43.51,43.51,0,0,1-3.7,2.35l-2.22,1.28-2.29,1.15c-1.52.78-3.1,1.4-4.67,2s-3.19,1.21-4.83,1.67-3.28.89-4.93,1.32l-1.56.29.53-35.07,0-1h-1l-24.69-.34h-.66v.65l.56,36.37c-3-.4-6-.91-9-1.6-3.37-.77-6.72-1.7-10-2.79-1.24-.42-2.46-.88-3.69-1.34a15.11,15.11,0,0,0,1-2l4.56,1.84.52-1.66-4.51-1.83c1-4,.5-8.65-1.58-13.55a33.24,33.24,0,0,0-3.5-6.28l0,0s0,0,0,0-.06,0-.09,0a.66.66,0,0,0-.24-.17.62.62,0,0,0-.19,0c-.06,0-.12,0-.17,0l0,0s0,0,0,0c-.57.18-1.08.38-1.62.57l-.22-12.11h-.35l-.24,12.39c-6.47,2.49-10.65,6.13-12.48,10.85l-4.57-1.86L90,123.25l4.53,1.84c-1,3.95-.47,8.6,1.59,13.47a34,34,0,0,0,3.49,6.28h0s0,0,0,0a.81.81,0,0,0,.31.22.64.64,0,0,0,.34,0h.06s0,0,.08,0q8.88-2.8,12.84-8c1.36.56,2.74,1.11,4.13,1.62q5,1.83,10.11,3.17c3.21.84,6.47,1.48,9.75,2V141.3l-.11,0,.54-35.72,23.08,1.06.52,34.26-.28.05v3.46c1.15-.15,2.3-.33,3.46-.52,1.75-.39,3.51-.73,5.24-1.27a46.52,46.52,0,0,0,5.12-1.7c1.66-.71,3.34-1.4,4.94-2.25l2.4-1.26,2.3-1.44c1.57-.92,3-2.09,4.45-3.13l.68-.47,0-.85c-.13-5-.3-9.9-.54-14.84"/><path class="cls-2" d="M21,178.76H167L240.87,96,167,13.24H21l69.4,78.29a6.79,6.79,0,0,1,0,8.94ZM170.24,192H6.42a6.39,6.39,0,0,1-5.86-3.95,6.79,6.79,0,0,1,1.13-7.14L77,96,1.68,11.09A6.77,6.77,0,0,1,.55,4,6.39,6.39,0,0,1,6.41,0H170a5.88,5.88,0,0,1,2.57.45A6.51,6.51,0,0,1,176.1,4l78.2,87.55a6.77,6.77,0,0,1,0,9L176.1,188a6.53,6.53,0,0,1-3.53,3.51,6.31,6.31,0,0,1-2.33.45"/></svg>