<svg id="Capa_1" data-name="Capa 1" xmlns="http://www.w3.org/2000/svg" viewBox="0 0 256 192"><defs><style>.cls-1{fill:#009c3d;}.cls-2{fill:#aec90b;}.cls-3{fill:#0b6822;}</style></defs><title>ids</title><polygon class="cls-1" points="170.24 7.15 170.24 6.62 170 6.89 169.76 6.62 6.41 6.62 85.64 96 6.42 185.38 169.76 185.38 170 185.11 170.24 185.38 170.24 184.85 249.59 96 170.24 7.15"/><path class="cls-2" d="M57.32,131.13,12.85,175.9s48.62-17.13,71.61-18.76c18.29-1.3,80.36-1.86,80.36-1.86l-15.15-11.69,18.46-5.06,41.84-7s-116.09.78-152.65-.39"/><path class="cls-2" d="M96.22,27.46c7.85,0,14.17,6.76,14.17,15.31,0,8.33-6.32,15.31-14.17,15.31-8.06,0-14.39-7-14.39-15.31,0-8.55,6.33-15.31,14.39-15.31m-2,34.89c.65,0,1.31-.22,2-.22,9.81-.9,17.43-9.9,17.43-20.71S106,21.61,96.22,20.71a6,6,0,0,0-2-.22c-10.68,0-19.4,9.45-19.4,20.93s8.72,20.93,19.4,20.93"/><path class="cls-2" d="M121.36,95c5.41,2.56,12.59-2.15,14.66-6.51l1.26.81c1.61,1.45,4.55,3.28,6.95,2.44,4.55-1.6,1.12-4.75,3.92-7.17,2.16-1.88,5.23.27,7.48-.93,1.91-1,3.15-4.7,5.15-5.58,5.61-2.48,7.46,9.61,18.82,8,.13,0,5.73,6.9,5.84,6.94,5.78,4.31,2.31-4,4.25-4.39,3.64-.82,2.1,3.75,3.64,5.64,2.68,3.25,4.62,5.16,8.38,5.65,12.56,1.64,13.17-14,2.95-15.41,2.38-.82,4-3.81,3.42-8.11-1.62-11.17-12.73-9.3-20.57-11.08a39.64,39.64,0,0,1,4.56-2.54c.78-11.62-21.94-2.52-21.9-1.22-.13-6.39-.53-13.37-7.78-11.84-5.1,1.07-7.32,7.47-11.12,10.22,2.28-2.07-6.7-3.38-9.76-1.54-4.59,2.74-7.18,8.88-3.67,13.6-6.91-9.28-17.29,7.24-10.58,11.63-6.6-.82-14,7.56-5.9,11.41"/><path class="cls-3" d="M98.62,54.48c5.45,0,10-4.73,10-10.81s-4.57-11-10-11c-5.67,0-10.25,5-10.25,11S93,54.48,98.62,54.48"/><path class="cls-3" d="M211.15,131.1c-7.56-.48-15.18-.9-22.86-1-.62,0-1.24,0-1.85,0a58.7,58.7,0,0,0,3.77-10.61,1,1,0,0,0-.69-1.28,1,1,0,0,0-1.23.73,50.78,50.78,0,0,1-4.1,11.14h-.77a11.21,11.21,0,0,1,.22-2.19c2.25-7.94-5.3-12.93-5.3-12.93-2.34,9,2.55,12.7,2.55,12.7a12.64,12.64,0,0,1,2.16,2.41c-2.94,0-5.88.07-8.83.18a1,1,0,0,0-1.05-.09l-.17.14c-1.18.05-2.36.13-3.55.2,1-19.48-3.86-22.71-3.86-22.71-1.65-7,10.8-10.67,10.8-10.67a50.5,50.5,0,0,0,9.55-.71,9.67,9.67,0,0,1-1.81-1.09,3.4,3.4,0,0,1-.62-.57l-.31.18c-1.41.49-9.16,0-9.16,0L175.69,89H174l-1.67,5.66c-.47.84-8.43,5.53-8.43,5.53-4.93-6.07-2.81-7.76-2.81-7.76a14.56,14.56,0,0,0,5.65-8.31c-.47-.44-.91-.88-1.33-1.3a8.21,8.21,0,0,1-3.39,5c1.5-2.32-.94-4.94-2-5.91L160,82c1.61,2.63-.37,6-.37,6-4.56,4.85,0,12.62,0,12.62s-2.71-.25-4.36-4.13c-1.38-3.26-5.24-7-6.44-8.15a5.44,5.44,0,0,1-2.54,5l5,5.31a11.5,11.5,0,0,0-6.11-1.93c-3.38.29-6.19-2.2-7.9-4.24L136.4,92a17.51,17.51,0,0,1-4.17,3.83c4.43,2.23,16.45,3.7,16.45,3.7,9.39,2.18,10.9,19.16,10.9,19.16.43,5.07-3.49,11.06-5.52,13.79-.29.07-.57.1-.86.17a57.08,57.08,0,0,0-5.95,1.61,47.35,47.35,0,0,0-5.93,2.34l-.2.09-.33.17a5.22,5.22,0,0,0-2,6.95,7.72,7.72,0,0,0,2,2.43,11.42,11.42,0,0,0,1.48,1.06,21.21,21.21,0,0,0,2.46,1.25c1.52.66,2.94,1.15,4.35,1.61,2.8.9,5.51,1.65,8.18,2.41l-.18,0c-2.8.32-5.56.63-8.26.83s-5.5.35-8.24.5l-8.33.28c-11.13.27-22.36.19-33.58.89-2.8.15-5.6.38-8.4.67s-5.58.63-8.36,1-5.54.9-8.28,1.53-5.45,1.33-8.16,2c2.76-.45,5.48-1.06,8.26-1.36s5.55-.64,8.32-.86,5.55-.33,8.33-.38,5.57-.07,8.34,0c11.13.18,22.24,1.15,33.46,1.75l8.43.39c2.83.06,5.62.19,8.49.14s5.7-.07,8.48-.18a73.57,73.57,0,0,0,8.8-.77,19.65,19.65,0,0,0,2.48-.54,9.26,9.26,0,0,0,1.54-.58,6.28,6.28,0,0,0,1.05-.62,6,6,0,0,0,.68-.58,5.65,5.65,0,0,0,.8-1.06,5,5,0,0,0,.46-3.71,5,5,0,0,0-.56-1.34,8.16,8.16,0,0,0-.57-.79,8.61,8.61,0,0,0-1.67-1.44,19.7,19.7,0,0,0-2.38-1.34c-2.89-1.36-5.55-2.3-8.21-3.3l-1.25-.47c2.34-.24,4.71-.4,7.08-.49a196.18,196.18,0,0,1,21.87.73c4.4.37,8.81.85,13.23,1.37,1.83-4.7,6.48-9.21,9.56-12.07.54-.51,1.13-1.06,1.76-1.63Z"/><path class="cls-3" d="M89.29,119.21c2.53,1.2,5.89-1,6.86-3l.6.37c.75.68,2.12,1.54,3.25,1.14,2.12-.74.52-2.21,1.83-3.35,1-.87,2.45.14,3.5-.43s1.47-2.2,2.4-2.61c2.63-1.16,3.49,4.49,8.82,3.73.06,0,2.68,3.23,2.73,3.25,2.7,2,1.08-1.85,2-2.06,1.71-.38,1,1.77,1.71,2.64,1.25,1.53,2.16,2.42,3.92,2.65,5.87.76,6.16-6.54,1.37-7.21,1.12-.39,1.9-1.78,1.61-3.8-.76-5.22-6-4.35-9.63-5.18a19.12,19.12,0,0,1,2.14-1.19c.36-5.44-10.27-1.18-10.25-.57-.06-3-.25-6.26-3.64-5.55-2.36.51-3.41,3.45-5.15,4.75.91-.94-3.21-1.52-4.62-.68-2.15,1.28-3.36,4.16-1.71,6.37-3.24-4.35-8.1,3.38-5,5.44-3.09-.38-6.56,3.53-2.77,5.33"/><path class="cls-3" d="M113.18,119h0c0-.1,0-.15,0,0M70.75,139.38c2.42-.31,4.84-.53,7.25-.61s4.85-.09,7.27,0c4.85.13,9.69.42,14.53.78s9.68.83,14.53,1.32c2.48.25,5,.53,7.44.79a12.53,12.53,0,0,0-3.39,2.21l-.23.22a1.79,1.79,0,0,0-.56,1.21,1.77,1.77,0,0,0,1.62,1.89,44.22,44.22,0,0,0,5.87,0c1,0,1.9-.13,2.85-.22s1.88-.07,2.86-.17h0a.21.21,0,0,0,.2-.15.24.24,0,0,0-.14-.3,39.13,39.13,0,0,0-5.11-1.49,13.8,13.8,0,0,0,2.44-1.05,7.44,7.44,0,0,0,2.86-2.74l0,0a2.5,2.5,0,0,0,.34-1.19,2.39,2.39,0,0,0-2.29-2.46L114.57,137l-2.69-.08a.71.71,0,0,1-.14-.2c.66-10-1.76-11.57-1.76-11.57-.76-3.29,5.06-5,5.06-5a24.25,24.25,0,0,0,4.47-.33,5.17,5.17,0,0,1-.85-.51,2,2,0,0,1-.29-.27l-.14.09a27.56,27.56,0,0,1-4.29,0l.77-2.74h-.77l-.78,2.65a35.83,35.83,0,0,1-3.94,2.58c-2.31-2.84-1.32-3.63-1.32-3.63a6.82,6.82,0,0,0,2.65-3.89c-.23-.2-.43-.41-.62-.6a3.92,3.92,0,0,1-1.59,2.34c.7-1.09-.44-2.32-.94-2.77a.33.33,0,0,0,0,.06,3.13,3.13,0,0,1-.18,2.82c-2.13,2.27,0,5.9,0,5.9s-1.27-.11-2-1.93a14,14,0,0,0-3-3.81,2.58,2.58,0,0,1-1.19,2.35l2.33,2.49a5.27,5.27,0,0,0-2.85-.92,4.62,4.62,0,0,1-3.7-2c-.15-.1-.29-.19-.4-.28a8,8,0,0,1-2,1.78c2.08,1,7.7,1.74,7.7,1.74,4.39,1,5.1,9,5.1,9,.2,2.38-1.65,5.21-2.6,6.48-1.55,0-3.11-.07-4.66-.09-4.89-.06-9.79,0-14.69.33-2.44.16-4.89.37-7.31.68s-4.87.74-7.24,1.27a.23.23,0,0,0,.07.45"/><path class="cls-3" d="M187.38,129a8.59,8.59,0,0,1,2.5-.73c7.68-.38,9.36-9.28,9.36-9.28-8.65.63-10.12,6.55-10.12,6.55a13.5,13.5,0,0,1-1.74,3.46"/><path class="cls-3" d="M182.25,104.84c-3.39,8.7,1.24,12.91,1.24,12.91a13.79,13.79,0,0,1,2.32,3.29,9.94,9.94,0,0,1,.5-2.76c3.18-7.66-4.06-13.44-4.06-13.44"/><path class="cls-3" d="M21,178.76H167L240.87,96,167,13.24H21L90.36,91.53a6.76,6.76,0,0,1,0,8.94ZM170.23,192H6.43a6.4,6.4,0,0,1-5.87-3.95,6.79,6.79,0,0,1,1.13-7.14L76.94,96,1.68,11.09A6.8,6.8,0,0,1,.54,4,6.41,6.41,0,0,1,6.41,0H170a6.25,6.25,0,0,1,2.55.45A6.5,6.5,0,0,1,176.1,4l78.2,87.55a6.77,6.77,0,0,1,0,9L176.1,188a6.5,6.5,0,0,1-3.55,3.51,6.22,6.22,0,0,1-2.32.45"/></svg>