<svg id="Capa_1" data-name="Capa 1" xmlns="http://www.w3.org/2000/svg" viewBox="0 0 256 256"><defs><style>.cls-1{fill:#ffdc0e;}.cls-2{fill:#fff;}.cls-3{fill:#174a25;}.cls-4{fill:#244181;}.cls-5{fill:#c4c4c9;}.cls-6{fill:#1e181b;}.cls-7{fill:#c6c6c5;}.cls-8{fill:#fab900;}</style></defs><title>insignia-final</title><path class="cls-1" d="M32,0H224a32.09,32.09,0,0,1,32,32V224a32.09,32.09,0,0,1-32,32H32A32.09,32.09,0,0,1,0,224V32A32.09,32.09,0,0,1,32,0"/><path class="cls-2" d="M252.19,77h0l-.08,0q-17.74,6-35.41,13.09t-35.41,15.21A735.94,735.94,0,0,0,5.18,219.57L3.35,217a738.9,738.9,0,0,1,176.8-114.74Q197.8,94.11,215.69,87t35.56-13.15l.08,0h0"/><path class="cls-3" d="M36.27,183.26A10.67,10.67,0,1,1,25.6,193.93a10.67,10.67,0,0,1,10.67-10.67"/><path class="cls-4" d="M215.44,158.48c-5.81-23.49,12-48.88,32.08-85.64,1.49-2.75,4.22-5.23,4.22-8.16V16.09c0-1.79-1.77-2.69-2.84-4C245.25,25.53,238.06,40.41,226.71,57c-25,36.45-28.69,73.08-11.27,101.49"/><path class="cls-4" d="M219.47,251.53c.57,1.13,1.12-2.77,1.53-3.55,1.76-3.44,3.59-7,5.45-10.73,19.44-39,14-62.88,1-78.75,5.13,17.52,1.19,39-15.92,66.32A111.88,111.88,0,0,0,200.27,248c-.32.94-.08,2.61-.91,2.83-2.24.58,19.33-.87,20.11.67"/><path class="cls-4" d="M251.74,234.85V185c-6.38,17.74-6.36,35.15,0,49.89"/><path class="cls-4" d="M251.74,147.18v-50c-13.28,23.67-18,52.84-3.18,77.1-2.17-8.8-.83-17.06,3.18-27.14"/><path class="cls-5" d="M29,0H227V0a29,29,0,0,1,29,29h0V227h0a28.93,28.93,0,0,1-8.5,20.49h0A28.89,28.89,0,0,1,227,256v0H29v0a28.93,28.93,0,0,1-20.49-8.5v0A28.87,28.87,0,0,1,0,227H0V29H0A29,29,0,0,1,29,0V0ZM227,8.53H29v0A20.62,20.62,0,0,0,8.52,29h0V227h0a20.43,20.43,0,0,0,6,14.46v0a20.39,20.39,0,0,0,14.46,6H227a20.47,20.47,0,0,0,14.46-6h0a20.41,20.41,0,0,0,6-14.46h0V29h0A20.61,20.61,0,0,0,227,8.51v0"/><path class="cls-6" d="M113.69,238.62c-4.91-2.92-4.91-3.11-5.61-9.41.7-10.86-5-19.22-9.08-29-5.14-7.83,4.66-15.76,8.17-22.77-1.17-3.5-1.17-3.5-2.45-5.49-.47,2-.84,4.18-1.31,6.28-1.52,0-2-.8-4-.46-2.1,4.67-3.67,11.52-4.42,15.66l-3.44-2.17-2.85,7.54c-.35-.11-1.53-1.24-1.76-1.35-2,3.71-7.31,17.71-10.24,21.49-.34-1.29.12-2.66.47-27.18,0-2-3.91.14-6,.38,1.1-4.14,3.89-7.78,4.48-12.1-.23-.35-1.54,0-1.66-.26,2-2.92,4.09-5.14,5.26-7.24l-4.67-1c2-2.22,10.5-10.52,11.32-13.21-1.52.12-4.29-.55-5.7-.44l10.25-9.6c-.72-1.26-.43-1.61-2.19-3.06,4.44-1.52,5.81-1.61,15.16-3.48,3.61-8.64,8.35-18,9.87-27.25l-8.73-7.88,6.21-4c-2.34-2.72-3.2-4.27-5.59-7.51,4.56-2.22,5.47-1.71,4-6.73-1.64-3.86-3-6.72-4-11l7.89-1.1-1.87-4.39,8.65-1.26-3.52-9.21L124,53.55c-7.12-8.52-7.14-13-6.68-22.66A15.1,15.1,0,0,1,119,28.67a6,6,0,0,1,1.4.11C122.7,31.94,129.12,38,133,38.94c0-2.57-1.55-7.58-1.55-10,2.31,2,8.16,5.45,12.24,4.1,2.56.11,5.07,0,7.75.08,4.9-4.21,11.62-16.83,18-16,1,.14.94.42,2,1.87a11.6,11.6,0,0,1,2,6.19c.62,15.63-10.27,24.75-14.82,38.52.51,8.26,3.68.63,6.65-2.68,7-7.74,12.89-13.43,22.55-17.29,5.15-2.06,8-2.21,13.38-.92.77,1.15,1,2.43-.24,4.61.82,1.54.51,3.41-1,5.77,1,1,.43,3.57-.84,4.71-3,3.62-7.9,3.58-12.46,2.3-5.49,5.26-11.19,11.13-14.22,18.13.87-.87,3.7-.87,4.91,0,7.41,5,19.46,21,16,26.28-6.64,3-14.44,7.47-17.2,1.4-1-2.16-1.15-12-3.36-12-2.21,5.84-4,12.3-8.63,16.66-1.08,1-3.64,1.19-4.92,1.42-.24.7,1.6,4.6,1.6,7.29-2.57,2.57-2.36,4.71-3.41,8.33-.7.12-2.51-.34-3.09-.22-1,5.88-3.89,9.72-5.68,15.4-3.88-.77-4.46-7.32-5.4-7.32-3.38,8.64.9,14.32,2.62,23.4.42,2.22,1.32,4.38-.39,6.89-5.34,7.84-8,21.3-2.35,29.26,1.77,2.49,3.89,4.2,6.1,6.3,6.93,4.39,7.21,4.3,3.7,9.7-.68,1.32-.86,3.06-4.27,2.91a4.44,4.44,0,0,1-3.49,2.49c-4.9,0-4.29-2.08-6-6.69a38.53,38.53,0,0,0-5-8.87c-1.82-2.56-9.57-8.88-10.51-12.85.82-1.86.82-1.86,1.75-6.88-1.28.12-2.73-.09-3.85.58-12.85,7.78-6.18,23.7-1.28,34.79,3.73,5.72,8.86,9.92,5.83,17.16-.41,1.74-1.32,1.81-2.18,1.81-2.39,3.08-2.84,3.39-6.65,2.88a3.65,3.65,0,0,1-3.44.25"/><path class="cls-7" d="M127.42,38.71c4.2,2.1,4.22,3.07,6.44,3.54,4.22-6.15,9.8-8.52,17.44-6.92,4.31-1.66,8.77-9.68,12.65-12.76,1.47,3.06,4.18,2.74,6.66,2C174.17,35.05,160,62.53,147.1,62.18c.46,1.89,9.16-1.59,10.49-1.86.55,1.93-1.59,7.83,1.89,8.68-1.09,2.25-1.24,7.69-.13,8.54-3.15,2.57-2.92,5.44.32,8.61-4,1.69-5.76,4.74-2.61,9a18.25,18.25,0,0,1-8.24-1.47l-.66.64c2.2,1.11,8,3.72,11.33,1.11,4.57-3.56,8.69-16.09,14.91-15.84,7.29.28,17.2,15.84,17.86,22.69-1.08,8-6.15-9.73-3.53,2.12.29,2.6-3,2.34-3.7,1.2a11.15,11.15,0,0,0-2.54-3.07c2,3.61-.46,6.82-3.45,3.89-5-4.94-1.38-13.37-6.07-14.37-1.95-.43-2.82,2.66-3.29,4.41-1.75,3.85-4.23,11.06-8.67,12.69-9.92-.7-18.21-4.23-28.15-1.93a5.7,5.7,0,0,0,.23,1.28c6.59-1.17,18.22-1.64,24.06,3.08.82,2.11,2.5,5.09,2.26,7.32-2.1,1-2.64,5-3,7.22-1.08,0-2.68-.83-3.09,0-1.79,3.69-3.38,12.22-5.79,14.36-2.31-1.16-1.73-7.31-5.21-9.07-1.4,4.21-1.21,7.09-2.49,11.3-6.82,2.86-9.1,13-10.15,19.76.58.59-.1.09.72.09,2.46-6.55,2.43-17,9.92-18.11,1.28,5.37,5.81,14.15,3.85,19.28-7.69,20.13-8.52,29.17,8.82,42.25-.1.4,1,.94.83,1.36-1.74,4.51-3.26-.34-4.74-.7-.05,1.58,2,2.51,1.69,4.26-.32,1.35-2,1.53-3.21.72a15.35,15.35,0,0,0-1.64-3.76c-.46-.12-.18.13-.64.13,0,2.1,1.59,3.38,1.47,5.6-1.85,1.5-3.37,1.25-3.75-.11-3-9.23-11.17-15.94-16.24-24.07-1.49-2.39-.36-6.39,1.08-8.8,3.62-6.09-1.1-18.16-2-22.26-1.95-9.37.92-7.91.9-8.63h-1c-5.44,7.24,6.24,22.71.23,28.72-22.53,3.39-11.56,33.16-3,45.07,1.84,2.33,3.13,6.35,2.58,8.8-2.29,3.33-2.72-3-4.53-2.13.12,1.52,1,2.9,1,4.42-1.6,4.6-5.1,2.13-6.39-1.45-2.57-.7-.4,2.72-.4,4.12h-.82c-3.66-1.8-5-5.16-4.28-10.71-1.87-9.7-5.68-18.83-10-27.7-1.6-6.95,5.32-15.88,9-20.65-1.4-6.66-4.09-13-5-19.74-.56-4.28.47-8.63.69-13,3.11-8.75,11-24.73,11-32.08l-8.12-6.85c1.4-.59,4-2.63,5.38-3.21l-4.43-7.35c6.39-3.14.17-12.93-1.23-17.13l8.52-.81c-.11-1.28-1.69-3.19-1.81-4.35,10.84-1.07,7.86-2.85,4.67-12.1,2.69-2.68,6.88-5.4,8-8.91-3.4-2.42-10.93-17.67-7.1-21.5,1.64.82,2.49,3.26,7.63,7.46m30.81,56.06c-1-2.92-4.62-4.78,3.29-8.62-3-3.38-3.3-6.31-.13-8.61-2.13-3-1.08-7.62-.31-9C168,56.65,189.64,38,200,44.35c0,.35-.12,1.55-.52,1.79-1.92,1.18-2.83.3-3.61,1.56-.25.41-.11,1.28.35,1.4,2,.52,3.52.93,2.53,2.92-.83,1.65-3.75.5-5.62.39,0,1.63,2.5,2.41,3.9,2.76a2.61,2.61,0,0,1,.42,1.23c-2.66,4.24-7.35,1.35-12.1,1.93-8.66,8.49-19.75,29.41-27.15,36.44m-79.91,117-.17-22.88-4.73,1.24c0-.55,2.54-6.37,4.81-11.06.27-.58-2.4.24-2-.24,2.54-3.18,5.22-7.42,5.62-7.42-2.65-.86-1.92-.23-4.38-1L89,156.68l-5.32-.14,9.11-8-2.15-2.91,12.62-2.45c-.12,2.68-.87,11.77-1,14.58.47,3,1.46,5.32,1.27,8.52s-.16,7-1,10c-.93.12-3.54-.85-4.36-.73l-4.46,14.63c-.82-.23-2-2.25-2.74-2.37l-3,8.35-1.93-1.89c-2.8,4.9-5.16,12.29-7.74,17.48"/><path class="cls-6" d="M140.86,40.54c1.51-1.54,3.29-2.26,4-1.59s0,2.46-1.51,4-3.29,2.27-4,1.6,0-2.46,1.51-4m-18.66.67c2.21,7.88,9.55,4.7,2.35-2.49-2.35-1-2.83.7-2.35,2.49m12.87,55.06c0-7.82,1.64-10.9-6.19-9.63-5.45.88-5.23,5.65-9.68.17-.47-.57-1.41-.47-2-.7a9.94,9.94,0,0,1,.24-2c2.44-.12,3.67,1.46,5.07,3.1,2.1,0,2.88-1.84,4.83-2.42,4.44-1.31,8.76-1.27,10.51,4,1.75-.7,4.68-2.8,6.56-2.34-.12.47-.24,1.05-.36,1.64-4.14,2-7.05,5.64-9,8.17"/><circle id="fondo" class="cls-8" cx="58" cy="58" r="32"/><path id="rizo" class="cls-2" d="M59.55,30.8a1.52,1.52,0,0,0,.17-.48,2,2,0,0,1,.21-.5,1.35,1.35,0,0,1,.32-.26v0c.84.08,1.68.19,2.5.35a1.48,1.48,0,0,0-.35.25,2.37,2.37,0,0,0-.25.47,1.35,1.35,0,0,1-.22.47,1.46,1.46,0,0,1-.38.27h0c-.79-.12-1.6-.2-2.4-.25A1.36,1.36,0,0,0,59.55,30.8Zm3.23-.91Zm-.53,1.58A22.93,22.93,0,0,1,64.6,32l0,0a1.47,1.47,0,0,0,.41-.22,1.41,1.41,0,0,0,.27-.43,2.29,2.29,0,0,1,.32-.43,1.54,1.54,0,0,1,.38-.2h0a22.1,22.1,0,0,0-2.45-.67h0a1.43,1.43,0,0,0-.37.23,2.59,2.59,0,0,0-.26.46,1.53,1.53,0,0,1-.23.46A2,2,0,0,1,62.25,31.47Zm-6-2Zm-.8,1.72a1.48,1.48,0,0,0,.3-.36,1.43,1.43,0,0,0,.09-.5,2.31,2.31,0,0,1,.12-.52,1.58,1.58,0,0,1,.29-.34c-.84.06-1.68.17-2.52.31v0a1.48,1.48,0,0,0-.25.35,2.33,2.33,0,0,0-.07.53,1.41,1.41,0,0,1,0,.5,1.62,1.62,0,0,1-.25.39,24.08,24.08,0,0,1,2.38-.39ZM35.81,43a1.39,1.39,0,0,0,.12.41,2,2,0,0,0,.38.39,1.52,1.52,0,0,1,.38.34,1.7,1.7,0,0,1,.15.45A21.78,21.78,0,0,1,38,42.41h0a1.47,1.47,0,0,0-.11-.46,1.4,1.4,0,0,0-.35-.38,2.25,2.25,0,0,1-.34-.41,2.07,2.07,0,0,1-.08-.42c-.46.71-.89,1.44-1.28,2.19ZM58.54,31.09h0a1.72,1.72,0,0,0,.34-.32,1.31,1.31,0,0,0,.15-.5,2.72,2.72,0,0,1,.19-.5,1.22,1.22,0,0,1,.33-.27h0c-.85-.05-1.69-.06-2.53,0h0a1.47,1.47,0,0,0-.29.32,1.84,1.84,0,0,0-.14.51,1.45,1.45,0,0,1-.11.5,1.55,1.55,0,0,1-.31.36A23.76,23.76,0,0,1,58.54,31.09Zm7.25,45.54a17.82,17.82,0,0,0-2.6,1.08,3.45,3.45,0,0,0-.33.16,1.72,1.72,0,0,0-.11.5c0,.15,0,.39,0,.55a1.83,1.83,0,0,1-.31.81,9,9,0,0,0,2.59-1l.41-.22a2.81,2.81,0,0,0,.1-.31,2.34,2.34,0,0,0,.07-.45c0-.15-.12-.25-.07-.46a3.17,3.17,0,0,1,.28-.62Zm-7.29,3a4.34,4.34,0,0,0,1.35-.89c.11-.11.44-.36.55-.47s-1.07-.91-.87-1.55c-1.2,1.05-1.68,1.58-2.68,1.58-.25,0,0,0,0,0a1.8,1.8,0,0,0-.25.5,2.26,2.26,0,0,0-.1.45,3.25,3.25,0,0,0,0,.54A4.1,4.1,0,0,0,58.5,79.65Zm-1.63-1.82a2,2,0,0,0,.91-.38l.43-.34A3.06,3.06,0,0,0,55.58,76c-.18,0-.45,0-.58.15h0s-.89,1.1-.53,1.48a3,3,0,0,1,1,0,3.2,3.2,0,0,1,1.11.19Zm5.18,4.42s1.22-1.14,2-.78l-.17-.16a4.21,4.21,0,0,0-2.39-.85c-.75,0-2.07.2-2.37.69a4,4,0,0,1,1.85.94C61,82.16,61.33,82.07,62.05,82.25Zm-1.66-3.31L60,79.3c-.1.08-.55.35-.61.4s.81.39,2.3.17h0a1.83,1.83,0,0,0,.25-.35,2.75,2.75,0,0,0,.16-.56,3.32,3.32,0,0,0,.06-.44,1.21,1.21,0,0,1,.07-.37c-.17.09-1.06.39-1.06.39l-.41.09c-.11.1-.22.23-.33.32Zm-4-.63a1.63,1.63,0,0,0-.25.47,2.79,2.79,0,0,0-.14.47c-.14.64,0,.64,0,.64a9.26,9.26,0,0,1-3.15-.77s.23-.29.3-.35.22-.14.29-.29a1.51,1.51,0,0,1,.67-.44,15.12,15.12,0,0,0,2,.29Zm5.8-2.63a4.64,4.64,0,0,0-2.17.81h0c-.4.45.89,1.45.89,1.45h0a2.1,2.1,0,0,1,1.8-.66,18.35,18.35,0,0,1,1.9-.76,2.61,2.61,0,0,0-2.42-.84ZM42.1,36.25a1.5,1.5,0,0,1,.22.46,1.83,1.83,0,0,1,0,.47,23.06,23.06,0,0,1,1.87-1.53h0a1.5,1.5,0,0,0,.08-.47,1.35,1.35,0,0,0-.18-.47,2.21,2.21,0,0,1-.15-.5,1.56,1.56,0,0,1,.08-.43c-.7.48-1.37,1-2,1.53v0a1.12,1.12,0,0,0,0,.41A1.94,1.94,0,0,0,42.1,36.25Zm-3,1.88Zm-1.56,2a1.48,1.48,0,0,0,.07.42,2.34,2.34,0,0,0,.33.43,1.28,1.28,0,0,1,.34.39,1.71,1.71,0,0,1,.09.46,22.72,22.72,0,0,1,1.42-2h0a1.48,1.48,0,0,0,0-.47,1.37,1.37,0,0,0-.29-.42,1.78,1.78,0,0,1-.28-.45,2.09,2.09,0,0,1,0-.43c-.54.64-1.06,1.3-1.55,2ZM39.58,38a2.2,2.2,0,0,0,.27.47,1.44,1.44,0,0,1,.27.42,1.56,1.56,0,0,1,0,.48h0a23,23,0,0,1,1.65-1.77h0a1.48,1.48,0,0,0,0-.47,1.33,1.33,0,0,0-.25-.45,2.71,2.71,0,0,1-.22-.49,1.56,1.56,0,0,1,0-.43h0a25.37,25.37,0,0,0-1.81,1.78v0a1.56,1.56,0,0,0,0,.43Zm10.25-7.18Zm.32,1.63a21.14,21.14,0,0,1,2.31-.7h0a1.67,1.67,0,0,0,.25-.4,1.25,1.25,0,0,0,0-.51,2.33,2.33,0,0,1,.06-.53A1.05,1.05,0,0,1,53,30a22.6,22.6,0,0,0-2.45.64v0a1.28,1.28,0,0,0-.23.37,2.35,2.35,0,0,0,0,.53,1.14,1.14,0,0,1,0,.52,1.65,1.65,0,0,1-.21.42ZM44.78,34.8a1.27,1.27,0,0,1-.09.47c.67-.46,1.35-.88,2.06-1.27h0a1.78,1.78,0,0,0,.13-.45,1.25,1.25,0,0,0-.11-.5,1.89,1.89,0,0,1-.08-.53,1.51,1.51,0,0,1,.13-.41c-.76.38-1.49.8-2.21,1.25v0a1.5,1.5,0,0,0-.09.42,2.33,2.33,0,0,0,.13.52A1.34,1.34,0,0,1,44.78,34.8Zm2.7-1.55a1.42,1.42,0,0,1-.16.45,22.85,22.85,0,0,1,2.2-1h0a1.49,1.49,0,0,0,.19-.43,1.4,1.4,0,0,0,0-.5,2.37,2.37,0,0,1,0-.53,1.41,1.41,0,0,1,.19-.39,25.09,25.09,0,0,0-2.35.95v0a1.49,1.49,0,0,0-.15.4,2.33,2.33,0,0,0,.06.53A1.44,1.44,0,0,1,47.48,33.25Zm5.35,45.87Zm24-41.25Zm-.92,1a1.47,1.47,0,0,1-.47,0h0A21.27,21.27,0,0,1,77,40.66v0a1.93,1.93,0,0,0,.47.08,1.33,1.33,0,0,0,.48-.18,2.21,2.21,0,0,1,.5-.15,1.16,1.16,0,0,1,.42.08,21.42,21.42,0,0,0-1.53-2h0a1.47,1.47,0,0,0-.42,0,2.75,2.75,0,0,0-.5.2,1.19,1.19,0,0,1-.47.22Zm-2.2-2.2a1.94,1.94,0,0,1-.48,0A21.08,21.08,0,0,1,75,38.31v0a1.29,1.29,0,0,0,.48,0,1.43,1.43,0,0,0,.45-.25,2,2,0,0,1,.49-.21,1.19,1.19,0,0,1,.42,0A23.37,23.37,0,0,0,75,36h0a1.48,1.48,0,0,0-.42,0,2.34,2.34,0,0,0-.47.25,1.34,1.34,0,0,1-.43.32Zm-2.48-1.89a1.5,1.5,0,0,1-.46.09c.67.44,1.33.91,2,1.41v0a1.47,1.47,0,0,0,.47,0,1.79,1.79,0,0,0,.42-.3,2.6,2.6,0,0,1,.45-.28,1.56,1.56,0,0,1,.43,0c-.64-.55-1.3-1.07-2-1.56h0a1.48,1.48,0,0,0-.42.07,2.29,2.29,0,0,0-.43.32,1.23,1.23,0,0,1-.41.34Zm.63-1.15Zm9.92,12.73Zm-.7.5a1.07,1.07,0,0,1-.5,0,1.4,1.4,0,0,1-.43-.2,21.14,21.14,0,0,1,.7,2.31v0a2.06,2.06,0,0,0,.4.25,1.69,1.69,0,0,0,.5,0,2,2,0,0,1,.54,0,1.21,1.21,0,0,1,.35.24A23.39,23.39,0,0,0,82,47h0a1.07,1.07,0,0,0-.38-.2,2.27,2.27,0,0,0-.52,0Zm1.57,2.67Zm-2.78-5.6a1.43,1.43,0,0,1-.5.09,1.7,1.7,0,0,1-.45-.15,19.78,19.78,0,0,1,1,2.2v0a1.49,1.49,0,0,0,.43.19,1.2,1.2,0,0,0,.5,0,2.44,2.44,0,0,1,.54,0,1.93,1.93,0,0,1,.38.19,22.64,22.64,0,0,0-1-2.35h0a1.49,1.49,0,0,0-.4-.15A1.87,1.87,0,0,0,79.87,43.88Zm-1.58-2.75a1.57,1.57,0,0,1-.49.16,1.87,1.87,0,0,1-.46-.09,22.69,22.69,0,0,1,1.28,2v0a1.67,1.67,0,0,0,.45.13,1.25,1.25,0,0,0,.5-.11,1.89,1.89,0,0,1,.53-.08,1.17,1.17,0,0,1,.4.13,22.66,22.66,0,0,0-1.25-2.2h0a1.29,1.29,0,0,0-.42-.1,2.4,2.4,0,0,0-.53.12Zm2.21,2.16ZM51,82.5a3.79,3.79,0,0,0,1.5,0,1.07,1.07,0,0,0,.42-.28h0a2.55,2.55,0,0,1-1-2.09c-1.1-.13-1.37-1.33-1.39-1.4a4.26,4.26,0,0,0-.25,1.37,4.18,4.18,0,0,0,.7,2.4ZM81.89,49.89a1.42,1.42,0,0,1-.5,0,1.36,1.36,0,0,1-.39-.25c.17.79.3,1.59.39,2.39v0a1.69,1.69,0,0,0,.36.3,1.22,1.22,0,0,0,.5.08,3,3,0,0,1,.52.13,1.75,1.75,0,0,1,.33.28c-.07-.84-.17-1.68-.32-2.52h0a1.66,1.66,0,0,0-.34-.25A2,2,0,0,0,81.89,49.89ZM54.14,81.75a2.48,2.48,0,0,1,.94.21s1.16-1.2,1.29-1.15a6.11,6.11,0,0,0-3.78-.25l.23.41.61.84Zm-3.61-3Zm32.57-26ZM54.05,78Zm0,0Zm-.63-2a4.38,4.38,0,0,0-2.59,2h0s.27,1.36,1.16,1.39a3.93,3.93,0,0,1,1.39-1.53l.17-.2A2.35,2.35,0,0,1,54,76ZM69,32ZM65.64,32a1.65,1.65,0,0,1-.42.21,22.59,22.59,0,0,1,2.25.85h0a1.74,1.74,0,0,0,.45-.17,1.48,1.48,0,0,0,.32-.39,2,2,0,0,1,.37-.39A1.12,1.12,0,0,1,69,32a22.94,22.94,0,0,0-2.33-1h0a1.38,1.38,0,0,0-.39.18,1.7,1.7,0,0,0-.33.42A1.33,1.33,0,0,1,65.64,32Zm2.88,1.18a1.46,1.46,0,0,1-.44.16,23,23,0,0,1,2.13,1.14l0,0a1.82,1.82,0,0,0,.46-.11A1.4,1.4,0,0,0,71,34a2.25,2.25,0,0,1,.41-.34,2.07,2.07,0,0,1,.42-.08,24.15,24.15,0,0,0-2.19-1.29h0a1.23,1.23,0,0,0-.41.13,2.22,2.22,0,0,0-.38.37,1.16,1.16,0,0,1-.34.39ZM47.88,76.62a2.28,2.28,0,0,1-.38.38,1.42,1.42,0,0,1-.41.14c.77.37,1.55.71,2.34,1h0a1.38,1.38,0,0,0,.39-.18,2.18,2.18,0,0,0,.33-.42,1.37,1.37,0,0,1,.29-.42,1.65,1.65,0,0,1,.42-.21A22.65,22.65,0,0,1,48.63,76l0,0a1.74,1.74,0,0,0-.45.17A1.34,1.34,0,0,0,47.88,76.62Zm17.7,5.17a2.9,2.9,0,0,0,.36-2.88l-1.81.83a1,1,0,0,1-.21,1.17s1.76.77,1.66.88Zm1.09,4.78.5.82,1.33-1.45a6,6,0,0,0-.63-.5Zm.69-1.5-1.18,1.05.16.17,1.19-1.05Zm4.79-9.73ZM69.32,77Zm2-2.69a1.86,1.86,0,0,1,.09-.47c-.66.46-1.35.89-2,1.28h0a1.37,1.37,0,0,0-.13.45,1.25,1.25,0,0,0,.11.5,1.89,1.89,0,0,1,.08.53,1.11,1.11,0,0,1-.13.4,20.75,20.75,0,0,0,2.2-1.25v0a1.43,1.43,0,0,0,.1-.42,2.93,2.93,0,0,0-.13-.51,1.45,1.45,0,0,1-.15-.5ZM65.07,84.86l.83.87,1.29-1.09a1.45,1.45,0,0,0-2.12.22Zm3.57-9a1.76,1.76,0,0,1,.15-.44c-.71.37-1.45.7-2.2,1h0a2.06,2.06,0,0,0-.21.42,1.3,1.3,0,0,0,0,.52,2,2,0,0,1-.07.54,2.23,2.23,0,0,1-.16.43c.79-.27,1.72-.64,2.5-1v0a1.38,1.38,0,0,0,.15-.4,2.33,2.33,0,0,0-.06-.53,1.29,1.29,0,0,1-.1-.51ZM55.5,82.61a1.65,1.65,0,0,1-.58,1.89c1.4.36,3-1.15,3-1.15a5.46,5.46,0,0,0-1.67-.57Zm4.68-.33A7.53,7.53,0,0,0,57.3,81l-1.55,1.09,1.85.61c.56.15.71.42,1.41.87,0,0,1.64-.94,1.16-1.32Zm-5.25.45a1.94,1.94,0,0,1-.48,0,2.47,2.47,0,0,1-.89-.17h0c-.25.77-2,.6-2,.6a4.27,4.27,0,0,0,2.36,1.17h0s1-.21,1-1.63Zm11.69,1.14h0c-.36-.48-.67-.9-.85-1.09a5.08,5.08,0,0,0-.75-.64,1.71,1.71,0,0,0-2.33.35A5.26,5.26,0,0,1,64.36,84l.22.37s1.2-1.25,2-.46Zm-2,.5v0h0Zm-2.2-1.72a3.21,3.21,0,0,1-1.5-.07C61,83.05,59.6,84,59.6,84a3.6,3.6,0,0,0,2.15.54,2.7,2.7,0,0,0,1.6-.64,2.89,2.89,0,0,1-1-1.21ZM35.46,43.6ZM83.05,56.75a1.4,1.4,0,0,0-.27-.33,2.41,2.41,0,0,0-.5-.21A1.15,1.15,0,0,1,81.8,56a1.52,1.52,0,0,1-.32-.35,21.42,21.42,0,0,1-.23,2.4v0a1.46,1.46,0,0,0,.27.38,1.56,1.56,0,0,0,.47.22,1.94,1.94,0,0,1,.47.25,1.48,1.48,0,0,1,.25.35c.15-.83.27-1.66.35-2.5Zm-.33,2.53ZM74,72.86a1.22,1.22,0,0,1-.22-.46,1.3,1.3,0,0,1,0-.48A22.81,22.81,0,0,1,72,73.46h0a1.44,1.44,0,0,0-.08.46,1.33,1.33,0,0,0,.18.48,2.21,2.21,0,0,1,.15.5,1.26,1.26,0,0,1-.08.43c.7-.48,1.38-1,2-1.53v0a2.09,2.09,0,0,0,0-.43,2.33,2.33,0,0,0-.21-.49ZM54.93,82.72h0ZM81.54,62.78a1.9,1.9,0,0,0-.39-.36,1.57,1.57,0,0,1-.4-.32,1.85,1.85,0,0,1-.18-.44,21.78,21.78,0,0,1-1,2.19h0a1.81,1.81,0,0,0,.14.45,1.41,1.41,0,0,0,.37.36,2.25,2.25,0,0,1,.36.39,1.46,1.46,0,0,1,.11.41h0a25.21,25.21,0,0,0,1.15-2.26v0A1.11,1.11,0,0,0,81.54,62.78Zm1.6-9.29h0a1.11,1.11,0,0,0-.31-.3,1.91,1.91,0,0,0-.52-.14,1.45,1.45,0,0,1-.5-.11,1.47,1.47,0,0,1-.35-.31h0c.07.81.09,1.61.08,2.42v0a1.72,1.72,0,0,0,.32.34,1.4,1.4,0,0,0,.49.15,2.34,2.34,0,0,1,.5.19,1.43,1.43,0,0,1,.28.32,21.55,21.55,0,0,0,0-2.54Zm-.82,6.14a1.92,1.92,0,0,0-.46-.27,1.28,1.28,0,0,1-.45-.23,1.36,1.36,0,0,1-.25-.39c-.15.8-.33,1.58-.55,2.35v0a1.68,1.68,0,0,0,.22.42,1.41,1.41,0,0,0,.43.27,2.32,2.32,0,0,1,.44.31,1.41,1.41,0,0,1,.19.39h0A23.37,23.37,0,0,0,82.57,60v0a1.74,1.74,0,0,0-.24-.36ZM77.05,71Zm-.52.1a2.3,2.3,0,0,0-.25-.46,1.39,1.39,0,0,1-.28-.43,1.83,1.83,0,0,1,0-.47,21.19,21.19,0,0,1-1.65,1.76h0a1.87,1.87,0,0,0,0,.47,1.58,1.58,0,0,0,.25.46,2.09,2.09,0,0,1,.22.48,1.54,1.54,0,0,1,0,.43,23.25,23.25,0,0,0,1.8-1.78v0a1.34,1.34,0,0,0,0-.44Zm-1.78,2.23Zm5.56-7.16a1.48,1.48,0,0,0-.12-.41,2.28,2.28,0,0,0-.38-.38,1.54,1.54,0,0,1-.38-.34,1.7,1.7,0,0,1-.15-.45,24.16,24.16,0,0,1-1.14,2.13h0a1.9,1.9,0,0,0,.1.46,1.37,1.37,0,0,0,.35.37,2.31,2.31,0,0,1,.34.42,1.16,1.16,0,0,1,.08.42,24.15,24.15,0,0,0,1.29-2.19ZM78.61,69a1.56,1.56,0,0,0-.08-.43,2.13,2.13,0,0,0-.31-.43,1.24,1.24,0,0,1-.34-.38,1.86,1.86,0,0,1-.09-.47c-.44.68-.91,1.34-1.41,2l0,0a1.48,1.48,0,0,0,0,.47,1.37,1.37,0,0,0,.29.42,2.18,2.18,0,0,1,.28.46,1.5,1.5,0,0,1,0,.42c.54-.63,1.07-1.3,1.56-2ZM83.13,56Zm-48.91,3.2a1.2,1.2,0,0,1,.5,0,1.44,1.44,0,0,1,.39.25,24.08,24.08,0,0,1-.39-2.38v0a1.48,1.48,0,0,0-.36-.3,1.43,1.43,0,0,0-.5-.09,2.31,2.31,0,0,1-.52-.12,1.43,1.43,0,0,1-.32-.28,21.67,21.67,0,0,0,.31,2.52h0a1.78,1.78,0,0,0,.36.25A2.27,2.27,0,0,0,34.22,59.22ZM33,56.36Zm.45,3.25ZM50,81.77a2.39,2.39,0,0,0-.37.15l.1-.07a3,3,0,0,0-.78.59c-.18.19-.51.62-.89,1.09h0c.89-.77,2,.55,2,.55v0l.35-.35a6.36,6.36,0,0,1,.57-.46A2.49,2.49,0,0,1,50,81.77ZM33.3,55.92a2.38,2.38,0,0,0,.52.15,1.44,1.44,0,0,1,.5.1,1.73,1.73,0,0,1,.35.31c-.06-.8-.09-1.61-.08-2.41v0a1.52,1.52,0,0,0-.33-.34,1.34,1.34,0,0,0-.49-.15,3,3,0,0,1-.5-.19,2.16,2.16,0,0,1-.27-.33c0,.85,0,1.7,0,2.54h0A1.22,1.22,0,0,0,33.3,55.92Zm3,9.31a1.24,1.24,0,0,1,.5-.1,1.7,1.7,0,0,1,.45.15,19.78,19.78,0,0,1-1-2.2v0a1.52,1.52,0,0,0-.43-.2,1.4,1.4,0,0,0-.5.05,2.44,2.44,0,0,1-.54,0,1.46,1.46,0,0,1-.38-.18,23.86,23.86,0,0,0,.95,2.34h0a1.38,1.38,0,0,0,.4.15A2.32,2.32,0,0,0,36.25,65.23Zm-1.9-2.45ZM34.48,46a1,1,0,0,0,.18.4,2.36,2.36,0,0,0,.42.33,1.32,1.32,0,0,1,.42.29,1.5,1.5,0,0,1,.21.42,21.69,21.69,0,0,1,.85-2.25v0a2.2,2.2,0,0,0-.17-.45,1.33,1.33,0,0,0-.38-.33,2.4,2.4,0,0,1-.4-.38,1.42,1.42,0,0,1-.14-.41c-.37.77-.71,1.55-1,2.34ZM33,53.08Zm.57-4a1.16,1.16,0,0,0,.23.36,2,2,0,0,0,.47.28,1.53,1.53,0,0,1,.46.23,2,2,0,0,1,.26.39A23.56,23.56,0,0,1,35.52,48v0a1.47,1.47,0,0,0-.22-.41,1.37,1.37,0,0,0-.44-.28,2.61,2.61,0,0,1-.43-.31,1.41,1.41,0,0,1-.19-.39c-.27.81-.49,1.62-.68,2.45Zm-.5,3.25a1.4,1.4,0,0,0,.27.33,2.41,2.41,0,0,0,.5.21,1.25,1.25,0,0,1,.49.17,1.73,1.73,0,0,1,.31.35,21.45,21.45,0,0,1,.25-2.4v0a1.78,1.78,0,0,0-.28-.38,1.35,1.35,0,0,0-.47-.22,2.37,2.37,0,0,1-.47-.25,1.48,1.48,0,0,1-.25-.35c-.16.82-.27,1.66-.35,2.5Zm.34-2.53ZM35,62.3a1.42,1.42,0,0,1,.5,0,1.72,1.72,0,0,1,.43.21,21.31,21.31,0,0,1-.7-2.32v0a1.41,1.41,0,0,0-.4-.25,1.21,1.21,0,0,0-.5,0,2.48,2.48,0,0,1-.54-.06,1.41,1.41,0,0,1-.35-.23c.17.82.38,1.64.63,2.45h0a1.38,1.38,0,0,0,.38.2,2,2,0,0,0,.54,0ZM46.44,76.81a1.55,1.55,0,0,0,.42-.12,2.73,2.73,0,0,0,.38-.38,1.23,1.23,0,0,1,.34-.38,1.76,1.76,0,0,1,.44-.15,24.16,24.16,0,0,1-2.13-1.14l0,0a1.41,1.41,0,0,0-.46.11,1.38,1.38,0,0,0-.38.34,2.25,2.25,0,0,1-.41.34,1.58,1.58,0,0,1-.42.09,23.66,23.66,0,0,0,2.19,1.28ZM46.1,85.5,47.38,87l.53-.8L46.75,85A6,6,0,0,0,46.1,85.5Zm-1.85-10Zm2.8,9.28,1.14,1.1.15-.18-1.13-1.1Zm.42-.56,1.25,1.14.86-.83A1.46,1.46,0,0,0,47.47,84.25Zm-2.58-9.87a1.46,1.46,0,0,1,.46-.1,20.66,20.66,0,0,1-2-1.41v0a1.47,1.47,0,0,0-.47,0,1.39,1.39,0,0,0-.41.31,2.6,2.6,0,0,1-.45.28,1.56,1.56,0,0,1-.43,0c.64.55,1.31,1.07,2,1.56h0a1.48,1.48,0,0,0,.42-.07,2.38,2.38,0,0,0,.43-.34A1.23,1.23,0,0,1,44.89,74.38Zm-4.68-4.09a1.23,1.23,0,0,1,.47,0c-.54-.6-1-1.22-1.53-1.87v0a1.85,1.85,0,0,0-.47-.08,1.64,1.64,0,0,0-.48.18,2.15,2.15,0,0,1-.51.15,1.25,1.25,0,0,1-.42-.08c.48.7,1,1.38,1.53,2h0a1.53,1.53,0,0,0,.43,0,3.07,3.07,0,0,0,.5-.2A1.23,1.23,0,0,1,40.21,70.29Zm-2.94-1.65Zm.55-.66a1.41,1.41,0,0,1,.49-.16,1.46,1.46,0,0,1,.46.1c-.46-.67-.88-1.35-1.27-2.06v0a1.67,1.67,0,0,0-.45-.13,1.45,1.45,0,0,0-.5.11,1.89,1.89,0,0,1-.53.08,1.23,1.23,0,0,1-.41-.13c.38.76.8,1.49,1.25,2.21h0a1.43,1.43,0,0,0,.41.09,1.8,1.8,0,0,0,.52-.13Zm4.59,4.5a1.89,1.89,0,0,1,.47,0c-.61-.52-1.2-1.07-1.76-1.65v0a1.48,1.48,0,0,0-.47,0,1.28,1.28,0,0,0-.45.23,2,2,0,0,1-.5.22,1.55,1.55,0,0,1-.43,0A25.19,25.19,0,0,0,41.05,73h0a1.55,1.55,0,0,0,.43,0,2.13,2.13,0,0,0,.46-.27,1.56,1.56,0,0,1,.45-.26Zm-.78,1.06Zm-2.34-2.29Z"/><path id="flor" class="cls-2" d="M54.42,58.39h0a25.25,25.25,0,0,0-2.88.4C51,57,49.69,54.58,47.39,54.91A3.11,3.11,0,0,0,45.07,59c-2.81.39-5.18-1.88-5.75-4.48a6.35,6.35,0,0,1,6.07-7.78c5.75,0,8.84,7.58,9,11.64m7.27,0c.19-4,3.29-11.63,9-11.63a6.35,6.35,0,0,1,6.07,7.77c-.57,2.59-2.93,4.87-5.75,4.48.48-1.8-.35-3.82-2.32-4.1-2.3-.34-3.64,2-4.11,3.86a29,29,0,0,0-2.89-.37Zm-3.63,3.44c-4.29,0-7.77-.64-7.77-1.42S53.75,59,58.05,59s7.77.64,7.77,1.42-3.48,1.41-7.77,1.41m6.3.25A3.13,3.13,0,0,0,69,64.6a3.48,3.48,0,0,1-3.29,3.25c-2.42,0-3.83-3.68-4-5.38h0a24.56,24.56,0,0,0,2.71-.39Zm-9.93.39c-.17,1.69-1.59,5.42-4,5.42a3.47,3.47,0,0,1-3.29-3.25,3.13,3.13,0,0,0,4.63-2.56v0a26.63,26.63,0,0,0,2.68.4Zm3.63-27.54a27.42,27.42,0,0,0,3.1,2.69,9.21,9.21,0,0,1,3.91,7.1c0,4.41-3.68,8.28-4.14,13.6a21.32,21.32,0,0,0-2.4-.13c.1-5.4-.11-12.72-.47-18-.37,5.28-.57,12.6-.48,18a21.14,21.14,0,0,0-2.39.13C54.72,53,51,49.13,51,44.72a9.17,9.17,0,0,1,3.91-7.1,26.68,26.68,0,0,0,3.11-2.69m0,37.85A10.74,10.74,0,0,1,52.94,68a12.13,12.13,0,0,0,2.19-5.4c.75.06,1.57.09,2.4.09a43.35,43.35,0,0,0,.52,6.13,42,42,0,0,0,.51-6.13c.84,0,1.65,0,2.41-.09A12.13,12.13,0,0,0,63.16,68a10.65,10.65,0,0,1-5.11,4.82"/></svg>