<svg id="Capa_1" data-name="Capa 1" xmlns="http://www.w3.org/2000/svg" viewBox="0 0 256 256"><defs><style>.cls-1{fill:#0075be;}.cls-2{fill:#9ca8b0;}.cls-3{fill:#fbb900;}.cls-4{fill:#1d1d1b;}.cls-5{fill:#fff;}</style></defs><title>progresion</title><rect class="cls-1" x="12" y="12" width="232" height="232"/><circle class="cls-2" cx="29.86" cy="202.77" r="0.69"/><path class="cls-3" d="M223.64,256H32.52A32.48,32.48,0,0,1,0,223.63V32.51A32.56,32.56,0,0,1,32.52,0H223.64A32.48,32.48,0,0,1,256,32.51V223.63A32.4,32.4,0,0,1,223.64,256ZM32.52,17.06A15.67,15.67,0,0,0,17.06,32.51V223.63a15.4,15.4,0,0,0,15.46,15.31H223.64a15.51,15.51,0,0,0,15.3-15.31V32.51a15.59,15.59,0,0,0-15.3-15.45Z"/><path class="cls-4" d="M230.42,103c-1.15-4.77-9.1,1.3-11.84,2.45.43-5.63,5.92-8.23,5.92-13.87h-1.3c-3.61,3.91-13.29,14.16-18.78,14.16,1.45-3.75,1.45-3.75,1.88-6.64-2.31-2.46-9.68,9-14.3,9,.29-3,1.88-5.63,2-8.52-4.62.72-6.07,5.92-11.27,6.5-.86-.43-4.62-1.73-4.62-3,1.59-1.59,3.61-3.76,3.9-5.93-3.32-.72-7.8,2.6-11.85,2.6-.43-2.31,3-4.91,3-7.8-2.75,0-4.77,3.47-6.94,5.2-2.88.44-5.77,1-8.66,1.59a35.84,35.84,0,0,0-10.55,1.59c-2.45.58-4.77,1.3-7.22,2C127,108.5,118,119,110.09,130.6a29.73,29.73,0,0,0-3.9,3.32h-.58c.15-3,.29-6.07.29-9.1-.43-.14-.43-.14-7.08,7.22-1.59,2.6-1.59,2.6-4.91,9.39-.29-.57.43-5.63.29-8.09H92.47c-.73,1-1.3,2-2,3A49.12,49.12,0,0,0,87,143.17c-.87.86-1.59,1.73-2.32,2.6-.57.57-1,1.15-1.58,1.73-1.16-3.18,1.3-5.34,1.58-8.23v-.58c-6.78,1.44-10.54,12.71-12,18.63-2,1-2.45-7.36-2.88-8.37-1.31.28-1.45.72-2.32,1.73-4.76,2.45-6.79,8.52-10.4,12.13a18.91,18.91,0,0,1-7.51-6.35h-1.3a69.11,69.11,0,0,0-.58,21.09c-3.32,4-3.32,6.93-4.33,12.57-2,1.87-7.8,9.1-10.4,9.1a4.85,4.85,0,0,0-3.18-1.45c-4.48-.29-6.5,7.95,0,9.68h.14c1,1.59,4.05,2.75,5.64,3.61,1.59-.14,3.47-.29,5.2-.29,9.39-4.33,16.18-10.25,26.44-2.16h1.73a27.63,27.63,0,0,1,.14-3.47c2.46-.58,4.48,1.3,7.23.87.14-3.9.14-3.9.57-4.48,1.16.14,2.89-.15,3.47,1.15-1.3,2.46-.87,3.76-.29,6.22a14.88,14.88,0,0,0,4.62.72,19.83,19.83,0,0,0,5.78-.44c4-.72,7.8-2.16,10-4.33a37.12,37.12,0,0,0-.29-6.93c7.22-5.49,15.31-10.4,16.47-19.79a100.49,100.49,0,0,0,14.59-11.56c4.91,3.9-1.44,13.43-3.32,16.61-1.3,1-1.3,1-8.09,4a9.69,9.69,0,0,0-3.9,8.23c4.33,5.92,19.79.87,26.58.43a34.15,34.15,0,0,0,4.62-1c8.67-2.74,9.39-7.65,11.7-18.34,2.31-5.2,5.78-9.83,8.95-14.45,1.89-7.66-.14-13.43-2.45-20.8,0-8.67,4.77-16.61,6.21-25a.53.53,0,0,1,.44-.15c1,1.45,2.17,3,3.18,4.63,1.3,4-.44,9.82,1.3,13.14H177c.58-1.3,1.3-2.45,1.88-3.75,0-.87.29-9.11,2.31-8.38,1,2,1,2,2.46,6.5,0,2.31-.29,4.33.72,6.5,1.88,0,2.17-3.47,2.89-4.91,3.32.57,9.39,5.05,10.25,8.23a15.45,15.45,0,0,0,2.61.29v-2a6.54,6.54,0,0,0-1.16-1c0-4.34,3.61-6.36,6.36-8.82,5.34-1,10.25,4.92,14.88,2.6v-1c-1.59-1-3.18-2-4.77-2.89,0-3,3.76-7.36,6.5-7.36.43-1.88,1.73-2.31,3.47-3.18.14-.58.14-1,.29-1.45a33.27,33.27,0,0,0-7.51,1.45C216.85,111,228.55,104.16,230.42,103ZM29.77,203.41a.67.67,0,0,1-.58-.73.62.62,0,0,1,.58-.57.66.66,0,0,1,.72.57A.69.69,0,0,1,29.77,203.41Zm54.89-4.63c-1,.58-2,1.3-3,1.88A16.84,16.84,0,0,1,81.2,196c1.3,0,2.31-.15,3.46-.15a5.59,5.59,0,0,1,3.33,1C86.83,197.48,85.82,198.21,84.66,198.78Zm5.78-4.47a4.85,4.85,0,0,1-1,.72c-.72-1.16-2-1.59-2-3,1.16-.28,2-.57,3-.72a11.18,11.18,0,0,1,3.18-.14A13.33,13.33,0,0,1,90.44,194.31Zm56.63-17.92c-.43.44-.72.87-1.15,1.3-1.59.87-3.33,1.59-4.92,2.31,1.3-3.46,2.75-7.07,4.19-10.54.73-1.16,1.3-2,1.88-2.89,2.17-3.47,1.3-3.9,0-6.65a17.4,17.4,0,0,1-1.59-3.61c0-2.16.15-4.19.29-6.21a2.4,2.4,0,0,1,1.3.43c1.45.73,3,2.6,4.19,3.62C155.45,160.65,151.69,170.47,147.07,176.39Z"/><path class="cls-2" d="M137.83,182.89c-2.75,3.61-3.76,6.07-3.9,10.69-.58.15-1.16.44-1.74.58-2.31.72-5.34,1.73-7.51.87,0-1.59-.14-3.18-.29-4.77h-1.3c-.43,1.88-.72,3.9-1.15,5.92h-1a4.28,4.28,0,0,0-2.45-1.15c-1.88-5.78,5.78-7.51,9.39-9.39a49.54,49.54,0,0,0,4.33-5.64c2.75-4.33,3.18-7.94.87-14.44,0-3.47,5.63-9.83,7.37-12.71.29-1.88.72-3.62,1.15-5.49a1.14,1.14,0,0,0,.58-.29c.43.29.72.43,1.15.72a66.21,66.21,0,0,0,.73,11.85c1.3,1.73,2,2.6,2.16,4.91C141.58,169.89,139.56,176.1,137.83,182.89Zm79.88-73.82c-2.74-1.87-2.45-3-1.3-6.5-3.18-.57-11.7,7.66-16.61,7.66-.29-.87,1.44-3.9,1-4.62-3.33,1.3-8.67,6.06-12.28,4.91,0-1,1.45-4,1.45-4.91-5.93,1.44-8.82,4.19-13.87,0,0-1.16.29-4.19,1-4.91-2.46-.15-8.38,1.87-10,.14.15-.43,1-2.31,1.16-2.74-1.88,0-3.76,1.73-6.21,1.58-7.09.44-7.23.73-13.15,1.59a44,44,0,0,0-16.76,8A158,158,0,0,0,118,121.93c-12.14,17.34-12.14,17.34-12.57,17.48-3.18-1.59-1.88-5.2-1.88-8.67-4.48.58-7.22,12-9.54,15.17H93c-.72-2-.86-5.63-1.59-7.65-2.31,4.33-5.63,8.66-7.8,13.14-.57,0-2-.43-2.45-.43-.44-2.17,0-5.35-.15-7.37-1.73-.58-4.62,8.23-5.2,9.25-1.44,7.07-1.44,7.07-1.87,7.65H72c-.87-1-2.46-4-3.32-4.91,1.3,6.21,2.17,13.58,1.44,19.94h-1c-1.16-1.88-.72-2.75,0-4.77,0-5.78-1.16-8.81-4.19-13.58-4.91,5.06-5.63,11-5.05,17.91-5.64,1.16-3.62-7.51-4.34-10.4-1.3-.72-4.47-4.33-6.06-4.33-.15,2.31.14,6.06-.15,8.38,0,6.79.72,8.66.58,10-2,1.88-2,1.88-2.74,3.33-.58,2.6-1.16,8.66-3.47,10.4-3.76,2.74-6.36,7.08-10.55,9.39v2.89c-1,1.3-1,1.3-1,2,3.18,1.59,5.49,3,6.79,2.89,3-.58,2.6-1.88,7.22-4.34,2.89-1.58,6.22-2,9.25-3a50.69,50.69,0,0,1,11,3.47c.58-.87,1.15-1.88,1.73-2.75A16.59,16.59,0,0,1,74,204c.72-4.19,1-4.47,5.2-4.47-.44-5.2.86-6.07,5.77-6.07-1.3-5.49,8.38-4.77,11.27-4.91,1-1,2.31-2,3.47-3,4.62-7.94-12.42-11.41-11.41-14.44a9.17,9.17,0,0,1,2-.15c6.5,2.75,14.59,6.94,11.56,14.88-9,9.39-9,9.39-13.58,13.44a18.1,18.1,0,0,0-5.2,3.46c-1,.73-1.59.87-1.59,2.6,0,.58.14,1.3.14,2a34,34,0,0,0,3.76-.29c.29-1.3.43-2.46.72-3.61,3.18-2.31,2.6,1.44,2.17,3.46a22,22,0,0,1,3-.14c.14-1.88.29-3.61.43-5.35a2.83,2.83,0,0,1,1.16-.28c.72,1.73.14,2.88.58,4.62a20.1,20.1,0,0,0,4.76-2c0-3.62-.28-4.77,0-7.23,5.78-4.48,12-8.95,15.46-15.45-1.59-9.11-13.29-12.43-13.29-21.82a3.86,3.86,0,0,1,1.3.15c3.47,6.06,8.52,10.83,13.15,16H116c6.07-3.9,12-8.81,16.18-14.59,4.77-6.5,7.37-14.16,5.78-22.82.87-6.65,2.75-12.43,4.77-18.78h1.15c.58,3-3.32,13.86-3.9,16,0,6.94,2.31,9.25,8.09,12.71,3.18,3.18,5.78,5.35,6.93,9.83,0,7.8-2.74,16.18-8.23,21.81-5.2,3.18-9.68,4.91-10.4,11.41.72.29,1.3.44,2,.73.15-1.16.29-2.32.44-3.33,1-.29,1.29-.43,1.88.29v3.76a27.08,27.08,0,0,1,3.61-.29c1-2,1-4.19,1.15-6.5a3.89,3.89,0,0,1,1.3-.15c1,1.59.29,4.77-.14,6.5,6.21.44,6.5-7.51,7.37-12.27A60,60,0,0,1,162,164.26c2.6-5.2,2.6-8.81,2.6-14.45-.87-2.45-1.73-4.77-2.45-6.93-.73-9.54,6.5-17.63,7.22-27.16-.72-4-1-3-1-4.48a27.71,27.71,0,0,1,3.32-.72c2.31,4.62,3.47,7.51,5.78,12.13,3.18-1.59,1.3-4,5.49-4,.58,2.45,1.73,5.78,2.45,8.52,1.3-.29,1-1.3,2.6-1.3,1.74,1.59,7.08,5.06,8.82,6.94,1.44-.58-.44-2.46,3.89-6.22,4.05-2,6.22-2.74,10.7-2.74.57-2.6,5.92-5.92,5.92-6.93C213.38,113,217.71,112.54,217.71,109.07Z"/><path class="cls-4" d="M68.48,170.18a14.36,14.36,0,0,1-.86-6.07,6.35,6.35,0,0,1,1.59-.29v5.78a3.64,3.64,0,0,0-.73.58M56.64,182a1.88,1.88,0,1,1-1.88,1.87A1.91,1.91,0,0,1,56.64,182m40.74.14c-1-.58-1-.58-6.94-2.31-2-3.9,4.34-3.32,6.65-2.6,0,1.44-.87,1.59-2,1.73,1.16.58,2.32,1,3.33,1.59v1a3.63,3.63,0,0,1-1,.58"/><circle class="cls-3" cx="58" cy="58" r="32"/><path class="cls-5" d="M60,76.48c-.4.45.89,1.45.89,1.45Zm-3.65,4.33a6.11,6.11,0,0,0-3.78-.25l.23.41.62.85.7-.07a2.58,2.58,0,0,1,1,.21,9,9,0,0,1,1.28-1.16m3.88-51.24a1.22,1.22,0,0,0-.33.27,2.21,2.21,0,0,0-.21.5,1.38,1.38,0,0,1-.17.48,1.34,1.34,0,0,1-.36.31c.81.05,1.61.13,2.41.25h0a1.29,1.29,0,0,0,.38-.28,1.21,1.21,0,0,0,.21-.46,2.64,2.64,0,0,1,.25-.47,1.78,1.78,0,0,1,.36-.25h0c-.83-.16-1.67-.27-2.52-.35Zm3.25.5a1.43,1.43,0,0,0-.37.23,3.47,3.47,0,0,0-.27.46,1.17,1.17,0,0,1-.23.46,1.39,1.39,0,0,1-.38.25c.8.15,1.58.33,2.35.55h0a1.53,1.53,0,0,0,.42-.22,1.34,1.34,0,0,0,.27-.44,3.19,3.19,0,0,1,.32-.43,1.93,1.93,0,0,1,.38-.19h0A24.56,24.56,0,0,0,63.51,30Zm3.15.92a1.38,1.38,0,0,0-.39.18,1.7,1.7,0,0,0-.33.42,1.5,1.5,0,0,1-.29.42,1.65,1.65,0,0,1-.42.21,22.59,22.59,0,0,1,2.25.85l0,0a1.29,1.29,0,0,0,.44-.16,1.26,1.26,0,0,0,.33-.4,2.22,2.22,0,0,1,.37-.38A1.49,1.49,0,0,1,69,32h0c-.75-.36-1.54-.69-2.34-1Zm3,1.32a1.23,1.23,0,0,0-.41.13,2.22,2.22,0,0,0-.38.37,1.24,1.24,0,0,1-.34.38,1.2,1.2,0,0,1-.45.15c.73.35,1.44.73,2.13,1.15v0a1.82,1.82,0,0,0,.46-.11A1.37,1.37,0,0,0,71,34a2.72,2.72,0,0,1,.42-.34,2.07,2.07,0,0,1,.42-.08h0a24.15,24.15,0,0,0-2.19-1.29ZM72.46,34a1.48,1.48,0,0,0-.42.07,2.29,2.29,0,0,0-.43.32,1.23,1.23,0,0,1-.39.33,1.46,1.46,0,0,1-.46.1,20.66,20.66,0,0,1,2,1.41v0a1.48,1.48,0,0,0,.47-.05,1.25,1.25,0,0,0,.42-.3,2.07,2.07,0,0,1,.45-.27,1.26,1.26,0,0,1,.43,0h0c-.64-.55-1.3-1.07-2-1.56Zm2.56,2a2,2,0,0,0-.43,0,3,3,0,0,0-.47.25,1.19,1.19,0,0,1-.42.28,1.3,1.3,0,0,1-.48,0A21.16,21.16,0,0,1,75,38.29v0a1.29,1.29,0,0,0,.48,0A1.18,1.18,0,0,0,75.9,38a2.13,2.13,0,0,1,.49-.21,1.55,1.55,0,0,1,.43,0h0c-.57-.63-1.16-1.24-1.79-1.81Zm2.27,2.38a1.26,1.26,0,0,0-.43,0,1.94,1.94,0,0,0-.5.2,1.39,1.39,0,0,1-.46.22,1.83,1.83,0,0,1-.47,0h0A23.06,23.06,0,0,1,77,40.65v0a1.5,1.5,0,0,0,.47.08,1.4,1.4,0,0,0,.48-.18,2.21,2.21,0,0,1,.5-.15,1.56,1.56,0,0,1,.42.08h0c-.48-.7-1-1.37-1.53-2Zm1.94,2.64a1.58,1.58,0,0,0-.42-.09,2.33,2.33,0,0,0-.52.13,1.18,1.18,0,0,1-.49.16,1.5,1.5,0,0,1-.46-.09,22.08,22.08,0,0,1,1.27,2.07v0a1.86,1.86,0,0,0,.46.13,1.45,1.45,0,0,0,.5-.11,2.36,2.36,0,0,1,.52-.09,1.32,1.32,0,0,1,.41.14h0a21.94,21.94,0,0,0-1.25-2.21ZM80.8,44a1.74,1.74,0,0,0-.4-.15,2.33,2.33,0,0,0-.53.07,1.43,1.43,0,0,1-.5.09,1.2,1.2,0,0,1-.45-.15,22.85,22.85,0,0,1,1,2.2h0a1.49,1.49,0,0,0,.43.19,1.2,1.2,0,0,0,.5,0,2.44,2.44,0,0,1,.54,0,1.69,1.69,0,0,1,.38.19h0a22.8,22.8,0,0,0-1-2.36ZM82,47a1.38,1.38,0,0,0-.38-.2,2.44,2.44,0,0,0-.54,0,1.39,1.39,0,0,1-.5,0,1.65,1.65,0,0,1-.42-.21,23.59,23.59,0,0,1,.7,2.31v0a2.06,2.06,0,0,0,.4.25,1.41,1.41,0,0,0,.5,0,3.07,3.07,0,0,1,.53,0,1.13,1.13,0,0,1,.36.24h0A23.44,23.44,0,0,0,82,47Zm.78,3.19a1.4,1.4,0,0,0-.35-.25,2.34,2.34,0,0,0-.53-.08,1.2,1.2,0,0,1-.5,0,1.62,1.62,0,0,1-.39-.25A24.08,24.08,0,0,1,81.4,52v0a1.43,1.43,0,0,0,.35.3,1.22,1.22,0,0,0,.5.08,3,3,0,0,1,.52.13,1.43,1.43,0,0,1,.32.28h0a23.43,23.43,0,0,0-.31-2.52Zm.35,3.26a1.42,1.42,0,0,0-.31-.29A2.38,2.38,0,0,0,82.3,53a1.24,1.24,0,0,1-.5-.1,1.47,1.47,0,0,1-.35-.31h0c.06.8.09,1.61.07,2.41v0a1.56,1.56,0,0,0,.33.35,1.34,1.34,0,0,0,.48.15,2,2,0,0,1,.5.19,1.26,1.26,0,0,1,.29.32h0c0-.84,0-1.69,0-2.54Zm-.08,3.28a1.7,1.7,0,0,0-.27-.33,2.41,2.41,0,0,0-.5-.21,1.25,1.25,0,0,1-.49-.17,1.73,1.73,0,0,1-.31-.35,21.43,21.43,0,0,1-.24,2.4v0a1.78,1.78,0,0,0,.28.38,1.37,1.37,0,0,0,.46.21,2.34,2.34,0,0,1,.47.25,1.23,1.23,0,0,1,.25.36h0q.24-1.25.36-2.52ZM82.55,60a1.38,1.38,0,0,0-.23-.36,2.35,2.35,0,0,0-.46-.28,1.13,1.13,0,0,1-.45-.23,1.24,1.24,0,0,1-.25-.39c-.15.8-.33,1.59-.55,2.36v0a1.47,1.47,0,0,0,.22.41,1.3,1.3,0,0,0,.43.27,2.36,2.36,0,0,1,.44.32,1.5,1.5,0,0,1,.19.38h0A22.72,22.72,0,0,0,82.57,60Zm-.86,3.18a1.49,1.49,0,0,0-.15-.4,1.9,1.9,0,0,0-.39-.36,1.38,1.38,0,0,1-.4-.32,1.57,1.57,0,0,1-.18-.44,23,23,0,0,1-1,2.2l0,0a1.69,1.69,0,0,0,.14.45,1.16,1.16,0,0,0,.37.36,3.33,3.33,0,0,1,.36.39,1.85,1.85,0,0,1,.11.42h0c.42-.74.8-1.49,1.15-2.27Zm-1.38,3a1.28,1.28,0,0,0-.13-.42,2.22,2.22,0,0,0-.37-.38,1.12,1.12,0,0,1-.38-.34,1.42,1.42,0,0,1-.16-.45,21.93,21.93,0,0,1-1.14,2.14l0,0a1.82,1.82,0,0,0,.11.46,1.24,1.24,0,0,0,.35.37,2.65,2.65,0,0,1,.33.42,1.58,1.58,0,0,1,.09.42h0c.46-.71.89-1.44,1.28-2.19ZM78.6,69a1.2,1.2,0,0,0-.07-.42,2.29,2.29,0,0,0-.32-.43,1.37,1.37,0,0,1-.33-.39,1.4,1.4,0,0,1-.1-.46,20.66,20.66,0,0,1-1.41,2h0a1.83,1.83,0,0,0,0,.47,1.25,1.25,0,0,0,.3.42,2.6,2.6,0,0,1,.28.45,1.56,1.56,0,0,1,0,.43h0a23.75,23.75,0,0,0,1.56-2Zm-2,2.56a1.55,1.55,0,0,0,0-.43,2.37,2.37,0,0,0-.25-.47A1.34,1.34,0,0,1,76,70.2a1.89,1.89,0,0,1,0-.47c-.52.61-1.07,1.2-1.65,1.76h0a1.83,1.83,0,0,0,0,.47,1.41,1.41,0,0,0,.25.45,2.38,2.38,0,0,1,.22.49,1.55,1.55,0,0,1,0,.43h0a25.33,25.33,0,0,0,1.81-1.78Zm-2.38,2.27a1.58,1.58,0,0,0,0-.43,2.41,2.41,0,0,0-.21-.5,1.62,1.62,0,0,1-.22-.46,1.94,1.94,0,0,1,0-.48A19.87,19.87,0,0,1,72,73.46h0a1.44,1.44,0,0,0-.08.46,1.4,1.4,0,0,0,.18.48,2.21,2.21,0,0,1,.15.5,1.56,1.56,0,0,1-.08.43h0c.7-.48,1.37-1,2-1.53Zm-2.64,1.94a1.5,1.5,0,0,0,.09-.42,2.33,2.33,0,0,0-.13-.52,1.36,1.36,0,0,1-.16-.48,1.86,1.86,0,0,1,.09-.47c-.66.46-1.35.89-2,1.28h0a1.37,1.37,0,0,0-.13.45,1.25,1.25,0,0,0,.11.5,1.89,1.89,0,0,1,.08.53,1.34,1.34,0,0,1-.13.4h0a21.94,21.94,0,0,0,2.21-1.25Zm-2.88,1.58a1.56,1.56,0,0,0,.15-.41,1.93,1.93,0,0,0-.07-.53,1.43,1.43,0,0,1-.09-.5,2,2,0,0,1,.15-.45,20.65,20.65,0,0,1-2.2,1h0a2.49,2.49,0,0,0-.22.43,1.51,1.51,0,0,0,0,.52,2.33,2.33,0,0,1-.06.53,3.29,3.29,0,0,1-.16.44c.79-.28,1.72-.65,2.5-1ZM65.4,78.47a2.81,2.81,0,0,0,.1-.31,1.63,1.63,0,0,0,.06-.45c0-.14-.11-.25-.06-.46a3.16,3.16,0,0,1,.29-.62,19.64,19.64,0,0,0-2.59,1.08l-.34.16a1.71,1.71,0,0,0-.1.5c0,.16,0,.39,0,.55a1.84,1.84,0,0,1-.32.81,8.71,8.71,0,0,0,2.59-1Zm-15.94-.34a1.38,1.38,0,0,0,.39-.18,1.94,1.94,0,0,0,.32-.42,1.5,1.5,0,0,1,.29-.42,1.72,1.72,0,0,1,.43-.21,21.69,21.69,0,0,1-2.25-.85v0a1.79,1.79,0,0,0-.44.16,1.6,1.6,0,0,0-.33.4,2.22,2.22,0,0,1-.38.37,1.42,1.42,0,0,1-.41.14h0c.75.36,1.54.7,2.34,1Zm-3-1.32a1.23,1.23,0,0,0,.41-.13,2.22,2.22,0,0,0,.38-.37,1.24,1.24,0,0,1,.34-.38,1.41,1.41,0,0,1,.45-.15c-.73-.35-1.44-.73-2.13-1.15v0a2.37,2.37,0,0,0-.46.11,1.37,1.37,0,0,0-.37.35,2.72,2.72,0,0,1-.42.34,1.16,1.16,0,0,1-.42.08h0a24.15,24.15,0,0,0,2.19,1.29ZM43.65,75.1a1.2,1.2,0,0,0,.42-.07,2.29,2.29,0,0,0,.43-.32,1.41,1.41,0,0,1,.39-.34,1.79,1.79,0,0,1,.46-.09,20.66,20.66,0,0,1-2-1.41v0a1.83,1.83,0,0,0-.47,0,1.39,1.39,0,0,0-.41.31,2.6,2.6,0,0,1-.45.28,1.56,1.56,0,0,1-.43,0h0a23.3,23.3,0,0,0,2,1.56ZM41.09,73a1.24,1.24,0,0,0,.43,0,2.59,2.59,0,0,0,.46-.26,1.3,1.3,0,0,1,.43-.27,1.51,1.51,0,0,1,.47,0,22.91,22.91,0,0,1-1.76-1.66v0a1.47,1.47,0,0,0-.47,0,1.31,1.31,0,0,0-.45.24,2.45,2.45,0,0,1-.5.22,1.53,1.53,0,0,1-.43,0h0a23.4,23.4,0,0,0,1.78,1.81Zm-2.27-2.37a2.09,2.09,0,0,0,.43,0,2.75,2.75,0,0,0,.5-.2,1.39,1.39,0,0,1,.46-.22,1.23,1.23,0,0,1,.47,0c-.54-.6-1-1.22-1.53-1.87v0a1.77,1.77,0,0,0-.46-.08,1.33,1.33,0,0,0-.48.18,2.38,2.38,0,0,1-.52.15,1.25,1.25,0,0,1-.42-.08h0c.48.7,1,1.38,1.53,2ZM36.89,68a1.43,1.43,0,0,0,.41.09,1.8,1.8,0,0,0,.52-.13,1.41,1.41,0,0,1,.49-.16,1.79,1.79,0,0,1,.46.09,22.6,22.6,0,0,1-1.27-2v0a1.67,1.67,0,0,0-.45-.13,1.25,1.25,0,0,0-.5.11,1.89,1.89,0,0,1-.53.08,1.23,1.23,0,0,1-.41-.13h0c.38.75.8,1.5,1.25,2.21Zm-1.58-2.88a1.38,1.38,0,0,0,.4.15,2.33,2.33,0,0,0,.53-.06,1.24,1.24,0,0,1,.5-.1,1.7,1.7,0,0,1,.45.15,21.8,21.8,0,0,1-1-2.2v0a1.66,1.66,0,0,0-.43-.19,1.4,1.4,0,0,0-.5.05,2.36,2.36,0,0,1-.53,0,1.18,1.18,0,0,1-.39-.19h0a25.27,25.27,0,0,0,.95,2.36Zm-1.19-3.06a1.16,1.16,0,0,0,.38.2,2.35,2.35,0,0,0,.53,0,1.42,1.42,0,0,1,.5,0,1.56,1.56,0,0,1,.43.21,23.59,23.59,0,0,1-.7-2.31v0a2.06,2.06,0,0,0-.4-.25,1.41,1.41,0,0,0-.5,0,2.48,2.48,0,0,1-.54-.06,1.18,1.18,0,0,1-.35-.23h0q.26,1.24.63,2.46Zm-.78-3.19a1.61,1.61,0,0,0,.35.25,2.43,2.43,0,0,0,.53.08,1.2,1.2,0,0,1,.5,0,1.44,1.44,0,0,1,.39.25,23.8,23.8,0,0,1-.39-2.39v0a1.48,1.48,0,0,0-.36-.3,1.43,1.43,0,0,0-.5-.09,2.31,2.31,0,0,1-.52-.12,1.5,1.5,0,0,1-.33-.29h0a23.93,23.93,0,0,0,.31,2.53ZM33,55.64a1.42,1.42,0,0,0,.31.29,2.38,2.38,0,0,0,.52.15,1.44,1.44,0,0,1,.5.1,1.73,1.73,0,0,1,.35.31c-.06-.8-.09-1.61-.08-2.41v0a1.56,1.56,0,0,0-.33-.35,1.34,1.34,0,0,0-.49-.15,2.37,2.37,0,0,1-.5-.2,1.39,1.39,0,0,1-.27-.32h0c0,.85,0,1.7,0,2.54Zm.07-3.28a1.7,1.7,0,0,0,.27.33,2.41,2.41,0,0,0,.5.21,1.43,1.43,0,0,1,.49.17,1.73,1.73,0,0,1,.31.35,21.7,21.7,0,0,1,.25-2.4v0a1.78,1.78,0,0,0-.28-.38,1.56,1.56,0,0,0-.47-.22,1.94,1.94,0,0,1-.47-.25,1.48,1.48,0,0,1-.25-.35h0c-.16.83-.27,1.67-.35,2.51Zm.5-3.25a1.23,1.23,0,0,0,.23.36,2.18,2.18,0,0,0,.46.28,1.53,1.53,0,0,1,.46.23,2,2,0,0,1,.26.39A23.56,23.56,0,0,1,35.52,48v0a1.44,1.44,0,0,0-.23-.42,1.36,1.36,0,0,0-.43-.27,2.61,2.61,0,0,1-.43-.31,1.41,1.41,0,0,1-.19-.39h0a23.42,23.42,0,0,0-.68,2.45ZM34.48,46a1.38,1.38,0,0,0,.18.39,2.18,2.18,0,0,0,.42.33,1.34,1.34,0,0,1,.42.28,1.72,1.72,0,0,1,.21.43,21.69,21.69,0,0,1,.85-2.25h0a1.79,1.79,0,0,0-.16-.44,1.54,1.54,0,0,0-.38-.34,2.34,2.34,0,0,1-.4-.37,1.53,1.53,0,0,1-.14-.41h0a25.31,25.31,0,0,0-1,2.34Zm1.32-3a1.51,1.51,0,0,0,.13.41,2.28,2.28,0,0,0,.38.38,1.52,1.52,0,0,1,.38.34,1.7,1.7,0,0,1,.15.45A21.78,21.78,0,0,1,38,42.41h0a1.47,1.47,0,0,0-.11-.46,1.27,1.27,0,0,0-.35-.38,2.25,2.25,0,0,1-.34-.41,2.07,2.07,0,0,1-.08-.42h0q-.69,1.06-1.29,2.19Zm1.7-2.81a1.48,1.48,0,0,0,.07.42,2,2,0,0,0,.33.43,1.23,1.23,0,0,1,.33.39,1.46,1.46,0,0,1,.1.46,22.72,22.72,0,0,1,1.42-2h0a1.48,1.48,0,0,0,0-.47,1.25,1.25,0,0,0-.3-.42,1.92,1.92,0,0,1-.27-.46,1.5,1.5,0,0,1,0-.42h0c-.55.64-1.07,1.3-1.56,2Zm2-2.56a2.07,2.07,0,0,0,0,.43,2.59,2.59,0,0,0,.26.46,1.33,1.33,0,0,1,.28.43,1.25,1.25,0,0,1,0,.47h0c.53-.61,1.08-1.2,1.66-1.76h0a1.48,1.48,0,0,0,0-.47,1.24,1.24,0,0,0-.25-.45,3.06,3.06,0,0,1-.22-.49,1.56,1.56,0,0,1,0-.43h0a23.4,23.4,0,0,0-1.81,1.78Zm2.38-2.27a1.56,1.56,0,0,0,0,.43,1.94,1.94,0,0,0,.2.5,1.5,1.5,0,0,1,.22.46,1.83,1.83,0,0,1,0,.47,23.06,23.06,0,0,1,1.87-1.53h0a1.5,1.5,0,0,0,.08-.47,1.35,1.35,0,0,0-.18-.47,2.21,2.21,0,0,1-.15-.5,1.56,1.56,0,0,1,.08-.43h0a25.18,25.18,0,0,0-2,1.54Zm2.64-1.94a1.54,1.54,0,0,0-.07.42,2.33,2.33,0,0,0,.13.52,1.36,1.36,0,0,1,.16.48,1.51,1.51,0,0,1-.09.47,24.07,24.07,0,0,1,2-1.27h0a1.47,1.47,0,0,0,.14-.45,1.18,1.18,0,0,0-.11-.5,2.35,2.35,0,0,1-.09-.53,2,2,0,0,1,.14-.41h0a25.14,25.14,0,0,0-2.21,1.25Zm2.88-1.58a2,2,0,0,0-.15.41,2.52,2.52,0,0,0,.08.54,1.43,1.43,0,0,1,.09.5,1.2,1.2,0,0,1-.15.45,22.85,22.85,0,0,1,2.2-1h0a1.49,1.49,0,0,0,.19-.43,1.4,1.4,0,0,0,0-.5,2.44,2.44,0,0,1,0-.54,1.5,1.5,0,0,1,.19-.38h0a22.8,22.8,0,0,0-2.36.95Zm3.07-1.18a1.52,1.52,0,0,0-.2.38,2.35,2.35,0,0,0,0,.53,1.1,1.1,0,0,1,0,.51,1.56,1.56,0,0,1-.21.43,21.14,21.14,0,0,1,2.31-.7h0a1.67,1.67,0,0,0,.25-.4,1.25,1.25,0,0,0,0-.51,2.33,2.33,0,0,1,.06-.53A1.48,1.48,0,0,1,53,30h0a23.39,23.39,0,0,0-2.46.64Zm3.19-.78a1.48,1.48,0,0,0-.25.35,2.33,2.33,0,0,0-.07.53,1.43,1.43,0,0,1,0,.5,2,2,0,0,1-.25.39,24.08,24.08,0,0,1,2.38-.39h0a2,2,0,0,0,.29-.36,1.43,1.43,0,0,0,.09-.5,2.19,2.19,0,0,1,.12-.52,1.58,1.58,0,0,1,.29-.34h0c-.83.06-1.67.17-2.52.31ZM57,29.48a1.47,1.47,0,0,0-.29.32,2.27,2.27,0,0,0-.14.51,1.25,1.25,0,0,1-.11.5,1.34,1.34,0,0,1-.31.36,21.74,21.74,0,0,1,2.42-.08h0a1.72,1.72,0,0,0,.34-.32,1.31,1.31,0,0,0,.15-.5,2.72,2.72,0,0,1,.19-.5,1.35,1.35,0,0,1,.32-.27h0a23.54,23.54,0,0,0-2.52,0ZM50.88,78s.26,1.36,1.15,1.39a3.88,3.88,0,0,1,1.4-1.53l.17-.2A2.35,2.35,0,0,1,54,76l-.5.12a4.37,4.37,0,0,0-2.6,2ZM52.5,82.5a1.07,1.07,0,0,0,.42-.28h0a2.55,2.55,0,0,1-1-2.09c-1.13-.14-1.39-1.41-1.39-1.41h0A4.22,4.22,0,0,0,51,82.5h0a3.79,3.79,0,0,0,1.5,0m2.45.22a2.89,2.89,0,0,1-.5,0,2.33,2.33,0,0,1-.9-.18h0c-.25.77-2,.6-2,.6a4.38,4.38,0,0,0,2.37,1.18h0s1-.21,1-1.64Zm.55-.11a1.63,1.63,0,0,1-.58,1.88c1.41.36,3-1.14,3-1.14a5.46,5.46,0,0,0-1.67-.57l-.75-.17,0,0Zm4.68-.33A7.4,7.4,0,0,0,57.27,81l-1.52,1.08,1.85.62c.56.15.71.42,1.41.87,0,0,1.64-.94,1.17-1.32m3.18,1.57a2.9,2.9,0,0,1-1-1.2,3.21,3.21,0,0,1-1.5-.07C61,83,59.6,84,59.6,84a3.54,3.54,0,0,0,2.15.55,2.66,2.66,0,0,0,1.59-.64M60.9,77.94c.71-.58,1.33-.81,1.8-.66a18.58,18.58,0,0,1,1.91-.77,2.66,2.66,0,0,0-2.42-.83,5.23,5.23,0,0,0-2.29.93Zm-.52.35s-1.07-.91-.86-1.55c-1.2,1.05-1.69,1.58-2.68,1.58-.25,0,0,0,0,0a2.26,2.26,0,0,0-.36,1,3.25,3.25,0,0,0,0,.54,4,4,0,0,0,2-.17,4.23,4.23,0,0,0,1.35-.89c.12-.11.45-.36.56-.47M56,79.89s-.12,0,0-.64a3.57,3.57,0,0,1,.16-.46,1.63,1.63,0,0,1,.25-.47h-.3a15.21,15.21,0,0,1-2-.29h0a1.51,1.51,0,0,0-.67.44c-.07.14-.21.19-.3.29s-.29.35-.29.35h0a9.26,9.26,0,0,0,3.15.77M55,76.1s-.89,1.1-.53,1.48a2.78,2.78,0,0,1,1,0,3.23,3.23,0,0,1,1.11.18l.25.09a2,2,0,0,0,.91-.38l.43-.34a3.06,3.06,0,0,0-2.63-1.17c-.18,0-.45,0-.58.16Zm-4,7.19a2.57,2.57,0,0,1-1-1.52l-.37.14.1-.06a3,3,0,0,0-.78.59c-.18.19-.51.62-.89,1.08h0c.89-.77,2,.56,2,.56l0,0,.36-.35a6.36,6.36,0,0,1,.57-.46m-2.28,2.1.86-.83a1.45,1.45,0,0,0-2.1-.31Zm-.52.52.15-.18-1.13-1.1-.16.18ZM46.75,85a6,6,0,0,0-.65.47L47.38,87l.53-.8Zm19.92,1.54.5.81,1.33-1.44a6,6,0,0,0-.63-.5Zm.86-1.33-.17-.17-1.19,1.05.17.17Zm-.35-.61a1.45,1.45,0,0,0-2.12.23l.84.86ZM65,82.14a1.72,1.72,0,0,0-2.33.36A5.26,5.26,0,0,1,64.36,84l.23.39v0s1.18-1.28,2-.47h0c-.36-.49-.68-.91-.86-1.1a5.08,5.08,0,0,0-.75-.64M59.34,79.7c-.12,0,.81.38,2.3.17v0a1.66,1.66,0,0,0,.25-.34,2.84,2.84,0,0,0,.16-.57,3.18,3.18,0,0,0,.06-.43,1.16,1.16,0,0,1,.07-.37c-.17.08-1,.38-1,.38l-.41.09c-.14.1-.25.23-.36.32l-.43.36c-.1.08-.55.36-.61.41m6.23,2.09a2.89,2.89,0,0,0,.36-2.89l-1.81.83a1,1,0,0,1-.21,1.18s1.75.76,1.66.88m-3.5.46s1.22-1.14,2-.79l-.18-.15a4.15,4.15,0,0,0-2.38-.85c-.75,0-2.07.2-2.37.69a4,4,0,0,1,1.85.94c.06.07.36,0,1.08.16"/><path class="cls-5" d="M43.39,54.1l.73-1.45,1.61.25-1.16-1.15.73-1.45-1.44.75L42.7,49.91l.27,1.6-1.44.75,1.6.25Zm11,4.29h-.05a25.39,25.39,0,0,0-2.87.4c-.47-1.85-1.81-4.22-4.11-3.88-2,.28-2.8,2.3-2.32,4.1-2.81.39-5.18-1.89-5.75-4.48a6.34,6.34,0,0,1,6.06-7.78c5.75,0,8.85,7.58,9,11.63M72.71,54.1,73,52.5l1.6-.25-1.44-.75.27-1.6-1.16,1.16-1.44-.75.72,1.45L70.38,52.9l1.6-.25Zm-11,4.3c.19-4.06,3.29-11.63,9-11.64a6.35,6.35,0,0,1,6.07,7.78c-.57,2.59-2.93,4.87-5.75,4.48.47-1.8-.35-3.82-2.32-4.11-2.3-.33-3.64,2-4.11,3.86-1-.19-2.06-.28-2.89-.36ZM58.07,61c3.71,0,6.7-.35,6.7-.58s-3-.6-6.72-.6-6.72.37-6.72.6,3,.58,6.75.58m0,.84c-4.29,0-7.77-.64-7.77-1.42S53.75,59,58.05,59s7.77.64,7.77,1.42-3.48,1.41-7.77,1.41m6.3.25A3.13,3.13,0,0,0,69,64.6a3.48,3.48,0,0,1-3.29,3.25c-2.42,0-3.83-3.68-4-5.38h0a24.56,24.56,0,0,0,2.71-.39Zm-9.93.39c-.17,1.69-1.59,5.42-4,5.42a3.47,3.47,0,0,1-3.29-3.25,3.13,3.13,0,0,0,4.63-2.56v0a26.63,26.63,0,0,0,2.68.4Zm3.63-27.54a27.42,27.42,0,0,0,3.1,2.69,9.2,9.2,0,0,1,3.91,7.1c0,4.4-3.68,8.28-4.14,13.6a21.44,21.44,0,0,0-2.4-.13c.1-5.4-.11-12.72-.47-18-.37,5.28-.57,12.6-.48,18a21.14,21.14,0,0,0-2.39.13C54.71,53,51,49.12,51,44.72a9.14,9.14,0,0,1,3.91-7.1,27.53,27.53,0,0,0,3.11-2.69m0,37.85A10.71,10.71,0,0,1,52.94,68a12,12,0,0,0,2.19-5.39c.75,0,1.57.09,2.4.09a43.47,43.47,0,0,0,.52,6.13,42,42,0,0,0,.51-6.13c.84,0,1.65,0,2.41-.09A12,12,0,0,0,63.16,68a10.67,10.67,0,0,1-5.11,4.83"/></svg>