<svg id="Capa_1" data-name="Capa 1" xmlns="http://www.w3.org/2000/svg" viewBox="0 0 256 256"><defs><style>.cls-1{fill:#e10613;}.cls-2{fill:#fbb900;}.cls-3{fill:#1d1d1b;}.cls-4{fill:#9ca8b0;}.cls-5{fill:#fff;}</style></defs><title>progresion</title><rect class="cls-1" x="12" y="12" width="232" height="232"/><path class="cls-2" d="M223.49,256H32.37A32.42,32.42,0,0,1,0,223.6V32.4A32.42,32.42,0,0,1,32.37,0H223.49A32.5,32.5,0,0,1,256,32.4V223.6A32.5,32.5,0,0,1,223.49,256ZM32.37,17.08A15.52,15.52,0,0,0,17.06,32.4V223.6a15.52,15.52,0,0,0,15.31,15.32H223.49a15.41,15.41,0,0,0,15.45-15.32V32.4a15.41,15.41,0,0,0-15.45-15.32Z"/><path class="cls-3" d="M210.49,158.8a7.51,7.51,0,0,0-1.88.73,2.27,2.27,0,0,0-2.17-1,4.66,4.66,0,0,1-.72.86c-9,2.46-9.1-8.1-7.94-14,1.3-2.6,3.46-5.49,3.46-8.67-3.32-.73-7.8,10.41-9,12.72-2.89-7.66,5.05-14.46,5.05-21.69a3.65,3.65,0,0,1-1.15-.14c-1,1.44-5.06,9.11-7.95,9.11-.14-2.75-.29-5.79-.29-8.82.44-2.61,2.17-4.63,2.17-7.24h-1.59c-1.73,2-3.32,3.76-5.06,5.64h-2.16c-2.6-5.2.43-10.12,3.61-14.31a8.08,8.08,0,0,1,.29-1.88c-5.06,1.15-7.37,7.52-9.25,11.86-3.61-3.62-1.88-10.42-7.65-10.42V113c3,6.22,5.92,20.82-3.62,22.27-1.44-.58-2.6-2.17-3.9-2.89-.29.29-.43.43-.57.43-.15,1.16-.29,2.32-.44,3.33,4.05,5.49,17.63,11.71,17.63,20-3.33-.29-6.07-1.74-9.25-2.32-.58.29-1,.73-1.59,1v2c5.06,4.92,15.17,14.17,11.27,22.13-2.31,0-3.61-1.16-5.63-1.16a8,8,0,0,0-.15,1.88c2.6,5.79,6.65,19.52,1.73,25.17-3.17-5.5-2.45-9.55-2.45-15.77-2-11.42-8-21.69-14-31.38-4.48-6.08-4.48-6.08-17.63-20.83-2.74-4-6.79-8.39-5.2-13.74,1-.29,2.17-.43,3.32-.72a5.72,5.72,0,0,1,.15-1.59c-5.92-3-12.57-5.5-12.57-12.87l4.62-.44a7.49,7.49,0,0,1-.29-1.88,34.07,34.07,0,0,1-4-1c-4.19-3.76-8.38-9.54.14-11.42V91c-3.46-.15-3.46-.15-4.91-.73a26.82,26.82,0,0,1-2-2.17c-3-3.9-5.35-8.53,0-10,.43-.14.87-.14,1.44-.28v-2c-.43-.14-1-.29-1.44-.43-6.21-2-9.68-7.23-10.4-14.18,1.3-1,3.47-1.73,4.62-2.74V56.7c-4.77,0-7.8-.43-10-4.92,2.6-3.9,4.48-6.79,5.64-11.28,0-11.71,0-11.71.43-14.61a7.74,7.74,0,0,1-1.59-.28c-3.61,4.05-8.52,6.5-12.57,10A23.27,23.27,0,0,0,92.46,38a1.11,1.11,0,0,1-.72-.14c-.14-.72-.29-1.59-.43-2.32H89.57c-1,2.9-1.3,3.48-3.61,5.36-2.74-.58-2.89-1.74-3.61-4.63H80.76a22.76,22.76,0,0,0-1.3,2.75C72,37.9,68.19,27.2,62,26A88.41,88.41,0,0,0,61.4,39.2c2.32,7.81,2.46,8.24-2,14.46-5.63-.29-3.75-.43-7.51-4.77-5.35,0-5.06,1.3-5.06,6.65a12,12,0,0,0-1.3,5.06V61c.15,3.76,2.46,6.94,5.2,10.7,5.93,5.35,7.52,6.08,3.76,12.87C52.3,86.35,49,87.36,47.68,90a6.61,6.61,0,0,0,.87,1.31h5.63c7.8,3.32,3.47,11.28.43,16.77,0,1.3.29,1.59.87,3.47l4.33-3.9c1.3.14,1.3.14,1.59.72-1,4.19-3.32,8.1-3.32,12.29,2.75-.43,3.76-1.73,5.64-3.9a5.27,5.27,0,0,0,1.44.29c-.43,5.35-2.89,9.69-2.89,15.47,3,1.74,3.18-4,5.78-4,.58.58.58.58.58,3.19C66.75,138.27,62.85,148.54,67,155h1.88c.43-1.58.14-2.45,1.15-3.61,1.16,7.09,1.45,15.33,7.37,20.11,1.3-1.31,1.59-2.9,1.88-4.93,3.32,14.18,4.19,30.95,1,45.13-5.64.43-16.18,3-12.57,11.57,2,.58,3.18,1.44,8.23,3.61,4.34,0,8.82.15,13.29.29,1,1.45,3.18,2,5.78,2,4,.14,8.82-1,10.55-2.75.87,5.64,7.66,3.76,13.29,2.89a13.62,13.62,0,0,1,4.77-.29c12.28-.58,40.59-.58,42.9-1,.72-.43,1.74-1.16,2.6-1.74,1.88-4.91,20.08-14.6,25.57-18.51a25.42,25.42,0,0,0,1.16-3.61h-4.63c-3.32-4.49,7.37-11.14,10.26-12.87v-3.77c-1.73-.28-3.47-.57-5.2-1-1.15-9.83,7.8-19.38,14.16-25.74ZM96.22,213.18,95.06,213l-1.44-.15c-2.31-6.5-.43-14.89,1.44-22.12.44-1.59.87-3.33,1.16-4.78a7.19,7.19,0,0,0,1,.44c.14,3,.14,6.07.29,9C96.94,209.71,96.94,209.71,96.22,213.18Zm30.34,1.16c.14,0,.28.15.43.29-2.6.58-5.35,1.3-8.09,1.88a39.54,39.54,0,0,1-8.23.72c-.58-3.47-.29-6.93-.15-10.55,2.17-15.48,2.17-15.48,2.89-16.49,2.17,5.35.87,10.27,1.16,16.05,2.31.44,3.32-3.32,4.33-5.93a13.38,13.38,0,0,1,.72-1.88c5.92,0,7.37,4.49,7.8,9.55C126.41,211.88,126.41,211.88,126.56,214.34Z"/><path class="cls-4" d="M93,183.82c-.29-3.32-.58-4-2.46-6.65-.14.87-.43,1.74-.57,2.46H88.42l-4.62-5.06c-.15,13.16.43,26.32-2,39.19-.43,0-.72.15-1.15.15-4.19.57-8.24.86-11.42,4.05-1.58,2.74-.72,2.74,2.17,5.06,1.74-.43,1-5.5,4.77-5.5l-.87,2.61a40.42,40.42,0,0,0-.14,4.05c1.44.14,2.89.14,4.33.14A14.34,14.34,0,0,1,80.62,221c1.88-3.33,5.2-4.78,9.39-7.24C90.15,204.94,89.14,191.63,93,183.82Z"/><path class="cls-4" d="M115.58,164.88c-.44-7.38-1.3-13.16-1.3-16.92,4.33-1.45,3.9,20,3.9,23.86-1.74,4.92-3.76,9.83-4.34,15,2.31,2.32,3.18,5.94,3.76,9,4.91.29,7.51.72,10.69,4.63.14-1.16.14-1.16-2.46-8.83-1.44-9.11-4.76-25,7.23-27.91,1.59.58,3.17,1.3,4.76,2,13.29,7.08,21.38,21.83,29.76,33.84.44-.58.87-1.3,1.3-1.88-.43-4.34-.72-8.53-1-13-3.75-12-9-22.56-17.33-31.81a89.14,89.14,0,0,1-12.72-11.58A32.8,32.8,0,0,1,131,128.58c0-3.33.58-5.06.15-7.23-6.94-5.79-8.24-6.95-8.24-15.48-3.9-4.63-8.37-7.66-3.9-13,0-3.62-9-10.85-4.47-15.19,0-.58.28-.14.28-.87-3.9-3.76-10.4-11.42-7.94-17.5-2.17-1.3-5.35-3.47-6.07-6.07-.58-.15-1.73-.29-2.31-.44a8.65,8.65,0,0,1-.29-1.88c5.92-5.93,7.22-9.69,6.65-17.93-6.65,2.75-9.39,4.77-10.84,12.15-.58.58-.58.58-2.6,1-1.3-1.3-1.3-3.61-1.44-5.49-2.6.57-3.33,2.6-6.65,2.6-.72-1.16-1.3-2.75-2.74-3h-.44c-.43,2.17-1.3,1.88-2.16,3.47-5.06-1-10.4-11.57-14.16-11.57-1.88,5.07-.14,9.55,2.6,13.74,3.18.15,6.5.44,10,.73a7,7,0,0,0,.29,1.73c-3.33,1.88-8.24.72-12,.58-3,4.34-3,4.34-3,5.06h1.59c1.16-3.9,4.48-2.17,3.76,1.59-1.59.44-3,.73-4.48,1.16-4.33,0-11-1.59-14.74.14-1.73,8.54,2.32,10.71,8.24,15.48,3.75,4.92,2.31,9.54-.87,14.17v1c7.08,4,5.92,10.56,3.18,17.36,7.08.58,3.61,2.17,4.19,9,6.36,0,3.76,6.36,3.9,10.41,7.51,3,3,11.57,1.16,16.92,0,2,.14,4.05.28,5.93,1-.29,1-.29,3.33-2.31.43.29.72.57,1.3,1,0,2.89-.58,18.22,4,18.22.15-1.3.15-1.3,1.3-3.33a8.26,8.26,0,0,0,2,.29,13.51,13.51,0,0,1,.73,2.17A50,50,0,0,0,86.68,174c1.45-.29,1.74-1,2.75-2h1.3c1.3,2,1.88,4.62,4.19,5.49.14.58.29,1.3.43,1.74h1.3a66.63,66.63,0,0,0-1.3-28.78c.29-1,.29-1,1.59-1.74.87,1,.87,1,2.31,5.06,2.89,19.09,0,38.91-1,58.15a9.63,9.63,0,0,1-.72,2.45c-4.91,2.46-13,2.46-14.3,9,1.3.58,1.3.58,6.06.43,1.3-3.18,1.59-3.61,4.48-6.07.15.29.58.29,1,.43,0,2.46-2,4.19-2,7.52,3,.15,5.78.72,9.1.72,1.3-1.15,3.47-4.48,5.49-6.5C107.78,200.75,111.68,183.54,115.58,164.88Z"/><path class="cls-4" d="M194.6,155.19c-5.78-2.89-4.77-10.41-3.61-15.77a22.69,22.69,0,0,1-3,.15c-1.88-3.76-2-6.94-2-11.14-4.33,1.59-8.23-1-11.12-3.9-.58,3.76-2.89,13.45-8.53,13.45,1.16,3.18,6.36,4.05,8.82,6.22,2.31,2,3.46,6.65,5.48,9,0,5.5-2.74,5.5-8.52,4.34,4.19,6.22,14.88,20,4.77,24.44-1.16,5.21,2.74,11.72,2.74,17.36a50.26,50.26,0,0,1-3.61,8.82c-4,2.75-6.79,2.89-7.65-3.18a77.31,77.31,0,0,0-7.81-11.13c-5.05-9-14.3-19.39-22.68-25.32l-.43-.29c-4.33-1.15-8.09-.72-9.39,4.05.15,3.91-.29,7.67-.14,11.43.57,4.78,4,24.3,10,29.8a4.55,4.55,0,0,0,2.32,1.44,28.15,28.15,0,0,0,.72,3.76c-1,0-2,.14-3,.14-9.82.44-19.93.15-29.18,3.77-.72.86-.72.86-1.88,4.33a50.52,50.52,0,0,0,5.21.58,27.47,27.47,0,0,1,.14-3.32,5.27,5.27,0,0,0,1.44-.29c1.16,3.18,1.59,4.62,5.49,3.32a32.68,32.68,0,0,1,1.74-4.05c1.59-.43,2.16,1.88,2.45,3.18,4.63,0,9.54.29,14.59.44,9.68.29,19.51.43,28.46-1.45-2.31-8.39-10.4-17.79-15.31-25.16a12.37,12.37,0,0,1,.72-1h2c1,2.17,2.17,5.35,4.48,6.21,2.6,5.64,6.36,10.56,10.12,15.77,5.92,0,16.46-9,21.52-13V207c-1.88-.43-1.88-.43-2.6-1.15,1.3-7.09,4.62-10.13,9.1-15.48-.14-1-1.88-2-3-4.34,0-7.37,4.76-17.06,10.25-22,0-.29,3.33-1.16,3.33-1.59C201,161.55,196.76,160.83,194.6,155.19Z"/><path class="cls-3" d="M102.86,40.36c-2.16,7.37-9,4.34-2.16-2.32,2.16-.86,2.6.58,2.16,2.32m-31.34,11A2.43,2.43,0,0,1,74,53.81a2.46,2.46,0,0,1-4.91,0,2.44,2.44,0,0,1,2.46-2.46m40,50.91c-2.16,2.89-4.62,5.78-5.49,9.11-.86,3.9-.43,3.9-.86,5.35-2.6-.72-4.48-4.19-6.07-6.22-1.59,4,1.59,13.45-3.76,13.45-.72-5.35-.29-14.32,2.75-18.94.43,0,.58.14,1.15.14,1.3,1.74,2.89,5.5,4,7.38.72-1.16,4.77-12.15,7.94-11.28a2.81,2.81,0,0,0,.29,1M51.29,63.35V61h1.16c6.21,7.52,13,8.1,22.53,7.38.15.72.44,1.44.58,2.31-6.36.58-23.11,1.74-24.27-7.38m34.24,59.3c-3,3.76-3.9,8.82-4.33,13.74a3.19,3.19,0,0,0-.73,1.16H78.88c-1.15-6.08-3.32-11.14-5.92-16.78a8.51,8.51,0,0,0,1.88-.14c1.44,2.16,2.89,6.36,4.33,8.38,2.46-1.15,2.17-7.52,6.21-8.38,0,.72.15,1.3.15,2"/><circle class="cls-2" cx="198" cy="58" r="32"/><path class="cls-5" d="M200,76.48c-.41.45.89,1.45.89,1.45Zm-3.66,4.33a6.11,6.11,0,0,0-3.78-.25l.24.41.61.85.71-.07a2.57,2.57,0,0,1,.94.21,9,9,0,0,1,1.28-1.16m3.88-51.24a1.22,1.22,0,0,0-.33.27,2.21,2.21,0,0,0-.21.5,1.38,1.38,0,0,1-.17.48,1.34,1.34,0,0,1-.36.31c.81.05,1.61.13,2.41.25h0a1.46,1.46,0,0,0,.38-.27,1.33,1.33,0,0,0,.21-.47,3,3,0,0,1,.25-.47,1.78,1.78,0,0,1,.36-.25h0c-.83-.16-1.67-.27-2.52-.35Zm3.25.5a1.43,1.43,0,0,0-.37.23,2.59,2.59,0,0,0-.26.46,1.53,1.53,0,0,1-.23.46,2,2,0,0,1-.39.26,22.93,22.93,0,0,1,2.35.55l0,0a1.47,1.47,0,0,0,.41-.22,1.41,1.41,0,0,0,.27-.43,2.29,2.29,0,0,1,.32-.43,1.54,1.54,0,0,1,.38-.2h0a22.1,22.1,0,0,0-2.45-.67Zm3.15.92a1.38,1.38,0,0,0-.39.18,1.7,1.7,0,0,0-.33.42,1.37,1.37,0,0,1-.29.42,1.65,1.65,0,0,1-.42.21,22.59,22.59,0,0,1,2.25.85h0a1.74,1.74,0,0,0,.45-.17,1.48,1.48,0,0,0,.32-.39,2,2,0,0,1,.37-.39A1.17,1.17,0,0,1,209,32h0c-.75-.37-1.54-.7-2.34-1Zm3,1.32a1.23,1.23,0,0,0-.41.13,2.22,2.22,0,0,0-.38.37,1.24,1.24,0,0,1-.34.38,1.42,1.42,0,0,1-.45.16,21.78,21.78,0,0,1,2.13,1.14v0a1.82,1.82,0,0,0,.46-.11A1.57,1.57,0,0,0,211,34a2.25,2.25,0,0,1,.41-.34,2.07,2.07,0,0,1,.42-.08h0a24.15,24.15,0,0,0-2.19-1.29Zm2.81,1.7a1.48,1.48,0,0,0-.42.07,2.29,2.29,0,0,0-.43.32,1.41,1.41,0,0,1-.39.34,1.79,1.79,0,0,1-.46.09,20.66,20.66,0,0,1,2,1.41v0a1.48,1.48,0,0,0,.47-.05,1.25,1.25,0,0,0,.42-.3,2.07,2.07,0,0,1,.45-.27,1.26,1.26,0,0,1,.43,0h0c-.64-.54-1.3-1.07-2-1.56ZM215,36.06a1.54,1.54,0,0,0-.43,0,3,3,0,0,0-.47.25,1.19,1.19,0,0,1-.42.28,1.3,1.3,0,0,1-.48,0A21.16,21.16,0,0,1,215,38.29v0a1.29,1.29,0,0,0,.48,0,1.18,1.18,0,0,0,.45-.25,2.13,2.13,0,0,1,.49-.21,1.55,1.55,0,0,1,.43,0h0c-.57-.63-1.16-1.23-1.79-1.81Zm2.27,2.37a1.26,1.26,0,0,0-.43,0,1.94,1.94,0,0,0-.5.2,1.39,1.39,0,0,1-.46.22,1.83,1.83,0,0,1-.47,0h0A23.06,23.06,0,0,1,217,40.65v0a1.84,1.84,0,0,0,.47.07,1.4,1.4,0,0,0,.48-.18,2.21,2.21,0,0,1,.5-.15,1.56,1.56,0,0,1,.42.08h0a24.91,24.91,0,0,0-1.53-2Zm1.94,2.65a1.29,1.29,0,0,0-.42-.1,2.33,2.33,0,0,0-.52.13,1.36,1.36,0,0,1-.49.17,1.52,1.52,0,0,1-.46-.1c.46.67.89,1.36,1.28,2.07v0a1.67,1.67,0,0,0,.45.13,1.25,1.25,0,0,0,.5-.11,1.89,1.89,0,0,1,.53-.08,1.23,1.23,0,0,1,.41.13h0c-.38-.76-.8-1.49-1.25-2.21ZM220.8,44a1.38,1.38,0,0,0-.4-.15,1.88,1.88,0,0,0-.53.06,1.71,1.71,0,0,1-.5.1,1.42,1.42,0,0,1-.45-.16,19.93,19.93,0,0,1,1,2.21v0a1.49,1.49,0,0,0,.43.19,1.2,1.2,0,0,0,.5,0,2.44,2.44,0,0,1,.54,0,1.76,1.76,0,0,1,.39.19h0a25.35,25.35,0,0,0-1-2.36ZM222,47a1.38,1.38,0,0,0-.38-.2,2.44,2.44,0,0,0-.54,0,1.39,1.39,0,0,1-.5,0,1.65,1.65,0,0,1-.42-.21,23.59,23.59,0,0,1,.7,2.31v0a2.06,2.06,0,0,0,.4.25,1.41,1.41,0,0,0,.5,0,2.33,2.33,0,0,1,.53.06,1.11,1.11,0,0,1,.36.23h0A23.44,23.44,0,0,0,222,47Zm.78,3.19a1.4,1.4,0,0,0-.35-.25,2.34,2.34,0,0,0-.53-.08,1.2,1.2,0,0,1-.5,0,1.62,1.62,0,0,1-.39-.25A24.08,24.08,0,0,1,221.4,52v0a1.43,1.43,0,0,0,.35.3,1.22,1.22,0,0,0,.5.08,3,3,0,0,1,.52.13,1.75,1.75,0,0,1,.33.28h0c-.07-.85-.17-1.69-.32-2.52Zm.35,3.26a1.42,1.42,0,0,0-.31-.29,2.38,2.38,0,0,0-.52-.15,1.24,1.24,0,0,1-.5-.1,1.47,1.47,0,0,1-.35-.31h0c.06.8.09,1.61.08,2.41v0a1.32,1.32,0,0,0,.32.35,1.34,1.34,0,0,0,.48.15,2,2,0,0,1,.5.19,1.26,1.26,0,0,1,.29.32h0c0-.84,0-1.69,0-2.54Zm-.08,3.28a1.4,1.4,0,0,0-.27-.33,2.41,2.41,0,0,0-.5-.21,1.15,1.15,0,0,1-.48-.17,1.52,1.52,0,0,1-.32-.35,21.42,21.42,0,0,1-.23,2.4v0a1.46,1.46,0,0,0,.27.38,1.56,1.56,0,0,0,.47.22,1.94,1.94,0,0,1,.47.25,1.48,1.48,0,0,1,.25.35h0c.15-.83.27-1.67.35-2.51Zm-.5,3.25a1.65,1.65,0,0,0-.22-.36,2.2,2.2,0,0,0-.47-.27,1.47,1.47,0,0,1-.45-.23,1.28,1.28,0,0,1-.25-.4c-.15.8-.33,1.59-.55,2.36v0a1.47,1.47,0,0,0,.22.41,1.41,1.41,0,0,0,.43.27,2.36,2.36,0,0,1,.44.32,1.5,1.5,0,0,1,.19.38h0a22.72,22.72,0,0,0,.67-2.45Zm-.85,3.18a2,2,0,0,0-.16-.4,1.9,1.9,0,0,0-.39-.36,1.38,1.38,0,0,1-.4-.32,1.57,1.57,0,0,1-.18-.44c-.3.75-.64,1.48-1,2.2v0a1.69,1.69,0,0,0,.14.45,1.16,1.16,0,0,0,.37.36,3.33,3.33,0,0,1,.36.39,1.44,1.44,0,0,1,.11.42h0c.42-.74.8-1.49,1.15-2.27Zm-1.39,3a1.28,1.28,0,0,0-.13-.42,2.65,2.65,0,0,0-.37-.38,1.12,1.12,0,0,1-.38-.34,1.21,1.21,0,0,1-.15-.44c-.35.72-.73,1.44-1.15,2.13l0,0a1.82,1.82,0,0,0,.11.46,1.4,1.4,0,0,0,.35.38,2.74,2.74,0,0,1,.34.41,2.07,2.07,0,0,1,.08.42h0c.47-.71.89-1.44,1.29-2.19ZM218.6,69a1.2,1.2,0,0,0-.07-.42,2.29,2.29,0,0,0-.32-.43,1.37,1.37,0,0,1-.33-.39,1.18,1.18,0,0,1-.09-.46c-.44.68-.91,1.33-1.41,2h0a1.47,1.47,0,0,0,0,.47,1.25,1.25,0,0,0,.3.42,2.35,2.35,0,0,1,.28.46,1.49,1.49,0,0,1,0,.42h0a23.75,23.75,0,0,0,1.56-2Zm-2,2.56a1.55,1.55,0,0,0,0-.43,2.37,2.37,0,0,0-.25-.47,1.34,1.34,0,0,1-.28-.42,1.89,1.89,0,0,1,0-.47c-.52.61-1.07,1.2-1.65,1.76h0a1.48,1.48,0,0,0,0,.47,1.11,1.11,0,0,0,.25.45,3,3,0,0,1,.21.49,1.55,1.55,0,0,1,0,.43h0a25.33,25.33,0,0,0,1.81-1.78Zm-2.37,2.27a2.09,2.09,0,0,0,0-.43,3.07,3.07,0,0,0-.2-.5,1.22,1.22,0,0,1-.22-.46,1.3,1.3,0,0,1,0-.48A22.81,22.81,0,0,1,212,73.46h0a1.44,1.44,0,0,0-.08.46,1.33,1.33,0,0,0,.18.48,2.21,2.21,0,0,1,.15.5,1.26,1.26,0,0,1-.08.43h0c.7-.48,1.37-1,2-1.53Zm-2.65,1.94a1.5,1.5,0,0,0,.09-.42,2.33,2.33,0,0,0-.13-.52,1.36,1.36,0,0,1-.16-.48,1.86,1.86,0,0,1,.09-.47c-.66.46-1.35.89-2,1.28h0a1.37,1.37,0,0,0-.13.45,1.25,1.25,0,0,0,.11.5,1.89,1.89,0,0,1,.08.53,1.34,1.34,0,0,1-.13.4h0a21.94,21.94,0,0,0,2.21-1.25Zm-2.88,1.58a1.56,1.56,0,0,0,.15-.41,2.39,2.39,0,0,0-.06-.53,1.24,1.24,0,0,1-.1-.5,2,2,0,0,1,.15-.45,20.65,20.65,0,0,1-2.2,1h0a1.9,1.9,0,0,0-.21.43,1.31,1.31,0,0,0,0,.52,1.88,1.88,0,0,1-.06.53,3.29,3.29,0,0,1-.16.44c.79-.28,1.72-.65,2.5-1Zm-3.25,1.16a2.81,2.81,0,0,0,.1-.31,2.12,2.12,0,0,0,.07-.45c0-.14-.12-.25-.07-.46a3.16,3.16,0,0,1,.29-.62,19.64,19.64,0,0,0-2.59,1.08l-.33.16a1.45,1.45,0,0,0-.11.5c0,.16,0,.39,0,.55a1.84,1.84,0,0,1-.32.81,9,9,0,0,0,2.59-1Zm-15.94-.34a1.38,1.38,0,0,0,.39-.18,2.36,2.36,0,0,0,.33-.42,1.18,1.18,0,0,1,.29-.42,1.5,1.5,0,0,1,.42-.21,21.69,21.69,0,0,1-2.25-.85l0,0a1.72,1.72,0,0,0-.45.16,1.38,1.38,0,0,0-.32.4,2.72,2.72,0,0,1-.39.37,1.42,1.42,0,0,1-.41.14h0c.75.37,1.54.7,2.34,1Zm-3-1.32a1.23,1.23,0,0,0,.41-.13,2.22,2.22,0,0,0,.38-.37,1.24,1.24,0,0,1,.34-.38,1.7,1.7,0,0,1,.45-.15c-.73-.35-1.44-.73-2.13-1.15v0a2.37,2.37,0,0,0-.46.11,1.37,1.37,0,0,0-.37.35,2.72,2.72,0,0,1-.42.34,1.16,1.16,0,0,1-.42.08h0a24.15,24.15,0,0,0,2.19,1.29Zm-2.81-1.71a1.2,1.2,0,0,0,.42-.07,2.29,2.29,0,0,0,.43-.32,1.23,1.23,0,0,1,.39-.33,1.46,1.46,0,0,1,.46-.1,20.66,20.66,0,0,1-2-1.41v0a1.47,1.47,0,0,0-.47,0,1.39,1.39,0,0,0-.41.31,2.6,2.6,0,0,1-.45.28,1.56,1.56,0,0,1-.43,0h0a23.3,23.3,0,0,0,2,1.56Zm-2.56-2a1.55,1.55,0,0,0,.43,0,3.1,3.1,0,0,0,.47-.26,1.17,1.17,0,0,1,.42-.27,1.94,1.94,0,0,1,.48,0,21.33,21.33,0,0,1-1.77-1.66v0a1.47,1.47,0,0,0-.47,0,1.31,1.31,0,0,0-.45.24,2.45,2.45,0,0,1-.5.22,1.53,1.53,0,0,1-.43,0h0a23.4,23.4,0,0,0,1.78,1.81Zm-2.27-2.38a1.57,1.57,0,0,0,.43,0,2.75,2.75,0,0,0,.5-.2,1.39,1.39,0,0,1,.46-.22,1.23,1.23,0,0,1,.47,0c-.54-.6-1.05-1.22-1.53-1.87v0a1.43,1.43,0,0,0-.46-.07,1.17,1.17,0,0,0-.48.18,4.44,4.44,0,0,1-.52.15,1.58,1.58,0,0,1-.42-.09h0c.48.7,1,1.38,1.53,2ZM176.89,68a1.45,1.45,0,0,0,.41.1,2.21,2.21,0,0,0,.52-.14,1.41,1.41,0,0,1,.49-.16,1.46,1.46,0,0,1,.46.1c-.46-.67-.88-1.35-1.27-2.06v0a1.67,1.67,0,0,0-.45-.13,1.45,1.45,0,0,0-.5.11,1.89,1.89,0,0,1-.53.08,1.23,1.23,0,0,1-.41-.13h0c.38.75.8,1.5,1.25,2.21Zm-1.58-2.88a1.38,1.38,0,0,0,.4.15,2.33,2.33,0,0,0,.53-.06,1.24,1.24,0,0,1,.5-.1,1.7,1.7,0,0,1,.45.15,21.8,21.8,0,0,1-1-2.2v0a.92.92,0,0,0-.93-.15,2.36,2.36,0,0,1-.53,0,1.38,1.38,0,0,1-.39-.18h0a25.09,25.09,0,0,0,.95,2.35Zm-1.19-3.06a1.16,1.16,0,0,0,.38.2,2.35,2.35,0,0,0,.53,0,1.42,1.42,0,0,1,.5,0,1.56,1.56,0,0,1,.43.21,23.59,23.59,0,0,1-.7-2.31v0a2.06,2.06,0,0,0-.4-.25,1.41,1.41,0,0,0-.5,0,3.29,3.29,0,0,1-.54,0,1.45,1.45,0,0,1-.35-.24h0q.25,1.24.63,2.46Zm-.78-3.19a1.61,1.61,0,0,0,.35.25,2.43,2.43,0,0,0,.53.08,1.2,1.2,0,0,1,.5,0,1.44,1.44,0,0,1,.39.25,24.08,24.08,0,0,1-.39-2.38v0a1.48,1.48,0,0,0-.36-.3,1.43,1.43,0,0,0-.5-.09,2.31,2.31,0,0,1-.52-.12,1.75,1.75,0,0,1-.33-.28h0c.06.84.17,1.68.31,2.52ZM173,55.64a1.77,1.77,0,0,0,.31.3,3.07,3.07,0,0,0,.52.14,1.44,1.44,0,0,1,.5.1,1.73,1.73,0,0,1,.35.31c-.06-.8-.09-1.61-.08-2.41v0a1.56,1.56,0,0,0-.33-.35,1.34,1.34,0,0,0-.49-.15,3,3,0,0,1-.5-.19,1.7,1.7,0,0,1-.27-.33h0c-.05.85-.05,1.7,0,2.54Zm.07-3.28a1.44,1.44,0,0,0,.28.33,2,2,0,0,0,.5.21,1.45,1.45,0,0,1,.48.17,1.73,1.73,0,0,1,.31.35,21.7,21.7,0,0,1,.25-2.4v0a1.78,1.78,0,0,0-.28-.38,1.37,1.37,0,0,0-.46-.21,2.34,2.34,0,0,1-.47-.25,1.23,1.23,0,0,1-.25-.36h0a23.5,23.5,0,0,0-.35,2.52Zm.5-3.25a1.43,1.43,0,0,0,.23.37,2.64,2.64,0,0,0,.46.27,1.53,1.53,0,0,1,.46.23,2,2,0,0,1,.26.39,23.56,23.56,0,0,1,.55-2.35v0a1.47,1.47,0,0,0-.22-.41,1.37,1.37,0,0,0-.44-.28,2.61,2.61,0,0,1-.43-.31,1.41,1.41,0,0,1-.19-.39h0a23.42,23.42,0,0,0-.68,2.45Zm.92-3.15a1.38,1.38,0,0,0,.18.39,2.18,2.18,0,0,0,.42.33,1.22,1.22,0,0,1,.42.29,1.5,1.5,0,0,1,.21.42,21.69,21.69,0,0,1,.85-2.25v0a2.2,2.2,0,0,0-.17-.45,1.33,1.33,0,0,0-.38-.33,2.4,2.4,0,0,1-.4-.38,1.53,1.53,0,0,1-.14-.41h0c-.37.77-.71,1.55-1,2.34Zm1.32-3a1.51,1.51,0,0,0,.13.41,2.28,2.28,0,0,0,.38.38,1.52,1.52,0,0,1,.38.34,1.7,1.7,0,0,1,.15.45A21.78,21.78,0,0,1,178,42.41h0a1.47,1.47,0,0,0-.11-.46,1.4,1.4,0,0,0-.35-.38,2.25,2.25,0,0,1-.34-.41,2.07,2.07,0,0,1-.08-.42h0c-.46.71-.89,1.44-1.28,2.19Zm1.7-2.81a1.48,1.48,0,0,0,.07.42,2.34,2.34,0,0,0,.33.43,1.41,1.41,0,0,1,.34.39,1.79,1.79,0,0,1,.09.46,22.72,22.72,0,0,1,1.42-2h0a1.48,1.48,0,0,0,0-.47,1.37,1.37,0,0,0-.29-.42,1.78,1.78,0,0,1-.28-.45,1.6,1.6,0,0,1,0-.43h0c-.55.64-1.07,1.3-1.56,2Zm2.06-2.56a1.55,1.55,0,0,0,0,.43,2.48,2.48,0,0,0,.27.47,1.32,1.32,0,0,1,.27.42,1.52,1.52,0,0,1,0,.47h0c.52-.61,1.07-1.2,1.65-1.76h0a1.48,1.48,0,0,0,0-.47,1.24,1.24,0,0,0-.25-.45,3.06,3.06,0,0,1-.22-.49,1.56,1.56,0,0,1,0-.43h0a23.4,23.4,0,0,0-1.81,1.78Zm2.37-2.27a1.56,1.56,0,0,0,0,.43,1.94,1.94,0,0,0,.2.5,1.5,1.5,0,0,1,.22.46,1.83,1.83,0,0,1,0,.47,23.06,23.06,0,0,1,1.87-1.53h0a1.5,1.5,0,0,0,.08-.47,1.35,1.35,0,0,0-.18-.47,2.21,2.21,0,0,1-.15-.5,1.56,1.56,0,0,1,.08-.43h0a25.18,25.18,0,0,0-2,1.54Zm2.65-1.94a1.25,1.25,0,0,0-.08.42,2.33,2.33,0,0,0,.13.52,1.36,1.36,0,0,1,.16.48,1.27,1.27,0,0,1-.09.47A24.07,24.07,0,0,1,186.75,34h0a1.78,1.78,0,0,0,.13-.45,1.25,1.25,0,0,0-.11-.5,1.89,1.89,0,0,1-.08-.53,1.51,1.51,0,0,1,.13-.41h0c-.76.38-1.49.8-2.21,1.25Zm2.88-1.57a1.38,1.38,0,0,0-.15.4,2,2,0,0,0,.07.54.93.93,0,0,1-.06,1,22.85,22.85,0,0,1,2.2-1h0a1.49,1.49,0,0,0,.19-.43,1.4,1.4,0,0,0,0-.5,2.37,2.37,0,0,1,0-.53,1.41,1.41,0,0,1,.19-.39h0a21.78,21.78,0,0,0-2.35.95Zm3.06-1.19a1.52,1.52,0,0,0-.2.38,2.35,2.35,0,0,0,0,.53,1.14,1.14,0,0,1,0,.52,1.65,1.65,0,0,1-.21.42,20.66,20.66,0,0,1,2.32-.7h0a1.41,1.41,0,0,0,.25-.4,1.25,1.25,0,0,0,0-.51,2.33,2.33,0,0,1,.06-.53A1.48,1.48,0,0,1,193,30h0a22.6,22.6,0,0,0-2.45.64Zm3.19-.78a1.48,1.48,0,0,0-.25.35,2.33,2.33,0,0,0-.07.53,1.41,1.41,0,0,1,0,.5,1.62,1.62,0,0,1-.25.39,24.08,24.08,0,0,1,2.38-.39h0a2,2,0,0,0,.29-.36,1.43,1.43,0,0,0,.09-.5,2.31,2.31,0,0,1,.12-.52,1.58,1.58,0,0,1,.29-.34h0a24.8,24.8,0,0,0-2.52.32Zm3.27-.36a1.3,1.3,0,0,0-.3.32,2.27,2.27,0,0,0-.14.51,1.44,1.44,0,0,1-.1.5,1.59,1.59,0,0,1-.32.36c.81-.07,1.61-.09,2.42-.08h0a1.72,1.72,0,0,0,.34-.32,1.31,1.31,0,0,0,.15-.5,2.72,2.72,0,0,1,.19-.5,1.22,1.22,0,0,1,.33-.27h0c-.85-.05-1.69-.06-2.53,0ZM190.88,78s.27,1.36,1.15,1.39a4,4,0,0,1,1.4-1.53l.17-.2A2.35,2.35,0,0,1,194,76l-.5.12a4.37,4.37,0,0,0-2.6,2Zm1.62,4.47a1.07,1.07,0,0,0,.42-.28h0a2.55,2.55,0,0,1-1-2.09c-1.13-.13-1.39-1.41-1.39-1.41h0A4.22,4.22,0,0,0,191,82.5h0a3.79,3.79,0,0,0,1.5,0m2.45.22a2.89,2.89,0,0,1-.5,0,2.33,2.33,0,0,1-.9-.18h0c-.25.77-2,.6-2,.6a4.38,4.38,0,0,0,2.37,1.18h0s1-.21,1-1.64Zm.56-.11a1.64,1.64,0,0,1-.59,1.88c1.41.36,3-1.14,3-1.14a5.43,5.43,0,0,0-1.66-.57l-.75-.17,0,0Zm4.67-.33A7.43,7.43,0,0,0,197.28,81l-1.53,1.09,1.85.61c.56.15.71.42,1.41.87,0,0,1.64-.94,1.17-1.32m3.18,1.57a2.8,2.8,0,0,1-1-1.2,3.21,3.21,0,0,1-1.5-.07c.06.47-1.31,1.38-1.31,1.38a3.6,3.6,0,0,0,2.15.54,2.7,2.7,0,0,0,1.6-.64m-2.45-5.92c.71-.58,1.33-.81,1.8-.66a18.58,18.58,0,0,1,1.91-.77,2.66,2.66,0,0,0-2.42-.82,5,5,0,0,0-2.29.93Zm-.52.35s-1.07-.91-.86-1.55c-1.2,1.06-1.69,1.58-2.68,1.58-.25.05,0,0,0,0a1.57,1.57,0,0,0-.25.5,1.65,1.65,0,0,0-.11.45,3.25,3.25,0,0,0,0,.54,4,4,0,0,0,2-.17,4.23,4.23,0,0,0,1.35-.89c.12-.11.45-.36.56-.47M196,79.89s-.12,0,0-.64a3,3,0,0,1,.16-.45,1.57,1.57,0,0,1,.25-.48h0l-.3,0a17.1,17.1,0,0,1-2-.3h0a1.51,1.51,0,0,0-.67.44c-.07.15-.21.19-.3.29l-.29.35h0a9.26,9.26,0,0,0,3.15.77M195,76.1s-.89,1.1-.53,1.48a2.78,2.78,0,0,1,1,0,3.19,3.19,0,0,1,1.11.18l.25.09a2,2,0,0,0,.91-.38l.43-.34A3.06,3.06,0,0,0,195.58,76c-.18,0-.45,0-.58.15Zm-4,7.19a2.57,2.57,0,0,1-1-1.52,2.39,2.39,0,0,0-.37.15l.1-.07a3,3,0,0,0-.78.59c-.18.19-.51.62-.89,1.09h0c.89-.77,2,.55,2,.55v0l.35-.35a6.36,6.36,0,0,1,.57-.46m-2.28,2.1.86-.83a1.45,1.45,0,0,0-2.1-.31Zm-.52.52.15-.18-1.13-1.1-.16.18ZM186.75,85a6,6,0,0,0-.65.47l1.28,1.5.53-.8Zm19.92,1.54.5.81,1.33-1.44a6,6,0,0,0-.63-.5Zm.86-1.33-.17-.17-1.19,1.05.17.17Zm-.35-.61a1.45,1.45,0,0,0-2.12.23l.84.87ZM205,82.15a1.71,1.71,0,0,0-2.33.35A5.26,5.26,0,0,1,204.36,84l.23.39v0s1.18-1.28,2-.47h0c-.36-.48-.68-.91-.86-1.1a5.08,5.08,0,0,0-.75-.64m-5.67-2.44c-.12,0,.81.38,2.3.17v0a1.66,1.66,0,0,0,.25-.34,2.84,2.84,0,0,0,.16-.57,3.18,3.18,0,0,0,.06-.43,1.16,1.16,0,0,1,.07-.37c-.17.08-1.05.38-1.05.38l-.41.09c-.14.1-.25.23-.36.32l-.43.36c-.1.08-.55.36-.61.41m6.23,2.09a2.89,2.89,0,0,0,.36-2.89l-1.81.83a1,1,0,0,1-.21,1.18s1.75.76,1.66.88m-3.5.46s1.22-1.14,2-.78l-.17-.16a4.21,4.21,0,0,0-2.39-.85c-.75,0-2.07.2-2.37.69a4,4,0,0,1,1.85.94c.06.07.36,0,1.09.16"/><path class="cls-5" d="M183.4,54.1l.72-1.45,1.61.25-1.16-1.15.73-1.45-1.44.75-1.16-1.14.27,1.6-1.44.75,1.6.25Zm11,4.29h0a25.25,25.25,0,0,0-2.88.4c-.47-1.84-1.81-4.21-4.11-3.88a3.11,3.11,0,0,0-2.32,4.1c-2.81.39-5.18-1.88-5.75-4.48a6.35,6.35,0,0,1,6.07-7.78c5.75,0,8.84,7.58,9,11.64m18.3-4.28L213,52.5l1.61-.25-1.44-.75.26-1.6-1.16,1.16-1.44-.75.72,1.45-1.15,1.14,1.61-.25Zm-11,4.29c.19-4,3.29-11.63,9-11.63a6.35,6.35,0,0,1,6.07,7.77c-.57,2.59-2.93,4.87-5.75,4.48.48-1.8-.35-3.82-2.32-4.1-2.3-.34-3.64,2-4.11,3.86a29,29,0,0,0-2.89-.37ZM198.07,61c3.71,0,6.7-.35,6.7-.58s-3-.6-6.72-.6-6.72.37-6.72.6,3,.58,6.75.58m0,.84c-4.29,0-7.77-.64-7.77-1.42S193.75,59,198.05,59s7.77.64,7.77,1.42-3.48,1.41-7.77,1.41m6.3.25A3.13,3.13,0,0,0,209,64.6a3.48,3.48,0,0,1-3.29,3.25c-2.42,0-3.83-3.68-4-5.38h0a24.56,24.56,0,0,0,2.71-.39Zm-9.93.39c-.17,1.69-1.59,5.42-4,5.42a3.47,3.47,0,0,1-3.29-3.25,3.13,3.13,0,0,0,4.63-2.56v0a26.63,26.63,0,0,0,2.68.4Zm3.63-27.54a27.42,27.42,0,0,0,3.1,2.69,9.21,9.21,0,0,1,3.91,7.1c0,4.41-3.68,8.28-4.14,13.6a21.32,21.32,0,0,0-2.4-.13c.1-5.4-.11-12.72-.47-18-.37,5.28-.57,12.6-.48,18a21.14,21.14,0,0,0-2.39.13C194.72,53,191,49.13,191,44.72a9.17,9.17,0,0,1,3.91-7.1,26.68,26.68,0,0,0,3.11-2.69m0,37.85A10.74,10.74,0,0,1,192.94,68a12.13,12.13,0,0,0,2.19-5.4c.75.06,1.57.09,2.4.09a43.35,43.35,0,0,0,.52,6.13,42,42,0,0,0,.51-6.13c.84,0,1.65,0,2.41-.09a12.13,12.13,0,0,0,2.19,5.4,10.65,10.65,0,0,1-5.11,4.82"/></svg>