<svg id="Capa_1" data-name="Capa 1" xmlns="http://www.w3.org/2000/svg" viewBox="0 0 256 256"><defs><style>.cls-1{fill:#00662a;}.cls-2{fill:#fbb900;}.cls-3{fill:#1d1d1b;fill-rule:evenodd;}.cls-4{fill:#95999b;}.cls-5{fill:#fff;}</style></defs><title>progresion</title><rect class="cls-1" x="12" y="12" width="232" height="232"/><path class="cls-2" d="M231.94,17H24.06v0h0v0a7.18,7.18,0,0,0-7,7h0V231.93h0a7.17,7.17,0,0,0,7,7v0h0v0H231.94v0h0v0a7.18,7.18,0,0,0,7-7h0V24.07h0a7.17,7.17,0,0,0-7-7v0h0ZM24.06,0H231.94V0h0V0a24,24,0,0,1,24,24h0V231.93h0a24,24,0,0,1-24,24v0h0v0H24.06v0h0v0a24,24,0,0,1-24-24H0V24.07H0a24,24,0,0,1,24-24V0h0Z"/><path class="cls-3" d="M139.62,178.87a17.51,17.51,0,0,1-3-5.52c2.29-1.49,4.7-1.89,7.52-2.56-1.21,2.56-2.42,5.12-3.62,7.81a2,2,0,0,0-.94.27m-44.68,7.28a8.51,8.51,0,0,0-1.34-.54c2-8.89,2-17,2.15-26.14a8.1,8.1,0,0,1,1.88-.27c4.82,8.49,9.79,14.82,10.73,24.66a65.2,65.2,0,0,1-13.42,2.29M34.17,232.77A91.85,91.85,0,0,1,31.62,218c0-4.18,1.74-16.84-1.21-20.89H27.87c-1.89,2.43-1.21,7.55-4.7,7.55-1.61-10,2.28-16.71,7.11-24.93.94-3.1.94-3.1.8-4.58-2.28,1.89-4.55,3.77-6.84,5.8-.54-.14-1.07-.27-1.47-.41-.41-4.44,7.91-9.57,10.86-12.26,1.61-2.69,3.22-5.39,4.83-7.95l-8.18.81v-1.35c9.79-7.41,16.1-10.91,28.31-12,6.57-10.24,13.81-17.65,23.34-25.34,1.74-.8,1.74-.8,7-4.85,4.69-2.55,9.39-5.11,14.22-7.54a190.91,190.91,0,0,1,40.11-5.93,15.84,15.84,0,0,1,1.08-2.7c-1.35-3-1.35-3-1.21-3.77a10.64,10.64,0,0,1,2-.26c2.41,3,3.09,2.82,7.11,3.09a1.27,1.27,0,0,1,.53-.67c-3.75-2.16-4.42-2.42-4.82-6.47,4.42,0,9,2.29,13.95,2.29,2.55-1.35,5.09-2.7,7.65-3.91-.27-4.85-.54-9.69-.68-14.41a62.67,62.67,0,0,1,6-17.66h2c.81,2.84,1.35,8.49,5.24,8.49,2-3.9,8.18-18.73,9.12-5.12a59.18,59.18,0,0,1,6.31,9.84c3.48.81,7,1.62,10.46,2.56,8.58-3.24,8.58-3.24,14.22-6.2,1.74-3.77,4.29-5,8.31-5,6.17,6.2,0,17.65-2.14,24.38-4.16,8.09-11,11.73-19.05,14.69-4.29,6.74-4.56,10.64-2.28,18.19a7.76,7.76,0,0,0-.27,1.89c-2.68,0-4-1.49-6.17-3.24-.67,5.66.4,10.92.4,16.31-3.76,0-4.15-4-7.11-5.52v4.31c3.22,8.62,3.22,8.62,3,9.3a15.61,15.61,0,0,1-5.24,1.21c-.27,3-.54,5.93-.8,9-.54.26-5.64-2.16-7-2.16-3.36,8.08-3.36,8.08-6,12.94h-1.74c-1.88-3-.27-6.87-2.68-10.25-2.28,5.93-4.7,11.59-8.59,16.57a10.08,10.08,0,0,1,1.88.28c1.07,2.29,5.23,2,7.11,3.91a18.52,18.52,0,0,1,.81,6.19c-7,6.2-12.88.95-21.2,4-2.82,4.17-5.5,8.35-8.19,12.66-1.07,4-3.89,8.89-7.64,10.92-1.48,3.63-2.25,2.31-4.48,4.58-9.77,0-2.9-.09-10.69-1.16-1.91-.71-3.44.1-4.65-1.25-4.32-2.65,1.3,1.6-4.33-4.74-.81-3.37-1.21-5.79-.27-9.16-9.66-1.88-20.93,3.24-30.72,3.5-7.25-4.17-6.45-10.1-7-17.78C74.28,179,70.93,168.77,65.7,167c-3.76,5.66-3.63,10.11-.54,16.31-.4,1.62-.4,1.62,0,4.72H63.42a20,20,0,0,0-1.61-1.75H60.33c-4.7,5.93-2.15,12.8-2.41,20.21a6.34,6.34,0,0,0-1.62-.14c-.67-3.9-2.41-6.06-4.69-9.3h-.94c-2.55,6.07-2.82,10.38-3,17.12-.94.13-1.88.27-2.68.4-1.89-4.45-1.89-4.45-2.69-5-5,5-5.1,15.9-6.3,22.5a7.45,7.45,0,0,0-1.88.67"/><path class="cls-4" d="M138.81,196.12c1.88,2.16,2.69,3,3.09,5.66a4.47,4.47,0,0,1-1.88-2.56c-1.61-.41-1.61-.41-2.55,0,.14,1.21.14,1.21,2.55,4.85A23.32,23.32,0,0,0,139,206.9a4.94,4.94,0,0,0-1.48.27c-2-3-2-3-3.08-3.5C138.14,196.66,138.14,196.66,138.81,196.12Zm-9.26,13.61a7.19,7.19,0,0,0,.27,1.48c4.43-.27,4.43-.27,5.1-.67,0-1.75.27-3.77-1.21-5C132.51,207.3,132.51,207.3,129.55,209.73Zm41.06-59.29a6.27,6.27,0,0,0-1.61-.14c-4.56,5-11.67,8.49-13,15.5a6.4,6.4,0,0,0-1.61.28c-.68-2.57-.68-2.57-1.34-3.24-.94,1.34-.94,1.34-3.76,3.77-3.09,7.14-6.71,12.94-6.71,20.75-.94,3.24-2.55,5.53-.67,8.63,2.14-1.49,5.77-8.49,7-10.38C153.57,181.17,173.56,159.6,170.61,150.44Zm-8.72,24.12c-1.75,2.43-3.49,5-5.23,7.55,3.62.13,7.24,0,10.73.8,3.62-.26,3.62-.26,4.56-.8-.27-1.49-.4-2.83-.54-4.18C168.19,176.72,165,175.64,161.89,174.56Zm42-78.69v-2c11.13-2.69,19.72-6.33,26.29-16-.13-1.49-.13-3-.13-4.45a35.08,35.08,0,0,0-3.49-.54c-4.15-3.37-9.39,1.75-13.55,3.91-7.51,1.88-14.89-1.35-22.4,1.75a15,15,0,0,0-2.42-.13,8.19,8.19,0,0,1,.27-1.89c2-.81,4-1.48,6.18-2.16-1-2-4.6-10-7.09-11.12-.94,1.61-2.18,4.39-3,6.14.8,4.17,3.09,7.54,3.35,12.13-.93-.41-1.87-.81-2.68-1.22-1.74-6.6-4.57-9.77-10.07-13.94-5,6.6.82,19.33-3.75,26.88-4.7,3.59-8.87,5.2-17.1,4.07.27.54,1.54,2.8,1.94,3.47h3.09c-1.34,3.37-9.53,3-12.75,3.1.41.41.81.94,1.35,1.48a6.86,6.86,0,0,0-.14,1.75A218.92,218.92,0,0,0,108,111.23c-15.43,5.8-27,14.69-39,25.6-3.22,3.91-8.46,9.84-8.46,15.1-3.21-.14-6.3-.28-9.38-.28-6.18,2.29-6.18,2.29-10.47,4.72,3.09,3.91-2.42,10.11-5.23,13.34-.94,4-1.88,8.22-2.82,12.4-1.88,3.23-6,7.81-6,11.59,12.35-3.64,8.59,12.66,7.78,19.8,0,3.51.14,7.15.27,10.78.41-.26.41-.26,3.36-12.12a33.69,33.69,0,0,1,5-8.22H45.3c2-6.07,3-12.13,9.26-6.88.67-4.71.41-13.2,6.84-13.2-1.74-9.7-2.41-12.54,3.36-22.5.13-2.29.4-4.58.67-6.74a6.79,6.79,0,0,1,.94-.4,7.76,7.76,0,0,1,.27-1.89,11.75,11.75,0,0,1,1.87.26c.14,3.51-.53,7.42.27,10.65,6.31,9.43,9.26,17.52,10.2,28.7.94,2.16,1.87,4.45,3,6.74,9.66-.4,23.62-6.33,32.2-3,2-.67,2-.67,6.31-3.1,4.42-.94,4.42-.94,6.7-2v-1.08c-4.29-1.75-8.72-4.18-13.42-4.18-8.17,2-14.22,4-22.4,2.29a10.77,10.77,0,0,1-.27-2c2.55-10.91,1.88-20.08,0-31-2-4.32-4.42-7.55-6.17-11.32,4.83-1,7.65,8.22,9.52,11.46,6,.4,12.75,1.61,18.66,1.61,2.68-2.43,5.36-4.85,8-7.14,5.77-8.49,5.77-8.49,9.79-15.77h1.62c.53,8.63-12.07,21.56-18,26,.67,4,5.64,7.68,8.45,10.65,2.82,4.85,5.91,9.83,7.91,15.09-.39,2.15-.8,4.44-1.07,6.73h-.93v.95c-7,1.75-10.34,2-13.83,8.49,3.36.27,5.11-1.22,8.06-1.35-.81,3.64-4.7,3.64-7.78,3.64a1.87,1.87,0,0,0-.28.81,15.06,15.06,0,0,0,6.72,1.61c2.68-1.88,2.68-1.88,4-2-1.08,3.1-3,3.91-5.63,5.26,9.38,4.71,17-16,19.72-21v-4.45c-5-7.68-8.45-13.48-6.18-22.64,8-2.43,15.57-8.49,14.63-18.19A10.26,10.26,0,0,0,150,137a3.2,3.2,0,0,0-.94-.27c-1.07,1.61-2,3.23-2.95,4.85a6.27,6.27,0,0,0-1.61-.14c-.81-4.44,8.05-11.85,3.89-16-4.83,0-7.25,5.12-11.54,5.12,1.21-5.12,7.91-8.35,12.75-8.35,2.95,4.17.94,8.89,3.75,13.2-.13,3.91-1.61,7.68-.94,11.72-1.74,2.7-3.35,5.4-5,8.09.27,2.15.67,4.44,1.07,6.73h1.08c1.34-2,2.68-4,4.15-5.92,6.17.67,10.2-3.64,12.75-9.43,6.84-4,11.67.81,13,7.27,2.82-.94,2.28-6.2,5.77-6.2,1.48,1.08,2.15,2.16,3.62,3a20.88,20.88,0,0,1,1.21-7.28,34.09,34.09,0,0,1,3.76-.27c-1.61-4.85-3.76-11.45-.94-16.16,2-.41,2.55.53,3.89,1.88.8-2.83,1.61-10,2.41-12.26a6,6,0,0,1,3.49,1.48c0-2.69.13-5.25.27-7.82,1.88-4.31,3.22-5.66,4.43-8.62,7.64-4,14.89-5.12,18.92-13.87h-1.08C219.58,91.69,210.86,95.87,203.88,95.87Zm-90,67.51c-3.35.8-6.31-3-9.52-2.56,4.69,6.06,6.3,13.88,9.12,20.88,4.56,1.21,10.19,2.7,13.68,6.2h.94C128.89,178.74,119,170,113.86,163.38Zm21.47,1.21c0,1.89.13,3.78.26,5.79,3.09-1.07,6.17-2.15,9.4-3.09C143.78,157.72,143.51,160,135.33,164.59Z"/><path class="cls-3" d="M178.12,82.8c-2.28-3.91-3.35-6.74,1.34-8.09A23.49,23.49,0,0,1,180,82c-.67.27-1.34.54-1.88.81M200.22,80a2.46,2.46,0,1,1-2.66,2.45A2.56,2.56,0,0,1,200.22,80"/><circle class="cls-2" cx="58" cy="58" r="32"/><path class="cls-5" d="M60,76.48c-.4.45.89,1.45.89,1.45Zm-3.65,4.33a6.11,6.11,0,0,0-3.78-.25l.23.41.62.85.7-.07a2.58,2.58,0,0,1,1,.21s1.16-1.2,1.28-1.15m3.88-51.25a1.22,1.22,0,0,0-.33.27,2.41,2.41,0,0,0-.21.5,1.38,1.38,0,0,1-.17.48,1.34,1.34,0,0,1-.36.31c.81.05,1.61.13,2.41.25h0a1.46,1.46,0,0,0,.38-.27,1.33,1.33,0,0,0,.21-.47,3,3,0,0,1,.25-.47,1.78,1.78,0,0,1,.36-.25h0c-.83-.15-1.67-.27-2.52-.35Zm3.25.5a1.43,1.43,0,0,0-.37.23,3.47,3.47,0,0,0-.27.46,1.17,1.17,0,0,1-.23.46,1.7,1.7,0,0,1-.38.26A22.93,22.93,0,0,1,64.6,32l0,0a1.53,1.53,0,0,0,.42-.22,1.3,1.3,0,0,0,.27-.43,2.29,2.29,0,0,1,.32-.43,1.54,1.54,0,0,1,.38-.2h0a22.1,22.1,0,0,0-2.45-.67Zm3.15.92a1.38,1.38,0,0,0-.39.18,1.91,1.91,0,0,0-.33.42,1.37,1.37,0,0,1-.29.42,1.65,1.65,0,0,1-.42.21c.76.25,1.52.53,2.25.85h0a1.55,1.55,0,0,0,.44-.17,1.23,1.23,0,0,0,.33-.39,2,2,0,0,1,.37-.39A1.19,1.19,0,0,1,69,32h0c-.75-.37-1.54-.7-2.34-1Zm3,1.32a1.51,1.51,0,0,0-.41.13,2.22,2.22,0,0,0-.38.37,1.24,1.24,0,0,1-.34.38,1.42,1.42,0,0,1-.45.16,21.78,21.78,0,0,1,2.13,1.14v0a1.82,1.82,0,0,0,.46-.11A1.37,1.37,0,0,0,71,34a2.18,2.18,0,0,1,.42-.33,1.58,1.58,0,0,1,.42-.09h0q-1.06-.69-2.19-1.29ZM72.38,34a1.55,1.55,0,0,0-.43.07,2.59,2.59,0,0,0-.42.32,1.41,1.41,0,0,1-.39.34,1.86,1.86,0,0,1-.47.09,20.8,20.8,0,0,1,2,1.41v0a1.48,1.48,0,0,0,.47-.05,1.33,1.33,0,0,0,.41-.29,2,2,0,0,1,.46-.28,1.26,1.26,0,0,1,.43,0h0c-.64-.54-1.31-1.07-2-1.56Zm2.55,2.06a1.56,1.56,0,0,0-.43,0,2.55,2.55,0,0,0-.46.25,1,1,0,0,1-.9.31,22.88,22.88,0,0,1,1.75,1.66v0a1.85,1.85,0,0,0,.47,0,1.41,1.41,0,0,0,.45-.25,1.94,1.94,0,0,1,.49-.22,1.54,1.54,0,0,1,.43,0h0c-.56-.63-1.16-1.23-1.78-1.81Zm2.28,2.37a1.46,1.46,0,0,0-.42,0,1.81,1.81,0,0,0-.5.2,1.35,1.35,0,0,1-.47.22,1.89,1.89,0,0,1-.47,0h0a21.24,21.24,0,0,1,1.54,1.87v0a1.84,1.84,0,0,0,.47.07,1.4,1.4,0,0,0,.48-.18,2.21,2.21,0,0,1,.5-.15,2.07,2.07,0,0,1,.42.08h0c-.48-.7-1-1.37-1.53-2Zm2,2.65a1.18,1.18,0,0,0-.42-.1,2.47,2.47,0,0,0-.52.13,1.31,1.31,0,0,1-.48.17,1.46,1.46,0,0,1-.46-.1c.46.67.88,1.36,1.27,2.07v0a1.78,1.78,0,0,0,.45.13,1.25,1.25,0,0,0,.5-.11,1.89,1.89,0,0,1,.53-.08,1.51,1.51,0,0,1,.41.13h0c-.38-.76-.8-1.49-1.25-2.21ZM80.77,44a1.49,1.49,0,0,0-.4-.15,2.33,2.33,0,0,0-.53.06.93.93,0,0,1-1-.06,22,22,0,0,1,1,2.21v0a1.38,1.38,0,0,0,.43.19,1.4,1.4,0,0,0,.5,0,1.57,1.57,0,0,1,.53,0,1.38,1.38,0,0,1,.39.18h0A24,24,0,0,0,80.79,44Zm1.37,3a1.68,1.68,0,0,0-.42-.22,2.81,2.81,0,0,0-.58,0,1.7,1.7,0,0,1-.55,0,1.53,1.53,0,0,1-.46-.23c.29.84.55,1.69.76,2.54v0a1.83,1.83,0,0,0,.44.28,1.7,1.7,0,0,0,.55,0,2.78,2.78,0,0,1,.58.06,1.53,1.53,0,0,1,.4.26h0q-.3-1.37-.72-2.7Zm.63,3.29a1.4,1.4,0,0,0-.35-.25,2.34,2.34,0,0,0-.53-.08,1.2,1.2,0,0,1-.5,0,1.62,1.62,0,0,1-.39-.25A23.8,23.8,0,0,1,81.39,52v0a.92.92,0,0,0,.85.39,2.31,2.31,0,0,1,.52.12,1.43,1.43,0,0,1,.32.28h0a23.43,23.43,0,0,0-.31-2.52Zm.48,3.26a1.47,1.47,0,0,0-.32-.29,1.84,1.84,0,0,0-.51-.14,1.45,1.45,0,0,1-.5-.11,1.34,1.34,0,0,1-.36-.31h0A21.66,21.66,0,0,1,81.64,55v0a1.78,1.78,0,0,0,.32.35,1.4,1.4,0,0,0,.49.15,2.34,2.34,0,0,1,.5.19,1.22,1.22,0,0,1,.28.32h0a23.89,23.89,0,0,0,0-2.54ZM83,56.75a1.75,1.75,0,0,0-.28-.33,2,2,0,0,0-.5-.21,1.2,1.2,0,0,1-.48-.17,1.47,1.47,0,0,1-.31-.35,24.08,24.08,0,0,1-.24,2.4v0a1.49,1.49,0,0,0,.28.38,1.3,1.3,0,0,0,.46.22,1.77,1.77,0,0,1,.47.25,1.24,1.24,0,0,1,.25.35h0A23.67,23.67,0,0,0,83,56.76ZM82.55,60a1.38,1.38,0,0,0-.23-.36,1.92,1.92,0,0,0-.46-.27,1.47,1.47,0,0,1-.45-.23,1.28,1.28,0,0,1-.25-.4c-.15.8-.33,1.59-.55,2.36v0a1.47,1.47,0,0,0,.22.41,1.67,1.67,0,0,0,.43.28,1.94,1.94,0,0,1,.44.31,1.5,1.5,0,0,1,.19.38h0A22.72,22.72,0,0,0,82.57,60Zm-.86,3.18a1.49,1.49,0,0,0-.15-.4,1.9,1.9,0,0,0-.39-.36,1.38,1.38,0,0,1-.4-.32,1.63,1.63,0,0,1-.18-.43,22.85,22.85,0,0,1-1,2.19l0,0a1.88,1.88,0,0,0,.14.46,1.24,1.24,0,0,0,.37.35,3.33,3.33,0,0,1,.36.39,1.44,1.44,0,0,1,.11.42h0c.42-.74.8-1.49,1.15-2.26Zm-1.38,3a1.16,1.16,0,0,0-.13-.41,2.28,2.28,0,0,0-.37-.39,1.12,1.12,0,0,1-.38-.34,1.46,1.46,0,0,1-.16-.44,21.78,21.78,0,0,1-1.14,2.13l0,0a1.82,1.82,0,0,0,.11.46,1.4,1.4,0,0,0,.35.38,2.2,2.2,0,0,1,.33.41,1.58,1.58,0,0,1,.09.42h0a25.05,25.05,0,0,0,1.28-2.19ZM78.6,69a1.23,1.23,0,0,0-.07-.42,2.29,2.29,0,0,0-.32-.43,1.48,1.48,0,0,1-.33-.38,1.52,1.52,0,0,1-.1-.47,20.66,20.66,0,0,1-1.41,2h0a1.83,1.83,0,0,0,0,.47,1.25,1.25,0,0,0,.3.42,2.35,2.35,0,0,1,.28.46,1.49,1.49,0,0,1,0,.42h0a23.75,23.75,0,0,0,1.56-2Zm-2,2.67a1.55,1.55,0,0,0,0-.43,2.05,2.05,0,0,0-.25-.46,1.52,1.52,0,0,1-.28-.43,1.86,1.86,0,0,1,0-.47c-.52.61-1.07,1.2-1.65,1.76h0a1.85,1.85,0,0,0,0,.47,1.41,1.41,0,0,0,.25.45,2.38,2.38,0,0,1,.22.49,1.55,1.55,0,0,1,0,.43h0a25.33,25.33,0,0,0,1.81-1.78Zm-2.38,2.05a1.54,1.54,0,0,0,0-.43,2.41,2.41,0,0,0-.21-.5,1.5,1.5,0,0,1-.22-.46,1.83,1.83,0,0,1,0-.47A21.46,21.46,0,0,1,72,73.35h0a1.5,1.5,0,0,0-.08.47,1.4,1.4,0,0,0,.18.48,2.07,2.07,0,0,1,.15.5,1.25,1.25,0,0,1-.08.42h0a24.5,24.5,0,0,0,2-1.53Zm-2.53,2a1.43,1.43,0,0,0,.09-.42,1.82,1.82,0,0,0-.13-.51,1.41,1.41,0,0,1-.16-.49,1.71,1.71,0,0,1,.09-.46,22.6,22.6,0,0,1-2,1.27h0a1.78,1.78,0,0,0-.13.45,1.18,1.18,0,0,0,.11.5,2,2,0,0,1,.08.53,1.23,1.23,0,0,1-.13.41h0a25.14,25.14,0,0,0,2.21-1.25Zm-3,1.52a1.38,1.38,0,0,0,.15-.4,1.88,1.88,0,0,0-.07-.53,1.43,1.43,0,0,1-.09-.5,1.7,1.7,0,0,1,.15-.45,22.85,22.85,0,0,1-2.2,1h0a2.18,2.18,0,0,0-.22.43,1.45,1.45,0,0,0,0,.51,2,2,0,0,1-.06.54,3.29,3.29,0,0,1-.16.44c.79-.28,1.72-.65,2.5-1ZM65.4,78.48c0-.11.07-.21.1-.31a1.76,1.76,0,0,0,.06-.46c0-.14-.11-.25-.06-.45a2.7,2.7,0,0,1,.29-.62,18.32,18.32,0,0,0-2.59,1.07l-.34.17a1.65,1.65,0,0,0-.1.5c0,.15,0,.38,0,.54a1.88,1.88,0,0,1-.32.82,9.28,9.28,0,0,0,2.59-1Zm-15.94-.35a1.71,1.71,0,0,0,.39-.17,2.59,2.59,0,0,0,.32-.42,1.42,1.42,0,0,1,.29-.43,1.72,1.72,0,0,1,.43-.21,21.69,21.69,0,0,1-2.25-.85v0a1.49,1.49,0,0,0-.44.17,1.4,1.4,0,0,0-.33.39,2.22,2.22,0,0,1-.38.37,1.42,1.42,0,0,1-.41.14h0c.75.37,1.54.7,2.34,1Zm-3-1.32a1.48,1.48,0,0,0,.41-.12,2.28,2.28,0,0,0,.38-.38,1.24,1.24,0,0,1,.34-.38,1.7,1.7,0,0,1,.45-.15q-1.09-.52-2.13-1.14v0a1.47,1.47,0,0,0-.46.11,1.33,1.33,0,0,0-.37.34,2.72,2.72,0,0,1-.42.34,1.43,1.43,0,0,1-.42.09h0c.71.46,1.44.89,2.19,1.28ZM43.65,75.1a1.16,1.16,0,0,0,.42-.07,2.29,2.29,0,0,0,.43-.32,1.23,1.23,0,0,1,.39-.33,1.52,1.52,0,0,1,.46-.1,22,22,0,0,1-2-1.41v0a1.47,1.47,0,0,0-.47,0,1.53,1.53,0,0,0-.41.31,2.27,2.27,0,0,1-.45.28,1.56,1.56,0,0,1-.43,0h0a25,25,0,0,0,2,1.56Zm-2.54-2a1.55,1.55,0,0,0,.43,0,2.59,2.59,0,0,0,.46-.26,1.3,1.3,0,0,1,.43-.27,1.83,1.83,0,0,1,.47,0c-.61-.52-1.2-1.07-1.76-1.65v0a1.5,1.5,0,0,0-.47,0,1.35,1.35,0,0,0-.46.24,2.05,2.05,0,0,1-.5.22,2,2,0,0,1-.42,0h0a25.3,25.3,0,0,0,1.78,1.81Zm-2.3-2.38a1.57,1.57,0,0,0,.43,0,3.07,3.07,0,0,0,.5-.2,1.39,1.39,0,0,1,.46-.22,1.23,1.23,0,0,1,.47,0c-.54-.6-1.05-1.22-1.53-1.87v0a1.49,1.49,0,0,0-.47-.07,1.22,1.22,0,0,0-.48.18,3.8,3.8,0,0,1-.51.15,1.58,1.58,0,0,1-.42-.09h0c.48.7,1,1.38,1.53,2Zm-2-2.57a1.45,1.45,0,0,0,.41.1,2.21,2.21,0,0,0,.52-.14,1.41,1.41,0,0,1,.49-.16,1.46,1.46,0,0,1,.46.1c-.46-.67-.88-1.35-1.27-2.06v0a1.39,1.39,0,0,0-.45-.14,1.45,1.45,0,0,0-.5.11,2.35,2.35,0,0,1-.53.09,1.53,1.53,0,0,1-.41-.14h0c.38.75.8,1.5,1.25,2.21Zm-1.52-3a1.38,1.38,0,0,0,.4.15,2.33,2.33,0,0,0,.53-.06,1.24,1.24,0,0,1,.5-.1,1.7,1.7,0,0,1,.45.15,21.8,21.8,0,0,1-1-2.2v0a.92.92,0,0,0-.93-.15,1.89,1.89,0,0,1-.53,0,1.38,1.38,0,0,1-.39-.18h0a25.09,25.09,0,0,0,1,2.35ZM34,62.08a1.16,1.16,0,0,0,.38.2,2.35,2.35,0,0,0,.53,0,1.42,1.42,0,0,1,.5,0,1.56,1.56,0,0,1,.43.21,23.59,23.59,0,0,1-.7-2.31v0a2.06,2.06,0,0,0-.4-.25,1.41,1.41,0,0,0-.5,0,3.29,3.29,0,0,1-.54,0,1.21,1.21,0,0,1-.35-.24h0q.26,1.24.63,2.46Zm-.74-3.19a1.24,1.24,0,0,0,.35.25,2.34,2.34,0,0,0,.53.08,1.2,1.2,0,0,1,.5,0,1.62,1.62,0,0,1,.39.25,24.08,24.08,0,0,1-.39-2.38v0a1.52,1.52,0,0,0-.37-.3,1.35,1.35,0,0,0-.5-.09,2.23,2.23,0,0,1-.51-.12,1.29,1.29,0,0,1-.33-.28h0a24.07,24.07,0,0,0,.31,2.52ZM33,55.64a1.52,1.52,0,0,0,.32.3,3,3,0,0,0,.51.14,1.44,1.44,0,0,1,.5.1,1.55,1.55,0,0,1,.36.31,21.56,21.56,0,0,1-.08-2.41v0a1.56,1.56,0,0,0-.33-.35,1.4,1.4,0,0,0-.49-.15,3,3,0,0,1-.5-.19,1.75,1.75,0,0,1-.28-.33h0c0,.85,0,1.7,0,2.54Zm0-3.28a1.75,1.75,0,0,0,.28.33,2,2,0,0,0,.5.21,1.38,1.38,0,0,1,.48.17,1.73,1.73,0,0,1,.31.35c0-.8.13-1.6.25-2.4v0a1.49,1.49,0,0,0-.28-.38,1.37,1.37,0,0,0-.46-.21,2.34,2.34,0,0,1-.47-.25,1.45,1.45,0,0,1-.25-.36h0a23.5,23.5,0,0,0-.35,2.52Zm.57-3.24a1.83,1.83,0,0,0,.23.38,3.24,3.24,0,0,0,.47.28,1.21,1.21,0,0,1,.47.23,1.76,1.76,0,0,1,.27.4,22,22,0,0,1,.56-2.4v0a1.44,1.44,0,0,0-.23-.42,1.37,1.37,0,0,0-.44-.28,2.36,2.36,0,0,1-.44-.32,1.44,1.44,0,0,1-.2-.39h0c-.27.81-.5,1.65-.69,2.49ZM34.48,46a1.38,1.38,0,0,0,.18.39,2.18,2.18,0,0,0,.42.33,1.37,1.37,0,0,1,.42.29,1.65,1.65,0,0,1,.21.42,21.69,21.69,0,0,1,.85-2.25l0,0a1.72,1.72,0,0,0-.16-.45,1.33,1.33,0,0,0-.38-.33,2.4,2.4,0,0,1-.4-.38,1.53,1.53,0,0,1-.14-.41h0c-.37.77-.71,1.55-1,2.34Zm1.32-3a1.51,1.51,0,0,0,.13.41,2.28,2.28,0,0,0,.38.38,1.52,1.52,0,0,1,.38.34,1.7,1.7,0,0,1,.15.45A21.78,21.78,0,0,1,38,42.41h0a1.54,1.54,0,0,0-.11-.46,1.4,1.4,0,0,0-.35-.38,2.25,2.25,0,0,1-.34-.41,2.07,2.07,0,0,1-.08-.42h0q-.69,1.06-1.29,2.19Zm1.7-2.85a1.55,1.55,0,0,0,.07.43,2.18,2.18,0,0,0,.33.42,1.23,1.23,0,0,1,.33.39,1.46,1.46,0,0,1,.1.46,22.72,22.72,0,0,1,1.42-2h0a1.51,1.51,0,0,0,0-.47,1.21,1.21,0,0,0-.3-.41,2.4,2.4,0,0,1-.27-.46,1.57,1.57,0,0,1,0-.43h0c-.55.64-1.07,1.31-1.56,2Zm2-2.54a2.07,2.07,0,0,0,0,.43,2.68,2.68,0,0,0,.26.47,1.19,1.19,0,0,1,.28.42,1.26,1.26,0,0,1,0,.47h0c.53-.61,1.08-1.2,1.66-1.76h0a1.48,1.48,0,0,0,0-.47,1.24,1.24,0,0,0-.25-.45,3.06,3.06,0,0,1-.22-.49,1.56,1.56,0,0,1,0-.43h0a23.4,23.4,0,0,0-1.81,1.78Zm2.38-2.3a1.56,1.56,0,0,0,0,.43,1.94,1.94,0,0,0,.2.5,1.5,1.5,0,0,1,.22.46,1.83,1.83,0,0,1,0,.47,23.06,23.06,0,0,1,1.87-1.53h0a1.48,1.48,0,0,0,.08-.46,1.33,1.33,0,0,0-.18-.48,2.21,2.21,0,0,1-.15-.5,1.42,1.42,0,0,1,.08-.42h0a22.94,22.94,0,0,0-2,1.53Zm2.64-1.79a1.54,1.54,0,0,0-.07.42,2.33,2.33,0,0,0,.13.52,1.36,1.36,0,0,1,.16.48,1.27,1.27,0,0,1-.09.47,24.07,24.07,0,0,1,2-1.27h0a1.47,1.47,0,0,0,.14-.45,1.25,1.25,0,0,0-.11-.5,2.35,2.35,0,0,1-.09-.53,2,2,0,0,1,.14-.41h0c-.76.38-1.49.8-2.21,1.25Zm2.88-1.77a1.74,1.74,0,0,0-.15.4,2.43,2.43,0,0,0,.08.54,1.43,1.43,0,0,1,.09.5,1.2,1.2,0,0,1-.15.45c.72-.37,1.45-.7,2.2-1h0a1.38,1.38,0,0,0,.19-.43,1.4,1.4,0,0,0,0-.5,2.35,2.35,0,0,1,0-.53,1.41,1.41,0,0,1,.19-.39h0c-.8.28-1.59.6-2.36.95Zm3.07-1a1.52,1.52,0,0,0-.2.38,2.35,2.35,0,0,0,0,.53,1.14,1.14,0,0,1,0,.52,1.65,1.65,0,0,1-.21.42,21.14,21.14,0,0,1,2.31-.7h0a1.5,1.5,0,0,0,.25-.4,1.25,1.25,0,0,0,0-.51,2.33,2.33,0,0,1,.06-.53,1.69,1.69,0,0,1,.23-.36h0a23.39,23.39,0,0,0-2.46.64Zm3.19-1a1.48,1.48,0,0,0-.25.35,2.33,2.33,0,0,0-.07.53,1.4,1.4,0,0,1,0,.5,2,2,0,0,1-.25.39,24.08,24.08,0,0,1,2.38-.39h0a2,2,0,0,0,.29-.36,1.43,1.43,0,0,0,.09-.5,2.31,2.31,0,0,1,.12-.52,1.58,1.58,0,0,1,.29-.34h0a24.8,24.8,0,0,0-2.52.32ZM57,29.49a1.47,1.47,0,0,0-.29.32,2.13,2.13,0,0,0-.14.51,1.25,1.25,0,0,1-.11.5,1.74,1.74,0,0,1-.31.36,21.74,21.74,0,0,1,2.42-.08h0a1.72,1.72,0,0,0,.34-.32,1.31,1.31,0,0,0,.15-.5,2.47,2.47,0,0,1,.19-.5,1.35,1.35,0,0,1,.32-.27h0a21.19,21.19,0,0,0-2.52,0ZM50.88,78s.26,1.36,1.15,1.4a3.9,3.9,0,0,1,1.4-1.54l.17-.2A2.31,2.31,0,0,1,54,76l-.5.11a4.37,4.37,0,0,0-2.6,2Zm1.62,4.35a1.07,1.07,0,0,0,.42-.28h0a2.55,2.55,0,0,1-1-2.09c-1.13-.13-1.39-1.41-1.39-1.41h0A4.22,4.22,0,0,0,51,82.38h0a3.79,3.79,0,0,0,1.5,0m2.45.22a2.89,2.89,0,0,1-.5,0,2.77,2.77,0,0,1-.9-.18h0c-.25.77-2,.6-2,.6a4.38,4.38,0,0,0,2.37,1.18h0s1-.21,1-1.64Zm.55,0a1.63,1.63,0,0,1-.58,1.88c1.41.37,3-1.14,3-1.14a5.46,5.46,0,0,0-1.67-.57l-.75-.17,0,0Zm4.68-.33A7.4,7.4,0,0,0,57.27,81l-1.52,1.09,1.85.61c.56.15.71.42,1.41.87,0,0,1.64-.94,1.17-1.31m3.18,1.56a2.9,2.9,0,0,1-1-1.2,3.21,3.21,0,0,1-1.5-.07C61,83.05,59.6,84,59.6,84a3.6,3.6,0,0,0,2.15.54,2.66,2.66,0,0,0,1.59-.64M60.9,77.94c.71-.58,1.33-.81,1.8-.66a18.58,18.58,0,0,1,1.91-.77,2.66,2.66,0,0,0-2.42-.82,5,5,0,0,0-2.29.93Zm-.52.35s-1.07-.91-.86-1.55c-1.2,1.06-1.69,1.58-2.68,1.58-.25.05,0,0,0,0a1.57,1.57,0,0,0-.25.5,1.74,1.74,0,0,0-.11.45,3.25,3.25,0,0,0,0,.54,3.68,3.68,0,0,0,3.35-1.06c.12-.11.45-.36.56-.47M56,79.89s-.12,0,0-.64a3,3,0,0,1,.16-.45,1.57,1.57,0,0,1,.25-.48h0l-.3,0a17.1,17.1,0,0,1-2-.3h0a1.51,1.51,0,0,0-.67.44c-.07.15-.21.19-.3.29s-.29.35-.29.35h0a9.26,9.26,0,0,0,3.15.77m-1-3.78s-.89,1.09-.53,1.47a2.78,2.78,0,0,1,1,0,3,3,0,0,1,1.11.19l.25.08a1.93,1.93,0,0,0,.91-.38l.43-.34A3.06,3.06,0,0,0,55.58,76c-.18,0-.45,0-.58.15Zm-4,7.18a2.57,2.57,0,0,1-1-1.52,2.39,2.39,0,0,0-.37.15l.1-.07a3,3,0,0,0-.78.59c-.18.19-.51.62-.89,1.09h0c.89-.77,2,.55,2,.55l0,0,.36-.35a6.36,6.36,0,0,1,.57-.46m-2.28,2.1.86-.83a1.45,1.45,0,0,0-2.1-.31Zm-.52.52.15-.18-1.13-1.1-.16.18ZM46.75,85a6,6,0,0,0-.65.47L47.38,87l.53-.8Zm19.92,1.54.5.82,1.33-1.45a6,6,0,0,0-.63-.5Zm.86-1.33-.17-.17-1.19,1.05.17.17Zm-.35-.61a1.45,1.45,0,0,0-2.12.23l.84.87ZM65,82.15a1.71,1.71,0,0,0-2.33.35A5.26,5.26,0,0,1,64.36,84l.23.39h0s1.18-1.29,2-.48h0c-.36-.48-.68-.91-.86-1.1a5.08,5.08,0,0,0-.75-.64M59.35,79.7c-.13,0,.8.39,2.29.17v0a1.66,1.66,0,0,0,.25-.34,2.19,2.19,0,0,0,.16-.57,3.18,3.18,0,0,0,.06-.43,1.51,1.51,0,0,1,.07-.37c-.17.08-1,.38-1,.38l-.41.09a3.81,3.81,0,0,0-.35.32l-.44.37c-.09.07-.55.35-.6.4m6.22,2.09a2.89,2.89,0,0,0,.36-2.89l-1.81.83a1,1,0,0,1-.21,1.18s1.75.76,1.66.88m-3.5.46s1.22-1.14,2-.78l-.18-.16a4.22,4.22,0,0,0-2.38-.85c-.75,0-2.07.2-2.37.69A4,4,0,0,1,61,82.1c.06.06.36,0,1.08.15"/><path class="cls-5" d="M43.39,54.11l.73-1.45,1.61.25-1.16-1.16.73-1.45-1.44.75L42.7,49.91l.27,1.6-1.44.75,1.6.25Zm11,4.24h0a25.39,25.39,0,0,0-2.87.4c-.47-1.85-1.81-4.22-4.11-3.88-2,.28-2.8,2.3-2.32,4.1-2.81.39-5.18-1.89-5.75-4.48a6.34,6.34,0,0,1,6.06-7.78c5.75,0,8.85,7.58,9,11.63m18.29-4.23L73,52.5l1.6-.25-1.44-.75.27-1.6-1.16,1.16-1.44-.75.72,1.45L70.38,52.9l1.6-.25Zm-11,4.29c.19-4,3.29-11.63,9-11.63a6.35,6.35,0,0,1,6.07,7.77c-.57,2.59-2.93,4.87-5.75,4.48.47-1.8-.35-3.82-2.32-4.1-2.3-.34-3.64,2-4.11,3.86a29,29,0,0,0-2.89-.37ZM58.07,61c3.71,0,6.7-.35,6.7-.58s-3-.6-6.72-.6-6.72.37-6.72.6,3,.58,6.75.58m0,.84c-4.29,0-7.77-.64-7.77-1.42S53.75,59,58.05,59s7.77.64,7.77,1.42-3.48,1.42-7.77,1.42m6.27.25a3.13,3.13,0,0,0,4.62,2.51,3.47,3.47,0,0,1-3.29,3.25c-2.41,0-3.82-3.67-4-5.38h0a24.91,24.91,0,0,0,2.71-.39Zm-10,.38c-.17,1.69-1.59,5.42-4,5.42A3.47,3.47,0,0,1,47,64.64a3.13,3.13,0,0,0,4.63-2.56v0a27.06,27.06,0,0,0,2.68.4Zm3.73-27.54a27.42,27.42,0,0,0,3.1,2.69,9.21,9.21,0,0,1,3.91,7.1c0,4.41-3.68,8.28-4.14,13.6-.8-.08-1.6-.13-2.4-.13.1-5.4-.11-12.72-.47-18-.37,5.28-.57,12.6-.48,18a23.76,23.76,0,0,0-2.39.13C54.71,53,51,49.13,51,44.72a9.17,9.17,0,0,1,3.91-7.1,27.53,27.53,0,0,0,3.11-2.69m0,37.85A10.74,10.74,0,0,1,52.94,68a12.13,12.13,0,0,0,2.19-5.4c.75.06,1.57.09,2.4.09a43.35,43.35,0,0,0,.52,6.13,41.86,41.86,0,0,0,.51-6.13c.84,0,1.65,0,2.41-.09A12.13,12.13,0,0,0,63.16,68a10.65,10.65,0,0,1-5.11,4.82"/></svg>