<svg id="Capa_1" data-name="Capa 1" xmlns="http://www.w3.org/2000/svg" viewBox="0 0 256 256"><defs><style>.cls-1{fill:#ffd500;}.cls-2{fill:#1d1d1b;}.cls-3{fill:#9ca8b0;}.cls-4{fill:#fbb900;}.cls-5{fill:#fff;}</style></defs><title>progresion</title><rect class="cls-1" x="12" y="12" width="232" height="232"/><path class="cls-2" d="M217.28,199c-8.67,5.5-16.33,2.6-18.49,13.88-.44.43-.72.58-.87.87-4.33-1.16-10.4-4.05-12.57,1.44a17.72,17.72,0,0,1-2.75.15c-1-3-2.74-4.05-5.77-4.63,4.48,3.61,7.51,7.95,5.92,14.31a35.33,35.33,0,0,1-16.32,3.61c-2-1.73-2.6-3-4.77-1-4.62-2.46-5.63-2.6-5.63-8,.86-2.6.86-2.6.72-3.32-2.17-.58-2.17-.58-28.32-1-3.75.57-7.37,1-10.83,1.3,3.46,6.5,2.31,9.54-3.47,13.44-3.9,0-7.36.72-11.55.58-8-3.47-10.11-3-11.13-11.57-5.2-.57-12.85-.86-16.32-5.49.58-3.76.72-7.95,3.47-10.84,3.61-1.16,7.8-.58,11.55-1.88-7.8-6.65-9.39-11.13-12.85-20.67,0-10.12,6.06-11.13,14-6.94,1.16,1.16,2.31,2.17,3.61,3.33,1.16-11.56,1.59-24,12.43-30.5-2.18-1.44-5.06-2.31-5.06-5.06,4.48-1.3,9.1-4.48,9.82-9-5.49-.72-1.59-2.89.43-5.78,0-3.61-1.15-3.9-4.33-5.64a8,8,0,0,1,.15-1.88c5.92-4,7.94-5.92,3.17-12v-2c11,1.3,15-2.89,4.77-14.16V89.15c4.76-1.73,7.08-4.91,9.68-9.25-1.16-2.31-3.33-.14-3.33-3.61,4.34-1.45,5.21-2,6.36-6.51,4.05-4-4.47-2-5.2-4.91,1.44-2.75,6.79-3.76,6.79-7.66-1.44-1.59-3.75-3-3.75-5.35,1.88-1.3,5.05.58,7.51.58A65.23,65.23,0,0,1,140,47.09c1-5.64,4.19-8.24,7.23-12.86,1.44-3.33,1.3-8.39,5.77-8.39A21.5,21.5,0,0,0,154.44,29c2.6,1.88,3.9,5.21,5.49,8.24,1.15,14,3,5.2,10.54,4.48,0,2,0,3.9.15,5.78,4.91,2.61,7.08-.72,11.56-.14,0,2.6-2,4.91-3.33,6.94,2.6,0,5.49-3,8.38-3.47.87,4.33-1.3,7.08.15,11.27,3.32,0,18.2.44,18.2,4.92-2.89,2.89-4.48,6.36-6.5,10-3.19,1.88-5.2,2.17-8.67,2.6,0,2.6,1,4.34,1.44,6.8-2.31,0-5-.58-7.08.43,0,1.88,1.31,2.31,2.75,3.32a8.51,8.51,0,0,0-.14,1.88c-3.18,1.45-5.06-.14-8.09.44-1.3,2.74,2,5.2.86,6.36-2.89-.29-4.91-.87-7.94-.58,0,3.61.58,4,2.89,6.65a13.69,13.69,0,0,1-.73,1.44c-9.24,0-4.48,9.69-3.46,14.75.86,1,5.78,4,4.91,5.49-1.45.14-1.45,1.15-3.61.43,0,3.18,2,3.61,4.62,5.2v1.59c-8.52.73-5.92,6.8,0,10.7,0,2.6-3,1.3-4.77,1.16-2.6,10.12-.29,14.74,4.77,23.7,0,7.08-1.3,14.46-2.17,21.54l4.77.43c3.61-1,6.93-2.74,10.55-3.32.14,1.15.28,2.17.43,3.18-1.88,1.3-1.88,1.3-2.17,2.17,4.77,4.77,11.56-2.17,15.32-5.5l2,.44C205,197,209.19,197,217,198a1.64,1.64,0,0,0,.29,1"/><path class="cls-3" d="M157.18,196c.58-.87,1-1.74,1.59-2.6,1.16,1.15.87,4.77.87,6.64h-5.06C155.45,198.57,156.32,197.27,157.18,196Zm-55,13.15c1.88-4.48,3.47-10.84,4.19-11.71-.29-1.3-.29-1.3-3.61-7.08-.72-.87-1.44-1.73-2.31-2.75-4.91-5.92-10.55-12.28-18.92-12.28,0,11.42,4.18,20.81,15,26.16.14.87.29,1.45-.29,2l-14.88.44c-.87.43-.87.43-2.74,4-.58,4.34-1.45,5.06,2.74,5.93.43-2.75,1.16-3.9,2.31-6.5.44,0,.87-.15,1.45-.15-1.45,5.06-2.6,8.67,3.9,8.67a14.6,14.6,0,0,1,0-6.64,2.13,2.13,0,0,1,1.88,0c0,2.89-.29,3.9,1.3,6.07,1.87,0,5.77-3,8.23-4.92C101.13,209.84,101.71,209.41,102.14,209.12Zm69.63.15c-2.31-13,.72-26.6,1.3-39.75-3.18-7.23-5.2-13.16-5.2-21,.44-2.17,2.17-4.92,2.6-6.8-1.73-3.18-2.45-7.66.44-10.4a4.42,4.42,0,0,0-1.74-3c.15-1.59.29-3.18.44-4.91-2.46-5.93-5.06-12.43-1.3-18.36,0-6.07,1.15-9.11,7.51-10.55,1.3-3.18,1.88-5.2,5.63-6.22,1.3-3.61,1.88-4,5.49-5a14.34,14.34,0,0,1,.58-5.21A8.62,8.62,0,0,1,189,75.71c9.68-.43,8.09.43,12.28-7.52a3.51,3.51,0,0,1-.29-1.3c-2-.43-4-1-5.92-1.44a62.14,62.14,0,0,0-7.51.57c-2.89,0-3.18-1.15-4.05-8.81-4.76.29-6.79,1-6.79-4.19-5.49-.44-7.8-.44-8.52-6.36-7.22,2.74-9.68,1-11-3.62a48.08,48.08,0,0,1-1-5.78c-1.15-1.59-2.6-4.77-3.61-6.5-3.61,5.49-9.82,10.11-7.95,17.63-1,3.47-7.22,6.22-10.4,7.52a1.51,1.51,0,0,0,.73.58c0,3.46-5.06,3.9-5.06,7.66,5.63,2.31.87,10-1,13.73,1.44,5.92-4.34,8.53-6.36,13.58,4,5.64,4.91,14.75-3.18,16.77.29,5.06-.57,7.81-5.2,10.55,0,1.74,1.16,2.6,2,3.91,0,2,0,2-1,7.8,2.32,6.07-6.06,8.24-6.06,12.58,1.44,1.15,2.74,2,2.74,3.9-6.21,1-9.53,6.36-11.41,12.57-1.88,6.94-2,15.32-2,20.53.86,1,1.44,2,2,2.74,3.18,4.2,4.33,5.5,6.21,8.39h.72c.44-3,1.16-6.22,1.74-9.4,0-4.77-.87-9.25-.87-14a146.29,146.29,0,0,0,5.92-13.87,5.1,5.1,0,0,0,1.45.14c.58,3.76-3.61,10.84-5.2,14.31.43,5.49,1.3,9.25,1.3,13-1.74,8.82-4.05,17.34-6.5,25.87a12.86,12.86,0,0,1-4.77,5.49,27.41,27.41,0,0,1-3.76,2.17C95.35,217.22,92,226,98.1,225.45c.43-2,.58-5.34,2.31-6.36a4.09,4.09,0,0,1,1.16-.43c.43,2.46-1.45,9,1.87,10,2.17.15,4.77.87,6.21-1.3-.57-2.74-.72-5.78-2.31-8.09.15-.43.44-.87.58-1.3a3.86,3.86,0,0,0,1.3-.15c.58,3.33,2.31,6.36,2.75,9.83.43.15,1,.29,1.44.44,3.18-1.88,3.9-2.32,4.91-5.93-1.15-1.88-2.45-3.9-3.75-5.93,0-14.16,8.52-30.35,13.58-43.21.28-5.06,0-11.13,1.58-16.05a1.85,1.85,0,0,1,1.74,0c0,5.35,0,5.35-.72,15.9-3.18,9.69-7.52,19.37-10.69,29.2.43,2.17,3.61,4.33,5.2,6.21,16.9,0,20.65-41.77,22.39-51,.86-2.17,2.16-4.48,5-3.76,0,1.74-1.59,3.33-2.16,5.06-2.31,16.91-6.36,37.15-18.35,50a14.28,14.28,0,0,0-4.91,2.75v1q15,.64,29.9.87l1.3.14c1.16-3.61,2.17-6.5,1.88-10.26h-3.18c-9-.29-9-.29-9.68-.72a4.78,4.78,0,0,1,.15-1.45c4.91-3.61,8.38-6.65,9.53-10a8.54,8.54,0,0,0,0-5.06c-.58-2.17-2-4.48-4-7.23a24.47,24.47,0,0,1-3.33-1.88c0-5.34,3.91-12.14,5.06-17.63a14.54,14.54,0,0,1,1.45-.43c1.44,3.18-1.45,10.55-2.32,13.73,0,1.3.15,2.6.15,3.76a14.09,14.09,0,0,1,3,2.89c5.2,6.79,5.35,17.63,5.64,25.44-.87,3-.87,3-2.46,12.28-1.44,1.74-1.59,3.76-1.73,6.07,1.87,1.3,2.31,1.74,4.47,1.74,1.31-2,1.45-4.92,1.45-7.23.29-.14.87-.29,1.3-.43.58,3,.43,7.95,3.61,9.54,8.67-.73,2.75-6.22,2.75-11.13,3.9.86,4.19,5.2,4.91,9.1,2.45-.14,2.45-.14,3.9-.72C183.33,216.78,175.53,213.46,171.77,209.27Zm29.76-14.6A13.78,13.78,0,0,0,199.8,197c-4.34.43-8.53,1.44-12.28.14a10.85,10.85,0,0,1-3-1.73,13,13,0,0,1,.29-2.31c-3.61.43-7.22.72-10.54.86-.44,12.72-.44,12.72,0,13.3a75.09,75.09,0,0,1,10.11,3c1-.58,2.17-1.3,3.18-1.88l1.3-.72h7.66c3-5.21,6.78-5.93,12.42-7.67C206.73,198.14,204.28,195.24,201.53,194.67ZM123,208.83c-.44-.72-4.19-2.17-4.77-3a11.76,11.76,0,0,0-1.16,6.93c-.58,3.62,2.75,1.16,3.9.87,3.9-1,4.63-.29,4.34-1.44C123.38,211.14,125,211.14,123,208.83Z"/><path class="cls-2" d="M145.48,90.45A4.2,4.2,0,0,1,149,87.71a3.39,3.39,0,0,1,1.59.29c1.88.72,2.74,3.18,1.88,5.34A4.43,4.43,0,0,1,149,96.09a7,7,0,0,1-1.74-.29A3.94,3.94,0,0,1,145.48,90.45ZM149,48.39c2.74.58,3.75-.87,5.2-3.47-.15-2.6-.87-6.65-4.19-6.65.29,2.17.58,4.48,1,6.8a7.91,7.91,0,0,1-2,.86,2.24,2.24,0,0,0-1.45,1.16,3.74,3.74,0,0,0,.58,1C148.37,48.25,148.66,48.25,149,48.39Zm-22.68,77.48c-3.18.72-2.31,4-2.31,7.08,2.31,5.64,5.78,10.55,7.22,16.48a2.15,2.15,0,0,0,1,.28l.43-.86c-.28-6.22-.72-10.26-4-15.9C126.85,126.44,126.85,126.44,126.27,125.87Zm27-63c-1.15-.29-2.74.86-3.32,2.74s-.14,3.76,1,4,2.75-.72,3.32-2.6S154.44,63.28,153.28,62.85ZM149,101.29c-2.46,0-5.06-1.3-7.37-4.77-3.76-5.06-.72-10.26.58-15.61-.72,0-1.16-.58-1.73-.58-2.89,6.36-4.05,16.92,2.16,20.53A11.93,11.93,0,0,0,149,103c6.5.58,11.12-5.49,15.31-12.58l-2.17-1C158.77,95.37,153.86,101.15,149,101.29ZM172.5,73.4c-1.16-.58-2.75.29-3.76,2S168,79,169,79.61s2.74-.29,3.75-2S173.51,74,172.5,73.4ZM192,68.48c-2,0-8.67,1.59-6.79,4.63,2.45,0,6.5.29,8.38-1.59C193,70.51,192.58,69.49,192,68.48Zm-32.51,58.25c-.43,2.32-.86,11.13-1.3,12.87-3.46,2.89-4.62,5.92-5.05,10.26,5.92,0,8.23-7.37,9.53-12-.58-3.76-.86-7.51-1.3-11.42A8.16,8.16,0,0,1,159.49,126.73Zm-20.22,24.14c-.72-2.46-1.45-4.91-2.31-7.23H135.8a73.18,73.18,0,0,1,1,14.89,4.09,4.09,0,0,0,1.3-.14,57.4,57.4,0,0,0,4.77-10.55c1.45-1,3-1.88,4.48-2.9v-1.3C142.45,144.37,141,146.25,139.27,150.87Z"/><circle class="cls-4" cx="58" cy="58" r="32"/><path class="cls-5" d="M60,76.48c-.41.45.89,1.45.89,1.45Zm-3.66,4.33a6.11,6.11,0,0,0-3.78-.25l.24.41.61.85.71-.07a2.57,2.57,0,0,1,.94.21,9,9,0,0,1,1.28-1.16m3.88-51.24a1.22,1.22,0,0,0-.33.27,2.21,2.21,0,0,0-.21.5,1.38,1.38,0,0,1-.17.48,1.34,1.34,0,0,1-.36.31c.81.05,1.61.13,2.41.25h0a1.46,1.46,0,0,0,.38-.27,1.33,1.33,0,0,0,.21-.47,3,3,0,0,1,.25-.47,1.78,1.78,0,0,1,.36-.25h0c-.83-.16-1.67-.27-2.52-.35Zm3.25.5a1.43,1.43,0,0,0-.37.23,2.59,2.59,0,0,0-.26.46,1.53,1.53,0,0,1-.23.46,2,2,0,0,1-.39.26A22.93,22.93,0,0,1,64.6,32l0,0a1.47,1.47,0,0,0,.41-.22,1.41,1.41,0,0,0,.27-.43,2.29,2.29,0,0,1,.32-.43,1.54,1.54,0,0,1,.38-.2h0a22.1,22.1,0,0,0-2.45-.67Zm3.15.92a1.38,1.38,0,0,0-.39.18,1.7,1.7,0,0,0-.33.42,1.37,1.37,0,0,1-.29.42,1.65,1.65,0,0,1-.42.21,22.59,22.59,0,0,1,2.25.85h0a1.74,1.74,0,0,0,.45-.17,1.48,1.48,0,0,0,.32-.39,2,2,0,0,1,.37-.39A1.17,1.17,0,0,1,69,32h0c-.75-.37-1.54-.7-2.34-1Zm3,1.32a1.23,1.23,0,0,0-.41.13,2.22,2.22,0,0,0-.38.37,1.24,1.24,0,0,1-.34.38,1.42,1.42,0,0,1-.45.16,21.78,21.78,0,0,1,2.13,1.14v0a1.82,1.82,0,0,0,.46-.11A1.57,1.57,0,0,0,71,34a2.25,2.25,0,0,1,.41-.34,2.07,2.07,0,0,1,.42-.08h0a24.15,24.15,0,0,0-2.19-1.29ZM72.51,34a1.42,1.42,0,0,0-.42.07,2.29,2.29,0,0,0-.43.32,1.41,1.41,0,0,1-.39.34,1.86,1.86,0,0,1-.47.09,20.8,20.8,0,0,1,2,1.41v0a1.48,1.48,0,0,0,.47-.05,1.21,1.21,0,0,0,.41-.3,2.4,2.4,0,0,1,.46-.27,1.26,1.26,0,0,1,.43,0h0c-.64-.54-1.3-1.07-2-1.56Zm2.55,2.06a1.56,1.56,0,0,0-.43,0,2.55,2.55,0,0,0-.46.25,1,1,0,0,1-.9.31A22.88,22.88,0,0,1,75,38.29v0a1.24,1.24,0,0,0,.47,0,1.11,1.11,0,0,0,.45-.25,2.33,2.33,0,0,1,.49-.21,1.54,1.54,0,0,1,.43,0h0c-.56-.63-1.16-1.23-1.78-1.81Zm2.29,2.37a1.26,1.26,0,0,0-.43,0,1.81,1.81,0,0,0-.5.2,1.39,1.39,0,0,1-.46.22,1.83,1.83,0,0,1-.47,0h0A23.06,23.06,0,0,1,77,40.65v0a1.84,1.84,0,0,0,.47.07,1.4,1.4,0,0,0,.48-.18,2.21,2.21,0,0,1,.5-.15,1.56,1.56,0,0,1,.42.08h0c-.48-.7-1-1.37-1.53-2Zm1.78,2.65a1.18,1.18,0,0,0-.42-.1,2.47,2.47,0,0,0-.52.13,1.31,1.31,0,0,1-.48.17,1.46,1.46,0,0,1-.46-.1c.46.67.88,1.36,1.27,2.07v0a1.78,1.78,0,0,0,.45.13,1.25,1.25,0,0,0,.5-.11,1.89,1.89,0,0,1,.53-.08,1.23,1.23,0,0,1,.41.13h0c-.38-.76-.8-1.49-1.25-2.21ZM80.9,44a1.49,1.49,0,0,0-.4-.15,1.88,1.88,0,0,0-.53.06,1.71,1.71,0,0,1-.5.1,1.42,1.42,0,0,1-.45-.16A22,22,0,0,1,80,46v0a1.38,1.38,0,0,0,.43.19,1.2,1.2,0,0,0,.5,0,2.44,2.44,0,0,1,.54,0,1.93,1.93,0,0,1,.38.19h0a25.27,25.27,0,0,0-1-2.36Zm1.12,3a1.68,1.68,0,0,0-.42-.22,2.81,2.81,0,0,0-.58,0,1.7,1.7,0,0,1-.55,0A1.53,1.53,0,0,1,80,46.5c.29.84.55,1.68.76,2.54v0a1.53,1.53,0,0,0,.44.27,1.46,1.46,0,0,0,.55,0,2.78,2.78,0,0,1,.58.06,1.53,1.53,0,0,1,.4.26h0c-.2-.91-.44-1.82-.72-2.7Zm.88,3.29a1.4,1.4,0,0,0-.35-.25,2.34,2.34,0,0,0-.53-.08,1.2,1.2,0,0,1-.5,0,1.62,1.62,0,0,1-.39-.25A24.08,24.08,0,0,1,81.52,52v0a1.43,1.43,0,0,0,.35.3,1.22,1.22,0,0,0,.5.08,3,3,0,0,1,.52.13,1.43,1.43,0,0,1,.32.28h0a23.43,23.43,0,0,0-.31-2.52Zm.23,3.26a1.47,1.47,0,0,0-.32-.29A2.29,2.29,0,0,0,82.3,53a1.24,1.24,0,0,1-.5-.1,1.34,1.34,0,0,1-.36-.31h0A21.56,21.56,0,0,1,81.52,55v0a1.78,1.78,0,0,0,.32.35,1.4,1.4,0,0,0,.49.15,2.34,2.34,0,0,1,.5.19,1.22,1.22,0,0,1,.28.32h0a23.89,23.89,0,0,0,0-2.54Zm0,3.28a1.75,1.75,0,0,0-.28-.33,2,2,0,0,0-.5-.21,1.2,1.2,0,0,1-.48-.17,1.47,1.47,0,0,1-.31-.35,24.08,24.08,0,0,1-.24,2.4v0a1,1,0,0,0,.74.6,1.77,1.77,0,0,1,.47.25,1.24,1.24,0,0,1,.25.35h0a23.67,23.67,0,0,0,.35-2.51ZM82.55,60a1.65,1.65,0,0,0-.22-.36,2.2,2.2,0,0,0-.47-.27,1.47,1.47,0,0,1-.45-.23,1.28,1.28,0,0,1-.25-.4c-.15.8-.33,1.59-.55,2.36v0a1.47,1.47,0,0,0,.22.41,1.41,1.41,0,0,0,.43.27,2.36,2.36,0,0,1,.44.32,1.5,1.5,0,0,1,.19.38h0A22.72,22.72,0,0,0,82.57,60Zm-.85,3.18a2,2,0,0,0-.16-.4,1.9,1.9,0,0,0-.39-.36,1.38,1.38,0,0,1-.4-.32,1.57,1.57,0,0,1-.18-.44c-.3.75-.64,1.48-1,2.2v0a1.69,1.69,0,0,0,.14.45,1.16,1.16,0,0,0,.37.36,3.33,3.33,0,0,1,.36.39,1.44,1.44,0,0,1,.11.42h0c.42-.74.8-1.49,1.15-2.27Zm-1.39,3a1.28,1.28,0,0,0-.13-.42,2.65,2.65,0,0,0-.37-.38,1.12,1.12,0,0,1-.38-.34,1.21,1.21,0,0,1-.15-.44c-.35.72-.73,1.44-1.15,2.13l0,0a1.82,1.82,0,0,0,.11.46,1.4,1.4,0,0,0,.35.38,2.74,2.74,0,0,1,.34.41,2.07,2.07,0,0,1,.08.42h0c.47-.71.89-1.44,1.29-2.19ZM78.6,69a1.2,1.2,0,0,0-.07-.42,2.29,2.29,0,0,0-.32-.43,1.37,1.37,0,0,1-.33-.39,1.18,1.18,0,0,1-.09-.46c-.44.68-.91,1.33-1.41,2h0a1.47,1.47,0,0,0,0,.47,1.25,1.25,0,0,0,.3.42,2.35,2.35,0,0,1,.28.46,1.49,1.49,0,0,1,0,.42h0a23.75,23.75,0,0,0,1.56-2Zm-2,2.64a1.55,1.55,0,0,0,0-.43,2.05,2.05,0,0,0-.25-.46,1.52,1.52,0,0,1-.28-.43,1.89,1.89,0,0,1,0-.47c-.52.61-1.07,1.2-1.65,1.76h0a1.48,1.48,0,0,0,0,.47,1.11,1.11,0,0,0,.25.45,3,3,0,0,1,.21.49,1.55,1.55,0,0,1,0,.43h0a25.33,25.33,0,0,0,1.81-1.78Zm-2.37,2.3a2,2,0,0,0,0-.43A3.07,3.07,0,0,0,74,73a1.15,1.15,0,0,1-.22-.46,1.23,1.23,0,0,1,0-.47c-.6.54-1.22,1-1.87,1.53h0a1.5,1.5,0,0,0-.08.47,1.35,1.35,0,0,0,.18.47,2.38,2.38,0,0,1,.15.5,1.26,1.26,0,0,1-.08.43h0c.7-.47,1.37-1,2-1.53Zm-2.66,1.78a1.43,1.43,0,0,0,.09-.42,2,2,0,0,0-.13-.52,1.36,1.36,0,0,1-.16-.48,1.86,1.86,0,0,1,.09-.47,20.66,20.66,0,0,1-2,1.28h0a1.78,1.78,0,0,0-.13.45,1.25,1.25,0,0,0,.11.5,1.89,1.89,0,0,1,.08.53,1.23,1.23,0,0,1-.13.41h0a25.14,25.14,0,0,0,2.21-1.25ZM68.65,77.2a1.38,1.38,0,0,0,.15-.4,2.33,2.33,0,0,0-.06-.53,1.24,1.24,0,0,1-.1-.5,1.7,1.7,0,0,1,.15-.45,22.85,22.85,0,0,1-2.2,1h0a1.83,1.83,0,0,0-.21.42,1.31,1.31,0,0,0,0,.52,2,2,0,0,1-.06.54,3.29,3.29,0,0,1-.16.44c.79-.28,1.72-.65,2.5-1ZM65.4,78.47a2.81,2.81,0,0,0,.1-.31,2.12,2.12,0,0,0,.07-.45c0-.14-.12-.25-.07-.46a3.16,3.16,0,0,1,.29-.62,19.64,19.64,0,0,0-2.59,1.08l-.33.16a1.45,1.45,0,0,0-.11.5c0,.16,0,.39,0,.55a1.84,1.84,0,0,1-.32.81,9,9,0,0,0,2.59-1Zm-15.94-.34a1.38,1.38,0,0,0,.39-.18,2.36,2.36,0,0,0,.33-.42,1.18,1.18,0,0,1,.29-.42,1.5,1.5,0,0,1,.42-.21,21.69,21.69,0,0,1-2.25-.85l0,0a1.72,1.72,0,0,0-.45.16,1.38,1.38,0,0,0-.32.4,2.72,2.72,0,0,1-.39.37,1.42,1.42,0,0,1-.41.14h0c.75.37,1.54.7,2.34,1Zm-3-1.32a1.23,1.23,0,0,0,.41-.13,2.22,2.22,0,0,0,.38-.37,1.24,1.24,0,0,1,.34-.38,1.7,1.7,0,0,1,.45-.15c-.73-.35-1.44-.73-2.13-1.15v0a2.37,2.37,0,0,0-.46.11,1.37,1.37,0,0,0-.37.35,2.72,2.72,0,0,1-.42.34,1.16,1.16,0,0,1-.42.08h0a24.15,24.15,0,0,0,2.19,1.29ZM43.53,75.1A1.16,1.16,0,0,0,44,75a2.29,2.29,0,0,0,.43-.32,1.23,1.23,0,0,1,.39-.33,1.52,1.52,0,0,1,.47-.1,20.8,20.8,0,0,1-2-1.41v0a1.47,1.47,0,0,0-.47,0,1.35,1.35,0,0,0-.4.31,2.69,2.69,0,0,1-.46.28,1.56,1.56,0,0,1-.43,0h0a25,25,0,0,0,2,1.56Zm-2.54-2a1.55,1.55,0,0,0,.43,0,2.59,2.59,0,0,0,.46-.26,1.3,1.3,0,0,1,.43-.27,1.86,1.86,0,0,1,.47,0A22.91,22.91,0,0,1,41,70.81v0a1.5,1.5,0,0,0-.47,0,1.35,1.35,0,0,0-.46.24,2.05,2.05,0,0,1-.5.22,1.49,1.49,0,0,1-.42,0h0A21.72,21.72,0,0,0,41,73.06Zm-2.05-2.38a1.57,1.57,0,0,0,.43,0,3.07,3.07,0,0,0,.5-.2,1.39,1.39,0,0,1,.46-.22,1.23,1.23,0,0,1,.47,0c-.54-.6-1-1.22-1.53-1.87v0a1.49,1.49,0,0,0-.47-.07,1.18,1.18,0,0,0-.47.18,4.44,4.44,0,0,1-.52.15,1.58,1.58,0,0,1-.42-.09h0c.48.7,1,1.38,1.53,2Zm-2-2.6a1.45,1.45,0,0,0,.41.1,2.21,2.21,0,0,0,.52-.14,1.41,1.41,0,0,1,.49-.16,1.46,1.46,0,0,1,.46.1c-.46-.67-.88-1.35-1.27-2.06v0a1.67,1.67,0,0,0-.45-.13,1.45,1.45,0,0,0-.5.11A1.89,1.89,0,0,1,36,66a1.23,1.23,0,0,1-.41-.13h0c.38.75.8,1.5,1.25,2.21Zm-1.52-2.93a1.38,1.38,0,0,0,.4.15,2.33,2.33,0,0,0,.53-.06,1.24,1.24,0,0,1,.5-.1,1.7,1.7,0,0,1,.45.15,21.8,21.8,0,0,1-1-2.2v0a.92.92,0,0,0-.93-.15,2.36,2.36,0,0,1-.53,0,1.38,1.38,0,0,1-.39-.18h0a25.09,25.09,0,0,0,.95,2.35Zm-1.26-3.06a1.16,1.16,0,0,0,.38.2,2.35,2.35,0,0,0,.53,0,1.42,1.42,0,0,1,.5,0,1.56,1.56,0,0,1,.43.21,23.59,23.59,0,0,1-.7-2.31v0a2.06,2.06,0,0,0-.4-.25,1.41,1.41,0,0,0-.5,0,3.29,3.29,0,0,1-.54,0,1.45,1.45,0,0,1-.35-.24h0q.26,1.24.63,2.46Zm-.74-3.19a1.24,1.24,0,0,0,.35.25,2.34,2.34,0,0,0,.53.08,1.2,1.2,0,0,1,.5,0,1.62,1.62,0,0,1,.39.25,24.08,24.08,0,0,1-.39-2.38v0a1.69,1.69,0,0,0-.36-.3,1.43,1.43,0,0,0-.5-.09,2.19,2.19,0,0,1-.52-.12,1.29,1.29,0,0,1-.33-.28h0a24.07,24.07,0,0,0,.31,2.52Zm-.48-3.25a1.83,1.83,0,0,0,.32.3,3,3,0,0,0,.51.14,1.44,1.44,0,0,1,.5.1,1.55,1.55,0,0,1,.36.31,21.56,21.56,0,0,1-.08-2.41v0a1.56,1.56,0,0,0-.33-.35,1.4,1.4,0,0,0-.49-.15,3,3,0,0,1-.5-.19,1.4,1.4,0,0,1-.27-.33h0a23.93,23.93,0,0,0,0,2.54Zm0-3.28a1.75,1.75,0,0,0,.28.33,2,2,0,0,0,.5.21,1.38,1.38,0,0,1,.48.17,1.73,1.73,0,0,1,.31.35c0-.8.13-1.6.25-2.4v0a1.49,1.49,0,0,0-.28-.38,1.28,1.28,0,0,0-.46-.21,2.34,2.34,0,0,1-.47-.25,1.45,1.45,0,0,1-.25-.36h0A23.5,23.5,0,0,0,33,52.36Zm.57-3.24a1.54,1.54,0,0,0,.23.37,2.59,2.59,0,0,0,.47.29,1.21,1.21,0,0,1,.47.23,1.76,1.76,0,0,1,.27.4,22,22,0,0,1,.56-2.4v0a1.44,1.44,0,0,0-.23-.42,1.37,1.37,0,0,0-.44-.28,2.36,2.36,0,0,1-.44-.32,1.36,1.36,0,0,1-.2-.4h0c-.27.82-.5,1.66-.69,2.5Zm1-3.16a1.38,1.38,0,0,0,.18.39,2.18,2.18,0,0,0,.42.33,1.22,1.22,0,0,1,.42.29,1.5,1.5,0,0,1,.21.42,21.69,21.69,0,0,1,.85-2.25v0a2.2,2.2,0,0,0-.17-.45,1.33,1.33,0,0,0-.38-.33,2.4,2.4,0,0,1-.4-.38,1.53,1.53,0,0,1-.14-.41h0c-.37.77-.71,1.55-1,2.34Zm1.32-3a1.51,1.51,0,0,0,.13.41,2.28,2.28,0,0,0,.38.38,1.52,1.52,0,0,1,.38.34,1.7,1.7,0,0,1,.15.45A21.78,21.78,0,0,1,38,42.41h0a1.47,1.47,0,0,0-.11-.46,1.4,1.4,0,0,0-.35-.38,2.25,2.25,0,0,1-.34-.41,2.07,2.07,0,0,1-.08-.42h0c-.46.71-.89,1.44-1.28,2.19Zm1.7-2.88a1.61,1.61,0,0,0,.07.43,2.65,2.65,0,0,0,.33.42,1.41,1.41,0,0,1,.34.39,1.79,1.79,0,0,1,.09.46,22.72,22.72,0,0,1,1.42-2h0a1.51,1.51,0,0,0,0-.47,1.33,1.33,0,0,0-.29-.41,2,2,0,0,1-.28-.46,1.57,1.57,0,0,1,0-.43h0c-.55.64-1.07,1.31-1.56,2Zm2.06-2.54a1.55,1.55,0,0,0,0,.43,2.13,2.13,0,0,0,.27.46,1.48,1.48,0,0,1,.27.43,1.52,1.52,0,0,1,0,.47h0c.52-.61,1.07-1.2,1.65-1.76h0a1.48,1.48,0,0,0,0-.47,1.24,1.24,0,0,0-.25-.45,3.06,3.06,0,0,1-.22-.49,1.56,1.56,0,0,1,0-.43h0a23.4,23.4,0,0,0-1.81,1.78Zm2.37-2.3a1.56,1.56,0,0,0,0,.43,1.94,1.94,0,0,0,.2.5,1.5,1.5,0,0,1,.22.46,1.83,1.83,0,0,1,0,.47,23.06,23.06,0,0,1,1.87-1.53h0a1.5,1.5,0,0,0,.08-.47,1.35,1.35,0,0,0-.18-.47,2.21,2.21,0,0,1-.15-.5A1.56,1.56,0,0,1,44,33.7h0a25.18,25.18,0,0,0-2,1.54Zm2.65-1.79a1.25,1.25,0,0,0-.08.42,2.33,2.33,0,0,0,.13.52,1.36,1.36,0,0,1,.16.48,1.27,1.27,0,0,1-.09.47,24.07,24.07,0,0,1,2-1.27h0a1.78,1.78,0,0,0,.13-.45,1.25,1.25,0,0,0-.11-.5,1.89,1.89,0,0,1-.08-.53,1.51,1.51,0,0,1,.13-.41h0c-.76.38-1.49.8-2.21,1.25Zm2.88-1.52a1.38,1.38,0,0,0-.15.4,2,2,0,0,0,.07.54.93.93,0,0,1-.06,1c.72-.37,1.45-.7,2.2-1h0a1.38,1.38,0,0,0,.19-.43,1.4,1.4,0,0,0,0-.5,2.37,2.37,0,0,1,0-.53,1.41,1.41,0,0,1,.19-.39h0c-.8.28-1.59.6-2.35,1Zm3.06-1.26a1.52,1.52,0,0,0-.2.38,2.35,2.35,0,0,0,0,.53,1.1,1.1,0,0,1,0,.51,1.56,1.56,0,0,1-.21.43,20.66,20.66,0,0,1,2.32-.7h0a1.41,1.41,0,0,0,.25-.4,1.25,1.25,0,0,0,0-.51,2.33,2.33,0,0,1,.06-.53A1.48,1.48,0,0,1,53,30h0a22.6,22.6,0,0,0-2.45.64Zm3.19-.73a1.48,1.48,0,0,0-.25.35,2.33,2.33,0,0,0-.07.53,1.41,1.41,0,0,1,0,.5,1.62,1.62,0,0,1-.25.39,24.08,24.08,0,0,1,2.38-.39h0a2,2,0,0,0,.29-.36,1.43,1.43,0,0,0,.09-.5,2.31,2.31,0,0,1,.12-.52,1.58,1.58,0,0,1,.29-.34h0c-.83.06-1.67.17-2.52.31ZM57,29.46a1.46,1.46,0,0,0-.3.31,2.35,2.35,0,0,0-.14.52,1.44,1.44,0,0,1-.1.5,1.78,1.78,0,0,1-.32.35c.81-.06,1.61-.09,2.42-.07h0a1.72,1.72,0,0,0,.34-.32,1.31,1.31,0,0,0,.15-.5,2.47,2.47,0,0,1,.19-.5,1.22,1.22,0,0,1,.33-.27h0a23.77,23.77,0,0,0-2.53,0ZM50.88,78s.27,1.36,1.15,1.39a4,4,0,0,1,1.4-1.53l.17-.2A2.35,2.35,0,0,1,54,76l-.5.12a4.37,4.37,0,0,0-2.6,2ZM52.5,82.6a1.07,1.07,0,0,0,.42-.28h0a2.55,2.55,0,0,1-1-2.09c-1.13-.13-1.39-1.41-1.39-1.41h0A4.22,4.22,0,0,0,51,82.6h0a3.79,3.79,0,0,0,1.5,0m2.45.22a2.89,2.89,0,0,1-.5,0,2.77,2.77,0,0,1-.9-.18h0c-.25.77-2,.6-2,.6a4.38,4.38,0,0,0,2.37,1.18h0s1-.21,1-1.64Zm.56-.21a1.64,1.64,0,0,1-.59,1.88c1.41.36,3-1.14,3-1.14a5.43,5.43,0,0,0-1.66-.57l-.75-.17,0,0Zm4.67-.33A7.43,7.43,0,0,0,57.28,81l-1.53,1.09,1.85.61c.56.15.71.42,1.41.87,0,0,1.64-.94,1.17-1.32m3.18,1.57a2.8,2.8,0,0,1-1-1.2,3.21,3.21,0,0,1-1.5-.07C61,83.05,59.6,84,59.6,84a3.6,3.6,0,0,0,2.15.54,2.7,2.7,0,0,0,1.6-.64M60.9,77.94c.71-.58,1.33-.81,1.8-.66a18.58,18.58,0,0,1,1.91-.77,2.66,2.66,0,0,0-2.42-.82,5,5,0,0,0-2.29.93Zm-.52.35s-1.07-.91-.86-1.55c-1.2,1.06-1.69,1.58-2.68,1.58-.25.05,0,0,0,0a1.57,1.57,0,0,0-.25.5,1.65,1.65,0,0,0-.11.45,3.25,3.25,0,0,0,0,.54,4,4,0,0,0,2-.17,4.23,4.23,0,0,0,1.35-.89c.12-.11.45-.36.56-.47M56,79.89s-.12,0,0-.64a3,3,0,0,1,.16-.45,1.57,1.57,0,0,1,.25-.48h0l-.3,0a17.1,17.1,0,0,1-2-.3h0a1.51,1.51,0,0,0-.67.44c-.07.15-.21.19-.3.29l-.29.35h0a9.26,9.26,0,0,0,3.15.77M55,76.1s-.89,1.1-.53,1.48a2.78,2.78,0,0,1,1,0,3.19,3.19,0,0,1,1.11.18l.25.09a2,2,0,0,0,.91-.38l.43-.34A3.06,3.06,0,0,0,55.58,76c-.18,0-.45,0-.58.15Zm-4,7.19a2.57,2.57,0,0,1-1-1.52,2.39,2.39,0,0,0-.37.15l.1-.07a3,3,0,0,0-.78.59c-.18.19-.51.62-.89,1.09h0c.89-.77,2,.55,2,.55v0l.35-.35a6.36,6.36,0,0,1,.57-.46m-2.28,2.1.86-.83a1.45,1.45,0,0,0-2.1-.31Zm-.52.52.15-.18-1.13-1.1-.16.18ZM46.75,85a6,6,0,0,0-.65.47L47.38,87l.53-.8Zm19.92,1.54.5.81,1.33-1.44a6,6,0,0,0-.63-.5Zm.86-1.33-.17-.17-1.19,1.05.17.17Zm-.35-.61a1.45,1.45,0,0,0-2.12.23l.84.87ZM65,82.15a1.71,1.71,0,0,0-2.33.35A5.26,5.26,0,0,1,64.36,84l.23.39v0s1.18-1.28,2-.47h0c-.36-.48-.68-.91-.86-1.1a5.08,5.08,0,0,0-.75-.64M59.23,79.7c-.13,0,.8.38,2.29.17v0a1.66,1.66,0,0,0,.25-.34,2.31,2.31,0,0,0,.16-.57,3.18,3.18,0,0,0,.06-.43,1.51,1.51,0,0,1,.07-.37c-.16.08-1.05.38-1.05.38l-.41.09a3.81,3.81,0,0,0-.35.32l-.44.36c-.09.08-.55.36-.6.41m6.34,2.09a2.89,2.89,0,0,0,.36-2.89l-1.81.83a1,1,0,0,1-.21,1.18s1.75.76,1.66.88m-3.5.46s1.22-1.14,2-.78l-.17-.16a4.21,4.21,0,0,0-2.39-.85c-.75,0-2.07.2-2.37.69a4,4,0,0,1,1.85.94c.06.07.36,0,1.09.16"/><path class="cls-5" d="M43.4,54.1l.72-1.45,1.61.25-1.16-1.15.73-1.45-1.44.75L42.7,49.91l.27,1.6-1.44.75,1.6.25Zm11.12,4.22h-.14a25.25,25.25,0,0,0-2.88.4c-.47-1.85-1.81-4.22-4.11-3.88-2,.28-2.8,2.3-2.32,4.1-2.81.39-5.18-1.89-5.75-4.48a6.34,6.34,0,0,1,6.07-7.78c5.75,0,8.84,7.58,9,11.63m18.3-4.2L73,52.5l1.61-.25-1.44-.75.26-1.6-1.16,1.16-1.44-.75.72,1.45L70.38,52.9,72,52.65Zm-11,4.29c.19-4,3.29-11.63,9-11.63a6.35,6.35,0,0,1,6.07,7.77c-.57,2.59-2.93,4.87-5.75,4.48.48-1.8-.35-3.82-2.32-4.1-2.3-.34-3.64,2-4.11,3.86a29,29,0,0,0-2.89-.37ZM58.07,61c3.71,0,6.7-.35,6.7-.58s-3-.6-6.72-.6-6.72.37-6.72.6,3,.58,6.75.58m0,.84c-4.29,0-7.77-.64-7.77-1.42S53.75,59,58.05,59s7.77.64,7.77,1.42-3.48,1.41-7.77,1.41m6.41.25a3.13,3.13,0,0,0,4.62,2.52,3.49,3.49,0,0,1-3.3,3.25c-2.41,0-3.82-3.68-4-5.38h0a24.91,24.91,0,0,0,2.71-.39Zm-10,.39c-.17,1.69-1.58,5.42-4,5.42a3.47,3.47,0,0,1-3.29-3.25,3.13,3.13,0,0,0,4.63-2.56v0a26.83,26.83,0,0,0,2.69.4Zm3.6-27.54a27.42,27.42,0,0,0,3.1,2.69,9.21,9.21,0,0,1,3.91,7.1c0,4.41-3.68,8.28-4.14,13.6a21.32,21.32,0,0,0-2.4-.13c.1-5.4-.11-12.72-.47-18-.37,5.28-.57,12.6-.48,18a21.14,21.14,0,0,0-2.39.13C54.72,53,51,49.13,51,44.72a9.17,9.17,0,0,1,3.91-7.1,26.68,26.68,0,0,0,3.11-2.69m0,37.85A10.74,10.74,0,0,1,52.94,68a12.13,12.13,0,0,0,2.19-5.4c.75.06,1.57.09,2.4.09a43.35,43.35,0,0,0,.52,6.13,42,42,0,0,0,.51-6.13c.84,0,1.65,0,2.41-.09A12.13,12.13,0,0,0,63.16,68a10.65,10.65,0,0,1-5.11,4.82"/><path class="cls-4" d="M223.64,256H32.52A32.49,32.49,0,0,1,0,223.61V32.38A32.49,32.49,0,0,1,32.52,0H223.64A32.41,32.41,0,0,1,256,32.38V223.61A32.41,32.41,0,0,1,223.64,256ZM32.52,17.07A15.4,15.4,0,0,0,17.06,32.38V223.61a15.4,15.4,0,0,0,15.46,15.32H223.64a15.52,15.52,0,0,0,15.3-15.32V32.38a15.51,15.51,0,0,0-15.3-15.31Z"/></svg>