<svg id="Capa_1" data-name="Capa 1" xmlns="http://www.w3.org/2000/svg" viewBox="0 0 256 192"><defs><style>.cls-1{fill:#c51a27;}.cls-2{fill:#e10613;}.cls-3{fill:#1d1d1b;}.cls-4{fill:#ffd400;}</style></defs><title>distintivo-seccion</title><rect class="cls-1" width="256" height="192"/><polygon class="cls-2" points="159.87 8.79 134.46 73.47 10.37 168.23 10.37 183.2 40.19 183.2 153.28 96.53 245.63 84.73 245.63 58.49 165.38 68.56 188.73 8.79 159.87 8.79"/><path class="cls-3" d="M42.2,188.75H4.62V165.54l125-95.47L155.91,3.25h41.14L174.14,61.87l77.24-9.69V89.59l-95.76,12.23Zm-26.07-11.1H38.18L151,91.23l88.92-11.36V64.81L156.61,75.26l23.81-60.92H163.84L139.27,76.87l-123.14,94Z"/><rect class="cls-4" width="256" height="16"/><rect class="cls-4" y="176" width="256" height="16"/><path class="cls-3" d="M132.43,103.44A25.9,25.9,0,0,1,129,103a11.64,11.64,0,0,1-3-.87,21.76,21.76,0,0,1-3.67-2.34,25.39,25.39,0,0,1-4.17-4.51q-5.93-7.69-10-13.08-3.27-4.31-7.88-10.23A49.26,49.26,0,0,0,105,70a28.46,28.46,0,0,0,7-4.67,19.59,19.59,0,0,0,5-7.16A24.18,24.18,0,0,0,118.78,49a19.63,19.63,0,0,0-2.56-10.18,20.16,20.16,0,0,0-6.75-6.87,30.6,30.6,0,0,0-9.29-3.74A48.49,48.49,0,0,0,89.6,27.05H48.27v9.31l2.63.19a35.49,35.49,0,0,1,3.69.5,23.77,23.77,0,0,1,3.33.8,2,2,0,0,1,1.1.71,7.19,7.19,0,0,1,.4,2.57V99.27a5,5,0,0,1-.43,2.32,2.33,2.33,0,0,1-1.21,1,11.46,11.46,0,0,1-2.9.52c-1.74.18-3.08.32-4,.39l-2.62.2V113H89.21v-9.43l-2.75-.08c-1.13,0-2.53-.16-4.18-.37a16.31,16.31,0,0,1-3-.57c-.37-.15-1-.44-1.18-.8a6.23,6.23,0,0,1-.42-2.43V76.51h4.3c4.32,5.38,8.39,10.68,12.13,15.78,3.93,5.36,8.43,11.89,13.4,19.39l.83,1.27h26.87v-9.41ZM77.64,66.15v-29h7.14c4.54,0,7.89,1.13,10.25,3.45s3.54,5.49,3.54,9.65c0,5-1.48,8.8-4.54,11.63a16.19,16.19,0,0,1-11.54,4.24Z"/><path class="cls-4" d="M136.48,107.2a25.9,25.9,0,0,1-3.44-.41,11.41,11.41,0,0,1-3-.87,21.76,21.76,0,0,1-3.67-2.34,24.69,24.69,0,0,1-4.17-4.51q-5.92-7.69-10-13.07-3.27-4.32-7.88-10.24c1.67-.6,3.27-1.26,4.78-2a28.77,28.77,0,0,0,7-4.68,19.74,19.74,0,0,0,5.05-7.16,24.15,24.15,0,0,0,1.67-9.23,19.63,19.63,0,0,0-2.55-10.18,20.16,20.16,0,0,0-6.75-6.87,30.37,30.37,0,0,0-9.29-3.73,48.35,48.35,0,0,0-10.58-1.12H52.32v9.31l2.63.19a35,35,0,0,1,3.68.5,23.62,23.62,0,0,1,3.34.8,2,2,0,0,1,1.1.71,7.25,7.25,0,0,1,.41,2.57V103a5.08,5.08,0,0,1-.44,2.32,2.19,2.19,0,0,1-1.22,1,11.15,11.15,0,0,1-2.89.52q-2.61.29-4,.39l-2.62.2v9.3H93.26v-9.42l-2.76-.09c-1.13,0-2.53-.16-4.17-.37a15.28,15.28,0,0,1-3-.58c-.37-.13-1-.42-1.17-.79a6.19,6.19,0,0,1-.42-2.43V80.27H86C90.3,85.65,94.38,91,98.12,96.05c3.93,5.36,8.43,11.89,13.4,19.4l.84,1.26h26.86V107.3ZM81.69,40.94h7.14c4.54,0,7.89,1.13,10.25,3.45s3.54,5.49,3.54,9.65c0,5-1.48,8.8-4.54,11.63a16.19,16.19,0,0,1-11.54,4.24H81.69Z"/><path class="cls-3" d="M212,129a21.32,21.32,0,0,0-4.47-7.1l0,0a29,29,0,0,0-6.3-4.86,65.71,65.71,0,0,0-7.09-3.49c-2.57-1.09-5.32-2.15-8.2-3.15-2.68-.94-5.43-2.06-8.18-3.33a15.62,15.62,0,0,1-6.25-4.75,11.55,11.55,0,0,1-2-7,8.15,8.15,0,0,1,3-6.42,11,11,0,0,1,7.6-2.74,15.84,15.84,0,0,1,7.55,1.61,16.16,16.16,0,0,1,5.26,4.46,28,28,0,0,1,3.83,6.93c1,2.7,2,5.58,2.84,8.55l.57,2H210l-.56-32.17H200.3l-1.8,2.86a55.41,55.41,0,0,0-6.29-2.8,33.66,33.66,0,0,0-22,0,28.14,28.14,0,0,0-9,5.14,25.45,25.45,0,0,0-6.19,8,22.06,22.06,0,0,0-2.21,9.72c0,5.91,1.51,10.83,4.5,14.6a30.37,30.37,0,0,0,12,8.86c2.52,1.1,5.45,2.26,8.7,3.43s6.17,2.25,8.69,3.22a14.6,14.6,0,0,1,7.08,5.28,13,13,0,0,1,2.36,7.5,14.64,14.64,0,0,1-.74,4.9,9.07,9.07,0,0,1-2.16,3.4,9.66,9.66,0,0,1-3.81,2.21,19.15,19.15,0,0,1-6.13.87,18.68,18.68,0,0,1-8.21-1.69,20.48,20.48,0,0,1-6.28-4.68,29.21,29.21,0,0,1-4.76-7,57.46,57.46,0,0,1-3.28-8.8l-.58-2h-9.85l1,33h9.08l2-3.19a51.33,51.33,0,0,0,7.75,3,41.44,41.44,0,0,0,12,1.8c8.74,0,16.19-2.56,22.15-7.6a24.67,24.67,0,0,0,9.14-19.62A25.16,25.16,0,0,0,212,129Z"/><path class="cls-4" d="M208,125.12A21.5,21.5,0,0,0,203.5,118l0,0a29,29,0,0,0-6.3-4.86,66.77,66.77,0,0,0-7.1-3.49c-2.6-1.1-5.36-2.16-8.19-3.15s-5.45-2.07-8.18-3.33a15.8,15.8,0,0,1-6.26-4.75,11.56,11.56,0,0,1-2-7.06,8.17,8.17,0,0,1,3-6.41,11,11,0,0,1,7.61-2.74,15.87,15.87,0,0,1,7.55,1.61,16.21,16.21,0,0,1,5.25,4.46,28,28,0,0,1,3.84,6.94c1,2.7,2,5.57,2.83,8.54l.57,2h9.83l-.57-32.17h-9.11l-1.79,2.86a54.6,54.6,0,0,0-6.29-2.79,33.5,33.5,0,0,0-22,0,28.4,28.4,0,0,0-9,5.15A25,25,0,0,0,151,86.71a21.85,21.85,0,0,0-2.22,9.73c0,5.92,1.51,10.83,4.49,14.6a30.49,30.49,0,0,0,12,8.86c2.53,1.11,5.46,2.27,8.71,3.43s6.17,2.25,8.69,3.22a14.42,14.42,0,0,1,7.08,5.28,13.07,13.07,0,0,1,2.35,7.5,14.48,14.48,0,0,1-.75,4.91,9,9,0,0,1-2.13,3.38,9.53,9.53,0,0,1-3.81,2.22,19.32,19.32,0,0,1-6.15.87,18.74,18.74,0,0,1-8.21-1.69,20.2,20.2,0,0,1-6.27-4.68,29.5,29.5,0,0,1-4.77-7,56.42,56.42,0,0,1-3.28-8.79l-.58-2h-9.84l1,33h9.1l1.94-3.19a52.16,52.16,0,0,0,7.75,3,42.06,42.06,0,0,0,12,1.79c8.74,0,16.2-2.56,22.14-7.6a24.66,24.66,0,0,0,9.14-19.62A25,25,0,0,0,208,125.12Z"/></svg>