<svg id="Capa_1" data-name="Capa 1" xmlns="http://www.w3.org/2000/svg" viewBox="0 0 256 192"><defs><style>.cls-1{fill:#f18f53;}.cls-2{fill:#e30521;}.cls-3{fill:#ad0d41;}.cls-4{fill:#1d1d1b;}.cls-5{fill:#ffdc00;}.cls-6{fill:#e3e3e2;}</style></defs><title>enlace</title><rect class="cls-1" width="256" height="192"/><path class="cls-2" d="M8.38,47.22C28.17,36.38,42.28,27.71,77,20.85c37.69-7.45,92.81-7.63,136.27,17,62.27,35.31,53.06,91-5.67,119.15-38.79,18.57-106.87,24.24-150.47,12.16-17-4.71-59-24.54-45.42-51.07C28.18,86,103.16,48.4,145.16,59.75c24.66,6.67,45.88,37.45,31.23,58.36-20.89,29.81-83.33,13-45.43-19.45-13.68,2.93-48.28,12.22-42.58,26.75,15.68,40,107.42,19,113.56-19.45C211.55,45.78,128,35.57,79.86,47.6c-28.49,7.11-48.92,19-70.52,34.46-13,9.29-11.58-29-1-34.84" transform="translate(0)"/><polygon class="cls-3" points="99.09 80.14 85.55 114.71 19.21 165.41 19.21 173.4 35.12 173.4 95.61 127.04 144.95 120.77 144.95 106.71 102.05 112.14 114.56 80.14 99.09 80.14"/><path class="cls-4" d="M100.59,82.24l-13,33.21-.21.54-.47.36L21.37,166.42v4.89h13L94.26,125.4l.47-.36.6-.07,47.45-6v-9.85l-40.45,5.12-3.58.46L100,111.4l11.41-29.16ZM83.73,113.43l13.34-34,.53-1.36h20.1l-1.11,2.83-11.23,28.74,39.31-5,2.46-.31V122.6l-1.89.24L96.5,129l-60,46-.6.46H17V164.39l.82-.62Z" transform="translate(0)"/><path class="cls-4" d="M84.44,129.21a12.25,12.25,0,0,1-1.56-.18,5.07,5.07,0,0,1-1.18-.33,9.66,9.66,0,0,1-1.63-1,11.39,11.39,0,0,1-1.88-2.05c-2-2.61-3.7-4.82-5.09-6.65-.85-1.12-1.83-2.39-2.94-3.83l.88-.41a16,16,0,0,0,3.89-2.59,11.4,11.4,0,0,0,2.9-4.11,13.61,13.61,0,0,0,1-5.2A11.25,11.25,0,0,0,77.29,97,11.52,11.52,0,0,0,73.41,93,16.85,16.85,0,0,0,68.28,91a25.83,25.83,0,0,0-5.68-.6H40.24v7.28l2.58.18c.47,0,1,.12,1.73.24a11.65,11.65,0,0,1,1.34.31,3.38,3.38,0,0,1,0,.47v29.57c0,.24,0,.39,0,.45a10.13,10.13,0,0,1-1.1.17l-2,.19-2.56.2v7.27h23.5V129.3l-2.7-.09a19.66,19.66,0,0,1-2-.18,8.78,8.78,0,0,1-1.17-.2,2.67,2.67,0,0,1,0-.42V118.15h.21c2,2.55,4,5.07,5.73,7.48,2,2.75,4.29,6.05,6.78,9.81l.82,1.25H87.12v-7.38ZM57.85,98.15h2.3a5.83,5.83,0,0,1,4.27,1.37,5.3,5.3,0,0,1,1.4,4,6.37,6.37,0,0,1-1.88,5,7,7,0,0,1-5,1.8H57.85Z" transform="translate(0)"/><path class="cls-4" d="M126.08,143.1a12.29,12.29,0,0,0-2.57-4.09,15.79,15.79,0,0,0-3.5-2.69,32.64,32.64,0,0,0-3.75-1.85c-1.37-.59-2.79-1.13-4.26-1.64-1.32-.46-2.67-1-4-1.64a6.7,6.7,0,0,1-2.66-2,4.64,4.64,0,0,1-.76-2.81,2.85,2.85,0,0,1,1.08-2.29,4.26,4.26,0,0,1,3-1A6.21,6.21,0,0,1,114,125.6a13,13,0,0,1,1.77,3.2c.52,1.34,1,2.76,1.4,4.23l.56,2h7.38l-.34-19h-6.69l-.66,1.06c-.71-.33-1.46-.65-2.23-.93a18.36,18.36,0,0,0-12.14,0,15.85,15.85,0,0,0-5,2.87,14.33,14.33,0,0,0-3.47,4.46A12.51,12.51,0,0,0,93.38,129a13,13,0,0,0,2.56,8.23,16.74,16.74,0,0,0,6.63,4.89q1.91.84,4.52,1.79c1.66.59,3.12,1.14,4.4,1.63a6,6,0,0,1,3,2.18,5.36,5.36,0,0,1,1,3.09,6,6,0,0,1-.31,2.06,3.23,3.23,0,0,1-.78,1.23,3.69,3.69,0,0,1-1.42.81,9.62,9.62,0,0,1-6.27-.35,9.26,9.26,0,0,1-2.79-2.08,13.8,13.8,0,0,1-2.21-3.26,27.69,27.69,0,0,1-1.59-4.27l-.57-2H92.1l.58,19.44h6.68l.76-1.25a28.19,28.19,0,0,0,3,1.08,22.36,22.36,0,0,0,6.5,1A18.19,18.19,0,0,0,121.78,159a13.79,13.79,0,0,0,5.12-11A14,14,0,0,0,126.08,143.1Z" transform="translate(0)"/><path class="cls-5" d="M87.24,134.3a15.08,15.08,0,0,1-1.89-.22,6.93,6.93,0,0,1-1.82-.54,11.74,11.74,0,0,1-2-1.3,13.2,13.2,0,0,1-2.3-2.47c-2-2.62-3.71-4.83-5.09-6.65s-2.92-3.82-4.85-6.28a24.49,24.49,0,0,0,3.63-1.4,13.78,13.78,0,0,0,3.33-2.21,9.17,9.17,0,0,0,2.32-3.29,11.54,11.54,0,0,0,.77-4.34,9.09,9.09,0,0,0-1.16-4.69A9.25,9.25,0,0,0,75,97.76,14.24,14.24,0,0,0,70.64,96a22.91,22.91,0,0,0-5.15-.55h-20v2.84l.39,0a19.21,19.21,0,0,1,2,.27,13.6,13.6,0,0,1,1.87.45,1.8,1.8,0,0,1,1.16.95,4.58,4.58,0,0,1,.27,1.64V131.2a3.38,3.38,0,0,1-.35,1.64,2.12,2.12,0,0,1-1.1.92,6.79,6.79,0,0,1-1.77.34c-.91.1-1.6.16-2.07.2l-.39,0v2.84H64.27v-2.86h-.41a21.25,21.25,0,0,1-2.23-.2,9.51,9.51,0,0,1-1.79-.35,1.87,1.87,0,0,1-1.16-.94,4,4,0,0,1-.3-1.61V118.64H62.1c2.28,2.83,4.47,5.67,6.5,8.44s4.34,6.12,6.84,9.9l.13.19H87.64v-2.85Zm-16.16-28a8.59,8.59,0,0,1-2.62,6.62,9.36,9.36,0,0,1-6.59,2.44H58.38V98.63H63A8.19,8.19,0,0,1,69,100.69,7.53,7.53,0,0,1,71.08,106.28Z" transform="translate(0)"/><path class="cls-5" d="M120.9,141.12a10,10,0,0,0-2.06-3.26,13.58,13.58,0,0,0-3-2.29,31.42,31.42,0,0,0-3.49-1.71c-1.3-.56-2.68-1.09-4.1-1.58a45.86,45.86,0,0,1-4.26-1.73,9.11,9.11,0,0,1-3.61-2.76,6.94,6.94,0,0,1-1.22-4.2,5.14,5.14,0,0,1,1.89-4,6.81,6.81,0,0,1,4.62-1.68,9.12,9.12,0,0,1,4.38,1,9.33,9.33,0,0,1,3,2.57,15.24,15.24,0,0,1,2.1,3.78c.53,1.39,1,2.88,1.46,4.44l.07.24h3l-.25-14.23H116.6l-1.14,1.83a25.4,25.4,0,0,0-4-1.87,15.29,15.29,0,0,0-5.36-.89,15,15,0,0,0-5,.87A13.17,13.17,0,0,0,96.84,118,11.71,11.71,0,0,0,94,121.68a10.1,10.1,0,0,0-1,4.5A10.64,10.64,0,0,0,95,133a14.41,14.41,0,0,0,5.7,4.18c1.24.54,2.7,1.12,4.36,1.72s3.15,1.15,4.45,1.64a8.52,8.52,0,0,1,4.11,3.1A7.65,7.65,0,0,1,115,148a8.49,8.49,0,0,1-.44,2.85A5.57,5.57,0,0,1,113.2,153a6,6,0,0,1-2.36,1.39,11,11,0,0,1-3.49.5,10.56,10.56,0,0,1-4.67-1,11.6,11.6,0,0,1-3.53-2.63,16.06,16.06,0,0,1-2.59-3.83,29.65,29.65,0,0,1-1.73-4.63l-.07-.25h-3l.44,14.68h2.92l1.21-2a23.37,23.37,0,0,0,4.68,1.93,20.29,20.29,0,0,0,5.78.86,15.86,15.86,0,0,0,10.54-3.59,11.58,11.58,0,0,0,4.27-9.19A11.77,11.77,0,0,0,120.9,141.12Z" transform="translate(0)"/><path class="cls-6" d="M154.7,116a.08.08,0,0,1,0,0,.63.63,0,0,1,0,.3l0,.07,0,.07-.06.1-.16-.19-.19-.21h0A2,2,0,0,1,154,116a.59.59,0,0,1-.07-.14h0a.11.11,0,0,1,0-.08h0s0,0,0,0a.29.29,0,0,1,.12-.07h.07l.13,0,.18.1a.75.75,0,0,1,.23.25h0A.14.14,0,0,1,154.7,116Zm25.14,11.34,0,0,0,0a1,1,0,0,0-.41-.15l-.3-.06-.17.82.25,0,.35,0a.41.41,0,0,0,.21,0h0l0,0,0,0a.37.37,0,0,0,.12-.2h0a.07.07,0,0,1,0,0v0a.44.44,0,0,0-.07-.22Zm49.32-10.1a2.35,2.35,0,0,0-.44-.78,2.64,2.64,0,0,0-.41-.41.83.83,0,0,0-.38-.18.73.73,0,0,0-.36,0,1,1,0,0,0-.36.18,1,1,0,0,0-.26.27.75.75,0,0,0-.1.34h0v.11s0,.07,0,.11a2,2,0,0,0,.4.72,2.68,2.68,0,0,0,.43.45,1.21,1.21,0,0,0,.39.2h.21a1,1,0,0,0,.51-.19h0a.39.39,0,0,0,.1-.08.3.3,0,0,0,.08-.08.71.71,0,0,0,.2-.45h0a.38.38,0,0,0,0-.1A.52.52,0,0,0,229.16,117.27Zm-13.74,6h0l0-.07-.06-.06a.53.53,0,0,0-.25-.16H215a1,1,0,0,0-.35.08l-.18.1a.58.58,0,0,0-.08.1h0v0a0,0,0,0,1,0,0,.21.21,0,0,0,0,.13l0,0,.07,0h.16l.34-.06h0l.28,0,.25,0-.06-.09Zm-28.21,5h0a.4.4,0,0,0-.16-.08,1.44,1.44,0,0,0-.33-.05l-.56,0,0,.74.53,0h.06a1.77,1.77,0,0,0,.33,0h.06a.25.25,0,0,0,.12-.08h0l0,0v0a.38.38,0,0,0,.05-.15.39.39,0,0,0,0-.16A.21.21,0,0,0,187.21,128.26Zm51.68-24.9c-.18,3.14-.95,6.24-2.9,8.3l2.4,4.76a.94.94,0,0,1,.1.31h0a1,1,0,0,1-.33.9c-10.28,9.36-21.68,15.27-33.4,17.85a63,63,0,0,1-6.89,1.13c-1.57.17-3.14.26-4.72.32a3,3,0,0,1,.12.32,1.43,1.43,0,0,1,.29,0,1.51,1.51,0,0,1,1,.44,2.34,2.34,0,0,1,.56.94,3.63,3.63,0,0,1,.17,1.11,3.75,3.75,0,0,1-1.05,2.67h0c-.18.17-.38.35-.6.52s-.45.33-.69.48l-.14.09c0,.22,0,.44-.08.64s-.1.58-.16.88c-.33,1.72-.91,3-1.73,3-.64,0-1-.59-1.29-1.53a15.74,15.74,0,0,1-.38-1.83h-.52a2.25,2.25,0,0,1-1.26-.43,2,2,0,0,1-.65-.72h0a1.87,1.87,0,0,1-.25-1,2.1,2.1,0,0,1,.37-1.13,4.17,4.17,0,0,1-.45-1.14,2.69,2.69,0,0,1,0-1.38,2.42,2.42,0,0,1,.86-1.27,3.64,3.64,0,0,1,1.15-.57s0,0,0-.06,0-.08.05-.13c-1.58-.05-3.15-.14-4.71-.31a62.77,62.77,0,0,1-6.9-1.13c-11.72-2.58-23.12-8.49-33.39-17.85a1,1,0,0,1-.34-.9h0a1.24,1.24,0,0,1,.1-.31l2.4-4.76c-1.95-2.06-2.71-5.16-2.89-8.3a42.91,42.91,0,0,1,.53-8.56l.43-2.83,1.61,2.41h0c2.46,3.69,8,5.89,12.19,7.53,3.42,1.35,6,2.38,6,4.1a2,2,0,0,1-.52,1.55l-3,4.79A86.42,86.42,0,0,0,170.8,118a50.57,50.57,0,0,0,20,4.37l-11.31-7.63,5.27-11.19-1.26-.13-6.84,9.13-6.79-8.73,6.42-2c-1.21-.52-1.9-1.11-1.9-1.74s.82-1.32,2.22-1.87c-3.37-11.86-5.63-13.49-10.14-13.49-5.09,0-6.79,12.55-18.11,12.55,3.4-9.82,3.4-15.28-3.4-22.92-5.66-6.55,0-19.65,10.76-19.65,14.67,0,25.17,29.18,27,42.13l1.78-.2c-5.3-36.52-30.24-42.16,6.33-80.13,36.57,38,11.62,43.61,6.32,80.13l1.78.2c1.82-13,12.31-42.13,27-42.13,10.75,0,16.41,13.1,10.75,19.65-6.79,7.64-6.79,13.1-3.4,22.92-11.32,0-13-12.55-18.11-12.55-4.5,0-6.77,1.63-10.14,13.49,1.4.55,2.22,1.19,2.22,1.87s-.69,1.22-1.9,1.74l6.43,2L205,112.51l-6.84-9.13-1.26.13,5.27,11.19-11.32,7.63a50.54,50.54,0,0,0,20-4.37,86.42,86.42,0,0,0,10.74-5.61l-3-4.79a2,2,0,0,1-.53-1.55c0-1.72,2.61-2.75,6-4.1,4.16-1.64,9.73-3.84,12.2-7.53h0L237.92,92l.43,2.83A42.84,42.84,0,0,1,238.89,103.36ZM156.4,116.75a1.38,1.38,0,0,0-.05-.67,2.22,2.22,0,0,0-.62-.89l-.19-.16-.22-.17a5.13,5.13,0,0,0-.62-.39,2.61,2.61,0,0,0-.56-.21,2.35,2.35,0,0,0-.51-.06,1.79,1.79,0,0,0-.46.09,1.59,1.59,0,0,0-.54.31l-.08.08-.08.1h0a1.52,1.52,0,0,0-.27.54,1.47,1.47,0,0,0,0,.59,2.55,2.55,0,0,0,.28.66,7.47,7.47,0,0,0,.57.75,3.68,3.68,0,0,1,.32.4.66.66,0,0,1,.12.24.33.33,0,0,1,0,.2l0,0,0,0h0a.25.25,0,0,1-.1.08.31.31,0,0,1-.17,0,.33.33,0,0,1-.19,0,.6.6,0,0,1-.22-.12.74.74,0,0,1-.29-.36.24.24,0,0,1,0-.08.28.28,0,0,1,0-.09h0v0a.71.71,0,0,1,.07-.29l0-.08,0-.08h0l0,0,.06-.11-.11-.07-1.26-.81-.12-.08-.08.12a2.34,2.34,0,0,0-.31.69,2.23,2.23,0,0,0,0,.73,1.62,1.62,0,0,0,.37.76,4.29,4.29,0,0,0,.84.77,4.12,4.12,0,0,0,.85.48l.16,0,.16.05a2.05,2.05,0,0,0,.55,0,1.84,1.84,0,0,0,.52-.1,1.88,1.88,0,0,0,.64-.38l.1-.1.09-.11h0a1.55,1.55,0,0,0,.28-.54l0-.12a.37.37,0,0,0,0-.11h0a1.26,1.26,0,0,0,0-.43,2.36,2.36,0,0,0-.17-.46,4.76,4.76,0,0,0-.57-.81l.09,0,1.25.8.12.08.08-.12A2.19,2.19,0,0,0,156.4,116.75Zm4.38,2,.07-.12-.12-.07-1.37-.79-.12-.07-.07.12-2.65,4.25-.07.12.12.07,1.37.79.12.07.07-.12Zm6.55,3.28-.13-.06-3.79-1.87-.13-.06-.06.12-2.34,4.42-.06.12.12.06,3.87,1.9.12.06.07-.12.53-1,.06-.12-.13-.06-2.32-1.14.34-.63,2.07,1,.13.06.07-.12.47-.9.07-.12-.13-.06-2.08-1,.25-.46,2.24,1.1.13.07.06-.13.5-.94Zm7.89,2.84-.14,0-2-.66-.1,0-.06.09-1.48,2.16.21-2.58v-.11l-.1,0-2-.66-.13,0,0,.12-1.67,4.7,0,.13.14,0,1.23.41.13,0,0-.13.92-2.55-.24,2.81v.11l.1,0,1.12.37.1,0,.06-.09,1.61-2.36-.91,2.56,0,.13.13,0,1.23.41.13,0,.05-.13,1.67-4.69ZM181.7,128a1.65,1.65,0,0,0,0-1c0-.06-.05-.11-.07-.16a1.4,1.4,0,0,0-.1-.16h0a1.74,1.74,0,0,0-.82-.56l-.22-.07-.24,0-2.59-.48-.14,0,0,.13-1,4.87,0,.14.14,0,1.57.3.14,0,0-.13.34-1.67.72.13a3,3,0,0,0,.88.05,1.65,1.65,0,0,0,.71-.22,1.44,1.44,0,0,0,.48-.47A1.85,1.85,0,0,0,181.7,128Zm6.9-31.64c.73,0,1.47,0,2.23,0s1.49,0,2.23,0l-2.23-58Zm2.23,5.25c6.87,0,12.45-.73,12.45-1.63s-5.58-1.64-12.45-1.64-12.45.73-12.45,1.64S184,101.59,190.83,101.59Zm-1.53,2.17,1.53,13.66,1.53-13.66-1.53,0Zm.49,33.57a.33.33,0,0,0,0,.21l.31.33a1.81,1.81,0,0,1,.24.24,4.74,4.74,0,0,1,.71.84l.2-.23.32-.37a2.43,2.43,0,0,0,.14-.2.9.9,0,0,0,0-1.06l-.08-.11-.74,0h-.22l-.73,0A1,1,0,0,0,189.79,137.33Zm-.6-5.07.23,0-.09-.21-.67-1.48a.37.37,0,0,0-.08-.15c0-.06-.08-.12-.13-.2h0a2.22,2.22,0,0,0-.19-.24l0,0,0,0h0l-.08-.06.08,0,.07,0,.07,0h0a1.6,1.6,0,0,0,.32-.21,1.37,1.37,0,0,0,.26-.28h0a1.29,1.29,0,0,0,.18-.35,1.84,1.84,0,0,0,.08-.42,1.58,1.58,0,0,0-.08-.66l-.06-.12a.3.3,0,0,0-.06-.11h0a1.29,1.29,0,0,0-.28-.33,1.3,1.3,0,0,0-.38-.22h0a2.57,2.57,0,0,0-.5-.13,5.42,5.42,0,0,0-.66-.08l-2.64-.18h-.14v.14l-.36,5v.13h.14l1.59.11h.14v-.14L186,130a.71.71,0,0,1,.22.06l0,0,0,0h0a.31.31,0,0,1,.09.12c0,.06.08.14.13.23l.74,1.57,0,.08h.09Zm-1.55,7.84a2.26,2.26,0,0,0,.21.6c.32-.15.67-.27,1-.4s.72-.25,1-.39l-.16-.28a2.85,2.85,0,0,0-.54-.76,2.2,2.2,0,0,1-.5-.52,2.06,2.06,0,0,0-.63.33,1.2,1.2,0,0,0-.44.63A1.51,1.51,0,0,0,187.64,140.1Zm3.67,4.17-.09,0c-.23.09-.47.16-.71.23.3,2.47.24,3.7.7.29C191.24,144.66,191.27,144.48,191.31,144.27Zm1.45-5.2c-.17.24-.37.5-.59.76a4.64,4.64,0,0,1-.83.78,6.63,6.63,0,0,1-2,.95,3.59,3.59,0,0,0-1.32.62l0,0h0a.84.84,0,0,0-.19.46.66.66,0,0,0,.09.33h0a.89.89,0,0,0,.26.29,1,1,0,0,0,.48.17h0a6.07,6.07,0,0,0,.85-.06l.12,0h0l.27-.05q.29-.06.57-.15l.24-.08a10.29,10.29,0,0,0,1.12-.5l.05,0,.31-.18c.2-.13.39-.27.57-.41a6.4,6.4,0,0,0,.49-.42h0a2.44,2.44,0,0,0,.63-1.72,2.26,2.26,0,0,0-.1-.71,1.18,1.18,0,0,0-.21-.39C193.29,138.4,192.92,138.89,192.76,139.07Zm3.76-7.09v-.14l-.07-1.12v-.13h-.14l-2.6.13,0-.7,2.33-.12h.14v-.14l0-1v-.14h-.14l-2.33.12,0-.52,2.52-.13h.14V128l-.06-1.06v-.13H196l-4.26.22h-.14v.13l.27,5v.13h.14l4.33-.22Zm10.35-1.82,0-.13-.29-1.19,0-.14-.13,0-2.28.51-.84-3.52,0-.13-.13,0-1.55.35-.14,0,0,.13L202.6,131l0,.14.14,0,4-.89Zm4.51-1.4,0-.13-1.59-4.72-.05-.13-.13,0-1.52.47-.13,0,0,.13,1.59,4.72,0,.13.13,0,1.52-.48Zm6.73-3.57a1.59,1.59,0,0,0,0-.72l0-.13-.05-.14h0a2.06,2.06,0,0,0-.36-.5l-.09-.07-.1-.07h0a1.18,1.18,0,0,0-.41-.19,1.59,1.59,0,0,0-.5-.08,5.13,5.13,0,0,0-1,.08l.09,0,1.33-.67.14-.07-.08-.12a2.35,2.35,0,0,0-.5-.57,1.63,1.63,0,0,0-.63-.28,2.43,2.43,0,0,0-1.11.09l-.24.08-.26.1h0a4.35,4.35,0,0,0-.65.33,2.33,2.33,0,0,0-.47.37,1.76,1.76,0,0,0-.29.4,1.16,1.16,0,0,0-.15.43,1.39,1.39,0,0,0,0,.61s0,.07,0,.11,0,.07,0,.11h0a1.3,1.3,0,0,0,.37.49,1.32,1.32,0,0,0,.54.28,2,2,0,0,0,.73.08,5.13,5.13,0,0,0,.95-.11h0a4.45,4.45,0,0,1,.52-.07.73.73,0,0,1,.27,0,.43.43,0,0,1,.19.11s0,0,0,0,0,0,0,0h0a.32.32,0,0,1,0,.13.34.34,0,0,1,0,.16.79.79,0,0,1-.12.15.91.91,0,0,1-.22.13.79.79,0,0,1-.44.07l-.08,0-.08,0-.05,0a.71.71,0,0,1-.25-.22l-.06-.07,0-.07h0l-.07-.1-.11.06-1.35.67-.12.07.07.12a2.14,2.14,0,0,0,.48.59,2.12,2.12,0,0,0,.63.38,1.8,1.8,0,0,0,.88.06,4.05,4.05,0,0,0,1.1-.33,4,4,0,0,0,.85-.49l.12-.11.12-.11h0a1.85,1.85,0,0,0,.31-.44A1.68,1.68,0,0,0,218.11,125.19Zm5.91-2.3-.07-.11-1.87-3.12,1.29-.71.12-.07-.07-.12-.64-1.06-.07-.12-.12.07L218.4,120l-.12.07.07.11.64,1.07.07.11.12-.06,1.28-.72,1.87,3.12.07.12.12-.07,1.38-.77Zm6.91-5.72a1,1,0,0,0,0-.18,1.37,1.37,0,0,0,0-.19h0a2.64,2.64,0,0,0-.39-1l-.13-.2-.15-.19h0a3,3,0,0,0-1.25-1l-.28-.09-.28,0h0a2.49,2.49,0,0,0-1.51.28l-.3.16c-.09.06-.19.12-.29.2h0a3.19,3.19,0,0,0-.82.82,2.25,2.25,0,0,0-.38.94,2.33,2.33,0,0,0,.28,1.46l.17.28a2.43,2.43,0,0,0,.2.28h0a3.28,3.28,0,0,0,.87.81l.19.1.18.09a2.51,2.51,0,0,0,.68.17,2.14,2.14,0,0,0,.67,0,3,3,0,0,0,1-.39l.2-.12.19-.14h0a4,4,0,0,0,.6-.54,2.32,2.32,0,0,0,.39-.59A2.11,2.11,0,0,0,230.93,117.17Z" transform="translate(0)"/><polygon class="cls-1" points="220.09 72.41 216.15 69.58 221.16 69.3 222.86 64.72 224.51 69.3 229.46 69.55 225.57 72.41 227.07 76.98 222.86 74.36 218.81 76.98 220.09 72.41"/><polygon class="cls-1" points="161.56 72.41 165.5 69.58 160.5 69.3 158.8 64.72 157.15 69.3 152.19 69.55 156.08 72.41 154.59 76.98 158.8 74.36 162.84 76.98 161.56 72.41"/></svg>