<svg id="Capa_1" data-name="Capa 1" xmlns="http://www.w3.org/2000/svg" viewBox="0 0 256 256"><defs><style>.cls-1{fill:#e10613;}.cls-2{fill:#fabc43;}.cls-3{fill:#ffd400;}.cls-4{fill:#c51a27;}.cls-5{fill:#fff;}</style></defs><title>horquilla</title><rect class="cls-1" x="12" y="12" width="232" height="232"/><polygon class="cls-2" points="119.48 14.17 116.59 127.93 14.31 73.87 13.3 31.37 17.05 19.81 22.83 14.17 31.5 13.16 119.48 14.17"/><polygon class="cls-3" points="78.88 149.46 134.21 245.29 199.94 245.58 128.14 120.99 128.14 9.11 70.94 9.84 70.79 78.64 9.83 43.51 10.41 109.86 78.88 149.46"/><polygon class="cls-4" points="89.14 138.77 151.11 246.16 183.33 245.29 113.84 124.75 113.84 22.7 113.84 9.84 85.38 9.84 85.38 27.9 85.38 103.79 10.41 60.57 9.98 93.09 89.14 138.77"/><path class="cls-5" d="M243.77,147.82a67.65,67.65,0,0,1-.18-7.22l-1.74-.65,0,0,.89-1.79-1.1-.5-1,.63c-1.26.83-1.28,1.88-.87,9.76,0,.38,0,.8.07,1.22-29.32-23.2-83.68-27.2-128.69-12.92a123.26,123.26,0,0,1-9.21-23.6c35.34-.52,62.17-12.82,72.87-31.34,12.71-22,1.26-48.12-31.42-71.67l-2.24,3.12c30.89,22.26,41.95,46.54,30.34,66.63-10.17,17.62-36.52,28.84-70.6,29.15C93.76,78.57,97.58,45.14,112.62,12l-3.33-1.51C94.05,44.09,90.09,78,97.17,108.61c-24.61-.35-53-6.29-82.07-19.43l-1.58,3.49c30.53,13.8,59.61,19.84,84.68,20.07a125.63,125.63,0,0,0,9.48,24.75,133.53,133.53,0,0,0-37,19.11c-1.63,1.22-3.17,2.47-4.66,3.74-20,.48-40.78,7.26-53.25,23.33l3.1,2.41C26.6,172.25,44,165.77,61.48,164.48c-21.89,21.42-26.16,48.8-11.83,78.22L53.22,241c-14.18-29.12-9-56.12,14.36-76.73A91,91,0,0,1,87,166.17c21.26,4.52,36.57,15.83,39.94,29.52s-4.79,29.05-23.56,44.62l2.51,3c25.27-21,27.47-38,24.86-48.59-3.73-15.16-20.19-27.59-42.94-32.43a94.21,94.21,0,0,0-15.52-1.92l.81-.63A130.79,130.79,0,0,1,109.53,141a126.68,126.68,0,0,0,8.86,13.93c24.69,33.69,63.41,52.66,106,52.66a145.32,145.32,0,0,0,17.7-1.08l-.44-3.62c-48,5.82-93-12.89-120.28-50.12a124.89,124.89,0,0,1-8.27-12.92c45.31-14.26,100.08-9.58,127.37,15.08l2.25.43C244.13,154.7,244.1,154.18,243.77,147.82Z"/><path class="cls-4" d="M223.63,256H32.51A32.49,32.49,0,0,1,0,223.62V32.39A32.49,32.49,0,0,1,32.51,0H223.63A32.42,32.42,0,0,1,256,32.39V223.62A32.41,32.41,0,0,1,223.63,256ZM32.51,17.07A15.4,15.4,0,0,0,17.06,32.39V223.62a15.4,15.4,0,0,0,15.45,15.31H223.63a15.51,15.51,0,0,0,15.31-15.31V32.39a15.52,15.52,0,0,0-15.31-15.32Z"/><circle id="fondo" class="cls-4" cx="198" cy="58" r="32.5"/><path id="rizo" class="cls-5" d="M199.57,30.38a1.25,1.25,0,0,0,.17-.49,1.92,1.92,0,0,1,.22-.51,1.49,1.49,0,0,1,.33-.27h0a24.22,24.22,0,0,1,2.54.35,1.19,1.19,0,0,0-.36.26,2.16,2.16,0,0,0-.26.47,1.19,1.19,0,0,1-.22.47,1.29,1.29,0,0,1-.38.28l0,0c-.81-.13-1.63-.21-2.44-.26A1.56,1.56,0,0,0,199.57,30.38Zm3.29-.93Zm-.54,1.6c.81.15,1.6.34,2.39.56l0,0a1.41,1.41,0,0,0,.42-.22,1.57,1.57,0,0,0,.28-.44,2,2,0,0,1,.32-.44,1.79,1.79,0,0,1,.39-.2h0c-.82-.26-1.64-.5-2.49-.68h0a1.76,1.76,0,0,0-.37.23,2.48,2.48,0,0,0-.27.47,1.58,1.58,0,0,1-.23.47A2,2,0,0,1,202.32,31.05Zm-6.1-2Zm-.73,1.76a1.57,1.57,0,0,0,.3-.38,1.23,1.23,0,0,0,.09-.5,2,2,0,0,1,.13-.53,1.64,1.64,0,0,1,.29-.35c-.86.07-1.71.17-2.56.32v0a1.54,1.54,0,0,0-.25.36,1.88,1.88,0,0,0-.07.53,1.76,1.76,0,0,1,0,.51,2.11,2.11,0,0,1-.26.4,22.19,22.19,0,0,1,2.42-.4Zm-20,11.91a1.36,1.36,0,0,0,.13.42,2.79,2.79,0,0,0,.38.39,1.24,1.24,0,0,1,.38.34,1.57,1.57,0,0,1,.16.46,22.59,22.59,0,0,1,1.16-2.17l0,0a1.53,1.53,0,0,0-.11-.47,1.45,1.45,0,0,0-.36-.38,2.38,2.38,0,0,1-.34-.43,1.16,1.16,0,0,1-.08-.42,24.84,24.84,0,0,0-1.31,2.22Zm23.15-12.06h0a1,1,0,0,0,.5-.84,2.42,2.42,0,0,1,.19-.51,2.16,2.16,0,0,1,.33-.27h0c-.85-.05-1.71-.06-2.56,0h0a1.5,1.5,0,0,0-.3.32,2.46,2.46,0,0,0-.15.53,1.54,1.54,0,0,1-.1.51,2.17,2.17,0,0,1-.32.36A21.92,21.92,0,0,1,198.61,30.66Zm7.3,46.21A19,19,0,0,0,203.27,78l-.33.17a1.45,1.45,0,0,0-.11.51c0,.15,0,.39,0,.55a1.92,1.92,0,0,1-.32.83A9.37,9.37,0,0,0,205.11,79l.42-.22a3,3,0,0,0,.1-.32,1.76,1.76,0,0,0,.06-.46c0-.14-.12-.25-.06-.46a3,3,0,0,1,.29-.63ZM198.51,80a4.17,4.17,0,0,0,1.36-.91c.12-.11.46-.36.57-.48s-1.09-.92-.88-1.57c-1.22,1.07-1.71,1.6-2.72,1.6-.26.05,0,0,0,0a1.59,1.59,0,0,0-.26.5,1.88,1.88,0,0,0-.1.47,2.44,2.44,0,0,0,0,.54A4.24,4.24,0,0,0,198.51,80Zm-1.66-1.85a1.9,1.9,0,0,0,.92-.39l.44-.34a3.06,3.06,0,0,0-2.66-1.18c-.19,0-.46-.06-.59.15h0s-.91,1.11-.54,1.5a2.83,2.83,0,0,1,1.05,0,3.09,3.09,0,0,1,1.13.19Zm5.26,4.49s1.24-1.16,2-.8l-.17-.16a4.41,4.41,0,0,0-2.42-.86c-.76,0-2.11.2-2.41.7a4,4,0,0,1,1.87,1C201.07,82.53,201.38,82.45,202.11,82.63Zm-1.76-3.36-.44.36c-.1.08-.56.36-.62.41s.82.4,2.33.18v0a1.48,1.48,0,0,0,.25-.35,2.31,2.31,0,0,0,.16-.57,3.56,3.56,0,0,0,.06-.44,1.23,1.23,0,0,1,.08-.38c-.17.09-1.07.39-1.07.39l-.42.09c-.12.1-.22.23-.33.33Zm-4-.64a1.72,1.72,0,0,0-.26.48,2.54,2.54,0,0,0-.14.47c-.14.65,0,.65,0,.65a9.32,9.32,0,0,1-3.2-.78s.23-.29.3-.36.23-.14.3-.29a1.56,1.56,0,0,1,.68-.45,14.07,14.07,0,0,0,2,.3ZM202.25,76a4.6,4.6,0,0,0-2.2.82h0c-.41.45.91,1.48.91,1.48h0a2.14,2.14,0,0,1,1.82-.68,19.09,19.09,0,0,1,1.94-.77,2.67,2.67,0,0,0-2.46-.86ZM182,35.84a1.37,1.37,0,0,1,.23.47,1.94,1.94,0,0,1,0,.48,23.87,23.87,0,0,1,1.9-1.56h0a1.5,1.5,0,0,0,.08-.47,1.45,1.45,0,0,0-.18-.49,2.76,2.76,0,0,1-.16-.51,1.5,1.5,0,0,1,.09-.42,25.78,25.78,0,0,0-2.06,1.55v0a1.5,1.5,0,0,0,0,.42A2.85,2.85,0,0,0,182,35.84Zm-3.2,2Zm-1.59,2a1.55,1.55,0,0,0,.07.43,2.46,2.46,0,0,0,.34.44,1.28,1.28,0,0,1,.34.39,1.86,1.86,0,0,1,.09.47,24,24,0,0,1,1.44-2h0a1.56,1.56,0,0,0,0-.48,1.43,1.43,0,0,0-.31-.42,2.78,2.78,0,0,1-.28-.47,1.53,1.53,0,0,1,0-.43,24,24,0,0,0-1.58,2Zm2.35-2.1c-.17.17-.08.33,0,.47a1.27,1.27,0,0,1,.28.44,1.47,1.47,0,0,1,0,.47h0c.52-.62,1.08-1.22,1.67-1.83h0a1.18,1.18,0,0,0,0-.43,1.31,1.31,0,0,0-.26-.46,3.16,3.16,0,0,1-.22-.5,1.56,1.56,0,0,1,0-.43h0a20.85,20.85,0,0,0-1.83,1.81v0c0,.14,0,.29.26.44Zm10.17-7.3Zm.34,1.72a23.58,23.58,0,0,1,2.35-.71h0a1.55,1.55,0,0,0,.25-.41,1.3,1.3,0,0,0,0-.52,2.33,2.33,0,0,1,.06-.53,1.54,1.54,0,0,1,.23-.37,24,24,0,0,0-2.49.65v0a1.3,1.3,0,0,0-.22.38,1.63,1.63,0,0,0,0,.54,1.52,1.52,0,0,1,0,.52,1.75,1.75,0,0,1-.22.43Zm-5.5,2.39a1.27,1.27,0,0,1-.09.47,23.35,23.35,0,0,1,2.09-1.28h0a1.86,1.86,0,0,0,.13-.46,1.26,1.26,0,0,0-.11-.51,2.54,2.54,0,0,1-.09-.54,2,2,0,0,1,.14-.41,24.76,24.76,0,0,0-2.24,1.27v0a1.5,1.5,0,0,0-.09.42,2.42,2.42,0,0,0,.13.53A1.4,1.4,0,0,1,184.54,34.52Zm2.86-1.78a1.77,1.77,0,0,1-.15.46,22.44,22.44,0,0,1,2.23-1h0a1.69,1.69,0,0,0,.2-.43,1.73,1.73,0,0,0,0-.51,2.44,2.44,0,0,1,0-.54,1.76,1.76,0,0,1,.19-.39c-.81.28-1.6.6-2.38,1v0a2.05,2.05,0,0,0-.16.41,2.48,2.48,0,0,0,.06.54A1.24,1.24,0,0,1,187.4,32.74Zm5.35,46.7Zm24.37-41.89Zm-.93,1a2,2,0,0,1-.48-.05h0c.56.61,1.08,1.24,1.65,1.9v0a.77.77,0,0,0,.39.07,1.08,1.08,0,0,0,.48-.18,2.46,2.46,0,0,1,.51-.15,1.56,1.56,0,0,1,.43.08c-.48-.71-1-1.39-1.55-2.16h0a1.13,1.13,0,0,1-.44.07,2,2,0,0,0-.51.2,1.89,1.89,0,0,1-.47.24ZM214,36.25a1,1,0,0,1-.48.07c.62.53,1.21,1.09,1.86,1.68v0a.88.88,0,0,0,.4,0,1.38,1.38,0,0,0,.46-.25,2.16,2.16,0,0,1,.49-.22,1.31,1.31,0,0,1,.44,0,17,17,0,0,0-1.81-1.79h0a.67.67,0,0,0-.44,0,2.37,2.37,0,0,0-.47.25.85.85,0,0,1-.44.29Zm-2.47-1.78a1.63,1.63,0,0,1-.49.09A24.79,24.79,0,0,1,213,36v0a1.6,1.6,0,0,0,.49,0,1.48,1.48,0,0,0,.43-.31,2,2,0,0,1,.48-.29,1.38,1.38,0,0,1,.45,0c-.67-.57-1.36-1.11-2.09-1.62h0a1.31,1.31,0,0,0-.44.07,2.42,2.42,0,0,0-.45.34,1.43,1.43,0,0,1-.42.35Zm.6-1.27Zm10.07,12.93Zm-.73.51a1.33,1.33,0,0,1-.49,0,1.72,1.72,0,0,1-.43-.21,16.49,16.49,0,0,1,.67,2.35v0a3,3,0,0,0,.45.26,1.45,1.45,0,0,0,.51,0,2.48,2.48,0,0,1,.54.06,1.69,1.69,0,0,1,.36.23,22.31,22.31,0,0,0-.65-2.44h0a.87.87,0,0,0-.39-.26,2.51,2.51,0,0,0-.55,0ZM223,49.35Zm-2.94-5.59a1.48,1.48,0,0,1-.51.09,1.7,1.7,0,0,1-.45-.15c.37.72.71,1.47,1,2.23v0a1.46,1.46,0,0,0,.44.2,1.48,1.48,0,0,0,.51,0,2.44,2.44,0,0,1,.54,0,1.41,1.41,0,0,1,.39.19,23.44,23.44,0,0,0-1-2.39h0a1.44,1.44,0,0,0-.41-.15A1.87,1.87,0,0,0,220.1,43.76Zm-1.47-2.9a1.76,1.76,0,0,1-.52.17,1.58,1.58,0,0,1-.47-.1A14.91,14.91,0,0,1,218.88,43v0a3.28,3.28,0,0,0,.52.13,1.25,1.25,0,0,0,.5-.11,2.54,2.54,0,0,1,.54-.09,1.53,1.53,0,0,1,.41.14,23.91,23.91,0,0,0-1.27-2.25h0a3,3,0,0,0-.43-.09,2,2,0,0,0-.51.12Zm2.22,2.2Zm-30,39.9a5.55,5.55,0,0,0,1.52-.08,3.15,3.15,0,0,1,.43-.17h0a3,3,0,0,1-1-2.23,1.8,1.8,0,0,1-1.4-1.43,4.18,4.18,0,0,0-.26,1.4,4.65,4.65,0,0,0,.71,2.51Zm31.31-33.09a1.47,1.47,0,0,1-.51,0,1.66,1.66,0,0,1-.39-.26c.17.8.3,1.61.39,2.42v0a1.52,1.52,0,0,0,.37.3,1.44,1.44,0,0,0,.51.09,2.31,2.31,0,0,1,.52.12,1.32,1.32,0,0,1,.33.29,24.82,24.82,0,0,0-.31-2.56h0a1.45,1.45,0,0,0-.36-.25A2.35,2.35,0,0,0,222.18,49.87Zm-28.1,32.25a2.45,2.45,0,0,1,1,.22s1.18-1.23,1.3-1.18a6.23,6.23,0,0,0-3.84-.25l.24.41.62.86Zm-3.66-3.07Zm33.07-26.41ZM194,78.39Zm0,0Zm-.63-1.94a4.45,4.45,0,0,0-2.64,2h0s.27,1.39,1.17,1.42a3.91,3.91,0,0,1,1.42-1.55l.17-.21a2.36,2.36,0,0,1,.37-1.76Zm15.78-44.85Zm-3.41.16a1.56,1.56,0,0,1-.43.21,23.43,23.43,0,0,1,2.29.87l0,0a1.44,1.44,0,0,0,.45-.17,1.41,1.41,0,0,0,.33-.4,2,2,0,0,1,.37-.39,1.56,1.56,0,0,1,.41-.15,25.13,25.13,0,0,0-2.37-1h0a1.44,1.44,0,0,0-.4.18,2.38,2.38,0,0,0-.34.43A1.37,1.37,0,0,1,205.76,31.71Zm2.93,1.12a1.57,1.57,0,0,1-.46.16,22.59,22.59,0,0,1,2.17,1.16l0,0a1.89,1.89,0,0,0,.47-.11,1.45,1.45,0,0,0,.38-.36,2.72,2.72,0,0,1,.42-.34,1.26,1.26,0,0,1,.43-.08,23.66,23.66,0,0,0-2.23-1.31h0a1.21,1.21,0,0,0-.42.13,2.79,2.79,0,0,0-.39.38,1.41,1.41,0,0,1-.34.39Zm-21,44.08a2,2,0,0,1-.38.39,1.48,1.48,0,0,1-.42.14,23.58,23.58,0,0,0,2.38,1h0a1.38,1.38,0,0,0,.39-.18,2.72,2.72,0,0,0,.34-.42,1.3,1.3,0,0,1,.29-.43,1.46,1.46,0,0,1,.43-.22,23.36,23.36,0,0,1-2.29-.86h0a2.2,2.2,0,0,0-.45.17A1.57,1.57,0,0,0,187.72,76.91Zm18,5.25a2.94,2.94,0,0,0,.36-2.93l-1.84.84a1,1,0,0,1-.21,1.2s1.79.78,1.69.89ZM206.81,87l.5.82,1.36-1.46a5.2,5.2,0,0,0-.65-.51Zm.7-1.53-1.2,1.07.17.17,1.2-1.06Zm4.86-9.88ZM209.5,77.3Zm2.08-2.78a1.51,1.51,0,0,1,.09-.47,23.54,23.54,0,0,1-2.09,1.3h0a1.45,1.45,0,0,0-.14.46,1.26,1.26,0,0,0,.12.5,3.35,3.35,0,0,1,.08.54,1.25,1.25,0,0,1-.14.41A23.47,23.47,0,0,0,211.77,76v0a1.51,1.51,0,0,0,.1-.42,2.44,2.44,0,0,0-.14-.53,1.25,1.25,0,0,1-.14-.5Zm-6.4,10.76.85.88,1.3-1.11a1.47,1.47,0,0,0-2.15.23Zm3.54-9.17a1.25,1.25,0,0,1,.14-.41,21.76,21.76,0,0,1-2,.92h0a2.38,2.38,0,0,0-.2.39,1.47,1.47,0,0,0,0,.47,1.7,1.7,0,0,1,0,.5,3.25,3.25,0,0,1-.15.4c.73-.26,1.58-.6,2.29-.92v0a1.28,1.28,0,0,0,.14-.37,2.05,2.05,0,0,0-.06-.49,1.27,1.27,0,0,1-.09-.47ZM195.46,83a1.67,1.67,0,0,1-.59,1.91c1.43.37,3-1.16,3-1.16a5.6,5.6,0,0,0-1.69-.58Zm4.75-.34a7.75,7.75,0,0,0-2.92-1.27l-1.58,1.1,1.89.63c.57.15.71.42,1.43.88,0,0,1.66-1,1.18-1.34Zm-5.33.46a3.87,3.87,0,0,1-.48,0,2.38,2.38,0,0,1-.91-.18h0c-.26.78-2,.61-2,.61a4.43,4.43,0,0,0,2.4,1.2h0s1-.22,1-1.66Zm11.88,1.16h0c-.37-.49-.69-.92-.87-1.12a6.84,6.84,0,0,0-.76-.65,1.76,1.76,0,0,0-2.37.36,5.35,5.35,0,0,1,1.7,1.51l.23.37s1.21-1.27,2.06-.47Zm-2.1.51v0h0ZM202.47,83A3.29,3.29,0,0,1,201,83c.06.47-1.33,1.4-1.33,1.4a3.67,3.67,0,0,0,2.19.54,2.73,2.73,0,0,0,1.62-.65,2.86,2.86,0,0,1-1-1.22ZM175.11,43.38Zm48.4,13.35a1.48,1.48,0,0,0-.28-.33,1.92,1.92,0,0,0-.51-.22,1.25,1.25,0,0,1-.49-.17,1.34,1.34,0,0,1-.31-.36,22.16,22.16,0,0,1-.25,2.44v0a1.58,1.58,0,0,0,.29.39,1.56,1.56,0,0,0,.47.22,2.37,2.37,0,0,1,.47.25,1.32,1.32,0,0,1,.26.36c.16-.84.27-1.69.35-2.54Zm-.41,2.57Zm-8.54,13.79c-.4-.14-.47-.3-.52-.47a1.94,1.94,0,0,1,0-.48c-.6.56-1.24,1.07-1.9,1.68h0s-.08.19-.08.35a1.45,1.45,0,0,0,.18.49,2.15,2.15,0,0,1,.15.51,1.31,1.31,0,0,1-.08.43A12.85,12.85,0,0,0,214.31,74v0a.49.49,0,0,0,.16-.43c-.05-.17-.12-.34.09-.5Zm-19.8,10.12h0ZM222,62.85a2.34,2.34,0,0,0-.4-.37,1.42,1.42,0,0,1-.41-.32,1.85,1.85,0,0,1-.18-.44,22.35,22.35,0,0,1-1,2.22h0a1.53,1.53,0,0,0,.14.46,1.41,1.41,0,0,0,.37.36,2.34,2.34,0,0,1,.37.4,1.44,1.44,0,0,1,.11.42h0a24.83,24.83,0,0,0,1.17-2.3v0A1.52,1.52,0,0,0,222,62.85Zm1.56-9.34h0a1.52,1.52,0,0,0-.32-.3,1.91,1.91,0,0,0-.52-.14,1.45,1.45,0,0,1-.51-.11,1.55,1.55,0,0,1-.36-.31h0c.07.81.09,1.63.08,2.45v0a1.56,1.56,0,0,0,.33.35,1.4,1.4,0,0,0,.49.15,2.23,2.23,0,0,1,.51.19,1.81,1.81,0,0,1,.29.33,24.9,24.9,0,0,0,0-2.59Zm-.89,6.15a2.78,2.78,0,0,0-.47-.28,1.11,1.11,0,0,1-.46-.23,1.72,1.72,0,0,1-.26-.4,23.69,23.69,0,0,1-.55,2.39v0a1.44,1.44,0,0,0,.23.42,1.23,1.23,0,0,0,.43.28,2,2,0,0,1,.44.32,1.44,1.44,0,0,1,.2.39h0a24.13,24.13,0,0,0,.68-2.49v0a1.45,1.45,0,0,0-.25-.36Zm-5.34,11.52Zm-.54.21a2.73,2.73,0,0,0-.25-.48,1.26,1.26,0,0,1-.29-.43,1.94,1.94,0,0,1,0-.48,21.93,21.93,0,0,1-1.68,1.79h0a1.55,1.55,0,0,0,0,.48,1.38,1.38,0,0,0,.25.46,2.38,2.38,0,0,1,.22.49,1.61,1.61,0,0,1,0,.44,24,24,0,0,0,1.83-1.81v0a1.29,1.29,0,0,0,0-.44ZM215,73.55Zm5.65-7.27a1.21,1.21,0,0,0-.13-.42,2.79,2.79,0,0,0-.38-.39,1.24,1.24,0,0,1-.38-.34,1.57,1.57,0,0,1-.16-.46,22.59,22.59,0,0,1-1.16,2.17l0,0a1.89,1.89,0,0,0,.11.47,1.27,1.27,0,0,0,.35.38,2.79,2.79,0,0,1,.35.42,1.26,1.26,0,0,1,.08.43,24.84,24.84,0,0,0,1.31-2.22Zm-1.73,2.85a1.55,1.55,0,0,0-.07-.43,2,2,0,0,0-.33-.44,1.59,1.59,0,0,1-.34-.39,1.86,1.86,0,0,1-.09-.47,23.29,23.29,0,0,1-1.43,2h0a1.57,1.57,0,0,0,.05.48,1.25,1.25,0,0,0,.3.42,2.43,2.43,0,0,1,.28.47,1.53,1.53,0,0,1,0,.43c.56-.65,1.09-1.33,1.59-2ZM223.52,56Zm-49.58,3.2a1.47,1.47,0,0,1,.51,0,1.72,1.72,0,0,1,.4.26,22.19,22.19,0,0,1-.4-2.42v0a1.85,1.85,0,0,0-.37-.31,1.3,1.3,0,0,0-.51-.08,2.42,2.42,0,0,1-.53-.13,1.75,1.75,0,0,1-.33-.28,24.33,24.33,0,0,0,.32,2.55h0a1.28,1.28,0,0,0,.35.26A2.54,2.54,0,0,0,173.94,59.19Zm-1.32-2.85Zm.46,3.3Zm16.8,22.5a2.5,2.5,0,0,0-.38.15l.1-.07a3.3,3.3,0,0,0-.79.6c-.19.19-.52.63-.91,1.1h0c.91-.78,2.06.57,2.06.57l0,0,.36-.36c.19-.16.38-.32.58-.46A2.53,2.53,0,0,1,189.88,82.14Zm-17-26.29a2.38,2.38,0,0,0,.52.15,1.45,1.45,0,0,1,.51.1,1.59,1.59,0,0,1,.36.32c-.07-.82-.09-1.64-.08-2.45v0a1.56,1.56,0,0,0-.33-.35,1.52,1.52,0,0,0-.5-.15,2.25,2.25,0,0,1-.51-.2,1.43,1.43,0,0,1-.28-.32,24.47,24.47,0,0,0,0,2.57h0A1.52,1.52,0,0,0,172.88,55.85ZM176,65.28a1.52,1.52,0,0,1,.51-.09,1.9,1.9,0,0,1,.46.15,22.61,22.61,0,0,1-1-2.24v0a1.6,1.6,0,0,0-.44-.2,1.4,1.4,0,0,0-.5,0,2,2,0,0,1-.54,0,1.44,1.44,0,0,1-.4-.18c.28.81.61,1.6,1,2.38h0a1.44,1.44,0,0,0,.41.15A2.33,2.33,0,0,0,176,65.28Zm-2-2.42Zm.13-17.09a1.59,1.59,0,0,0,.18.4,2.34,2.34,0,0,0,.43.33,1.55,1.55,0,0,1,.43.29,1.72,1.72,0,0,1,.21.43,23.25,23.25,0,0,1,.87-2.28h0a1.66,1.66,0,0,0-.17-.45,1.75,1.75,0,0,0-.38-.34,2.46,2.46,0,0,1-.41-.38,1.53,1.53,0,0,1-.14-.41,24.87,24.87,0,0,0-1,2.37ZM172.58,53Zm.63-4a1.2,1.2,0,0,0,.23.37,2.31,2.31,0,0,0,.48.28,1.42,1.42,0,0,1,.46.23,1.76,1.76,0,0,1,.27.4c.15-.8.33-1.6.56-2.39v0a1.72,1.72,0,0,0-.23-.42,1.57,1.57,0,0,0-.44-.28,2.19,2.19,0,0,1-.44-.31,1.41,1.41,0,0,1-.19-.39c-.27.81-.5,1.64-.69,2.48Zm-.61,3.3a1.48,1.48,0,0,0,.28.33,1.92,1.92,0,0,0,.51.22,1.25,1.25,0,0,1,.49.17,1.34,1.34,0,0,1,.31.36c.05-.82.13-1.63.26-2.44v0a2.14,2.14,0,0,0-.28-.39,1.74,1.74,0,0,0-.48-.22,2.37,2.37,0,0,1-.47-.25,1.5,1.5,0,0,1-.26-.36,24.22,24.22,0,0,0-.35,2.54Zm.4-2.57Zm1.73,12.66a1.41,1.41,0,0,1,.5,0,1.78,1.78,0,0,1,.44.21A21.7,21.7,0,0,1,175,60.2v0a2,2,0,0,0-.41-.25,1.25,1.25,0,0,0-.51,0,2.48,2.48,0,0,1-.54-.06,1.47,1.47,0,0,1-.37-.24c.18.84.4,1.67.65,2.49h0a1.47,1.47,0,0,0,.39.21,2.53,2.53,0,0,0,.55,0Zm11.53,14.75a1.87,1.87,0,0,0,.42-.13,2.79,2.79,0,0,0,.39-.38,1.41,1.41,0,0,1,.34-.39,1.9,1.9,0,0,1,.46-.15c-.74-.35-1.47-.74-2.17-1.16l0,0a1.53,1.53,0,0,0-.47.11,1.27,1.27,0,0,0-.38.35,2.72,2.72,0,0,1-.42.34,1.57,1.57,0,0,1-.43.09,24.74,24.74,0,0,0,2.22,1.3Zm-.35,8.82,1.3,1.52.54-.81-1.18-1.19C186.35,85.6,186.12,85.76,185.91,85.93ZM184,75.8Zm2.84,9.43L188,86.35l.16-.19L187,85.05Zm.43-.57,1.26,1.16.88-.85A1.48,1.48,0,0,0,187.31,84.66ZM184.6,74.59a1.63,1.63,0,0,1,.48-.09,23.55,23.55,0,0,1-2-1.44v0a1.31,1.31,0,0,0-.48,0,1.35,1.35,0,0,0-.41.31,2.69,2.69,0,0,1-.46.28,1.56,1.56,0,0,1-.43,0,24.53,24.53,0,0,0,2,1.59h0a1.63,1.63,0,0,0,.43-.08,2,2,0,0,0,.43-.34A1.41,1.41,0,0,1,184.6,74.59Zm-4.76-4.2a1.94,1.94,0,0,1,.48,0,23.87,23.87,0,0,1-1.56-1.9v0a1.84,1.84,0,0,0-.47-.07,1.45,1.45,0,0,0-.49.18,2.23,2.23,0,0,1-.52.15,1.25,1.25,0,0,1-.42-.08,25.78,25.78,0,0,0,1.55,2.06h0a2.09,2.09,0,0,0,.43,0,2.28,2.28,0,0,0,.51-.21A1.35,1.35,0,0,1,179.84,70.39ZM177,68.81Zm.62-.61a1.41,1.41,0,0,1,.49-.16,1.86,1.86,0,0,1,.47.09c-.46-.67-.89-1.37-1.29-2.08v0a1.76,1.76,0,0,0-.46-.14,1.46,1.46,0,0,0-.5.12,2,2,0,0,1-.54.08,1.51,1.51,0,0,1-.41-.13,23.76,23.76,0,0,0,1.27,2.24h0a1.5,1.5,0,0,0,.42.09,2,2,0,0,0,.53-.13Zm4.49,4.55a1.5,1.5,0,0,1,.47,0A19.49,19.49,0,0,1,180.8,71v0a1.49,1.49,0,0,0-.47,0,1.63,1.63,0,0,0-.45.24,2,2,0,0,1-.49.23,1.49,1.49,0,0,1-.42,0c.56.64,1.14,1.26,1.75,1.84h0a1.55,1.55,0,0,0,.43,0,2.07,2.07,0,0,0,.45-.27,1.34,1.34,0,0,1,.44-.27Zm-.69,1ZM179,71.46Z"/><path id="flor" class="cls-5" d="M183.17,54l.74-1.47,1.63.26-1.18-1.18.74-1.47-1.46.76-1.18-1.16.27,1.63-1.46.76,1.63.25Zm11.08,4.3h.07a23.83,23.83,0,0,0-2.92.4c-.48-1.87-1.84-4.28-4.18-3.94-2,.29-2.84,2.34-2.35,4.16-2.86.4-5.26-1.91-5.84-4.55a6.44,6.44,0,0,1,6.16-7.9c5.84,0,9,7.7,9.17,11.82M212.94,54l.28-1.62,1.62-.26-1.46-.76.27-1.63L212.47,51,211,50.19l.74,1.48-1.18,1.15,1.63-.25Zm-11.19,4.37c.2-4.12,3.34-11.82,9.18-11.82a6.44,6.44,0,0,1,6.16,7.9c-.57,2.63-3,4.94-5.84,4.55.49-1.83-.35-3.88-2.35-4.17-2.34-.34-3.7,2.07-4.17,3.92-1-.2-2.1-.29-2.94-.38Zm-3.68,2.64c3.77,0,6.81-.36,6.81-.59s-3-.61-6.83-.61-6.82.37-6.82.61,3.07.59,6.85.59m0,.85c-4.36,0-7.89-.65-7.89-1.44S193.68,59,198.05,59s7.89.64,7.89,1.44-3.53,1.43-7.89,1.43m6.29.26A3.17,3.17,0,0,0,209,64.7a3.52,3.52,0,0,1-3.34,3.3c-2.45,0-3.88-3.73-4.07-5.46h0a25.66,25.66,0,0,0,2.75-.4Zm-9.9.39c-.18,1.72-1.61,5.51-4.09,5.51a3.52,3.52,0,0,1-3.34-3.3,3.18,3.18,0,0,0,4.7-2.61v0c.9.18,1.81.32,2.73.41Zm3.61-28a27.28,27.28,0,0,0,3.15,2.73,9.32,9.32,0,0,1,4,7.21c0,4.48-3.73,8.41-4.2,13.81-.81-.08-1.62-.13-2.44-.13.1-5.48-.11-12.91-.48-18.28-.37,5.37-.58,12.8-.48,18.28-.82,0-1.63.05-2.44.13-.47-5.4-4.24-9.33-4.2-13.81a9.28,9.28,0,0,1,4-7.21,27.28,27.28,0,0,0,3.15-2.73m0,38.44a10.94,10.94,0,0,1-5.19-4.9,12.2,12.2,0,0,0,2.22-5.48c.76.06,1.6.09,2.45.09a43.36,43.36,0,0,0,.52,6.23,43.36,43.36,0,0,0,.52-6.23c.86,0,1.67,0,2.45-.09a12.2,12.2,0,0,0,2.22,5.48,10.85,10.85,0,0,1-5.19,4.9"/></svg>