<svg id="Capa_1" data-name="Capa 1" xmlns="http://www.w3.org/2000/svg" viewBox="0 0 256 256"><defs><style>.cls-1{fill:#e21523;}.cls-2{fill:#fff;}.cls-3{fill:#faba0d;}.cls-4{fill:#ac1843;}.cls-5{fill:#1e181b;}</style></defs><title>insignia-final</title><path class="cls-1" d="M32,0H224a32.1,32.1,0,0,1,32,32V224a32.09,32.09,0,0,1-32,32H32A32.09,32.09,0,0,1,0,224V32A32.1,32.1,0,0,1,32,0"/><path class="cls-2" d="M48.55,3.65h0a272.63,272.63,0,0,1,11.1,37.1,199.89,199.89,0,0,1,4.59,33.46C66.82,128.65,42.87,166.56,5,187.72l-1.33-2.94c36.81-20.57,60.1-57.45,57.59-110.39a196.68,196.68,0,0,0-4.5-32.86,270.88,270.88,0,0,0-11-36.61h0v0"/><path class="cls-2" d="M187.55,3.66c22.36,48.69,29,89.31,24.5,121.69-3.83,27.34-15.66,48.83-32.82,64.34s-39.58,25-64.68,28.44C80.27,222.82,41,216.18,3.58,198l1.28-2.64c36.91,18,75.58,24.53,109.3,19.92,24.52-3.36,46.42-12.63,63.11-27.72s28.16-35.94,31.89-62.57C213.63,93.09,207,53,184.91,4.88"/><path class="cls-2" d="M3.16,60.33h0l0,0h0Q6,56.86,8.73,53.38t5.52-7.26A433.78,433.78,0,0,0,41.89,3.39l2.5,1.76A436,436,0,0,1,16.53,48.21c-1.86,2.51-3.71,5-5.56,7.32s-3.76,4.76-5.61,7l-.85-.87"/><path class="cls-2" d="M28.15,250.46a119.32,119.32,0,0,0,18.75-21c10.91-15.94,14.85-32.19,12.72-48.13s-10.37-31.77-23.79-46.67A180.2,180.2,0,0,0,3.58,107l1.55-2.8A184,184,0,0,1,37.91,132.3c13.89,15.41,22.42,31.8,24.64,48.54s-1.87,33.88-13.29,50.58A122.72,122.72,0,0,1,30,253"/><path class="cls-2" d="M5.28,51.47c.83.82,1.6,1.6,2.31,2.32C23.16,69.83,33,88,34.09,107.23s-6.74,39.52-26.52,59.66c-.82.84-1.61,1.63-2.39,2.39L3.23,166.8c.84-.81,1.63-1.59,2.35-2.33,19-19.39,26.56-38.74,25.56-57S20.6,71.68,5.57,56.2c-.79-.81-1.53-1.56-2.25-2.27"/><path class="cls-3" d="M56.64,25.6A10.67,10.67,0,1,1,46,36.27,10.67,10.67,0,0,1,56.64,25.6"/><path class="cls-4" d="M29,0H227V0a29,29,0,0,1,29,29h0V227h0a28.92,28.92,0,0,1-8.5,20.48h0A28.87,28.87,0,0,1,227,256v0H29v0a28.93,28.93,0,0,1-20.49-8.5v0A28.87,28.87,0,0,1,0,227H0V29H0A29,29,0,0,1,29,0V0ZM227,8.53H29A20.59,20.59,0,0,0,8.52,29h0V227h0a20.42,20.42,0,0,0,6,14.45h0a20.44,20.44,0,0,0,14.46,6H227a20.45,20.45,0,0,0,14.45-6h0a20.42,20.42,0,0,0,6-14.45h0V29h0A20.61,20.61,0,0,0,227,8.52h0"/><path class="cls-5" d="M181.67,119.74c1.48-9.35-11.48-17-15.07-4.55l-3,.28c-1.25-4.53-1.23-10,0-16-12.56-17-28.47-15.45-47.52-14.3-1.07.07-3.88,15.74-4.93,15.89a5.15,5.15,0,0,1-2.13.08c-.79-.07,1.74-6.66,1-6.83s-2.06-.3-3-.4c-.73-.07-.85,4.34.6,7.18,1.29,2.51,4.19,3.49,3.5,3.51-1,0-3.78,2.82-5.14,2.5-1.13-.27,2,3.66.79,3.13-.72-.31-5-1.2-4.62-.29l1.19,2.88a40,40,0,0,0-4.21,11.86l.54,3.91A10.27,10.27,0,0,0,97,134.1l.67,3.24a1.91,1.91,0,0,1,2.17-.77l2.94,3.54,1.43.82,7.43-2.51-.29,1-5.7,2.85-3.12-.71-2-1.82c-2.35.08-4.45,1-5.11,3.93-1.38,2.05-1.31,5.11-.25,8.85a2.44,2.44,0,0,0,3.19-.64l.89-1.18,2.87-.43,2.57-.35.56-1.61,2.71.54,2.38,1.21,2.78.14,1.34-2,.44,2.32,4.09-.28,1-2.13,1.27,2.79,5-.13,3.35,2.51-4.42-1.46-3.67.18-4.31,0-4.47-.07-3.63.13a2.65,2.65,0,0,0-2.47,2.44l1,1.92.18,4.85,5,.91,4.4.77-1.23,1-10-1.09-1.25,5.31.46,4.34,2.4,1.38-.4-3.58c-.4-2.57,1.21-2.81,2.37-.71l1.8,4.08,1.7,2.17,3.93,2c7.77.76,14.83-2.77,21.68-7.51l-11.4,8.8-11.42,1.28c-.27,1.18.22,9.55,2.81,9.31,2.32-.21,5.54-1.6,9.13-3.47,8.44-4.41,18.88-11.49,24.24-12.17,1.67-.21,1.86-.2,2.46.12l-26,13.63c3-.67,9.06-.68,11.86.8,3.77,2,7,.13,9.59.59a10.09,10.09,0,0,1,7.57-.29l4.13-.5,13.24,1,5,.89-28.79,20.76,2.91.53,28.32-21.19,9.12,1.23-5.83,1.07L152,225.41l-3.49-.39,7.19-8-3.27,0-11.06,12.41-9.42.94-4.25-.84-5.7-1.1,6.59-5.73-9.12,5.56-2.21-.64,8.07-5.81,27.81-15.41-27.53,12.85c-3.06,1.68-6.18,2.88-9.74.6l-3.31,7.62-20.48-4.83,3.6-9.33-23.74,5.43,5.27-5.5L68.47,218l-17.26-.32,7.07-2.48a121.57,121.57,0,0,1,24.08-5.91l13.63-6-3.3-5.53,3.18-9.52,2.68-7.31,2.07-4.2L97.1,172.8c-1.51-2.38-3.89-4.22-4.53-7.13-1.11-4.6-3.09-7.62-3.33-13.8l-1.89-5.34-3.51-15.67L82,127.24c-13.46-1.44-28.53-5.11-39.53-11.77C29.24,109.7,29.74,92.65,43.18,85c9.94-6.5,21.72-10.28,35.89-13L81.6,60.39,83,60.25,81.4,71.35l8.84-1.57L90,66.13l8.28-5.6,4.66-3.11,14.78-5.54,3.7-8,.27-11.19-3-4.45,1.07,4.54c-2.35,6.86-2.27,10.87-1.07,13.88L116,51.18,93.39,58.5c-8,2.87-9.93.55-6.23-7.29L105,33.06,108.71,30l7.45-4.38A230.65,230.65,0,0,1,156.5,44.86L162.56,66c-8.53-1.42-17.07-1.51-25.6-1.63l-.27,1.78c17.21.24,35,.46,52.88,3.39,10.26,1.54,18.43,7.41,25.51,12.31,9.78,7.7,11.39,15.85,1.06,24.67A133.84,133.84,0,0,1,182.73,120c1.51.32-4.37,11.17-5.92,11.91.16-.28-4.52,1.23-3.92,3.3,1,3.58-3.35,6.72-3.36,7.24l-.08,11.12,3.4.12c.19.86,3.54,2.59,3.71,3.44.55,2.68.51,4.57.95,7.25.58,3.6,6.41,6.49,7.25,9,1.55,7.62.56,14.48.42,13.07l-1.31-12.86c-.07-.76-7.69-6.81-7.45-9s-.61-4.43-.72-6.91c0-.93-2.92-2.1-2.95-3.05,0-.24-.74.7-1.71,2-.69,1-.48,2.66-1.22,3.69-1.23,1.72-3.29,2.57-3.28,2.28,0-.56,1.82-2.22,1.62-3.82-.49-3.89,1.28-15.81,0-16.15-.91-.24-5.69-1.65-5.51-3.06a15.12,15.12,0,0,0,.07-2.22,5.79,5.79,0,0,0,1.53,2.63,7.48,7.48,0,0,0,3.91,1.5c1.61-.08,4-3.48,4.15-6,.27-3.59,4.1-4.42,4.06-4.4-.31.06,1.87-2.19,3.31-5a21.88,21.88,0,0,0,2-6.43m-63.41,8.12-.42.75c2.32.51,2.71,3,2.15,7l8.29,6.78,1.83,10.23.21-9.47c3.56,1.11,5.64,5.49,6.9,11.19-.47-5.11-1.43-11.28-5.92-13.78s-7.54-6.46-9.7-11.52Zm-7.72,8.7a7.67,7.67,0,0,1,7.44-.46,31.65,31.65,0,0,1-7.44.46m57.64-15.18c-1.12-2.2-.38-2.32,2.34-1.89l2.07,2.7a6.52,6.52,0,0,1-.36,4.78,8.68,8.68,0,0,1-8.19,1.79c3.6-1,9.76-1.69,5.58-7.11Zm6.61,8.12c6-5.88,7.92-12,1.61-17.52-1.88-1.65-7.57-1-7.66,1.82,2-2,4-2.18,6.24-.57,4.75,4.84,4,10.46-.19,16.27m-39.62-9c-8.4,3.38-15.8,4-19.59-5.27l4.3-.65,4.63,1.51-3.66.1-.21,1.84L118.16,117l3.66,3.77c4.74,1.11,9.79,1.07,12-1ZM114.5,99.87l-.75,2.15,4.3,2.16-.32,3.23a3.14,3.14,0,0,0-2.62,3l.58,2.59L126,114.19l3.14-1.29-.79-1.65.66-.83,1.59.57,1.53,1.69,2.7.21-3.13-3.12-5.06-1.5-3.76-1.94.21-1.72,5.93-1.29,8.18,3.23,6.56.21,4,4-2.15-6.56-8.29-1.4-3-4.74c-2.16-.88-4.42-1.88-6.57-.75l-2.69,2"/><circle id="fondo" class="cls-4" cx="198" cy="198" r="32.5"/><path id="rizo" class="cls-2" d="M199.57,170.38a1.25,1.25,0,0,0,.17-.49,1.92,1.92,0,0,1,.22-.51,1.49,1.49,0,0,1,.33-.27h0a24.22,24.22,0,0,1,2.54.35,1.19,1.19,0,0,0-.36.26,2.16,2.16,0,0,0-.26.47,1.19,1.19,0,0,1-.22.47,1.29,1.29,0,0,1-.38.28l0,0c-.81-.13-1.63-.21-2.44-.26A1.56,1.56,0,0,0,199.57,170.38Zm3.29-.93Zm-.54,1.6c.81.15,1.6.34,2.39.56l0,0a1.41,1.41,0,0,0,.42-.22,1.57,1.57,0,0,0,.28-.44,2,2,0,0,1,.32-.44,1.79,1.79,0,0,1,.39-.2h0c-.82-.26-1.64-.5-2.49-.68h0a1.76,1.76,0,0,0-.37.23,2.48,2.48,0,0,0-.27.47,1.58,1.58,0,0,1-.23.47A2,2,0,0,1,202.32,171.05Zm-6.1-2Zm-.81,1.76a1.57,1.57,0,0,0,.3-.38,1.08,1.08,0,0,0,.09-.5,2.42,2.42,0,0,1,.13-.53,1.64,1.64,0,0,1,.29-.35c-.85.07-1.71.17-2.55.32v0a1.32,1.32,0,0,0-.26.36,1.88,1.88,0,0,0-.07.53,1.47,1.47,0,0,1,0,.51,1.72,1.72,0,0,1-.26.4,22.19,22.19,0,0,1,2.42-.4Zm-19.95,11.91a1.36,1.36,0,0,0,.13.42,2.79,2.79,0,0,0,.38.39,1.24,1.24,0,0,1,.38.34,1.57,1.57,0,0,1,.16.46,22.59,22.59,0,0,1,1.16-2.17l0,0a1.53,1.53,0,0,0-.11-.47,1.45,1.45,0,0,0-.36-.38,2.38,2.38,0,0,1-.34-.43,1.16,1.16,0,0,1-.08-.42,24.84,24.84,0,0,0-1.31,2.22Zm23.09-12.05h0a1.52,1.52,0,0,0,.34-.33,1.32,1.32,0,0,0,.16-.51,2.34,2.34,0,0,1,.19-.5,1.75,1.75,0,0,1,.33-.28h0c-.85-.05-1.71-.06-2.57,0v0a1.47,1.47,0,0,0-.29.32,2.23,2.23,0,0,0-.15.52,1.49,1.49,0,0,1-.1.51,1.83,1.83,0,0,1-.32.36C196.93,170.68,197.74,170.66,198.55,170.67Zm7.36,46.25a17.93,17.93,0,0,0-2.64,1.1,3.45,3.45,0,0,0-.33.16,1.45,1.45,0,0,0-.11.51c0,.15,0,.39,0,.55a1.92,1.92,0,0,1-.32.83,9.08,9.08,0,0,0,2.63-1.06l.42-.22a3,3,0,0,0,.1-.32,1.68,1.68,0,0,0,.06-.45c0-.15-.12-.26-.06-.47a3,3,0,0,1,.29-.63Zm-7.4,3.07a4.17,4.17,0,0,0,1.36-.91c.12-.11.46-.36.57-.48s-1.09-.92-.88-1.57c-1.22,1.07-1.71,1.6-2.72,1.6-.26.05,0,0,0,0a1.59,1.59,0,0,0-.26.5,1.88,1.88,0,0,0-.1.47,2.44,2.44,0,0,0,0,.54A4.24,4.24,0,0,0,198.51,220Zm-1.66-1.85a1.9,1.9,0,0,0,.92-.39l.44-.34a3.06,3.06,0,0,0-2.66-1.18c-.19,0-.46-.06-.59.15h0s-.91,1.11-.54,1.5a2.83,2.83,0,0,1,1.05,0,3.09,3.09,0,0,1,1.13.19Zm5.26,4.49s1.24-1.16,2-.8l-.17-.16a4.41,4.41,0,0,0-2.42-.86c-.76,0-2.11.2-2.41.7a4,4,0,0,1,1.87,1C201.07,222.53,201.38,222.45,202.11,222.63Zm-1.68-3.36-.44.37c-.1.07-.56.35-.62.4s.82.4,2.33.18v0a1.52,1.52,0,0,0,.26-.35,2.76,2.76,0,0,0,.16-.58,3.18,3.18,0,0,0,.06-.43,1.59,1.59,0,0,1,.07-.38c-.17.09-1.07.39-1.07.39l-.41.09c-.12.1-.23.23-.34.32Zm-4.06-.64a1.72,1.72,0,0,0-.26.48,2.54,2.54,0,0,0-.14.47c-.14.65,0,.65,0,.65a9.32,9.32,0,0,1-3.2-.78s.23-.29.3-.36.23-.14.3-.29a1.56,1.56,0,0,1,.68-.45,14.07,14.07,0,0,0,2,.3Zm5.88-2.67a4.6,4.6,0,0,0-2.2.82h0c-.41.45.91,1.48.91,1.48h0a2.14,2.14,0,0,1,1.82-.68,19.09,19.09,0,0,1,1.94-.77,2.67,2.67,0,0,0-2.46-.86Zm-20.4-40.05a1.35,1.35,0,0,1,.22.47,1.3,1.3,0,0,1,0,.48c.61-.55,1.24-1.07,1.9-1.56h0a1.49,1.49,0,0,0,.07-.47,1.45,1.45,0,0,0-.18-.49,2.21,2.21,0,0,1-.15-.5,1.49,1.49,0,0,1,.08-.43,25.62,25.62,0,0,0-2.05,1.55v0a1.2,1.2,0,0,0,0,.42A1.87,1.87,0,0,0,181.85,175.91Zm-3.08,1.91Zm-1.59,2.05a1.55,1.55,0,0,0,.07.43,2.38,2.38,0,0,0,.34.43,1.32,1.32,0,0,1,.34.4,1.78,1.78,0,0,1,.09.47c.45-.69.93-1.36,1.44-2h0a1.47,1.47,0,0,0,0-.47,1.43,1.43,0,0,0-.31-.42,2.78,2.78,0,0,1-.28-.47,1.56,1.56,0,0,1,0-.43,22.47,22.47,0,0,0-1.58,2Zm2.11-2.16a2,2,0,0,0,.27.47,1.27,1.27,0,0,1,.28.44,1.47,1.47,0,0,1,0,.47h0a23.44,23.44,0,0,1,1.67-1.79h0a1.47,1.47,0,0,0,0-.47,1.31,1.31,0,0,0-.26-.46,3.16,3.16,0,0,1-.22-.5,1.56,1.56,0,0,1,0-.43h0a22.45,22.45,0,0,0-1.84,1.81v0a1.66,1.66,0,0,0,0,.44Zm10.41-7.3Zm.33,1.66a21.2,21.2,0,0,1,2.35-.71h0a1.59,1.59,0,0,0,.26-.41,1.51,1.51,0,0,0,0-.52,2.32,2.32,0,0,1,.05-.53,1.31,1.31,0,0,1,.24-.37,24,24,0,0,0-2.49.65v0a1.6,1.6,0,0,0-.23.38,2.44,2.44,0,0,0,0,.54,1.15,1.15,0,0,1,0,.52,1.46,1.46,0,0,1-.22.43Zm-5.45,2.37a1.52,1.52,0,0,1-.1.47c.68-.46,1.38-.89,2.09-1.28h0a2,2,0,0,0,.14-.46,1.46,1.46,0,0,0-.12-.51,2,2,0,0,1-.08-.54,1.25,1.25,0,0,1,.14-.41,22.71,22.71,0,0,0-2.25,1.27v0a1.5,1.5,0,0,0-.09.42,2.42,2.42,0,0,0,.13.53A1.41,1.41,0,0,1,184.58,174.44Zm2.73-1.58a1.77,1.77,0,0,1-.15.46,22.44,22.44,0,0,1,2.23-1h0a2.11,2.11,0,0,0,.2-.43,1.7,1.7,0,0,0,0-.51,2.44,2.44,0,0,1,0-.54,1.41,1.41,0,0,1,.19-.39,24.64,24.64,0,0,0-2.38,1v0a1.29,1.29,0,0,0-.16.41,2.48,2.48,0,0,0,.06.54A1.24,1.24,0,0,1,187.31,172.86Zm5.44,46.58Zm24.37-41.89Zm-.93,1a1.56,1.56,0,0,1-.48,0h0a21.55,21.55,0,0,1,1.56,1.9v0a1.55,1.55,0,0,0,.48.07,1.08,1.08,0,0,0,.48-.18,2.46,2.46,0,0,1,.51-.15,1.56,1.56,0,0,1,.43.08,25.62,25.62,0,0,0-1.55-2.05h0a1.32,1.32,0,0,0-.44,0,2,2,0,0,0-.51.2,1.58,1.58,0,0,1-.47.23ZM214,176.29a1.94,1.94,0,0,1-.48,0c.62.53,1.21,1.09,1.78,1.68v0a1.29,1.29,0,0,0,.48,0,1.38,1.38,0,0,0,.46-.25,2.16,2.16,0,0,1,.49-.22,1.31,1.31,0,0,1,.44,0,24.19,24.19,0,0,0-1.81-1.84h0a1.3,1.3,0,0,0-.44,0,2.37,2.37,0,0,0-.47.25,1.31,1.31,0,0,1-.44.33Zm-2.51-1.92a1.86,1.86,0,0,1-.48.09,23.44,23.44,0,0,1,2,1.43v0a1.48,1.48,0,0,0,.47-.05,1.28,1.28,0,0,0,.43-.3,2.69,2.69,0,0,1,.46-.28,1.63,1.63,0,0,1,.44,0,25.68,25.68,0,0,0-2-1.58h0a1.25,1.25,0,0,0-.43.07,2.36,2.36,0,0,0-.44.32,1.39,1.39,0,0,1-.41.35Zm.64-1.17Zm10.07,12.93Zm-.71.51a1.46,1.46,0,0,1-.51,0,1.72,1.72,0,0,1-.43-.21,24.41,24.41,0,0,1,.71,2.35v0a1.59,1.59,0,0,0,.41.26,1.45,1.45,0,0,0,.51,0,2.48,2.48,0,0,1,.54.06,1.69,1.69,0,0,1,.36.23c-.18-.84-.39-1.67-.65-2.49h0a1.47,1.47,0,0,0-.39-.21,2.35,2.35,0,0,0-.53,0Zm1.6,2.71Zm-2.83-5.7a1.25,1.25,0,0,1-.51.1,1.83,1.83,0,0,1-.45-.15,22.44,22.44,0,0,1,1,2.23v0a1.4,1.4,0,0,0,.43.2,1.48,1.48,0,0,0,.51,0,2.44,2.44,0,0,1,.54,0,1.41,1.41,0,0,1,.39.19c-.28-.81-.6-1.61-1-2.39h0a1.56,1.56,0,0,0-.41-.15A2.46,2.46,0,0,0,220.21,183.65Zm-1.6-2.79a1.48,1.48,0,0,1-.5.17,1.58,1.58,0,0,1-.47-.1c.47.68.9,1.37,1.3,2.09v0a1.74,1.74,0,0,0,.46.13,1.25,1.25,0,0,0,.5-.11,2.54,2.54,0,0,1,.54-.09,1.53,1.53,0,0,1,.41.14,22.57,22.57,0,0,0-1.27-2.24h0a2.07,2.07,0,0,0-.43-.1,2.4,2.4,0,0,0-.53.12Zm2.24,2.2Zm-30,39.82a3.54,3.54,0,0,0,1.52,0,1.11,1.11,0,0,0,.43-.28h0a2.64,2.64,0,0,1-1-2.12,1.8,1.8,0,0,1-1.4-1.43,4.28,4.28,0,0,0,.45,3.83Zm31.4-33.12a1.45,1.45,0,0,1-.51,0,1.53,1.53,0,0,1-.4-.26,22.19,22.19,0,0,1,.4,2.42v0a1,1,0,0,0,.87.39,2.4,2.4,0,0,1,.53.12,1.81,1.81,0,0,1,.33.29c-.07-.85-.17-1.71-.32-2.56h0a1.24,1.24,0,0,0-.35-.25A2.45,2.45,0,0,0,222.27,189.76Zm-28.19,32.36a2.45,2.45,0,0,1,1,.22s1.18-1.23,1.3-1.18a6.23,6.23,0,0,0-3.84-.25l.24.41.62.86Zm-3.66-3.07Zm33.07-26.41ZM194,218.34Zm0,0Zm-.63-2a4.5,4.5,0,0,0-2.64,2h0s.27,1.38,1.17,1.42a4,4,0,0,1,1.42-1.56l.17-.2a2.36,2.36,0,0,1,.37-1.76Zm15.78-44.8Zm-3.41,0a1.35,1.35,0,0,1-.43.22,23.36,23.36,0,0,1,2.29.86h0a1.77,1.77,0,0,0,.45-.18,1.37,1.37,0,0,0,.33-.39,2.34,2.34,0,0,1,.37-.4,2,2,0,0,1,.41-.14,22.75,22.75,0,0,0-2.37-1h0a1.2,1.2,0,0,0-.4.18,2.72,2.72,0,0,0-.34.42A1.18,1.18,0,0,1,205.76,171.59Zm2.93,1.2a1.57,1.57,0,0,1-.46.16c.74.35,1.47.74,2.17,1.16l0,0a1.53,1.53,0,0,0,.47-.11,1.27,1.27,0,0,0,.38-.35,2.79,2.79,0,0,1,.42-.35,1.56,1.56,0,0,1,.43-.08c-.72-.47-1.46-.91-2.23-1.31h0a1.21,1.21,0,0,0-.42.13,2.79,2.79,0,0,0-.39.38,1.28,1.28,0,0,1-.34.39Zm-21,44.12a2,2,0,0,1-.38.39,1.48,1.48,0,0,1-.42.14,23.58,23.58,0,0,0,2.38,1h0a1.38,1.38,0,0,0,.39-.18,2.72,2.72,0,0,0,.34-.42,1.3,1.3,0,0,1,.29-.43,1.46,1.46,0,0,1,.43-.22,23.36,23.36,0,0,1-2.29-.86h0a2.2,2.2,0,0,0-.45.17A1.57,1.57,0,0,0,187.72,216.91Zm18,5.25a2.94,2.94,0,0,0,.36-2.93l-1.84.84a1,1,0,0,1-.21,1.2s1.79.78,1.69.89Zm1.11,4.86.5.82,1.36-1.46a5.2,5.2,0,0,0-.65-.51Zm.7-1.53-1.2,1.07.17.17,1.2-1.06Zm4.86-9.88Zm-2.87,1.69Zm2-2.74a1.86,1.86,0,0,1,.09-.47,21.33,21.33,0,0,1-2.09,1.29h0a1.62,1.62,0,0,0-.14.46,1.46,1.46,0,0,0,.12.51,2.52,2.52,0,0,1,.08.54,1.51,1.51,0,0,1-.13.41,24.6,24.6,0,0,0,2.23-1.27v0a1.23,1.23,0,0,0,.1-.42,2.42,2.42,0,0,0-.13-.53,1.16,1.16,0,0,1-.15-.5Zm-6.35,10.72.85.88,1.3-1.11a1.47,1.47,0,0,0-2.15.23Zm3.63-9.14a1.49,1.49,0,0,1,.15-.45,22.61,22.61,0,0,1-2.24,1h0a2.18,2.18,0,0,0-.22.43,1.3,1.3,0,0,0,0,.52,2,2,0,0,1-.07.55,2.32,2.32,0,0,1-.16.44c.8-.28,1.75-.66,2.54-1h0a1.56,1.56,0,0,0,.15-.41,2.35,2.35,0,0,0-.07-.54,1.61,1.61,0,0,1-.1-.53ZM195.46,223a1.67,1.67,0,0,1-.59,1.91c1.43.37,3-1.16,3-1.16a5.6,5.6,0,0,0-1.69-.58Zm4.75-.34a7.75,7.75,0,0,0-2.92-1.27l-1.58,1.1,1.89.63c.57.15.71.42,1.43.88,0,0,1.66-.95,1.18-1.34Zm-5.33.46-.48,0a2.38,2.38,0,0,1-.91-.18h0c-.26.78-2,.61-2,.61a4.43,4.43,0,0,0,2.4,1.2h0s1-.22,1-1.66Zm11.88,1.16h0c-.37-.49-.69-.92-.87-1.12a6.84,6.84,0,0,0-.76-.65,1.76,1.76,0,0,0-2.37.36,5.35,5.35,0,0,1,1.7,1.51l.23.37s1.21-1.27,2.06-.47Zm-2.06.51v0h0ZM202.47,223A3.29,3.29,0,0,1,201,223c.06.47-1.33,1.4-1.33,1.4a3.67,3.67,0,0,0,2.19.54,2.73,2.73,0,0,0,1.62-.65,2.86,2.86,0,0,1-1-1.22Zm-27.36-39.66Zm48.33,13.35a1.26,1.26,0,0,0-.28-.33,2,2,0,0,0-.5-.22,1.19,1.19,0,0,1-.49-.17,1.38,1.38,0,0,1-.32-.36c0,.82-.12,1.63-.24,2.44v0a1,1,0,0,0,.75.61,2.19,2.19,0,0,1,.48.25,1.29,1.29,0,0,1,.25.36c.16-.84.28-1.69.36-2.54Zm-.34,2.57Zm-8.83,13.79a1.37,1.37,0,0,1-.23-.47,1.94,1.94,0,0,1,0-.48,21.87,21.87,0,0,1-1.9,1.56h0a1.5,1.5,0,0,0-.08.47,1.45,1.45,0,0,0,.18.49,2.15,2.15,0,0,1,.15.51,1.31,1.31,0,0,1-.08.43c.71-.49,1.4-1,2.06-1.56v0a1.57,1.57,0,0,0,0-.43,3.07,3.07,0,0,0-.2-.5Zm-19.39,10v0h0Zm27-20.25a2.34,2.34,0,0,0-.4-.37,1.57,1.57,0,0,1-.41-.32,1.85,1.85,0,0,1-.18-.44,22.35,22.35,0,0,1-1,2.22h0a1.53,1.53,0,0,0,.14.46,1.58,1.58,0,0,0,.37.36,2.34,2.34,0,0,1,.37.4,1.44,1.44,0,0,1,.11.42h0a24.83,24.83,0,0,0,1.17-2.3v0A1.52,1.52,0,0,0,221.91,202.85Zm1.63-9.44h0a1.83,1.83,0,0,0-.32-.3,3.18,3.18,0,0,0-.53-.14,1.25,1.25,0,0,1-.5-.11,1.34,1.34,0,0,1-.36-.31h0c.06.81.09,1.63.07,2.45v0a2.2,2.2,0,0,0,.33.35,1.45,1.45,0,0,0,.5.15,2.69,2.69,0,0,1,.51.2,1.22,1.22,0,0,1,.28.32,24.83,24.83,0,0,0,0-2.59Zm-.83,6.25a3.24,3.24,0,0,0-.47-.28,1.21,1.21,0,0,1-.47-.23,1.67,1.67,0,0,1-.25-.4c-.15.81-.34,1.61-.56,2.39v0a1.72,1.72,0,0,0,.23.42,1.37,1.37,0,0,0,.44.28,2,2,0,0,1,.44.32,1.41,1.41,0,0,1,.19.39h0A24.19,24.19,0,0,0,223,200v0a1.78,1.78,0,0,0-.25-.36Zm-5.36,11.52Zm-.53.11a1.92,1.92,0,0,0-.25-.47,1.46,1.46,0,0,1-.29-.44,1.83,1.83,0,0,1,0-.47c-.53.62-1.09,1.22-1.68,1.79h0a1.48,1.48,0,0,0,0,.47,1.29,1.29,0,0,0,.25.46,2,2,0,0,1,.22.5,1.25,1.25,0,0,1,0,.43q1-.85,1.83-1.8v0a1.38,1.38,0,0,0,0-.45ZM215,213.55Zm5.65-7.27a1.21,1.21,0,0,0-.13-.42,2.79,2.79,0,0,0-.38-.39,1.24,1.24,0,0,1-.38-.34,1.57,1.57,0,0,1-.16-.46,22.59,22.59,0,0,1-1.16,2.17l0,0a1.89,1.89,0,0,0,.11.47,1.27,1.27,0,0,0,.35.38,2.79,2.79,0,0,1,.35.42,1.26,1.26,0,0,1,.08.43,24.84,24.84,0,0,0,1.31-2.22Zm-1.73,2.85a1.55,1.55,0,0,0-.07-.43,2,2,0,0,0-.33-.44,1.59,1.59,0,0,1-.34-.39,1.86,1.86,0,0,1-.09-.47,23.29,23.29,0,0,1-1.43,2h0a1.57,1.57,0,0,0,.05.48,1.25,1.25,0,0,0,.3.42,2.43,2.43,0,0,1,.28.47,1.53,1.53,0,0,1,0,.43c.56-.65,1.09-1.33,1.59-2ZM223.52,196Zm-49.67,3.25a1.26,1.26,0,0,1,.51,0,1.67,1.67,0,0,1,.4.25,22.19,22.19,0,0,1-.4-2.42v0a1.52,1.52,0,0,0-.37-.3,1.48,1.48,0,0,0-.51-.09,2.4,2.4,0,0,1-.53-.12,1.81,1.81,0,0,1-.33-.29,24.52,24.52,0,0,0,.32,2.56h0a1.16,1.16,0,0,0,.36.25A1.91,1.91,0,0,0,173.85,199.24Zm-1.23-2.9Zm.46,3.3Zm16.8,22.5a2.5,2.5,0,0,0-.38.15l.1-.07a3.3,3.3,0,0,0-.79.6c-.19.19-.52.63-.91,1.1h0c.91-.78,2.06.57,2.06.57l0,0,.36-.36c.19-.16.38-.32.58-.46A2.53,2.53,0,0,1,189.88,222.14Zm-17-26.25a2.23,2.23,0,0,0,.52.15,1.49,1.49,0,0,1,.51.1,2.17,2.17,0,0,1,.36.32,22.36,22.36,0,0,1-.08-2.45v0a1.61,1.61,0,0,0-.34-.35,1.4,1.4,0,0,0-.49-.15,2.25,2.25,0,0,1-.51-.2,1.43,1.43,0,0,1-.28-.32,24.48,24.48,0,0,0,0,2.57h0A1.3,1.3,0,0,0,172.92,195.89Zm3,9.45a1.25,1.25,0,0,1,.51-.1,1.42,1.42,0,0,1,.45.16,23.62,23.62,0,0,1-1-2.24v0a1.89,1.89,0,0,0-.44-.19,1.47,1.47,0,0,0-.51,0,2,2,0,0,1-.54,0,1.41,1.41,0,0,1-.39-.19,23.44,23.44,0,0,0,1,2.39h0a1.56,1.56,0,0,0,.41.15A2.48,2.48,0,0,0,175.91,205.34ZM174,202.86Zm.13-17.09a1.59,1.59,0,0,0,.18.4,2.34,2.34,0,0,0,.43.33,1.55,1.55,0,0,1,.43.29,1.72,1.72,0,0,1,.21.43,23.25,23.25,0,0,1,.87-2.28h0a1.66,1.66,0,0,0-.17-.45,1.75,1.75,0,0,0-.38-.34,2.46,2.46,0,0,1-.41-.38,1.53,1.53,0,0,1-.14-.41,24.87,24.87,0,0,0-1,2.37ZM172.58,193Zm.59-4a1.2,1.2,0,0,0,.23.37,2.31,2.31,0,0,0,.48.28,1.53,1.53,0,0,1,.46.23,1.76,1.76,0,0,1,.27.4,22.36,22.36,0,0,1,.56-2.39v0a1.72,1.72,0,0,0-.23-.42,1.57,1.57,0,0,0-.44-.28,2.19,2.19,0,0,1-.44-.31,1.41,1.41,0,0,1-.19-.39c-.27.81-.5,1.64-.69,2.48Zm-.51,3.3a1.26,1.26,0,0,0,.28.33,2,2,0,0,0,.5.22,1.19,1.19,0,0,1,.49.17,1.38,1.38,0,0,1,.32.36c0-.82.13-1.63.25-2.44v0a1.75,1.75,0,0,0-.28-.39,1.56,1.56,0,0,0-.47-.22,2.19,2.19,0,0,1-.48-.25,1.45,1.45,0,0,1-.25-.36c-.16.84-.28,1.69-.36,2.54Zm.34-2.57Zm1.66,12.66a1.46,1.46,0,0,1,.51,0,1.72,1.72,0,0,1,.43.21c-.27-.77-.51-1.55-.71-2.34v0a1.55,1.55,0,0,0-.41-.25,1.21,1.21,0,0,0-.5,0,2.51,2.51,0,0,1-.55-.06,1.41,1.41,0,0,1-.36-.24c.18.84.39,1.67.65,2.49h0a1.28,1.28,0,0,0,.38.21,2.62,2.62,0,0,0,.56,0Zm11.6,14.75a1.87,1.87,0,0,0,.42-.13,2.79,2.79,0,0,0,.39-.38,1.41,1.41,0,0,1,.34-.39,1.9,1.9,0,0,1,.46-.15c-.74-.35-1.47-.74-2.17-1.16l0,0a1.53,1.53,0,0,0-.47.11,1.27,1.27,0,0,0-.38.35,2.72,2.72,0,0,1-.42.34,1.57,1.57,0,0,1-.43.09,24.74,24.74,0,0,0,2.22,1.3Zm-.35,8.82,1.3,1.52.54-.81-1.18-1.19C186.35,225.6,186.12,225.76,185.91,225.93ZM184,215.8Zm2.84,9.43,1.15,1.12.16-.19L187,225.05Zm.43-.57,1.26,1.16.88-.85A1.48,1.48,0,0,0,187.31,224.66Zm-2.63-10a1.86,1.86,0,0,1,.47-.09,21.39,21.39,0,0,1-2-1.44v0a1.57,1.57,0,0,0-.48.05,1.35,1.35,0,0,0-.41.31,2.18,2.18,0,0,1-.46.28,1.6,1.6,0,0,1-.44,0q1,.84,2,1.59h0a1.49,1.49,0,0,0,.42-.08,2.07,2.07,0,0,0,.44-.34A1.41,1.41,0,0,1,184.68,214.63Zm-4.75-4.15a1.94,1.94,0,0,1,.48,0c-.55-.61-1.07-1.24-1.56-1.9v0a1.84,1.84,0,0,0-.47-.07,1.45,1.45,0,0,0-.49.18,2.23,2.23,0,0,1-.52.15,1.25,1.25,0,0,1-.42-.08,25.78,25.78,0,0,0,1.55,2.06h0a2.09,2.09,0,0,0,.43,0,2.28,2.28,0,0,0,.51-.21A1.35,1.35,0,0,1,179.93,210.48Zm-3-1.67Zm.56-.67A1.23,1.23,0,0,1,178,208a1.51,1.51,0,0,1,.47.09,22.44,22.44,0,0,1-1.29-2.08v0a1.45,1.45,0,0,0-.46-.14,1.58,1.58,0,0,0-.51.12,2.34,2.34,0,0,1-.53.08,1.42,1.42,0,0,1-.41-.14,23.38,23.38,0,0,0,1.26,2.24h0a1.23,1.23,0,0,0,.42.1,2.42,2.42,0,0,0,.53-.13Zm4.66,4.57a1.3,1.3,0,0,1,.48,0,23.7,23.7,0,0,1-1.79-1.68v0a1.55,1.55,0,0,0-.48,0,1.35,1.35,0,0,0-.46.24,2.31,2.31,0,0,1-.51.22,1.56,1.56,0,0,1-.43,0,22.45,22.45,0,0,0,1.81,1.84h0a1.55,1.55,0,0,0,.43,0,2.37,2.37,0,0,0,.47-.26,1.27,1.27,0,0,1,.46-.27Zm-.8,1.08ZM179,211.46Z"/><path id="flor" class="cls-2" d="M194.36,198.4h0a23.83,23.83,0,0,0-2.92.4c-.48-1.87-1.84-4.28-4.18-3.94-2,.29-2.84,2.34-2.35,4.17-2.86.39-5.26-1.92-5.84-4.55a6.44,6.44,0,0,1,6.16-7.91c5.84,0,9,7.7,9.17,11.82m7.39,0c.2-4.12,3.34-11.82,9.18-11.82a6.44,6.44,0,0,1,6.16,7.9c-.57,2.63-3,4.94-5.84,4.55.49-1.83-.35-3.88-2.35-4.17-2.34-.34-3.7,2.07-4.17,3.92-1-.2-2.1-.29-2.94-.38Zm-3.69,3.49c-4.36,0-7.89-.65-7.89-1.44s3.51-1.44,7.88-1.44,7.89.64,7.89,1.44-3.53,1.43-7.89,1.43m6.4.26a3.17,3.17,0,0,0,4.69,2.55,3.52,3.52,0,0,1-3.34,3.3c-2.46,0-3.88-3.73-4.08-5.46h0a25.3,25.3,0,0,0,2.75-.4Zm-10.09.39c-.17,1.72-1.61,5.51-4.08,5.51a3.52,3.52,0,0,1-3.34-3.3c2.12,1,4.28-.06,4.7-2.61v0c.9.18,1.81.32,2.73.41Zm3.69-28a27.28,27.28,0,0,0,3.15,2.73,9.32,9.32,0,0,1,4,7.21c0,4.48-3.73,8.41-4.2,13.81-.81-.08-1.62-.13-2.44-.13.1-5.48-.11-12.91-.48-18.28-.37,5.37-.58,12.8-.48,18.28-.82,0-1.63.05-2.44.13-.47-5.4-4.24-9.33-4.2-13.81a9.28,9.28,0,0,1,4-7.21,27.28,27.28,0,0,0,3.15-2.73m0,38.44a10.94,10.94,0,0,1-5.19-4.9,12.2,12.2,0,0,0,2.22-5.48c.76.06,1.6.09,2.45.09a43.36,43.36,0,0,0,.52,6.23,43.36,43.36,0,0,0,.52-6.23c.86,0,1.67,0,2.45-.09a12.2,12.2,0,0,0,2.22,5.48,10.85,10.85,0,0,1-5.19,4.9"/></svg>