<svg id="Capa_1" data-name="Capa 1" xmlns="http://www.w3.org/2000/svg" viewBox="0 0 256 256"><defs><style>.cls-1{fill:#fbbc43;}.cls-2{fill:#e20613;}.cls-3{fill:#1d1d1b;}.cls-4{fill:#fff;}.cls-5{fill:#c61a27;}</style></defs><title>pin-lider</title><path class="cls-1" d="M128,245c64.44,0,117-52.56,117-117S192.44,11,128,11,11,63.56,11,128,63.56,245,128,245"/><polygon class="cls-2" points="132.09 19.73 146.39 97.54 94.02 237.94 127.82 243.88 177.77 109.43 226.24 70.61 208.23 46.84 172.76 75.25 162.36 18.8 132.09 19.73"/><path class="cls-3" d="M131.92,251l-46.51-8.17L139.83,97,124.51,13.61l43.1-1.32,9.46,51.38,32.28-25.85L235,71.7l-51.92,41.58Zm-29.29-18,21.08,3.71,48.72-131.15,45-36L207.1,55.87l-38.66,31L157.11,25.31l-17.45.53,13.28,72.28Z"/><path class="cls-4" d="M119.83,161.43q0,23.67-7.8,35.1v.37c-4.64,5.2-11.7,8-21.17,8-13.93,0-25.07-1.68-33.06-4.83a10.76,10.76,0,0,1-5-3.35c-1.12-1.3-1.67-3.53-1.67-6.31q0-6.69,5-6.69a19,19,0,0,1,6.13,1.3c-1.11-18.75-1.49-34.73-1.49-47.72,0-21.74.75-44.58,2.42-68.53L61,69.13h-.37c-3,0-4.46-2.6-4.46-7.62,0-3.9.93-6.49,2.79-8.17,1.67-1.3,4.27-2,8.17-2,6.13,0,10.77,1.3,14.3,4.27a11.75,11.75,0,0,1,4.83,10,12.16,12.16,0,0,1-1.3,5.94c-.93,1.67-1.86,2.6-3,2.6-.74,0-2-.74-3.9-2.41a12.4,12.4,0,0,0-5.2-3.16c-1.85,23.4-3,46.06-3,68.53,0,10,.75,26.55,1.86,50a106.33,106.33,0,0,0,17.27,2c7.61,0,13.74-2.42,18.2-7.43,1.3-3,2.42-8.91,3-17.64.56-5.76.93-9.48,1.3-11,.74-2.41,1.86-3.53,3.72-3.53,3.15,0,4.64,3.9,4.64,11.89"/><path class="cls-5" d="M90.86,208.54c-14.29,0-25.87-1.71-34.4-5.08a14,14,0,0,1-6.65-4.63c-1.49-1.71-2.35-4.63-2.35-8.43,0-9.6,6.64-10.34,8.67-10.34a17.4,17.4,0,0,1,2.2.16c-.81-14.91-1.21-29.33-1.21-42.94,0-21.2.72-42.93,2.14-64.64-2.93-.52-6.79-2.74-6.79-11.13,0-4.9,1.31-8.46,4-10.88,2.63-2.07,6-3,10.62-3,7.1,0,12.55,1.68,16.65,5.13,3.94,2.84,6.13,7.33,6.13,12.83a15.76,15.76,0,0,1-1.76,7.72c-.61,1.11-2.49,4.48-6.17,4.48-1.73,0-3.51-.89-5.91-3-1.68,22.69-2.5,43.11-2.5,62.27,0,9.66.7,25.55,1.71,46.86A87.91,87.91,0,0,0,89,185.44c6.46,0,11.39-1.88,15.06-5.75.65-1.77,1.85-6.18,2.46-15.9a110,110,0,0,1,1.41-11.61c1.6-5.24,4.82-6.29,7.26-6.29,8.3,0,8.3,11.69,8.3,15.54,0,16.06-2.56,27.91-7.8,36.19v.3l-.93,1.41C109.3,205.44,101.26,208.54,90.86,208.54ZM56.13,187.37c-.64,0-1.36,0-1.36,3,0,2.38.5,3.59.79,3.93.43.58,1.21,1.41,3.56,2.31,7.7,3.05,18.37,4.59,31.74,4.59,7.83,0,13.82-2.06,17.84-6.12l.31-.64c4.75-7,7.16-18.08,7.16-33,0-5-.61-7.07-1-7.88a3.86,3.86,0,0,0-.21.59c-.27,1.11-.72,5.75-1.16,10.24-.38,6-1.26,14.16-3.26,18.75l-.62,1c-5.1,5.74-12.15,8.65-20.93,8.65-4.24,0-9.93-.66-17.91-2.09l-2.87-.51-.14-2.92c-1.09-22.88-1.86-39.87-1.86-50.13,0-21,1-43.52,3-68.82l.34-4.3,4.19,1a16.14,16.14,0,0,1,6.77,4c.45.4.82.7,1.11.92,0,0,.07-.12.11-.18a8.68,8.68,0,0,0,.84-4.17,8.11,8.11,0,0,0-3.31-7.07C76.26,56,72.47,55,67.09,55c-3.55,0-5.18.69-5.93,1.27-.19.18-1.37,1.25-1.37,5.28,0,3.08.64,3.91.71,4l6.65-1.11L66.83,69c-1.59,22.92-2.4,45.89-2.4,68.27,0,15,.5,31,1.48,47.52l.33,5.52L61,188.46A15.18,15.18,0,0,0,56.13,187.37ZM82.57,70.58Z"/><path class="cls-5" d="M128,256A128,128,0,1,1,256,128,128.14,128.14,0,0,1,128,256Zm0-234A106,106,0,1,0,234,128,106.12,106.12,0,0,0,128,22Z"/></svg>