<svg id="Capa_1" data-name="Capa 1" xmlns="http://www.w3.org/2000/svg" viewBox="0 0 256 192"><defs><style>.cls-1{fill:#00407f;}.cls-2{fill:#1d1d1b;}.cls-3{fill:#d7e9f4;}</style></defs><title>distintivo</title><g id="caminante"><rect class="cls-1" width="256" height="192"/><path class="cls-2" d="M141.85,74.26l19.48-1.48c7,8.11,18.29,3.14,19.64-2.46l53.63-6.71,3.34-.42-1.1,1.29-2.72.79L159.29,86.93ZM96.71,105.07,21.89,126.73l-2.73.79-1.1,1.29,3.34-.42L75,121.68c1.35-5.6,12.59-10.57,19.65-2.46l19.47-1.48ZM141,117.9l31,52.34,1.12,1.91,1.84.77-.6-2.34-9.58-37.52c-8-.94-15.11-8.81-3.53-13.74l-2.11-13.63Zm-44.27-31L21.9,65.23l-2.72-.79-2.08.37,2.79,1.35L64.59,88c6.61-3.3,19.58-1.25,16.38,8l15.27,8.59Zm62.6,18.14,74.8,21.7,2.72.79,2.08-.37-2.79-1.35L191.41,104c-6.61,3.3-19.58,1.25-16.38-8l-15.27-8.59ZM141,74.1l31-52.33,1.14-1.9-.52-1.46-1.94,1.95L139.5,51.64c4.71,4.62,1.78,13.7-11.4,11.46L115.82,73.78ZM115,117.9,84,170.23l-1.13,1.91.52,1.45,1.94-2,31.15-31.28c-4.72-4.62-1.79-13.69,11.39-11.46l12.28-10.68Zm0-43.79L84.08,21.76,83,19.85l-1.84-.77.6,2.34L91.29,59c8,.93,15.11,8.8,3.53,13.74l2.11,13.63Z"/><path class="cls-3" d="M159.29,105.11l74.82,21.66,2.73.79,1.1,1.28-3.34-.41L181,121.72c-1.34-5.6-12.58-10.57-19.64-2.47l-19.48-1.47Zm-62.42.57-2.11,13.63c11.59,4.94,4.48,12.8-3.52,13.74l-9.59,37.53-.59,2.34,1.83-.78,1.13-1.9,31-52.35Zm62.26-19.36,2.11-13.63c-11.59-4.94-4.48-12.8,3.52-13.74l9.59-37.53.6-2.34-1.84.78L172,21.76,141,74.11Zm.67,18.23L175.06,96c-3.2-9.22,9.77-11.27,16.38-8L236.15,66.2l2.78-1.36-2.07-.37-2.73.8L159.33,87ZM96.21,87.45,80.94,96c3.2,9.22-9.77,11.27-16.38,8l-44.71,21.8-2.78,1.35,2.07.37,2.73-.79L96.67,105Zm19.57,30.8,12.28,10.68c13.18-2.24,16.1,6.83,11.39,11.46l31.15,31.27,1.94,2,.52-1.45-1.13-1.91-31-52.33Zm24.45-44.49L127.94,63.08c-13.18,2.23-16.1-6.84-11.39-11.47L85.4,20.34l-1.94-1.95-.52,1.45,1.13,1.91,31,52.33Zm-26.07.46L94.68,72.75c-7.05,8.1-18.3,3.13-19.64-2.47L21.41,63.57l-3.35-.41,1.11,1.28,2.72.79L96.71,86.89Z"/><path class="cls-1" d="M148.53,77.28c14.78,7.93,17.57,22.75,6.23,33.08s-32.51,12.29-47.29,4.36S89.9,92,101.24,81.63s32.52-12.28,47.29-4.35"/><path class="cls-2" d="M132.69,88.63l6.6-.5c2.39,2.75,6.2,1.07,6.66-.83L164.13,85l1.13-.14-.37.44-.93.27-25.35,7.34ZM117.4,99.08,92,106.42l-.92.26-.38.44,1.13-.14,18.18-2.27c.46-1.9,4.27-3.59,6.66-.84l6.6-.5Zm15,4.34,10.49,17.74.38.65.62.26-.2-.79-3.25-12.72c-2.71-.32-5.12-3-1.19-4.66l-.72-4.62Zm-15-10.49L92.05,85.57l-.93-.26-.7.12.94.46,15.15,7.39c2.24-1.12,6.64-.43,5.55,2.7l5.18,2.91Zm21.22,6.14L164,106.43l.93.26.7-.12-.94-.46-15.15-7.38c-2.24,1.11-6.64.42-5.55-2.71l-5.18-2.91Zm-6.22-10.49L142.9,70.85l.38-.65-.17-.49-.66.66L131.9,81c1.59,1.56.6,4.64-3.87,3.88l-4.16,3.62Zm-8.78,14.84L113.1,121.15l-.39.65.18.49.66-.66L124.1,111c-1.59-1.56-.6-4.64,3.87-3.88l4.16-3.62Zm0-14.84L113.12,70.84l-.39-.65-.62-.26.2.8,3.25,12.71c2.71.32,5.12,3,1.2,4.66l.71,4.62Z"/><path class="cls-3" d="M138.6,99.09,164,106.43l.92.27.38.43-1.14-.14L146,104.72c-.46-1.9-4.27-3.59-6.66-.84l-6.6-.5Zm-21.15.19-.71,4.62c3.92,1.67,1.52,4.34-1.2,4.66l-3.25,12.71-.2.8.62-.26.39-.65,10.49-17.74Zm21.1-6.56.71-4.62c-3.92-1.67-1.51-4.34,1.2-4.66l3.25-12.71.2-.8-.62.27-.39.64L132.41,88.58Zm.23,6.18L144,96c-1.09-3.13,3.31-3.82,5.55-2.7l15.15-7.39.94-.46-.7-.12-.92.26-25.35,7.36Zm-21.55-5.8L112.05,96c1.09,3.13-3.31,3.82-5.55,2.71L91.35,106.1l-.94.46.7.12.93-.26,25.34-7.36Zm6.63,10.44,4.16,3.62c4.47-.76,5.46,2.32,3.86,3.88l10.56,10.6.66.66.17-.49-.38-.65-10.51-17.73Zm8.28-15.08L128,84.84c-4.47.76-5.46-2.31-3.86-3.88l-10.55-10.6-.67-.66-.17.49.38.65,10.51,17.73Zm-8.83.16-6.6-.5c-2.39,2.75-6.2,1.06-6.66-.83L91.88,85l-1.14-.14.38.44.92.26,25.36,7.34Z"/><path class="cls-1" d="M135,89.66c5,2.69,5.95,7.7,2.11,11.21s-11,4.16-16,1.47-6-7.7-2.11-11.21,11-4.16,16-1.47"/></g></svg>