<svg id="Capa_1" data-name="Capa 1" xmlns="http://www.w3.org/2000/svg" viewBox="0 0 256 256"><defs><style>.cls-1{fill:#8331a7;}.cls-2{fill:#fff;}</style></defs><title>flor-de-liz</title><circle id="fondo" class="cls-1" cx="128" cy="128" r="128"/><path id="rizo" class="cls-2" d="M134.19,19.22a5.25,5.25,0,0,0,.67-1.93,8.47,8.47,0,0,1,.85-2A5.44,5.44,0,0,1,137,14.23l.05-.06a98,98,0,0,1,10,1.4,5.62,5.62,0,0,0-1.42,1,9.17,9.17,0,0,0-1,1.87,5.36,5.36,0,0,1-.86,1.86,6,6,0,0,1-1.53,1.1l.09.05a95.81,95.81,0,0,0-9.62-1A6.27,6.27,0,0,0,134.19,19.22Zm12.95-3.65h0ZM145,21.86c3.19.58,6.33,1.32,9.41,2.2L154.3,24a6,6,0,0,0,1.67-.89,5.6,5.6,0,0,0,1.09-1.73,9.09,9.09,0,0,1,1.25-1.72,5.9,5.9,0,0,1,1.54-.78h0c-3.2-1.05-6.46-2-9.79-2.7l-.07.05a5.94,5.94,0,0,0-1.46.92A9.11,9.11,0,0,0,147.46,19a5.51,5.51,0,0,1-.92,1.83A6.46,6.46,0,0,1,145,21.86ZM121,14h0ZM117.8,20.9A6.59,6.59,0,0,0,119,19.43a5.42,5.42,0,0,0,.35-2,8.82,8.82,0,0,1,.49-2.08A5.91,5.91,0,0,1,121,14a99.23,99.23,0,0,0-10.07,1.25l0,.07a5.85,5.85,0,0,0-1,1.4,8.47,8.47,0,0,0-.29,2.11,5.5,5.5,0,0,1-.16,2,6.81,6.81,0,0,1-1,1.57,92.26,92.26,0,0,1,9.53-1.56ZM39.22,67.81a5.87,5.87,0,0,0,.51,1.65A9.31,9.31,0,0,0,41.23,71a5.5,5.5,0,0,1,1.52,1.36,6.64,6.64,0,0,1,.61,1.79,93.7,93.7,0,0,1,4.56-8.52l-.07.06a6.43,6.43,0,0,0-.44-1.84A5.36,5.36,0,0,0,46,62.33a9,9,0,0,1-1.34-1.66A5.8,5.8,0,0,1,44.33,59a100.22,100.22,0,0,0-5.14,8.75Zm90.93-47.44-.08,0a6.23,6.23,0,0,0,1.37-1.3,5.31,5.31,0,0,0,.61-2,9.07,9.07,0,0,1,.76-2A5.63,5.63,0,0,1,134.1,14h0A98.27,98.27,0,0,0,124,13.87l0,.06a6,6,0,0,0-1.17,1.26,9.08,9.08,0,0,0-.57,2.06,5.48,5.48,0,0,1-.42,2,6.16,6.16,0,0,1-1.25,1.42A92.1,92.1,0,0,1,130.15,20.37Zm29,182.15a73.89,73.89,0,0,0-10.38,4.31c-.67.31-1.33.65-1.33.65a6.24,6.24,0,0,0-.42,2c0,.61-.14,1.55-.13,2.19a7.4,7.4,0,0,1-1.26,3.25A35.89,35.89,0,0,0,156,210.74l1.64-.86a10.83,10.83,0,0,0,.41-1.24,6.76,6.76,0,0,0,.25-1.81c0-.58-.47-1-.25-1.83A11.16,11.16,0,0,1,159.18,202.52ZM130,214.6a16.93,16.93,0,0,0,5.38-3.56c.47-.45,1.79-1.45,2.23-1.9,0,0-4.3-3.64-3.47-6.2-4.8,4.21-6.75,6.32-10.72,6.32-1,.17-.12.05-.12.05a6.7,6.7,0,0,0-1,2,7.46,7.46,0,0,0-.41,1.82,9.76,9.76,0,0,0,.08,2.15C126.27,215.51,126,215.68,130,214.6Zm-6.51-7.27a7.71,7.71,0,0,0,3.62-1.54l1.73-1.34c-1.11-2.5-6.6-5.11-10.5-4.67-.75.09-1.82-.2-2.33.62v0s-3.57,4.38-2.11,5.9c1.21-.47,2.76-.11,4.14-.09a12.62,12.62,0,0,1,4.46.75ZM144.2,225s4.88-4.55,8-3.14l-.7-.63a17,17,0,0,0-9.52-3.39c-3-.08-8.29.79-9.49,2.75a16.07,16.07,0,0,1,7.38,3.79C140.11,224.63,141.3,224.29,144.2,225Zm-6.63-13.24c-.29.24-1,.84-1.73,1.45-.39.31-2.21,1.41-2.43,1.61-.51.21,3.22,1.55,9.17.68l0-.06a5.86,5.86,0,0,0,1-1.38,10,10,0,0,0,.65-2.27,14.45,14.45,0,0,0,.24-1.73,4.87,4.87,0,0,1,.28-1.48c-.67.34-4.21,1.53-4.21,1.53-1,.24-1.64.37-1.64.37C138.43,210.87,138,211.38,137.57,211.75Zm-16-2.52a6.37,6.37,0,0,0-1,1.9A11.28,11.28,0,0,0,120,213c-.54,2.55,0,2.56,0,2.56-3.3.12-9.31-1.64-12.58-3.09,0,0,.9-1.13,1.16-1.4s.91-.57,1.18-1.14a5.87,5.87,0,0,1,2.68-1.77,65.2,65.2,0,0,0,8.06,1.18Zm-.26.13Zm23.44-10.65c-2,.07-7.7,1.88-8.67,3.26h0c-1.61,1.77,3.56,5.8,3.56,5.8l0,0c2.81-2.32,5.29-3.23,7.19-2.65a79.4,79.4,0,0,1,7.62-3.06C151.9,199.12,149.24,198.55,144.78,198.71ZM107.94,15.84ZM64.39,41a5.26,5.26,0,0,1,.88,1.84,6.43,6.43,0,0,1-.12,1.89,94,94,0,0,1,7.48-6.13l-.1,0a5.93,5.93,0,0,0,.31-1.86,5.53,5.53,0,0,0-.71-1.91,9.75,9.75,0,0,1-.61-2,5.68,5.68,0,0,1,.33-1.69,100.56,100.56,0,0,0-8.1,6.12v.08A5.54,5.54,0,0,0,63.59,39,9.13,9.13,0,0,0,64.39,41Zm7.46-9.89ZM52.25,48.51h0l0,0ZM46,56.59a5.74,5.74,0,0,0,.29,1.7A8.65,8.65,0,0,0,47.61,60a5.16,5.16,0,0,1,1.33,1.54,6.56,6.56,0,0,1,.37,1.85A94.52,94.52,0,0,1,55,55.55l-.08,0a6.39,6.39,0,0,0-.19-1.87,5.31,5.31,0,0,0-1.19-1.67,9,9,0,0,1-1.11-1.83,6.07,6.07,0,0,1-.13-1.7c-2.19,2.54-4.28,5.21-6.23,8ZM44.33,59Zm10-10.91a9.06,9.06,0,0,0,1.05,1.86,5.22,5.22,0,0,1,1.11,1.71,6.39,6.39,0,0,1,.13,1.88h0a94.11,94.11,0,0,1,6.61-7.05l-.08,0a6.23,6.23,0,0,0,.05-1.88,5.39,5.39,0,0,0-1-1.81,9.38,9.38,0,0,1-.87-1.95,5.65,5.65,0,0,1,.1-1.72h0a101.37,101.37,0,0,0-7.24,7.13v.08A5.94,5.94,0,0,0,54.33,48.08Zm41-28.75h0Zm1.27,6.53a91.59,91.59,0,0,1,9.25-2.79l-.09,0a6.43,6.43,0,0,0,1-1.6,5.37,5.37,0,0,0,.08-2.05,9.27,9.27,0,0,1,.22-2.12,5.69,5.69,0,0,1,.94-1.44,100.36,100.36,0,0,0-9.81,2.56l0,.07A5.85,5.85,0,0,0,97.29,20a8.86,8.86,0,0,0,0,2.13,5.38,5.38,0,0,1,.12,2.05A6.22,6.22,0,0,1,96.55,25.86ZM75.13,35.21a6.47,6.47,0,0,1-.36,1.86A91,91,0,0,1,83,32l-.1,0a6.2,6.2,0,0,0,.54-1.81,5.27,5.27,0,0,0-.45-2,8.92,8.92,0,0,1-.33-2.11,6,6,0,0,1,.54-1.64,100.38,100.38,0,0,0-8.83,5v.08A5.93,5.93,0,0,0,74,31.2a9.15,9.15,0,0,0,.53,2.07A5.67,5.67,0,0,1,75.13,35.21Zm8.05-10.77ZM85.9,29a6.23,6.23,0,0,1-.61,1.79,93.67,93.67,0,0,1,8.81-4H94a6.37,6.37,0,0,0,.78-1.72,5.6,5.6,0,0,0-.19-2,9.1,9.1,0,0,1-.06-2.13,5.37,5.37,0,0,1,.75-1.54,99.84,99.84,0,0,0-9.4,3.8l0,.08a5.89,5.89,0,0,0-.6,1.61A9.11,9.11,0,0,0,85.51,27,5.32,5.32,0,0,1,85.9,29Zm21.41,183.46h0Zm96-165h0Zm-3.67,3.8a6.17,6.17,0,0,1-1.88-.13h0a92.46,92.46,0,0,1,6.14,7.49l0-.1a6.23,6.23,0,0,0,1.87.3,5.27,5.27,0,0,0,1.92-.71,8.84,8.84,0,0,1,2-.6,5.68,5.68,0,0,1,1.68.32,98.55,98.55,0,0,0-6.11-8.09h-.08a5.82,5.82,0,0,0-1.71-.17,8.75,8.75,0,0,0-2,.8A5.5,5.5,0,0,1,199.61,51.26Zm-8.82-8.78a6.27,6.27,0,0,1-1.89.12,94.23,94.23,0,0,1,7,6.62l0-.09a6.3,6.3,0,0,0,1.89,0,5.49,5.49,0,0,0,1.81-1,8.62,8.62,0,0,1,1.95-.86,5.47,5.47,0,0,1,1.71.09,101.06,101.06,0,0,0-7.12-7.23h-.08a5.87,5.87,0,0,0-1.71.07,9.61,9.61,0,0,0-1.87,1A5.18,5.18,0,0,1,190.79,42.48Zm-9.9-7.56a6.2,6.2,0,0,1-1.86.37,94.86,94.86,0,0,1,7.86,5.64l0-.08a6,6,0,0,0,1.87-.19,5.46,5.46,0,0,0,1.67-1.18,8.78,8.78,0,0,1,1.83-1.11,5.67,5.67,0,0,1,1.71-.14q-3.82-3.28-8-6.23l-.08,0a5.64,5.64,0,0,0-1.69.29,8.47,8.47,0,0,0-1.71,1.28A5.34,5.34,0,0,1,180.89,34.92Zm13,3.31Zm17.42,19.6ZM183.45,30.32h0Zm39.66,50.94h0v0Zm-2.8,2a5.31,5.31,0,0,1-2,.12,6.22,6.22,0,0,1-1.69-.84q1.63,4.59,2.79,9.26v-.1a6.4,6.4,0,0,0,1.61,1,5.32,5.32,0,0,0,2,.08,9.33,9.33,0,0,1,2.13.23,5.77,5.77,0,0,1,1.43.94A100.49,100.49,0,0,0,224,84.11l-.07,0a5.85,5.85,0,0,0-1.52-.81A9.49,9.49,0,0,0,220.31,83.25Zm6.29,10.68h0ZM215.48,71.5a5.49,5.49,0,0,1-2,.38,6.23,6.23,0,0,1-1.79-.61,89.86,89.86,0,0,1,4,8.81V80a6.32,6.32,0,0,0,1.72.77,5.58,5.58,0,0,0,2-.19,9.15,9.15,0,0,1,2.14,0,5.58,5.58,0,0,1,1.54.74,98.35,98.35,0,0,0-3.81-9.4l-.08,0a5.89,5.89,0,0,0-1.61-.6A8.64,8.64,0,0,0,215.48,71.5Zm-6.32-11a5.39,5.39,0,0,1-1.94.65,6.64,6.64,0,0,1-1.85-.37A92.29,92.29,0,0,1,210.46,69v-.09a6.48,6.48,0,0,0,1.81.54,5.78,5.78,0,0,0,2-.45,8.8,8.8,0,0,1,2.11-.34,5.69,5.69,0,0,1,1.63.54,98.79,98.79,0,0,0-5-8.82l-.07,0a6,6,0,0,0-1.68-.38A9.15,9.15,0,0,0,209.16,60.47ZM218,69.16h0ZM99.91,226a14.77,14.77,0,0,0,6,0,4.13,4.13,0,0,0,1.67-1.12h.05a10.29,10.29,0,0,1-4-8.36c-4.38-.52-5.48-5.32-5.54-5.62a17,17,0,0,0-1,5.5A16.76,16.76,0,0,0,99.87,226ZM223.57,95.54a5.35,5.35,0,0,1-2-.16,6.45,6.45,0,0,1-1.57-1,89.68,89.68,0,0,1,1.57,9.53l0-.09A6.24,6.24,0,0,0,223,105a5.36,5.36,0,0,0,2,.34,8.93,8.93,0,0,1,2.08.5,5.86,5.86,0,0,1,1.3,1.12c-.25-3.35-.66-6.71-1.25-10.07l-.07,0a5.84,5.84,0,0,0-1.4-1A9,9,0,0,0,223.57,95.54ZM112.56,223a10,10,0,0,1,3.78.85s4.63-4.82,5.13-4.63c-4.84-1.87-11.45-2.4-15.12-1l.93,1.64,2.46,3.39ZM98.13,210.9v0Zm130.27-104h0v0ZM112.18,208.11c-.34,0-.17,0,0,0Zm.16,0h0Zm-2.49-7.83a17.6,17.6,0,0,0-10.39,7.87l.05,0s1.07,5.44,4.63,5.59c.68-2.21,3.72-4.84,5.57-6.13l.68-.82c-.58-4.48,1.45-6.93,1.45-6.93ZM172,23.82h0ZM158.57,24a6.55,6.55,0,0,1-1.69.84,92.35,92.35,0,0,1,9,3.41l-.07-.07a6.21,6.21,0,0,0,1.77-.67,5.55,5.55,0,0,0,1.31-1.57,8.75,8.75,0,0,1,1.46-1.55,6,6,0,0,1,1.62-.57q-4.53-2.19-9.34-3.95l-.06,0a5.57,5.57,0,0,0-1.57.72,8.93,8.93,0,0,0-1.32,1.68A5.46,5.46,0,0,1,158.57,24Zm11.52,4.73a6.27,6.27,0,0,1-1.79.61,91.36,91.36,0,0,1,8.52,4.57l-.06-.08a6.43,6.43,0,0,0,1.84-.44A5.36,5.36,0,0,0,180.1,32a9.48,9.48,0,0,1,1.66-1.34,5.79,5.79,0,0,1,1.68-.34,101.36,101.36,0,0,0-8.75-5.15l-.07,0a5.64,5.64,0,0,0-1.65.5,9.32,9.32,0,0,0-1.52,1.5A5.37,5.37,0,0,1,170.09,28.73ZM84.42,204.6Zm3.09-2.11A8.77,8.77,0,0,1,86,204a5.59,5.59,0,0,1-1.62.56,100.4,100.4,0,0,0,9.35,4l.07-.05a5.43,5.43,0,0,0,1.56-.71,8.51,8.51,0,0,0,1.31-1.68,5.51,5.51,0,0,1,1.16-1.69,6.21,6.21,0,0,1,1.69-.84,90.78,90.78,0,0,1-9-3.41l.07.07a6.21,6.21,0,0,0-1.77.67A5.38,5.38,0,0,0,87.51,202.49Zm70.8,20.68c3.68-4.18,2.11-9.15,1.45-11.54l-7.25,3.31a4.13,4.13,0,0,1-.83,4.71S158.71,222.71,158.31,223.17Zm4.37,19.11,2,3.26,5.33-5.78a25.31,25.31,0,0,0-2.53-2Zm2.77-6-4.74,4.2.67.69,4.74-4.2Zm19.15-38.94h0ZM173.28,204h0Zm8-10.77a6.29,6.29,0,0,1,.37-1.86,90.29,90.29,0,0,1-8.22,5.1h.1a6.12,6.12,0,0,0-.54,1.81,5.27,5.27,0,0,0,.45,2,9.29,9.29,0,0,1,.33,2.11,5.43,5.43,0,0,1-.53,1.62,94.81,94.81,0,0,0,8.81-5l0-.07a6,6,0,0,0,.38-1.68,9.15,9.15,0,0,0-.53-2.07A5.4,5.4,0,0,1,181.32,193.21Zm-25,42.23,3.33,3.46,5.14-4.37C160.26,230.55,156.27,235.44,156.27,235.44Zm14.28-36a6.33,6.33,0,0,1,.61-1.79,91.27,91.27,0,0,1-8.81,4h.09a9.45,9.45,0,0,0-.86,1.7,5.32,5.32,0,0,0-.09,2.07,8.64,8.64,0,0,1-.24,2.15,10.82,10.82,0,0,1-.66,1.74c3.17-1.11,6.89-2.59,10-4l0-.07a6.22,6.22,0,0,0,.6-1.62,9.8,9.8,0,0,0-.26-2.12A5.48,5.48,0,0,1,170.55,199.46Zm-52.56,27c1.86,4.47-2.34,7.53-2.34,7.53,5.63,1.45,12-4.57,12-4.57s-1-.84-6.66-2.28Zm18.71-1.33c-4.25-3.4-8.38-4-11.51-5L119,224.46l7.42,2.47c2.23.58,2.81,1.66,5.63,3.48C132,230.41,138.58,226.64,136.7,225.14Zm-21,1.79a10.83,10.83,0,0,1-1.9.14,10.15,10.15,0,0,1-3.58-.71h0c-1,3.08-8,2.41-8,2.41a17.45,17.45,0,0,0,9.47,4.7l0,0S115.58,232.59,115.7,226.93Zm46.78,4.58,0,0c-1.43-1.93-2.7-3.62-3.42-4.39a21.54,21.54,0,0,0-3-2.56c-6.06-3.26-9.31,1.41-9.31,1.41a20.93,20.93,0,0,1,6.67,5.93l.9,1.48C154.51,233.22,159.13,228.35,162.48,231.51Zm-8.09,2,0-.08v0Zm-8.79-6.88c-1,.67-4.8,0-6-.28.25,1.86-5.21,5.5-5.21,5.5A14.32,14.32,0,0,0,143,234s4-.17,6.38-2.56A11.5,11.5,0,0,1,145.6,226.6ZM37.84,70.41h0v0ZM228.21,123a5.78,5.78,0,0,0-1.1-1.32,8.83,8.83,0,0,0-2-.84,5.1,5.1,0,0,1-1.93-.68,6.27,6.27,0,0,1-1.25-1.41,93,93,0,0,1-.95,9.62l0-.09a6.09,6.09,0,0,0,1.11,1.53,5.28,5.28,0,0,0,1.85.85,9.22,9.22,0,0,1,1.88,1,5.68,5.68,0,0,1,1,1.41c.63-3.3,1.09-6.65,1.4-10Zm-1.34,10.11h0v0Zm-34.81,54.33a5.59,5.59,0,0,1-.88-1.85,6.06,6.06,0,0,1,.12-1.89,90.13,90.13,0,0,1-7.48,6.13l.09,0a6.52,6.52,0,0,0-.3,1.86,5.46,5.46,0,0,0,.71,1.92,8.91,8.91,0,0,1,.6,2,5.84,5.84,0,0,1-.31,1.69,100.28,100.28,0,0,0,8.09-6.11v-.08a5.86,5.86,0,0,0,.17-1.72A8.93,8.93,0,0,0,192.06,187.45Zm-76.35,39.43s0,0,0,.05h.06ZM222.17,147.1a8.56,8.56,0,0,0-1.58-1.44,5.57,5.57,0,0,1-1.6-1.27,6.24,6.24,0,0,1-.71-1.75,93.3,93.3,0,0,1-4.06,8.77l.07-.06a6.57,6.57,0,0,0,.55,1.81,5.27,5.27,0,0,0,1.47,1.42,9.42,9.42,0,0,1,1.44,1.57,5.63,5.63,0,0,1,.44,1.66v0q2.52-4.4,4.62-9.05l0-.07A5.81,5.81,0,0,0,222.17,147.1Zm6.4-37.16-.07,0a5.67,5.67,0,0,0-1.26-1.18,8.8,8.8,0,0,0-2.06-.57,5.35,5.35,0,0,1-2-.42,6.2,6.2,0,0,1-1.42-1.24h0a94.83,94.83,0,0,1,.31,9.66l0-.09a6.23,6.23,0,0,0,1.29,1.38,5.6,5.6,0,0,0,1.95.6,8.86,8.86,0,0,1,2,.77,5.62,5.62,0,0,1,1.14,1.28C228.68,116.72,228.71,113.33,228.57,109.94Zm-3.27,24.59a9.6,9.6,0,0,0-1.85-1.09,5.12,5.12,0,0,1-1.82-.92,6.23,6.23,0,0,1-1-1.57c-.58,3.2-1.32,6.34-2.2,9.42l.05-.08a6.2,6.2,0,0,0,.9,1.66,5.22,5.22,0,0,0,1.72,1.09,8.49,8.49,0,0,1,1.73,1.26,5.75,5.75,0,0,1,.77,1.53v0a97,97,0,0,0,2.7-9.8l0-.07A6.13,6.13,0,0,0,225.3,134.53Zm-21.1,45.38h0v0Zm-2.07.43a9.55,9.55,0,0,0-1-1.86,5.23,5.23,0,0,1-1.12-1.71,6.39,6.39,0,0,1-.13-1.88,92.08,92.08,0,0,1-6.61,7.05l.08,0a6.23,6.23,0,0,0-.05,1.88,5.22,5.22,0,0,0,1,1.81,9.54,9.54,0,0,1,.86,1.95,5.88,5.88,0,0,1-.09,1.71,98.74,98.74,0,0,0,7.22-7.11v-.08A5.81,5.81,0,0,0,202.13,180.34ZM195,189.26h0l0,0Zm22.26-28.65a5.77,5.77,0,0,0-.51-1.65,9.36,9.36,0,0,0-1.5-1.53,5.22,5.22,0,0,1-1.52-1.36,6.14,6.14,0,0,1-.61-1.79,94,94,0,0,1-4.57,8.53l.08-.06a6.48,6.48,0,0,0,.43,1.83,5.22,5.22,0,0,0,1.39,1.5,9.84,9.84,0,0,1,1.35,1.66,5.78,5.78,0,0,1,.34,1.69,100.22,100.22,0,0,0,5.14-8.75Zm-5.12,8.82Zm-1.71,2.4a5.74,5.74,0,0,0-.29-1.7,8.65,8.65,0,0,0-1.28-1.71,5.6,5.6,0,0,1-1.33-1.54,6.2,6.2,0,0,1-.37-1.86,92.41,92.41,0,0,1-5.64,7.85l.08-.05a6.49,6.49,0,0,0,.19,1.88,5.59,5.59,0,0,0,1.18,1.67,8.59,8.59,0,0,1,1.12,1.83,5.76,5.76,0,0,1,.13,1.7c2.19-2.54,4.28-5.21,6.24-8Zm18.08-51.74h0ZM32.89,132.87a5.29,5.29,0,0,1,2,.16,6.45,6.45,0,0,1,1.57,1,95.56,95.56,0,0,1-1.57-9.53l0,.09a6.29,6.29,0,0,0-1.46-1.2,5.41,5.41,0,0,0-2-.34,8.72,8.72,0,0,1-2.07-.5,5.62,5.62,0,0,1-1.3-1.12,96.43,96.43,0,0,0,1.24,10.07l.07,0a5.7,5.7,0,0,0,1.41,1A8.94,8.94,0,0,0,32.89,132.87Zm-4.84-11.41h0v0Zm1.81,13h0v0ZM96,223.09a8,8,0,0,0-1.48.57l.4-.26a11.94,11.94,0,0,0-3.1,2.36c-.75.75-2.07,2.47-3.58,4.34l0,0c3.55-3.08,8.08,2.23,8.08,2.23l-.06.06L97.68,231a29.13,29.13,0,0,1,2.28-1.84C96.92,227.52,96,223.09,96,223.09ZM29.21,119.7a9.08,9.08,0,0,0,2.06.57,5.56,5.56,0,0,1,2,.42,6.2,6.2,0,0,1,1.42,1.24,94.74,94.74,0,0,1-.31-9.66l0,.09A6.06,6.06,0,0,0,33.05,111a5.43,5.43,0,0,0-1.95-.61,8.6,8.6,0,0,1-2-.77A5.73,5.73,0,0,1,28,108.34a100.77,100.77,0,0,0-.07,10.14l.06,0A6,6,0,0,0,29.21,119.7ZM41,156.91a5.11,5.11,0,0,1,2-.38,6.4,6.4,0,0,1,1.79.6,90.09,90.09,0,0,1-4-8.81v.1a6.18,6.18,0,0,0-1.72-.77,5.6,5.6,0,0,0-2,.18,8.6,8.6,0,0,1-2.13.06,5.83,5.83,0,0,1-1.55-.74,100.85,100.85,0,0,0,3.81,9.39l.07,0a6,6,0,0,0,1.62.6A9.8,9.8,0,0,0,41,156.91Zm-7.62-9.77h0v0ZM32.9,82.58Zm1-2.76a5.57,5.57,0,0,0,.72,1.57,9.35,9.35,0,0,0,1.68,1.32A5.46,5.46,0,0,1,38,83.86a6.34,6.34,0,0,1,.83,1.69,92.41,92.41,0,0,1,3.42-9l-.07.07a6.56,6.56,0,0,0-.67-1.77A5.41,5.41,0,0,0,40,73.5,10,10,0,0,1,38.4,72a6.11,6.11,0,0,1-.56-1.62,99,99,0,0,0-4,9.34Zm-6,28.51h0v0Zm2.29-15.9a5.8,5.8,0,0,0,.91,1.46A9.2,9.2,0,0,0,33,95a5.51,5.51,0,0,1,1.83.92,6.79,6.79,0,0,1,1.05,1.57,92.53,92.53,0,0,1,2.2-9.41l0,.08a6.32,6.32,0,0,0-.9-1.66,5.58,5.58,0,0,0-1.73-1.1,8.67,8.67,0,0,1-1.72-1.25,5.45,5.45,0,0,1-.78-1.54,100.87,100.87,0,0,0-2.7,9.78Zm-2,13a5.78,5.78,0,0,0,1.1,1.32,8.66,8.66,0,0,0,2,.84,5.54,5.54,0,0,1,1.93.68,6.36,6.36,0,0,1,1.24,1.41,95.62,95.62,0,0,1,1-9.61l0,.09a6.38,6.38,0,0,0-1.11-1.53,5.28,5.28,0,0,0-1.86-.86,9.26,9.26,0,0,1-1.88-1,6,6,0,0,1-1-1.42,95.65,95.65,0,0,0-1.4,10Zm1.35-10.11h0v0Zm6.55,49.87a5.34,5.34,0,0,1,2-.12,6.52,6.52,0,0,1,1.7.83,93.49,93.49,0,0,1-2.8-9.25v.1a6.4,6.4,0,0,0-1.61-1,5.13,5.13,0,0,0-2-.08,9.4,9.4,0,0,1-2.13-.23,5.77,5.77,0,0,1-1.43-.94,101.24,101.24,0,0,0,2.55,9.82l.07,0a5.62,5.62,0,0,0,1.52.8A8.92,8.92,0,0,0,36.14,145.16Zm45.68,58.06a6.09,6.09,0,0,0,1.65-.5,9.32,9.32,0,0,0,1.52-1.5,5.27,5.27,0,0,1,1.37-1.52,6.15,6.15,0,0,1,1.78-.61,93.78,93.78,0,0,1-8.52-4.57l.06.08a6.43,6.43,0,0,0-1.84.44,5.22,5.22,0,0,0-1.5,1.39,9.86,9.86,0,0,1-1.66,1.34,5.8,5.8,0,0,1-1.68.35,98.68,98.68,0,0,0,8.75,5.13ZM80.4,238l5.11,6,2.13-3.19L83,236.11A28.05,28.05,0,0,0,80.4,238ZM73,198.11h0ZM38.46,159.24Zm45.73,76,4.56,4.4.63-.72-4.55-4.4ZM85.88,233l5,4.56,3.45-3.32S90.51,229.22,85.88,233ZM75.55,193.5a6.57,6.57,0,0,1,1.86-.37,91,91,0,0,1-7.86-5.64l0,.09a6.12,6.12,0,0,0-1.88.19A5.25,5.25,0,0,0,66.05,189a8.72,8.72,0,0,1-1.82,1.11,5.84,5.84,0,0,1-1.71.13c2.54,2.2,5.22,4.28,8,6.24l.08,0a5.64,5.64,0,0,0,1.69-.29A8.44,8.44,0,0,0,74,194.83,5.66,5.66,0,0,1,75.55,193.5ZM56.84,177.15a6.37,6.37,0,0,1,1.88.12,94,94,0,0,1-6.13-7.48l0,.09a6.52,6.52,0,0,0-1.86-.3,5.46,5.46,0,0,0-1.92.72,10,10,0,0,1-2.05.6,5.88,5.88,0,0,1-1.67-.32,100.15,100.15,0,0,0,6.1,8.09h.08a5.89,5.89,0,0,0,1.71.16,8.94,8.94,0,0,0,2-.8A5.5,5.5,0,0,1,56.84,177.15ZM45.1,170.57h0l0,0Zm2.19-2.64a5.21,5.21,0,0,1,1.94-.64,6.25,6.25,0,0,1,1.85.37A96.22,96.22,0,0,1,46,159.45l0,.09A6.2,6.2,0,0,0,44.2,159a5.37,5.37,0,0,0-2,.45,8.76,8.76,0,0,1-2.11.33,5.65,5.65,0,0,1-1.63-.54,98.85,98.85,0,0,0,5,8.83h.09a5.58,5.58,0,0,0,1.67.38A8.65,8.65,0,0,0,47.29,167.93Zm18.36,18a6.48,6.48,0,0,1,1.89-.13,92.08,92.08,0,0,1-7.05-6.61l0,.09a6.47,6.47,0,0,0-1.89-.06,5.39,5.39,0,0,0-1.81.95,8.31,8.31,0,0,1-2,.87,5.52,5.52,0,0,1-1.7-.09,100.81,100.81,0,0,0,7.11,7.22h.08a5.81,5.81,0,0,0,1.72-.06,9.27,9.27,0,0,0,1.86-1.05A5.23,5.23,0,0,1,65.65,186Zm-3.14,4.24h0ZM53.16,181h0v0Z"/><path id="flor" class="cls-2" d="M69.58,112.42l2.91-5.8,6.42,1L74.28,103l2.91-5.81-5.76,3-4.62-4.56,1.06,6.41-5.76,3,6.41,1Zm44.09,17.15-.17,0A97.34,97.34,0,0,0,102,131.16c-1.89-7.38-7.25-16.86-16.45-15.53-7.88,1.14-11.19,9.23-9.28,16.42-11.24,1.56-20.7-7.55-23-17.92C49.88,98.62,61.18,83,77.54,83c23,0,35.37,30.32,36.13,46.54m73.19-17.12,1.07-6.41,6.41-1-5.76-3,1.06-6.41L185,100.24l-5.76-3,2.9,5.81-4.62,4.55,6.42-1ZM142.78,129.6c.76-16.22,13.15-46.52,36.13-46.54,16.36,0,27.66,15.6,24.28,31.1-2.26,10.37-11.72,19.48-23,17.92,1.91-7.19-1.4-15.28-9.28-16.42-9.2-1.33-14.56,8.15-16.42,15.44-4-.79-8.25-1.15-11.58-1.47ZM128.28,140c14.84,0,26.8-1.4,26.8-2.32s-12-2.4-26.89-2.4-26.87,1.47-26.87,2.4,12.11,2.32,27,2.32m-.09,3.35c-17.16,0-31.07-2.54-31.07-5.67S111,132,128.19,132s31.08,2.55,31.08,5.67-13.91,5.67-31.08,5.67m25.21,1c1.72,9.91,10.18,14,18.48,10.05-.56,6.79-6.08,13-13.16,13-9.67,0-15.3-14.69-16.06-21.52l0,.05a104.82,104.82,0,0,0,10.84-1.57Zm-39.73,1.55c-.68,6.75-6.34,21.68-16.08,21.68-7.08,0-12.6-6.21-13.16-13,8.36,4,16.88-.21,18.52-10.26v.08A105.05,105.05,0,0,0,113.69,146ZM128.2,35.72a108.47,108.47,0,0,0,12.41,10.75c10.6,8,15.57,18.87,15.64,28.4.14,17.63-14.72,33.12-16.57,54.41a91.09,91.09,0,0,0-9.58-.52c.38-21.61-.44-50.87-1.9-72-1.46,21.13-2.29,50.39-1.91,72a91.24,91.24,0,0,0-9.58.52C114.86,108,100,92.5,100.14,74.87c.07-9.53,5-20.45,15.64-28.4A107.48,107.48,0,0,0,128.2,35.72m0,151.39c-8.28-3.64-16.8-11.34-20.44-19.29a48.18,48.18,0,0,0,8.75-21.58c3,.22,6.28.36,9.63.36.41,5.74.39,17.92,2.06,24.51,1.67-6.59,1.65-18.77,2.06-24.51,3.36,0,6.57-.14,9.63-.36a48.3,48.3,0,0,0,8.75,21.58c-3.63,8-12.17,15.65-20.44,19.29"/></svg>