<svg id="Capa_1" data-name="Capa 1" xmlns="http://www.w3.org/2000/svg" viewBox="0 0 256 256"><defs><style>.cls-1{fill:#e20613;}.cls-2{fill:#c50c0e;}.cls-3{fill:#722482;}.cls-4{fill:#fff;}</style></defs><title>insignia-scouts-del-mundo</title><path class="cls-1" d="M251.63,128A123.63,123.63,0,1,1,128,4.37,123.63,123.63,0,0,1,251.63,128"/><path class="cls-2" d="M128,256A128,128,0,1,1,256,128,128.14,128.14,0,0,1,128,256ZM128,8.74A119.26,119.26,0,1,0,247.26,128,119.4,119.4,0,0,0,128,8.74Z"/><path class="cls-3" d="M222.28,127.61a94.51,94.51,0,1,1-94.5-94.51,94.51,94.51,0,0,1,94.5,94.51"/><path class="cls-4" d="M127.78,223.3a95.69,95.69,0,1,1,95.68-95.69A95.79,95.79,0,0,1,127.78,223.3Zm0-189a93.34,93.34,0,1,0,93.33,93.33A93.44,93.44,0,0,0,127.78,34.28Z"/><path class="cls-4" d="M23.11,111.55a2.39,2.39,0,0,1,1.14,4.28,2.27,2.27,0,0,1-1.77.48,2.39,2.39,0,0,1-2.06-2.7,2.38,2.38,0,0,1,2.69-2.06"/><path class="cls-4" d="M26.13,105.81l.38-2.32a2.82,2.82,0,0,0,1.89-.38,2.57,2.57,0,0,0,1-1.54,2.65,2.65,0,0,0,0-1.82,1.46,1.46,0,0,0-.95-.87,1.09,1.09,0,0,0-.76.06,1.89,1.89,0,0,0-.73.7c-.16.25-.5.82-1,1.73a6.68,6.68,0,0,1-1.83,2.32,3.14,3.14,0,0,1-2.6.44,3.08,3.08,0,0,1-1.52-.94,3.24,3.24,0,0,1-.78-1.75,6,6,0,0,1,.2-2.37,5,5,0,0,1,1.83-3,3.45,3.45,0,0,1,2.84-.47l-.52,2.35a2,2,0,0,0-1.45.3,2.45,2.45,0,0,0-.78,1.36,2.8,2.8,0,0,0,0,1.7.87.87,0,0,0,.62.56.88.88,0,0,0,.79-.16,6.13,6.13,0,0,0,1.34-1.93,11.72,11.72,0,0,1,1.5-2.28,3.42,3.42,0,0,1,1.51-1,3.64,3.64,0,0,1,2,0,3.57,3.57,0,0,1,1.71,1,3.44,3.44,0,0,1,.86,1.9,6.7,6.7,0,0,1-.24,2.62,5.23,5.23,0,0,1-1.91,3.08,4.5,4.5,0,0,1-3.31.61"/><path class="cls-4" d="M31.7,86.89,33.25,85a5.19,5.19,0,0,1,2,2.72,5.62,5.62,0,0,1-3.22,6.33,6.21,6.21,0,0,1-4.69-.21,6.52,6.52,0,0,1-3.74-3.13,5.29,5.29,0,0,1,0-4.36,4.92,4.92,0,0,1,2.51-2.83,4.75,4.75,0,0,1,2.49-.33l-.35,2.43a2.5,2.5,0,0,0-1.68.28,2.46,2.46,0,0,0-1.1,1.32,2.69,2.69,0,0,0,.09,2.35,4.72,4.72,0,0,0,2.56,1.9,5,5,0,0,0,3.3.42,2.62,2.62,0,0,0,1.67-1.61,2.48,2.48,0,0,0,0-1.76,3.57,3.57,0,0,0-1.43-1.63"/><path class="cls-4" d="M33.18,79.94a4.44,4.44,0,0,0,3.15.65A3,3,0,0,0,38.38,79a3,3,0,0,0,.22-2.57,4.54,4.54,0,0,0-2.28-2.3,4.53,4.53,0,0,0-3.11-.68,3,3,0,0,0-2,1.61,3,3,0,0,0-.26,2.6,4.52,4.52,0,0,0,2.26,2.27m-1.11,2.22a7.7,7.7,0,0,1-2.42-2,5.25,5.25,0,0,1-.9-1.76,4.64,4.64,0,0,1-.21-1.86,6.47,6.47,0,0,1,.82-2.48,5.58,5.58,0,0,1,3.46-2.92,6.3,6.3,0,0,1,4.74.79,6.26,6.26,0,0,1,3.21,3.55,6.26,6.26,0,0,1-4,7.39,6.14,6.14,0,0,1-4.67-.76"/><path class="cls-4" d="M34.13,66.37l1.4-2,5.24,3.78a13.24,13.24,0,0,0,1.67,1.09,1.94,1.94,0,0,0,1.38.09,2.54,2.54,0,0,0,1.29-1,2.36,2.36,0,0,0,.56-1.5,1.69,1.69,0,0,0-.46-1.11,14,14,0,0,0-1.59-1.26l-5.34-3.86,1.4-1.95,5.08,3.66a16.25,16.25,0,0,1,2.35,1.93,3.44,3.44,0,0,1,.79,1.46,3.77,3.77,0,0,1,0,1.7,6.24,6.24,0,0,1-1,2.08A6.57,6.57,0,0,1,45,71.36a3.57,3.57,0,0,1-1.64.54,3.35,3.35,0,0,1-1.47-.23,14.54,14.54,0,0,1-2.59-1.58Z"/><polygon class="cls-4" points="52.71 61.77 45.36 55.14 42.99 57.77 41.49 56.42 47.84 49.38 49.34 50.74 46.97 53.36 54.33 59.99 52.71 61.77"/><path class="cls-4" d="M54.7,53.86l1.58-1.73a2.84,2.84,0,0,0,1.8.71,2.54,2.54,0,0,0,1.67-.76,2.67,2.67,0,0,0,1-1.53,1.48,1.48,0,0,0-.33-1.25,1.1,1.1,0,0,0-.67-.37,2,2,0,0,0-1,.19c-.27.12-.86.42-1.77.91a6.62,6.62,0,0,1-2.81.94,3.1,3.1,0,0,1-2.42-1A3.06,3.06,0,0,1,51,48.31a3.19,3.19,0,0,1,.3-1.89,6,6,0,0,1,1.46-1.88A5,5,0,0,1,55.9,43a3.49,3.49,0,0,1,2.64,1.15l-1.71,1.69a2.06,2.06,0,0,0-1.38-.53,2.33,2.33,0,0,0-1.4.72,2.7,2.7,0,0,0-.93,1.42.84.84,0,0,0,.21.8.91.91,0,0,0,.75.3,6.22,6.22,0,0,0,2.17-.89,11.78,11.78,0,0,1,2.51-1.1,3.3,3.3,0,0,1,1.79,0,3.56,3.56,0,0,1,1.62,1.09A3.44,3.44,0,0,1,63,49.49a3.39,3.39,0,0,1-.3,2.06,6.86,6.86,0,0,1-1.64,2.06,5.14,5.14,0,0,1-3.28,1.55,4.53,4.53,0,0,1-3.11-1.3"/><path class="cls-4" d="M68.13,40.16a4.48,4.48,0,0,0,2.44,2.09,3.23,3.23,0,0,0,4-2.54,4.55,4.55,0,0,0-.9-3.12,4.5,4.5,0,0,0-2.4-2.09,3.32,3.32,0,0,0-4,2.58,4.51,4.51,0,0,0,.89,3.08m-2,1.41A7.48,7.48,0,0,1,64.9,38.7a5.67,5.67,0,0,1,0-2A4.77,4.77,0,0,1,65.67,35a6.63,6.63,0,0,1,1.92-1.78A5.61,5.61,0,0,1,72,32.32a6.28,6.28,0,0,1,3.78,3A6.24,6.24,0,0,1,76.9,40a5.52,5.52,0,0,1-2.65,3.63,5.63,5.63,0,0,1-4.44.91,6.17,6.17,0,0,1-3.73-2.92"/><polygon class="cls-4" points="80.62 39.53 75.39 28.81 82.75 25.23 83.63 27.05 78.44 29.57 79.68 32.11 84.15 29.93 85.04 31.74 80.56 33.92 82.78 38.47 80.62 39.53"/><polygon class="cls-4" points="96.52 32.78 93.53 23.34 90.16 24.41 89.55 22.49 98.58 19.63 99.19 21.55 95.83 22.62 98.81 32.06 96.52 32.78"/><polygon class="cls-4" points="103.63 30.62 101.31 18.93 103.67 18.46 104.58 23.06 109.21 22.14 108.29 17.54 110.65 17.07 112.98 28.76 110.62 29.22 109.6 24.11 104.97 25.03 105.99 30.14 103.63 30.62"/><polygon class="cls-4" points="115.37 28.44 114.39 16.56 123.19 15.84 123.36 17.84 116.95 18.38 117.17 21.01 123.13 20.51 123.3 22.52 117.33 23.01 117.6 26.24 124.24 25.69 124.4 27.7 115.37 28.44"/><polygon class="cls-4" points="132.59 27.72 130.89 15.59 133.34 15.82 134.35 24.14 137.3 16.2 140.15 16.47 141.44 24.95 144.05 16.84 146.46 17.07 142.45 28.66 139.91 28.41 138.39 19.32 135.19 27.97 132.59 27.72"/><path class="cls-4" d="M149.8,24a4.4,4.4,0,0,0,.19,3.2,3.22,3.22,0,0,0,4.6,1.12,4.56,4.56,0,0,0,1.62-2.81,4.5,4.5,0,0,0-.15-3.18,3.34,3.34,0,0,0-4.66-1.11A4.51,4.51,0,0,0,149.8,24m-2.43-.5a7.51,7.51,0,0,1,1.24-2.85,5.79,5.79,0,0,1,1.46-1.33,4.75,4.75,0,0,1,1.75-.68,6.71,6.71,0,0,1,2.61.14,5.65,5.65,0,0,1,3.72,2.58,6.33,6.33,0,0,1,.47,4.79,6.21,6.21,0,0,1-2.59,4,5.52,5.52,0,0,1-4.46.6,5.58,5.58,0,0,1-3.72-2.56,6.1,6.1,0,0,1-.48-4.71"/><path class="cls-4" d="M163.63,26.91l1.67.63a9.37,9.37,0,0,0,2.08.62,1.18,1.18,0,0,0,.8-.23,1.55,1.55,0,0,0,.55-.75,1.36,1.36,0,0,0-.64-1.78c-.18-.09-.72-.31-1.63-.66l-1.76-.66ZM159,32.5l4.2-11.16,4.74,1.79a8.71,8.71,0,0,1,2.48,1.28,2.77,2.77,0,0,1,.9,1.56,3.44,3.44,0,0,1-.18,1.94,3.1,3.1,0,0,1-1.52,1.79,3.7,3.7,0,0,1-2.59.2,5.66,5.66,0,0,1,.85,1.39,13.52,13.52,0,0,1,.6,2.3l.54,2.69-2.69-1-.72-3a17.39,17.39,0,0,0-.56-2.09,2.05,2.05,0,0,0-.5-.72,4.28,4.28,0,0,0-1.09-.55l-.46-.17-1.75,4.65Z"/><polygon class="cls-4" points="170.1 36.9 175.47 26.37 177.62 27.46 173.16 36.2 178.49 38.92 177.58 40.71 170.1 36.9"/><path class="cls-4" d="M186.43,34.56l-4.34,6.59,1.5,1a6.4,6.4,0,0,0,1.28.7A2.19,2.19,0,0,0,186,43a2.44,2.44,0,0,0,1.15-.61,7.94,7.94,0,0,0,1.41-1.69,7.17,7.17,0,0,0,1-1.91,2.7,2.7,0,0,0,.06-1.34,2.29,2.29,0,0,0-.62-1.08,10.93,10.93,0,0,0-1.59-1.18Zm-.9-3L189.2,34A8.76,8.76,0,0,1,191,35.4a4,4,0,0,1,.9,1.91,5.31,5.31,0,0,1-.11,2.23,8.81,8.81,0,0,1-1.22,2.57,8,8,0,0,1-1.7,1.92,5.36,5.36,0,0,1-2.23,1.06,4.35,4.35,0,0,1-1.93-.13,7.74,7.74,0,0,1-1.92-1L179,41.51Z"/><path class="cls-4" d="M199.81,51.42l1.77-4.37-4.17,2.18Zm.1,6.47L198,56.12l1.06-2.7-3.53-3.2L193,51.55l-1.88-1.72,11.46-5.68,1.88,1.72Z"/><polygon class="cls-4" points="201.24 59.35 208.47 49.46 210.06 51.33 205 58.01 212.64 54.36 214.49 56.54 209.51 63.52 217.03 59.52 218.6 61.37 207.65 66.89 206 64.94 211.25 57.36 202.93 61.33 201.24 59.35"/><path class="cls-4" d="M216.92,72.14l2.81-3.79-4.59,1.06Zm-1.54,6.28L214,76.23l1.71-2.35-2.6-4-2.81.65-1.39-2.15,12.52-2.6,1.39,2.14Z"/><path class="cls-4" d="M223.16,78.66l.78,1.6A9,9,0,0,0,225,82.14a1.29,1.29,0,0,0,.74.38,1.56,1.56,0,0,0,.92-.17,1.46,1.46,0,0,0,.73-.72,1.48,1.48,0,0,0,0-1A14.74,14.74,0,0,0,226.7,79l-.83-1.69Zm-7.24.87,10.7-5.25,2.23,4.55a8.76,8.76,0,0,1,.94,2.63,2.74,2.74,0,0,1-.42,1.75,3.4,3.4,0,0,1-1.45,1.3,3.19,3.19,0,0,1-2.34.26,3.77,3.77,0,0,1-2-1.63,5.46,5.46,0,0,1-.33,1.6,13.26,13.26,0,0,1-1.13,2.08l-1.45,2.33-1.26-2.58,1.56-2.71A15.35,15.35,0,0,0,222,82a1.81,1.81,0,0,0,.13-.86,4.11,4.11,0,0,0-.42-1.15l-.21-.44L217,81.69Z"/><path class="cls-4" d="M231.17,89.27l-7.45,2.6.6,1.7a6.3,6.3,0,0,0,.59,1.33,2.26,2.26,0,0,0,.78.76,2.66,2.66,0,0,0,1.3.21,7.88,7.88,0,0,0,2.14-.49,7.44,7.44,0,0,0,1.92-.93,2.84,2.84,0,0,0,.87-1,2.37,2.37,0,0,0,.16-1.23,10.52,10.52,0,0,0-.55-1.91Zm1.11-2.94,1.45,4.15a8.49,8.49,0,0,1,.54,2.22,4,4,0,0,1-.44,2,5.22,5.22,0,0,1-1.45,1.71,8.77,8.77,0,0,1-2.53,1.3,7.9,7.9,0,0,1-2.51.5,5.25,5.25,0,0,1-2.41-.52,4,4,0,0,1-1.46-1.28,7.06,7.06,0,0,1-.94-1.93L221,90.26Z"/><path class="cls-4" d="M232.44,108.89a2.36,2.36,0,0,1-1.81-.35,2.4,2.4,0,0,1-.68-3.33,2.32,2.32,0,0,1,1.52-1,2.42,2.42,0,0,1,2.84,1.87,2.34,2.34,0,0,1-.35,1.8,2.31,2.31,0,0,1-1.52,1"/><polygon class="cls-4" points="120.24 141.33 118.13 135.76 116.02 130.19 114.61 123.42 113.56 116.65 112.86 109.49 112.15 102.33 112.15 95.16 112.51 87.59 112.86 80.82 113.56 74.06 114.26 68.09 115.32 62.12 116.72 57.34 117.78 53.36 119.54 50.18 120.94 48.19 120.59 47.78 118.83 49.78 117.43 52.96 116.02 57.34 114.97 62.12 113.91 67.69 112.86 74.06 112.15 80.82 111.8 87.59 111.8 95.16 111.8 102.33 112.15 109.49 112.86 116.65 114.26 123.81 115.67 130.19 117.43 136.16 119.89 141.33 120.24 141.33"/><polygon class="cls-4" points="108.29 140.53 103.72 136.95 99.85 132.97 96.33 129.39 93.17 125.81 90.71 121.83 88.25 118.25 86.49 114.67 85.09 110.68 83.68 107.1 82.98 103.52 82.28 99.94 81.92 96.35 81.92 93.17 81.92 89.58 82.28 86.4 82.98 82.82 84.03 80.03 85.09 76.84 86.14 73.66 87.55 70.88 90.36 65.7 93.88 60.92 97.39 56.54 100.91 52.96 104.77 50.18 107.94 48.18 107.94 47.39 104.42 49.78 100.91 52.57 97.04 56.15 93.52 60.53 90.01 65.3 86.85 70.48 85.79 73.66 84.39 76.45 83.33 79.63 82.63 82.82 81.92 86 81.57 89.58 81.22 93.17 81.57 96.35 81.57 99.94 82.28 103.52 83.33 107.5 84.39 111.08 86.14 114.67 87.9 118.64 90.36 122.23 92.82 126.21 95.98 129.79 99.5 133.37 103.36 137.35 107.94 140.93 108.29 140.53"/><polygon class="cls-4" points="92.47 139.34 85.09 135.76 78.76 132.18 73.13 128.2 68.21 124.62 64 120.63 60.48 117.05 57.32 113.07 55.21 109.49 53.45 105.51 52.04 101.92 51.34 98.34 51.34 94.76 51.34 91.18 52.04 87.59 52.75 84.41 54.15 80.83 55.91 77.64 57.67 74.86 59.78 71.67 61.89 68.89 66.81 63.71 72.43 58.93 77.71 55.35 82.98 52.17 87.9 50.17 92.12 48.98 92.12 48.58 87.9 49.78 82.98 51.77 77.35 54.95 72.08 58.54 66.46 63.31 61.54 68.48 59.42 71.27 57.32 74.46 55.21 77.64 53.8 80.83 52.4 84.01 51.34 87.59 50.99 91.18 50.64 94.76 50.99 98.34 51.7 101.92 53.1 105.91 54.85 109.49 56.96 113.47 60.13 117.45 63.65 121.03 67.86 125.02 72.78 128.6 78.41 132.57 85.09 136.16 92.47 139.74 92.47 139.34"/><polygon class="cls-4" points="133.6 141.33 136.06 136.16 137.82 130.19 139.58 123.81 140.63 116.65 141.34 109.49 141.68 102.33 141.68 95.16 141.68 87.59 141.34 80.82 140.63 74.06 139.58 67.69 138.52 62.12 137.46 57.34 136.06 52.96 134.65 49.78 132.9 47.78 132.54 48.19 134.3 50.18 135.71 53.36 136.76 57.34 138.17 62.12 139.22 68.09 139.93 74.06 140.63 80.82 141.34 87.59 141.34 95.16 141.34 102.33 140.98 109.49 139.93 116.65 138.87 123.42 137.46 130.19 135.36 135.76 133.25 141.33 133.6 141.33"/><polygon class="cls-4" points="145.55 140.93 150.12 137.35 153.99 133.37 157.5 129.79 160.66 126.21 163.13 122.23 165.59 118.64 167.34 114.66 169.1 111.08 170.16 107.5 171.21 103.52 171.91 99.94 172.27 96.35 172.27 93.17 171.91 89.58 171.56 86 170.86 82.81 170.16 79.63 169.1 76.45 167.69 73.66 166.64 70.48 163.48 65.3 159.96 60.53 156.45 56.15 152.93 52.57 149.07 49.78 145.55 47.39 145.55 48.18 148.72 50.17 152.58 52.96 156.09 56.55 159.61 60.92 163.13 65.7 165.94 70.87 167.34 73.66 168.75 76.84 169.45 80.03 170.51 82.81 171.21 86.4 171.56 89.58 171.56 93.17 171.56 96.35 171.21 99.94 170.86 103.52 169.8 107.1 168.75 110.68 166.99 114.66 165.24 118.25 162.78 121.83 160.31 125.81 157.15 129.39 153.64 132.97 149.77 136.95 145.2 140.54 145.55 140.93"/><polygon class="cls-4" points="161.02 139.74 168.4 136.16 175.07 132.58 180.71 128.6 185.63 125.02 189.84 121.03 193.36 117.45 196.17 113.47 198.28 109.49 200.03 105.91 201.09 101.92 201.79 98.34 202.14 94.36 201.79 90.78 201.09 87.2 200.03 84.01 198.63 80.43 196.87 77.25 194.77 74.06 192.65 70.87 190.2 68.09 185.27 62.91 179.65 58.14 174.02 54.15 168.75 51.37 163.83 48.98 159.61 47.78 159.61 48.58 163.47 49.77 168.4 51.77 173.67 54.95 179.29 58.53 184.92 63.31 189.84 68.48 192.3 71.27 194.41 74.46 196.52 77.64 198.28 80.83 199.34 84.01 200.39 87.59 201.09 90.78 201.44 94.36 201.44 98.34 200.74 101.92 199.69 105.51 197.92 109.49 195.82 113.07 193 117.05 189.49 120.63 185.27 124.62 180.35 128.2 174.73 132.18 168.4 135.76 161.02 139.34 161.02 139.74"/><rect class="cls-4" x="105.12" y="55.75" width="56.24" height="0.79"/><rect class="cls-4" x="59.43" y="73.26" width="134.99" height="0.4"/><rect class="cls-4" x="51.34" y="93.17" width="150.1" height="0.4"/><rect class="cls-4" x="58.93" y="113.47" width="137.28" height="0.4"/><rect class="cls-4" x="76.72" y="131.38" width="97.48" height="0.4"/><path class="cls-4" d="M98.09,88.79c.71.39,1.41.39,1.76,1.19,1.06.8,2.11,2.39,3.51,2.79,1.06.4,1.41,2,2.12,2.79,1.4,1.59,4.92,2,4.21,4.37,0,.8-.7,1.59-.7,2-.35,1.19-1,2-1,3.18-.36.8,0,1.59-.36,2.78a1.68,1.68,0,0,1-1.75,1.6.36.36,0,0,0-.35.4,15.83,15.83,0,0,1-1.41,3.58c-.35.4,0,1.59-.35,2l-.36.4c-1,1.59-2.1,2-2.81,3.18-1.75,2-1,4.38-.7,6.77,0,.4.35.4.7.8,0,.79.36,1.59.36,2.78-.71-.79-2.11-.4-2.47-1.59a15.16,15.16,0,0,1-1.4-3.58c-1.41-2.79-2.81-4.38-4.22-6.77h.35c-.7-2,.71-4.38,0-6.37-.7-1.19-.35-3.19-1.76-4.38-.35-.4-1,0-1.4-.4a11.73,11.73,0,0,1-2.81-5.57,3.91,3.91,0,0,1-.36-2c0,.4-.35.4-.35.8-.35-.8-.35-1.6-1-2a3.68,3.68,0,0,1,0-2.79c0-.8,1-1.2,1.4-2s1.06-1.2.71-2c-.35-.4-.71-.4-.71-.8a1.6,1.6,0,0,1-.35-1.19Z"/><path class="cls-4" d="M86.49,88.79a1.61,1.61,0,0,0-.35-1.2,7.61,7.61,0,0,0-2.81-2,4.69,4.69,0,0,0-2.11-.79,1.19,1.19,0,0,0-.7-.4,12.78,12.78,0,0,1-4.92-4c-.35-.4-.35-.8-.35-1.59A1.55,1.55,0,0,1,74.89,80c-.7-.79-1-2.39-1.75-3.58v-1.2c-.36-1.19.35-2.39,0-4h-.36c0-1.19-.7-3.18,0-4.38,0-.79,1.06-1.19,1.41-1.59.7-.8,1.76-.8,2.46-2a3.33,3.33,0,0,1,.35-2c0-.4.7,0,.7-.4V59.73c.71-.4,2.12-1.19,1.41-2.39,0-.4-1.06-.8-1.41-.4-1,.4-1.75.4-2.45,1.2-.36.4-.36-.4-.71-.4-1.05.4-2.11,1.19-3.16,1.59a1,1,0,0,1-1.41,0c-.7-.79-1-1.19-1-2,1,0,2.46,0,2.46-1.59a3.41,3.41,0,0,1-4.22-.4c2.46,0,4.22-1.19,6.33-2l3.16-1.19c2.11-1.2,4.22-1.6,6.33-2.79.7,0,2.11-.4,1.76-.4.35,0,0,.4.35.4a5.44,5.44,0,0,0,1,1.59c.71.4,1.06-.79,1.41-1.2a9.77,9.77,0,0,0,3.51-.39c.35-.4,1.06,0,1.41-.8-.35.8-1.41,1.19-.7,1.6s1,1.19,1.4,1.19v-2a1.9,1.9,0,0,1,1.41-1.19c.35-.41.7.79,1,1.19.71.8,2.11,0,2.81,1.19,0,.4.36.8.36,1.2h1v-.4c.7-.4.7.4,1.05.4,0,.4.36.4.36,0,.35-.4.7-.4,1-.8.71-.79,1.41-2,2.46-1.59A29.91,29.91,0,0,1,109,52.56a.8.8,0,0,1,0,1.2A1.27,1.27,0,0,1,107.58,55c-.7.4-.34,1.19-.34,1.59-.36.8-.36,1.2-.71,1.6h-.35c0,.4.35,1.19,0,1.19a.82.82,0,0,0-.71.8h0c-.35.4,0,1.19,0,1.19h-.35c1.41,3.18.71,2.39.35,2.39-1,.79-2.1,0-3.51,0,0,.4.35.4.35.79h0a.79.79,0,0,1-.7,1.2c-1.06.4-2.11,1.19-3.17.4,0-.4.36-1.2-.35-.8v1.2c-.7.79-1.75.79-2.11,2-.35.79-1.75,0-2.1.79-.36.4,0,1.59-.36,2-1.4,0-1.4.8-1.4,2a.36.36,0,0,0-.35.4,13.34,13.34,0,0,0-1.76.4c-.36.4,0,1.59-1.05,2v.8c-.36.4-1.41.79-1.76,0a9,9,0,0,1-1.06-2c-1.4.8-3.16.4-4.22,1.2-.7.4-.7,1.59-.7,2a3.75,3.75,0,0,0,0,2c.35-.4,1.41,0,2.11-.79a1.14,1.14,0,0,1,1.76-.4c.7,1.19-.35,2.38,0,3.18,0,.8.7.4,1,.4s0,.79.35,1.19h-.35v1.6a1.72,1.72,0,0,0,2.11,2c.35,0,1-.8,1.4-.8a1.31,1.31,0,0,1,.36.8c.7.39.7,0,1,0a2.92,2.92,0,0,1,4.22,0,6.6,6.6,0,0,1,2.81,1.59Z"/><path class="cls-4" d="M107.58,48.18c.36,0,1.06,0,1.06-.39a18.89,18.89,0,0,1,2.46-1.59c.35,0,.35-.4.7-.4s.71-.4.71,0a3.26,3.26,0,0,0,3.16.79c1-.39,2.11,0,3.16-.39,1.06,0,2.11-.8,2.82-.4.35,0,.35,1.19.7,1.19,1.41.4,2.46,2.39,2.11,1.19.35.8-.7,0-1.41.4a12.72,12.72,0,0,1-3.51,2.79v.4a10.32,10.32,0,0,1-4.22,2c-.71.79-1,2.39-2.11,2.78-.7.4-1.41.4-1.76-.39s-.35-2-.7-2.39,0-.8,0-1.59c-.35.4,0-.4-.35-.4a2.38,2.38,0,0,1,1.4-2c0-.4.71-1.2,0-1.2-1.4-.4-3.16,0-4.56-.4Z"/><path class="cls-4" d="M123.05,59.73c-.7,0-1,.4-.7,1.19,0,.4.7,1.6,1.05,1.6,0-.4-.35-2.39-.35-2.79"/><path class="cls-4" d="M124.46,58.93c0-.39-.35,0-.35,0-.35.8,0,2,0,2.79,0,.4,1,1.59,1.4,1.19,0-.79-.7-3.18-.7-4Z"/><path class="cls-4" d="M166.64,89.18c-.7.4,0,1.2,0,2,2.11,0,0,1.19,1.05,0,.35-.4,1.06-.4.35-.8l-1.4-1.59-.35.39Z"/><path class="cls-4" d="M183.87,72.07c.35-1.59-1.41-2-2.11-3.18v-1.2h.34v-.8a1.54,1.54,0,0,0,.36-1.19.53.53,0,0,0,.7-.8c-.35-.79-1.06-1.59-1.4-2.38a16.55,16.55,0,0,0-3.17-2.4c-.35-.39-.7,0-1.05-.39-.35,0-.35-.4-.35-.8,1.4-1.19,3.51-.79,4.91.4.71.4,1.42,1.2,2.12,1.59a1.42,1.42,0,0,0,1.76.4c.35,0,0-.79,0-.79-1.06-1.2-2.46-1.2-3.17-2.39-.35-.8.35-1.6.71-2.39.35-1.6-1.76-1.2-2.82-1.6-1-.79-2.46-.39-3.51-.79-2.82-1.19-5.63-1.59-8.44-3.18-.35,0-.35-.4-.7-.8,0,.4.35.8,0,1.19-1.76,1.2-3.17-.79-4.57-.79,0,0,.35.4,0,.4-1,.79-3.17.39-4.22-.4-1.4-.8-2.81.79-3.87,0a11.93,11.93,0,0,0-2.81-2c-1.4-.4-2.81.79-4.22,1.59-.35,0,0,.8-.35.8-1.41,1.19-2.81,1.19-4.57,1.59A5.62,5.62,0,0,0,141,53.36c-.35,0-1.4-.4-1.4.79-1.41-.79-1.76-2.38-2.82-2.38s-1.75-.8-2.46-1.2a4.64,4.64,0,0,0-2.11.8A3.65,3.65,0,0,0,130.44,53c-.71,1.59-1.76,3.18-3.17,3.58-.35,0-.35.4-.35.8-.35,0-.35-.4-.35,0v.4c.7.4,1.4,0,2.11.4a.36.36,0,0,0,.35-.4h.35c.35,2.38.71,3.18,0,2.38.35.41.71.41.71,0a1.18,1.18,0,0,0,1-1.19,3.2,3.2,0,0,1,.7-2.39c.7-.79,1.41.8,1.76,1.6-1.06,0-1.76.79-2.81,1.19v.4c-.7.39-1.76.39-2.46,1.19a.61.61,0,0,1,0,.8c-.71.4-2.82,0-2.82,1.19,0,2-2.46,2-3.16,3.59a4.9,4.9,0,0,0,0,3.18c0,.8.7.8.7,1.59.71-.4,1.76.4,2.46-.4.36,0,.36-.39.36-.39a5,5,0,0,0,2.46-2.39c0-.4.35,0,.35,0,1-.4,1.76-2,2.46-1.2.35.8,1.4,1.2,1.76,2,0,.79,1,0,1.75.79.36,0,.36.4.71.8.35,0,1,.39,1.4,0,.35,0,0-.4,0-.4h.35l.36-.4h.35a1.19,1.19,0,0,0,1.05.4,8.92,8.92,0,0,1,1.06,2c.34.4,1.75-.8,2.11,0,.7,1.19,0,3.18.7,4.38,1.4,2,2.81,4.38,4.92,5.18.35,0,.35.39.35.79,0,.8-.35,2,.71,2.39,1.4.39,2.8.79,3.86,0,.35,0,.7-.8,1.06-.8.7-.4,1.75-.79,2.1-1.59.71-.79,0-2.39-.35-3.58,1.41,0,2.11.79,3.52.79h.35c.7.4,1.4.4,1.4.8,1.41,2.79,2.11,5.57,3.52,8.36,0,.39.7,0,1.06,0,0-.4.35-.4.35-.8.7-1.19.7-2.79,1.4-4.38.35,0,.7-.39,1.41-.39-.35-.4.35-.8.35-1.2.7-.39.7.4,1.41.8.35.4,1.05.4,1.05.79.7.4,1.41.4,1.76,1.2a25.63,25.63,0,0,1,1.76,5.57c0,.4.7,0,1.05.4a3.8,3.8,0,0,0,2.11,2c0,.4.35.4.35.79.35-.39.35-.79,0-.79a19.68,19.68,0,0,1-.7-4,8.8,8.8,0,0,0,3.16.39c-.35-1.59.35-3.18-.35-4.77-.35-.8-1-1.19-1.41-2a1.6,1.6,0,0,1-.35-1.2c1.06-.79,2.11,0,2.81,0,.36,0,.7-1.19,1.06-2s1.06-3.19.35-4.78c-.35-1.6-3.16-1.6-2.81-3.59,0-.79,1.05-.39,1.76,0,.34.4.7.8,1.05.8s.35.4.71.4Z"/><path class="cls-4" d="M125.87,71.27a4.73,4.73,0,0,0-3.17.8c-1,.79-1.4,2-2.11,2.79-1.4,2-1,4.77-2.46,7.16-.35.8-1.41,2-1,2.79.35,1.19,1,1.59,1.4,2.39s.35,1.59.71,2c1,2,3.16,2.79,5.27,3.19,1.41.4,2.81-.8,3.87-1.59.7-.4,1.76,0,1.76.79.34.4,0,1.2.34,2a17.38,17.38,0,0,0,1.76,5.58c.7,1.59.35,3.18,0,4.78-.35,1.19-1.05,2.38-.7,3.58s1,1.59,1.4,2.78c.36,2,0,4,.71,6a4.58,4.58,0,0,0,1.76,2,4.71,4.71,0,0,0,2.46.39c-.36-.39,0-.39,0-.8.35.41.7,0,1.05-.39,1.06-.8,1.76-1.6,2.81-2.39a4.76,4.76,0,0,0,1.06-2.39c.35-.4,0-.79.35-1.59.35-.4.35-1.19.7-1.59.7-1.2,1.76-1.6,2.11-2.79a7.48,7.48,0,0,0,.35-4.77,1.61,1.61,0,0,0-.35-1.2c-.35-.79,0-2,0-2.79.35.4.7-.4,1-.4.71-1.59,2.12-2.38,2.47-4,.35-1.19,1.4-2,1.76-3.18.35,0,0-.4.35-.8a1.83,1.83,0,0,0,1.05-2.38c0-.8-1.05-.4-1.76-.8a5.68,5.68,0,0,1-2.46-1.59c-1.41-1.2-3.16-2.39-3.51-4.38-.7-1.19-1.41-2-2.11-3.19a.8.8,0,0,0-.71-.79h.71c-.35-1.2-.35-2.39-.71-3.59-1.76,1.2-3.86-.39-6,0,0,0,.36.4,0,.4-.34.4-.34,0-.69-.4-.71-.39-1.41.4-2.11,0V71.67l-.71-.79c-.35-.4-1-1.6-1.4-1.6-.71,0-1-.4-1.41,0-1,.8-1.76,1.6-2.81,2.39a1.19,1.19,0,0,1-1-.4"/><path class="cls-4" d="M150.82,103.92c0-.4-.35,0-.35,0a2,2,0,0,1-2.46,1.59c.35,1.19,0,1.59-.7,2.38-.36,0,0,.8,0,.8-1.41,1.2-.71,3.58.35,4.38.7.8,1.41-.4,1.41-1.2,0-1.58,1.05-2.38,1.4-4a.81.81,0,0,1,.71-.79c-.36-.8,0-1.59-.36-3.18"/><path class="cls-4" d="M86.14,78.44a3.44,3.44,0,0,1,2.82,0,6,6,0,0,1,2.45,2.78c.36.41-.35.41-.7.41a5.14,5.14,0,0,1-1.4-1.2H88.6a1.57,1.57,0,0,0-.35-1.19H86.49a1.46,1.46,0,0,1-.35-.8"/><path class="cls-4" d="M186.33,72.86H186c-.36.4.35,1.2.7,1.2l-.35-.4Z"/><path class="cls-4" d="M185.27,88.79a1.19,1.19,0,0,0-.7-.4v.79c1.06.8.7,0,1.06-.39-.36.39,0-.4-.36,0"/><path class="cls-4" d="M184.92,90c-.7.4-.7,1.2-1,2l-.35.4v.4a5.39,5.39,0,0,0-2.81,2c0,.4-.36.8,0,.8a6.72,6.72,0,0,1,2.81,1.59c.7.79,1.4-.4,1.75-.4a3.27,3.27,0,0,1,.36,1.59c.7.8,1.4,0,2.1-.79a8.8,8.8,0,0,0-.35-4.38c0-.8-.7-.8-.7-2a.46.46,0,0,1-.35.79c-.36-.79,0-2.39-1.41-2"/><path class="cls-4" d="M177.54,94.76c-.35-.8-1.06-1.2-1.41-.8s-.7.8-.35,1.2c1.06,1.59,1.06,2,1.76,2.39.35.79.7,1.19,1.4,1.19-.35-.4.36-1.19,0-1.59-.7-.8-.7-2-1.4-2.79Z"/><path class="cls-4" d="M181.76,99.54c-.36,0-1.06-.4-1.41,0v.79c1.05.4,1.05.8,1.76.4.35-.4.7-.4,1-.79v-.4Z"/><path class="cls-4" d="M194.41,95.56c-.7,0-1,.79-1.41,1.19a1.55,1.55,0,0,0,.36,1.19c.35.4,1,0,1,0,1.06.4.36,1.6.7,2a4.09,4.09,0,0,0,2.11.39c.7,0,.7,1.59,1.41,1.19.35,0,.35-.79.35-1.19h-.35c0-.39.35-1.19,0-1.59l-2.11-2.39c-.7-.4-1.41-.4-2.11-.79"/><path class="cls-4" d="M197.22,102.72c-.7.4-1.05,1.59-1.4,2.39-1,2.39-1.41.8-1.76.4-.7-.4-.35-1.59-1.06-2.39-.7-.4-1.05.4-1.4.8-1.4.79-2.46,1.59-3.87,2.39l-.35.39c-2.11.8-3.86,2.39-5.62,3.58-.71,0-1.76.4-1.76,1.2a3.76,3.76,0,0,0,0,2c-.35.4,0,.79-.35.79-1.06.41-1.06,1.2-1.06,2a.82.82,0,0,0,0,1.2,3.54,3.54,0,0,0,2.82,0c1.41,0,2.11-1.6,3.51-1.2.35,0,.71.8,1.06,1.2,1.4,1.19,1.4,4,3.16,3.58.7,0,.7-.79,1.06-1.19a30.38,30.38,0,0,0,5.62-4c1.05-.39,1.75-1.59,2.1-3.17v-4.39a14.25,14.25,0,0,0-.7-5.57"/><path class="cls-1" d="M213,155.8A28.78,28.78,0,1,1,184.27,127,28.78,28.78,0,0,1,213,155.8"/><path class="cls-4" d="M175.09,175.76a6.37,6.37,0,0,1-1-.07c-6.47-.82-8.76-9.47-8.85-9.84a2.18,2.18,0,0,1,4.23-1.09c.45,1.71,2.25,6.23,5.18,6.6,1.85.22,7.23-1.06,16.57-18a2.18,2.18,0,0,1,3.83,2.1C187.56,169.09,181,175.76,175.09,175.76Z"/><path class="cls-4" d="M187.33,167.21a18.73,18.73,0,0,0,3.56-4.12s4-7.56,16.34-5.55c0,0-5.23,11.57-16.15,9.52a12.63,12.63,0,0,0-3.75.15"/><path class="cls-4" d="M181.31,168.06a19.61,19.61,0,0,0-2.63-5s-5.69-6.66.51-18.13c0,0,9,9.3,3.28,19.36a13.57,13.57,0,0,0-1.16,3.75"/><path class="cls-4" d="M190.62,154.89a19.83,19.83,0,0,0-2.19-5.26s-5.17-7.26,2.41-18c0,0,8.32,10.28,1.37,19.63a13.5,13.5,0,0,0-1.59,3.6"/><path class="cls-1" d="M155,118.3a28.78,28.78,0,1,1-28.78-28.78A28.77,28.77,0,0,1,155,118.3"/><path class="cls-4" d="M109.24,100s-1.45,12.46,10.6,15.9c0,0-10.36,5.78-15.18-4.82,0,0,1.93,17.82,19.27,15.41,0,0-3.37,6.26-14.69,6.26,0,0,10,.85,12.76,7.71,0,0,4.1-13.73,11.92-14.81,0,0,12.16-2.77,11.2-13.6,0,0-1.44-4.82,3.37-6.51,0,0-5.41-6.86-12.28,0l-5.3,5.3s-4.33-6-9.63-6-9.87,1.21-12-4.82"/><path class="cls-1" d="M100.15,155.84a28.78,28.78,0,1,1-28.78-28.78,28.77,28.77,0,0,1,28.78,28.78"/><path class="cls-4" d="M71.38,184.87a1.66,1.66,0,0,1-.75-.18,1.64,1.64,0,0,1-.89-1.46V128.37A1.64,1.64,0,0,1,72.21,127c.76.44,18.76,11.18,19.51,27.6.47,10.36-6,20.46-19.39,30A1.63,1.63,0,0,1,71.38,184.87ZM73,131.44V180c10.62-8.25,15.8-16.73,15.42-25.24C87.94,143.51,77.81,134.9,73,131.44Z"/><path class="cls-4" d="M71.37,184.84a1.62,1.62,0,0,1-.83-.23c-.77-.45-18.73-11.17-19.47-27.59-.48-10.35,6-20.44,19.34-30a1.64,1.64,0,0,1,2.6,1.33V183.2a1.63,1.63,0,0,1-.83,1.42A1.57,1.57,0,0,1,71.37,184.84Zm-1.64-53.2c-10.6,8.24-15.77,16.72-15.39,25.22.5,11.2,10.61,19.8,15.39,23.26Z"/><rect class="cls-4" x="42.59" y="154.2" width="57.56" height="3.28"/><path class="cls-4" d="M139.81,249.33l-.3-3c2.6-.25,5.2-.59,7.74-1l.49,3C145.14,248.72,142.47,249.07,139.81,249.33Zm15.78-2.59-.68-2.92c2.51-.59,5.05-1.27,7.54-2l.87,2.87C160.77,245.45,158.17,246.14,155.59,246.74Zm15.3-4.64-1.06-2.81c2.42-.91,4.85-1.92,7.2-3l1.24,2.74C175.86,240.13,173.37,241.17,170.89,242.1Zm14.55-6.6L184,232.85c2.26-1.21,4.54-2.53,6.75-3.9l1.59,2.54C190.1,232.91,187.77,234.26,185.44,235.5ZM199,227l-1.75-2.44c2.09-1.49,4.17-3.09,6.19-4.75l1.91,2.32C203.29,223.87,201.15,225.51,199,227Zm12.36-10.15-2.05-2.19c1.89-1.77,3.75-3.63,5.52-5.52l2.19,2C215.21,213.17,213.31,215.07,211.37,216.89Zm10.94-11.67L220,203.31c1.65-2,3.25-4.09,4.76-6.19l2.44,1.75C225.64,201,224,203.16,222.31,205.22Zm9.33-13-2.55-1.59c1.37-2.19,2.69-4.47,3.92-6.76l2.64,1.42C234.39,187.64,233,190,231.64,192.22Zm7.56-14.11-2.73-1.24c1.07-2.38,2.08-4.8,3-7.22l2.81,1.06C241.34,173.19,240.31,175.67,239.2,178.11Zm5.64-15-2.87-.87c.75-2.47,1.43-5,2-7.54l2.93.68C246.31,158,245.61,160.59,244.84,163.12Zm3.62-15.58-3-.49c.42-2.55.76-5.16,1-7.74l3,.29C249.24,142.25,248.89,144.92,248.46,147.54Z"/><path class="cls-4" d="M115.79,249.34c-2.65-.26-5.32-.61-7.94-1l.49-3c2.55.42,5.16.76,7.74,1ZM100,246.75c-2.6-.6-5.2-1.3-7.73-2.07l.88-2.87c2.46.75,5,1.43,7.53,2Zm-15.32-4.63c-2.48-.94-5-2-7.4-3.07l1.24-2.74c2.38,1.08,4.8,2.08,7.22,3ZM70.1,235.5c-2.35-1.26-4.68-2.61-6.93-4l1.59-2.55c2.19,1.36,4.47,2.68,6.76,3.91ZM56.52,227c-2.16-1.55-4.29-3.19-6.35-4.88l1.91-2.32c2,1.65,4.09,3.25,6.19,4.76ZM44.16,216.87c-1.94-1.82-3.85-3.72-5.66-5.65l2.19-2.06c1.77,1.89,3.63,3.75,5.52,5.52ZM33.22,205.2c-1.69-2-3.33-4.19-4.87-6.34l2.44-1.75c1.51,2.1,3.11,4.18,4.75,6.19Zm-9.32-13c-1.41-2.25-2.76-4.58-4-6.92l2.65-1.42c1.22,2.28,2.54,4.55,3.91,6.75Zm-7.55-14.09c-1.1-2.42-2.13-4.9-3.07-7.38l2.81-1.06c.92,2.42,1.92,4.84,3,7.2Zm-5.64-15c-.77-2.53-1.46-5.14-2.07-7.73l2.93-.68c.59,2.53,1.27,5.07,2,7.54ZM7.09,147.59c-.43-2.62-.78-5.29-1-7.94l3-.29c.25,2.58.59,5.19,1,7.74Z"/><path class="cls-4" d="M9,115.92l-3-.29c.25-2.65.6-5.32,1-7.94l3,.49C9.63,110.73,9.29,113.34,9,115.92Zm2.52-15.4-2.93-.68c.61-2.6,1.3-5.2,2.07-7.73l2.87.87C12.83,95.45,12.15,98,11.56,100.52Zm4.52-14.94-2.81-1.06c.94-2.49,2-5,3.07-7.4l2.74,1.24C18,80.72,17,83.15,16.08,85.58Zm6.46-14.22-2.65-1.42c1.26-2.34,2.6-4.67,4-6.93l2.55,1.59C25.08,66.8,23.76,69.07,22.54,71.36ZM30.8,58.11l-2.45-1.75c1.55-2.15,3.19-4.29,4.88-6.35l2.32,1.91C33.9,53.93,32.3,56,30.8,58.11Zm9.9-12.06-2.19-2c1.82-2,3.73-3.85,5.66-5.66l2,2.19C44.34,42.3,42.48,44.16,40.7,46.05ZM52.09,35.38l-1.9-2.32c2.05-1.69,4.19-3.33,6.34-4.87l1.75,2.44C56.18,32.13,54.1,33.73,52.09,35.38Zm12.68-9.09-1.59-2.55c2.25-1.4,4.58-2.75,6.92-4l1.42,2.65C69.23,23.6,67,24.92,64.77,26.29Zm13.74-7.37-1.24-2.73c2.41-1.1,4.9-2.13,7.38-3.06l1.06,2.81C83.29,16.85,80.87,17.85,78.51,18.92Zm14.58-5.49-.87-2.88c2.53-.76,5.14-1.46,7.73-2.07l.68,2.93C98.1,12,95.56,12.68,93.09,13.43Zm15.2-3.54-.49-3c2.62-.43,5.29-.78,7.94-1l.29,3C113.45,9.13,110.84,9.47,108.29,9.89Z"/><path class="cls-4" d="M246.5,115.87c-.25-2.59-.59-5.2-1-7.74l3-.48c.42,2.6.77,5.27,1,7.93ZM244,100.48c-.59-2.52-1.27-5-2-7.54l2.87-.87c.78,2.55,1.47,5.15,2.07,7.73Zm-4.53-14.92c-.91-2.42-1.92-4.85-3-7.21l2.74-1.24c1.09,2.42,2.13,4.91,3.06,7.39ZM233,71.36c-1.21-2.27-2.53-4.54-3.91-6.75L231.65,63c1.42,2.27,2.77,4.6,4,6.92Zm-8.25-13.23c-1.51-2.12-3.11-4.2-4.75-6.19L222.33,50c1.68,2,3.32,4.18,4.87,6.34Zm-9.9-12.06c-1.78-1.9-3.64-3.76-5.52-5.52l2-2.2c1.93,1.81,3.83,3.71,5.66,5.66ZM203.47,35.39c-2-1.64-4.08-3.24-6.19-4.76L199,28.2c2.16,1.55,4.3,3.19,6.35,4.87Zm-12.68-9.1c-2.2-1.37-4.47-2.69-6.76-3.91l1.42-2.65c2.34,1.26,4.67,2.61,6.93,4ZM177,18.92c-2.36-1.07-4.79-2.08-7.22-3l1.06-2.81c2.49.93,5,2,7.4,3.06Zm-14.62-5.51c-2.49-.75-5-1.43-7.54-2l.68-2.93c2.58.6,5.18,1.3,7.73,2.07Zm-15.2-3.53c-2.55-.41-5.15-.75-7.74-1l.3-3c2.64.25,5.31.6,7.93,1Z"/><path class="cls-4" d="M127.78,249.92c-1.34,0-2.67,0-4-.06l.09-3c2.59.08,5.22.08,7.81,0l.1,3C130.45,249.9,129.11,249.92,127.78,249.92ZM250,131.62l-3-.11q.06-1.94.06-3.9t-.06-3.9l3-.1c.05,1.33.07,2.66.07,4S250.06,130.29,250,131.62Zm-244.48,0c0-1.33-.06-2.67-.06-4s0-2.67.06-4l3,.1c0,1.29-.06,2.6-.06,3.9s0,2.61.06,3.91ZM131.68,8.37c-2.59-.08-5.22-.08-7.81,0l-.09-3c2.65-.09,5.34-.09,8,0Z"/><path class="cls-4" d="M21.34,140.93l.28,1.76a9.66,9.66,0,0,0,.49,2.11,1.25,1.25,0,0,0,.61.59,1.53,1.53,0,0,0,.92.1,1.34,1.34,0,0,0,1.22-1.44c0-.2-.08-.78-.23-1.74l-.3-1.85Zm-7.17-1.28,11.77-1.89.8,5a8.69,8.69,0,0,1,.12,2.79A2.7,2.7,0,0,1,26,147.1a3.37,3.37,0,0,1-1.77.81,3.17,3.17,0,0,1-2.31-.43,3.72,3.72,0,0,1-1.46-2.15,5.85,5.85,0,0,1-.78,1.43,13.54,13.54,0,0,1-1.7,1.66l-2.06,1.8-.46-2.84,2.29-2.12a20.48,20.48,0,0,0,1.53-1.53,1.92,1.92,0,0,0,.37-.8,3.79,3.79,0,0,0-.06-1.21l-.08-.49-4.91.79Z"/><polygon class="cls-4" points="16.38 152.19 27.88 149.05 30.2 157.58 28.25 158.11 26.56 151.91 24.02 152.6 25.59 158.37 23.65 158.9 22.07 153.13 18.95 153.98 20.7 160.41 18.76 160.94 16.38 152.19"/><path class="cls-4" d="M26.49,169l.17,2.44a5.3,5.3,0,0,1-3.36-.6,5.62,5.62,0,0,1-1.95-6.83,6.14,6.14,0,0,1,3.56-3,6.52,6.52,0,0,1,4.87-.26,5.27,5.27,0,0,1,3,3.15,5,5,0,0,1,.09,3.78,4.57,4.57,0,0,1-1.59,1.94l-1.4-2a2.53,2.53,0,0,0,1-1.35,2.57,2.57,0,0,0-.1-1.72,2.7,2.7,0,0,0-1.67-1.65,4.66,4.66,0,0,0-3.17.36,5.06,5.06,0,0,0-2.7,1.93,2.62,2.62,0,0,0-.12,2.32,2.43,2.43,0,0,0,1.17,1.31,3.56,3.56,0,0,0,2.15.23"/><path class="cls-4" d="M30.7,174.43a4.42,4.42,0,0,0-2.26,2.27,3.21,3.21,0,0,0,2.23,4.18,4.58,4.58,0,0,0,3.17-.66A4.47,4.47,0,0,0,36.11,178a3.32,3.32,0,0,0-2.27-4.2,4.46,4.46,0,0,0-3.14.65m-1.24-2.15a7.67,7.67,0,0,1,2.94-1,6,6,0,0,1,2,.21,4.47,4.47,0,0,1,1.67.85,6.5,6.5,0,0,1,1.63,2,5.61,5.61,0,0,1,.56,4.49A6.28,6.28,0,0,1,35,182.44a6.22,6.22,0,0,1-4.72.75,6.27,6.27,0,0,1-4-7.42,6.12,6.12,0,0,1,3.2-3.49"/><polygon class="cls-4" points="31.22 187.55 40.99 180.73 42.33 182.65 38.6 191.21 45.13 186.65 46.41 188.48 36.63 195.31 35.25 193.32 38.87 184.94 32.5 189.38 31.22 187.55"/><path class="cls-4" d="M44.48,195.5a4.48,4.48,0,0,0-1.67,2.74,3.21,3.21,0,0,0,3.13,3.55,4.55,4.55,0,0,0,2.94-1.38,4.48,4.48,0,0,0,1.69-2.7,3,3,0,0,0-.83-2.45,3,3,0,0,0-2.35-1.12,4.51,4.51,0,0,0-2.91,1.36m-1.71-1.8a7.74,7.74,0,0,1,2.65-1.62,5.63,5.63,0,0,1,2-.26,4.74,4.74,0,0,1,1.83.44,6.7,6.7,0,0,1,2,1.61,5.61,5.61,0,0,1,1.58,4.24,6.26,6.26,0,0,1-2.35,4.2,6.27,6.27,0,0,1-4.42,1.82,5.54,5.54,0,0,1-4-2,5.63,5.63,0,0,1-1.6-4.24,6.18,6.18,0,0,1,2.3-4.14"/><path class="cls-4" d="M56.64,210l1.25,2.1a5.24,5.24,0,0,1-3.26,1,5.61,5.61,0,0,1-4.83-5.21,6.18,6.18,0,0,1,1.81-4.32,6.43,6.43,0,0,1,4.22-2.43,5.25,5.25,0,0,1,4.11,1.46,4.92,4.92,0,0,1,1.79,3.33,4.7,4.7,0,0,1-.55,2.45L59,207.16a2.56,2.56,0,0,0,.31-1.69,2.5,2.5,0,0,0-.86-1.48,2.68,2.68,0,0,0-2.23-.72A4.64,4.64,0,0,0,53.58,205,5,5,0,0,0,52,208a2.65,2.65,0,0,0,.94,2.13,2.44,2.44,0,0,0,1.64.64,3.56,3.56,0,0,0,2-.77"/><rect class="cls-4" x="55.88" y="210.88" width="11.92" height="2.41" transform="translate(-144.11 132.18) rotate(-52.54)"/><polygon class="cls-4" points="61.22 219.21 67.65 209.18 70.68 211.12 68.12 219.13 74.31 213.44 77.34 215.39 70.92 225.42 69.03 224.21 74.09 216.31 67.04 222.94 65.09 221.69 68.16 212.52 63.11 220.42 61.22 219.21"/><rect class="cls-4" x="71.21" y="220.69" width="11.92" height="2.41" transform="translate(-155.08 186.52) rotate(-62.16)"/><polygon class="cls-4" points="77.63 228.9 82.43 217.99 90.52 221.56 89.7 223.4 83.82 220.81 82.76 223.22 88.23 225.64 87.42 227.47 81.95 225.06 80.64 228.03 86.73 230.71 85.92 232.55 77.63 228.9"/><polygon class="cls-4" points="88.53 233.54 92.13 222.18 94.37 222.89 96.61 231.95 99.02 224.37 101.15 225.04 97.54 236.4 95.24 235.67 93.01 226.81 90.66 234.22 88.53 233.54"/><polygon class="cls-4" points="103.28 237.71 105.28 228.01 101.81 227.3 102.22 225.33 111.5 227.24 111.09 229.21 107.63 228.5 105.63 238.2 103.28 237.71"/><path class="cls-4" d="M113.57,233.48a4.49,4.49,0,0,0,.63,3.15,3,3,0,0,0,2.26,1.27,3,3,0,0,0,2.45-.8,4.53,4.53,0,0,0,1.22-3,4.45,4.45,0,0,0-.59-3.13,3.33,3.33,0,0,0-4.77-.46,4.49,4.49,0,0,0-1.2,3m-2.48-.16a7.71,7.71,0,0,1,.84-3,5.55,5.55,0,0,1,1.27-1.51,4.61,4.61,0,0,1,1.63-.92,6.68,6.68,0,0,1,2.61-.22,5.6,5.6,0,0,1,4,2,7.31,7.31,0,0,1-.87,9,6.26,6.26,0,0,1-8.38-.82,6.16,6.16,0,0,1-1.13-4.6"/><path class="cls-4" d="M128.2,236.52l2.32-.35a2.81,2.81,0,0,0,.95,1.68,2.56,2.56,0,0,0,1.77.47,2.65,2.65,0,0,0,1.72-.58,1.46,1.46,0,0,0,.53-1.18,1.1,1.1,0,0,0-.28-.71,2.1,2.1,0,0,0-.89-.47q-.44-.12-1.95-.42a6.48,6.48,0,0,1-2.78-1,3.13,3.13,0,0,1-1.22-2.34,3.06,3.06,0,0,1,.43-1.73,3.23,3.23,0,0,1,1.42-1.28,6.06,6.06,0,0,1,2.33-.54,5,5,0,0,1,3.42.81,3.46,3.46,0,0,1,1.32,2.56l-2.39.23a2.14,2.14,0,0,0-.73-1.29,2.56,2.56,0,0,0-1.55-.32,2.7,2.7,0,0,0-1.61.52.87.87,0,0,0-.35.76.93.93,0,0,0,.4.7,6.1,6.1,0,0,0,2.24.68,12.09,12.09,0,0,1,2.64.72,3.32,3.32,0,0,1,1.38,1.15,3.37,3.37,0,0,1,.57,1.87,3.43,3.43,0,0,1-.47,1.94,3.38,3.38,0,0,1-1.53,1.41,6.64,6.64,0,0,1-2.57.57,5.16,5.16,0,0,1-3.52-.86,4.56,4.56,0,0,1-1.6-3"/><path class="cls-4" d="M147.59,234.1l2.42.36a5.3,5.3,0,0,1-1.31,3.15,5.14,5.14,0,0,1-3,1.43,5.2,5.2,0,0,1-4.11-1,6.18,6.18,0,0,1-2.2-4.14,6.52,6.52,0,0,1,.79-4.81,5.27,5.27,0,0,1,3.73-2.26,5,5,0,0,1,3.72.72,4.69,4.69,0,0,1,1.54,2l-2.26.93a2.45,2.45,0,0,0-1.1-1.3,2.48,2.48,0,0,0-1.69-.28,2.73,2.73,0,0,0-2,1.28,4.64,4.64,0,0,0-.33,3.17,5,5,0,0,0,1.3,3,2.66,2.66,0,0,0,2.24.62,2.44,2.44,0,0,0,1.54-.86,3.57,3.57,0,0,0,.68-2.05"/><path class="cls-4" d="M153.75,231.15a4.43,4.43,0,0,0,1.74,2.7,3.21,3.21,0,0,0,4.56-1.27,4.55,4.55,0,0,0,0-3.24,4.44,4.44,0,0,0-1.69-2.7,3,3,0,0,0-2.57-.32,3,3,0,0,0-2,1.63,4.48,4.48,0,0,0-.05,3.2m-2.36.75a7.68,7.68,0,0,1-.31-3.09,5.74,5.74,0,0,1,.63-1.87,4.75,4.75,0,0,1,1.19-1.45,6.54,6.54,0,0,1,2.35-1.15,5.63,5.63,0,0,1,4.5.43,7.31,7.31,0,0,1,2.46,8.72,6.25,6.25,0,0,1-8.1,2.29,6.15,6.15,0,0,1-2.72-3.88"/><path class="cls-4" d="M162.08,222.49l2.23-.92,2.46,6a13.2,13.2,0,0,0,.84,1.8,1.92,1.92,0,0,0,1.13.81,2.52,2.52,0,0,0,1.64-.2,2.45,2.45,0,0,0,1.27-1,1.62,1.62,0,0,0,.18-1.19,12.84,12.84,0,0,0-.67-1.91l-2.52-6.1,2.23-.92,2.39,5.79a15.81,15.81,0,0,1,1,2.88,3.26,3.26,0,0,1-.09,1.65,3.7,3.7,0,0,1-.93,1.44,6,6,0,0,1-2,1.2,6.49,6.49,0,0,1-2.54.63A3.69,3.69,0,0,1,167,232a3.14,3.14,0,0,1-1.13-1,14.89,14.89,0,0,1-1.37-2.7Z"/><polygon class="cls-4" points="180.67 227.18 175.96 218.47 172.85 220.15 171.9 218.38 180.23 213.87 181.19 215.65 178.08 217.32 182.79 226.04 180.67 227.18"/><path class="cls-4" d="M185,220.37l1.82-1.5a2.77,2.77,0,0,0,1.67,1,2.63,2.63,0,0,0,1.76-.52,2.66,2.66,0,0,0,1.17-1.39,1.45,1.45,0,0,0-.15-1.28,1.15,1.15,0,0,0-.61-.46,2,2,0,0,0-1,.06c-.28.07-.91.29-1.88.65a6.71,6.71,0,0,1-2.91.54,3.13,3.13,0,0,1-2.78-3.07,3.25,3.25,0,0,1,.56-1.84,5.89,5.89,0,0,1,1.71-1.65,5,5,0,0,1,3.35-1.08,3.48,3.48,0,0,1,2.45,1.51l-1.93,1.44A2,2,0,0,0,187,212a2.46,2.46,0,0,0-1.49.52,2.76,2.76,0,0,0-1.12,1.28.91.91,0,0,0,.8,1.22,6.16,6.16,0,0,0,2.28-.57,11.66,11.66,0,0,1,2.63-.75,3.31,3.31,0,0,1,1.77.27,3.75,3.75,0,0,1,2.06,3.22,3.36,3.36,0,0,1-.59,2,6.69,6.69,0,0,1-1.91,1.81,5.19,5.19,0,0,1-3.45,1.08,4.58,4.58,0,0,1-2.91-1.72"/><path class="cls-4" d="M195.89,204.85l5.32,5.83,1.33-1.21a6.49,6.49,0,0,0,1-1.07,2.08,2.08,0,0,0,.39-1,2.54,2.54,0,0,0-.31-1.27,7.88,7.88,0,0,0-1.29-1.78,7,7,0,0,0-1.61-1.4,2.69,2.69,0,0,0-1.29-.39,2.21,2.21,0,0,0-1.19.33,10.7,10.7,0,0,0-1.54,1.25Zm-3.14.13,3.25-3a8.43,8.43,0,0,1,1.83-1.36,4,4,0,0,1,2.07-.4,5.11,5.11,0,0,1,2.14.66,8.93,8.93,0,0,1,2.19,1.81,8,8,0,0,1,1.44,2.12,5.29,5.29,0,0,1,.47,2.42,4.16,4.16,0,0,1-.61,1.84,7.25,7.25,0,0,1-1.4,1.62l-3.35,3.05Z"/><polygon class="cls-4" points="210.04 205.09 201.11 197.19 206.97 190.57 208.48 191.91 204.22 196.72 206.2 198.48 210.16 194 211.67 195.32 207.7 199.81 210.13 201.96 214.54 196.97 216.04 198.3 210.04 205.09"/><polygon class="cls-4" points="217.68 196.19 208.1 189.26 209.52 187.31 217.46 193.07 220.97 188.22 222.6 189.4 217.68 196.19"/><polygon class="cls-4" points="226.07 183.95 215.5 178.44 217.16 175.25 225.37 177.08 219.15 171.43 220.82 168.23 231.39 173.74 230.35 175.72 222.04 171.39 229.26 177.82 228.19 179.87 218.78 177.63 227.1 181.96 226.07 183.95"/><path class="cls-4" d="M221.52,166.51l.85-2.25,6,2.26a14.82,14.82,0,0,0,1.9.62,2,2,0,0,0,1.36-.29,2.55,2.55,0,0,0,1-1.33,2.41,2.41,0,0,0,.15-1.59,1.69,1.69,0,0,0-.74-1,13.83,13.83,0,0,0-1.86-.8L224,159.86l.85-2.25,5.86,2.19a16.67,16.67,0,0,1,2.77,1.25,3.37,3.37,0,0,1,1.15,1.2,3.73,3.73,0,0,1,.42,1.65,6.17,6.17,0,0,1-.47,2.28,6.52,6.52,0,0,1-1.28,2.28,3.65,3.65,0,0,1-1.44.95,3.36,3.36,0,0,1-1.48.17,14.25,14.25,0,0,1-2.91-.84Z"/><polygon class="cls-4" points="237.01 158.61 225.45 155.72 226.02 153.45 234.93 150.65 227.21 148.71 227.75 146.54 239.31 149.44 238.72 151.78 230.02 154.56 237.56 156.44 237.01 158.61"/><path class="cls-4" d="M230.45,142.49l7.82,1,.24-1.78a6.86,6.86,0,0,0,.08-1.46,2.27,2.27,0,0,0-.37-1,2.6,2.6,0,0,0-1.05-.77A7.82,7.82,0,0,0,235,138a7.08,7.08,0,0,0-2.14,0,2.78,2.78,0,0,0-1.23.52,2.27,2.27,0,0,0-.71,1,11,11,0,0,0-.37,1.94Zm-2.32,2.12.58-4.36a8.37,8.37,0,0,1,.53-2.22,3.92,3.92,0,0,1,1.32-1.64,5.31,5.31,0,0,1,2.06-.87,8.7,8.7,0,0,1,2.85,0,8,8,0,0,1,2.46.69,5.4,5.4,0,0,1,1.93,1.55,4.22,4.22,0,0,1,.71,1.8,7.1,7.1,0,0,1,0,2.15l-.6,4.48Z"/><path class="cls-4" d="M235.55,131.28a4.48,4.48,0,0,0,3.08-.89,3.1,3.1,0,0,0,1.08-2.36,3,3,0,0,0-1-2.37,5.64,5.64,0,0,0-6.17-.12,3,3,0,0,0-1,2.37,3.08,3.08,0,0,0,1,2.41,4.52,4.52,0,0,0,3.07,1m0,2.48a7.7,7.7,0,0,1-3.05-.59,5.49,5.49,0,0,1-1.61-1.14,4.44,4.44,0,0,1-1.05-1.55,6.53,6.53,0,0,1-.44-2.58,5.64,5.64,0,0,1,1.7-4.19,7.32,7.32,0,0,1,9.06.12,6.27,6.27,0,0,1-.12,8.43,6.15,6.15,0,0,1-4.49,1.5"/><path class="cls-4" d="M131,205.69s-1.45-1.14-1-1.64Z"/><path class="cls-4" d="M125.87,208.92a6.88,6.88,0,0,0-4.25-.27l.26.46.69.95.79-.07a2.94,2.94,0,0,1,1.07.24s1.3-1.36,1.44-1.31"/><path class="cls-4" d="M130.25,151.19a2,2,0,0,0-.37.31,3.14,3.14,0,0,0-.23.55,1.51,1.51,0,0,1-.19.55,1.76,1.76,0,0,1-.4.35,24.38,24.38,0,0,1,2.71.27h0a2,2,0,0,0,.43-.32,1.46,1.46,0,0,0,.23-.52,3.71,3.71,0,0,1,.29-.53,1.77,1.77,0,0,1,.41-.27c-.93-.18-1.88-.31-2.84-.4Z"/><path class="cls-4" d="M133.91,151.75a2,2,0,0,0-.41.26,2.36,2.36,0,0,0-.3.52,1.49,1.49,0,0,1-.27.51,1.58,1.58,0,0,1-.44.3,25.54,25.54,0,0,1,2.65.62h0a2,2,0,0,0,.47-.26,1.48,1.48,0,0,0,.31-.49,2.58,2.58,0,0,1,.35-.48,1.54,1.54,0,0,1,.44-.22h0c-.9-.29-1.82-.55-2.76-.76Z"/><path class="cls-4" d="M137.46,152.79a1.42,1.42,0,0,0-.44.21,2.48,2.48,0,0,0-.37.46,1.53,1.53,0,0,1-.33.48,1.58,1.58,0,0,1-.47.24,26.58,26.58,0,0,1,2.54,1v0a1.84,1.84,0,0,0,.49-.19,1.6,1.6,0,0,0,.37-.44,3,3,0,0,1,.41-.44,1.63,1.63,0,0,1,.46-.16h0c-.85-.41-1.73-.78-2.63-1.11Z"/><path class="cls-4" d="M140.84,154.28a1.7,1.7,0,0,0-.46.14,2.49,2.49,0,0,0-.43.43,1.6,1.6,0,0,1-.38.42,1.75,1.75,0,0,1-.51.18,26.39,26.39,0,0,1,2.41,1.28l0,0a1.7,1.7,0,0,0,.51-.12,1.66,1.66,0,0,0,.43-.39,2.26,2.26,0,0,1,.46-.38,1.64,1.64,0,0,1,.48-.1,28.56,28.56,0,0,0-2.47-1.45Z"/><path class="cls-4" d="M144,156.2a1.73,1.73,0,0,0-.48.08,2.86,2.86,0,0,0-.48.36,1.48,1.48,0,0,1-.43.38,1.75,1.75,0,0,1-.52.1c.77.5,1.5,1,2.21,1.59v0a1.75,1.75,0,0,0,.53-.06,1.36,1.36,0,0,0,.46-.33,2.38,2.38,0,0,1,.52-.31,1.56,1.56,0,0,1,.48,0A26.12,26.12,0,0,0,144,156.2Z"/><path class="cls-4" d="M146.89,158.52a1.61,1.61,0,0,0-.49,0,2.78,2.78,0,0,0-.52.3,2,2,0,0,1-.48.32,1.88,1.88,0,0,1-.53,0,26.86,26.86,0,0,1,2,1.86v0a2,2,0,0,0,.53,0,1.62,1.62,0,0,0,.51-.28,2.87,2.87,0,0,1,.55-.24,1.78,1.78,0,0,1,.48,0h0a27.46,27.46,0,0,0-2-2Z"/><path class="cls-4" d="M149.44,161.19a1.94,1.94,0,0,0-.48-.05,3.16,3.16,0,0,0-.56.23,1.48,1.48,0,0,1-.52.25,1.8,1.8,0,0,1-.53,0,24.72,24.72,0,0,1,1.73,2.1v0a1.71,1.71,0,0,0,.52.09,1.49,1.49,0,0,0,.54-.2,2.35,2.35,0,0,1,.58-.17,1.39,1.39,0,0,1,.47.09q-.8-1.17-1.71-2.28Z"/><path class="cls-4" d="M151.62,164.17a1.76,1.76,0,0,0-.47-.11,2.76,2.76,0,0,0-.58.15,1.48,1.48,0,0,1-.55.19,1.71,1.71,0,0,1-.52-.11,26.36,26.36,0,0,1,1.44,2.32v0a2,2,0,0,0,.51.15,1.65,1.65,0,0,0,.56-.13,2.65,2.65,0,0,1,.6-.09,1.7,1.7,0,0,1,.46.15h0c-.43-.84-.9-1.67-1.41-2.48Z"/><path class="cls-4" d="M153.4,167.42a1.43,1.43,0,0,0-.45-.17,2.13,2.13,0,0,0-.6.07,1.79,1.79,0,0,1-.56.11,1.85,1.85,0,0,1-.51-.18,26.43,26.43,0,0,1,1.13,2.49v0a1.82,1.82,0,0,0,.48.21,1.46,1.46,0,0,0,.57,0,2.44,2.44,0,0,1,.6,0,1.61,1.61,0,0,1,.44.21h0c-.31-.89-.67-1.78-1.07-2.65Z"/><path class="cls-4" d="M154.74,170.86a1.44,1.44,0,0,0-.43-.22,2.37,2.37,0,0,0-.6,0,1.53,1.53,0,0,1-.58,0,1.72,1.72,0,0,1-.47-.23c.31.86.57,1.73.79,2.6v0a1.56,1.56,0,0,0,.45.28,1.46,1.46,0,0,0,.58,0,2.14,2.14,0,0,1,.59.06,1.51,1.51,0,0,1,.41.26h0a27.52,27.52,0,0,0-.72-2.77Z"/><path class="cls-4" d="M155.62,174.45a1.75,1.75,0,0,0-.4-.28,2.23,2.23,0,0,0-.6-.08,1.48,1.48,0,0,1-.57-.05,1.59,1.59,0,0,1-.44-.29c.19.89.34,1.79.44,2.69v0a1.64,1.64,0,0,0,.41.33,1.37,1.37,0,0,0,.57.1,2.9,2.9,0,0,1,.58.14,1.69,1.69,0,0,1,.37.32h0c-.07-.95-.19-1.9-.35-2.85Z"/><path class="cls-4" d="M156,178.13a1.52,1.52,0,0,0-.36-.33,2.33,2.33,0,0,0-.58-.16,1.61,1.61,0,0,1-.56-.12,1.83,1.83,0,0,1-.4-.35c.08.91.1,1.82.09,2.72v0a1.54,1.54,0,0,0,.36.39,1.44,1.44,0,0,0,.55.17,2.62,2.62,0,0,1,.56.22,1.39,1.39,0,0,1,.32.36h0a27.45,27.45,0,0,0,0-2.87Z"/><path class="cls-4" d="M155.93,181.83a1.84,1.84,0,0,0-.3-.38,3.25,3.25,0,0,0-.56-.24,1.49,1.49,0,0,1-.54-.18,1.76,1.76,0,0,1-.35-.4c0,.91-.14,1.81-.27,2.71v0a1.82,1.82,0,0,0,.31.43,1.37,1.37,0,0,0,.53.24,4.35,4.35,0,0,1,.53.29,1.78,1.78,0,0,1,.27.4h0a26.4,26.4,0,0,0,.4-2.83Z"/><path class="cls-4" d="M155.37,185.48a1.62,1.62,0,0,0-.26-.41,2.46,2.46,0,0,0-.51-.31,1.58,1.58,0,0,1-.52-.26,1.67,1.67,0,0,1-.29-.44c-.17.9-.38,1.79-.63,2.65l0,0a1.76,1.76,0,0,0,.25.47,1.38,1.38,0,0,0,.49.3,3.27,3.27,0,0,1,.49.36,1.71,1.71,0,0,1,.21.43h0a26.19,26.19,0,0,0,.76-2.76Z"/><path class="cls-4" d="M154.4,189.06a1.35,1.35,0,0,0-.17-.45,2.5,2.5,0,0,0-.44-.41,1.58,1.58,0,0,1-.45-.36,1.71,1.71,0,0,1-.2-.49c-.34.85-.73,1.68-1.14,2.48v0a1.82,1.82,0,0,0,.16.52c.11.2.3.28.41.39a2.42,2.42,0,0,1,.41.45,1.47,1.47,0,0,1,.12.47h0c.47-.82.91-1.68,1.3-2.55Z"/><path class="cls-4" d="M152.85,192.41a1.5,1.5,0,0,0-.15-.46,1.89,1.89,0,0,0-.42-.43,1.47,1.47,0,0,1-.43-.38,2.07,2.07,0,0,1-.17-.51,25,25,0,0,1-1.29,2.4l0,0a1.92,1.92,0,0,0,.13.52,1.46,1.46,0,0,0,.39.42,2.17,2.17,0,0,1,.37.47,1.71,1.71,0,0,1,.11.48h0c.52-.8,1-1.62,1.46-2.47Z"/><path class="cls-4" d="M150.92,195.57a1.73,1.73,0,0,0-.08-.48,2.86,2.86,0,0,0-.36-.48,1.64,1.64,0,0,1-.38-.43,2.21,2.21,0,0,1-.1-.53,23.51,23.51,0,0,1-1.59,2.22l0,0a1.69,1.69,0,0,0,.06.53,1.46,1.46,0,0,0,.34.47,3.67,3.67,0,0,1,.31.51,1.52,1.52,0,0,1,0,.49h0a27.86,27.86,0,0,0,1.76-2.26Z"/><path class="cls-4" d="M148.61,198.45a1.67,1.67,0,0,0,0-.48,2.32,2.32,0,0,0-.3-.52A1.43,1.43,0,0,1,148,197a2.08,2.08,0,0,1,0-.53,25.14,25.14,0,0,1-1.86,2h0a1.63,1.63,0,0,0,0,.53,1.44,1.44,0,0,0,.27.51,2.94,2.94,0,0,1,.25.55,1.65,1.65,0,0,1,0,.48h0q1.06-1,2-2Z"/><path class="cls-4" d="M145.94,201a1.65,1.65,0,0,0,0-.48,2.49,2.49,0,0,0-.22-.56,1.4,1.4,0,0,1-.25-.52,1.8,1.8,0,0,1,0-.53,24.26,24.26,0,0,1-2.1,1.72h0a1.9,1.9,0,0,0-.08.52,1.49,1.49,0,0,0,.2.54,4.06,4.06,0,0,1,.17.58,1.7,1.7,0,0,1-.1.48h0a27,27,0,0,0,2.29-1.73Z"/><path class="cls-4" d="M143,203.19a1.76,1.76,0,0,0,.11-.47,2.37,2.37,0,0,0-.15-.58,1.55,1.55,0,0,1-.18-.55,1.9,1.9,0,0,1,.1-.52,26.2,26.2,0,0,1-2.31,1.44h0a1.65,1.65,0,0,0-.15.51,1.45,1.45,0,0,0,.12.56,1.9,1.9,0,0,1,.09.6,1.4,1.4,0,0,1-.15.46h0a28,28,0,0,0,2.49-1.42Z"/><path class="cls-4" d="M139.71,205a1.75,1.75,0,0,0,.17-.45,2.58,2.58,0,0,0-.07-.6,1.36,1.36,0,0,1-.11-.56,1.67,1.67,0,0,1,.17-.51,23.87,23.87,0,0,1-2.48,1.12h0a2.38,2.38,0,0,0-.25.48,1.66,1.66,0,0,0,0,.58,2.37,2.37,0,0,1-.07.61,2.6,2.6,0,0,1-.19.49A29.51,29.51,0,0,0,139.7,205Z"/><path class="cls-4" d="M136.05,206.29a2.31,2.31,0,0,0,.12-.35,2,2,0,0,0,.07-.51c0-.16-.13-.29-.07-.51a3.18,3.18,0,0,1,.33-.7,20.29,20.29,0,0,0-2.93,1.21l-.37.18a1.61,1.61,0,0,0-.12.55c0,.17,0,.44,0,.62a2.15,2.15,0,0,1-.36.92,10.09,10.09,0,0,0,2.9-1.17Z"/><path class="cls-4" d="M118.09,205.91a1.72,1.72,0,0,0,.44-.21,2.26,2.26,0,0,0,.37-.47,1.08,1.08,0,0,1,.81-.71,26.77,26.77,0,0,1-2.55-1h0a1.82,1.82,0,0,0-.5.19,1.63,1.63,0,0,0-.37.45,2.42,2.42,0,0,1-.41.43,1.79,1.79,0,0,1-.46.17h0c.85.41,1.73.78,2.63,1.11Z"/><path class="cls-4" d="M114.71,204.41a1.7,1.7,0,0,0,.46-.14,2.81,2.81,0,0,0,.43-.42,1.54,1.54,0,0,1,.39-.43,1.77,1.77,0,0,1,.5-.17,25,25,0,0,1-2.4-1.29l0,0a1.71,1.71,0,0,0-.52.12,1.66,1.66,0,0,0-.43.39,3.08,3.08,0,0,1-.46.38,1.64,1.64,0,0,1-.48.1c.79.51,1.62,1,2.47,1.44Z"/><path class="cls-4" d="M111.55,202.49a1.63,1.63,0,0,0,.47-.08,2.28,2.28,0,0,0,.49-.36,1.46,1.46,0,0,1,.43-.37,1.62,1.62,0,0,1,.52-.11,24.58,24.58,0,0,1-2.2-1.59v0a1.82,1.82,0,0,0-.52.05,1.62,1.62,0,0,0-.47.33,2.44,2.44,0,0,1-.52.32,1.82,1.82,0,0,1-.48,0h0c.72.62,1.47,1.2,2.25,1.76Z"/><path class="cls-4" d="M108.67,200.18a1.67,1.67,0,0,0,.48,0,2,2,0,0,0,.52-.3,1.72,1.72,0,0,1,.49-.31,1.63,1.63,0,0,1,.52,0,26.86,26.86,0,0,1-2-1.86v0a1.63,1.63,0,0,0-.53,0,1.53,1.53,0,0,0-.51.27,2.42,2.42,0,0,1-.55.25,1.78,1.78,0,0,1-.48,0h0c.64.71,1.31,1.39,2,2Z"/><path class="cls-4" d="M106.11,197.5a1.57,1.57,0,0,0,.49.05,3.16,3.16,0,0,0,.56-.23,1.73,1.73,0,0,1,.51-.25,1.68,1.68,0,0,1,.54,0,26.15,26.15,0,0,1-1.73-2.11v0a1.79,1.79,0,0,0-.53-.09,1.49,1.49,0,0,0-.54.2,2.23,2.23,0,0,1-.58.17,1.71,1.71,0,0,1-.47-.09h0a28.36,28.36,0,0,0,1.72,2.28Z"/><path class="cls-4" d="M103.93,194.52a1.88,1.88,0,0,0,.47.11,2.19,2.19,0,0,0,.58-.16,1.62,1.62,0,0,1,.55-.17,1.9,1.9,0,0,1,.52.1,25.38,25.38,0,0,1-1.43-2.32v0a1.65,1.65,0,0,0-.51-.15,1.72,1.72,0,0,0-.56.12,2.21,2.21,0,0,1-.59.1,1.68,1.68,0,0,1-.47-.15h0c.43.85.9,1.68,1.42,2.5Z"/><path class="cls-4" d="M102.15,191.28a1.49,1.49,0,0,0,.46.16,2.11,2.11,0,0,0,.59-.07,1.56,1.56,0,0,1,.57-.11,2.05,2.05,0,0,1,.51.17,26.26,26.26,0,0,1-1.13-2.48v0a2.05,2.05,0,0,0-.48-.22,1.5,1.5,0,0,0-.58.06,2.42,2.42,0,0,1-.6,0,1.5,1.5,0,0,1-.43-.21h0a27.18,27.18,0,0,0,1.07,2.65Z"/><path class="cls-4" d="M100.81,187.83a1.66,1.66,0,0,0,.43.23,3,3,0,0,0,.6,0,1.56,1.56,0,0,1,.58,0,1.86,1.86,0,0,1,.48.23,25,25,0,0,1-.79-2.6v0a1.69,1.69,0,0,0-.46-.28,1.62,1.62,0,0,0-.57,0,2.26,2.26,0,0,1-.6-.06,2.1,2.1,0,0,1-.41-.26h0c.2.93.43,1.85.72,2.77Z"/><path class="cls-4" d="M99.94,184.24a1.62,1.62,0,0,0,.39.28,3.45,3.45,0,0,0,.6.09,1.41,1.41,0,0,1,.57,0,1.76,1.76,0,0,1,.44.3c-.19-.89-.33-1.79-.44-2.69v0a1.82,1.82,0,0,0-.41-.34,1.56,1.56,0,0,0-.57-.09,3.19,3.19,0,0,1-.59-.14,1.82,1.82,0,0,1-.36-.32,27.33,27.33,0,0,0,.35,2.83Z"/><path class="cls-4" d="M99.54,180.56a1.52,1.52,0,0,0,.36.33,2.25,2.25,0,0,0,.57.16,1.66,1.66,0,0,1,.57.12,2.12,2.12,0,0,1,.4.35,24.8,24.8,0,0,1-.09-2.72v0a1.87,1.87,0,0,0-.36-.38,1.49,1.49,0,0,0-.55-.17,2.42,2.42,0,0,1-.56-.22,1.5,1.5,0,0,1-.33-.36c-.05.95-.06,1.9,0,2.86Z"/><path class="cls-4" d="M99.62,176.87a1.69,1.69,0,0,0,.31.37,2.53,2.53,0,0,0,.55.23,1.54,1.54,0,0,1,.55.2,2.08,2.08,0,0,1,.35.4,26.74,26.74,0,0,1,.26-2.71v0a1.82,1.82,0,0,0-.31-.43,1.33,1.33,0,0,0-.52-.24,2.93,2.93,0,0,1-.53-.29,1.58,1.58,0,0,1-.27-.4h0c-.18.93-.31,1.88-.4,2.83Z"/><path class="cls-4" d="M100.18,173.21a1.75,1.75,0,0,0,.26.41,2.86,2.86,0,0,0,.52.31,1.41,1.41,0,0,1,.52.26,1.67,1.67,0,0,1,.29.44,26.15,26.15,0,0,1,.62-2.65l0,0a1.65,1.65,0,0,0-.25-.47,1.54,1.54,0,0,0-.49-.3,2.31,2.31,0,0,1-.48-.36,1.88,1.88,0,0,1-.22-.43h0a25.51,25.51,0,0,0-.75,2.76Z"/><path class="cls-4" d="M101.22,169.66a1.42,1.42,0,0,0,.21.44,2.52,2.52,0,0,0,.46.38,1.46,1.46,0,0,1,.49.32,1.84,1.84,0,0,1,.23.48,25.79,25.79,0,0,1,1-2.55l0,0a2,2,0,0,0-.19-.5,1.6,1.6,0,0,0-.44-.37,2.92,2.92,0,0,1-.44-.41,1.88,1.88,0,0,1-.16-.45h0c-.41.85-.78,1.73-1.11,2.63Z"/><path class="cls-4" d="M102.71,166.28a1.73,1.73,0,0,0,.14.47,2.46,2.46,0,0,0,.43.42,1.69,1.69,0,0,1,.43.39,1.77,1.77,0,0,1,.17.5c.39-.83.82-1.63,1.28-2.4l0,0a1.71,1.71,0,0,0-.12-.52c-.1-.21-.28-.3-.39-.42a2.61,2.61,0,0,1-.38-.47,1.6,1.6,0,0,1-.1-.47h0a25.34,25.34,0,0,0-1.45,2.47Z"/><path class="cls-4" d="M104.63,163.12a1.73,1.73,0,0,0,.08.48,2.5,2.5,0,0,0,.36.48,1.41,1.41,0,0,1,.38.44,1.67,1.67,0,0,1,.1.52c.5-.77,1-1.51,1.59-2.21h0a1.69,1.69,0,0,0-.06-.53,1.31,1.31,0,0,0-.33-.47,2.78,2.78,0,0,1-.31-.51,1.62,1.62,0,0,1,0-.49h0a27.37,27.37,0,0,0-1.76,2.26Z"/><path class="cls-4" d="M107,160.24a1.36,1.36,0,0,0,0,.48,2.55,2.55,0,0,0,.29.53,1.67,1.67,0,0,1,.32.48,1.84,1.84,0,0,1,0,.53c.6-.7,1.22-1.36,1.87-2h0a2,2,0,0,0,0-.53,1.56,1.56,0,0,0-.27-.5,2.48,2.48,0,0,1-.25-.56,1.78,1.78,0,0,1,0-.48h0a27.61,27.61,0,0,0-2,2Z"/><path class="cls-4" d="M109.62,157.68a1.57,1.57,0,0,0-.05.49,3.08,3.08,0,0,0,.23.55,1.8,1.8,0,0,1,.25.52,1.62,1.62,0,0,1,0,.53,26.41,26.41,0,0,1,2.11-1.72h0a1.79,1.79,0,0,0,.09-.53,1.49,1.49,0,0,0-.2-.54,2.23,2.23,0,0,1-.17-.58,1.71,1.71,0,0,1,.09-.47h0a28.36,28.36,0,0,0-2.28,1.72Z"/><path class="cls-4" d="M112.6,155.5a1.6,1.6,0,0,0-.1.47,1.84,1.84,0,0,0,.15.58,1.62,1.62,0,0,1,.17.55,1.51,1.51,0,0,1-.1.52,26.67,26.67,0,0,1,2.31-1.43h0a2,2,0,0,0,.15-.51,1.71,1.71,0,0,0-.13-.56,2.65,2.65,0,0,1-.09-.59,1.57,1.57,0,0,1,.15-.46h0a28.19,28.19,0,0,0-2.49,1.41Z"/><path class="cls-4" d="M115.84,153.72a1.61,1.61,0,0,0-.16.46,2.22,2.22,0,0,0,.07.6,1.68,1.68,0,0,1,.11.56,1.92,1.92,0,0,1-.17.5c.81-.41,1.63-.79,2.47-1.12h0a1.82,1.82,0,0,0,.21-.48,1.52,1.52,0,0,0,0-.58,2.42,2.42,0,0,1,0-.6,1.5,1.5,0,0,1,.21-.43h0c-.89.31-1.78.67-2.65,1.07Z"/><path class="cls-4" d="M119.29,152.39a1.54,1.54,0,0,0-.23.42,3.1,3.1,0,0,0,0,.61,1.48,1.48,0,0,1,0,.57,1.86,1.86,0,0,1-.23.48,25,25,0,0,1,2.6-.79h0a1.55,1.55,0,0,0,.28-.46,1.42,1.42,0,0,0,0-.57,2.26,2.26,0,0,1,.06-.6,1.4,1.4,0,0,1,.26-.4h0a27.52,27.52,0,0,0-2.77.72Z"/><path class="cls-4" d="M122.88,151.51a1.62,1.62,0,0,0-.28.39,3.45,3.45,0,0,0-.09.6,1.27,1.27,0,0,1,0,.57,1.59,1.59,0,0,1-.29.44c.89-.19,1.79-.34,2.68-.44h0a1.82,1.82,0,0,0,.34-.41,1.85,1.85,0,0,0,.1-.57,2.36,2.36,0,0,1,.13-.58,1.69,1.69,0,0,1,.32-.37h0a27.86,27.86,0,0,0-2.84.35Z"/><path class="cls-4" d="M126.56,151.11a1.62,1.62,0,0,0-.33.35,2.46,2.46,0,0,0-.16.58,1.66,1.66,0,0,1-.12.57,1.83,1.83,0,0,1-.35.4,24.8,24.8,0,0,1,2.72-.09h0a1.79,1.79,0,0,0,.38-.37,1.29,1.29,0,0,0,.17-.54,2.71,2.71,0,0,1,.22-.57,1.89,1.89,0,0,1,.36-.32h0a27.46,27.46,0,0,0-2.87,0Z"/><path class="cls-4" d="M119.69,205.79s.3,1.53,1.31,1.57a4.37,4.37,0,0,1,1.56-1.72l.19-.23a2.65,2.65,0,0,1,.41-1.95l-.56.13a4.93,4.93,0,0,0-2.92,2.21Z"/><path class="cls-4" d="M121.51,210.84a1.2,1.2,0,0,0,.47-.32h0a2.89,2.89,0,0,1-1.12-2.35c-1.28-.16-1.57-1.6-1.57-1.6h0a5,5,0,0,0-.3,1.56,4.77,4.77,0,0,0,.78,2.69h0a4.35,4.35,0,0,0,1.71,0"/><path class="cls-4" d="M124.26,211.09a3.19,3.19,0,0,1-.54,0,3.14,3.14,0,0,1-1-.2h0c-.28.87-2.26.68-2.26.68a4.78,4.78,0,0,0,2.66,1.32h0s1.12-.23,1.15-1.84Z"/><path class="cls-4" d="M124.86,211l0,0,.85.19a6.81,6.81,0,0,1,1.88.64s-1.8,1.7-3.38,1.29a1.84,1.84,0,0,0,.65-2.12Z"/><path class="cls-4" d="M130.17,210.59a8.54,8.54,0,0,0-3.25-1.42l-1.74,1.22,2.08.7c.63.16.8.47,1.59,1,0,0,1.85-1.06,1.32-1.48"/><path class="cls-4" d="M133.74,212.35a3,3,0,0,1-1.79.72,4.12,4.12,0,0,1-2.45-.6s1.54-1,1.47-1.55a3.54,3.54,0,0,0,1.7.08,3.28,3.28,0,0,0,1.07,1.35"/><path class="cls-4" d="M131,205.69a2.37,2.37,0,0,1,2-.75c1.85-.79,2.14-.86,2.14-.86a3,3,0,0,0-2.72-.94,5.78,5.78,0,0,0-2.57,1.05Z"/><path class="cls-4" d="M130.41,206.08s-1.21-1-1-1.75c-1.35,1.19-1.9,1.79-3,1.79-.28,0,0,0,0,0a1.83,1.83,0,0,0-.28.56,2.08,2.08,0,0,0-.12.51,3,3,0,0,0,0,.6,4.53,4.53,0,0,0,2.27-.18,4.75,4.75,0,0,0,1.51-1c.14-.13.5-.41.63-.54"/><path class="cls-4" d="M125.43,207.88s-.14,0,0-.73a3,3,0,0,1,.18-.51,2.15,2.15,0,0,1,.28-.54h0l-.34,0a18.64,18.64,0,0,1-2.26-.33h0a1.62,1.62,0,0,0-.76.5c-.07.16-.23.21-.33.32s-.33.39-.33.39h0a10.41,10.41,0,0,0,3.54.88"/><path class="cls-4" d="M124.33,203.62c.14-.23.44-.15.65-.18a3.42,3.42,0,0,1,3,1.32l-.49.37a2.11,2.11,0,0,1-1,.44l-.27-.1a3.74,3.74,0,0,0-1.26-.21,3.05,3.05,0,0,0-1.17,0c-.41-.43.6-1.66.6-1.66Z"/><path class="cls-4" d="M119.82,211.72a7.92,7.92,0,0,0-.65.52l-.39.38h0s-1.27-1.5-2.27-.63h0c.42-.53.79-1,1-1.22a3.42,3.42,0,0,1,.88-.66l-.12.07a2.75,2.75,0,0,1,.42-.16,2.79,2.79,0,0,0,1.12,1.71"/><path class="cls-4" d="M115.85,212.8a1.63,1.63,0,0,1,2.37.35l-1,.94Z"/><polygon class="cls-4" points="115.38 213.43 116.65 214.67 116.84 214.47 115.55 213.23 115.38 213.43"/><path class="cls-4" d="M115,213.68a6.43,6.43,0,0,0-.73.54l1.44,1.68.6-.9Z"/><path class="cls-4" d="M138.84,214.13a7.13,7.13,0,0,1,.71.58l-1.5,1.62-.57-.92Z"/><polygon class="cls-4" points="136.93 214.91 137.12 215.1 138.45 213.92 138.26 213.72 136.93 214.91"/><path class="cls-4" d="M138.06,213.23a1.63,1.63,0,0,0-2.38.26l.93,1Z"/><path class="cls-4" d="M135.62,210.43a1.93,1.93,0,0,0-2.62.4,5.89,5.89,0,0,1,1.88,1.66l.27.44h0s1.33-1.45,2.3-.54h0c-.4-.54-.76-1-1-1.23a6,6,0,0,0-.85-.72"/><path class="cls-4" d="M129.24,207.67c-.15.07.91.44,2.58.2v0a1.38,1.38,0,0,0,.29-.39,2.9,2.9,0,0,0,.19-.63c0-.17.06-.27.06-.49a1.47,1.47,0,0,1,.09-.42c-.19.1-1.19.43-1.19.43l-.46.1c-.16.12-.27.26-.4.36l-.49.41c-.11.09-.62.4-.68.45"/><path class="cls-4" d="M136.25,210a3.3,3.3,0,0,0,.41-3.25l-2,.93a1.18,1.18,0,0,1-.23,1.33s2,.86,1.86,1"/><path class="cls-4" d="M132.28,210.55s1.37-1.29,2.25-.89l-.2-.18a4.77,4.77,0,0,0-2.68-.95c-.86,0-2.34.22-2.68.77a4.61,4.61,0,0,1,2.08,1.07c.08.07.42,0,1.23.18"/><path class="cls-4" d="M123.68,183.67h-.05a26.39,26.39,0,0,0-3.25.44c-.54-2.08-2-4.75-4.63-4.37-2.23.32-3.15,2.59-2.62,4.62-3.17.44-5.83-2.12-6.46-5.05a7.15,7.15,0,0,1,6.83-8.76c6.48,0,10,8.54,10.18,13.11m-12.42-4.83.82-1.63,1.81.27-1.3-1.28.82-1.64-1.63.84-1.3-1.28.3,1.8-1.62.84L111,177Z"/><path class="cls-4" d="M131.88,183.68c.21-4.57,3.7-13.1,10.17-13.11a7.15,7.15,0,0,1,6.84,8.76c-.64,2.92-3.3,5.49-6.46,5,.53-2-.4-4.3-2.62-4.63-2.59-.37-4.1,2.3-4.63,4.35-1.11-.22-2.32-.32-3.26-.41Zm12.41-4.83.3-1.8,1.81-.28-1.62-.84.29-1.8-1.3,1.28-1.62-.84.82,1.64-1.3,1.28,1.8-.28Z"/><path class="cls-4" d="M127.77,187.55c-4.83,0-8.75-.71-8.75-1.59s3.92-1.6,8.75-1.6,8.75.71,8.75,1.6-3.92,1.59-8.75,1.59m0-.94c4.18,0,7.55-.39,7.55-.66s-3.39-.67-7.57-.67-7.57.41-7.57.67,3.41.66,7.59.66"/><path class="cls-4" d="M134.89,187.85c-.89.18-1.93.33-3,.44h0c.22,1.92,1.81,6.05,4.53,6.05a3.9,3.9,0,0,0,3.7-3.65c-2.33,1.11-4.72,0-5.2-2.83Z"/><path class="cls-4" d="M123.68,188.29a27.73,27.73,0,0,1-3-.43v0c-.46,2.83-2.86,4-5.22,2.89a3.91,3.91,0,0,0,3.71,3.66c2.74,0,4.33-4.21,4.53-6.11Z"/><path class="cls-4" d="M127.77,157.24a30.14,30.14,0,0,0,3.5,3,10.36,10.36,0,0,1,4.4,8c0,5-4.14,9.32-4.67,15.32a25.7,25.7,0,0,0-2.7-.15c.11-6.08-.12-14.32-.53-20.27-.41,6-.64,14.19-.53,20.27a25.55,25.55,0,0,0-2.7.15c-.53-6-4.71-10.36-4.67-15.32a10.36,10.36,0,0,1,4.4-8,31,31,0,0,0,3.5-3"/><path class="cls-4" d="M127.77,199.88a12.14,12.14,0,0,0,5.76-5.44,13.57,13.57,0,0,1-2.47-6.07c-.86.06-1.77.1-2.71.1a48.65,48.65,0,0,1-.58,6.9,48.65,48.65,0,0,1-.58-6.9c-1,0-1.85,0-2.71-.1a13.57,13.57,0,0,1-2.47,6.07,12.14,12.14,0,0,0,5.76,5.44"/><path class="cls-4" d="M151.07,208.3a.6.6,0,0,0-.07-.3.45.45,0,0,0-.22-.21.84.84,0,0,0-.3-.11l-.42,0h-.69v1.45H150a2.47,2.47,0,0,0,.5,0,.87.87,0,0,0,.35-.16.61.61,0,0,0,.2-.26.88.88,0,0,0,.06-.35m1.65,3.08h-1l-1.55-1.67h-.76v1.67h-.78v-4.31h1.47a4.84,4.84,0,0,1,.72,0,1.57,1.57,0,0,1,.57.18,1.17,1.17,0,0,1,.43.39,1.22,1.22,0,0,1-.13,1.33,1.8,1.8,0,0,1-.73.49Zm.9-2.08a3.41,3.41,0,0,0-1-2.49,3.48,3.48,0,0,0-5,0,3.54,3.54,0,0,0,0,5,3.48,3.48,0,0,0,5,0,3.43,3.43,0,0,0,1-2.5m.55,0a4.06,4.06,0,1,1-1.19-2.87,3.9,3.9,0,0,1,1.19,2.87"/></svg>