<svg id="Capa_1" data-name="Capa 1" xmlns="http://www.w3.org/2000/svg" viewBox="0 0 256 256"><defs><style>.cls-1{fill:#fff;}.cls-2{fill:#9ac32b;}.cls-3{fill:#11569e;}.cls-4{fill:#6999cf;}.cls-5{fill:#97c129;}.cls-6{fill:#bcb8d9;}.cls-7{fill:#722482;}</style></defs><title>ismma</title><circle class="cls-1" cx="128" cy="128" r="128"/><path class="cls-2" d="M256,128A128,128,0,1,1,128,0,128,128,0,0,1,256,128h-4.31a123.7,123.7,0,1,0-36.23,87.47A123.32,123.32,0,0,0,251.69,128H256ZM195.92,38.73a4.63,4.63,0,0,0,3.8-2s2.95-3.3,4.52-2.29l-9.71-6.89c-1.58-1-4.53,2.3-4.53,2.3a4.65,4.65,0,0,1-3.79,2ZM181.15,19.84c-1.65-.78-4.15,2.8-4.17,2.84a4.71,4.71,0,0,1-3.53,2.46L184,30.73a4.72,4.72,0,0,0,3.53-2.45c0-.05,2.52-3.63,4.18-2.84Zm-14.31-6c-1.7-.56-3.72,3.23-3.76,3.34a4.74,4.74,0,0,1-3.2,2.9L171,24.28a4.72,4.72,0,0,0,3.2-2.89c0-.11,2.06-3.9,3.76-3.35ZM151.76,9.78c-1.72-.32-3.24,3.63-3.29,3.79a4.77,4.77,0,0,1-2.81,3.3l11.6,2.71a4.84,4.84,0,0,0,2.81-3.3c0-.16,1.57-4.11,3.29-3.79ZM136.05,7.69c-1.71-.08-2.71,4-2.74,4.19A4.84,4.84,0,0,1,131,15.53l11.85,1.16A4.82,4.82,0,0,0,145.16,13c0-.22,1-4.27,2.75-4.18Zm-16.15,0c-1.67.13-2.16,4.21-2.16,4.49a4.88,4.88,0,0,1-1.85,3.95l11.9-.43a4.93,4.93,0,0,0,1.85-4c0-.28.49-4.36,2.16-4.49ZM103.56,9.94c-1.59.35-1.57,4.39-1.52,4.73a4.94,4.94,0,0,1-1.31,4.18l11.73-2a5,5,0,0,0,1.31-4.19c0-.33-.07-4.38,1.53-4.73ZM88,14.26c-1.49.55-1,4.49-.87,4.87a5,5,0,0,1-.74,4.34L97.7,19.88a5,5,0,0,0,.75-4.34c-.11-.38-.62-4.32.87-4.87ZM73.44,20.49c-1.38.73-.4,4.52-.22,4.94a5,5,0,0,1-.17,4.41l10.78-5.06A5,5,0,0,0,84,20.37c-.18-.42-1.15-4.21.22-4.93ZM60,28.49c-1.24.87.17,4.46.42,4.9,1.12,1.9.7,4.21.41,4.41l10-6.42c.29-.2.71-2.51-.41-4.41-.26-.44-1.66-4-.42-4.9ZM47.8,38.07c-1.09,1,.7,4.34,1,4.79,1.32,1.7,1.26,4.07,1,4.34l9.12-7.66c.29-.27.34-2.64-1-4.34-.34-.45-2.13-3.79-1-4.79ZM37,49.07c-.92,1.1,1.2,4.17,1.64,4.61,1.49,1.47,1.8,3.86,1.53,4.19l8.07-8.75c.28-.33,0-2.73-1.52-4.2-.44-.44-2.57-3.5-1.65-4.6ZM27.6,61.35c-.76,1.17,1.67,3.92,2.21,4.34,1.61,1.24,2.3,3.59,2.05,4L38.76,60c.25-.39-.44-2.74-2.06-4-.54-.42-3-3.17-2.2-4.34ZM19.84,74.73c-.59,1.23,2.1,3.64,2.73,4,1.72,1,2.77,3.25,2.55,3.7l5.61-10.5c.21-.46-.84-2.71-2.55-3.71-.64-.37-3.32-2.78-2.73-4Zm-6,14.33c-.41,1.26,2.49,3.3,3.22,3.62,1.77.74,3.18,2.83,3,3.35l4.21-11.14c.17-.52-1.24-2.61-3-3.36-.73-.3-3.62-2.36-3.21-3.61ZM9.79,104.18c-.24,1.26,2.83,2.92,3.65,3.15,1.8.49,3.55,2.37,3.44,2.94L19.6,98.68c.11-.57-1.64-2.46-3.44-3-.82-.22-3.88-1.89-3.65-3.15Zm-2.1,15.74c-.06,1.24,3.13,2.5,4,2.63,1.79.24,3.84,1.85,3.81,2.47l1.16-11.85c0-.62-2-2.24-3.81-2.48-.9-.12-4.09-1.39-4-2.63Zm0,16.19c.1,1.2,3.36,2.06,4.33,2.06,1.75,0,4.07,1.29,4.12,2l-.44-11.9c-.05-.66-2.37-2-4.12-2-1,0-4.22-.86-4.32-2.07Zm2.22,16.35c.26,1.14,3.54,1.6,4.55,1.46,1.69-.23,4.22.69,4.36,1.38l-2-11.73c-.15-.69-2.68-1.62-4.36-1.39-1,.14-4.3-.32-4.54-1.45Zm4.32,15.6c.39,1.06,3.65,1.12,4.69.83,1.58-.43,4.27.1,4.52.79l-3.58-11.35c-.26-.7-2.95-1.23-4.53-.79-1,.28-4.29.22-4.68-.84Zm6.24,14.6c.51,1,3.7.64,4.74.2,1.46-.62,4.24-.5,4.61.19l-5.06-10.79c-.37-.68-3.15-.8-4.61-.18-1,.44-4.23.76-4.73-.2Zm8,13.46c.61.86,3.68.19,4.71-.42,1.32-.77,4.14-1.08,4.6-.41l-6.41-10c-.47-.67-3.3-.36-4.61.42-1,.6-4.1,1.27-4.7.41Zm9.58,12.21c.69.75,3.61-.25,4.6-1,1.16-.9,4-1.63,4.53-1l-7.65-9.12c-.59-.64-3.38.1-4.54,1-1,.77-3.91,1.76-4.59,1Zm11,10.83c.74.63,3.49-.67,4.41-1.59s3.7-2.15,4.38-1.57l-8.75-8.08c-.68-.57-3.39.58-4.38,1.58s-3.68,2.21-4.42,1.58Zm12.27,9.34c.78.5,3.33-1.06,4.16-2.14s3.38-2.63,4.16-2.13L60,217.34c-.78-.51-3.33,1-4.16,2.12s-3.38,2.64-4.16,2.13Zm13.38,7.7c.8.39,3.13-1.41,3.84-2.63s3-3.07,3.87-2.65l-10.5-5.61c-.88-.42-3.22,1.53-3.88,2.65s-3,3-3.84,2.64Zm14.32,6c.82.26,2.89-1.75,3.46-3.1.48-1.15,2.55-3.45,3.52-3.14l-11.15-4.21c-1-.31-3,2-3.51,3.14-.57,1.35-2.64,3.36-3.46,3.09Zm93.59-6.62c.55-.29.89-2.88.18-4.54-.36-.84-.9-4.23.2-4.8l-10.77,5c-1.11.58-.57,4-.21,4.81.7,1.66.37,4.25-.19,4.54Zm13.51-8c.48-.34.54-2.91-.41-4.52-.43-.73-1.47-4.06-.42-4.8l-10,6.42c-1.05.74,0,4.07.42,4.81,1,1.6.89,4.17.41,4.5ZM208.36,218c.4-.36.2-2.88-1-4.4-.48-.62-2-3.83-1-4.73l-9.13,7.66c-1,.9.55,4.1,1,4.73,1.18,1.52,1.38,4,1,4.4Zm10.83-11c.32-.39-.13-2.83-1.54-4.23-.52-.52-2.51-3.53-1.63-4.57L208,206.92c-.89,1.05,1.11,4.06,1.63,4.58,1.4,1.39,1.85,3.84,1.53,4.22Zm9.26-12.27c.26-.4-.43-2.74-2-4-.54-.42-3-3.17-2.21-4.35l-6.89,9.71c-.76,1.18,1.67,3.93,2.21,4.35,1.61,1.24,2.3,3.59,2,4Zm7.71-13.38c.18-.39-.72-2.62-2.54-3.68-.53-.31-3.37-2.74-2.74-4l-5.61,10.51c-.62,1.3,2.21,3.73,2.75,4,1.81,1,2.72,3.29,2.53,3.67Zm6-14.33c.12-.37-1-2.48-3-3.31-.52-.22-3.71-2.26-3.25-3.66l-4.21,11.13c-.46,1.41,2.73,3.45,3.26,3.67,2,.84,3.09,2.94,3,3.31Zm4.09-15.12c.06-.34-1.24-2.29-3.37-2.88-.49-.13-4-1.73-3.72-3.22l-2.72,11.59c-.28,1.5,3.23,3.09,3.72,3.22,2.13.59,3.43,2.54,3.36,2.89Zm2.09-15.74a5,5,0,0,0-3.7-2.4c-.45-.06-4.21-1.15-4.13-2.7l-1.16,11.85c-.08,1.55,3.68,2.65,4.12,2.71a5,5,0,0,1,3.71,2.4Zm0-16.19a4.94,4.94,0,0,0-4-1.87c-.4,0-4.34-.56-4.47-2.14l.44,11.89c.12,1.6,4.07,2.15,4.46,2.15a5,5,0,0,1,4,1.87Zm-2.22-16.37a4.92,4.92,0,0,0-4.18-1.31c-.34,0-4.38.07-4.73-1.53l2,11.73c.35,1.6,4.39,1.58,4.72,1.53a4.93,4.93,0,0,1,4.18,1.32Zm-4.33-15.63a4.89,4.89,0,0,0-4.3-.73c-.28.07-4.34.68-4.91-.88l3.59,11.35c.58,1.57,4.63,1,4.91.88a4.88,4.88,0,0,1,4.3.74Zm-6.26-14.7a4.83,4.83,0,0,0-4.35-.15c-.21.08-4.2,1.28-5-.23l5.06,10.78c.8,1.51,4.79.31,5,.22a4.86,4.86,0,0,1,4.34.16Zm-8-13.51a4.84,4.84,0,0,0-4.32.41c-.14.09-4,1.86-5,.43l6.42,10c1,1.43,4.85-.35,5-.43a4.82,4.82,0,0,1,4.31-.41ZM217.85,47.5a4.74,4.74,0,0,0-4.21,1c-.09.07-3.71,2.38-4.92,1.07l7.66,9.12c1.22,1.31,4.84-1,4.92-1.08a4.77,4.77,0,0,1,4.21-1Zm-11-10.84a4.72,4.72,0,0,0-4,1.49S199.42,41,198,39.84l8.76,8.07c1.4,1.17,4.72-1.66,4.76-1.7a4.63,4.63,0,0,1,4-1.48Zm-12.3-9.31a4.63,4.63,0,0,0-3.8,2s-3,3.31-4.52,2.29l9.72,6.89c1.57,1,4.52-2.29,4.52-2.29a4.63,4.63,0,0,1,3.8-2ZM104.14,246.23c1.72.32,3.24-3.63,3.29-3.8a4.82,4.82,0,0,1,2.8-3.3l-11.59-2.71a4.8,4.8,0,0,0-2.81,3.3c0,.17-1.56,4.12-3.29,3.79Zm15.71,2.08c1.71.09,2.71-4,2.74-4.18a4.87,4.87,0,0,1,2.36-3.66l-11.85-1.16a4.84,4.84,0,0,0-2.36,3.66c0,.23-1,4.27-2.75,4.18Zm16.15,0c1.67-.14,2.16-4.21,2.16-4.49a4.91,4.91,0,0,1,1.85-4l-11.89.44a4.85,4.85,0,0,0-1.86,3.95c0,.28-.49,4.36-2.16,4.5Zm16.34-2.22c1.59-.36,1.57-4.4,1.52-4.73a4.9,4.9,0,0,1,1.32-4.18l-11.74,2a4.92,4.92,0,0,0-1.31,4.18c0,.34.07,4.38-1.53,4.73Zm15.6-4.32c1.5-.55,1-4.5.87-4.88a5,5,0,0,1,.74-4.33l-11.35,3.58a5,5,0,0,0-.74,4.34c.1.38.61,4.33-.88,4.87Z"/><path class="cls-3" d="M96.57,133.53l-.51-.17a1.61,1.61,0,0,0,.51.17m65.2-60.75c-3.24,1.06-4.36,1.62-4.36,2.22,0-.6,1.12-1.16,4.36-2.22l.28-.09-.28.09m.28-.09h0m0,0,.53-.18-.53.18m.53-.18h0m0,0,.42-.14-.42.14m.42-.14c4.34-1.44,8.28-2.79,11.91-3.23-3.63.44-7.57,1.79-11.91,3.23m11.91-3.23h0m0,0,.21,0-.21,0m.21,0h0m0,0,.18,0-.18,0m.18,0h0m0,0,.19,0-.19,0m.19,0h0m.07,0h0m.14,0q.51,0,1-.06-.51,0-1,.06M55.54,82.12c7.5,7.93,14.57,18.46,4.17,22.73C39.34,113.2,20,156.09,66.69,199c0,0,2.06-5.15,10.62-5.15h.85c8.55,0,3.41-8.37,11-9s3-13.29,3-13.29a9.46,9.46,0,0,1-4.25,1A9.86,9.86,0,0,1,81.48,170s-5.31,3.82-9.7,3.82c-3.26,0-6-2.09-5.74-9.4,0,0-13.72-9.43-1.07-25.29,0,0-4.07-16.9,24.44-21.21a7.48,7.48,0,0,0,1.31.12c1.63,0,3.88-.61,1-4.64s-3.52-13.65,1.68-13.65h.14l8,4.46q.65.58,1.35,1.26c13.87,13.47-.91,28.07-6,28.07a2,2,0,0,1-.36,0c2.53.88,13.49,5.22,12.35,13.76a18.43,18.43,0,0,0,4.13.45c4.15,0,10.17-1.38,11.74-9,1.08-5.29,6.07-6.6,10.73-6.6a35.24,35.24,0,0,1,8.77,1.24,13.63,13.63,0,0,0,3.54.54c1.6,0,3.25-.43,3.75-2a1.77,1.77,0,0,1,1.85-1.31c2.78,0,8.19,3.9,14.45,12.24,8.35,11.15-1.29,26.59,8.14,38.38s10.08,8.14,6,10.93c0,0-10.51,6-10.72,10.29a2.08,2.08,0,0,1-2.2,1.41c-1.78,0-4.92-1.27-10.45-6.23,0,0,8,16.4-4.18,27.66,0,0,46-11.15,61.74-45.67,0,0-9.47,8.68-14.59,8.68-2.19,0-3.58-1.58-3.09-6.1,1.6-15.12,6.1-50.82-19.94-68.18-7.13-4.76-11.61-6.48-14.54-6.48-7.77,0-4.59,12.16-11,12.16-5.36,0-8.24-8.47-11.13-16.16A41.85,41.85,0,0,1,94.48,69.75a27.47,27.47,0,0,1-6.28.75c-9.44,0-14.65-5.32-14.65-5.32s-25.52,9-18,16.94m121.88-20a42.73,42.73,0,0,1-.55,6.83h.46c5.54,0,10.35,2.72,14.81,11.36,1.25,2.43,3.65,3,5.7,3a12.61,12.61,0,0,0,3.59-.55l2.46-7.55,13.94.21S200,48.87,191.14,46.63L167.71,35.36a41.65,41.65,0,0,1,9.71,26.79"/><path id="SVGID" class="cls-4" d="M159.3,31.31h0l.1.07h0l.33.23h0l0,0,.08,0a0,0,0,0,0,0,0l0,0,.88.64h0l.37.28,0,0s0,0,.05,0h0c2.28,1.71,5.69,4.56,5.69,6.19,0,.75-.73,1.24-2.64,1.24a20.43,20.43,0,0,1-3.09-.29l-.92-.13c-1.81-.27-3.89-.55-6.16-.82l-.44,0-.28,0c-12.69-1.5-30.55-2.81-38.21-1.37-1.85.35-3.1.86-3.55,1.56h0l0,0c.61.3,5.24,2.68,7.31,6.64h0v0a.05.05,0,0,1,0,0h0l0,.06h0l0,.06c1.34,2.71,1.46,6.13-1.63,10.12h0l0,0s0,0,0,0l0,0,0,0s0,0,0,0l0,0,0,0-.06.07,0,0,0,.06v0l0,.06v0c-2.61,3.11-7.18,6.55-14.64,10.26l-.2.1L102,67l0,0-.21.11-.05,0-.21.1,0,0-.2.1-.06,0-.19.1a.19.19,0,0,0-.08,0l-.18.07-.09,0-.15.08-.11,0-.14.06-.11,0-.13.06-.13,0-.12.05-.13,0-.11,0-.15,0-.09,0-.15.06-.09,0-.16.06-.08,0-.17.06-.06,0-.19.08h0l-.21.08h0l-.22.08h0c-1.18.4-2.31.73-3.41,1A41.85,41.85,0,0,0,142,103.48c-2.4-6.37-4.8-12.2-8.64-12.2a4.41,4.41,0,0,0-1.67.34,10.68,10.68,0,0,0-3.54,2.62.47.47,0,0,0-.1.1,7.44,7.44,0,0,1-5.49,2.84c-2.35,0-5.32-1.35-8.66-5.9l-.06-.08h0a.43.43,0,0,0,0-.07h0l0-.06,0,0a.21.21,0,0,0,0-.06h0l0-.06h0c-2-3.06,1.22-3,4.4-2.94,3.42.06,6.79.13,3.59-3.68l0-.06,0,0c-4.27-5.18,2.72-4.8,10.81-2.68a8.9,8.9,0,0,0,1.06.2,6.85,6.85,0,0,0,.77,0,8.47,8.47,0,0,0,4.32-1.42c3.34-1.89,6-3.79,14.21,7.82h.15c1.22,0,9.94-.37,9.94-5.05a5.37,5.37,0,0,0-.64-2.42h0c0-.07-.07-.13-.1-.2h0l0-.06s0,0,0,0l0,0a.25.25,0,0,0,0-.07s0,0,0,0a.13.13,0,0,0,0,0s0,0,0,0l0-.06s0,0,0,0a.41.41,0,0,0,0-.09,0,0,0,0,0,0,0l0-.08a0,0,0,0,0,0,0,.53.53,0,0,0-.06-.1h0l-.06-.09v0l-.19-.29s0,0,0,0l-.14-.2h0L161.1,79s0,0,0,0l-.06-.1-.08-.09s0,0,0,0l-.06-.08,0,0s0,0-.06-.08h0l-.07-.09v0l-.06-.07,0,0-.06-.07,0,0a2.09,2.09,0,0,0-.14-.17h0a.27.27,0,0,0-.07-.08h0l-.07-.08c-1-1.07-2-1.75-2.48-2.29l0,0a0,0,0,0,1,0,0,0,0,0,0,1,0,0l0,0s0,0,0,0,0,0,0,0h0s0,0,0,0h0l0,0h0a.74.74,0,0,1-.16-.42c0-.6,1.12-1.16,4.36-2.22a92.23,92.23,0,0,1,11.85-3.46h0l.21,0h0l.19,0h0l.17,0h.08l.14,0h.09l.13,0,.12,0h.09l.18,0h0c.58-.06,1.16-.1,1.73-.12a42.73,42.73,0,0,0,.55-6.83,41.65,41.65,0,0,0-9.71-26.79Zm0,0h0"/><path id="SVGID-2" data-name="SVGID" class="cls-5" d="M22.67,128a105.18,105.18,0,0,0,43.44,85.22c-10.57-9.12-22.35-22.82-31.26-43C13.94,123,47.71,95.31,54.46,95.31c0,0-24.78-17.16-2.24-31.84C69,52.56,75.24,55.29,81,58,85.07,60,88.87,61.9,96,59c0,0,17.36-8,12.54-11.25s-23.8-12.86-1.29-17.37,50.82-3.53,73,13.51c16.32,12.53,18.38,12,19,11.52.21-.18.24-.36.66.06,1.61,1.6,21.87,22.19,15.43,19.94s-13.5-7.72-15.75,1-11.26,0-14.79-1.93-3.22-4.82-25.41,1.29c0,0,11.58.64,5.47,9.65s-14,7-16.08,2.89c0,0-5.07-9.41-8.26-4.62-1.54,2.31-10.07,2.24-13.27-.32,0,0-.64,7-3.53,8.27,0,0,3.08,1,6.15-4.1,0,0,7.22-1.91,12.16,3.45s6.43,18.87,6.43,18.87,1.71,5.35,4.28-.43,19.51-13.73,40.95,9,12.87,58.1,12.87,58.1,10.24-10.62,15.92-1.7A105.33,105.33,0,1,0,22.67,128"/><path class="cls-6" d="M95.41,111.06c8.58,11.8-3.21,11.8-3.21,11.8-25.51,3.64-22.3,15.86-22.3,15.86s5.79,2.57.43,4.29-6.22,10.5-4.5,11.79,6.64,6.22,6.43,10.27c-.12,2.32.6,3.54,2,3.54,1,0,2.39-.68,4-2.08a5.27,5.27,0,0,1,3.44-1.46,4.55,4.55,0,0,1,3.21,1.46s.11.69,2,.69a15.54,15.54,0,0,0,3.16-.41,10.64,10.64,0,0,1,2.27-.28c3.46,0,5.34,2.55,5.88,10.78.65,9.86-10.94,21.23-10.94,21.23-4.58,5.35-12.86,6.64-12.86,6.64,11.1,11.51,26.41,18.18,40.72,21.19l1.08.22.67.14.49.09a87.75,87.75,0,0,0,15.81,1.51c1.55,0,3-.05,4.47-.14l.72-.05c7-.55,12.46-2.22,15.15-4.74,9.65-9,3-25.51,3-25.51l2.58-3.64,9.65,6.43,11.79-10.94-5.79-5.57A24.26,24.26,0,0,1,170,172c-.43-24.65-3.43-26.18-3.43-26.18-7.06-11.44-10.65-13.15-12.16-13.15a1.23,1.23,0,0,0-.92.31,8.08,8.08,0,0,1-6.19,3.11,7.17,7.17,0,0,1-3.24-.75,15.48,15.48,0,0,0-5.4-.95c-3.81,0-8.85,1.43-12.4,7.81-3.33,6-8.29,7.46-12.29,7.46a18.37,18.37,0,0,1-6.58-1.24c2.14-7.72-13.29-15-13.29-15,19.08-9.22,12-21,12-21-3.17-2.84-4.33-5.69-4.56-8.12-3.49-3.14-6.1-4.4-8-4.46-2.1,5.4,1.82,11.29,1.82,11.29"/><path id="rizo" class="cls-7" d="M128.85,167.17a1.47,1.47,0,0,0,.19-.53,2,2,0,0,1,.24-.56,1.7,1.7,0,0,1,.36-.29l0,0c1,.09,1.9.21,2.84.39a1.44,1.44,0,0,0-.4.28,2.58,2.58,0,0,0-.29.51,1.64,1.64,0,0,1-.24.52,1.9,1.9,0,0,1-.44.3l0,0c-.91-.14-1.82-.23-2.73-.28A2,2,0,0,0,128.85,167.17Zm3.67-1Zm-.6,1.74a27.14,27.14,0,0,1,2.67.61l0,0a1.89,1.89,0,0,0,.47-.24,1.64,1.64,0,0,0,.31-.48,2.74,2.74,0,0,1,.36-.48,1.72,1.72,0,0,1,.43-.21h0a25.24,25.24,0,0,0-2.78-.75h0a1.59,1.59,0,0,0-.41.26,2.62,2.62,0,0,0-.3.51,1.62,1.62,0,0,1-.27.5A1.55,1.55,0,0,1,131.92,167.9Zm-6.82-2.17Zm-1,1.9a1.64,1.64,0,0,0,.34-.4,1.52,1.52,0,0,0,.1-.55,2.34,2.34,0,0,1,.14-.58,1.46,1.46,0,0,1,.33-.37,27.22,27.22,0,0,0-2.86.34v0a1.8,1.8,0,0,0-.29.39,2.32,2.32,0,0,0-.08.58,1.45,1.45,0,0,1,0,.55,1.86,1.86,0,0,1-.29.44c.9-.19,1.8-.33,2.71-.43Zm-22.24,13a1.9,1.9,0,0,0,.15.46,2.45,2.45,0,0,0,.43.42,1.73,1.73,0,0,1,.43.38,1.68,1.68,0,0,1,.17.49,24.52,24.52,0,0,1,1.3-2.35h0a1.76,1.76,0,0,0-.13-.5,1.34,1.34,0,0,0-.4-.42,2.73,2.73,0,0,1-.38-.46,1.25,1.25,0,0,1-.09-.46,25.74,25.74,0,0,0-1.46,2.41Zm25.73-13h0a1.67,1.67,0,0,0,.39-.36,1.37,1.37,0,0,0,.18-.56,2.83,2.83,0,0,1,.21-.55,1.76,1.76,0,0,1,.37-.29h0a27.48,27.48,0,0,0-2.87,0v0a1.52,1.52,0,0,0-.33.34,2.44,2.44,0,0,0-.16.57,1.81,1.81,0,0,1-.12.56,1.9,1.9,0,0,1-.36.39C125.78,167.62,126.69,167.59,127.6,167.61Zm8.34,50.3A23,23,0,0,0,133,219.1l-.38.18a1.81,1.81,0,0,0-.12.56c0,.17,0,.43,0,.6a2,2,0,0,1-.35.9,10.34,10.34,0,0,0,2.94-1.15l.47-.24a3.58,3.58,0,0,0,.11-.35,1.68,1.68,0,0,0,.07-.5c0-.16-.13-.27-.07-.5a3.6,3.6,0,0,1,.32-.69Zm-8.28,3.26a4.62,4.62,0,0,0,1.52-1c.14-.12.51-.4.64-.52s-1.22-1-1-1.72c-1.36,1.17-1.91,1.75-3,1.75-.29.05,0,0,0,0a2,2,0,0,0-.28.56,2.15,2.15,0,0,0-.12.5,2.88,2.88,0,0,0,0,.59A4.72,4.72,0,0,0,127.66,221.17Zm-1.85-2a2.29,2.29,0,0,0,1-.43l.49-.37a3.52,3.52,0,0,0-3-1.29c-.21,0-.51-.06-.66.17h0s-1,1.21-.6,1.63a3.33,3.33,0,0,1,1.18,0,3.67,3.67,0,0,1,1.27.2Zm5.88,4.88s1.39-1.26,2.27-.87l-.2-.17a4.92,4.92,0,0,0-2.7-.94c-.85,0-2.36.22-2.7.76a4.69,4.69,0,0,1,2.1,1C130.53,224,130.87,223.85,131.69,224.05Zm-1.86-3.66-.49.4c-.11.09-.63.39-.69.44s.91.43,2.6.19h0a2.14,2.14,0,0,0,.28-.39,2.31,2.31,0,0,0,.18-.62,2.65,2.65,0,0,0,.07-.48,1.42,1.42,0,0,1,.08-.41c-.19.1-1.19.43-1.19.43l-.47.1c-.13.1-.25.25-.37.35Zm-4.57-.7a1.8,1.8,0,0,0-.28.53,2.5,2.5,0,0,0-.16.51c-.16.71,0,.71,0,.71a10.8,10.8,0,0,1-3.58-.85s.26-.32.33-.39.26-.16.34-.32a1.79,1.79,0,0,1,.76-.49,17.54,17.54,0,0,0,2.29.33Zm6.59-2.9a5.23,5.23,0,0,0-2.47.9h0c-.45.49,1,1.6,1,1.6h0a2.43,2.43,0,0,1,2.05-.73,22.53,22.53,0,0,1,2.16-.85,3,3,0,0,0-2.75-.93ZM109,173.25a1.38,1.38,0,0,1,.25.5,1.58,1.58,0,0,1,0,.53,26.73,26.73,0,0,1,2.12-1.7h0a1.48,1.48,0,0,0,.09-.51,1.42,1.42,0,0,0-.2-.53A2.19,2.19,0,0,1,111,171a1.27,1.27,0,0,1,.09-.47c-.8.53-1.56,1.09-2.3,1.69v0a1.8,1.8,0,0,0,0,.46A3,3,0,0,0,109,173.25Zm-3.42,2Zm-1.77,2.3a1.5,1.5,0,0,0,.08.47,2.45,2.45,0,0,0,.38.47,1.39,1.39,0,0,1,.37.43,1.72,1.72,0,0,1,.11.51,26,26,0,0,1,1.62-2.17h0a1.84,1.84,0,0,0,0-.52,1.53,1.53,0,0,0-.34-.46,2.33,2.33,0,0,1-.31-.5,1.52,1.52,0,0,1,0-.47,27.18,27.18,0,0,0-1.77,2.21Zm2.45-2.42a.82.82,0,0,0,.21.51,1.39,1.39,0,0,1,.32.48,1.8,1.8,0,0,1,0,.52h0a15.72,15.72,0,0,1,1.87-1.87h0a2,2,0,0,0,0-.6,1.3,1.3,0,0,0-.28-.5,2.65,2.65,0,0,1-.25-.54,1.94,1.94,0,0,1,0-.48h0c-.72.63-1.4,1.28-2.21,2v0c.14.16.16.32.28.48Zm11.56-8Zm.49,1.73a26.42,26.42,0,0,1,2.63-.77h0a1.57,1.57,0,0,0,.28-.44,1.37,1.37,0,0,0,0-.57,2.37,2.37,0,0,1,.06-.59,1.7,1.7,0,0,1,.27-.39c-.94.19-1.87.42-2.79.7v0a1.83,1.83,0,0,0-.26.42,2.91,2.91,0,0,0,0,.59,1.5,1.5,0,0,1,0,.56,1.63,1.63,0,0,1-.25.47Zm-6.15,2.6a1.84,1.84,0,0,1-.1.52,24,24,0,0,1,2.33-1.4h0a1.8,1.8,0,0,0,.15-.5,1.58,1.58,0,0,0-.13-.56,2.8,2.8,0,0,1-.09-.58,1.7,1.7,0,0,1,.15-.45c-.86.42-1.69.88-2.51,1.38v0a1.88,1.88,0,0,0-.1.47,3,3,0,0,0,.15.57A1.49,1.49,0,0,1,112.15,171.53Zm2.91-1.65a1.68,1.68,0,0,1-.17.49,25.27,25.27,0,0,1,2.5-1.1h0a1.77,1.77,0,0,0,.23-.48,1.69,1.69,0,0,0-.06-.55,2.94,2.94,0,0,1,0-.59,1.46,1.46,0,0,1,.22-.43q-1.37.47-2.67,1.05v0a1.44,1.44,0,0,0-.17.45,2.78,2.78,0,0,0,.06.58A1.36,1.36,0,0,1,115.06,169.88Zm6.15,50.7ZM148.48,175Zm-1,1.2a1.1,1.1,0,0,0-.53-.19h0a15.3,15.3,0,0,1,1.67,2.07v0a3.21,3.21,0,0,0,.61.09,1.54,1.54,0,0,0,.54-.2,2.69,2.69,0,0,1,.57-.17,2,2,0,0,1,.48.09,25,25,0,0,0-1.74-2.22h0a1.35,1.35,0,0,0-.49-.06,2.32,2.32,0,0,0-.57.22,3,3,0,0,0-.52.4Zm-2.5-2.49a3.31,3.31,0,0,0-.54-.06,15.88,15.88,0,0,1,1.91,1.83v0a3.18,3.18,0,0,0,.62,0,1.58,1.58,0,0,0,.51-.28,2.78,2.78,0,0,1,.56-.24,1.94,1.94,0,0,1,.48,0,10.63,10.63,0,0,0-2-1.82h0a.45.45,0,0,0-.49-.16,2.25,2.25,0,0,0-.53.28c-.14.15-.3.27-.49.44ZM142,171.48a2,2,0,0,1-.54.1c.79.5,1.56,1,2.29,1.6v0a2,2,0,0,0,.55,0,1.66,1.66,0,0,0,.49-.34,2.54,2.54,0,0,1,.53-.31,1.4,1.4,0,0,1,.5,0q-1.11-.93-2.34-1.77h0a1.62,1.62,0,0,0-.49.08,2.54,2.54,0,0,0-.5.36,1.53,1.53,0,0,1-.48.39Zm.85-1.24Zm11.26,14.08Zm-.7.55a1.91,1.91,0,0,1-.66,0,1.64,1.64,0,0,1-.48-.23c.31.85.57,1.7.85,2.56v0a.87.87,0,0,0,.4.28,1.51,1.51,0,0,0,.56,0,2.48,2.48,0,0,1,.61.07,1.49,1.49,0,0,1,.41.26c-.2-.92-.45-1.83-.74-2.81h0a1.78,1.78,0,0,1-.43-.14,2.15,2.15,0,0,0-.5,0Zm1.69,2.95Zm-3.17-6.23a1.56,1.56,0,0,1-.57.1,1.8,1.8,0,0,1-.51-.17A23.42,23.42,0,0,1,152,184v0a2,2,0,0,0,.49.21,1.58,1.58,0,0,0,.57-.05,2,2,0,0,1,.6,0,1.35,1.35,0,0,1,.44.2,27.94,27.94,0,0,0-1.08-2.6h0a1.93,1.93,0,0,0-.46-.16A2.43,2.43,0,0,0,151.92,181.59Zm-1.65-3a5.44,5.44,0,0,1-.68.18,1.91,1.91,0,0,1-.53-.1c.52.73,1,1.49,1.5,2.27v0a1,1,0,0,0,.46.15,1.57,1.57,0,0,0,.57-.12,2,2,0,0,1,.6-.09,1.45,1.45,0,0,1,.46.14,15.93,15.93,0,0,0-1.42-2.32h0a.63.63,0,0,0-.48-.22,1,1,0,0,0-.46.13Zm2.38,2.39Zm-33.54,43.3a3.5,3.5,0,0,0,1.7.06,1,1,0,0,0,.48-.34h0a2.72,2.72,0,0,1-1.13-2.28,2,2,0,0,1-1.58-1.56,4.65,4.65,0,0,0-.28,1.52,4.24,4.24,0,0,0,.79,2.6Zm35.14-36a1.57,1.57,0,0,1-.57,0,1.83,1.83,0,0,1-.44-.28,26.23,26.23,0,0,1,.44,2.63v0a1.86,1.86,0,0,0,.41.33,1.79,1.79,0,0,0,.57.09,2.41,2.41,0,0,1,.59.14,1.56,1.56,0,0,1,.37.31,26.62,26.62,0,0,0-.36-2.79h0a1.56,1.56,0,0,0-.4-.27A2.35,2.35,0,0,0,154.25,188.24ZM122.7,223.5a3.07,3.07,0,0,1,1.08.23s1.31-1.33,1.45-1.28a7.15,7.15,0,0,0-4.29-.27l.26.45.7.94Zm-4.09-3.35Zm37-28.74Zm-33,27.89Zm0,.08Zm-.71-2.26a5,5,0,0,0-3,2.18h0s.3,1.5,1.31,1.54a4.41,4.41,0,0,1,1.58-1.69l.2-.23a2.53,2.53,0,0,1,.41-1.92Zm17.65-48.68Zm-3.81,0a1.77,1.77,0,0,1-.48.23,26.23,26.23,0,0,1,2.56,1l0,0a1.91,1.91,0,0,0,.5-.19,1.51,1.51,0,0,0,.37-.43,2.44,2.44,0,0,1,.42-.43,1.79,1.79,0,0,1,.46-.16c-.86-.4-1.75-.77-2.66-1.09h0a1.51,1.51,0,0,0-.45.2,2.33,2.33,0,0,0-.37.46A1.55,1.55,0,0,1,135.77,168.47ZM139,169.7a1.78,1.78,0,0,1-.51.16,26.48,26.48,0,0,1,2.42,1.27v0a1.89,1.89,0,0,0,.52-.13,1.57,1.57,0,0,0,.43-.38,2.84,2.84,0,0,1,.47-.37,1.51,1.51,0,0,1,.47-.09c-.8-.52-1.63-1-2.48-1.43h0a1.59,1.59,0,0,0-.47.14,2.44,2.44,0,0,0-.43.42,1.59,1.59,0,0,1-.39.43Zm-23.45,48.13a2.78,2.78,0,0,1-.43.41,1.48,1.48,0,0,1-.46.16c.87.41,1.75.78,2.66,1.11l0,0a1.89,1.89,0,0,0,.44-.19,2.4,2.4,0,0,0,.37-.47,1.67,1.67,0,0,1,.33-.47,1.77,1.77,0,0,1,.48-.23,26.16,26.16,0,0,1-2.56-.94l0,0a1.88,1.88,0,0,0-.5.18A1.43,1.43,0,0,0,115.59,217.83Zm20.11,5.71a3.14,3.14,0,0,0,.41-3.19l-2.06.92a1.12,1.12,0,0,1-.24,1.3s2,.85,1.89,1Zm1.24,5.29.57.9,1.51-1.6a7.61,7.61,0,0,0-.72-.55Zm.78-1.66-1.34,1.16.19.19,1.34-1.16Zm5.44-10.77ZM140,218.24Zm2.15-2.88a1.72,1.72,0,0,1,.11-.51,23,23,0,0,1-2.34,1.4h0a1.77,1.77,0,0,0-.15.51,1.34,1.34,0,0,0,.13.55,2.8,2.8,0,0,1,.09.58,1.41,1.41,0,0,1-.15.45c.86-.42,1.69-.88,2.5-1.38v0a1.53,1.53,0,0,0,.11-.47,3,3,0,0,0-.15-.57,1.34,1.34,0,0,1-.16-.55Zm-7,11.58.95,1,1.46-1.21a1.67,1.67,0,0,0-2.41.25Zm4.07-9.86a1.76,1.76,0,0,1,.15-.44c-.73.37-1.49.7-2.26,1h0a2.78,2.78,0,0,0-.22.42,1.3,1.3,0,0,0,0,.52,2.48,2.48,0,0,1-.06.54,3.2,3.2,0,0,1-.17.43c.81-.27,1.77-.64,2.57-1v0a1.38,1.38,0,0,0,.15-.4,2.33,2.33,0,0,0-.06-.53,1.15,1.15,0,0,1-.1-.52Zm-14.94,7.37a1.79,1.79,0,0,1-.67,2.08c1.6.41,3.41-1.26,3.41-1.26a6.3,6.3,0,0,0-1.89-.63Zm5.31-.36a8.7,8.7,0,0,0-3.27-1.39l-1.76,1.2,2.11.68c.63.16.8.46,1.6,1,0,0,1.85-1,1.32-1.45Zm-6,.49a3.27,3.27,0,0,1-.54,0,3,3,0,0,1-1-.2h0c-.28.85-2.27.67-2.27.67a5,5,0,0,0,2.69,1.3h0s1.1-.24,1.14-1.81Zm13.28,1.27h0a15.56,15.56,0,0,0-1-1.22,5.76,5.76,0,0,0-.85-.7,2,2,0,0,0-2.64.38,6,6,0,0,1,1.89,1.64l.26.41c.05,0,1.36-1.38,2.31-.51Zm-2.23.55v0h0Zm-2.56-1.9a3.8,3.8,0,0,1-1.7-.08c.07.51-1.48,1.52-1.48,1.52a4.15,4.15,0,0,0,2.44.6,3.14,3.14,0,0,0,1.81-.71,3.11,3.11,0,0,1-1.07-1.34Zm-30.61-43.18Zm54,14.54a1.56,1.56,0,0,0-.31-.37,2.35,2.35,0,0,0-.57-.23,1.57,1.57,0,0,1-.55-.19,1.88,1.88,0,0,1-.35-.39,23.73,23.73,0,0,1-.27,2.66v0a2.07,2.07,0,0,0,.31.42,1.48,1.48,0,0,0,.53.23,2.43,2.43,0,0,1,.53.28,1.58,1.58,0,0,1,.29.39,25.81,25.81,0,0,0,.39-2.76Zm-.28,2.79Zm-10,15a1.74,1.74,0,0,0-.13-.51,1.59,1.59,0,0,1,0-.53,22.88,22.88,0,0,1-2.13,1.69h0a1.58,1.58,0,0,0-.09.52,1.42,1.42,0,0,0,.2.53,2.26,2.26,0,0,1,.17.56,1.48,1.48,0,0,1-.08.46,25.36,25.36,0,0,0,2.28-1.69v0a1.24,1.24,0,0,0,.06-.47.92.92,0,0,0-.35-.54Zm-21.58,10.86v0h0Zm30.2-22a2.38,2.38,0,0,0-.44-.4,1.6,1.6,0,0,1-.46-.35,1.74,1.74,0,0,1-.2-.49c-.34.83-.73,1.64-1.15,2.43l0,0a1.7,1.7,0,0,0,.15.5,1.42,1.42,0,0,0,.42.39,2.85,2.85,0,0,1,.41.44,1.21,1.21,0,0,1,.12.46h0c.48-.81.92-1.65,1.32-2.5v0A1.34,1.34,0,0,0,153.78,202.52Zm1.75-10.31h0a1.42,1.42,0,0,0-.36-.33,2.94,2.94,0,0,0-.58-.16,1.56,1.56,0,0,1-.57-.11,2,2,0,0,1-.41-.35h0a23.82,23.82,0,0,1,.09,2.67v0a1.9,1.9,0,0,0,.37.38,1.53,1.53,0,0,0,.55.17,2.78,2.78,0,0,1,.57.21,1.32,1.32,0,0,1,.32.35,24,24,0,0,0,0-2.81Zm-.71,6.83a2.5,2.5,0,0,0-.53-.3,1,1,0,0,1-.8-.69,24.8,24.8,0,0,1-.62,2.61v0a1.61,1.61,0,0,0,.26.46,1.3,1.3,0,0,0,.49.3,3.36,3.36,0,0,1,.49.35,1.75,1.75,0,0,1,.22.43h0a26,26,0,0,0,.76-2.71v0a1.6,1.6,0,0,0-.28-.4Zm-6.09,12.55Zm-.49.08a2.61,2.61,0,0,0-.28-.52,1.27,1.27,0,0,1-.32-.47,1.83,1.83,0,0,1,0-.52,24.66,24.66,0,0,1-1.88,2h0a1.82,1.82,0,0,0,0,.52,1.49,1.49,0,0,0,.29.5,2.61,2.61,0,0,1,.24.54,1.49,1.49,0,0,1,0,.47c.71-.62,1.4-1.28,2-2v0a1.57,1.57,0,0,0,0-.48Zm-2.12,2.5Zm6.32-7.92a1.41,1.41,0,0,0-.15-.45,2.44,2.44,0,0,0-.42-.43,1.28,1.28,0,0,1-.43-.37,1.58,1.58,0,0,1-.18-.5,23.52,23.52,0,0,1-1.3,2.36l0,0a1.46,1.46,0,0,0,.12.51,1.52,1.52,0,0,0,.39.41,2.8,2.8,0,0,1,.39.46,1.51,1.51,0,0,1,.09.47,25.9,25.9,0,0,0,1.46-2.42Zm-1.94,3.1a1.5,1.5,0,0,0-.08-.47,2.4,2.4,0,0,0-.37-.47,1.39,1.39,0,0,1-.37-.43,1.45,1.45,0,0,1-.11-.51,25.78,25.78,0,0,1-1.6,2.17h0a1.54,1.54,0,0,0,.06.52,1.5,1.5,0,0,0,.33.46,2.37,2.37,0,0,1,.32.5,1.91,1.91,0,0,1,0,.47c.62-.7,1.21-1.44,1.77-2.21Zm5.13-14.3ZM100,198.67a1.5,1.5,0,0,1,.56,0,1.48,1.48,0,0,1,.45.28q-.28-1.31-.45-2.64v0a1.86,1.86,0,0,0-.41-.33,1.59,1.59,0,0,0-.57-.1,2.41,2.41,0,0,1-.59-.14,1.36,1.36,0,0,1-.37-.31,26,26,0,0,0,.36,2.79h0a1.41,1.41,0,0,0,.4.27A2.36,2.36,0,0,0,100,198.67Zm-1.31-3.24Zm.52,3.59ZM118,223.52a1.92,1.92,0,0,0-.42.16l.11-.07a3.71,3.71,0,0,0-.88.65c-.21.21-.58.68-1,1.2h0c1-.85,2.29.62,2.29.62h0l.41-.38a8,8,0,0,1,.64-.51A2.73,2.73,0,0,1,118,223.52ZM99.11,195a2.26,2.26,0,0,0,.58.16,1.39,1.39,0,0,1,.57.12,1.45,1.45,0,0,1,.4.34q-.1-1.34-.09-2.67v0a1.62,1.62,0,0,0-.37-.37,1.58,1.58,0,0,0-.56-.17,2.78,2.78,0,0,1-.57-.21,2.11,2.11,0,0,1-.31-.36c-.05.94-.06,1.87,0,2.8h0A1.41,1.41,0,0,0,99.11,195Zm3.23,10.27a1.37,1.37,0,0,1,.57-.1,1.82,1.82,0,0,1,.5.16,24.33,24.33,0,0,1-1.13-2.43v0a2.13,2.13,0,0,0-.49-.21,1.58,1.58,0,0,0-.57,0,2.41,2.41,0,0,1-.6,0,1.63,1.63,0,0,1-.44-.21,24.55,24.55,0,0,0,1.08,2.6h0a1.79,1.79,0,0,0,.46.16A3.05,3.05,0,0,0,102.34,205.3Zm-2.12-2.77Zm.14-18.61a1.72,1.72,0,0,0,.21.43,2.4,2.4,0,0,0,.47.37,1.34,1.34,0,0,1,.49.32,1.65,1.65,0,0,1,.23.46c.28-.84.61-1.67,1-2.48l0,0a1.39,1.39,0,0,0-.19-.49,1.53,1.53,0,0,0-.42-.38,3,3,0,0,1-.46-.41,1.72,1.72,0,0,1-.16-.45,26.87,26.87,0,0,0-1.13,2.58Zm-1.7,7.88Zm.52-4.39a2.11,2.11,0,0,0,.26.4,2.9,2.9,0,0,0,.54.31,1.39,1.39,0,0,1,.52.25,2.08,2.08,0,0,1,.3.43,24,24,0,0,1,.63-2.6v0a1.89,1.89,0,0,0-.26-.46,1.57,1.57,0,0,0-.49-.31,2.38,2.38,0,0,1-.49-.34,1.46,1.46,0,0,1-.22-.43c-.3.89-.56,1.79-.77,2.7ZM98.79,191a1.38,1.38,0,0,0,.32.36,2.56,2.56,0,0,0,.56.24,1.69,1.69,0,0,1,.55.18,1.82,1.82,0,0,1,.35.39,26.18,26.18,0,0,1,.29-2.65v0a1.87,1.87,0,0,0-.32-.42,1.7,1.7,0,0,0-.53-.24,2.94,2.94,0,0,1-.53-.27,1.6,1.6,0,0,1-.28-.4,23.69,23.69,0,0,0-.4,2.77Zm.34-2.8Zm1.76,13.92a1.5,1.5,0,0,1,.56,0,1.69,1.69,0,0,1,.49.23,25.3,25.3,0,0,1-.8-2.56v0a2,2,0,0,0-.46-.28,1.5,1.5,0,0,0-.56,0,3.08,3.08,0,0,1-.61-.06,1.84,1.84,0,0,1-.4-.26,25.77,25.77,0,0,0,.72,2.71h0a1.46,1.46,0,0,0,.43.22,2.57,2.57,0,0,0,.62,0ZM114,218a2,2,0,0,0,.47-.14,2.44,2.44,0,0,0,.43-.42,1.55,1.55,0,0,1,.39-.42,1.82,1.82,0,0,1,.5-.16c-.82-.38-1.63-.81-2.42-1.27l0,0a1.89,1.89,0,0,0-.52.13,1.57,1.57,0,0,0-.43.38,2.84,2.84,0,0,1-.47.37,1.52,1.52,0,0,1-.48.1c.81.51,1.64,1,2.49,1.42Zm-.39,9.6L115,229.3l.61-.88-1.32-1.3C114.05,227.28,113.81,227.46,113.57,227.64Zm-2.1-11Zm3.18,10.26,1.29,1.22.18-.2-1.29-1.22Zm.48-.62,1.42,1.26,1-.92A1.69,1.69,0,0,0,115.13,226.26Zm-2.91-10.83a1.91,1.91,0,0,1,.53-.1,24.87,24.87,0,0,1-2.24-1.56v0a1.88,1.88,0,0,0-.53.06,1.53,1.53,0,0,0-.46.34,2.43,2.43,0,0,1-.52.3,1.56,1.56,0,0,1-.48,0,27.59,27.59,0,0,0,2.27,1.72h0a1.27,1.27,0,0,0,.48-.08,2.52,2.52,0,0,0,.49-.37A1.58,1.58,0,0,1,112.22,215.43Zm-5.33-4.57a2,2,0,0,1,.54,0,24.43,24.43,0,0,1-1.74-2.07v0a2,2,0,0,0-.53-.08,1.52,1.52,0,0,0-.55.2,2.94,2.94,0,0,1-.58.16,1.86,1.86,0,0,1-.47-.09,24.77,24.77,0,0,0,1.73,2.24h0a1.6,1.6,0,0,0,.49,0,2.41,2.41,0,0,0,.56-.22A1.7,1.7,0,0,1,106.89,210.86ZM103.54,209Zm.52-.8a1.78,1.78,0,0,1,.55-.18,1.93,1.93,0,0,1,.53.11c-.52-.74-1-1.49-1.44-2.27v0a2.29,2.29,0,0,0-.51-.15,1.58,1.58,0,0,0-.57.13,3.11,3.11,0,0,1-.6.09,1.77,1.77,0,0,1-.46-.15,27.15,27.15,0,0,0,1.42,2.44h0a1.52,1.52,0,0,0,.48.1,2.34,2.34,0,0,0,.58-.14Zm5.32,5a1.8,1.8,0,0,1,.52,0,22.34,22.34,0,0,1-1.94-1.83v0a1.82,1.82,0,0,0-.52,0,1.62,1.62,0,0,0-.5.27,2.7,2.7,0,0,1-.55.24,1.83,1.83,0,0,1-.47,0,26.42,26.42,0,0,0,2,2h0a1.47,1.47,0,0,0,.47,0,2.65,2.65,0,0,0,.52-.29,1.36,1.36,0,0,1,.49-.29Zm-.89,1.27Zm-2.66-2.53Z"/><path id="flor" class="cls-7" d="M110.5,192.93l.82-1.6,1.83.27-1.32-1.27.83-1.61-1.64.83-1.31-1.26.3,1.77-1.63.83,1.82.28ZM123,197.74h0a29.85,29.85,0,0,0-3.27.43c-.53-2-2-4.66-4.67-4.29a3.43,3.43,0,0,0-2.63,4.54c-3.2.43-5.88-2.09-6.54-4.95a7.07,7.07,0,0,1,6.9-8.61c6.53,0,10,8.38,10.26,12.87m20.78-4.8.31-1.77,1.82-.28-1.64-.83.3-1.77-1.31,1.28-1.64-.82.82,1.6-1.31,1.26,1.83-.28Zm-12.51,4.75c.21-4.48,3.73-12.86,10.26-12.86a7.06,7.06,0,0,1,6.89,8.59c-.64,2.87-3.33,5.39-6.53,5,.54-2-.4-4.23-2.63-4.54-2.62-.37-4.14,2.25-4.67,4.26-1.13-.21-2.34-.31-3.29-.4Zm-4.12,2.87c4.21,0,7.61-.38,7.61-.64s-3.41-.66-7.64-.66-7.63.41-7.63.66,3.44.64,7.67.64m0,.93c-4.87,0-8.82-.7-8.82-1.57s3.93-1.57,8.81-1.57,8.83.71,8.83,1.57-3.95,1.57-8.83,1.57m7.16.27a3.55,3.55,0,0,0,5.24,2.78,3.88,3.88,0,0,1-3.73,3.6c-2.75,0-4.35-4.06-4.56-5.95h0c1-.09,2.06-.24,3.07-.43Zm-11.37.43c-.19,1.87-1.8,6-4.57,6a3.89,3.89,0,0,1-3.73-3.6,3.56,3.56,0,0,0,5.26-2.83v0a28,28,0,0,0,3,.44Zm4.22-30.45a29.41,29.41,0,0,0,3.52,3,10.1,10.1,0,0,1,4.44,7.85c0,4.88-4.18,9.16-4.7,15-.91-.09-1.82-.14-2.73-.14.11-6-.12-14.06-.53-19.9-.42,5.84-.66,13.92-.55,19.9-.91,0-1.81.05-2.72.14-.52-5.88-4.74-10.16-4.7-15a10.06,10.06,0,0,1,4.44-7.85,30.32,30.32,0,0,0,3.53-3m0,41.85a12,12,0,0,1-5.81-5.34,13.12,13.12,0,0,0,2.49-6c.85.06,1.78.1,2.73.1a45.48,45.48,0,0,0,.59,6.77,46.79,46.79,0,0,0,.58-6.77c1,0,1.87,0,2.74-.1a13,13,0,0,0,2.48,6,12,12,0,0,1-5.8,5.34"/></svg>