<svg id="Capa_1" data-name="Capa 1" xmlns="http://www.w3.org/2000/svg" viewBox="0 0 192 249.84"><defs><style>.cls-1{fill:#fff;}.cls-2{fill:#722482;}.cls-3{fill:#00a053;}.cls-4{fill:#d9d9d9;}</style></defs><title>mensajeros-de-la-paz</title><path class="cls-1" d="M96,61a96,96,0,1,0,96,96A96,96,0,0,0,96,61Zm.14,160.13a64.44,64.44,0,1,1,64.44-64.44A64.51,64.51,0,0,1,96.14,221.13Z" transform="translate(0 -3.16)"/><path class="cls-1" d="M42.79,84.61c-.87.66-3.29-2-.16-9a17.47,17.47,0,0,1,4.32-11,9.67,9.67,0,0,1,9-3,38.06,38.06,0,0,1-7.42-21.23C48.22,28.25,53.34,19.93,53.34,19c0-8.1,3-13,5.94-14.16,7.19-2.73,14.61,11.73,15.28,14.07,1.16,4,9.1,7.92,14.28,12.19,5.82,4.79,8.92,15.11,10.51,15.07,2.87-.08,6.85-5.6,14.55-5.39,5.88.17,11.82,5,11.7,13.72,0,2,18.78-9.91,27.17-9.91,13.12,0,12.67,10.82,12.67,10.82a10.47,10.47,0,0,1-1.1,12.31,3.5,3.5,0,0,1-.47,6.5c-4.07,1.11-7.21,3.35-2.07,11.32Z" transform="translate(0 -3.16)"/><path class="cls-1" d="M88.29,93" transform="translate(0 -3.16)"/><path class="cls-2" d="M161.71,86.93h.12a1.21,1.21,0,0,0,1-.53l.58-.79-.52-.8c-2-3.18-2.84-5.61-2.29-7,.38-1,1.49-1.7,3.59-2.28a4.7,4.7,0,0,0,3.43-4.28,4.75,4.75,0,0,0-1.39-3.79,11.77,11.77,0,0,0,.51-12.37,12.2,12.2,0,0,0-3.23-7.94c-2.46-2.57-6.09-3.87-10.77-3.87-5.24,0-13.91,4.19-20.24,7.24-2.05,1-4.3,2.08-5.63,2.59-.52-8.65-6.89-13.46-13-13.63-5.32-.15-8.89,2.16-11.54,3.84a12.06,12.06,0,0,1-2.77,1.49,31.88,31.88,0,0,1-1.9-3.33c-1.85-3.54-4.39-8.39-8-11.38C88,28.66,86,27.29,84.07,26c-3.72-2.55-7.58-5.2-8.23-7.44C75.33,16.77,70.6,7,64.63,4.05a7,7,0,0,0-5.82-.45C55.43,4.89,52,10.15,52,18.81c-.06.22-.25.62-.5,1.19a46.78,46.78,0,0,0-4.32,20.49A39.53,39.53,0,0,0,53.31,60.2a10.41,10.41,0,0,0-7.37,3.58A18.54,18.54,0,0,0,41.38,74.9c0,.09,0,.16,0,.22a21.2,21.2,0,0,0-1.57,3.09,4.34,4.34,0,0,1-.8,1.43,96,96,0,1,0,122.72,7.29ZM96,249.71A92.84,92.84,0,0,1,41.07,82l2.52-5.38.17-.29A2.42,2.42,0,0,0,44,75.1,15.72,15.72,0,0,1,48,65.53,8.31,8.31,0,0,1,55.67,63l3.81.9-2.48-3a37,37,0,0,1-7.12-20.42A44.2,44.2,0,0,1,54,21.06,5.72,5.72,0,0,0,54.68,19c0-8,3-12.13,5.08-12.91a4.42,4.42,0,0,1,3.68.35c4.85,2.42,9.31,11,9.84,12.84.92,3.15,5,5.94,9.28,8.89,1.88,1.29,3.82,2.62,5.44,4,3.22,2.65,5.61,7.22,7.36,10.56s2.62,4.92,4,4.81,2.82-.93,4.43-2c2.49-1.58,5.62-3.5,10-3.43,5.25.15,10.52,4.44,10.41,12.37l.08.92.62.4c1.12.71,2.6,0,8.71-2.91,5.76-2.77,14.46-7,19.09-7,3.91,0,6.88,1,8.82,3a9.72,9.72,0,0,1,2.52,6.41l0,.39.19.33a9.11,9.11,0,0,1-.9,10.73l-1.31,1.37,1.74.77a2.17,2.17,0,0,1-.29,4c-1.86.51-4.45,1.47-5.38,3.9-.67,1.73-.37,3.89.91,6.56-1.87-.59-2.89-.71-3.43.34a2.22,2.22,0,0,0-.19,1.79A92.83,92.83,0,0,1,96,249.71Z" transform="translate(0 -3.16)"/><path class="cls-2" d="M78.78,58.82h0Z" transform="translate(0 -3.16)"/><path class="cls-2" d="M78.84,67.6s-.59-.45-.4-.65Z" transform="translate(0 -3.16)"/><path class="cls-2" d="M76.81,68.88a2.86,2.86,0,0,0-1.69-.11l.1.19.27.38.32,0a1.06,1.06,0,0,1,.42.09s.52-.54.58-.52" transform="translate(0 -3.16)"/><path class="cls-2" d="M78.54,46a.83.83,0,0,0-.15.12,1.12,1.12,0,0,0-.09.22.59.59,0,0,1-.08.22.68.68,0,0,1-.15.14,9.67,9.67,0,0,1,1.07.1h0a.84.84,0,0,0,.18-.12c0-.08.06-.16.09-.21a.82.82,0,0,1,.11-.21.55.55,0,0,1,.16-.11c-.36-.07-.74-.12-1.12-.16Z" transform="translate(0 -3.16)"/><path class="cls-2" d="M80,46.2a.64.64,0,0,0-.16.11,1,1,0,0,0-.12.2.5.5,0,0,1-.11.2.66.66,0,0,1-.17.12c.36.07.71.15,1,.25h0a.67.67,0,0,0,.19-.1.59.59,0,0,0,.12-.19,1,1,0,0,1,.14-.2.74.74,0,0,1,.17-.08h0a10.52,10.52,0,0,0-1.1-.3Z" transform="translate(0 -3.16)"/><path class="cls-2" d="M81.4,46.61a1,1,0,0,0-.18.08,1.56,1.56,0,0,0-.14.19c0,.06-.06.14-.13.19a.53.53,0,0,1-.19.09c.35.11.68.24,1,.38h0a.74.74,0,0,0,.2-.08.57.57,0,0,0,.15-.17.93.93,0,0,1,.16-.18l.18-.06c-.34-.16-.69-.31-1-.44Z" transform="translate(0 -3.16)"/><path class="cls-2" d="M82.74,47.21a.85.85,0,0,0-.18,0,1.36,1.36,0,0,0-.17.17.57.57,0,0,1-.15.17.89.89,0,0,1-.21.07,8,8,0,0,1,1,.51h0a1,1,0,0,0,.21-.05.59.59,0,0,0,.16-.15,1.12,1.12,0,0,1,.19-.15.44.44,0,0,1,.19,0,10.53,10.53,0,0,0-1-.58Z" transform="translate(0 -3.16)"/><path class="cls-2" d="M84,48a.66.66,0,0,0-.2,0,.73.73,0,0,0-.18.14.55.55,0,0,1-.18.15.62.62,0,0,1-.2,0q.45.3.87.63h0a.67.67,0,0,0,.21,0,.64.64,0,0,0,.18-.13,1.13,1.13,0,0,1,.21-.12.49.49,0,0,1,.19,0h0c-.29-.24-.58-.47-.9-.69Z" transform="translate(0 -3.16)"/><path class="cls-2" d="M85.14,48.89a.57.57,0,0,0-.19,0,1.13,1.13,0,0,0-.21.12.57.57,0,0,1-.19.13.88.88,0,0,1-.21,0c.27.24.54.48.79.74h0a.65.65,0,0,0,.21,0,.47.47,0,0,0,.2-.1.72.72,0,0,1,.22-.1.82.82,0,0,1,.19,0,9.94,9.94,0,0,0-.79-.8Z" transform="translate(0 -3.16)"/><path class="cls-2" d="M86.15,50a.66.66,0,0,0-.19,0,1,1,0,0,0-.22.09.75.75,0,0,1-.2.1.69.69,0,0,1-.22,0c.25.27.47.55.69.84h0a.84.84,0,0,0,.21,0,.44.44,0,0,0,.22-.08l.23-.07a.82.82,0,0,1,.18,0,8.17,8.17,0,0,0-.68-.9Z" transform="translate(0 -3.16)"/><path class="cls-2" d="M87,51.13a.49.49,0,0,0-.19,0,.71.71,0,0,0-.23.06.63.63,0,0,1-.22.07,1,1,0,0,1-.2,0c.2.29.39.6.57.91h0a.65.65,0,0,0,.2.07.64.64,0,0,0,.22-.06,1.05,1.05,0,0,1,.24,0,.6.6,0,0,1,.18.06h0c-.17-.34-.36-.67-.56-1Z" transform="translate(0 -3.16)"/><path class="cls-2" d="M87.72,52.42a.46.46,0,0,0-.18-.07,1,1,0,0,0-.23,0,.79.79,0,0,1-.23,0,.75.75,0,0,1-.2-.07,8.83,8.83,0,0,1,.45,1v0a.65.65,0,0,0,.19.09.57.57,0,0,0,.23,0,1,1,0,0,1,.24,0,1.12,1.12,0,0,1,.17.09h0c-.13-.35-.27-.71-.43-1Z" transform="translate(0 -3.16)"/><path class="cls-2" d="M88.26,53.78a1.12,1.12,0,0,0-.17-.09h-.24a.44.44,0,0,1-.23,0,.65.65,0,0,1-.19-.09,10.08,10.08,0,0,1,.31,1h0a1,1,0,0,0,.18.12.88.88,0,0,0,.23,0,.93.93,0,0,1,.24,0,.51.51,0,0,1,.16.11,10.47,10.47,0,0,0-.29-1.1Z" transform="translate(0 -3.16)"/><path class="cls-2" d="M88.6,55.21a.56.56,0,0,0-.15-.11,1.72,1.72,0,0,0-.24,0,.62.62,0,0,1-.23,0,.76.76,0,0,1-.17-.12c.07.35.13.71.17,1.07v0a.82.82,0,0,0,.17.14.64.64,0,0,0,.22,0l.24.05a.61.61,0,0,1,.14.13c0-.38-.08-.75-.14-1.13Z" transform="translate(0 -3.16)"/><path class="cls-2" d="M88.76,56.67a.61.61,0,0,0-.14-.13.78.78,0,0,0-.23-.07.49.49,0,0,1-.22,0,.52.52,0,0,1-.16-.13,9.63,9.63,0,0,1,0,1.07h0a.69.69,0,0,0,.14.15.52.52,0,0,0,.22.06l.22.09a.67.67,0,0,1,.13.14c0-.37,0-.75,0-1.13Z" transform="translate(0 -3.16)"/><path class="cls-2" d="M88.73,58.13a.83.83,0,0,0-.12-.15l-.22-.09a.79.79,0,0,1-.22-.07.61.61,0,0,1-.14-.16,9.45,9.45,0,0,1-.1,1.07h0a.46.46,0,0,0,.13.17.62.62,0,0,0,.2.1.82.82,0,0,1,.21.11.91.91,0,0,1,.11.16,10.4,10.4,0,0,0,.15-1.12Z" transform="translate(0 -3.16)"/><path class="cls-2" d="M88.51,59.58a.91.91,0,0,0-.11-.16,1,1,0,0,0-.2-.12.61.61,0,0,1-.21-.11,1.13,1.13,0,0,1-.12-.17,8.91,8.91,0,0,1-.24,1h0a.67.67,0,0,0,.1.19.5.5,0,0,0,.19.12,1,1,0,0,1,.19.14.56.56,0,0,1,.09.17h0a9.72,9.72,0,0,0,.3-1.09Z" transform="translate(0 -3.16)"/><path class="cls-2" d="M88.12,61a.46.46,0,0,0-.07-.18.87.87,0,0,0-.17-.16s-.13-.06-.18-.14a.61.61,0,0,1-.08-.19c-.14.33-.29.66-.45,1h0a1.32,1.32,0,0,0,.06.2.62.62,0,0,0,.17.16.69.69,0,0,1,.16.18.48.48,0,0,1,0,.18,8.68,8.68,0,0,0,.51-1Z" transform="translate(0 -3.16)"/><path class="cls-2" d="M87.5,62.33a.71.71,0,0,0,0-.18L87.28,62s-.13-.07-.17-.16a.75.75,0,0,1-.07-.19,8.68,8.68,0,0,1-.51.95h0a1,1,0,0,0,0,.21.59.59,0,0,0,.15.16,1.25,1.25,0,0,1,.15.19.7.7,0,0,1,0,.19h0a8.64,8.64,0,0,0,.57-1Z" transform="translate(0 -3.16)"/><path class="cls-2" d="M86.74,63.59a.57.57,0,0,0,0-.19.87.87,0,0,0-.15-.2.41.41,0,0,1-.14-.17.53.53,0,0,1,0-.21,9.25,9.25,0,0,1-.62.88h0a.93.93,0,0,0,0,.21c0,.09.09.13.13.19a.82.82,0,0,1,.12.2.84.84,0,0,1,0,.19h0a8.91,8.91,0,0,0,.69-.9Z" transform="translate(0 -3.16)"/><path class="cls-2" d="M85.82,64.73a.43.43,0,0,0,0-.19.71.71,0,0,0-.11-.21.57.57,0,0,1-.13-.19.88.88,0,0,1,0-.21c-.24.27-.48.54-.74.78h0a.85.85,0,0,0,0,.21.62.62,0,0,0,.11.2,1,1,0,0,1,.1.22.82.82,0,0,1,0,.19c.27-.25.54-.51.8-.79Z" transform="translate(0 -3.16)"/><path class="cls-2" d="M84.76,65.74a.66.66,0,0,0,0-.19,1,1,0,0,0-.09-.22.69.69,0,0,1-.1-.21.64.64,0,0,1,0-.21,9,9,0,0,1-.84.69h0a.46.46,0,0,0,0,.2.44.44,0,0,0,.08.22,1.12,1.12,0,0,1,.06.23.56.56,0,0,1,0,.19h0a8.7,8.7,0,0,0,.91-.69Z" transform="translate(0 -3.16)"/><path class="cls-2" d="M83.58,66.61a.81.81,0,0,0,0-.19,1.31,1.31,0,0,0-.06-.23.57.57,0,0,1-.07-.22,1,1,0,0,1,0-.2c-.3.2-.61.4-.92.57h0a.58.58,0,0,0-.06.2.67.67,0,0,0,0,.22.71.71,0,0,1,0,.24.51.51,0,0,1-.06.18h0c.33-.17.67-.36,1-.56Z" transform="translate(0 -3.16)"/><path class="cls-2" d="M82.29,67.32a1,1,0,0,0,.07-.18,1.05,1.05,0,0,0,0-.24.68.68,0,0,1,0-.23.75.75,0,0,1,.07-.2,9.73,9.73,0,0,1-1,.45h0a.86.86,0,0,0-.1.19.45.45,0,0,0,0,.23,1.75,1.75,0,0,1,0,.24,2,2,0,0,1-.08.2,12,12,0,0,0,1.12-.46Z" transform="translate(0 -3.16)"/><path class="cls-2" d="M80.84,67.84a1.36,1.36,0,0,0,0-.14.65.65,0,0,0,0-.2c0-.07,0-.12,0-.21A1,1,0,0,1,81,67a7.86,7.86,0,0,0-1.16.48l-.15.07a.68.68,0,0,0,0,.22c0,.06,0,.17,0,.24a.86.86,0,0,1-.14.37,4,4,0,0,0,1.15-.47Z" transform="translate(0 -3.16)"/><path class="cls-2" d="M73.72,67.68a.59.59,0,0,0,.17-.07,1,1,0,0,0,.15-.19.43.43,0,0,1,.13-.19.53.53,0,0,1,.19-.09,8.13,8.13,0,0,1-1-.39h0a.6.6,0,0,0-.2.08A.57.57,0,0,0,73,67a.93.93,0,0,1-.16.18,1.18,1.18,0,0,1-.19.06c.34.16.69.31,1,.44Z" transform="translate(0 -3.16)"/><path class="cls-2" d="M72.37,67.09a.88.88,0,0,0,.19,0,1.36,1.36,0,0,0,.17-.17.57.57,0,0,1,.15-.17.93.93,0,0,1,.2-.07,7.85,7.85,0,0,1-1-.51h0a.53.53,0,0,0-.21.05.86.86,0,0,0-.17.15.8.8,0,0,1-.18.15.44.44,0,0,1-.19,0h0a10.53,10.53,0,0,0,1,.58Z" transform="translate(0 -3.16)"/><path class="cls-2" d="M71.12,66.33a.57.57,0,0,0,.19,0,1.15,1.15,0,0,0,.19-.14.55.55,0,0,1,.18-.15.85.85,0,0,1,.2-.05,8.85,8.85,0,0,1-.88-.63h0a.93.93,0,0,0-.21,0,.7.7,0,0,0-.19.13.59.59,0,0,1-.2.12.5.5,0,0,1-.19,0h0a10.05,10.05,0,0,0,.89.69Z" transform="translate(0 -3.16)"/><path class="cls-2" d="M70,65.41a.56.56,0,0,0,.19,0,1.13,1.13,0,0,0,.21-.12.57.57,0,0,1,.19-.13.88.88,0,0,1,.21,0c-.28-.24-.54-.48-.79-.74h0a.65.65,0,0,0-.21,0,.51.51,0,0,0-.21.1.72.72,0,0,1-.22.1.87.87,0,0,1-.19,0,10.06,10.06,0,0,0,.8.8Z" transform="translate(0 -3.16)"/><path class="cls-2" d="M69,64.35a.71.71,0,0,0,.19,0,1.36,1.36,0,0,0,.23-.09.39.39,0,0,1,.41-.08c-.24-.27-.47-.55-.68-.84h0a.79.79,0,0,0-.21,0,.58.58,0,0,0-.21.07,1,1,0,0,1-.23.08.81.81,0,0,1-.19,0,9.77,9.77,0,0,0,.69.9Z" transform="translate(0 -3.16)"/><path class="cls-2" d="M68.1,63.17a.81.81,0,0,0,.19,0,.78.78,0,0,0,.23-.06.58.58,0,0,1,.21-.07.61.61,0,0,1,.21,0,10,10,0,0,1-.57-.92h0a.73.73,0,0,0-.2-.05.67.67,0,0,0-.22,0l-.24,0a.6.6,0,0,1-.18-.06h0c.17.33.35.66.56,1Z" transform="translate(0 -3.16)"/><path class="cls-2" d="M67.39,61.88a.69.69,0,0,0,.19.07,1,1,0,0,0,.23,0,.68.68,0,0,1,.23,0,.54.54,0,0,1,.2.07,10.83,10.83,0,0,1-.45-1h0a.52.52,0,0,0-.19-.08.42.42,0,0,0-.23,0,1.92,1.92,0,0,1-.24,0,.53.53,0,0,1-.17-.08h0c.12.35.27.7.43,1.05Z" transform="translate(0 -3.16)"/><path class="cls-2" d="M66.86,60.51a.61.61,0,0,0,.17.09,1,1,0,0,0,.24,0,.57.57,0,0,1,.23,0,.86.86,0,0,1,.19.1,9.54,9.54,0,0,1-.31-1h0a1.37,1.37,0,0,0-.18-.11.62.62,0,0,0-.23,0,.9.9,0,0,1-.24,0,.68.68,0,0,1-.16-.11c.08.37.17.74.28,1.1Z" transform="translate(0 -3.16)"/><path class="cls-2" d="M66.52,59.09a.56.56,0,0,0,.15.11.93.93,0,0,0,.24,0,1,1,0,0,1,.23,0,.76.76,0,0,1,.17.12,9.53,9.53,0,0,1-.17-1.07v0a.41.41,0,0,0-.38-.18l-.24,0a1,1,0,0,1-.14-.13,8.94,8.94,0,0,0,.14,1.13Z" transform="translate(0 -3.16)"/><path class="cls-2" d="M66.36,57.63a.61.61,0,0,0,.14.13,1.25,1.25,0,0,0,.23.07.41.41,0,0,1,.38.18,9.74,9.74,0,0,1,0-1.08h0a.69.69,0,0,0-.14-.15.79.79,0,0,0-.22-.07.93.93,0,0,1-.22-.08.64.64,0,0,1-.13-.15,8.67,8.67,0,0,0,0,1.14Z" transform="translate(0 -3.16)"/><path class="cls-2" d="M66.39,56.17a.89.89,0,0,0,.12.14,1.12,1.12,0,0,0,.22.1.79.79,0,0,1,.22.07.69.69,0,0,1,.13.16c0-.36.06-.72.11-1.07h0a.79.79,0,0,0-.13-.18.45.45,0,0,0-.2-.09.83.83,0,0,1-.21-.12.65.65,0,0,1-.11-.15h0c-.07.37-.12.75-.16,1.13Z" transform="translate(0 -3.16)"/><path class="cls-2" d="M66.61,54.72a.91.91,0,0,0,.11.16,1,1,0,0,0,.2.12.62.62,0,0,1,.2.1.84.84,0,0,1,.12.18c.07-.36.15-.71.25-1.05h0a.67.67,0,0,0-.1-.19.59.59,0,0,0-.19-.12,1,1,0,0,1-.19-.14.56.56,0,0,1-.09-.17,9.72,9.72,0,0,0-.3,1.09Z" transform="translate(0 -3.16)"/><path class="cls-2" d="M67,53.31a.56.56,0,0,0,.09.17.68.68,0,0,0,.18.15c.06,0,.14.06.19.13a.67.67,0,0,1,.1.19,8.69,8.69,0,0,1,.37-1h0a.61.61,0,0,0-.08-.19.57.57,0,0,0-.17-.15.93.93,0,0,1-.18-.16,1.18,1.18,0,0,1-.06-.19c-.16.34-.31.69-.44,1Z" transform="translate(0 -3.16)"/><path class="cls-2" d="M67.62,52a.85.85,0,0,0,0,.18.91.91,0,0,0,.17.17.57.57,0,0,1,.17.15.93.93,0,0,1,.07.2,8.68,8.68,0,0,1,.51-1h0a.85.85,0,0,0,0-.21.66.66,0,0,0-.16-.17c0-.05-.12-.13-.15-.18a1.12,1.12,0,0,1,0-.19,10.53,10.53,0,0,0-.58,1Z" transform="translate(0 -3.16)"/><path class="cls-2" d="M68.38,50.71a.57.57,0,0,0,0,.19,1.33,1.33,0,0,0,.14.19.45.45,0,0,1,.15.18.85.85,0,0,1,0,.2,9.1,9.1,0,0,1,.62-.87h0a.67.67,0,0,0,0-.21.7.7,0,0,0-.13-.19,1.37,1.37,0,0,1-.13-.2.68.68,0,0,1,0-.19,10.05,10.05,0,0,0-.69.89Z" transform="translate(0 -3.16)"/><path class="cls-2" d="M69.3,49.57a.57.57,0,0,0,0,.19,1.13,1.13,0,0,0,.12.21.44.44,0,0,1,.12.19.67.67,0,0,1,0,.21,9.22,9.22,0,0,1,.74-.79h0a.65.65,0,0,0,0-.21.47.47,0,0,0-.1-.2,1,1,0,0,1-.1-.22.93.93,0,0,1,0-.2c-.28.25-.55.52-.81.8Z" transform="translate(0 -3.16)"/><path class="cls-2" d="M70.36,48.56a.66.66,0,0,0,0,.19.93.93,0,0,0,.09.22.46.46,0,0,1,.09.21.47.47,0,0,1,0,.2c.27-.24.55-.47.84-.68h0a.74.74,0,0,0,0-.2.56.56,0,0,0-.08-.22,2,2,0,0,1-.07-.23.81.81,0,0,1,0-.19,9.77,9.77,0,0,0-.9.69Z" transform="translate(0 -3.16)"/><path class="cls-2" d="M71.54,47.69a.49.49,0,0,0,0,.19.78.78,0,0,0,.06.23.43.43,0,0,1,0,.42A10.67,10.67,0,0,1,72.5,48h0a.53.53,0,0,0,.06-.2.48.48,0,0,0,0-.22,2.4,2.4,0,0,1,0-.24.88.88,0,0,1,.06-.18h0c-.34.17-.67.36-1,.56Z" transform="translate(0 -3.16)"/><path class="cls-2" d="M72.82,47a.51.51,0,0,0-.06.18.69.69,0,0,0,0,.24.68.68,0,0,1,0,.23.75.75,0,0,1-.07.2,8.83,8.83,0,0,1,1-.45h0a.65.65,0,0,0,.09-.19.57.57,0,0,0,0-.23.65.65,0,0,1,0-.24.68.68,0,0,1,.08-.17h0a9.63,9.63,0,0,0-1,.43Z" transform="translate(0 -3.16)"/><path class="cls-2" d="M74.19,46.45a1.12,1.12,0,0,0-.09.17,1.92,1.92,0,0,0,0,.24.57.57,0,0,1,0,.23.65.65,0,0,1-.09.19,9.37,9.37,0,0,1,1-.31h0a.71.71,0,0,0,.11-.18.46.46,0,0,0,0-.23.93.93,0,0,1,0-.24.55.55,0,0,1,.1-.16,11,11,0,0,0-1.09.29Z" transform="translate(0 -3.16)"/><path class="cls-2" d="M75.62,46.11a.56.56,0,0,0-.11.15,1.72,1.72,0,0,0,0,.24.62.62,0,0,1,0,.23.76.76,0,0,1-.12.17c.35-.07.71-.13,1.06-.17h0a.82.82,0,0,0,.14-.17c0-.08,0-.16,0-.22a1.69,1.69,0,0,1,.05-.24.61.61,0,0,1,.13-.14h0a11.24,11.24,0,0,0-1.13.14Z" transform="translate(0 -3.16)"/><path class="cls-2" d="M77.08,46a.61.61,0,0,0-.13.14.78.78,0,0,0-.07.23.49.49,0,0,1,0,.22.47.47,0,0,1-.14.16c.37,0,.73,0,1.08,0h0a.61.61,0,0,0,.16-.14A.79.79,0,0,0,78,46.3a.63.63,0,0,1,.08-.22.67.67,0,0,1,.14-.13,8.51,8.51,0,0,0-1.13,0Z" transform="translate(0 -3.16)"/><path class="cls-2" d="M74.35,67.64s.12.61.52.62a1.76,1.76,0,0,1,.62-.68l.08-.09a1,1,0,0,1,.16-.77l-.22,0a1.87,1.87,0,0,0-1.16.87Z" transform="translate(0 -3.16)"/><path class="cls-2" d="M75.07,69.64a.48.48,0,0,0,.19-.12h0a1.15,1.15,0,0,1-.44-.94c-.51-.06-.62-.63-.62-.63h0a2.13,2.13,0,0,0-.12.62,2,2,0,0,0,.31,1.07h0a1.7,1.7,0,0,0,.67,0" transform="translate(0 -3.16)"/><path class="cls-2" d="M76.17,69.74l-.22,0a1.06,1.06,0,0,1-.4-.08h0c-.11.34-.89.27-.89.27a1.87,1.87,0,0,0,1.06.52h0a.68.68,0,0,0,.46-.73Z" transform="translate(0 -3.16)"/><path class="cls-2" d="M76.4,69.7h0l.33.08a2.75,2.75,0,0,1,.75.25s-.72.68-1.35.51a.74.74,0,0,0,.27-.84Z" transform="translate(0 -3.16)"/><path class="cls-2" d="M78.51,69.54A3.7,3.7,0,0,0,77.22,69l-.69.49.83.27c.24.07.31.19.62.39,0,0,.74-.42.53-.59" transform="translate(0 -3.16)"/><path class="cls-2" d="M79.93,70.24a1.22,1.22,0,0,1-.72.29,1.61,1.61,0,0,1-1-.24s.61-.41.58-.62a1.32,1.32,0,0,0,.68,0,1.27,1.27,0,0,0,.43.54" transform="translate(0 -3.16)"/><path class="cls-2" d="M78.84,67.6a.94.94,0,0,1,.8-.3c.73-.31.85-.34.85-.34a1.18,1.18,0,0,0-1.08-.37,2.29,2.29,0,0,0-1,.41Z" transform="translate(0 -3.16)"/><path class="cls-2" d="M78.6,67.76s-.48-.41-.38-.7c-.54.47-.76.71-1.2.71-.11,0,0,0,0,0a.76.76,0,0,0-.11.22.71.71,0,0,0,0,.2,1.25,1.25,0,0,0,0,.24,1.8,1.8,0,0,0,.9-.07,2,2,0,0,0,.6-.4l.25-.21" transform="translate(0 -3.16)"/><path class="cls-2" d="M76.63,68.47s-.06,0,0-.29a.93.93,0,0,1,.08-.2.75.75,0,0,1,.11-.22h-.14a7,7,0,0,1-.9-.13h0a.61.61,0,0,0-.29.2c0,.06-.1.08-.14.12l-.13.16h0a4.29,4.29,0,0,0,1.41.35" transform="translate(0 -3.16)"/><path class="cls-2" d="M76.19,66.78c0-.09.17-.06.26-.07a1.35,1.35,0,0,1,1.17.52l-.19.15a.79.79,0,0,1-.41.17l-.1,0a1.38,1.38,0,0,0-.5-.08,1.47,1.47,0,0,0-.47,0c-.16-.17.24-.66.24-.66Z" transform="translate(0 -3.16)"/><path class="cls-2" d="M74.4,70l-.25.21-.16.15h0s-.51-.59-.91-.24h0l.4-.49a1.27,1.27,0,0,1,.35-.26l0,0,.17-.07a1.09,1.09,0,0,0,.44.68" transform="translate(0 -3.16)"/><path class="cls-2" d="M72.83,70.42a.65.65,0,0,1,.94.14l-.39.37Z" transform="translate(0 -3.16)"/><polygon class="cls-2" points="72.64 67.51 73.15 68 73.22 67.92 72.71 67.43 72.64 67.51"/><path class="cls-2" d="M72.51,70.77a1.7,1.7,0,0,0-.29.22l.57.66L73,71.3Z" transform="translate(0 -3.16)"/><path class="cls-2" d="M82,71a2.36,2.36,0,0,1,.28.23l-.6.64-.22-.36Z" transform="translate(0 -3.16)"/><polygon class="cls-2" points="81.19 68.09 81.26 68.17 81.79 67.7 81.72 67.62 81.19 68.09"/><path class="cls-2" d="M81.64,70.59a.66.66,0,0,0-1,.1l.37.39Z" transform="translate(0 -3.16)"/><path class="cls-2" d="M80.67,69.48a.77.77,0,0,0-1,.16,2.35,2.35,0,0,1,.75.66l.1.17h0s.53-.57.92-.22h0a4.47,4.47,0,0,0-.39-.48,1.71,1.71,0,0,0-.33-.29" transform="translate(0 -3.16)"/><path class="cls-2" d="M78.14,68.39c-.06,0,.36.17,1,.07h0a.51.51,0,0,0,.11-.16,1.47,1.47,0,0,0,.08-.25c0-.06,0-.1,0-.19a.55.55,0,0,1,0-.17c-.07,0-.47.17-.47.17l-.18,0-.16.15-.19.16-.27.18" transform="translate(0 -3.16)"/><path class="cls-2" d="M80.92,69.32A1.28,1.28,0,0,0,81.08,68l-.81.38a.43.43,0,0,1-.09.52s.79.34.74.39" transform="translate(0 -3.16)"/><path class="cls-2" d="M79.34,69.53s.55-.51.9-.35l-.08-.07a1.83,1.83,0,0,0-1.07-.38c-.34,0-.92.08-1.06.3a1.83,1.83,0,0,1,.83.42s.16,0,.48.08" transform="translate(0 -3.16)"/><path class="cls-2" d="M75.93,58.87h0c-.37,0-.85.08-1.29.17-.21-.82-.81-1.88-1.83-1.73a1.39,1.39,0,0,0-1,1.83,2.43,2.43,0,0,1-2.57-2,2.84,2.84,0,0,1,2.72-3.47c2.56,0,3.95,3.38,4,5.2M71,57l.32-.65.72.11-.52-.51.33-.65-.64.34-.52-.51.11.71-.64.34.72.1Z" transform="translate(0 -3.16)"/><path class="cls-2" d="M79.19,58.87c.08-1.81,1.46-5.2,4-5.2a2.83,2.83,0,0,1,2.71,3.47,2.43,2.43,0,0,1-2.56,2,1.4,1.4,0,0,0-1-1.84c-1-.15-1.62.91-1.83,1.73-.45-.09-.92-.13-1.29-.17ZM84.11,57l.12-.72.72-.1-.65-.34.12-.71-.52.51-.64-.33.32.64-.51.51.71-.11Z" transform="translate(0 -3.16)"/><path class="cls-2" d="M77.55,60.41c-1.91,0-3.47-.29-3.47-.64s1.56-.63,3.47-.63,3.48.28,3.48.63-1.56.64-3.48.64m0-.38a10,10,0,0,0,3-.26,10.3,10.3,0,0,0-3-.27,10.26,10.26,0,0,0-3,.27,10.15,10.15,0,0,0,3,.26" transform="translate(0 -3.16)"/><path class="cls-2" d="M80.38,60.52c-.36.07-.76.13-1.21.18h0c.09.77.72,2.41,1.8,2.41a1.56,1.56,0,0,0,1.47-1.46,1.39,1.39,0,0,1-2.07-1.12Z" transform="translate(0 -3.16)"/><path class="cls-2" d="M75.93,60.7a11.33,11.33,0,0,1-1.19-.17h0a1.41,1.41,0,0,1-2.07,1.15,1.55,1.55,0,0,0,1.47,1.45c1.09,0,1.71-1.67,1.79-2.43Z" transform="translate(0 -3.16)"/><path class="cls-2" d="M77.55,48.38a12.72,12.72,0,0,0,1.39,1.2,4.13,4.13,0,0,1,1.75,3.17c0,2-1.64,3.7-1.85,6.09a9.16,9.16,0,0,0-1.07-.07c0-2.41,0-5.68-.22-8-.16,2.36-.25,5.63-.21,8a9.16,9.16,0,0,0-1.07.07c-.21-2.39-1.86-4.12-1.85-6.09a4.13,4.13,0,0,1,1.75-3.17,12,12,0,0,0,1.38-1.2" transform="translate(0 -3.16)"/><path class="cls-2" d="M77.55,65.29a4.7,4.7,0,0,0,2.29-2.15,5.35,5.35,0,0,1-1-2.41c-.34,0-.7,0-1.07,0a19.29,19.29,0,0,1-.24,2.74,20.8,20.8,0,0,1-.23-2.74c-.37,0-.73,0-1.07,0a5.35,5.35,0,0,1-1,2.41,4.77,4.77,0,0,0,2.28,2.15" transform="translate(0 -3.16)"/><path class="cls-3" d="M20,145.37c.3.07.29.85.33,1.27.08.94.31,2.19.68,1.84s.65-3,.29-5.93c-.13-1.09.25-1.32.52-1.39a4.29,4.29,0,0,0,1.75-1,3.78,3.78,0,0,0,.76-1.16c1.28-2.38,2.51-3,2.91-3.62.56-.84.12-.72.12-.72-2.32.57-4.74,2.45-5.41,4-.45,1.06-.5,1-.48.74.06-.67.25-2.26.45-3.25s.58-3.15,2.39-3.61c2.26-.58,4.38-4.19,5.29-5,.26-.25.71-.54.87-.69s.07-.19.07-.19a12.19,12.19,0,0,0-6.15,2.89,4.44,4.44,0,0,0-1.5,1.77c-.09.06-.11,0-.11,0a56.54,56.54,0,0,1,2.05-5.7c.32-.64,1.26-1.08,3-.8,1.37.22,2.39-1.11,2.89-1.94A8.34,8.34,0,0,1,33,120.39c.37-.2.2-.22.2-.22-2.82-.65-7.63,3.85-7.63,3.85-.22.2-.26.15-.24.06A33,33,0,0,1,28,118.54a.89.89,0,0,1,.63-.43c1-.2,1.74.57,2.72.2s1.27-1.19,2.48-1.94A9.52,9.52,0,0,1,37,115.1c1.18-.16,1.38-.43,1.41-.54s-1.69-.58-3.16-.52c-2.71.1-6,2.17-6,2.17.08-.19.65-1,1.13-1.86a2,2,0,0,1,1.15-1.1,4.8,4.8,0,0,1,2.11,0,5.65,5.65,0,0,0,4.41-.83,7.48,7.48,0,0,1,4.43-1.72c.31-.07.25-.17.14-.17a25,25,0,0,1-2.91-.93,6.26,6.26,0,0,0-5.26.8c-.7.58-1.9,1.78-2.21,1.93-.95.46-.38-.74-.38-.74.75-1.63,3.88-5,3.88-5-1.05,2,.37,2.41.83,1.64s-.31-.88-.31-.88a2.78,2.78,0,0,1,.67-1.49c.25-.14.45.22.45.22,1.64,3,5.11,3.38,6.13,3.42,1.56.06.91,4.24,1.93,5,.1-1,.58-6.51-1.6-7.76s-3.66-.84-5.55-1.17c-.74-.13.18-.42.18-.42,2-.64,4.86.35,4.86.35a8.75,8.75,0,0,1,4.56,4c.11.25.15.06.15.06,0-1-.91-3.67-4.4-5a7.81,7.81,0,0,0-4-.52,2.42,2.42,0,0,1-.64,0c.11-.25,2.91-2.39,2.91-2.39.23-.16.32,0,.34.16s0,.54,0,.8.06.18.08.09c.12-.37.35-1,.52-.81a1.27,1.27,0,0,1-.13,1.37c-.18.17-.19.25-.16.29s.08,0,.11,0c.78-.25.91-1.79.77-2.35-.07-.28,0-.29.11-.28.26.07.8,1,.34,2.37-.08.23-.2.67,0,.58,2-1.12.59-3,.59-3a2.72,2.72,0,0,1,1.31,1.24c.24.68-.16,1.16.06,1.55,0,.07.11.13.17,0a2.46,2.46,0,0,0-1.23-3.77,1.49,1.49,0,0,1,1.55.13c.87.57,1.25,1.32,1,2a1.69,1.69,0,0,0-.17.58s0,.14.1,0a2,2,0,0,0,.19-2.6,3.64,3.64,0,0,0-1.45-1.19c-.44-.17.3-.46.3-.46.59-.65-.27-.46-.27-.46a3.17,3.17,0,0,1-.39.27c-.08,0-.07,0-.07-.09.15-1.89-2.37-2-2.37-2a1.6,1.6,0,0,0-1.08.16s-.07,0,0,.1c.42.33,1.39.41,2.11,1a1,1,0,0,1,0,1.53,2.2,2.2,0,0,0-1.19-1.4,2.1,2.1,0,0,0-1.56-.09c-.55.19,0,.33,0,.33,2.71,1,1.44,1.9,1.44,1.9a1.26,1.26,0,0,0-.62-.41,2.39,2.39,0,0,0-1.42,0c-.18.06,0,.12,0,.12,1.3.32,1.24,1.07,1.24,1.07l-.67-.12c-.33-.06-.82,0-.66.2,0,.06,0,0,.07,0a3,3,0,0,1,.86.3l-3,2.37a11.2,11.2,0,0,0,1.2-6.1c-.23-2.38-.89-3.17-1.5-3.58-.17-.11-.21-.06-.15.13.16.48.4,1.77.4,1.77A10.51,10.51,0,0,1,37,104.16a.52.52,0,0,1-.26.11,5,5,0,0,1,.49-2.23c1.3-2.58.87-4.53.27-5.43a7.34,7.34,0,0,1-.67-3.06c0-.44-.14-.4-.18-.19a3,3,0,0,1-.39,1c-1.87,2.75-2.18,6.56.06,10.34l-1.38.41c.1-.42-.38-.54-.38-.54a.72.72,0,0,0-1,.56c-.34,1.41,1.84.61,1.84.61-.25.18-2.34,2.64-2.34,2.64a6.44,6.44,0,0,1-.82.94C33.3,103.34,31,101.6,31,101.6c-.83-1.67-.92-1-.92-1a5.66,5.66,0,0,1,.31,2.54c-1.09,4.35.16,4.76.16,4.76a2.89,2.89,0,0,1,.59,1.82,11.94,11.94,0,0,1-1,2.19c-.17.33-.38.76-.62,1.22.17-2.64-1.88-6.5-1.88-6.5-2.78,7.74-.25,10.16-.25,10.16L24.43,123c-.24-.35-.13-.86,0-1.44.27-1.59,1.62-4,1.53-5.49-.09-1.75-1.57-3.16-1.89-3.9a1.63,1.63,0,0,0-.11-.2c-.2-.34-.23.14-.23.17a8.88,8.88,0,0,1-.45,2.08,17.14,17.14,0,0,0,.52,10.21l-2.15,6.81c-.67-.8-1.52-7.36-1.52-7.36-.09-.46-.15,0-.22.23-2.23,8.54.6,10.79.6,10.79a11.73,11.73,0,0,0-.31,3.35c0,.17-.13.77-.26.63-.85-.85-2.16-5.16-2.11-6.19,0-.5-.18-.1-.18-.1-2.38,6,2.26,8.86,2.26,8.86l.34,2.74c-.53-.48-2.15-1.73-2.89-2.34a4.28,4.28,0,0,1-1.2-1.39c-.24-.4-.23.17-.23.17-.2,3.5,4.13,4.74,4.13,4.74" transform="translate(0 -3.16)"/><path class="cls-3" d="M175.91,140.21s0-.57-.24-.16a4.33,4.33,0,0,1-1.15,1.43c-.72.63-2.3,1.94-2.81,2.43l.25-2.75s4.54-3,1.95-8.92c0,0-.21-.4-.17.1.09,1-1.08,5.38-1.9,6.26-.13.15-.28-.45-.28-.62a11.79,11.79,0,0,0-.42-3.34s2.74-2.34.22-10.81c-.07-.24-.14-.68-.22-.22,0,0-.63,6.59-1.27,7.41l-2.38-6.73a17.12,17.12,0,0,0,.17-10.22,8.83,8.83,0,0,1-.52-2.07s0-.51-.23-.16c0,0-.06.12-.1.2-.31.75-1.73,2.21-1.77,4,0,1.44,1.4,3.85,1.73,5.43a2.09,2.09,0,0,1,0,1.44l-3.17-6.13s2.45-2.5-.59-10.14c0,0-1.91,3.92-1.66,6.55-.26-.44-.48-.87-.66-1.19a11.66,11.66,0,0,1-1-2.15,2.8,2.8,0,0,1,.53-1.84s1.23-.45,0-4.77a5.82,5.82,0,0,1,.22-2.55s-.1-.65-.88,1c0,0-2.29,1.82-1,7.71a6.51,6.51,0,0,1-.85-.9s-2.17-2.39-2.43-2.57c0,0,2.21.73,1.82-.67a.73.73,0,0,0-1-.53s-.48.14-.36.55l-1.4-.36c2.11-3.85,1.68-7.65-.28-10.34a2.75,2.75,0,0,1-.43-.94c0-.2-.2-.23-.17.21a7.32,7.32,0,0,1-.57,3.08c-.56.92-.93,2.87.45,5.42a4.72,4.72,0,0,1,.57,2.22.58.58,0,0,1-.25-.12,10.49,10.49,0,0,1-1.85-8.69s.2-1.3.35-1.78c.05-.19,0-.24-.16-.13-.6.43-1.23,1.25-1.38,3.63a11.28,11.28,0,0,0,1.41,6.07l-3.11-2.28a3.14,3.14,0,0,1,.84-.33c.07,0,0,0,.08,0,.16-.23-.34-.26-.67-.18l-.66.14s-.08-.75,1.2-1.12c0,0,.18-.06,0-.11a2.4,2.4,0,0,0-1.42,0,1.18,1.18,0,0,0-.61.43s-1.3-.89,1.38-2c0,0,.53-.15,0-.33a2.06,2.06,0,0,0-1.55.14,2.22,2.22,0,0,0-1.14,1.44,1,1,0,0,1-.11-1.52c.7-.66,1.67-.77,2.07-1.12.06,0,0-.07,0-.1a1.57,1.57,0,0,0-1.08-.12s-2.51.23-2.3,2.11c0,.12,0,.13-.07.09a2.83,2.83,0,0,1-.4-.25s-.86-.17-.25.47c0,0,.75.26.31.45a3.6,3.6,0,0,0-1.4,1.23,2,2,0,0,0,.28,2.6c.1.11.1,0,.1,0a1.82,1.82,0,0,0-.2-.57c-.29-.64.06-1.41.91-2a1.54,1.54,0,0,1,1.56-.18,2.46,2.46,0,0,0-1.11,3.81c.06.11.14.05.17,0,.2-.4-.21-.86,0-1.56a2.72,2.72,0,0,1,1.26-1.28s-1.32,2,.69,3c.18.1.05-.34,0-.57-.51-1.34,0-2.3.25-2.38.08,0,.19,0,.12.27-.12.57.07,2.11.86,2.33,0,0,.09,0,.11,0s0-.13-.18-.29a1.24,1.24,0,0,1-.16-1.36c.15-.19.4.42.53.78,0,.1.07.08.09-.08s-.06-.5,0-.8.11-.32.34-.17a37.6,37.6,0,0,1,3,2.29,2.89,2.89,0,0,1-.64,0,7.65,7.65,0,0,0-4,.66c-3.44,1.45-4.21,4.11-4.22,5.14,0,0,0,.19.14,0a8.74,8.74,0,0,1,4.41-4.21s2.81-1.08,4.86-.51c0,0,.93.25.19.4-1.88.4-3.31,0-5.51,1.37s-1.47,6.86-1.33,7.8c1-.78.2-4.93,1.75-5,1-.07,4.48-.56,6-3.63,0,0,.18-.37.44-.24a2.84,2.84,0,0,1,.72,1.47.53.53,0,0,0-.29.89c.49.76,1.9.29.78-1.67,0,0,3.24,3.24,4.05,4.85,0,0,.61,1.18-.35.75-.32-.14-1.57-1.29-2.28-1.85a6.19,6.19,0,0,0-5.28-.62,24.17,24.17,0,0,1-2.88,1c-.11,0-.17.11.15.17a7.58,7.58,0,0,1,4.49,1.57,5.64,5.64,0,0,0,4.42.68,4.74,4.74,0,0,1,2.12-.08,2,2,0,0,1,1.19,1.06c.5.82,1.1,1.63,1.18,1.81,0,0-3.37-2-6.09-2-1.46,0-3.18.43-3.13.63s.23.37,1.42.49a9.42,9.42,0,0,1,3.25,1.16c1.24.71,1.46,1.48,2.55,1.85s1.69-.45,2.71-.29a1,1,0,0,1,.64.41,32,32,0,0,1,2.83,5.45c0,.09,0,.14-.25,0,0,0-4.95-4.33-7.75-3.59,0,0-.17,0,.21.21a8.49,8.49,0,0,1,2.36,2.43c.52.81,1.58,2.11,3,1.85,1.68-.35,2.64.07,3,.7a57.2,57.2,0,0,1,2.25,5.62s0,.07-.11,0a4.73,4.73,0,0,0-1.56-1.71,12.3,12.3,0,0,0-6.25-2.69s-.16,0,.08.2.63.41.9.65c.93.82,3.17,4.36,5.46,4.86,1.81.4,2.29,2.65,2.5,3.53s.47,2.57.56,3.23c0,.21,0,.32-.51-.72-.72-1.57-3.2-3.37-5.54-3.85,0,0-.44-.11.14.71a15.64,15.64,0,0,1,3,3.52,3.63,3.63,0,0,0,.8,1.13,4.25,4.25,0,0,0,1.78.91c.28.07.66.28.56,1.37-.25,2.91,0,5.46.49,5.92s.58-.92.62-1.87c0-.42,0-1.19.29-1.27,0,0,4.28-1.39,4-4.88" transform="translate(0 -3.16)"/><path class="cls-3" d="M118,55.75c.89-.46,2.2-1.49,2.69-1,.17.18,0,.68-1,1.16-1.8.84-2.73,1.44-3.14,2.2a20.08,20.08,0,0,0-.69,2.31,8,8,0,0,0-.4,2.58,5.31,5.31,0,0,1,1,4.33,22.94,22.94,0,0,0-.22,3.62c0,.57,0,1.14,0,1.33.06.41-.07.51-.28.11a13.27,13.27,0,0,1-1.22-4.61c0-.19-.15-.13-.29,0a5,5,0,0,0-.8,1.71c-.23.63-.49,1.24-.58,1.52a.93.93,0,0,0,.23.95s1.79,4.92-1.52,7c0,0-.51.37-.3-.11a4.86,4.86,0,0,0,.49-2c.08-1.06.06-3.73.43-4.28,0,0-.34-.14-.94.52L110,74.84s.38,6-6.6,7.71c0,0-.5.08,0-.22,1-.61,4-4.41,4.22-5.73,0-.21-.42-.07-.57.06-.34.28-2.17,1.78-3.36,1.82,0,0-.23,4-9.41,7.45-.27.1-.71.33-.35-.05,0,0,5.41-5,5.71-6.09l-7.52,2a18.85,18.85,0,0,1-9,7.37,10.19,10.19,0,0,0-2.18.93s-.48.31-.3-.1a1.72,1.72,0,0,1,.12-.22c.46-.77.8-3,2.32-4.23,1.26-1,4.36-1.34,6-2.11a3,3,0,0,0,1.45-1.13L83,83s-.79,4.66-9.6,7.1c0,0,3.58-5.93,6.38-6.92.31-.11,0-.14-.86-.16s-7-.12-7.89-.26c0,0-1.7-.2-3.59,1.92,0,0-1.45,1.75-6.44,1.75a6.53,6.53,0,0,0-2.66,1s-.72.09.85-1.25c0,0,3.28-3.5,10-3.93,0,0,.19-.18-1.5-.64,0,0-3.63-1.37-3.89-1.6,0,0,1.45,2.13-.16,2.15a.82.82,0,0,1-.87-.9s0-.55.48-.55l-.82-1.38c-3.47,3.43-7.66,4.12-11.13,2.85A3.2,3.2,0,0,0,50.1,82c-.23,0-.31-.14.17-.24a8.33,8.33,0,0,0,3.11-1.55c.82-.89,2.79-1.87,5.93-1.17A5.51,5.51,0,0,0,61.85,79a.64.64,0,0,0-.2-.24,11.63,11.63,0,0,0-9.84.68S49.48,80.79,49,81.1c-.18.12-.25.08-.18-.13.28-.77,2-2.43,4.46-3.33a12.42,12.42,0,0,1,6.91-.34l-3.38-2.64a3.24,3.24,0,0,0-.09,1c0,.07,0,0,0,.08-.19.24-.38-.28-.39-.65l0-.75s-.83.14-.83,1.62c0,0,0,.21-.12,0A2.64,2.64,0,0,1,55,74.47a1.34,1.34,0,0,1,.27-.78s-1.35-1.11-1.66,2.07c0,0,0,.61-.36.07a2.26,2.26,0,0,1-.32-1.71,2.42,2.42,0,0,1,1.19-1.65,1.15,1.15,0,0,0-1.67.35c-.48,1-.31,2-.56,2.56,0,.07-.06.06-.11,0a1.85,1.85,0,0,1-.46-1.12s-.52-2.75,1.55-3.1c.15,0,.15,0,.08-.1a2.63,2.63,0,0,0-.39-.35s-.44-.87.43-.41c0,0,.51.73.57.2a4,4,0,0,1,.89-1.88,2.22,2.22,0,0,1,2.86-.5c.15.08,0,.11,0,.12a2,2,0,0,1-.67,0c-.77-.13-1.49.49-1.86,1.58A1.67,1.67,0,0,0,55,71.51a2.73,2.73,0,0,1,3.73-2.34c.14,0,.08.13,0,.19-.36.34-1,0-1.65.48a3,3,0,0,0-1,1.75s1.72-2,3.44-.19c.16.16-.35.15-.62.13-1.6-.13-2.45.7-2.46,1,0,.08,0,.19.32,0,.57-.3,2.27-.57,2.75.2,0,0,0,.1,0,.13s-.13,0-.36-.1a1.39,1.39,0,0,0-1.51.24c-.16.23.57.31,1,.33.11,0,.11,0-.06.12s-.55.08-.87.22-.31.21-.07.41c0,0,3.06,2.43,3.36,2.49a3,3,0,0,0-.15-.69,8.55,8.55,0,0,1-.52-4.48c.49-4.11,3.1-5.75,4.21-6.08,0,0,.21,0,0,.18a9.73,9.73,0,0,0-3.15,6s-.3,3.33.94,5.34c0,0,.55.92.49.08-.15-2.12-1-3.54-.22-6.3s2.89-3.35,3.3-4.09a7.88,7.88,0,0,0-.23,3.7c.24,1.12.78,5-2,7.53,0,0-.33.31-.12.55a3.11,3.11,0,0,0,1.79.32s0-.84.87-.58.88,1.94-1.54,1.34A46.1,46.1,0,0,0,71,81.7s.92.2.73,0-1.86-1.27-2.67-1.87c-1.68-1.24-2.27-3.61-2.29-5.44,0-1.36.42-2.56.22-3.39,0-.12.07-.22.23.1.27.56.35,2,3.05,4.32a6.28,6.28,0,0,1,2.08,4.52c0,.5,0,1.88.68,1.91,0,0,6.6.36,7.67.14,0,0-3.65-1.12-5.48-3.51-1-1.3-1.76-3.11-1.55-3.2s.48,0,1.39.92a10.45,10.45,0,0,0,3.21,2.11c1.45.62,2.29.29,3.35,1s.49,1.49,1.32,2.28a1,1,0,0,0,.8.3A39.39,39.39,0,0,0,90.71,81c.1,0,.12-.11-.2-.19,0,0-7.17-1.49-8.39-4.46,0,0-.09-.17.33.05a9.62,9.62,0,0,0,3.74.45c1.07-.08,2.92,0,3.61,1.38.83,1.72,2,2.54,2.76,2.42,0,0,6.37-1.56,6.51-1.84,0,0,0-.07-.07-.11a9.44,9.44,0,0,1-2.71-.42,13.57,13.57,0,0,1-6.58-3.74s-.12-.12.22,0,.8.28,1.19.35c1.35.28,6-.11,8,1.58,1.57,1.34,4.49,1.11,5.41.71a32.62,32.62,0,0,0,3.08-1.83c.2-.12.27-.23-1,0-1.87.41-5.12-.58-7.12-2.33,0,0-.4-.32.73-.35.82,0,2.16.68,5.15.33a3.88,3.88,0,0,1,1.54,0,4.8,4.8,0,0,1,2,1c.25.2.37.2,1.25-.63,1.15-1.08,2.87-3.87,2.78-4.9,0,0,.12-.21-.69.37s-3.2,1.51-4.4,1c0,0-.45-.07,0-.58.2-.23.33-.46.74-1,.72-.9,2.08-2.26,3.74-2.22,0,0,1.52,0,1.52-.37a6.36,6.36,0,0,1,.42-2s0-1.28-.3-.92c0,0-1.38,2.33-2.6,2.19a33.65,33.65,0,0,1-4.2-.65c-.6-.31,1.39-1.19,1.73-1.31A6.9,6.9,0,0,0,111,62c2.08-1.86,3,.28,3.66,0a8.48,8.48,0,0,0,.24-1.22,5.94,5.94,0,0,1,3.08-5" transform="translate(0 -3.16)"/><path class="cls-2" d="M117.07,56.9c.55.12.77.58,1.34.69.13,0,.13,0,.14-.09a1.4,1.4,0,0,0-.14-.77,13,13,0,0,0-1.1-1.85c-.16-.2,0-.71-.09-1.19a5.56,5.56,0,0,0-5.73-5c-5.55-.17-8.73,5.53-13.32,4.77-3.62-.6-5.49-6-7.47-9.78-2.33-4.44-3.45-6.54-6.47-9.26-3.19-2.88-5.14-3.73-9.07-6.66-3.43-2.56-6.24-5.5-6.48-11.16a1.37,1.37,0,0,1,0-.28c0-.65-.23-.93-.25-.53-.22,3.53.63,7.51,2.12,9.8C74.44,31.44,84.42,34.8,88.15,41c4,6.68,5.2,13.6,11.25,13.57,4.51,0,7.14-4.91,11.72-5.2a4.59,4.59,0,0,1,5.14,4.84c0,.24.44.44.67.87,0,.09,0,.1,0,.17-.29.33-.46.71-.88.83a9,9,0,0,1-1,0c-2.3.2-3.35,2.39-3.17,4.62.35,4.27,4.45,6.66,9.31,6.35,9.71-.68,20.4-17.4,35-16.41,4.61.32,4.77,4.08,1.5,5.34a25.47,25.47,0,0,0-4.76-.61,23,23,0,0,0-9.22,1.46c-5.28,1.88-9.05,5.35-13.23,8.27a6.07,6.07,0,0,1-2.88,1.42c.59-.64,1.27-1.39,1.8-2.08.17-.23.41-.51.37-.76-2.79,2.48-6.49,4.06-10.11,5.72a8.45,8.45,0,0,0,3.78.66,17.71,17.71,0,0,0,8.22-2.69c2.28-1.35,4.3-3,6.47-4.49a68.62,68.62,0,0,1,6.72-4.2,16,16,0,0,1,4.11-1.37,29.08,29.08,0,0,1,4.72-.76c2.37-.14,6.61,0,5.2,2.69A3.83,3.83,0,0,1,156.38,61a4.18,4.18,0,0,1-1-.19,23.18,23.18,0,0,0-3.16-.57,5.39,5.39,0,0,0,1,2.36c.76.21,1.65.37,2.55.58a10.24,10.24,0,0,1,2.46.66c.77.51.33,1.42-.19,1.88a4.61,4.61,0,0,1-2.84,1c-.44,0-.87-.23-1.28-.29a12.46,12.46,0,0,0-2.73,0,4.57,4.57,0,0,0,.61,1.42c.2.36.57,1.13.85,1.23a4.72,4.72,0,0,0,1.19,0,7,7,0,0,1,3.15.52,1.14,1.14,0,0,1,.52,1.47c-.52,1.12-3.46,1.32-4.8.61a3.77,3.77,0,0,0-2.38-1.75,16.54,16.54,0,0,0,1,2.84c.59.4,1.51.69,1.65,1.42a1.91,1.91,0,0,1-.66,1.6c-1.8,1.43-5.21,1.44-7.94.9a21.34,21.34,0,0,1-3.44-1.14A53,53,0,0,0,135,73.77a32.06,32.06,0,0,0-8.7-1.23,17.63,17.63,0,0,0-10,3.69,1.36,1.36,0,0,0-.5.59c0,.05,0,.08,0,.09a.68.68,0,0,0,.61-.25c1.29-1.29,5.31-3.06,10.94-2.8,8.11.37,17.54,4.14,18.85,6.57-2.51-1.53-6.43-2-10-1.65a29.6,29.6,0,0,0-11.42,3.66.56.56,0,0,1-.67,0,6.46,6.46,0,0,1,1-1.88c-2.17,1.36-3.74,3.35-6.24,4.39,1.44,0,2.94.71,4.3.47,2-.35,2.08-1.15,7.47-3.12,10.58-3.85,14.53-1.9,16-1-.95,1.32-3.9.5-5.53.38,1.7,1.41,5.82,1.78,7.14,1.07.22-.12.31-.18.34-.37.26-1.28-1.49-2.56-3-4,2.16.49,5.27.6,7.09-.33,2.94-1.53.94-3.76.74-5.43,2.24.33,5.21,0,5.68-1.71S157.87,68,157,67.25c2.64-1,4.34-1.72,4.37-3.21s-1.66-2.15-3.62-2.7c5.19-2,3.63-4.37.43-5.24,1.7-.51,2.78-1.89,2.55-3.28-.39-2.28-6-4.94-13.51-2.81-11.35,3.23-20.59,15.41-28.54,15.87a6.71,6.71,0,0,1-2.94-.52c-.32-.17-1-.69-1.08-1l-.57-.57c-1.28-1.41-1.46-5,.1-6.34a3.6,3.6,0,0,1,1.48-.68,6.35,6.35,0,0,1,1.4.12" transform="translate(0 -3.16)"/><path class="cls-2" d="M57.11,41.73c.27,2.61,2.67,5,4.58,6.29A4.92,4.92,0,0,0,64,49.15c.09,0,.12,0,.15-.1.17-.62-.53-1.29-1.17-2.51a.29.29,0,0,0-.14-.13c-1.55-.76-4.17-2.37-4.78-4.21a1.53,1.53,0,0,1,.85-1.84c.45-.08.66.21,1,.15.05,0,.06,0,.06-.07a18.08,18.08,0,0,0-.34-2.91.15.15,0,0,0,0-.1c-.95-1-2.71-2.34-2.89-4.24a1.68,1.68,0,0,1,1.6-1.94c.58.1.72,1,1.36,1.16.06,0,.07,0,.08,0a10.56,10.56,0,0,0,0-2.75c0-.07,0-.09,0-.12-2.9-2.61-1.77-4.39-1.48-4.69.84-.86,2.48.23,3.71,1.39A25.6,25.6,0,0,1,65.47,31c3.59,4.84,6.16,5.94,7.38,7.54a18.54,18.54,0,0,1,2,3.94c-.48-2.55-.93-5.24-2.59-6.94-3.56-3.63-6.48-4.79-9-10.26-2.4-5.17-2.71-10.76-.52-12.14s3.67,1.41,4.21,2.83c.15.4.22,1,.61,1.19.09.05.1,0,.1-.08a5,5,0,0,0-.78-2.34c-.64-1.16-1.84-3.46-4.33-3.31s-3.37,2.08-3.17,4.78a25.79,25.79,0,0,0,3.06,9,1.38,1.38,0,0,1,.21.54c-1-1.09-3.63-3-5.13-1.7-.73.63-1.34,2.93.35,6.47a2.27,2.27,0,0,0-2.12,2.08c-.18,2.63,1.49,5.25,2.79,6.76a2.31,2.31,0,0,0-1.42,2.36" transform="translate(0 -3.16)"/><path class="cls-2" d="M53.89,41.17c.6,8.65,6.6,14.95,8.35,15.67a1.37,1.37,0,0,0,.54.11c.07,0,.1,0,.09-.13,0-.89-.38-1.8-.47-2.76,0-.05,0,0,0-.07-3.54-2.43-7.41-8.83-8-14.62-.15-1.56-.1-3.9-.58-4.64-.15-.23-.36-.29-.37.13a3.43,3.43,0,0,0,.14.92,35.6,35.6,0,0,1,.34,5.39" transform="translate(0 -3.16)"/><path class="cls-2" d="M113.62,51.37c-.85.25-.36,1.33.24,1.32.83,0,.94-1.68-.24-1.32" transform="translate(0 -3.16)"/><path class="cls-2" d="M119,82.09c1.38-1.16,2.28-2.72,3.73-3.83.91,1,2.39,2.8,4.3,2.69,2.68-.16,2.31-5.7.33-6-1.3-.23-2.13.66-3,1-.73-.5-1.09.31-1.61.8l-1,1c-5,5-9.09,4.8-14.5,5.57-2.11.3-6.1.69-7,1,4.38.59,9.46,1.28,13.61.19A13,13,0,0,0,119,82.09m7.6-3.46a3.24,3.24,0,0,1-2-1.79c1.14-.68,2.08.52,2,1.79" transform="translate(0 -3.16)"/><path class="cls-2" d="M63,61.1a.23.23,0,0,0,0-.11.23.23,0,0,0-.07-.07.2.2,0,0,0-.11,0h-.37v.49h.2a.47.47,0,0,0,.17,0,.17.17,0,0,0,.12-.05.27.27,0,0,0,.07-.08.43.43,0,0,0,0-.12m.56,1h-.36l-.53-.57h-.25v.57H62.1V60.68h.75a.7.7,0,0,1,.19.06.41.41,0,0,1,.15.14.36.36,0,0,1,0,.19.39.39,0,0,1-.08.25.62.62,0,0,1-.25.17Zm.3-.71a1.19,1.19,0,0,0-2.38,0,1.17,1.17,0,0,0,.35.86,1.18,1.18,0,0,0,1.68,0,1.17,1.17,0,0,0,.35-.86m.19,0a1.32,1.32,0,0,1-.4,1,1.38,1.38,0,0,1-2,0,1.39,1.39,0,0,1,0-1.95,1.38,1.38,0,0,1,2.36,1" transform="translate(0 -3.16)"/><path class="cls-4" d="M96.14,92.25a64.44,64.44,0,1,0,64.44,64.44A64.51,64.51,0,0,0,96.14,92.25Zm0,127.32A62.88,62.88,0,1,1,159,156.69,62.95,62.95,0,0,1,96.14,219.57Z" transform="translate(0 -3.16)"/><path class="cls-3" d="M13.35,175.32l-.32-2.8L23.58,170l-11-1.72-.19-1.67,10.37-4.18-10.86-.11-.32-2.81,14.82.34.4,3.48-8.57,3.45,9.15,1.62.37,3.29Zm3.87,11.12-2.52-6.91,13.79-5L31,181.41l-2.38.87-1.52-4.18-3.22,1.18,1.52,4.17-2.37.87-1.53-4.17-3.44,1.25,1.53,4.17Zm7.34,16-1.23-2.52,5.91-10.49-8.9,4.35-1.23-2.52,13.2-6.44,1.23,2.52-5.88,10.47,8.87-4.32L37.76,196Zm11.94,8.34a4.15,4.15,0,0,1-3.3,1,5.11,5.11,0,0,1-3.09-2.09,6.23,6.23,0,0,1-1.27-2.55,3.71,3.71,0,0,1,.22-2.37l2.71.17a2.49,2.49,0,0,0-.32,1.59,3,3,0,0,0,.65,1.59,2,2,0,0,0,1.18.82,1.54,1.54,0,0,0,1.24-.4,1.71,1.71,0,0,0,.62-1.27,12.83,12.83,0,0,0-.23-2.62,7.36,7.36,0,0,1,0-3.13,4.25,4.25,0,0,1,4.52-2.9,4.81,4.81,0,0,1,3,1.94,5,5,0,0,1,1,2.07,4.34,4.34,0,0,1-.11,2.17l-2.6-.19a2.43,2.43,0,0,0,.18-1.28,2.56,2.56,0,0,0-.51-1.23,1.74,1.74,0,0,0-1.06-.7,1.24,1.24,0,0,0-1,.25c-.61.48-.78,1.5-.51,3l.12.66a8.41,8.41,0,0,1,0,3.29,3.84,3.84,0,0,1-1.42,2.1m9,6.3,2.71-5.93-5.5,3.5Zm0,7.39L43,222.37l1.41-3.08L40.64,216l-2.87,1.81-2.41-2.1,13.4-7.79,2.57,2.23Zm10.48,1.25a6.86,6.86,0,0,1-2.77,2.83,3.24,3.24,0,0,1-2.88-.64,3,3,0,0,1-1.41-1.86,3.46,3.46,0,0,1,.53-2.4l2.53.61a2.73,2.73,0,0,0-.44.94.51.51,0,0,0,.25.51.52.52,0,0,0,.71-.12,8.44,8.44,0,0,0,1.07-1.41L59,215.73l2.39,1.56Zm8.84,9.36-6.73-3L64,218.67l6.73,3-1,2.32-4.06-1.8-1.39,3.13,4.06,1.8-1,2.32-4.06-1.8L61.72,231l4,1.8ZM78,228.47a1.81,1.81,0,0,0-.22-1.63A3,3,0,0,0,76,225.9l-.62-.16-1,3.85.62.16a3.08,3.08,0,0,0,2,0,1.75,1.75,0,0,0,1-1.28m1,10.94-3.32-.85L74,231.21l-1.66,6.49L69.56,237l3.63-14.23,3.84,1a5.92,5.92,0,0,1,3.39,1.95,3.66,3.66,0,0,1,.49,3.27,4,4,0,0,1-1.5,2.42A3.18,3.18,0,0,1,77,232Zm15.13-5.63a5.08,5.08,0,0,0-.91-3.56,4.2,4.2,0,0,0-6.15-.47,5.13,5.13,0,0,0-1.44,3.38,5.08,5.08,0,0,0,.92,3.56,4.19,4.19,0,0,0,6.14.47,5.09,5.09,0,0,0,1.44-3.38m3,.23a7.56,7.56,0,0,1-2.48,5.28,7.15,7.15,0,0,1-10.26-.78,8.22,8.22,0,0,1,.83-10.9,7.14,7.14,0,0,1,10.26.79A7.6,7.6,0,0,1,97.09,234m11.84,2.07a4.16,4.16,0,0,1-.86,3.35,5.07,5.07,0,0,1-3.4,1.53,6.41,6.41,0,0,1-2.85-.26,3.65,3.65,0,0,1-1.89-1.44l1.56-2.21a2.57,2.57,0,0,0,1.19,1.11,3,3,0,0,0,1.7.28,1.93,1.93,0,0,0,1.31-.57,1.53,1.53,0,0,0,.32-1.26,1.7,1.7,0,0,0-.76-1.2,12.4,12.4,0,0,0-2.35-1.18,7.37,7.37,0,0,1-2.65-1.66,4.26,4.26,0,0,1-.09-5.37,4.82,4.82,0,0,1,3.21-1.5,5.22,5.22,0,0,1,2.3.22,4.36,4.36,0,0,1,1.79,1.24l-1.53,2.11a2.4,2.4,0,0,0-1-.83,2.56,2.56,0,0,0-1.32-.22,1.72,1.72,0,0,0-1.15.54,1.23,1.23,0,0,0-.34,1c.09.77.87,1.46,2.33,2l.62.25a8.29,8.29,0,0,1,2.81,1.71,3.86,3.86,0,0,1,1,2.31m15.48-7.74a5,5,0,0,0-2.32-2.92,4.31,4.31,0,0,0-3.53-.06l-.66.24,3.3,9,.66-.24a4.35,4.35,0,0,0,2.66-2.32,5,5,0,0,0-.11-3.74m2.81-1a7,7,0,0,1-.09,5.78,8.2,8.2,0,0,1-4.79,3.79l-3,1.09-5-13.79,2.75-1a8.66,8.66,0,0,1,6.29-.28,7,7,0,0,1,3.84,4.42m13.25,1.22-6.34,3.74-7.47-12.65,6.34-3.74,1.29,2.18-3.82,2.26,1.74,3L136,221l1.29,2.18-3.82,2.26,1.86,3.15,3.82-2.25Zm13.71-10.45-4.93,4.19-9.5-11.2,2.18-1.85,7.87,9.27,2.74-2.34ZM158,205.69,152.08,203l3.5,5.5Zm7.39,0-2.1,2.41-3.08-1.41-3.31,3.79,1.81,2.87-2.1,2.41-7.79-13.41,2.24-2.56Zm-1.73-18.1a2.09,2.09,0,0,0-1.7-.18,2.42,2.42,0,0,0-1.26,1.3l-.21.43,3.85,1.92.21-.43a2.55,2.55,0,0,0,.34-1.82,2.17,2.17,0,0,0-1.23-1.22M165,185a4.07,4.07,0,0,1,2.29,2.75,5.83,5.83,0,0,1-.65,4.05l-.18.36,5.11,2.55-1.28,2.56-13.14-6.55,1.46-2.93a6.09,6.09,0,0,1,2.8-3A4.11,4.11,0,0,1,165,185m7.09-7.22-6.52.12,5.54,3.44Zm6.67-3.17-.85,3.08-3.39.06-1.34,4.85,2.88,1.8-.85,3.08-12.83-8.7.9-3.28ZM166,159.1l11.32,8,.73-6.4,2.52.29-1.24,10.83-11.32-8-.67,5.89-2.52-.29Z" transform="translate(0 -3.16)"/></svg>