<svg id="Capa_1" data-name="Capa 1" xmlns="http://www.w3.org/2000/svg" viewBox="0 0 256 256"><defs><style>.cls-1{fill:#0b6822;}.cls-2{fill:#fff;}.cls-3{fill:#ffefaf;}.cls-4{fill:#6f2d82;}.cls-5{fill:#fbb900;}</style></defs><title>deportes-amarillo</title><path class="cls-1" d="M88.25,51.77l-3.46,4.75a7.3,7.3,0,0,1-5.43,11.21,8.44,8.44,0,0,1-5,7.55l4.77,9.49,8.45,9.07c1.53,1.94,5.42-.65,4.34-2.59l-6.07-7.34c-1.08-2.15,1.08-2.37,1.73-1.07L98,93c3,2.81,7.37-.86,4.55-4.31L91.94,77.44c-.87-1.07.22-1.94,1.3-1.07l11.06,11c3.46,3.46,8.87-1.08,5.19-5L98,71.19c-.86-1.3-.21-2.59,1.31-1.3l10.18,8.41c3,2.16,6.3-2.15,4.12-4.1l-9.1-7.76c-1.73-1.51-1.3-3.24.86-3.24,6.08-.21,8-2.59,7.37-7.77Z"/><path class="cls-2" d="M3.07,0A2.87,2.87,0,0,1,5.89,2.81a2.87,2.87,0,0,1-2.82,2.8A2.87,2.87,0,0,1,.25,2.81,2.87,2.87,0,0,1,3.07,0"/><path class="cls-3" d="M127.89,243.26c63.51,0,115.31-51.55,115.31-114.54C243.2,65.52,191.4,14,127.89,14,64.6,14,12.79,65.52,12.79,128.72c0,63,51.81,114.54,115.1,114.54"/><path class="cls-4" d="M122.69,234.85c1.08,0-3.25-6.9-3.91-8-2.17-4.1-4.55-8.2-6.93-12.3-5.42-9.71-12.36-16.18-26.44-16.39-5.64-.21-17.35-5.82-21.9-13.16-2.81-4.53-3-7.77-1.73-8.41,2.6-1.29,3,1.29,5.84,3.23,4.34,3,6.73,4.53,6.73,2.37,0-1.72-4.76-4.74-9.54-9.27-5.85-5.4-5.63-9.7-4.34-10.79.87-.64,2.39.22,5.44,3.46,4.75,5.82,9.73,10.13,9.73,6,.23-1.93-7.14-5.39-10.39-9.7-2.39-3.24-4.55-5.18-6.07-7.34-1.73-2.37-1.08-9.49,1.29-8.62,2.82,1.08,5.86,7.77,11.49,12.08.66.43,4.56,2.8,2.39-.87-1.52-2.59-6.93-6.9-10.84-13.59-5-9.06-3.25-18.55,1.09-17.68,1.52.42,3.69,2.8,5,6.68,2.81,9.71,10.83,14.24,16.69,17,6.06,3,14.51,4.75,20.36,0,2.61-2.16,3.47-6.46,5.21-11,1.94-4.31,3.26-3.88,5.63,0,1.52,2.59,3.26,7.12,5.21,11.65,5.63,14.45-1.52,26.53,10.19,38.4C140,196,144.79,204,151.29,211.12c2.39,2.37,4.56,4.74,6.73,7.12,1.3,1.51,6.93,8,8.44,9.07,8.9,6.46-63.06,5.38-43.77,7.54"/><path class="cls-5" d="M145.66,94.86c-3.25-.66-2.6,1.72-1.73,2.58l24.28,13.38c2.6,1.51.21,7.11-3,5.39l-8.67-4.75a1.39,1.39,0,0,0-1.74,2.16l12.14,8.19c2.61,1.73-.21,5.61-3,4.32L152,118.8c-1.73-1.08-2.38.64-1.3,1.51l9.75,8.19c2.82,2.17-1.3,7.12-4.55,4.75l-9.76-8.2c-1.3-1.07-2.16-.21-1.3,1.3l2.6,3.66c1.74,2.59-3.9,6.69-6.5,3.67L128.1,118.37l-8.23-8.64c-2.39-1.71-2.39.87-2,1.73,3.25,5.18,3.68,9.93-2,13.81-3.47,1.94-4.55,6.25-6.72,10.79l-5.64,11.64c-2.6,4.75-10,2-8.89-3.44l4.12-13.17c.65-5.18-3.68-6-5.63-1.94l-3.68,12.72c-2.4,5.62-7.16,5-5.64-1.93l3.24-14c-.21-3-2.37-3.66-4.33-1.29L80.63,135.4c-1.3,5.4-6.92,3-7.14-1.93l.43-13.59c0-2.16.43-4.1-.87-6.26-4.55-8.63-2.38-16,5-18.76,3-1.09,5,1.07,7.15-4.1,2.6-6.05,1.51-13.59-4.11-14.46l-5-.86c-2.82-.64-3.26-1.94-1.3-4.1l6.29-5.82c2.59-11.87,16-13.16,21.45-4.53a16.74,16.74,0,0,0,8.89,8c11.49-1.3,21,1.51,28.38,10.13,1.53,4.1,6.08,6.27,12.58,7.34,5.64,1.08,3.69,8.42,0,8.63Zm9.11-11.22c5.63,1.07,6.93,6.69,1.73,13.16-2.38,1.72-2.17,3.23.43,4.74l19.29,9.27,13.88.22c4.76.22,5.19-4.1.86-4.53l-10.62-.86c-2.82-.43-2.39-2.59.87-2.59l14.74-.86c5.64-.43,4.77-6.47.22-6.26l-11.49.43c-2,.22-2-1.73,0-2.15L199.2,91.4c6.72-1.72,4.56-7.76-.87-6.69l-13.88,2.81c-3,.22-3.24-2.16-.43-2.58l10.41-1.73c6.51-.86,5.86-7.13,0-7.13l-22.76,1.73c-1.73,0-1.73-2.15.22-2.37L178,75c8.89-.86,10-8.84,6.07-11.86l-8.45,1.72L163.44,66c-5.2.64-10.84,1.73-14.53,4.74L145,74.15c-4.33,3.66-1.07,8.4,5.2,9.49ZM173,113.84l-3.47,4.74a7.31,7.31,0,0,1-5.43,11.22,8.46,8.46,0,0,1-5,7.55l4.77,9.48,8.46,9.07c1.51,1.94,5.4-.65,4.33-2.59L170.59,146c-1.08-2.16,1.08-2.37,1.74-1.08L182.72,155c3,2.81,7.38-.85,4.56-4.31l-10.62-11.21c-.86-1.09.22-1.95,1.29-1.09l11.06,11c3.47,3.46,8.89-1.07,5.2-4.95l-11.49-11.22c-.86-1.3-.21-2.59,1.31-1.3l10.18,8.42c3,2.15,6.29-2.16,4.12-4.1l-9.11-7.76c-1.72-1.52-1.29-3.24.88-3.24,6.07-.22,8-2.59,7.37-7.77ZM66.55,196.67c-.22,3-.43,6-.87,8.84a52.34,52.34,0,0,1-.43,6.05c-.65.64,4.56,5.6,14.3,10.78l1.08-3,5.42-14c2-5.17-6.06-7.76-6.72-3.66a136.64,136.64,0,0,1-2.81,13.81,7,7,0,0,1-.88,3c-1.51,2.59-1.29.21-1.08-.43a12.87,12.87,0,0,1,.66-2.81q1.31-6.15,2.6-12.94c.87-5.39-4.77-6.68-5.2-2.8-.44,4.09-.87,8-1.31,11.86a33.37,33.37,0,0,0-.43,4.32c0,1.29-2.59-1.3-1.74-.87,1.09.43.45-2.16.45-3.23.64-4.32,1.29-8.85,2.16-13.38.43-2.8-4.77-7.12-5.2-1.51"/><path class="cls-5" d="M127.89,26.7c-56.41,0-102.29,45.77-102.29,102s45.88,101.8,102.29,101.8S230.4,184.85,230.4,128.72s-46-102-102.51-102m0,229.3C57.36,256,0,198.9,0,128.72S57.36,1.23,127.89,1.23,256,58.42,256,128.72,198.53,256,127.89,256"/><path class="cls-3" d="M87.79,62.06A2.81,2.81,0,1,1,85,64.87a2.87,2.87,0,0,1,2.82-2.81"/></svg>