<svg id="Capa_1" data-name="Capa 1" xmlns="http://www.w3.org/2000/svg" viewBox="0 0 256 256"><defs><style>.cls-1{fill:#f4bb61;}.cls-2{fill:#c61927;}.cls-3{fill:#6f2d82;}</style></defs><title>ecologia-rojo</title><path class="cls-1" d="M127.89,243.2c63.51,0,115.31-51.8,115.31-115.1,0-63.5-51.8-115.3-115.31-115.3C64.6,12.8,12.8,64.6,12.8,128.1c0,63.3,51.8,115.1,115.09,115.1"/><path class="cls-2" d="M50.08,204.4H55.5c6.5,0,12.14-3,18-8.66,11.7-11.93,23.18-12.8,34.24-3,8.67,7.59,17.56,9.75,26.66.22C147,180.35,158,181.65,171,195.08c5.84,6.28,13.21,8.68,21,8.46a29.52,29.52,0,0,0,6.08-.87,58.43,58.43,0,0,0,8-2.6v4.55c-8.89,7.58-21.68,7.37-39.23-5-10-6.94-18-6.72-26.23-.65-12.57,9.1-24.93,7.8-36,.65-8.88-5.86-17.77-6.51-24.93.43-5.42,5.19-12.13,9.53-22.32,9.32l-4.12-.22Zm26,17.78c-.87,0,1.29-1.09,2.17-1.74,7.8-6.93,16-5.63,24.92-.44,12.14,7.16,25.36,6.3,37.72-2.16,11.7-7.8,18.85-1.52,29,5,.87.43,2.82.86,2.17,1.29-1.73.88,13.87-2.81,7.36-4.33a13.57,13.57,0,0,1-2.59-1.08,25.88,25.88,0,0,1-8.9-6.29c-10.18-9.75-19.28-12.78-28.82-3.47-10,10-22.32,12.8-35.55,3.47-8.66-6.28-16.9-9.75-25.14-3a3,3,0,0,0-.65.87c-2.16,1.73-4.12,3.46-6.06,5.2-.66.64-2.18.64-2,1.51,2.39,9.76,9.54,5.43,6.29,5.21"/><path class="cls-2" d="M155.42,37.5c5.41,0,9.75,5.86,9.75,13a12.2,12.2,0,0,1-.22,2.82h.44c5.42,0,9.75,5.85,9.75,13a14.56,14.56,0,0,1-3,9.32c4.55,1.09,7.8,6.29,7.8,12.58,0,5.63-2.6,10.4-6.5,12.14h.22c5.41,0,10,6.06,10,13.65s-4.55,13.66-10,13.66a7.7,7.7,0,0,1-3-.65c0,.43.22,1.08.22,1.72,0,6.94-3.9,12.8-8.67,12.8a7.41,7.41,0,0,1-4.77-2.17v5.85l6.5,8.46-22.54-.22,6.72-7.81v-6.5a7.21,7.21,0,0,1-5,2.39c-4.77,0-8.67-5.86-8.67-12.8a11.29,11.29,0,0,1,.22-2.81,6.52,6.52,0,0,1-1.94.43c-5.43,0-10-5.85-10-13,0-6.28,3.69-11.7,8.24-12.56a16,16,0,0,1-3-9.32c0-7.16,4.56-13,10-13,.22,0,.22,0,.43.21a14.63,14.63,0,0,1-3.9-10.41c0-6.93,4.55-12.78,10-12.78a6,6,0,0,1,1.95.22,19.93,19.93,0,0,1-.88-5.21c0-7.15,4.34-13,10-13"/><path class="cls-2" d="M50.08,80.64c-3-.43-3,2-.22,3.69,3.9,1.72,8.67,2.16,14.3,1.07,7.38-3,14.53-1.73,21.46,3,.87-8.89,3.25-16,9.76-19.3,7.15-6.07,9.53-11.05,9.75-15.82.65-1.52-2.16-2.39-2.82-.87C100.57,57.23,98,61.79,93,64.17c-5.63,2.38-10.4,5.42-11.7,13.43L80,78c-4.77-2.17-10.4-1.3-18.85,2.6-3,1.51-6.94,1.08-11.06,0"/><path class="cls-3" d="M127.89,119.44c13.87-5,17.12,6.07,9.54,10.18-3.69,1.3-33.82,16.47-13.44,19.3l11.92,1.51A189,189,0,0,0,171,147c10-1.29,12.34,6.94,3.25,9.32l-62.43,16.05c-9.1,1.51-21,5.84-28.61,15.59-6.5,6.3-11.7,11.49-16.26,16.26-1.73,1.74-2.82,5.65-5,4.78-16-5.64-18.86-18.21-26.66-23.63L34,174.92c11.05-5.2,34-15.6,44.43-21.67,3.69-3.25,6.93-9.1,10.62-13.22,3.9-4.34,5.21-5.42,11.27-8.46Z"/><path class="cls-2" d="M127.89,25.6c-56.4,0-102.3,46-102.3,102.51A102.42,102.42,0,0,0,127.89,230.4c56.53,0,102.51-45.89,102.51-102.29A102.62,102.62,0,0,0,127.89,25.6m0,230.4A128,128,0,0,1,0,128.11C0,57.46,57.37,0,127.89,0A128.24,128.24,0,0,1,256,128.11C256,198.63,198.54,256,127.89,256"/></svg>