<svg id="Capa_1" data-name="Capa 1" xmlns="http://www.w3.org/2000/svg" viewBox="0 0 256 256"><defs><style>.cls-1{fill:#ffefae;}.cls-2{fill:#6f2d82;}.cls-3{fill:#fab900;}</style></defs><title>expresion-y-comunicacion-amarillo</title><circle class="cls-1" cx="128" cy="128" r="115"/><path class="cls-2" d="M229.11,134.18c-24.71-2.82-45.73,10.62-56.57,28.17-11.27,18-16.48,36.41-33.81,38.59-10.19,1.07-19.29-5.43-23.19-10.62-5-6.73,1.73-9.11,5.85-5,12.57,14.09,31.42,2.38,34-14.74.43-18.64-6.5-37.49-31.86-36.84-21.25,1.73-32.08,12.56-36.85,33.37-5.42,30.35,4.34,49.42,26.66,64.81,21.89,14.95,50.94,5.2,65.46-21.46,7.58-12.36,14.3-31.64,25.35-45.73,6.07-8.23,15.83-16.47,31.42-22.76,7.81-2.39,6.51-5-6.49-7.8"/><path class="cls-3" d="M154.76,59.4c-15.16-4.12-28.39,2-36.84,11.71C109.26,81.51,105.35,95,94.29,94.73c-6.49-.21-11.05-3.46-12.79-6.93-2.59-4.77.88-7.16,3-4.34,6.73,10.19,17.56,4.77,20.59-5.64,2-11.7-1.52-24.7-16-26.22-13.43-.87-20.8,4.33-25.58,16.91-6.06,18.64-1.29,32.29,11.49,44,12.36,11.26,32.3,8.88,43.79-6.51,4.77-7.15,11.27-20.81,19.51-29.69,4.33-4.55,10.39-8.89,20.8-11.49,5-.65,3.68-2.61-4.34-5.42"/><path class="cls-3" d="M127.89,25.6c-56.41,0-102.29,46-102.29,102.51A102.4,102.4,0,0,0,127.89,230.4c56.53,0,102.51-45.89,102.51-102.29A102.63,102.63,0,0,0,127.89,25.6m0,230.4A128,128,0,0,1,0,128.11C0,57.47,57.38,0,127.89,0A128.26,128.26,0,0,1,256,128.11C256,198.63,198.52,256,127.89,256"/></svg>