<svg id="Capa_1" data-name="Capa 1" xmlns="http://www.w3.org/2000/svg" viewBox="0 0 256 256"><defs><style>.cls-1{fill:#e4ecbc;}.cls-2{fill:#6f2d82;}.cls-3{fill:#146822;}</style></defs><title>humanidades-verde</title><path class="cls-1" d="M127.89,243.2c63.51,0,115.31-51.8,115.31-115.3,0-63.29-51.8-115.09-115.31-115.09C64.6,12.81,12.8,64.61,12.8,127.9c0,63.5,51.8,115.3,115.09,115.3"/><path class="cls-2" d="M92.12,121.83a2.69,2.69,0,0,1,2.61,2.81,2.84,2.84,0,0,1-2.61,2.82H47.26A111.42,111.42,0,0,0,57,171H82.38A2.68,2.68,0,0,1,85,173.85a2.82,2.82,0,0,1-2.59,2.81H59.62a83.36,83.36,0,0,0,16.26,21.67l-2.61,5.86c-18.86-17.34-31.21-47.25-31.21-81.28,0-21.68,5-41.4,13.44-57.66,1.52,3,1.52,3,3,6.29A112.42,112.42,0,0,0,47,121.83Zm-5,15.82c-3.46,0-6.5,1.3-6.5,3.25,0,1.73,3.26,3.25,6.72,3H204.19c-1.52,18-10.63,34.9-25.36,49.2H112.72c-3.69,0-6.5,1.52-6.5,3.25s3,3.25,6.71,3.25h58.74c-11.48,9.55-25.8,17.78-42,24.5l6.5,6.5c49.2-19.51,81.49-53.32,81.49-91.9,0-24.27-13-46.82-34.9-65a61.6,61.6,0,0,0-7.79,6.93c18.42,16.48,29.46,35.34,29.46,57ZM149.78,39a48.77,48.77,0,0,0-21.46-5,50.07,50.07,0,0,0-19.5,4.11l2,4.56a47.85,47.85,0,0,1,15.38-3.47V67.42a2.39,2.39,0,0,0,2.17,2.39,2.16,2.16,0,0,0,2.16-2.17V39.25a45,45,0,0,1,16.91,4.12Z"/><path class="cls-3" d="M104.7,56.8c5.2,0,9.53,7.15,9.53,16.26,0,6.06-2,11.49-5,14.08.21,2.18.21,3.91,1.07,5,2,3,6.73,1.09,12.35-4.33a210,210,0,0,0,24.5-26.23,68.52,68.52,0,0,0,7.37-8c2.82-3.68,3.69-8.88,7.8-5.41,4.56,3.47.43,7.15-3,11-1.72,2.16-3.68,4.12-5.63,6.93-1.74,2.6-3.68,6.07-5.42,8.67-2.38,3-4.77,4.77-6.93,7.59-1.73,2.17-5,7.37-8.89,11.48-4.33,5.21-9.54,9.54-10.63,12.14-6.27,8.46-8.44,17.13-2.37,32.3,2.16,5.2,4.55,9.1,6.71,14.09,4.78,10.84,9.32,22.75,13.45,33.81.64,1.73,3.89,9.75,6.93,16.25,1.73,3.68,5.63,6.73,6.72,9.11,1.95,3.9-1.95,4.77-5.42,3.47-2.6-.66-4.76-2.82-5.64-3.69-.64-.87-.86-4.55-1.52-6.28-1.07-3.68-9.31-13.66-11.48-18.64-.86-2.39-4.12-8.24-7.38-14.1-1.94-3.25-4.54-6.06-6.5-9.31-4.54-8-8.88-14.74-10.18-14.52-.86,0-3,5.2-6.5,11.27-4.55,8.23-11,18.42-13.22,20.8-.65,1.08-1.09,4.12-2.61,7.37-2.59,5-6.92,11.27-9.53,17.13-1.74,3.9-1.08,6.28-3,9.1a9.57,9.57,0,0,1-5.62,3c-2,.22-4.56.87-5.86,0-2.16-1.51-1.73-5.42,2.17-6.5,2.81-.87,3.25-2.6,4.12-3.69,4.11-5.2,7.37-19.94,7.8-22.1,1.08-5,4.33-9.53,6.94-16.05,2.82-6.49,5-14.95,7.8-21.45,5.63-13,10-24.06,5.63-34.68-2.16-5.41-6.72-9.53-10.83-13C77,95,74.35,90.83,69.8,84.55c-2.17-3-4.55-4.56-7.16-7.81-2.37-3.25-5.19-8.24-7.36-11.49S48.13,59,46.83,56.37A6.07,6.07,0,0,1,47,49.43c.43-.43,2.18-3.25,4.56-1.08,1.95,1.52,2.6,4.77,5.2,8.45,3.25,4.12,8.67,8.89,12.35,12.58,4.12,4.11,5.2,6.93,8.67,10.39A116.1,116.1,0,0,0,88,88c2.81,2.6,5.2,5.21,8,6.29,2.61,1.3,5.65,0,4.34-6.94-3-2.6-5-8-5-14.3,0-9.11,4.11-16.26,9.32-16.26"/><path class="cls-3" d="M127.89,25.61A102.4,102.4,0,0,0,25.6,127.89c0,56.53,45.89,102.51,102.29,102.51A102.63,102.63,0,0,0,230.4,127.89c0-56.4-46-102.28-102.51-102.28m0,230.39C57.37,256,0,198.53,0,127.89A128,128,0,0,1,127.89,0C198.53,0,256,57.38,256,127.89A128.26,128.26,0,0,1,127.89,256"/></svg>