<svg id="Capa_1" data-name="Capa 1" xmlns="http://www.w3.org/2000/svg" viewBox="0 0 256 192"><defs><style>.cls-1{fill:#f4bb61;}.cls-2{fill:#94b422;}.cls-3{fill:#c61927;}</style></defs><title>ival</title><path class="cls-1" d="M128,0c65.16,0,118,43,118,96s-52.83,96-118,96S10,149,10,96,62.84,0,128,0"/><path class="cls-2" d="M201.27,101.36C193.57,88.3,202.13,74,181,64.49c12.12-17.43,28.08,16.42,48.85,41.12ZM191.66,100c-25.38-35-49.15-68.49-57.93-50.51,21.1,12.66,23.45,30.7,31.16,48.11Zm-47.35,26.05h7c-1.89-11.17-10-17.34-16.8-17.49,5.56,4.71,10.35,9.8,9.77,17.49m-14-30C104.89,76.16,79.88,61.23,71.1,70.58c21.1,7.32,25.57,14.67,33.28,24.75Z"/><path class="cls-3" d="M85.46,46.54a12.42,12.42,0,1,1,24.82,0,12.42,12.42,0,1,1-24.82,0Zm80.78,79.67L163.42,129c-20.28-2.13-37.35.35-57.62-1.68l-1-.11h0l-.45-.38-.46-.37h0c1.36-.15,2.85-.22,4.35-.27,1,0,2-.08,3-.12-1-8.87,10.4-24.26,23.21-23.13s21.72,10.2,22.12,22.83C159.58,125.83,162.74,126,166.24,126.21Zm-30.36-.32c-.39-6.34-3.18-11.07-6.71-11.07s-6.28,4.86-6.63,11.27C127.49,126.11,131.77,126,135.88,125.89Zm16.52-.24c-1.17-10.68-9.64-19-19.94-19-10.49,0-19,8.36-19.88,19.32,1.06,0,2.14,0,3.29,0,2.08.05,4,.08,5.9.09-.31-4.42,3.53-13.14,7.51-13.14s9.16,5.36,9.37,12.88C143.07,125.7,147.44,125.59,152.4,125.65ZM80.51,137.77l1.86,2.09A48.3,48.3,0,0,0,92.83,136l-.52-.65A94.8,94.8,0,0,1,80.51,137.77Zm25.09,0a94.22,94.22,0,0,1-11.79-2.44l-.53.67a48.29,48.29,0,0,0,10.46,3.86Zm-9.88,3.5,2.9-.66a35.85,35.85,0,0,1-5.12-4.21l-1,.1C93.5,138.21,93.91,139.65,95.72,141.24Zm-4.44-12.49c2,2.37,3.87,4,3.27,5.51,1.78-1.83,1.4-4.18-1.15-6.53s-3-4-2.26-5.43C89.29,123.6,88.51,125.56,91.28,128.75Zm2.8-1.46c1.54,1.8,2.78,3.3,2.77,4.53l.34,0c1.07-1.56.8-3.59-1.18-5.44-2.14-2-2.69-3.57-2.06-4.84C92.33,122.72,91.66,124.46,94.08,127.29ZM89,125.47c-1.52,1.23-2,3,.63,5.71,1.69,1.72,3.06,3.15,3.16,4.39h.34c.93-1.61.49-3.62-1.66-5.37C89.18,128.33,88.48,126.77,89,125.47Zm8.65,27.31a6.87,6.87,0,0,0-3-4.36L69.58,138.14l9.74-2.07q3-1.83-.61-3.67L58,120.88c2-.26,17.66-2.76,14.32-4.89L71,115.42l-7.57-2.62-7.11-2.69,32.71-4.37-39.6,1.92c-2.26.35-4.13.92-3.43,1.64l1,.68,6.38,3.11,4.95,2.07-14,2.73c-3.39.7-4.36,1.93,0,4.28L59,132.66l-9.4,1.27c-2.59.38-2.55,1.08-.28,2.71l26.6,14.12c2.14,1,2.45,2.28,2.31,3.84a5.22,5.22,0,0,0,3.24,5.56L120,179.23l39.77-4.57L100.54,157.6C97,157,98,154.27,97.66,152.78Zm88.13-93,.09,7.13a17,17,0,0,1,1.84-.45,10.82,10.82,0,0,1,7.12.84,12.06,12.06,0,0,1,2.64,2.29l-5,2.07A6.5,6.5,0,0,0,190,69.09a6.21,6.21,0,0,0-4-.21l-.07,0,.07,6a22.59,22.59,0,0,1,2.43-.58c4.44-.79,8-.14,10.45,1.22a18.52,18.52,0,0,1,3.88,3.36l-7.31,3c-1-1.43-1.75-2.83-3.74-3.78a8.93,8.93,0,0,0-5.68-.34l.1,8.07a32.63,32.63,0,0,1,5.09-1.34c5.86-1,10.51-.18,13.78,1.62,2.19,1.2,3.52,2.89,5.12,4.42l-9.64,4c-1.35-1.89-2.31-3.75-4.93-5a12,12,0,0,0-7.69-.41c-.57.14-1.13.3-1.68.47l.09,7.22c.94-.26,1.89-.48,2.85-.65,5.86-1,10.51-.18,13.78,1.62a18.54,18.54,0,0,1,4.42,3.74l2.29.34,19.14,3.46-.42.14c-7.1-.93-14.2-1.92-21.32-2.84l-8.63,3.6c-1.36-1.89-2.32-3.74-4.93-5-.25-.11-.52-.22-.81-.32l-4.35-.48a16,16,0,0,0-2,.28l.09,7.09c.9-.25,1.8-.45,2.72-.61,5.86-1,10.51-.18,13.78,1.61,2.19,1.21,3.52,2.9,5.12,4.43l-9.64,4c-1.36-1.89-2.32-3.74-4.93-5a11.66,11.66,0,0,0-7-.55l.08,6.74c.85-.23,1.72-.42,2.59-.57,5.86-1,10.51-.18,13.78,1.62,2.19,1.2,3.52,2.89,5.12,4.42l-9.64,4c-1.36-1.89-2.32-3.74-4.93-5a11.61,11.61,0,0,0-6.87-.58l.09,7.34c.67-.17,1.35-.32,2-.44,5.86-1,10.51-.18,13.78,1.62,2.19,1.2,3.52,2.89,5.12,4.42l-9.64,4c-1.36-1.89-2.31-3.74-4.93-5a11.35,11.35,0,0,0-6.33-.67l.45,36.6-6.36,4,.94-39.26c-6.43,2.32-11.84,6.2-17.06,9.57l-.56-.06c1.84-2.24,3.42-4.5,6.14-6.57a51,51,0,0,1,11.58-6.68l.18-7.59c-6.38,2.33-11.75,6.17-16.93,9.52l-.56-.07c1.84-2.22,3.42-4.49,6.14-6.56A51.44,51.44,0,0,1,182.09,120l.17-7c-6.5,2.32-11.94,6.22-17.19,9.62l-.56-.07c1.84-2.23,3.42-4.49,6.14-6.56a51.26,51.26,0,0,1,11.7-6.74l.18-7.36c-6.62,2.3-12.14,6.27-17.46,9.71l-.56-.07c1.84-2.23,3.42-4.49,6.14-6.56a53,53,0,0,1,8.49-5.3q-5.17-.47-10.3-.85c-.56.36-1.11.73-1.67,1.08l-.56-.06c.31-.37.61-.75.91-1.12-13.73-1-27.18-1.7-39.79-2l-17.8-.1-15.45.51-9,.82,4.69,2,5.89,2.92.87.6c.63.63-1.18,1-3.35,1.07l-71.28,1.81.06-2.88,34.35,0L88,102.21l-6.6-2.64-7-2.61-1.17-.54c-3-1.92,9.87-2.21,11.79-2.28,23.45-.85,51.75.06,81.39,2.72l2.49.23a23.58,23.58,0,0,1,3.9-3.81,51.85,51.85,0,0,1,10.13-6.07l.21-8.47c-4.87,1.77-9,4.68-12.9,7.23l-.42,0a26.78,26.78,0,0,1,4.65-5,38.65,38.65,0,0,1,8.73-5l.15-6.14a49.85,49.85,0,0,0-8,4.62l-.29,0A18.77,18.77,0,0,1,178.19,71a27,27,0,0,1,5.16-3.09l.17-7.34a26.79,26.79,0,0,0-3.32,1.61c-1.51,1.09-3.08,2.35-4.67,3.72l1.66,1.86-2.5,5.14c-1-1.07-2-2.26-3.07-3.51l-1.47-1.77c-9-11-19.78-26.12-28.81-25.64-8,.42-27.33,18.91-38.37,27.87,8.63,6.49,17.56,14.61,26.19,21.18l.08,1c-8.93-5.21-19.29-13.75-29-20h0c-6.39-4.12-12.5-7.24-17.73-7.76C66.43,62.61,37.78,85.3,22.08,94.77l-.46-8.31L47.15,73.3c11.22-6.52,21-17.63,35.58-14.39,6.1,1.36,12.67,5.3,19.42,10.3C113.55,58,133,38.78,142,36.66c3.49-2.3,14.52,9.4,22.33,16.61l9.42,10.6a62.49,62.49,0,0,1,9.9-8.45l0-2.11a36.93,36.93,0,0,0-4.61,2.75l-.19,0A11.86,11.86,0,0,1,181,53.82a17,17,0,0,1,2.75-1.73l.13-5.25a33.56,33.56,0,0,0-3.43,2.08l-.15,0A10.06,10.06,0,0,1,182,47.1a14.61,14.61,0,0,1,1.91-1.23l.1-4.22c-.5.29-1,.61-1.44.91h-.09a6.33,6.33,0,0,1,1.07-1.15l.47-.33.36-14.71,1,.12.17,13.76a5.45,5.45,0,0,1,1.19-.36,3.56,3.56,0,0,1,2.41.28,4.29,4.29,0,0,1,.9.77l-1.69.71a2.19,2.19,0,0,0-.86-.88,2.12,2.12,0,0,0-1.35-.07,5.1,5.1,0,0,0-.59.2l.05,4.19a8.61,8.61,0,0,1,1.41-.37,5.74,5.74,0,0,1,3.79.45,6.42,6.42,0,0,1,1.41,1.21l-2.65,1.1a3.5,3.5,0,0,0-1.36-1.37,3.23,3.23,0,0,0-2.11-.11l-.48.14.06,5.14a10.32,10.32,0,0,1,1.52-.4,7,7,0,0,1,4.66.55,7.8,7.8,0,0,1,1.69,1.46c7.14,1.51,12,10.66,17.82,16.68l4.41,5,1.87,2.11,12.16,15.24.2,9.67c-2.84-3.07-14.22-17-17.45-21.44l-1.4-1.91c-4.9-6.68-10.06-13.49-15-17.17l-3.62,1.5A6.5,6.5,0,0,0,190,59.94a6.21,6.21,0,0,0-4-.21Zm-3,31.1a68.61,68.61,0,0,0-11.64,6.41q5.4.51,10.82,1.09l.65-.26Zm2.94-36.67A15,15,0,0,1,189.05,53l.16,0a2.67,2.67,0,0,0-.53-.33,4,4,0,0,0-2.6-.14l-.37.11Z"/><path class="cls-3" d="M128,0h0V0c32.21,0,61.46,10.52,82.72,27.51C232.5,45,246,69.15,246,96h0c0,26.85-13.47,51.05-35.24,68.46C189.47,181.45,160.22,192,128,192v0h0v0c-32.21,0-61.46-10.52-82.72-27.51C23.51,147.05,10,122.85,10,96h0c0-26.85,13.48-51,35.24-68.46C66.53,10.55,95.78,0,128,0V0Zm0,16.44v0h0v0c-28.39,0-54,9.14-72.47,23.91-18,14.35-29.06,34-29.07,55.65h0c0,21.6,11.11,41.29,29.06,55.64C74,166.42,99.6,175.56,128,175.56v0h0v0c28.39,0,54-9.14,72.48-23.91,17.95-14.35,29.06-34,29.06-55.65h0c0-21.6-11.11-41.28-29.06-55.64C182,25.58,156.4,16.44,128,16.44"/></svg>