<svg id="Capa_1" data-name="Capa 1" xmlns="http://www.w3.org/2000/svg" viewBox="0 0 256 256"><defs><style>.cls-1{fill:#e4ecbc;}.cls-2{fill:#146822;}.cls-3{fill:#6f2d82;}</style></defs><title>seguridad-y-rescate-verde</title><path class="cls-1" d="M127.89,243.2c63.5,0,115.31-51.8,115.31-115.31,0-63.28-51.81-115.09-115.31-115.09C64.6,12.8,12.8,64.61,12.8,127.89c0,63.51,51.8,115.31,115.09,115.31"/><path class="cls-2" d="M161.48,176.88c.22-1.08,2.83,8.23,3.47,12.78,2,11.49-2.81,16.48-4.76,11.49-.87-1.73-.44-12.14-.87-15.61,0-1.72,1.3-2.37,2.16-8.66m-9.1,9.1c-.43,2.16-.22,5.63,1.09,7.58,1.08,1.52,3.25,2.38,4.11.22,1.09-2.38,1.52-8.45.22-9.75-.65-.43-4.12,2.39-5.42,1.95M117.49,109.9A128.76,128.76,0,0,1,121,137.21c0,11.7,7.59,14.08,13.87,21,3.25,3.47,7.8,14.95,10.61,19.93,4.12,7.16,15.61,7.81,12.36-6.06-3-11.92-11.92-14.52-11.92-35.11,7.37,17.34,11.27,24.49,17.12,36.41,6.72,13.22,1.52,35.11,8.24,37.92,6.93,2.61,4.11-24.48,4.55-28.6.43-6.07,1.52-11.49-2.16-20.81-4.12-10.4-21.9-36-26.23-43.35-8-14.08-22.33-15.61-29.91-8.67M29.93,166.69c9.1-6.71,30.77-23,39.44-29.91,3.25-2.6,6.28-4.34,8-3.25,2.81,1.95,2.38,8,1.94,15.82-.44,12.57-2.38,28.61-3,30.55-3.69,9.33-9.75,17.57-16,25.37-.86,1.3-1.52,4.33-2.61,3.47-15.38-13.44-25.57-44.43-27.73-42.05"/><path class="cls-3" d="M125.72,23.42l-16.46,29,34.46,31.43,39.66-45.51h8.67l-54,61.55L125.72,89.31c-4.33,5.2-10.19,10.19-10.84,16.69-.64,6.94,1.31,13.66,2.18,20.38a108.34,108.34,0,0,1,.65,22.11c0,1.72-.22,13.21-3.9,13.43-2.18.22-1.74-5-1.74-6.28-.22-11.27-.65-15.83-2.81-15-2.39.87,1.73,6.93.21,18-1.3,10-.21,15.82-5.42,14.74-3-.43-.86-4.56-.43-13.22.21-6.72.43-10.84-1.52-10.41-.87.22-.22,4.55-1.52,12.36a83.82,83.82,0,0,1-3.25,13.65c-1.94,5.21-2.16,8.24-4.77,7.37-2.82-1.08-1.73-6.72.65-20.59,1.74-8.89,1.52-12.14.43-12.57-1.29-.43-1.94,4.77-3,12.36-.87,7.15-5.2,31-11.26,24.06-2.82-3.26,1.51-5.42,2.16-13.88.65-8.66,1.08-17.12,1.3-22.33,1.09-34.45-10.84-23.18-15-16-3.25,6.06-18.65,8.45-15.83-2.39,1.3-4.55,3.9-6.07,6.29-10.84,3.9-7.15,7.8-17.11,11.49-20.8,4.76-5,12.57-7.58,18.86-12.79,6.06-5,7.15-12.78,15.16-19.07l-6.5-6.72L111,36.21l5.85-11.92Zm20.16,33,8.85,7.5,11.83-14-8.85-7.49,7.61-9-14-11.83-7.6,9-8.88-7.52L123,37l8.88,7.51-7.42,8.76,14,11.84Z"/><path class="cls-2" d="M127.89,25.6A102.4,102.4,0,0,0,25.61,127.89c0,56.52,45.88,102.51,102.28,102.51a102.62,102.62,0,0,0,102.5-102.51c0-56.4-46-102.29-102.5-102.29m0,230.4C57.38,256,0,198.53,0,127.89S57.38,0,127.89,0,256,57.38,256,127.89A128.26,128.26,0,0,1,127.89,256"/></svg>