<svg id="Capa_1" data-name="Capa 1" xmlns="http://www.w3.org/2000/svg" viewBox="0 0 256 192"><defs><style>.cls-1{fill:#c51a27;}.cls-2{fill:#ec6d16;}.cls-3{fill:#040404;}.cls-4{fill:#1d1d1b;}.cls-5{fill:#ffd400;}</style></defs><title>distintivo-seccion</title><rect class="cls-1" width="256" height="192"/><polygon class="cls-2" points="161.51 4.32 134.79 72.32 4.33 171.94 4.33 187.68 35.68 187.68 154.58 96.56 251.66 84.16 251.66 56.57 167.29 67.16 191.85 4.32 161.51 4.32"/><path class="cls-3" d="M37.08,191.55H.32V170.06L131.43,69.94,158.74.45h38.92l-24.25,62,82.27-10.33V87.55l-99.47,12.7ZM8.35,183.81H34.28L153,92.86l94.69-12.1V61L161.18,71.83,186.05,8.19H164.28l-26.13,66.5L8.35,173.81Z"/><path class="cls-2" d="M0,0H256V16H0ZM0,192H256V176H0Z"/><path class="cls-4" d="M135.17,113H108.32l-.84-1.26c-4.91-7.43-9.42-14-13.4-19.39C90.36,87.22,86.28,81.91,82,76.51H77.64V99.27a6.18,6.18,0,0,0,.43,2.43,2,2,0,0,0,1.17.8,16.51,16.51,0,0,0,3.05.58c1.64.21,3,.33,4.18.37l2.75.09V113H48.28v-9.28l2.6-.21,4-.39a11.9,11.9,0,0,0,2.89-.52,2.19,2.19,0,0,0,1.21-1,4.86,4.86,0,0,0,.45-2.33V41.13A7.23,7.23,0,0,0,59,38.57a2,2,0,0,0-1.11-.72,25.29,25.29,0,0,0-3.33-.8c-1.46-.26-2.7-.43-3.67-.5l-2.64-.18V27.05H89.61a47.74,47.74,0,0,1,10.58,1.13,30.23,30.23,0,0,1,9.29,3.73,20.31,20.31,0,0,1,6.75,6.86A19.7,19.7,0,0,1,118.78,49a24.38,24.38,0,0,1-1.67,9.23,19.59,19.59,0,0,1-5,7.16A28.65,28.65,0,0,1,105,70a49.67,49.67,0,0,1-4.78,2q4.62,5.91,7.89,10.23,4.08,5.39,10,13.08a24.69,24.69,0,0,0,4.17,4.51,22.34,22.34,0,0,0,3.66,2.34,12.24,12.24,0,0,0,3,.87,27.66,27.66,0,0,0,3.42.41l2.73.11ZM77.64,66.16H82.5a16.23,16.23,0,0,0,11.55-4.24h0c3-2.83,4.53-6.63,4.53-11.63,0-4.16-1.16-7.32-3.54-9.65s-5.72-3.46-10.25-3.46H77.64Z"/><path class="cls-5" d="M139.22,116.72H112.36l-.84-1.27c-4.91-7.44-9.42-14-13.39-19.39C94.42,91,90.34,85.69,86,80.28H81.69V103a6.07,6.07,0,0,0,.43,2.43c.16.37.8.65,1.16.79a16,16,0,0,0,3.06.58c1.64.21,3,.33,4.18.37l2.74.09v9.42H52.33v-9.29l2.6-.21c.92-.08,2.26-.2,4-.39a11.74,11.74,0,0,0,2.89-.52,2.23,2.23,0,0,0,1.21-1,5,5,0,0,0,.45-2.32V44.89a7.23,7.23,0,0,0-.41-2.56A2,2,0,0,0,62,41.61a26.12,26.12,0,0,0-3.33-.8,36.44,36.44,0,0,0-3.68-.5l-2.63-.18V30.82H93.66a47.75,47.75,0,0,1,10.58,1.12,30.32,30.32,0,0,1,9.28,3.73,20.07,20.07,0,0,1,6.75,6.87,19.56,19.56,0,0,1,2.55,10.17,24.18,24.18,0,0,1-1.67,9.23,19.56,19.56,0,0,1-5,7.16,28.65,28.65,0,0,1-7,4.68,49.67,49.67,0,0,1-4.78,2q4.6,5.91,7.89,10.23,4.08,5.39,10,13.08a25.07,25.07,0,0,0,4.17,4.51,22.1,22.1,0,0,0,3.66,2.34,12.51,12.51,0,0,0,3,.87,26,26,0,0,0,3.43.41l2.73.11ZM81.69,69.92h4.85a16.21,16.21,0,0,0,11.55-4.24c3-2.83,4.53-6.63,4.53-11.63,0-4.16-1.15-7.32-3.53-9.65S93.37,41,88.84,41H81.69Z"/><path class="cls-4" d="M182.17,165a41.83,41.83,0,0,1-12-1.8,50.91,50.91,0,0,1-7.75-3l-1.94,3.19h-9.09l-1-33h9.85l.58,2a57.22,57.22,0,0,0,3.27,8.8,29.75,29.75,0,0,0,4.77,7,20.54,20.54,0,0,0,6.27,4.69,18.71,18.71,0,0,0,8.21,1.68,19.63,19.63,0,0,0,6.15-.86,9.75,9.75,0,0,0,3.8-2.22,8.83,8.83,0,0,0,2.14-3.39,14.53,14.53,0,0,0,.76-4.92,13,13,0,0,0-2.36-7.49,14.37,14.37,0,0,0-7.08-5.28c-2.52-1-5.42-2.05-8.69-3.22s-6.25-2.35-8.71-3.44a30.3,30.3,0,0,1-12-8.85c-3-3.77-4.49-8.69-4.49-14.6A22,22,0,0,1,155,90.63a25.13,25.13,0,0,1,6.19-7.95,28.34,28.34,0,0,1,9-5.16,31.57,31.57,0,0,1,10.69-1.84,32.36,32.36,0,0,1,11.33,1.88,54.22,54.22,0,0,1,6.3,2.8l1.79-2.87h9.11l.56,32.18h-9.82l-.57-2c-.83-2.94-1.78-5.82-2.83-8.54a28.2,28.2,0,0,0-3.83-6.93,16.4,16.4,0,0,0-5.26-4.47,16,16,0,0,0-7.55-1.61,11,11,0,0,0-7.6,2.75,8.13,8.13,0,0,0-3,6.42,11.64,11.64,0,0,0,2,7,15.62,15.62,0,0,0,6.25,4.75c2.76,1.28,5.51,2.4,8.18,3.33s5.54,2,8.19,3.15a63.21,63.21,0,0,1,7.1,3.5,28.2,28.2,0,0,1,6.3,4.85A21.69,21.69,0,0,1,212,129a25.07,25.07,0,0,1,1.43,8.78,24.73,24.73,0,0,1-9.13,19.63C198.36,162.48,190.91,165,182.17,165Z"/><path class="cls-5" d="M178.12,161.13a41.92,41.92,0,0,1-12-1.79,50.78,50.78,0,0,1-7.74-3l-2,3.19h-9.09l-1-33h9.85l.58,2a55.68,55.68,0,0,0,3.28,8.79,29.46,29.46,0,0,0,4.76,7,20.92,20.92,0,0,0,6.27,4.68,18.76,18.76,0,0,0,8.22,1.69,19.26,19.26,0,0,0,6.14-.87,9.74,9.74,0,0,0,3.8-2.21,9,9,0,0,0,2.15-3.39,14.54,14.54,0,0,0,.75-4.92,13,13,0,0,0-2.36-7.49,14.4,14.4,0,0,0-7.08-5.29c-2.52-1-5.42-2-8.68-3.22s-6.24-2.34-8.71-3.43a30.53,30.53,0,0,1-12.05-8.85c-3-3.78-4.48-8.69-4.48-14.61A21.89,21.89,0,0,1,151,86.72a25.24,25.24,0,0,1,6.19-8,28.16,28.16,0,0,1,9-5.15,31.57,31.57,0,0,1,10.69-1.84,32.46,32.46,0,0,1,11.34,1.88,55.77,55.77,0,0,1,6.3,2.8l1.79-2.87h9.1l.57,32.18H196.1l-.57-2c-.82-2.94-1.78-5.81-2.83-8.54a28.32,28.32,0,0,0-3.82-6.93,16.31,16.31,0,0,0-5.27-4.47,15.87,15.87,0,0,0-7.55-1.61,11,11,0,0,0-7.6,2.74,8.19,8.19,0,0,0-3,6.42,11.67,11.67,0,0,0,2,7.06,15.87,15.87,0,0,0,6.25,4.75c2.76,1.27,5.51,2.39,8.18,3.32s5.54,2,8.2,3.16a64.76,64.76,0,0,1,7.09,3.49,28.53,28.53,0,0,1,6.3,4.86,21.49,21.49,0,0,1,4.5,7.14,25.07,25.07,0,0,1,1.43,8.78,24.71,24.71,0,0,1-9.13,19.63C194.32,158.58,186.86,161.13,178.12,161.13Z"/></svg>