<svg id="Capa_1" data-name="Capa 1" xmlns="http://www.w3.org/2000/svg" viewBox="0 0 33.54371 46"><defs><style>.cls-1{fill:#fff;}.cls-2{fill:none;stroke:#fff;stroke-miterlimit:10;stroke-width:2px;}</style></defs><title>mi-agenda</title><path class="cls-1" d="M10.05672,12.49738c-.035.59419-.07963,1.188-.103,1.78265-.06552,1.667-.13746,3.334-.17777,5.00171-.034,1.406-.02817,2.813-.03757,4.21953-.00156.23221.0046.46472.01625.69665.00562.1118-.02464.15521-.14639.16-.4687.01849-.93708.04628-1.40521.07635-.08581.00551-.09955-.03518-.10953-.10025-.04926-.321-.08959-.64387-.15314-.96215a12.83173,12.83173,0,0,0-.849-2.5682c-.402-.93071-.82148-1.85417-1.215-2.78835A7.99812,7.99812,0,0,1,5.343,16.13139a5.265,5.265,0,0,1,.59915-3.34354,6.83965,6.83965,0,0,1,1.95952-2.2604,18.63085,18.63085,0,0,0,2.11475-1.79779.66734.66734,0,0,1,.0758-.0531,5.76858,5.76858,0,0,0,.43284.44561c.59909.5016,1.20187.99916,1.81254,1.48687A6.55868,6.55868,0,0,1,14.652,13.93165a5.36311,5.36311,0,0,1,.004,2.865,16.31733,16.31733,0,0,1-1.03855,2.718,26.69521,26.69521,0,0,0-1.10717,2.68027,9.68369,9.68369,0,0,0-.45881,2.05929c-.01868.189-.02078.1773-.21813.16459-.43421-.028-.86915-.0466-1.30406-.06121-.11231-.00377-.15174-.03026-.15192-.15175-.00265-1.70646.00775-3.41326-.02445-5.11924-.02837-1.50309-.10255-3.00539-.1634-4.50777-.02818-.69582-.07276-1.391-.1099-2.08643Z" transform="translate(-1.22814 -1)"/><path class="cls-1" d="M18.94375,24.90531c.01606-.30438.054-.5863.04065-.86582a2.01714,2.01714,0,0,0-.55755-1.34132,1.92637,1.92637,0,0,0-2.60114-.12933,3.8091,3.8091,0,0,0-1.11681,1.68391c-.04871.13035-.08946.26391-.1273.39782-.02.07094-.053.09043-.128.0803-.52372-.07076-1.04807-.13684-1.57226-.20418-.04228-.00543-.08469-.01076-.12721-.01324-.21845-.01276-.22547-.013-.20639-.23467a9.66586,9.66586,0,0,1,.4223-2.06722A10.61835,10.61835,0,0,1,14.58223,18.982a6.13784,6.13784,0,0,1,2.18627-1.89037,4.23082,4.23082,0,0,1,5.91782,2.41752,4.11175,4.11175,0,0,1-.6877,4.08547,3.43543,3.43543,0,0,1-2.09328,1.29176A2.55336,2.55336,0,0,1,18.94375,24.90531Zm-.42209-4.14322c.31211-.046.61061-.08373.90628-.13692a.15.15,0,0,1,.19342.10334c.11151.23684.2333.469.35177.70257.015.02964.03473.057.06863.11188.047-.27935.09224-.52344.12832-.76885.0387-.26325.03494-.26387.29848-.304.02528-.00385.051-.00513.07623-.00893.23336-.03506.46666-.07042.73564-.11109-.30224-.1561-.5684-.29711-.83827-.43077-.07966-.03945-.11669-.07938-.09687-.17417.03881-.18563.06572-.37373.096-.561.018-.1114.033-.22327.04938-.33493l-.05254-.03055c-.21016.22148-.42169.4417-.62951.66529a.11566.11566,0,0,1-.1646.02564c-.23608-.12625-.47576-.24593-.71447-.36734-.03864-.01965-.07932-.03537-.14562-.06462.13109.25979.24749.48918.3627.71916.11278.22513.11055.22371-.0699.40266C18.8944,20.38021,18.71593,20.56482,18.52166,20.76209Z" transform="translate(-1.22814 -1)"/><path class="cls-1" d="M7.46729,23.38153a11.1027,11.1027,0,0,0-1.58875-3.94916,6.72225,6.72225,0,0,0-2.01837-2.07263A4.82929,4.82929,0,0,0,2.83844,16.882a11.16693,11.16693,0,0,1,.22339,1.258,15.20014,15.20014,0,0,1-.06,3.72c-.011.09326-.02527.18206-.038.27282a1.81222,1.81222,0,0,1,.69476.07752,2.409,2.409,0,0,1,1.23279.98236A4.71874,4.71874,0,0,1,5.56153,24.648c.024.08569.05743.11047.14288.08649a1.60344,1.60344,0,0,1,.23834-.04511c.50757-.06213,1.01514-.12463,1.52326-.18115.10913-.01215.147-.0506.131-.16113C7.55048,24.02563,7.5304,23.69952,7.46729,23.38153Z" transform="translate(-1.22814 -1)"/><path class="cls-1" d="M10.08913,31.37041c.04314-.29519.10535-.58908.12594-.88581.069-.994.12362-1.989.18242-2.98369.01-.16872.0071-.16489.18208-.17108.45622-.01617.91251-.03252,1.36828-.0575.10274-.00563.125.041.1367.12025a7.634,7.634,0,0,0,.86177,2.54217c.16132.29661.34671.58106.5333.86317a.21226.21226,0,0,1,.01393.25042,6.65268,6.65268,0,0,1-1.63113,1.981,6.965,6.965,0,0,1-1.701,1.09116.2399.2399,0,0,1-.17711.00644,7.263,7.263,0,0,1-3.33742-3.06731.22343.22343,0,0,1,.01854-.27362A8.13875,8.13875,0,0,0,8.0283,27.55262c.05118-.277.05-.27367.33823-.26206.40931.01649.81881.03067,1.22836.03781.10478.00183.13456.03279.1397.13676.045.911.08672,1.82241.15095,2.7322.02666.37755.1055.75149.16129,1.127a.21479.21479,0,0,0,.01765.0452Z" transform="translate(-1.22814 -1)"/><path class="cls-1" d="M10.07287,24.85729a27.99251,27.99251,0,0,1,2.93851.18095,7.83425,7.83425,0,0,1,1.8215.3817,1.82741,1.82741,0,0,1,.3738.18913c.21054.1406.21736.34065-.00576.46253a3.59618,3.59618,0,0,1-.76234.31217,10.02461,10.02461,0,0,1-2.1446.32727c-.88562.04592-1.77267.08891-2.65911.08915a18.08811,18.08811,0,0,1-3.31046-.27631,11.28984,11.28984,0,0,1-1.14353-.31029.91591.91591,0,0,1-.27635-.15512c-.18318-.13786-.19209-.31915.00458-.43333a3.16257,3.16257,0,0,1,.69669-.30331,10.657,10.657,0,0,1,2.21806-.35351C8.57228,24.91434,9.3231,24.893,10.07287,24.85729Zm4.54584,1.01388-.00039-.065a4.19126,4.19126,0,0,0-.539-.11849c-.87893-.079-1.75787-.16659-2.63887-.21178A30.08325,30.08325,0,0,0,7.90874,25.51c-.68848.04564-1.374.1369-2.0601.214a2.29987,2.29987,0,0,0-.33675.089l.00068.05168c.10764.02879.21379.06586.32315.08507a18.27026,18.27026,0,0,0,2.879.24272c1.1258.01759,2.253.00467,3.37841-.03222.67637-.02217,1.35083-.111,2.02514-.17958A4.30164,4.30164,0,0,0,14.61871,25.87117Z" transform="translate(-1.22814 -1)"/><path class="cls-1" d="M2.77186,28.69887A2.03115,2.03115,0,0,0,5.76236,26.972c.153.02559.3057.05522.45963.07606.41806.05663.83633.112,1.25522.16207.09741.01164.13053.04013.11242.14308A5.447,5.447,0,0,1,6.25424,30.22a1.82436,1.82436,0,0,1-1.71672.64093,2.25641,2.25641,0,0,1-1.62659-1.19238A1.70937,1.70937,0,0,1,2.77186,28.69887Z" transform="translate(-1.22814 -1)"/><path class="cls-1" d="M12.522,27.23275c.07644-.01208.147-.02413.21789-.03429.49743-.07128.99518-.14045,1.49216-.21469.0963-.01439.13783-.00246.16163.1081a2.26481,2.26481,0,0,0,.84007,1.40739,2.09829,2.09829,0,0,0,2.13439.20989c.038-.0146.0763-.02828.15191-.05623a4.61266,4.61266,0,0,1-.09327.456,2.33894,2.33894,0,0,1-1.66571,1.68381,1.786,1.786,0,0,1-1.766-.47369,4.60144,4.60144,0,0,1-1.11216-1.725,5.44962,5.44962,0,0,1-.35315-1.26526C12.52571,27.30047,12.52506,27.27173,12.522,27.23275Z" transform="translate(-1.22814 -1)"/><path class="cls-1" d="M11.05216,36.8259a1.53015,1.53015,0,0,0,.60193,1.02451c-.00517.01617-.00516.03246-.01324.03906-.26931.22035-.52742.45652-.81195.65569a2.4186,2.4186,0,0,1-1.74791.36051.148.148,0,0,1-.10052-.09753,1.2785,1.2785,0,0,1,.1973-.85824.17579.17579,0,0,1,.118-.07776,1.72993,1.72993,0,0,0,1.09755-.48612c.18562-.15542.36734-.31541.55111-.473C10.97479,36.88694,11.00669,36.86257,11.05216,36.8259Z" transform="translate(-1.22814 -1)"/><path class="cls-1" d="M14.51978,36.66735c-.41914.1712-.83137.33976-1.244.50745a.113.113,0,0,1-.06162.01006,1.23247,1.23247,0,0,0-.94267.26319.57659.57659,0,0,0-.114.08094.16765.16765,0,0,1-.28422-.00754c-.13551-.15093-.27736-.29627-.41328-.44686a.488.488,0,0,1-.07042-.11979c-.09651-.20362-.08767-.26016.10842-.36762a3.13322,3.13322,0,0,1,2.04923-.4696,1.60351,1.60351,0,0,1,.93543.47832.25508.25508,0,0,1,.03082.03988A.11116.11116,0,0,1,14.51978,36.66735Z" transform="translate(-1.22814 -1)"/><path class="cls-1" d="M8.48058,40.43944c.36273-.24977.69386-.4787,1.02675-.7051a.12805.12805,0,0,1,.09342-.021,5.90233,5.90233,0,0,1,1.5916.6022c.09633.062.19077.12726.2825.19571.12732.095.148.17619.0475.29927a2.40491,2.40491,0,0,1-.334.32789c-.114.09406-.2465.16577-.36565.2542a.14045.14045,0,0,1-.203-.00807A4.86719,4.86719,0,0,0,8.736,40.5274C8.66082,40.50169,8.58571,40.47565,8.48058,40.43944Z" transform="translate(-1.22814 -1)"/><path class="cls-1" d="M7.26689,36.292a2.67386,2.67386,0,0,0-.16893.42671,2.28273,2.28273,0,0,0-.05477.57614.40881.40881,0,0,1-.17219.35238c-.25041.22727-.493.46325-.73291.70143a.54484.54484,0,0,0-.1175.19413c-.03279.088-.07874.10337-.16569.07944a.66594.66594,0,0,1-.41461-.31727,4.25925,4.25925,0,0,1-.25042-.56415.1977.1977,0,0,1,.04075-.14718,2.96761,2.96761,0,0,1,1.83371-1.261C7.12758,36.31773,7.19183,36.307,7.26689,36.292Z" transform="translate(-1.22814 -1)"/><path class="cls-1" d="M13.057,38.82751c.0016-.02761-.00226-.04274.00364-.05116A1.41522,1.41522,0,0,0,13.26,37.953c.00074-.03374.00146-.06758.00462-.10115a.38474.38474,0,0,1,.2515-.369c.576-.22926,1.146-.47308,1.71859-.71055a.62664.62664,0,0,1,.09064-.01981,3.42691,3.42691,0,0,0-.14838.35775.49215.49215,0,0,0-.00829.24253,1.0164,1.0164,0,0,1-.0789.60468.13541.13541,0,0,1-.06154.06021,7.528,7.528,0,0,1-1.84563.79138C13.14346,38.81846,13.1026,38.821,13.057,38.82751Z" transform="translate(-1.22814 -1)"/><path class="cls-1" d="M6.56639,40.5197a.49332.49332,0,0,1-.36156.20907c-.2875.01231-.57629.00421-.86407-.00732a.21882.21882,0,0,1-.15034-.09505,2.79979,2.79979,0,0,1-.2807-2.37172.90056.90056,0,0,1,.04181-.08976c.02473.063.04147.10453.05737.14637a1.11916,1.11916,0,0,0,.81567.78053.12387.12387,0,0,1,.07708.08691,1.74659,1.74659,0,0,0,.64188,1.30137A.16453.16453,0,0,1,6.56639,40.5197Z" transform="translate(-1.22814 -1)"/><path class="cls-1" d="M8.42132,36.26856a2.36145,2.36145,0,0,1,1.54593.53439.79515.79515,0,0,1,.074.06979c.16433.1731.16089.1878-.029.33426a1.47323,1.47323,0,0,1-.599.32552.55376.55376,0,0,1-.27067-.01139,3.76259,3.76259,0,0,0-1.45214-.13742c-.08406.00548-.12066-.02536-.11843-.08826a.77765.77765,0,0,1,.0483-.31907,5.78627,5.78627,0,0,1,.37145-.60246.27359.27359,0,0,1,.16229-.08325A2.03384,2.03384,0,0,1,8.42132,36.26856Z" transform="translate(-1.22814 -1)"/><path class="cls-1" d="M14.11608,39.95572a1.70717,1.70717,0,0,0-1.21588.496.287.287,0,0,1-.25655.059c-.154-.02986-.31238-.037-.46824-.05847A.2971.2971,0,0,1,12.023,40.406a2.69181,2.69181,0,0,0-1.182-.59822.38477.38477,0,0,1-.0616-.03889.88845.88845,0,0,1,.21561-.16808,5.3621,5.3621,0,0,1,.81356-.24492,2.82313,2.82313,0,0,1,2.11755.45625C13.99217,39.856,14.05289,39.90767,14.11608,39.95572Z" transform="translate(-1.22814 -1)"/><path class="cls-1" d="M15.84691,41.57612c-.55931-.3063-.93539.0505-1.33577.36828a3.50333,3.50333,0,0,0-1.29136-1.24961,1.05283,1.05283,0,0,1,.56684-.39315,1.26131,1.26131,0,0,1,1.03016.157,3.734,3.734,0,0,1,1.03337,1.0894C15.85351,41.55273,15.84863,41.5632,15.84691,41.57612Z" transform="translate(-1.22814 -1)"/><path class="cls-1" d="M11.12159,41.6771c.2-.16494.40264-.31329.58108-.48615A4.04285,4.04285,0,0,0,11.9863,40.81a.17759.17759,0,0,1,.13366-.04377,3.66746,3.66746,0,0,0,.6587.05584.34983.34983,0,0,1,.4.2188,4.93448,4.93448,0,0,0,.46646.58488A2.167,2.167,0,0,1,11.12159,41.6771Z" transform="translate(-1.22814 -1)"/><path class="cls-1" d="M8.933,37.88446a1.994,1.994,0,0,0-.29731,1.06411,6.48955,6.48955,0,0,1-2.13613-.526,1.41727,1.41727,0,0,1,.1462-.18283c.195-.17177.33674-.4078.5944-.50347a.55259.55259,0,0,1,.24176-.02947c.46927.04955.93769.10685,1.40635.162A.269.269,0,0,1,8.933,37.88446Z" transform="translate(-1.22814 -1)"/><path class="cls-1" d="M15.5961,37.88009c.03919-.1644.08-.31679.11031-.47119a.71737.71737,0,0,0,.00672-.21328.80217.80217,0,0,1,.15229-.56059.21611.21611,0,0,1,.08556-.06865q.67306-.30425,1.348-.60446a.29337.29337,0,0,1,.0455-.01238c.00607.01219.01478.02212.01255.02626a.99192.99192,0,0,0,.01358.72406.68575.68575,0,0,1,.01619.23793.39878.39878,0,0,1-.25628.35771c-.47684.17973-.94886.372-1.42325.5581A.82428.82428,0,0,1,15.5961,37.88009Z" transform="translate(-1.22814 -1)"/><path class="cls-1" d="M8.76787,6.12918a.75038.75038,0,0,0,.27228-.60477.73107.73107,0,0,1,.06967-.24216.40923.40923,0,0,1,.39438-.28209c.4901.0121.98054.01044,1.47083.01532a.65734.65734,0,0,1,.10013.02188.94634.94634,0,0,0-.3834.7059.519.519,0,0,1-.50118.38c-.40494.00811-.80974.02294-1.21461.03434-.06221.00175-.1245.00025-.18676.00025Z" transform="translate(-1.22814 -1)"/><path class="cls-1" d="M15.4456,38.28982a1.87447,1.87447,0,0,1-.22246,1.909l-1.14977-.56541a1.52657,1.52657,0,0,0,.15306-.33137,2.105,2.105,0,0,0-.001-.38424c.00039-.03754.00968-.09777.03342-.1089.38058-.17844.76415-.35065,1.14731-.52369C15.41256,38.2823,15.42244,38.28684,15.4456,38.28982Z" transform="translate(-1.22814 -1)"/><path class="cls-1" d="M26.84376,25.07273a.92761.92761,0,0,0-.62392-.45133.49541.49541,0,0,1-.342-.58184c.0503-.41037.08491-.82262.12595-1.2341a.53027.53027,0,0,1,.02516-.13575c.15126.28434.4436.29675.69466.38638a.57974.57974,0,0,1,.13829.065.41229.41229,0,0,1,.2291.41535c-.07429.49209-.14293.985-.21454,1.47751A.30159.30159,0,0,1,26.84376,25.07273Z" transform="translate(-1.22814 -1)"/><path class="cls-1" d="M8.83259,5.04961a1.09293,1.09293,0,0,0-.2859.79062.50042.50042,0,0,1-.44265.39858c-.40051.05855-.79931.12846-1.19884.19356-.061.00994-.122.0195-.20968.03347.03351-.05364.04895-.08208.06788-.108A.63413.63413,0,0,0,6.888,5.94244a.77865.77865,0,0,1,.17271-.62827.24744.24744,0,0,1,.1225-.07892c.51974-.06847,1.04026-.13119,1.56068-.19462A.54728.54728,0,0,1,8.83259,5.04961Z" transform="translate(-1.22814 -1)"/><path class="cls-1" d="M20.39669,9.89025l.0296-.03884a1.04443,1.04443,0,0,0,.68343-.28983.6152.6152,0,0,1,.24038-.11095.429.429,0,0,1,.429.11838c.31919.33954.65336.66527.98076.99728a1.18223,1.18223,0,0,1,.07962.10882,1.09513,1.09513,0,0,0-.80618.24358.48658.48658,0,0,1-.59047-.09132c-.318-.29943-.64029-.59444-.9621-.88989A.39579.39579,0,0,0,20.39669,9.89025Z" transform="translate(-1.22814 -1)"/><path class="cls-1" d="M6.61173,5.37026a.96694.96694,0,0,0-.1699.75694.49512.49512,0,0,1-.39173.49958c-.40454.11527-.8062.24043-1.2091.36135-.03915.01175-.07845.023-.11513.03369l-.01647-.032a.83443.83443,0,0,0,.08028-.646.78219.78219,0,0,1-.00562-.18929.434.434,0,0,1,.343-.43747c.46853-.123.93881-.23953,1.40846-.35836A.40051.40051,0,0,1,6.584,5.35239Z" transform="translate(-1.22814 -1)"/><path class="cls-1" d="M19.1568,34.88615a.9521.9521,0,0,1-.01812.1258.60572.60572,0,0,0,.054.42859.78557.78557,0,0,1,.08594.60935.28956.28956,0,0,1-.10493.14759c-.44908.25806-.90229.50908-1.35462.76159a.55582.55582,0,0,1-.07356.02606.92688.92688,0,0,0,.06068-.26192,1.94609,1.94609,0,0,0-.08448-.45693.64906.64906,0,0,1,.03726-.502.20254.20254,0,0,1,.07191-.08234q.63827-.39654,1.27942-.78855A.15765.15765,0,0,1,19.1568,34.88615Z" transform="translate(-1.22814 -1)"/><path class="cls-1" d="M25.98938,20.604c.03848.03174.06727.054.09439.07811a.67828.67828,0,0,0,.41293.17483.77117.77117,0,0,1,.60188.25827.24711.24711,0,0,1,.05889.13271c-.00012.50626-.00569,1.01253-.01112,1.51878a.66847.66847,0,0,1-.02733.11318.80891.80891,0,0,0-.592-.34567.66238.66238,0,0,1-.43807-.25657.27786.27786,0,0,1-.05567-.14737c-.02221-.49294-.03937-.98611-.05757-1.47924A.25911.25911,0,0,1,25.98938,20.604Z" transform="translate(-1.22814 -1)"/><path class="cls-1" d="M23.21383,12.92879l.01321-.01385a1.16377,1.16377,0,0,0,.76174-.11466.861.861,0,0,1,.28865-.03176.34911.34911,0,0,1,.31426.19817c.22587.41142.46484.81579.698,1.22327.01821.03181.03111.0666.046.09892l-.02756.01686a.85029.85029,0,0,0-.70553.02358.68533.68533,0,0,1-.50842-.0373.21427.21427,0,0,1-.08947-.08451q-.38891-.61767-.77344-1.238A.2667.2667,0,0,1,23.21383,12.92879Z" transform="translate(-1.22814 -1)"/><path class="cls-1" d="M10.8626,6.09665a.72.72,0,0,0,.33375-.51516.66446.66446,0,0,1,.31976-.48168.24145.24145,0,0,1,.12941-.0367c.51477.06681,1.02893.13823,1.54307.20974a.51071.51071,0,0,1,.09518.04153c-.303.13641-.36693.41026-.47283.66a.49011.49011,0,0,1-.51773.29638c-.41092-.04045-.822-.07924-1.233-.119-.06184-.006-.12351-.01377-.18525-.02073Z" transform="translate(-1.22814 -1)"/><path class="cls-1" d="M12.92022,6.36086c.05792-.0386.09454-.0642.13234-.088a.63281.63281,0,0,0,.24808-.31162c.08685-.20988.16754-.43113.40847-.5243a.26018.26018,0,0,1,.14511-.02419c.5141.136,1.02672.27738,1.53951.41815.01056.0029.0185.01516.04378.03694-.30817.09871-.41278.36435-.55213.60429a.5022.5022,0,0,1-.55548.22c-.41811-.09938-.83755-.19332-1.25632-.29C13.02976,6.39205,12.98666,6.37886,12.92022,6.36086Z" transform="translate(-1.22814 -1)"/><path class="cls-1" d="M25.38226,26.70152l.01312.006a1.02661,1.02661,0,0,0,.48953.54176.757.757,0,0,1,.13281.11855.4085.4085,0,0,1,.07821.50523c-.21043.41456-.42613.82649-.64035,1.23916-.01706.03286-.03927.0631-.05869.09391-.0149-.00665-.02761-.009-.02818-.013A.84029.84029,0,0,0,24.969,28.63a.64544.64544,0,0,1-.25287-.42462.22938.22938,0,0,1,.01555-.13316c.20671-.449.41693-.89642.62676-1.344A.12349.12349,0,0,1,25.38226,26.70152Z" transform="translate(-1.22814 -1)"/><path class="cls-1" d="M24.32458,31.15506a.70486.70486,0,0,0-.291-.54163c-.05118-.05059-.10866-.09537-.15656-.14871a.474.474,0,0,1-.05594-.56725c.20608-.37315.40564-.74981.608-1.125.01928-.03575.03933-.07111.05824-.10524.0182.00719.03159.00889.03264.01341a.87282.87282,0,0,0,.41132.52261.8255.8255,0,0,1,.163.15952.40958.40958,0,0,1,.04845.50734c-.23231.39741-.46869.79248-.7044,1.18793-.02227.03735-.05152.07063-.07754.1058Z" transform="translate(-1.22814 -1)"/><path class="cls-1" d="M21.24291,9.12812a.89468.89468,0,0,0-.70746.30408.64342.64342,0,0,1-.46691.132.18315.18315,0,0,1-.09065-.03932q-.59268-.41886-1.18345-.84038a.51873.51873,0,0,1-.0526-.04909c.00688-.01268.01027-.02537.01441-.02561a.77587.77587,0,0,0,.53585-.2822.68458.68458,0,0,1,.51881-.26281.23761.23761,0,0,1,.13051.03226c.41312.312.82342.62769,1.23369.94338A.6046.6046,0,0,1,21.24291,9.12812Z" transform="translate(-1.22814 -1)"/><path class="cls-1" d="M22.99176,32.91917a.96711.96711,0,0,0-.3333-.69913.49851.49851,0,0,1-.00084-.63241c.25041-.33565.4936-.67657.73974-1.01534.02636-.03628.05221-.07292.09255-.12931a1.075,1.075,0,0,0,.05131.18868,1.924,1.924,0,0,0,.168.28918c.08028.10819.18411.1994.2633.30824a.40939.40939,0,0,1-.00767.51112c-.28258.36452-.56924.72595-.85494,1.0881-.02563.03249-.05624.06114-.08453.09158Z" transform="translate(-1.22814 -1)"/><path class="cls-1" d="M25.77326,24.74115c.02079.0086.03807.01018.042.01819a.79362.79362,0,0,0,.48976.378,1.13443,1.13443,0,0,1,.2346.1279.41147.41147,0,0,1,.18605.45534c-.12542.4598-.25682.918-.38708,1.37651a.89055.89055,0,0,1-.056.11485.999.999,0,0,0-.58575-.54388.487.487,0,0,1-.23855-.58585c.10418-.426.19854-.85443.29726-1.28179C25.75989,24.78166,25.76654,24.76344,25.77326,24.74115Z" transform="translate(-1.22814 -1)"/><path class="cls-1" d="M25.689,18.56655c.03979.02312.06936.03694.09513.05584a.65909.65909,0,0,0,.41893.12484.78549.78549,0,0,1,.62411.16161.33337.33337,0,0,1,.09955.16589c.06034.409.112.81917.164,1.22928a2.14218,2.14218,0,0,1,.0154.343.82976.82976,0,0,0-.50355-.22747c-.06329-.00768-.12692-.01511-.19057-.01693a.6335.6335,0,0,1-.44965-.237.18386.18386,0,0,1-.03393-.09168q-.12324-.71063-.24338-1.42178A.464.464,0,0,1,25.689,18.56655Z" transform="translate(-1.22814 -1)"/><path class="cls-1" d="M24.19248,12.3814a1.71506,1.71506,0,0,0-.34052.00456c-.13163.0276-.25468.09314-.38411.134a1.26666,1.26666,0,0,1-.27043.05887.43659.43659,0,0,1-.40683-.204c-.26048-.33917-.54317-.66162-.81688-.99084l-.062-.07471c.02049-.00882.03548-.02172.04814-.01977a.82065.82065,0,0,0,.57893-.14506.65971.65971,0,0,1,.57005-.1138.24717.24717,0,0,1,.11589.06821c.3195.4116.63544.82591.95164,1.24A.15448.15448,0,0,1,24.19248,12.3814Z" transform="translate(-1.22814 -1)"/><path class="cls-1" d="M25.12855,16.56662a.7871.7871,0,0,0,.64807.10984.65046.65046,0,0,1,.52479.09948.28011.28011,0,0,1,.10111.12192c.13585.49553.26553.99273.3958,1.48975a.56024.56024,0,0,1,.00073.10321.96925.96925,0,0,0-.78831-.18466.50531.50531,0,0,1-.4935-.372c-.1261-.41947-.25729-.83744-.38606-1.25612-.00826-.02689-.01386-.05458-.0207-.08189Z" transform="translate(-1.22814 -1)"/><path class="cls-1" d="M4.46992,5.94884a.84239.84239,0,0,0-.08407.73145.50358.50358,0,0,1-.31663.59651c-.38623.16707-.76823.34372-1.152.51638-.03842.01729-.0766.03509-.11367.05209l-.01845-.02179a1.09089,1.09089,0,0,0-.02195-.77584A.56541.56541,0,0,1,2.831,6.63335a.21869.21869,0,0,1,.09679-.093c.49165-.20117.985-.39828,1.47824-.59565C4.41621,5.9406,4.43021,5.94587,4.46992,5.94884Z" transform="translate(-1.22814 -1)"/><path class="cls-1" d="M17.52143,6.69822c-.341.0605-.47454.3097-.641.52643a.50775.50775,0,0,1-.578.14757c-.413-.15741-.82812-.3093-1.24215-.46405-.03034-.01134-.05889-.02736-.107-.05.04324-.02192.06663-.036.09164-.0461a.64534.64534,0,0,0,.33884-.30908.77345.77345,0,0,1,.4798-.46026.21476.21476,0,0,1,.12092-.00314c.48795.19909.97432.402,1.46082.60453A.65989.65989,0,0,1,17.52143,6.69822Z" transform="translate(-1.22814 -1)"/><path class="cls-1" d="M20.792,33.58594c0,.06669.00316.09951-.00053.13156a.65644.65644,0,0,0,.11718.4419.80849.80849,0,0,1,.16867.53227.3091.3091,0,0,1-.123.237c-.39984.2946-.7962.59384-1.19434.89072a1.04656,1.04656,0,0,1-.107.057c.12708-.33135-.04243-.57877-.1463-.84237a.47453.47453,0,0,1,.16463-.536c.33489-.2676.66577-.54013.99824-.81071C20.70145,33.66132,20.733,33.63477,20.792,33.58594Z" transform="translate(-1.22814 -1)"/><path class="cls-1" d="M24.27858,14.66508a.70516.70516,0,0,0,.5803.05336,1.325,1.325,0,0,1,.26119-.05566.50153.50153,0,0,1,.17764-.00291.426.426,0,0,1,.3548.265c.16549.43729.34846.8681.52363,1.30181a.81977.81977,0,0,1,.02576.092l-.03084.01227a.87019.87019,0,0,0-.71537-.05833.64168.64168,0,0,1-.48247-.11282.19817.19817,0,0,1-.06725-.08769q-.30572-.65976-.60778-1.32118A.65767.65767,0,0,1,24.27858,14.66508Z" transform="translate(-1.22814 -1)"/><path class="cls-1" d="M16.877,7.60405c.3418-.0218.46785-.2757.64853-.46571a.83773.83773,0,0,1,.23289-.171.37241.37241,0,0,1,.38417.02215c.40265.24584.81344.47859,1.22062.71716.02813.01648.05267.039.11051.08241-.35268.01083-.52167.24972-.72331.44639a.50181.50181,0,0,1-.59479.05813C17.746,8.06885,17.33329,7.84966,16.877,7.60405Z" transform="translate(-1.22814 -1)"/><path class="cls-1" d="M5.19514,36.92337c-.05563.02918-.08405.0468-.11454.05961a.63423.63423,0,0,0-.32447.30728.78906.78906,0,0,1-.47229.453.2281.2281,0,0,1-.13475.00546c-.48777-.19991-.89128-.54447-1.37723-.74872-.01744-.00733.03564.11586,0,.08678.30135-.04779.2986-.2549.44373-.46535a.50766.50766,0,0,1,.65254-.19024c.41659.16.83714.31,1.256.46427C5.139,36.90093,5.15361,36.907,5.19514,36.92337Z" transform="translate(-1.22814 -1)"/><path class="cls-1" d="M21.4193,34.49438a.882.882,0,0,0-.21817-.71738.64294.64294,0,0,1-.07322-.46328.1483.1483,0,0,1,.03934-.07611c.355-.36908.71131-.7369,1.0699-1.10763l.01088.00559a.87076.87076,0,0,0,.25577.6131.9211.9211,0,0,1,.1233.206.40617.40617,0,0,1-.08032.49476c-.32516.32192-.6533.64088-.98086.96042-.03506.0342-.07418.06433-.11141.09635Z" transform="translate(-1.22814 -1)"/><path class="cls-1" d="M8.90209,39.53345c-.28339.27167-.54516.524-.8097.77344a.10379.10379,0,0,1-.08839.02166,1.66184,1.66184,0,0,0-.94134-.08635.20494.20494,0,0,1-.23193-.10585c-.16054-.24183-.33071-.47738-.51991-.74812A4.36338,4.36338,0,0,1,8.90209,39.53345Z" transform="translate(-1.22814 -1)"/><path class="cls-1" d="M5.66565,41.16a2.556,2.556,0,0,0,.30727-.00207,4.24321,4.24321,0,0,0,.6763-.11042c.11846-.03493.21048-.15622.31609-.23641.02683-.02036.06329-.0502.08978-.04544.14622.02624.28932.07412.43624.09075a3.85942,3.85942,0,0,0,.43224.0035,1.0256,1.0256,0,0,1-.6717,1.09161.79454.79454,0,0,1-.29922-.04579,2.96546,2.96546,0,0,1-1.21893-.64221.434.434,0,0,1-.05353-.054C5.67331,41.20119,5.67325,41.18733,5.66565,41.16Z" transform="translate(-1.22814 -1)"/><path class="cls-1" d="M7.94229,42.028a1.084,1.084,0,0,0,.37893-1.26228,7.05839,7.05839,0,0,1,1.65677.49571A2.3679,2.3679,0,0,1,7.94229,42.028Z" transform="translate(-1.22814 -1)"/><path class="cls-1" d="M5.23354,41.25058l-.569.48994c-.213-.14441-.41248-.30195-.63255-.42277a.68861.68861,0,0,0-.72111.021c.36393-.446.65893-.95636,1.25807-1.13806a4.603,4.603,0,0,0,.2642.5696A4.582,4.582,0,0,0,5.23354,41.25058Z" transform="translate(-1.22814 -1)"/><path class="cls-1" d="M12.9127,37.76734c-.06484.30818-.10841.58645-.18474.85562a.449.449,0,0,1-.46589.34971,4.59761,4.59761,0,0,1-1.04354-.04232c-.09045-.01748-.17822-.04862-.301-.08291.06233-.05128.09787-.0821.135-.11085.24448-.18911.48783-.37971.73508-.56521a.76678.76678,0,0,1,.20705-.1121c.26112-.08953.52493-.17139.78783-.25584C12.80987,37.79467,12.83786,37.788,12.9127,37.76734Z" transform="translate(-1.22814 -1)"/><path class="cls-1" d="M14.8336,42.29376a.94763.94763,0,0,1,1.44823-.15506c-.09852.08454-.19693.16968-.2961.254-.16512.14031-.32871.28253-.49806.41766-.029.02317-.10417.03624-.123.01819C15.1844,42.65572,15.01165,42.47525,14.8336,42.29376Z" transform="translate(-1.22814 -1)"/><path class="cls-1" d="M2.86346,41.88731a.85714.85714,0,0,1,1.05132-.13375,2.86817,2.86817,0,0,1,.33971.26491c.05078.0409.04655.08-.00187.12541-.16094.15094-.31714.30686-.47965.45608a.14987.14987,0,0,1-.10544.0166c-.02056-.00242-.03786-.03171-.05669-.04886Z" transform="translate(-1.22814 -1)"/><path class="cls-1" d="M17.19754,43.008,16.27147,44c-.11737-.18922-.22538-.35855-.32578-.53218-.01085-.01877.01369-.07157.03661-.09331q.35069-.33264.70828-.65805c.024-.02182.08556-.03836.1051-.02418C16.92854,42.78872,17.0548,42.89405,17.19754,43.008Z" transform="translate(-1.22814 -1)"/><path class="cls-1" d="M15.721,43.2556c-.14656-.11644-.14637-.11623-.02552-.22167.23227-.20262.46431-.4055.71432-.6239l.129.12774Z" transform="translate(-1.22814 -1)"/><path class="cls-2" d="M33.77186,41.99993a3.98347,3.98347,0,0,1-3.943,4L6.17119,46a3.98347,3.98347,0,0,1-3.943-4L2.22814,6.00007a3.98347,3.98347,0,0,1,3.943-4L29.82881,2a3.98155,3.98155,0,0,1,3.93981,3.83933" transform="translate(-1.22814 -1)"/></svg>