<svg id="Capa_1" data-name="Capa 1" xmlns="http://www.w3.org/2000/svg" viewBox="0 0 256 192"><defs><style>.cls-1{fill:#00471f;}.cls-2{fill:#1d1d1b;}.cls-3{fill:#e3ebbb;}.cls-4{fill:#fff;}</style></defs><title>distintivo</title><rect class="cls-1" width="256" height="192"/><path class="cls-2" d="M146.62,155.25c0,5.45-18.62,14.81-18.62,14.81s-18.69-9.36-18.69-14.81,9.33-8.76,9.33-23.93l7.58,1.14L128,155.25l1.71-22.79,7.58-1.14C137.29,146.49,146.62,149.79,146.62,155.25ZM128,21.94c0,10.42-29.15,14.82-29.15,36.46s17.49,14.81,17.49,57l8.17-1.14L128,49.29l3.5,64.94,8.17,1.14c0-42.16,17.49-35.32,17.49-57S128,32.36,128,21.94Zm25.66,96.85c0-12.08,17.49-21.65,23.83-8.83,3.37,6.81-6.34,13.39-6.34,13.39,44.94,0,38.48-52.41,2.33-52.41-19.82,0-29.15,27.34-29.15,45.57Zm-10.5,11.4c0,12.49,8.17,25.06,14,25.06,14,0,14-15.95,14-15.95-11.68,10-19.82-2-19.82-10.26ZM104.64,129c0,8.28-8.14,20.28-19.82,10.26,0,0,0,15.95,14,15.95,5.83,0,14-12.57,14-25.06Zm7-12.53c0-18.23-9.31-45.57-29.11-45.57-36.09,0-42.58,52.41,2.29,52.41,0,0-9.65-6.58-6.29-13.39,6.33-12.82,23.8-3.25,23.8,8.83ZM128,117.65c-35,0-35,11.39,0,11.39S163,117.65,128,117.65Z"/><path class="cls-3" d="M145,150c0,5-17,13.5-17,13.5S111,155,111,150s8.5-8,8.5-21.8l6.9,1L128,150l1.59-20.76,6.91-1C136.5,142,145,145,145,150ZM128,28.53h0C128,38,101.41,42,101.41,61.74s15.93,13.5,15.93,51.91l7.44-1L128,53.44l3.18,59.17,7.44,1c0-38.41,15.94-32.18,15.94-51.91S128,38,128,28.53Zm23.37,88.23c0-11,15.94-19.72,21.72-8,3.07,6.2-5.78,12.2-5.78,12.2,40.94,0,35.06-47.76,2.12-47.76-18.06,0-26.56,24.92-26.56,41.53Zm-9.56,10.39c0,11.38,7.44,22.83,12.75,22.83,12.75,0,12.75-14.53,12.75-14.53-10.64,9.14-18.06-1.8-18.06-9.34Zm-35.06-1c0,7.54-7.43,18.48-18.06,9.34,0,0,0,14.53,12.75,14.53,5.31,0,12.75-11.45,12.75-22.83Zm6.37-11.42c0-16.61-8.48-41.53-26.52-41.53-32.88,0-38.8,47.76,2.09,47.76,0,0-8.8-6-5.74-12.2,5.77-11.68,21.69-3,21.69,8Zm14.88,1c-31.88,0-31.88,10.38,0,10.38S159.84,115.73,128,115.73Z"/><rect class="cls-4" width="256" height="16"/><rect class="cls-4" y="176" width="256" height="16"/></svg>