<svg id="Capa_1" data-name="Capa 1" xmlns="http://www.w3.org/2000/svg" viewBox="0 0 256 192"><defs><style>.cls-1{fill:#bed99c;}.cls-2{fill:#00652a;}.cls-3{fill:#1d1d1b;}.cls-4{fill:#00471f;}.cls-5{fill:#d7e9f4;}.cls-6{fill:#00407f;}</style></defs><title>enlace</title><rect class="cls-1" width="256" height="192"/><path class="cls-2" d="M8.38,47.23C28.17,36.39,42.29,27.71,77,20.85c37.68-7.45,92.8-7.63,136.27,17,62.26,35.31,53.05,91-5.68,119.15-38.79,18.57-106.87,24.24-150.47,12.16-17-4.71-59-24.54-45.42-51.06C28.18,86,103.16,48.4,145.16,59.75c24.66,6.67,45.88,37.45,31.23,58.37-20.89,29.81-83.33,13-45.43-19.46-13.68,2.93-48.28,12.22-42.58,26.75,15.69,40,107.42,19,113.56-19.45C211.55,45.78,128,35.57,79.86,47.6,51.37,54.72,31,66.63,9.34,82.06c-13,9.29-11.58-29-1-34.83"/><path class="cls-3" d="M64.07,175.54h0s-11.75-5.89-11.75-9.32,5.88-5.51,5.88-15.07l4.77.72,1.1,14.35,1.1-14.35,4.77-.72c0,9.56,5.88,11.64,5.88,15.07S64.08,175.54,64.07,175.54Zm0-93.25h0c0,6.55-18.35,9.33-18.35,22.95s11,9.33,11,35.87l5.14-.72,2.2-40.88,2.2,40.88,5.14.72c0-26.54,11-22.24,11-35.87S64.08,88.84,64.07,82.29Zm16.15,61c0-7.6,11-13.63,15-5.56,2.12,4.29-4,8.43-4,8.43,28.3,0,24.23-33,1.47-33-12.48,0-18.35,17.22-18.35,28.7Zm-6.61,7.18c0,7.87,5.14,15.78,8.81,15.78,8.82,0,8.82-10,8.82-10-7.36,6.31-12.49-1.25-12.49-6.46Zm-24.22-.72c0,5.21-5.13,12.77-12.49,6.46,0,0,0,10,8.82,10,3.67,0,8.81-7.91,8.81-15.78Zm4.4-7.89c0-11.48-5.86-28.7-18.33-28.7-22.72,0-26.81,33,1.45,33,0,0-6.08-4.14-4-8.43,4-8.07,15-2,15,5.56Zm10.28.72c-22,0-22,7.17,0,7.17S86.09,142.55,64.07,142.55Z"/><path class="cls-4" d="M64.09,171.39h0c-.39-.2-10.68-5.42-10.68-8.49s5.35-5,5.35-13.72l4.35.65,1,12.95,1-12.95,4.35-.65c0,8.7,5.35,10.6,5.35,13.72S64.48,171.19,64.09,171.39Zm0-84.95h0c0,6-16.72,8.49-16.72,20.91s10,8.49,10,32.68l4.68-.66,2-37.24,2,37.24,4.68.66c0-24.19,10-20.27,10-32.68S64.09,92.4,64.07,86.44ZM78.79,142c0-6.93,10-12.42,13.67-5.07,1.93,3.91-3.64,7.68-3.64,7.68,25.78,0,22.08-30.06,1.34-30.06-11.37,0-16.73,15.68-16.73,26.14Zm-6,6.54c0,7.17,4.68,14.37,8,14.37,8,0,8-9.15,8-9.15-6.7,5.76-11.37-1.13-11.37-5.88Zm-22.08-.66c0,4.75-4.67,11.64-11.37,5.88,0,0,0,9.15,8,9.15,3.34,0,8-7.2,8-14.37Zm4-7.19c0-10.46-5.34-26.14-16.69-26.14-20.71,0-24.43,30.06,1.31,30.06,0,0-5.54-3.77-3.61-7.68,3.63-7.35,13.65-1.86,13.65,5.07Zm9.37.65c-20.07,0-20.07,6.54,0,6.54S84.14,141.33,64.07,141.33Z"/><path class="cls-3" d="M163.42,57.07,178.57,56c5.49,6,14.23,2.32,15.28-1.84l41.71-5,2.6-.31-.85,1-2.12.59L177,66.47ZM128.31,79.94,70.12,96,68,96.6l-.86,1,2.6-.31,41.72-5c1-4.16,9.78-7.85,15.27-1.84l15.15-1.09Zm34.43,9.51,24.08,38.85.87,1.42,1.43.57-.46-1.73-7.46-27.85c-6.22-.7-11.75-6.53-2.74-10.2l-1.64-10.12Zm-34.43-23L70.13,50.37,68,49.79l-1.62.26,2.17,1,34.76,16.18c5.15-2.45,15.24-.93,12.75,5.91L128,79.53ZM177,79.93,235.17,96l2.12.58,1.62-.26-2.17-1L202,79.17c-5.14,2.45-15.23.93-12.74-5.91l-11.87-6.38ZM162.73,57l24.13-38.83.87-1.42-.4-1.08-1.51,1.45L161.59,40.28c3.67,3.43,1.39,10.17-8.86,8.51l-9.55,7.92ZM142.57,89.46,118.45,128.3l-.88,1.41.41,1.08,1.5-1.45,24.23-23.21c-3.66-3.43-1.39-10.17,8.86-8.51l9.56-7.92Zm0-32.5L118.49,18.11l-.88-1.42-1.43-.57.47,1.73L124.1,45.7c6.23.7,11.75,6.54,2.74,10.2L128.48,66Z"/><path class="cls-5" d="M177,80,235.18,96l2.12.59.86,1-2.6-.31-41.72-5c-1-4.15-9.78-7.84-15.27-1.83l-15.16-1.09Zm-48.55.42L126.8,90.51c9,3.66,3.49,9.5-2.74,10.19l-7.46,27.85-.46,1.74,1.43-.57.88-1.42,24.07-38.85ZM176.86,66,178.5,55.9c-9-3.66-3.48-9.5,2.75-10.19l7.45-27.85.47-1.74-1.43.58-.88,1.41L162.78,57Zm.52,13.53,11.88-6.37c-2.49-6.85,7.59-8.37,12.74-5.92l34.77-16.17,2.16-1-1.61-.27-2.12.59L177,66.5ZM127.92,66.86l-11.87,6.38c2.49,6.84-7.6,8.36-12.74,5.91L68.54,95.33l-2.17,1L68,96.6,70.11,96l58.17-16.11Zm15.22,22.86,9.56,7.92c10.25-1.66,12.52,5.07,8.86,8.51l24.22,23.21,1.51,1.45.41-1.08-.88-1.42L162.7,89.47Zm19-33-9.55-7.93c-10.26,1.66-12.53-5.08-8.86-8.51L119.52,17.05,118,15.6l-.4,1.08.88,1.42,24.12,38.84ZM141.89,57,126.74,56c-5.49,6-14.23,2.32-15.28-1.83l-41.71-5-2.61-.31.86,1,2.12.59,58.2,16.07Z"/><path class="cls-6" d="M168.62,59.31c11.49,5.89,13.66,16.88,4.84,24.56S148.18,93,136.68,87.1,123,70.22,131.84,62.54s25.29-9.12,36.78-3.23"/><path class="cls-3" d="M156.3,67.74l5.14-.37c1.86,2,4.82.78,5.17-.62l14.14-1.69.88-.11-.29.33-.72.2L160.9,70.92Zm-11.9,7.75-19.72,5.45-.72.19-.29.33.88-.11,14.14-1.69c.36-1.4,3.32-2.65,5.18-.61l5.13-.38Zm11.67,3.22,8.16,13.17.3.48.48.19-.16-.59-2.52-9.43c-2.11-.24-4-2.22-.93-3.46l-.56-3.43ZM144.4,70.93l-19.71-5.46-.72-.2-.55.09.74.34,11.78,5.48c1.74-.83,5.16-.31,4.32,2l4,2.16Zm16.5,4.56,19.72,5.45.72.2.54-.09-.73-.34-11.78-5.48c-1.75.83-5.17.31-4.32-2l-4-2.16Zm-4.83-7.79,8.17-13.16.3-.48-.14-.37-.51.49-8.21,7.87c1.25,1.16.47,3.44-3,2.88l-3.24,2.69Zm-6.83,11-8.18,13.17-.3.47.14.37.51-.49,8.21-7.87c-1.24-1.16-.47-3.44,3-2.88l3.23-2.69Zm0-11-8.16-13.17-.29-.48-.49-.19.16.59L143,63.89c2.11.23,4,2.21.93,3.45l.55,3.43Z"/><path class="cls-5" d="M160.9,75.5,180.62,81l.72.19.29.33-.88-.11-14.14-1.69c-.35-1.4-3.31-2.65-5.18-.61l-5.13-.38Zm-16.45.14-.56,3.43c3.06,1.24,1.18,3.22-.93,3.45L140.44,92l-.16.59.48-.19.3-.48,8.16-13.17Zm16.41-4.87.55-3.43c-3-1.24-1.18-3.22.93-3.45l2.53-9.44.16-.59-.49.19-.29.48L156.08,67.7Zm.17,4.59,4-2.16c-.85-2.32,2.57-2.84,4.31-2l11.79-5.48.73-.34-.54-.09-.73.2-19.71,5.45Zm-16.76-4.31-4,2.17c.84,2.32-2.58,2.83-4.32,2L124.15,80.7l-.74.34.55.1.72-.21,19.71-5.45Zm5.16,7.75,3.24,2.69c3.47-.57,4.24,1.72,3,2.88l8.21,7.87.51.49.14-.37-.3-.48-8.17-13.16Zm6.45-11.19-3.24-2.69c-3.48.57-4.25-1.71-3-2.88l-8.21-7.87-.51-.48-.14.36.3.48,8.18,13.16Zm-6.88.12-5.13-.37c-1.86,2-4.82.78-5.18-.62l-14.13-1.69-.89-.11.3.33.72.2,19.72,5.44Z"/><path class="cls-6" d="M158.06,68.5c3.9,2,4.63,5.72,1.65,8.32s-8.58,3.09-12.47,1.09-4.63-5.72-1.64-8.32,8.57-3.09,12.46-1.09"/></svg>