<svg id="Capa_1" data-name="Capa 1" xmlns="http://www.w3.org/2000/svg" viewBox="0 0 256 256"><defs><style>.cls-1{fill:#146822;}.cls-2{fill:#e4ecbc;}</style></defs><title>icono-scout</title><path class="cls-1" d="M128,51.3l6.39,107.14L148,159.68C140.7,95.42,224.29,68.84,128,0c-96.29,68.84-12.7,95.42-20,159.68l13.63-1.24Z"/><path class="cls-1" d="M128,256c10.53-6.13,24.29-12.19,31.69-22.9-.49-16-18-27.1-15.08-46.29-7.06.57-12.89.64-12.89.64L128,226.92l-3.72-39.47s-5.83-.07-12.89-.64C114.32,206,96.8,217.08,96.31,233.1,103.71,243.81,117.47,249.87,128,256Z"/><path class="cls-1" d="M128,184c11.68,0,45.43-2.22,45.41-11.13,0-6.76-33.86-11.12-45.41-11.12s-45.39,4.36-45.41,11.12C82.57,181.76,116.32,184,128,184Z"/><path class="cls-1" d="M194.42,83.87c-35.54,10.52-38,77.09-38,77.09s10.82,1.79,15.94,3.25c8.7-45,65.83-18.14,29.94,10.28C285.11,174.3,264,63.29,194.42,83.87Z"/><path class="cls-1" d="M168.88,190.81a34.64,34.64,0,0,1-.55-7.05c-7.17,1.47-14.94,2.21-14.94,2.21,8,56.63,43.75,51.85,48.65,19.91C202,205.88,174.63,225.36,168.88,190.81Z"/><path class="cls-1" d="M61.58,83.87c35.54,10.52,38,77.09,38,77.09s-10.82,1.79-15.94,3.25c-8.7-45-65.83-18.14-29.94,10.28C-29.11,174.3-8,63.29,61.58,83.87Z"/><path class="cls-1" d="M87.12,190.81a34.64,34.64,0,0,0,.55-7.05c7.17,1.47,14.94,2.21,14.94,2.21-8,56.63-43.75,51.85-48.65,19.91C54,205.88,81.37,225.36,87.12,190.81Z"/><path class="cls-2" d="M128,56.1l6,100.43,12.78,1.17C139.91,97.45,218.27,72.54,128,8c-90.27,64.54-11.91,89.45-18.77,149.7L122,156.53Z"/><path class="cls-2" d="M128,248c9.87-5.74,22.77-11.43,29.71-21.47-.46-15-16.89-25.41-14.14-43.4-6.61.53-12.08.6-12.08.6l-3.49,37-3.49-37s-5.47-.07-12.08-.6c2.75,18-13.68,28.39-14.14,43.4C105.23,236.57,118.13,242.26,128,248Z"/><path class="cls-2" d="M128,180.48c10.95,0,42.59-2.08,42.57-10.43,0-6.34-31.74-10.43-42.57-10.43s-42.55,4.09-42.57,10.43C85.41,178.4,117.05,180.48,128,180.48Z"/><path class="cls-2" d="M190.27,86.63C157,96.49,154.61,158.9,154.61,158.9s10.15,1.68,14.95,3c8.16-42.15,61.72-17,28.07,9.64C275.29,171.41,255.47,67.34,190.27,86.63Z"/><path class="cls-2" d="M166.33,186.89a31.92,31.92,0,0,1-.52-6.62c-6.73,1.39-14,2.08-14,2.08,7.48,53.09,41,48.61,45.6,18.66C197.41,201,171.71,219.28,166.33,186.89Z"/><path class="cls-2" d="M65.73,86.63c33.32,9.86,35.66,72.27,35.66,72.27s-10.15,1.68-15,3c-8.16-42.15-61.72-17-28.07,9.64C-19.29,171.41.53,67.34,65.73,86.63Z"/><path class="cls-2" d="M89.67,186.89a31.92,31.92,0,0,0,.52-6.62c6.73,1.39,14,2.08,14,2.08-7.48,53.09-41,48.61-45.6,18.66C58.59,201,84.29,219.28,89.67,186.89Z"/></svg>