<svg id="Capa_1" data-name="Capa 1" xmlns="http://www.w3.org/2000/svg" viewBox="0 0 256 192"><defs><style>.cls-1{fill:#0075be;}.cls-2{fill:#008ad1;}.cls-3{fill:#004c98;}.cls-4{fill:#deedfa;}</style></defs><title>ids</title><g id="paxtu"><polygon class="cls-1" points="170.24 7.15 170.24 6.62 170 6.89 169.77 6.62 6.41 6.62 85.64 96 6.42 185.38 169.77 185.38 170 185.12 170.24 185.38 170.24 184.85 249.59 96 170.24 7.15"/><path class="cls-2" d="M148.35,125.25c-9-1.09-18.24-2.22-27.61-3.7-4.68-.75-9.41-1.56-14.12-2.78a44.62,44.62,0,0,1-7.09-2.29,15.43,15.43,0,0,1-3.51-2A6.16,6.16,0,0,1,93.38,110a6.27,6.27,0,0,1,.17-1.35,5.27,5.27,0,0,1,.65-1.53,8,8,0,0,1,1.58-1.89,17.83,17.83,0,0,1,3.42-2.39,45.89,45.89,0,0,1,7-3,99.84,99.84,0,0,1,14.17-3.61,259.08,259.08,0,0,1,27.86-3.43c4.53-.37,9-.52,13.36-.61s8.63-.07,12.78.08a197.92,197.92,0,0,1,23.38,1.84c2.45.35,23.49.89,37.61,1.4L199.7,58.11c-4.47-.25-9-.58-12.28-.85l.36-.11H186.1l-3.61-.31c-.69-.1-1.41-.23-2.18-.41-4.65-1.09-9.14-2.9-13.87-3.62-11.27-1.7-23.36-.54-34.72,0-11,.48-22.08,2.35-32.87,2.6l-2,0c-.51,0-1.36,0-2,0l-4.23-.06c-2.83,0-5.62-.08-8.34-.21-5.45-.17-10.88-.44-16.15-.71l-5.35-.3s26.84,28.1,34.53,38.56c1.72-.39,3.44-.78,5.2-1.09L110,90c3.16-.5,6.32-1.2,9.49-1.52l9.52-1.1,4.75-.52,1.2-.12c.5-.06.82,0,1.24-.08l2.39-.13L148.1,86c1.62-.08,3.12-.15,4.85-.17l4.78.06,9.57.13c3.25,0,6.43.33,9.64.49s6.41.33,9.57.77l9.5,1.22a55.72,55.72,0,0,1,7.83,1.5l-1,.89a65.2,65.2,0,0,0-7-.91l-9.53-.86c-3.18-.32-6.36-.24-9.53-.41s-6.35-.34-9.49-.33l-9.57,0h-4.79l-4.71.21-9.57.37-2.39.1c-.38,0-.85,0-1.14,0l-1.19.11-4.77.38-9.55.72c-3.19.2-6.32.76-9.48,1.11l-9.47,1.24c-1.57.24-3.14.56-4.72.89a8.1,8.1,0,0,1,1.37,2.54c.18,1.48-7.51,11.17-17.74,23.31.43.18.86.38,1.28.59l.12.09c.58.15,1.17.3,1.77.4l7.33,1.53c2.44.48,4.89.8,7.33,1.21s4.87.7,7.36,1l14.84,1.88,14.84,1.89c2.35.32,4.93.52,7.38.79l7.43.75c1.25.12,2.49.28,3.72.36l3.71.16,7.41.34,39.63,1.64,3.42-3.81c-7.59-.15-16.07-1-23.62-1a330.83,330.83,0,0,1-35.18-2"/><path class="cls-3" d="M156.48,133.11l44,2.63L164.4,175.93H30.23s28-31.18,47.77-54.6l.07,0a.94.94,0,0,1-.1.1l.64.18.49.15.74.36a1,1,0,0,0,.74.08c.57.17,1.14.33,1.72.46l7.29,1.71c2.44.54,4.94,1,7.4,1.42s5,.83,7.43,1.17l14.81,2.1,14.82,2.08c2.59.33,5,.5,7.5.76l7.44.71c1.25.11,2.48.25,3.73.33ZM142.4,56.89h-3.67V67.11l3.67-1.34ZM217.64,77c.46.58,18.37,19.16,18.37,19.16l-14,15.58-97.15-.06V79.15l-10.16-.24a2.06,2.06,0,0,1-2-1.77,2.11,2.11,0,0,1,1.34-2.3l22-7.89V56.36a2.06,2.06,0,0,1,2-2.09h16.6a2.06,2.06,0,0,1,2,2.09v3.18L184,49.73c4.94-2.08,6.29-1.24,6.29-1.24l8.17,8.13L209.84,68.8s7.21,7.45,7.8,8.19"/><path class="cls-2" d="M173.3,94.88h0c.05-.15.08-.21,0,0m7.56,0-.21.13c-1,.34-6.23,0-6.23,0l1.12-4h-1.12l-1.15,3.85c-.31.57-5.73,3.76-5.73,3.76-3.36-4.12-1.92-5.28-1.92-5.28a9.89,9.89,0,0,0,3.85-5.66c-.32-.3-.62-.6-.9-.89a5.63,5.63,0,0,1-2.31,3.41c1-1.58-.65-3.36-1.37-4a.41.41,0,0,1,0,.09c1.09,1.78-.25,4.1-.25,4.1-3.11,3.31,0,8.59,0,8.59s-1.85-.16-3-2.8c-.94-2.22-3.57-4.79-4.39-5.56a3.74,3.74,0,0,1-1.72,3.43l3.39,3.61a7.85,7.85,0,0,0-4.16-1.31c-2.3.19-4.21-1.51-5.38-2.89-.21-.14-.41-.29-.58-.42A12.06,12.06,0,0,1,146,95.67c3,1.52,11.19,2.51,11.19,2.51,6.4,1.49,7.43,13,7.43,13,.38,4.63-4.55,10.41-4.55,10.41h12.47c-1.12-.49-1.27-1-1.27-1,1-14.54-2.56-16.85-2.56-16.85C167.54,99,176,96.53,176,96.53a34,34,0,0,0,6.51-.48,6.58,6.58,0,0,1-1.23-.74,2.27,2.27,0,0,1-.43-.4M195.27,88c1.62-.56,2.75-2.6,2.32-5.53-1.1-7.6-8.67-6.33-14-7.54a27.11,27.11,0,0,1,3.11-1.74c.53-7.91-14.93-1.71-14.92-.82-.08-4.35-.36-9.11-5.29-8.08-3.44.73-5,5-7.5,6.91,1.32-1.38-4.67-2.22-6.72-1-3.13,1.85-4.89,6-2.49,9.26-4.71-6.33-11.78,4.92-7.21,7.92-4.5-.56-9.54,5.14-4,7.76,3.68,1.74,8.57-1.46,10-4.43l.86.55c1.1,1,3.1,2.23,4.73,1.66,3.11-1.09.77-3.23,2.67-4.87,1.47-1.28,3.57.17,5.09-.65,1.31-.69,2.15-3.19,3.51-3.79,3.82-1.69,5.08,6.54,12.82,5.43.09,0,3.91,4.7,4,4.73,3.94,2.94,1.57-2.7,2.89-3,2.48-.56,1.43,2.56,2.48,3.83,1.83,2.22,3.14,3.52,5.71,3.86,8.55,1.12,9-9.51,2-10.49"/><path class="cls-4" d="M111.91,51.3c-5,.52-10.24,1.05-15.23,1.17l-2.08,0-5.13-.07c-2.48,0-4.92-.07-7.29-.18-4.92-.15-9.75-.39-14.25-.63l-3.51-.2c.37-17.39,14.11-31.37,31-31.37,16.5,0,30,13.31,31,30.1l-.75,0c-4.62.2-9.26.68-13.75,1.13M83.85,127.2S78.07,138.31,87.72,146c0,0-11.44,1.55-12-10.13,0,0-4.66,17.37,11.89,21.55,0,0-5.3,4.6-15.54.4,0,0,8.74,4.48,8.78,11.94,0,0,8.64-11.31,16.1-9.42,0,0,12,1.92,15-8.56,0,0,.42-5,5.38-4.83,0,0-2.44-8.42-11.11-4.55l-6.7,3s-1.76-7.24-6.55-9.2-9.36-2.55-9.16-9"/><path class="cls-3" d="M21,178.76H167L240.87,96,167,13.25H21L90.36,91.53a6.76,6.76,0,0,1,0,8.94ZM170.24,192H6.42a6.39,6.39,0,0,1-5.86-3.95,6.79,6.79,0,0,1,1.13-7.14L76.94,96,1.68,11.09A6.78,6.78,0,0,1,.54,4,6.41,6.41,0,0,1,6.41,0H170a6,6,0,0,1,2.59.45A6.56,6.56,0,0,1,176.11,4L254.3,91.51a6.77,6.77,0,0,1,0,9l-78.19,87.56a6.54,6.54,0,0,1-3.52,3.49,6.22,6.22,0,0,1-2.35.46"/></g></svg>