<svg id="Capa_1" data-name="Capa 1" xmlns="http://www.w3.org/2000/svg" viewBox="0 0 256 192"><defs><style>.cls-1{fill:#009c3d;}.cls-2{fill:#aec90b;}.cls-3{fill:#fab900;}.cls-4{fill:#0b6822;}</style></defs><title>ids</title><g id="brownsea"><polygon class="cls-1" points="170.24 7.15 170.24 6.62 170 6.89 169.76 6.62 6.41 6.62 85.64 96 6.42 185.38 169.76 185.38 170 185.12 170.24 185.38 170.24 184.85 249.59 96 170.24 7.15"/><path class="cls-2" d="M195.36,53.87a31.69,31.69,0,0,1,4.31,3.89L177.84,59c-4.37.23-8.88.46-13.54.61-2.33.09-4.64.14-7,.16l-3.47,0c-.62,0-1.08,0-1.83,0l-1.83,0c-9.75-.25-18.85-1.8-27.18-2.14-2.07-.1-4.13-.12-6.05-.07-.93,0-1.86.06-2.92.15s-1.72.13-2.73.27-1.94.27-3,.39a23.08,23.08,0,0,1-3.77.11c-.42,0-.53-.06-.8-.08l-.34,0-.17,0-.28,0h-.06l-.11,0c-.57-.13-1.15-.23-1.7-.41C100,57.53,99,57.05,98.69,57a.47.47,0,0,1-.17,0s0,0,0,0-1,0-.84,0c-.66,0-1.3.16-2,.22-1.33,0-2.73.16-4.11.35a52.49,52.49,0,0,1-7.65.67,21.13,21.13,0,0,1-5-.58c-1-.28-1.57-.46-1.57-.46h1.71a22.76,22.76,0,0,0,4.43-.6,60.23,60.23,0,0,0,6.37-2.14A32,32,0,0,1,94.44,53a21.71,21.71,0,0,1,2.87-.22c1,0,.8,0,1.69,0,.41,0,.84.08,1.24.15s.69.17,1,.27c1.32.44,1.74.69,2.3.83a6.53,6.53,0,0,0,.87.21h.06l.34,0a3,3,0,0,0,.58,0,16.57,16.57,0,0,0,1.95-.1c.82-.08,1.72-.22,2.76-.36s2.34-.26,3.27-.32,2.12-.13,3.28-.17c2.26-.07,4.5,0,6.76.08,9.08.39,18.14,1.93,27,2.13l1.65,0c.41,0,1.11,0,1.66,0l3.47,0c2.32,0,4.62-.07,6.85-.17,4.48-.14,8.94-.36,13.27-.59l18-1M215,75.21a30.74,30.74,0,0,0-4.44-.78l-.93-.07h-2.66c-1.16,0-2.31,0-3.49.11-2.35.12-4.61.32-6.79.54l-11.87,1.27c-1.75-.09-3.3.71-4.69,1s-2.61.84-3.62,1.09c-2,.56-3.19.93-3.19.93s1.16.34,3.21.86a37.29,37.29,0,0,0,3.71.74c1.44.2,3.08.7,4.81.26l11.88-1.27c2.17-.22,4.4-.41,6.63-.52,1.11-.1,2.26-.11,3.42-.11l1.74,0h.61l.2,0,.81,0c3.53.31,7.13,1.64,10.79,2.45-1.91-2.29-4-4.47-6.13-6.58"/><path class="cls-3" d="M139.73,51.81c4.68.48,9.52,1,14.16,1.08l1.93,0,4.77-.07c2.3,0,4.58-.06,6.78-.16,4.57-.15,9.07-.37,13.25-.59l3.26-.18c-.34-16.17-13.11-29.17-28.85-29.17-15.35,0-27.86,12.37-28.78,28l.7,0c4.29.19,8.61.63,12.78,1.06"/><path class="cls-4" d="M134.48,67.67c-.56-.26-.86-.38-.86-.38l1-.16c.63-.11,1.61-.22,2.74-.44s2.38-.49,3.9-.87c13.13-3.38,15.12-1.17,28.73-1.26,6.67,0,21.06-2.14,33-3,2.53,3.16,4.94,6.47,7.68,9.32l.57.58c-4.53.12-9.06.18-13.63.09-7-.13-13.88.94-20.85,1a44.79,44.79,0,0,1-9.84-.75c-3-.65-5.72-2-8.84-2.49-4.71-.67-9.59,1.57-14.11.89-.94-.14-1.84-.31-2.68-.49a41.08,41.08,0,0,1-4.3-1.11C135.84,68.3,135.06,67.88,134.48,67.67ZM204.53,132l-40.42,44.38-137.38.12S97.11,99.84,96.55,96,70.74,64.47,70.74,64.47c33,3.11,127.5,12.55,103,60.47C185.59,121.73,196.33,125.75,204.53,132ZM82.21,142.63A23.81,23.81,0,0,1,84.38,149a16,16,0,0,1,2-4.14c8.48-10.56-.35-23.18-.35-23.18C76.78,133.76,82.21,142.63,82.21,142.63Zm-8.55,14.29A23.88,23.88,0,0,1,76.35,163a16,16,0,0,1,1.54-4.35c7.16-11.47-2.54-23-2.54-23C67.57,148.75,73.66,156.92,73.66,156.92Zm18.41-8.39a1.75,1.75,0,0,0-.52-2.35,1.62,1.62,0,0,0-2.27.55c-11.53,19.12-18,21.08-20.85,20.55-3.79-.7-5.74-6.57-6.17-8.77a1.64,1.64,0,0,0-1.94-1.33,1.7,1.7,0,0,0-1.29,2c.09.41,2,10.17,8.79,11.44.34.06.67.1,1,.13C75.23,171.1,82.85,163.8,92.07,148.53Zm14.44,3.71c-13.94-3.16-19,5.49-19,5.49a22.16,22.16,0,0,1-4.29,4.63,13.64,13.64,0,0,1,4.27,0C99.85,165.51,106.51,152.24,106.51,152.24ZM170,108.87c0-.56,0-1.15,0-1.75s-.23-1.19-.36-1.81a18.28,18.28,0,0,0-1.34-3.74,24.87,24.87,0,0,0-5.36-6.65,35.27,35.27,0,0,0-7.51-5.15,71.22,71.22,0,0,0-8.67-3.84c-11.64-4.35-23.66-7.43-35.7-10.32-2.68-.64-5.25-1-7.62-1.38s-4.57-.54-6.52-.65-3.66-.18-5.06-.18a41,41,0,0,0-4.44.18.24.24,0,0,0,0,.46s1.54.56,4.23,1.31,6.56,1.74,11.19,2.76c19.61,4.33,40.79,7.62,57.17,20.52a26.88,26.88,0,0,1,4.92,5.08,15,15,0,0,1,1.43,2.7c.17.45.35.9.52,1.33s.16.9.25,1.33a13.49,13.49,0,0,1,0,4.72,14.23,14.23,0,0,1-.76,3.14c-.2.74-.32,1.14-.32,1.14a.26.26,0,0,0,.08.29.22.22,0,0,0,.31,0l.69-1a15,15,0,0,0,1.72-3,9.46,9.46,0,0,0,.83-2.41A10.79,10.79,0,0,0,170,108.87ZM60.42,28.56a9.32,9.32,0,0,1,1.17,0,6.67,6.67,0,0,1,1.11.08c.36.09.72.12,1,.23a10.23,10.23,0,0,0,1,.34c.32.15.6.36.9.51a3.79,3.79,0,0,1,.81.65,5.32,5.32,0,0,1,.78.73l.72.84a7.39,7.39,0,0,1,.66,1l.65,1,.08.12a2.3,2.3,0,0,0,.35.42,2.4,2.4,0,0,0,3.48-.13c.48-.54,1.15-1.19,1.76-1.75s1.28-1.14,1.94-1.67a21.73,21.73,0,0,1,2-1.49l1.06-.61A9.16,9.16,0,0,1,81,28.16a5.84,5.84,0,0,1,1.08-.44,6.68,6.68,0,0,1,1.12-.31,5,5,0,0,1,1.13-.19c.38,0,.78,0,1.18,0l1.19.2a10.17,10.17,0,0,1,1.19.44,3.71,3.71,0,0,1,1.19.6l1.22.74-.71-1.29a4.33,4.33,0,0,0-.91-1.2,7.73,7.73,0,0,0-1.15-1.06l-1.37-.84c-.49-.21-1-.33-1.54-.5a7.92,7.92,0,0,0-1.6-.23,6.17,6.17,0,0,0-1.61.05,8.15,8.15,0,0,0-1.58.26,13.14,13.14,0,0,0-1.52.42c-.47.2-1,.38-1.43.6a27.76,27.76,0,0,0-2.68,1.48,28.85,28.85,0,0,0-2.42,1.82l-.08.06-.1-.1-1.15-1.18a6.4,6.4,0,0,0-1.32-1,7.13,7.13,0,0,0-1.47-.85c-.52-.21-1.05-.45-1.58-.62s-1.11-.24-1.67-.32-1.1,0-1.65,0a9.12,9.12,0,0,0-1.58.24,7,7,0,0,0-1.5.46A13,13,0,0,0,57,26.77a14.61,14.61,0,0,0-4.07,4.11A29.13,29.13,0,0,1,58,29,11.2,11.2,0,0,1,60.42,28.56ZM88.71,38.92a8.36,8.36,0,0,0-2.36,2.38,16.58,16.58,0,0,1,2.92-1.09A6.43,6.43,0,0,1,90.68,40a5.16,5.16,0,0,1,.68,0A3.44,3.44,0,0,1,92,40c.2.05.41.07.6.13a4.74,4.74,0,0,0,.56.2c.18.09.35.21.52.3a1.83,1.83,0,0,1,.47.37,3.56,3.56,0,0,1,.45.42l.42.49a3.92,3.92,0,0,1,.38.56l.37.56,0,.07a1.16,1.16,0,0,0,.2.25,1.38,1.38,0,0,0,2-.08c.29-.31.67-.69,1-1s.74-.66,1.11-1a11.69,11.69,0,0,1,1.17-.86l.61-.36a5.2,5.2,0,0,1,.62-.32,3,3,0,0,1,.62-.26,3.25,3.25,0,0,1,.64-.18,3.14,3.14,0,0,1,.66-.11c.22,0,.45,0,.68,0l.68.12a6.37,6.37,0,0,1,.69.25,2,2,0,0,1,.69.35l.71.42-.41-.74a3.31,3.31,0,0,0-.53-.7,5.48,5.48,0,0,0-.66-.61l-.79-.48c-.29-.12-.59-.19-.89-.29a5.78,5.78,0,0,0-.93-.13,3.61,3.61,0,0,0-.93,0,3.93,3.93,0,0,0-.91.15,8.79,8.79,0,0,0-.88.24c-.27.11-.56.22-.82.35a15.36,15.36,0,0,0-1.55.85,16,16,0,0,0-1.4,1l0,0L97.13,40l-.66-.68a4.18,4.18,0,0,0-.77-.6,3.89,3.89,0,0,0-.84-.48,8.74,8.74,0,0,0-.92-.36c-.32-.07-.64-.15-1-.19s-.64,0-1,0a4.64,4.64,0,0,0-.92.14,3.71,3.71,0,0,0-.86.26A7.24,7.24,0,0,0,88.71,38.92Z"/><path class="cls-3" d="M120.22,103.56c-.14,6.73-4.54,13.82-7.89,18.27H94.26l26.19-25.95,18.63,19.18-6.93,6.77h-.24c-5.06-4.64-9.43-12.66-11.69-18.27m27.11,17.5c3.17,7.84,9.69,19.54,17,24.51l18.28-.13-35.37-35.93L111,145.94l24.85-.17c4.09-5,11.32-15.14,11.51-24.71"/><path class="cls-4" d="M21,178.76H167L240.87,96,167,13.24H21L90.36,91.53a6.76,6.76,0,0,1,0,8.94ZM170.24,192H6.42a6.42,6.42,0,0,1-5.87-3.95,6.81,6.81,0,0,1,1.14-7.14L77,96,1.68,11.09A6.8,6.8,0,0,1,.54,4,6.41,6.41,0,0,1,6.41,0H170.24a6.21,6.21,0,0,1,2.31.45A6.47,6.47,0,0,1,176.1,4l78.2,87.55a6.77,6.77,0,0,1,0,9L176.1,188a6.44,6.44,0,0,1-3.55,3.51,6.21,6.21,0,0,1-2.31.45"/></g></svg>