<svg id="Capa_1" data-name="Capa 1" xmlns="http://www.w3.org/2000/svg" viewBox="0 0 256 256"><defs><style>.cls-1{fill:#1a642e;}.cls-2{fill:#244181;}.cls-3{fill:#009d3c;}.cls-4{fill:#fff;}.cls-5{fill:#faef83;}.cls-6{fill:#fcea1e;}.cls-7{fill:#c4c4c9;}.cls-8{fill:#00471f;}</style></defs><title>insignia-final</title><path class="cls-1" d="M32,0H224a32.1,32.1,0,0,1,32,32V224a32.09,32.09,0,0,1-32,32H32A32.09,32.09,0,0,1,0,224V32A32.1,32.1,0,0,1,32,0"/><path class="cls-2" d="M251.74,42.77V213.23c-45.11-2.25-81.06-40.1-81.06-85.23s35.9-83.06,81.07-85.23"/><path class="cls-3" d="M215.4,203.08c-6.51-3.06-10.38-3.59-11-10.41-1.45-.14.46-2.16-1.07-2.18-1.51.21-.54-1.93-.3-3.52-2-3.75-3.28-13.48-9.86-15.54-.44-.73.84-2.21-.94-2.73-.27-2.62-4.18-5.65-2.1-9.76-.44-.79-2.57.55-2.92-.94-.44-1.84,1.67-1,1.09-3.11.89,0,1.5-.43.95-1.9-2.7-.81-1-2,.84-3.05-.24-1.76,2.39-1.12,1.89-3.05,2.32-2.63.12-.36.25-4,.22-1.63-.47-1.75-1.46-2.85-6.15-2.07,1-9.88-5.47-12,1.78-10-1-5.4-5.41-12.08.1-2.32-.06-3.52,1.88-4.93a25.43,25.43,0,0,1,.51-5.52c.21-.59,5.73-12.26,2.06-8.56-.46,1.44-4.53,9.46-1.59.69,5.69-10.53,5.77-14.2,15.7-21.81,3.31-8.26,2.91-4.13,9.35-7.49,1.87-.94-.07-3,2.57-3,1.12-2.86,3.57-4.18,4.56-6.41,1.09-.61,1.8-1.73,3-2.43,1.9.74.64-.69,1.94-.93,2,.6,1.19-1.6,3.69-.7.88-.53.63-1.39,2.71-1-.42-1.28,1.11-2.63,1.83-3.7,0-.79-.44-1.66,1.16-1.21,1.31-.71,1.84-2.8,3.58.14,2,.59.66-2.25,3.1-1.18.56,3.16,2.23-.12,4.15,0,.8.69,2.33,1.12,1.63,3.06-.59,2.55-3.2,1-5,2.54-2.4-.09-5.05,5-2.15,6.23,1.39-1,2.32,1.44.8,1.78-.82-.08-.69.16-.5,1.49,1.08,1.65-2.08,2.68-.15,3.48,2.25-.79.54.94,1.89,1.33,4.29.38-.24,4.44-3.94,2.29-3.39-1.14-1.63,2.61-4.36.61-.35-1.67-1.26-2.63-1.87.24-.61.51-1.24-.33-1.16,1.08.31,2.1-5.72-.78-3.8,3.61.24,1.41-1.87-.66-1.35,1.83-.69,3.16,3.74,1.83,2.17,5.29-2.39-.14-2.24,1.15-3.85,2.71-1,2.55,1.2,1.11.91,3.07,1.41.65,1.25-1.58,2.45-1.82.59,0,.85.07.56-1.11-.34-1.33,1.45.31,1.35-1.2.11-.67-.6-1.42.36-1.61,3.06,1,.72-1.33,2-1.89,1.43.44,1-.59,2.07-1.56.12-.61-.87-1.36.44-1.36.85-.75,4-3.2,4.76.49.69,3.2-1.47,1.48-1.53,4.07,1.38,4.46,2.2-1.12,4.42-.81,3.27,2-1.12,4.17-1.27,6.61.72,1.29,1.49.36,1,3.13,1.44.22.37,1.44.14,2.94,1,1.85,0,2.87.28,5.06.14.49,1.05,1.73-.24,2-1.79.41-.69-.92-1.72-1.17-.44-.63-1.56-.5-2.45-1.31a15.49,15.49,0,0,0,1.37-1.55c.35-.4,2.68-1,.94-1.92-1.93-.5-.49,1.67-2.28.9-.41-1.08-2.24-3.44-4.52-1.51.76,1.48-.94,1-.31,2.54.76-.17,3.78,1.74,1.5,3-1.33,0-1.89-.75-2.61.89-.89,1.26-1.47-.33.32-1.58-.13-1.54-.44-2.86-2.67-2.45-2,0,.75,3.37-1.34,3.32-6.88-1.25-11,8.63-18.43,8.48.42,1.58-4,9.68-6.68,7.34-.36-2.55,3-4.45-.28-6.92-7.75-9.51-12-.74-12.54,8.3,2.09,3.14,4.31,1.87,4.44-2.14,1.75-1.16,3.51.71,3,3.25,0,1.42-1.6-.55-1.94.85,0,1.12-.28,1.8.7,2.57,2.49.34,5.52,3.28,2.51,4.23-1.23-.24-1.06.55-.89,2.28.26,3.37-4.57,6-1,9.5,1,.94,3.16-.23,2.83,2.26.34,4.12,1.16-.81,3-1.77.88-.72,6.91-3.21,4.15.32-2.12,5-2.06,5,3.7,3.47,2,1,1.8,3.44,3.76,4.31,4.38-.25.25,1.27,2.37,3.69,2.58,3,3.11-1,4.4,3.24,3.93-.74,8.13,4.23,7.86,8.28,0,1.6,3.29.14,2.27,3.17-2.69,5.69-.73,3,3.18,2.83,4.28.38.55,4.36,2.18,4.19,3.26-3.54,10,2.81,13.47,4.11-.69,2.32-1.72,7.85-5.58,7.49-.86,6-7.36,8.6-12.75,10.52-.64.54.24,3.34-1.19,3.63-4.25.79-10.85-1.15-9.57,5m-15.23-74.29c4.48-.3-1.41-5-3-7,.63-2-1.4-3.56-3.1-1.55.8,1.3,3.68,2.45,4.1,5.33.88.54-.34.72.12,2,.35.1,1.11-.3.84.9m-3.13.21c-1.29,1.41,2.52,3.58,2.21.86C196.4,130,197.81,128.1,196,128.64Zm4.88,2.66c-.41.64,5.19,5.38,5.92,2.23a8.83,8.83,0,0,1-3.56-3.45c-.73-.05-1.82-.36-1.35,1.07m49.82-46.73c1.25-4,2-19.65-1-9.49-1.74,1.75-1.77,4-2.82,5.55-1.21-.12-1.85-.24-1.05,1.52,1.69-.6-.34,2.74,1.23,2.72.73-.08,1.91-.39.79.84-1.89,2.35,4.44,2.42,2.46-1m.4-20.89c3.75-20-.83-18.06-14.12-7.3.36,2.46-1.38.19-1.68,2-.18,1,1.25,3,1.23.51,1.1-2,4.14-.13,4.14,1.64,1.07-.06.89-2.06,2.69-1-.89,1.12-2.82,3.12,1.49,1.73,1.65.16-1.77,1.48-.89,2.68,2.1,3.08,2.21-4.29,4.52-4.53,1.42.84-1.05,2.27-1.89,3.46-1.07,2.3,2.87,2.37,3.7,1M236,81c2.41,1.56,1.17-1.07,2.75-1.47,4.55.44-1.67-4.32.77-5.5,2.5-.7.27,2.48,2,3,2.29.59,1-1.69,1.23-3.1.95.2,3.59-3.85.29-4,2-1.53-.62-1.63-.95-2.48,5.31-2.53-8.58-4.42-3.14-.28a2.47,2.47,0,0,1,0,3.14c-.8,2.64-1.11,3-4.53,2.47-1.88.92-.28,2.16.6,2.7.11,1-1.22,3.24.69,2.92m16-35.7A6.92,6.92,0,0,0,245.07,46c-2.35-.59-3.92.07-2.76,2.48,3.76-2.57,11.85,2.42,9.42-5.72m-42,96.53c-1,1,1.25,3.6,1.19.52C210.79,139.5,210.7,138.88,209.75,139.3Zm-1.93-5c-1.15,1.13,1.41,3.84,1.26.5C208.92,134.55,208.82,133.81,207.82,134.35Z"/><path class="cls-4" d="M252.9,133.87h0Q245,127,237.61,119.67t-14.5-15.5q-7-8.06-13.54-16.77c14,8,27.72,15.16,41.25,21.48l1.15-3C236.59,98.66,220.9,90.33,204.92,81a302.14,302.14,0,0,1-24.83-41.75l4.91-.38q17-1.17,33.57-1.57t32.76,0h.29l0-3.28h-.24q-16.25-.34-32.91,0t-33.7,1.57c-2.08.14-4.17.32-6.26.48A315.43,315.43,0,0,1,165.24,3.67l-2.76,1.19a318.57,318.57,0,0,0,12.85,31.48Q158.32,37.74,141,40q-25.09-17.43-51-37L88.31,5.62q24.42,18.41,48,35A748.59,748.59,0,0,0,3.85,71l.83,3.16A745.47,745.47,0,0,1,140.32,43.36q16,11.09,31.61,21.16T203,83.6q8.57,12,18,22.85,7.1,8.14,14.65,15.67t15.45,14.34h0l1.81-2.59Zm-79.48-72.2c-9.35-6-18.8-12.34-28.34-18.9q16-2,31.76-3.25A308,308,0,0,0,198.61,77.3Q186.13,69.88,173.42,61.67Z"/><path class="cls-5" d="M104.92,126.54,77.79,99.41l37.78,20a36.25,36.25,0,0,0-10.65,7.08m-9.59,23H57L97.85,137a35.8,35.8,0,0,0-2.52,12.52m9.39,23.26L77.58,199.93l20-37.77a36,36,0,0,0,7.09,10.65M128,182.6V221l-12.54-40.89A35.82,35.82,0,0,0,128,182.6M151.4,173l27.13,27.12-37.77-20A36,36,0,0,0,151.4,173m9.43-23.49H199.2l-40.89,12.54a36.09,36.09,0,0,0,2.52-12.54m-9.57-22.91,27.13-27.13-20,37.78a36,36,0,0,0-7.08-10.65M128,116.77V78.4l12.53,40.89A36.36,36.36,0,0,0,128,116.77"/><path class="cls-6" d="M201.83,154.38a2.08,2.08,0,1,1,2.72,1.13A2.1,2.1,0,0,1,201.83,154.38ZM103.71,80A2.08,2.08,0,1,0,101,78.86,2.09,2.09,0,0,0,103.71,80Zm95,92.66a2.09,2.09,0,0,0-1.12,2.72,2.08,2.08,0,0,0,3.85-1.58A2.1,2.1,0,0,0,198.71,172.65Zm-4.24,10.43a2.08,2.08,0,1,0,1.13-2.71A2.08,2.08,0,0,0,194.47,183.08ZM151.35,79a2.08,2.08,0,1,0,1.12-2.72A2.07,2.07,0,0,0,151.35,79ZM183.9,198a2.08,2.08,0,1,0,2.71,1.13A2.08,2.08,0,0,0,183.9,198ZM54.46,152.53a2.08,2.08,0,1,0-1.13,2.72A2.08,2.08,0,0,0,54.46,152.53Zm128-52.95a2.08,2.08,0,1,0,1.13-2.72A2.08,2.08,0,0,0,182.44,99.58Zm-4.78,104.54a2.08,2.08,0,1,0,2.71,1.13A2.09,2.09,0,0,0,177.66,204.12Zm19.57-85.55a2.08,2.08,0,1,0-2.72-1.12A2.08,2.08,0,0,0,197.23,118.57ZM79.62,92.26A2.08,2.08,0,1,0,78.49,95,2.09,2.09,0,0,0,79.62,92.26ZM128,231a4,4,0,1,0,4,4A4,4,0,0,0,128,231Zm76.57-83.6a2.08,2.08,0,1,0-2.72-1.13A2.08,2.08,0,0,0,204.54,147.36Zm12.37,2a4,4,0,0,1-7.73,1.3,81.1,81.1,0,0,1-81.09,80.1h0A81.11,81.11,0,0,1,47,150.19a4,4,0,1,1,0-1.6,81.05,81.05,0,0,1,79.68-80l.16-11.88h-9.67a47.51,47.51,0,0,0,.77,7.57l-14.36-9.12L117.92,46a58.58,58.58,0,0,0-.77,8.22h9.7l0-3a6.31,6.31,0,0,1,.17-12.39l.11-8.15a60.14,60.14,0,0,0-8.22.78l9.17-14.37,9.12,14.37a48.59,48.59,0,0,0-7.57-.78l-.11,8.2a6.31,6.31,0,0,1-.17,12.35l0,3h9.85a60.14,60.14,0,0,0-.78-8.22l14.37,9.17-14.37,9.12a48.72,48.72,0,0,0,.78-7.57h-9.88l-.16,11.87a81.07,81.07,0,0,1,80,79.55,4,4,0,0,1,7.74,1.27ZM184.6,94.48l-4.73,4.74a72.48,72.48,0,0,1,14.57,21.7l6.2-2.57A79.16,79.16,0,0,0,184.6,94.48ZM154,212.21,151.64,187l-10.37-5.49-3.43,11.12Zm-16.92-17.13-7.64,24.81a70.1,70.1,0,0,0,24.22-4.8Zm-18.85-2.34-3.46-11.23-10.27,5.43-2.39,25.26Zm-15.77,22.34a70,70,0,0,0,24.12,4.8L119,195.14ZM128,82,117,118a37.84,37.84,0,0,1,22-.12Zm37.41,91.1,25.22,2.36-19.51-16.11L160,162.81Zm-6.91-8.55A34,34,0,0,1,143,180.1L176,197.52Zm37.24-15-35.34-10.83A37.45,37.45,0,0,1,162,149.68h0a33.86,33.86,0,0,1-1.78,10.85Zm-24.7-9.77,19.49-16.12-25.22,2.42-5.44,10.27Zm4.78-38-32.94,17.5a30.56,30.56,0,0,1,15.76,14.93Zm16.51,19.63A70.39,70.39,0,0,0,178.64,101l-12.13,22.89ZM176.6,99a70.3,70.3,0,0,0-20.4-13.61l-2.46,25.77Zm-22.68-11.8-16.13,19.56,3.39,11.07,10.33-5.49Zm-.34-2.89a70.13,70.13,0,0,0-24.13-4.77l7.6,24.81Zm-27-4.77a70.22,70.22,0,0,0-24,4.77l16.47,20Zm-24.37,7.67,2.41,25.22,10.24,5.44,3.42-11.18Zm-8,62.54v0a37.4,37.4,0,0,1,1.56-10.92L60.4,149.57,96,160.5a34.09,34.09,0,0,1-1.75-10.8ZM85,159.34,65.5,175.47l25.14-2.36v0l5.52-10.39Zm-4.89,38.12L113,180.06a34.22,34.22,0,0,1-8.91-6.41,33.72,33.72,0,0,1-6.51-9.12Zm16.1-61.05-5.47-10.3L65.6,123.69l19.51,16.13Zm1.26-2.12a31,31,0,0,1,15.76-14.93l-33-17.54Zm2.43-48.94A70.28,70.28,0,0,0,79.49,99L102.4,111.2ZM77.46,101A70.53,70.53,0,0,0,63.8,121.4l25.78,2.48ZM62.7,124a69.73,69.73,0,0,0-4.81,24.12l24.81-7.59Zm-4.82,27a69.83,69.83,0,0,0,4.74,24.13l20-16.53Zm5.82,26.75a70.49,70.49,0,0,0,13.65,20.47l12.14-22.89Zm15.67,22.49A70.34,70.34,0,0,0,99.84,214l2.44-25.87Zm48.7-18.77h0a31.82,31.82,0,0,0,31.77-31.78h0A35,35,0,0,0,157.94,138a1.05,1.05,0,0,1-.58-1.27l0-.11a28.62,28.62,0,0,0-16.19-15.75,35,35,0,0,0-13-2.45,35.35,35.35,0,0,0-13,2.47,29,29,0,0,0-16.38,15.83,1.05,1.05,0,0,1-.5,1.3h0a34.1,34.1,0,0,0-2,11.69v0h0a31.8,31.8,0,0,0,31.77,31.77ZM156.3,214a70.21,70.21,0,0,0,20.42-13.68l-22.86-12.09Zm22.45-15.71a70.08,70.08,0,0,0,13.69-20.51l-25.83-2.43Zm14.78-23.15A69.78,69.78,0,0,0,198.27,151l-24.72,7.63Zm4.74-27A69.57,69.57,0,0,0,193.44,124l-20,16.51ZM159.2,77l-2.57,6.19a72.46,72.46,0,0,1,21.74,14.5L183.11,93A79.2,79.2,0,0,0,159.2,77ZM129.13,70.7,129,77.4a72.13,72.13,0,0,1,25.65,5l2.57-6.19A78.73,78.73,0,0,0,129.13,70.7ZM98.79,76.28l2.57,6.19a70.09,70.09,0,0,1,25.18-5.07h0l.09-6.7A78.79,78.79,0,0,0,98.79,76.28ZM73,93.05l4.73,4.74A72.51,72.51,0,0,1,99.41,83.28l-2.56-6.2A79.22,79.22,0,0,0,73,93.05ZM55.5,118.4,61.69,121A72.24,72.24,0,0,1,76.23,99.28l-4.74-4.74A79.09,79.09,0,0,0,55.5,118.4Zm-6.43,30.12h6.7a72.24,72.24,0,0,1,5.11-25.62l-6.19-2.57A78.63,78.63,0,0,0,49.07,148.52Zm5.54,30.32,6.19-2.57a72,72,0,0,1-5-25.64H49.06A79,79,0,0,0,54.61,178.84Zm16.77,25.87L76.12,200a72.69,72.69,0,0,1-14.51-21.77l-6.19,2.56A78.83,78.83,0,0,0,71.38,204.71Zm25.39,17.55,2.57-6.2a72.34,72.34,0,0,1-21.73-14.58l-4.74,4.73A79,79,0,0,0,96.77,222.26ZM127,222a72.09,72.09,0,0,1-25.68-5.12l-2.57,6.2A78.7,78.7,0,0,0,127,228.7Zm12-40.22a33.58,33.58,0,0,1-10.9,1.8h0a34,34,0,0,1-11-1.83l11,35.63Zm18.35,41.34-2.57-6.19a72.13,72.13,0,0,1-25.7,5.08v6.7A78.57,78.57,0,0,0,157.34,223.11Zm25.89-16.83-4.75-4.75a72.11,72.11,0,0,1-21.76,14.58l2.56,6.19A79.41,79.41,0,0,0,183.23,206.28Zm17.49-25.45-6.19-2.57A72.61,72.61,0,0,1,180,200l4.73,4.74A79.19,79.19,0,0,0,200.72,180.83Zm6.37-30.11-6.7-.08a72.09,72.09,0,0,1-5.06,25.68l6.2,2.56A78.65,78.65,0,0,0,207.09,150.72Zm0-2.1a78.63,78.63,0,0,0-5.65-28.32l-6.19,2.57a72,72,0,0,1,5.13,25.67Zm-8.49-26.44a2.08,2.08,0,1,0,2.72,1.13A2.09,2.09,0,0,0,198.6,122.18Zm-102.24-39A2.08,2.08,0,1,0,93.64,82,2.07,2.07,0,0,0,96.36,83.16ZM61.83,115.81a2.08,2.08,0,1,0-1.13,2.72A2.09,2.09,0,0,0,61.83,115.81ZM97.08,216.9A2.08,2.08,0,1,0,96,219.62,2.08,2.08,0,0,0,97.08,216.9ZM73.61,199a2.08,2.08,0,1,0-1.13,2.72A2.08,2.08,0,0,0,73.61,199Zm2.87,4.64a2.08,2.08,0,1,0,2.72,1.13A2.08,2.08,0,0,0,76.48,203.61ZM57.67,126A2.08,2.08,0,1,0,55,124.82,2.09,2.09,0,0,0,57.67,126Zm.83,47.47a2.08,2.08,0,1,0-1.12,2.72A2.07,2.07,0,0,0,58.5,173.42Zm14.16-72.68a2.08,2.08,0,1,0-2.72-1.12A2.08,2.08,0,0,0,72.66,100.74ZM59.1,180.14A2.07,2.07,0,0,0,58,182.85a2.08,2.08,0,1,0,3.84-1.59A2.06,2.06,0,0,0,59.1,180.14ZM152.37,219a2.1,2.1,0,0,0-1.13,2.72,2.08,2.08,0,1,0,1.13-2.72Zm-21.1,4a2.08,2.08,0,1,0,2.72,1.12A2.07,2.07,0,0,0,131.27,223ZM158.73,81.9a2.08,2.08,0,1,0,1.13-2.72A2.09,2.09,0,0,0,158.73,81.9Zm1.18,133.93a2.08,2.08,0,1,0,2.71,1.13A2.09,2.09,0,0,0,159.91,215.83Zm-59.12,5.67a2.08,2.08,0,1,0,1.12-2.72A2.08,2.08,0,0,0,100.79,221.5ZM179.25,95a2.08,2.08,0,1,0-2.72-1.12A2.07,2.07,0,0,0,179.25,95ZM124.74,227a2.08,2.08,0,1,0-2.72-1.13A2.09,2.09,0,0,0,124.74,227ZM51.68,143.27a2.08,2.08,0,1,0,2.71,1.12A2.08,2.08,0,0,0,51.68,143.27Z"/><path class="cls-2" d="M63.87,44.48A10.67,10.67,0,1,1,53.2,55.15,10.67,10.67,0,0,1,63.87,44.48M4.27,167.15V210c4.58-10.21,11.27-21.94,18.2-35.25,20-38.38,14.4-61.94,1-77.56,5.28,17.26,1.23,38.4-16.34,65.31-1,1.53-1.95,3.07-2.86,4.61M4.27,84v45.26C9.38,119.72,15,110,20.21,100.52c23.34-42.8,16.84-69,1.18-86.48,6,18.64,2.15,41.47-17.12,69.93"/><path class="cls-7" d="M29,0H227V0a29,29,0,0,1,29,29h0V227h0a29,29,0,0,1-8.5,20.49h0A28.89,28.89,0,0,1,227,256v0H29v0a28.93,28.93,0,0,1-20.49-8.5v0A28.89,28.89,0,0,1,0,227H0V29H0A29,29,0,0,1,29,0V0ZM227,8.53H29A20.61,20.61,0,0,0,8.52,29h0V227h0a20.45,20.45,0,0,0,6,14.45h0a20.39,20.39,0,0,0,14.46,6H227a20.43,20.43,0,0,0,14.45-6v0a20.43,20.43,0,0,0,6-14.45h0V29h0A20.61,20.61,0,0,0,227,8.52h0"/><circle id="fondo" class="cls-8" cx="128" cy="150" r="32"/><path id="rizo" class="cls-4" d="M129.55,122.8a1.52,1.52,0,0,0,.17-.48,2,2,0,0,1,.21-.5,1.35,1.35,0,0,1,.32-.26v0c.84.08,1.68.19,2.5.35a1.48,1.48,0,0,0-.35.25,2.37,2.37,0,0,0-.25.47,1.35,1.35,0,0,1-.22.47,1.46,1.46,0,0,1-.38.27h0c-.79-.12-1.6-.2-2.4-.25A1.36,1.36,0,0,0,129.55,122.8Zm3.23-.91Zm-.53,1.58a22.93,22.93,0,0,1,2.35.55l0,0a1.47,1.47,0,0,0,.41-.22,1.41,1.41,0,0,0,.27-.43,2.29,2.29,0,0,1,.32-.43,1.54,1.54,0,0,1,.38-.2h0a22.1,22.1,0,0,0-2.45-.67h0a1.43,1.43,0,0,0-.37.23,2.59,2.59,0,0,0-.26.46,1.53,1.53,0,0,1-.23.46A2,2,0,0,1,132.25,123.47Zm-6-2Zm-.8,1.72a1.74,1.74,0,0,0,.3-.36,1.22,1.22,0,0,0,.08-.5,2.33,2.33,0,0,1,.13-.52,1.34,1.34,0,0,1,.29-.34c-.85.06-1.69.17-2.52.31v0a1.48,1.48,0,0,0-.25.35,1.88,1.88,0,0,0-.07.53,1.69,1.69,0,0,1,0,.5,2,2,0,0,1-.25.39,23.61,23.61,0,0,1,2.38-.39ZM105.81,135a1.39,1.39,0,0,0,.12.41,2,2,0,0,0,.38.39,1.52,1.52,0,0,1,.38.34,1.7,1.7,0,0,1,.15.45,21.78,21.78,0,0,1,1.14-2.13h0a1.47,1.47,0,0,0-.11-.46,1.4,1.4,0,0,0-.35-.38,2.25,2.25,0,0,1-.34-.41,2.07,2.07,0,0,1-.08-.42c-.46.71-.89,1.44-1.28,2.19Zm22.71-11.9h0a1.72,1.72,0,0,0,.34-.32,1.31,1.31,0,0,0,.15-.5,2.47,2.47,0,0,1,.19-.5,1.22,1.22,0,0,1,.33-.27h0a21.38,21.38,0,0,0-2.53,0h0a1.47,1.47,0,0,0-.29.32,1.75,1.75,0,0,0-.14.51,1.45,1.45,0,0,1-.11.5,2.11,2.11,0,0,1-.31.36A21.13,21.13,0,0,1,128.52,123.05Zm7.27,45.5a17.82,17.82,0,0,0-2.6,1.08,3.45,3.45,0,0,0-.33.16,1.72,1.72,0,0,0-.11.5c0,.15,0,.39,0,.55a1.83,1.83,0,0,1-.31.81,9,9,0,0,0,2.59-1l.41-.22a2.81,2.81,0,0,0,.1-.31,2.34,2.34,0,0,0,.07-.45c0-.15-.12-.25-.07-.46a3.17,3.17,0,0,1,.28-.62Zm-7.29,3.1a4.34,4.34,0,0,0,1.35-.89c.11-.11.44-.36.55-.47s-1.07-.91-.87-1.55c-1.2,1-1.68,1.58-2.68,1.58-.25,0,0,0,0,0a1.8,1.8,0,0,0-.25.5,2.26,2.26,0,0,0-.1.45,3.25,3.25,0,0,0,0,.54A4.1,4.1,0,0,0,128.5,171.65Zm-1.63-1.82a2,2,0,0,0,.91-.38l.43-.34a3.06,3.06,0,0,0-2.63-1.16c-.18,0-.45,0-.58.15h0s-.89,1.1-.53,1.48a3,3,0,0,1,1,0,3.2,3.2,0,0,1,1.11.19Zm5.18,4.42s1.22-1.14,2-.78l-.17-.16a4.21,4.21,0,0,0-2.39-.85c-.75,0-2.07.2-2.37.69a4,4,0,0,1,1.85.94C131,174.16,131.33,174.07,132.05,174.25Zm-1.57-3.31-.43.36c-.1.08-.55.35-.61.4s.81.39,2.29.17h0a1.48,1.48,0,0,0,.25-.35,2.23,2.23,0,0,0,.16-.56,3.18,3.18,0,0,0,.06-.43,1.51,1.51,0,0,1,.07-.37c-.17.08-1.05.38-1.05.38l-.41.09c-.12.1-.22.23-.33.32Zm-4.09-.63a1.63,1.63,0,0,0-.25.47,2.79,2.79,0,0,0-.14.47c-.14.64,0,.64,0,.64a9.26,9.26,0,0,1-3.15-.77s.23-.29.3-.35.22-.14.29-.29a1.51,1.51,0,0,1,.67-.44,15.12,15.12,0,0,0,2,.29Zm5.8-2.63a4.64,4.64,0,0,0-2.17.81h0c-.4.45.89,1.45.89,1.45h0a2.1,2.1,0,0,1,1.8-.66,18.35,18.35,0,0,1,1.9-.76,2.61,2.61,0,0,0-2.42-.84Zm-20-39.53a1.3,1.3,0,0,1,.22.46,1.83,1.83,0,0,1,0,.47c.6-.54,1.22-1.05,1.87-1.53h0a1.26,1.26,0,0,0,.08-.47,1.35,1.35,0,0,0-.18-.47,4.13,4.13,0,0,1-.15-.5,2,2,0,0,1,.08-.43c-.7.48-1.37,1-2,1.53v0a1.39,1.39,0,0,0,0,.41A2.37,2.37,0,0,0,112.14,128.15Zm-3.08,2Zm-1.56,1.93a1.61,1.61,0,0,0,.07.43,2.65,2.65,0,0,0,.33.42,1.41,1.41,0,0,1,.34.39,1.79,1.79,0,0,1,.09.46,22.72,22.72,0,0,1,1.42-2h0a1.51,1.51,0,0,0,0-.47,1.33,1.33,0,0,0-.29-.41,2,2,0,0,1-.28-.46,2.09,2.09,0,0,1,0-.43c-.54.64-1.06,1.3-1.55,2Zm2.23-2c-.08.17,0,.32.12.47a1.44,1.44,0,0,1,.27.42,1.56,1.56,0,0,1,0,.48h0c.52-.62,1.07-1.21,1.65-1.84h0a1,1,0,0,0,0-.4,1.33,1.33,0,0,0-.25-.45,2.71,2.71,0,0,1-.22-.49,1.56,1.56,0,0,1,0-.43h0c-.64.57-1.24,1.16-1.88,1.78v0a.81.81,0,0,0,.25.43Zm10.1-7.18Zm.25,1.66a21.14,21.14,0,0,1,2.31-.7h0a1.41,1.41,0,0,0,.25-.4,1.25,1.25,0,0,0,0-.51,2.33,2.33,0,0,1,.06-.53,1.48,1.48,0,0,1,.23-.36,23.22,23.22,0,0,0-2.45.64h0a1.83,1.83,0,0,0-.23.38,2.35,2.35,0,0,0,0,.53,1.1,1.1,0,0,1,0,.51,1.19,1.19,0,0,1-.21.42Zm-5.41,2.35a1.86,1.86,0,0,1-.09.47,22.76,22.76,0,0,1,2.06-1.27h0a1.47,1.47,0,0,0,.14-.45,1.72,1.72,0,0,0-.11-.5,2.35,2.35,0,0,1-.09-.53,1.53,1.53,0,0,1,.14-.41,25.14,25.14,0,0,0-2.21,1.25v0a1.5,1.5,0,0,0-.09.42,2.33,2.33,0,0,0,.13.52A1.34,1.34,0,0,1,114.67,126.85Zm2.82-1.5a1.42,1.42,0,0,1-.16.45c.72-.37,1.45-.7,2.21-1h0a1.69,1.69,0,0,0,.2-.43,1.67,1.67,0,0,0,0-.5,2.37,2.37,0,0,1,0-.53,1.41,1.41,0,0,1,.19-.39c-.8.28-1.58.6-2.35,1v0a1.44,1.44,0,0,0-.15.41,2.31,2.31,0,0,0,.06.52A1.44,1.44,0,0,1,117.49,125.35Zm5.34,45.77Zm24-41.25Zm-.92.93a1.06,1.06,0,0,1-.47,0h0a23.33,23.33,0,0,1,1.54,1.88v0a1.77,1.77,0,0,0,.46.08,1.33,1.33,0,0,0,.48-.18,2.21,2.21,0,0,1,.5-.15,1.16,1.16,0,0,1,.42.08c-.47-.7-1-1.38-1.53-2.16h0a.63.63,0,0,1-.42.09,2.75,2.75,0,0,0-.5.2,1.05,1.05,0,0,1-.47.21Zm-2.2-2.25a.76.76,0,0,1-.48.1,21.08,21.08,0,0,1,1.75,1.66v0a1.29,1.29,0,0,0,.48,0,1.43,1.43,0,0,0,.45-.25,2,2,0,0,1,.49-.21,1.19,1.19,0,0,1,.42,0,20.05,20.05,0,0,0-1.78-1.79h0a1,1,0,0,0-.42,0,2.34,2.34,0,0,0-.47.25.65.65,0,0,1-.43.25Zm-2.52-1.75a1.58,1.58,0,0,1-.48.1,23.86,23.86,0,0,1,2,1.44v0a1.31,1.31,0,0,0,.48,0,1.28,1.28,0,0,0,.43-.3,2,2,0,0,1,.47-.28,1.29,1.29,0,0,1,.44,0c-.66-.56-1.34-1.09-2.06-1.6h0a1.61,1.61,0,0,0-.43.07,3,3,0,0,0-.44.33,1.4,1.4,0,0,1-.42.35Zm.67-1.22Zm9.92,12.73Zm-.8.5a.62.62,0,0,1-.4,0,1.4,1.4,0,0,1-.43-.2,9.1,9.1,0,0,1,.58,2.31v0c.24.1.38.18.52.25a1.69,1.69,0,0,0,.5,0,2,2,0,0,1,.54.05,1.21,1.21,0,0,1,.35.24,21.84,21.84,0,0,0-.64-2.44h0a.86.86,0,0,0-.38-.22,2.93,2.93,0,0,0-.62,0Zm1.67,2.67ZM149.93,136a1.43,1.43,0,0,1-.5.09,1.7,1.7,0,0,1-.45-.15,21.8,21.8,0,0,1,1,2.2v0a1.38,1.38,0,0,0,.43.19,1.4,1.4,0,0,0,.5,0,1.63,1.63,0,0,1,.54,0,1.46,1.46,0,0,1,.38.18,25.09,25.09,0,0,0-1-2.35h0a1.44,1.44,0,0,0-.41-.15A1.84,1.84,0,0,0,149.93,136Zm-1.7-2.82a.9.9,0,0,1-.43.16,1.87,1.87,0,0,1-.46-.09,8.86,8.86,0,0,1,1.14,2.05v0c.28.06.43.11.59.13a1.25,1.25,0,0,0,.5-.11,1.89,1.89,0,0,1,.53-.08,1.17,1.17,0,0,1,.4.13c-.38-.76-.79-1.49-1.25-2.25h0l-.42-.05a4.12,4.12,0,0,0-.59.12Zm2.27,2.16ZM121,174.55a5,5,0,0,0,1.5-.05c.16-.06.3-.15.42-.2h0a2.82,2.82,0,0,1-1-2.17c-1.1-.13-1.37-1.33-1.39-1.4a4.26,4.26,0,0,0-.25,1.37,4.46,4.46,0,0,0,.7,2.45ZM152,142a1.2,1.2,0,0,1-.5,0,1.62,1.62,0,0,1-.39-.25,24.08,24.08,0,0,1,.39,2.38v0a1.31,1.31,0,0,0,.36.3,1.22,1.22,0,0,0,.5.08,2.33,2.33,0,0,1,.52.13,1.22,1.22,0,0,1,.32.28,24.07,24.07,0,0,0-.31-2.52h0a1.48,1.48,0,0,0-.35-.25A2.27,2.27,0,0,0,152,142Zm-27.84,31.79a2.48,2.48,0,0,1,.94.21s1.16-1.2,1.29-1.15a6.11,6.11,0,0,0-3.78-.25l.23.41.61.84Zm-3.61-3Zm32.57-26Zm-29,25.33Zm0,0Zm-.63-1.95a4.42,4.42,0,0,0-2.59,2h0s.27,1.36,1.16,1.4a4,4,0,0,1,1.39-1.54l.17-.2A2.31,2.31,0,0,1,124,168ZM139,124Zm-3.36.13a1.65,1.65,0,0,1-.42.21c.76.25,1.52.53,2.25.85h0a1.74,1.74,0,0,0,.45-.17,1.34,1.34,0,0,0,.32-.39,2,2,0,0,1,.37-.39,1.36,1.36,0,0,1,.4-.14,22.94,22.94,0,0,0-2.33-1h0a1.38,1.38,0,0,0-.39.18,2.18,2.18,0,0,0-.33.42A1.23,1.23,0,0,1,135.64,124.08Zm2.88,1.11a1.76,1.76,0,0,1-.44.15c.72.35,1.44.73,2.13,1.14l0,0a1.47,1.47,0,0,0,.46-.11A1.37,1.37,0,0,0,141,126a2.25,2.25,0,0,1,.41-.34,1.25,1.25,0,0,1,.42-.08,24.15,24.15,0,0,0-2.19-1.29h0a1.23,1.23,0,0,0-.41.13,2.22,2.22,0,0,0-.38.37,1.26,1.26,0,0,1-.34.39Zm-20.64,43.43a2.28,2.28,0,0,1-.38.38,1.42,1.42,0,0,1-.41.14c.77.37,1.55.71,2.34,1h0a1.38,1.38,0,0,0,.39-.18,2.18,2.18,0,0,0,.33-.42,1.37,1.37,0,0,1,.29-.42,1.65,1.65,0,0,1,.42-.21,22.65,22.65,0,0,1-2.25-.86l0,0a1.74,1.74,0,0,0-.45.17A1.34,1.34,0,0,0,117.88,168.62Zm17.7,5.17a2.9,2.9,0,0,0,.36-2.88l-1.81.83a1,1,0,0,1-.21,1.17s1.76.77,1.66.88Zm1.09,4.78.5.82,1.33-1.45a6,6,0,0,0-.63-.5Zm.69-1.5-1.18,1.05.16.17,1.19-1Zm4.79-9.73ZM139.32,169Zm2-2.76a1.51,1.51,0,0,1,.09-.47,20.8,20.8,0,0,1-2.06,1.28h0a1.45,1.45,0,0,0-.13.45,1.25,1.25,0,0,0,.11.5,2.34,2.34,0,0,1,.08.53,1.34,1.34,0,0,1-.13.4,21.79,21.79,0,0,0,2.2-1.25h0a2.13,2.13,0,0,0,.1-.42,2.35,2.35,0,0,0-.14-.52,1.2,1.2,0,0,1-.14-.49Zm-6.22,10.62.83.87,1.29-1.09a1.45,1.45,0,0,0-2.12.22Zm3.65-9.06a1.36,1.36,0,0,1,.14-.4c-.65.33-1.31.63-2,.9h0a2,2,0,0,0-.2.38,1.25,1.25,0,0,0,0,.47,2,2,0,0,1,0,.49,2.62,2.62,0,0,1-.15.39c.71-.25,1.56-.58,2.26-.9v0a1.58,1.58,0,0,0,.14-.36,3.5,3.5,0,0,0-.06-.48,1.27,1.27,0,0,1-.09-.47Zm-13.22,6.81a1.65,1.65,0,0,1-.58,1.89c1.4.36,3-1.15,3-1.15a5.46,5.46,0,0,0-1.67-.57Zm4.68-.33A7.53,7.53,0,0,0,127.3,173l-1.55,1.09,1.85.61c.56.15.71.42,1.41.87,0,0,1.64-.94,1.16-1.32Zm-5.25.45a1.94,1.94,0,0,1-.48,0,2.47,2.47,0,0,1-.89-.17h0c-.25.77-2,.6-2,.6a4.27,4.27,0,0,0,2.36,1.17h0s1-.21,1-1.63Zm11.69,1.14h0c-.36-.48-.67-.9-.85-1.09a5.08,5.08,0,0,0-.75-.64,1.71,1.71,0,0,0-2.33.35,5.26,5.26,0,0,1,1.67,1.48l.22.37s1.2-1.25,2-.46Zm-2.14.5v0h0Zm-2.08-1.72a3.21,3.21,0,0,1-1.5-.07c.07.47-1.3,1.38-1.3,1.38a3.6,3.6,0,0,0,2.15.54,2.7,2.7,0,0,0,1.6-.64,2.89,2.89,0,0,1-.95-1.21ZM105.46,135.6ZM153,148.75a1.75,1.75,0,0,0-.28-.33,2,2,0,0,0-.5-.21,1.2,1.2,0,0,1-.48-.17,1.47,1.47,0,0,1-.31-.35,24.08,24.08,0,0,1-.24,2.4v0a1,1,0,0,0,.74.6,1.77,1.77,0,0,1,.47.25,1.24,1.24,0,0,1,.25.35c.16-.83.27-1.66.35-2.5Zm-.32,2.53ZM144,164.86a2.32,2.32,0,0,1-.18-.46,1.3,1.3,0,0,1,0-.48c-.6.55-1.22,1.06-1.87,1.63h0a.68.68,0,0,0-.08.37,1.33,1.33,0,0,0,.18.48,2.21,2.21,0,0,1,.15.5,1.26,1.26,0,0,1-.08.43c.7-.48,1.38-1,2.08-1.53v0a3.09,3.09,0,0,1,0-.43,1.49,1.49,0,0,0-.24-.49Zm-19,9.93h0Zm26.59-20a2,2,0,0,0-.4-.36,1.76,1.76,0,0,1-.4-.32,1.49,1.49,0,0,1-.17-.44,21.78,21.78,0,0,1-1,2.19h0a1.47,1.47,0,0,0,.14.45,1.54,1.54,0,0,0,.36.36,2,2,0,0,1,.37.39,1.91,1.91,0,0,1,.11.41h0c.41-.73.8-1.48,1.15-2.26v0A1.34,1.34,0,0,0,151.57,154.78Zm1.53-9.23h0a1.83,1.83,0,0,0-.32-.3,3,3,0,0,0-.51-.14,1.44,1.44,0,0,1-.5-.1,1.55,1.55,0,0,1-.36-.31h0a21.56,21.56,0,0,1,.08,2.41v0a1.78,1.78,0,0,0,.32.35,1.38,1.38,0,0,0,.49.14,2.37,2.37,0,0,1,.5.2,1.22,1.22,0,0,1,.28.32,24.15,24.15,0,0,0,0-2.55Zm-.87,6.08a2.13,2.13,0,0,0-.46-.27,1.33,1.33,0,0,1-.46-.23,2,2,0,0,1-.25-.39,22.93,22.93,0,0,1-.55,2.35l0,0a1.41,1.41,0,0,0,.22.42,1.21,1.21,0,0,0,.43.27,2.24,2.24,0,0,1,.43.31,1.44,1.44,0,0,1,.2.39h0c.26-.81.49-1.62.67-2.45v0a1.78,1.78,0,0,0-.25-.36ZM147.05,163Zm-.61.17a2.55,2.55,0,0,0-.25-.46,1.33,1.33,0,0,1-.28-.43,1.89,1.89,0,0,1,0-.47,22.91,22.91,0,0,1-1.66,1.76h0a1.85,1.85,0,0,0,0,.47,1.24,1.24,0,0,0,.25.45,3.06,3.06,0,0,1,.22.49,1.56,1.56,0,0,1,0,.43,23.4,23.4,0,0,0,1.81-1.78v0a1.29,1.29,0,0,0,0-.44Zm-1.69,2.16Zm5.56-7.16a1.48,1.48,0,0,0-.12-.41,2.28,2.28,0,0,0-.38-.38,1.54,1.54,0,0,1-.38-.34,1.7,1.7,0,0,1-.15-.45,24.16,24.16,0,0,1-1.14,2.13h0a1.9,1.9,0,0,0,.1.46,1.37,1.37,0,0,0,.35.37,2.31,2.31,0,0,1,.34.42,1.16,1.16,0,0,1,.08.42,24.15,24.15,0,0,0,1.29-2.19Zm-1.7,2.81a1.56,1.56,0,0,0-.08-.43,2.13,2.13,0,0,0-.31-.43,1.24,1.24,0,0,1-.34-.38,1.86,1.86,0,0,1-.09-.47c-.44.68-.91,1.34-1.41,2l0,0a1.48,1.48,0,0,0,0,.47,1.37,1.37,0,0,0,.29.42,2.18,2.18,0,0,1,.28.46,1.5,1.5,0,0,1,0,.42c.54-.63,1.07-1.3,1.56-2ZM153.13,148Zm-48.9,3.12a1.4,1.4,0,0,1,.5,0,2,2,0,0,1,.39.25,23.61,23.61,0,0,1-.39-2.38v0a1.69,1.69,0,0,0-.36-.3,1.22,1.22,0,0,0-.5-.08,1.8,1.8,0,0,1-.52-.13,1.44,1.44,0,0,1-.33-.28c.06.85.17,1.69.31,2.52h0a1.24,1.24,0,0,0,.35.25A2.35,2.35,0,0,0,104.23,151.14ZM103,148.36Zm.45,3.25ZM120,173.77a2.39,2.39,0,0,0-.37.15l.1-.07a3,3,0,0,0-.78.59c-.18.19-.51.62-.89,1.09h0c.89-.77,2,.55,2,.55v0l.35-.35a6.36,6.36,0,0,1,.57-.46A2.49,2.49,0,0,1,120,173.77Zm-16.81-25.91a3,3,0,0,0,.51.14,1.44,1.44,0,0,1,.5.1,1.55,1.55,0,0,1,.36.31,21.56,21.56,0,0,1-.08-2.41v0a1.52,1.52,0,0,0-.33-.34,1.4,1.4,0,0,0-.49-.15,3,3,0,0,1-.5-.19,1.58,1.58,0,0,1-.27-.32,23.73,23.73,0,0,0,0,2.53h0A1.52,1.52,0,0,0,103.19,147.86Zm3.09,9.28a1.43,1.43,0,0,1,.5-.09,1.7,1.7,0,0,1,.45.15,22.85,22.85,0,0,1-1-2.2v0a1.38,1.38,0,0,0-.43-.19,1.4,1.4,0,0,0-.5,0,2.37,2.37,0,0,1-.53,0,1.41,1.41,0,0,1-.39-.19c.28.8.6,1.58,1,2.35h0a1.49,1.49,0,0,0,.4.15A2.33,2.33,0,0,0,106.28,157.14Zm-1.93-2.36Zm.13-16.83a1,1,0,0,0,.18.4,2.36,2.36,0,0,0,.42.33,1.32,1.32,0,0,1,.42.29,1.5,1.5,0,0,1,.21.42,21.69,21.69,0,0,1,.85-2.25v0a2.2,2.2,0,0,0-.17-.45,1.33,1.33,0,0,0-.38-.33,2.4,2.4,0,0,1-.4-.38,1.42,1.42,0,0,1-.14-.41c-.37.77-.71,1.55-1,2.34Zm-1.5,7.13Zm.53-4a1.16,1.16,0,0,0,.23.36,2,2,0,0,0,.47.28,1.53,1.53,0,0,1,.46.23,2,2,0,0,1,.26.39,23.56,23.56,0,0,1,.55-2.35v0a1.27,1.27,0,0,0-.23-.41,1.23,1.23,0,0,0-.43-.28,2.61,2.61,0,0,1-.43-.31,1.41,1.41,0,0,1-.19-.39c-.27.81-.49,1.62-.68,2.45Zm-.35,3.25a1.75,1.75,0,0,0,.28.33,2,2,0,0,0,.5.21,1.2,1.2,0,0,1,.48.17,1.73,1.73,0,0,1,.31.35A24.09,24.09,0,0,1,105,143v0a1.49,1.49,0,0,0-.28-.38,1.3,1.3,0,0,0-.46-.22,1.92,1.92,0,0,1-.47-.25,1.24,1.24,0,0,1-.25-.35,23.13,23.13,0,0,0-.35,2.5Zm.23-2.53ZM105,154.27a1.42,1.42,0,0,1,.5,0,1.56,1.56,0,0,1,.43.21,23.78,23.78,0,0,1-.7-2.32v0a1.41,1.41,0,0,0-.4-.25,1.21,1.21,0,0,0-.5,0,2.48,2.48,0,0,1-.54-.06,1.41,1.41,0,0,1-.35-.23c.17.82.38,1.64.63,2.45h0a1.54,1.54,0,0,0,.38.2,2,2,0,0,0,.55,0Zm11.44,14.54a1.55,1.55,0,0,0,.42-.12,2.73,2.73,0,0,0,.38-.38,1.23,1.23,0,0,1,.34-.38,1.76,1.76,0,0,1,.44-.15,24.16,24.16,0,0,1-2.13-1.14l0,0a1.41,1.41,0,0,0-.46.11,1.38,1.38,0,0,0-.38.34,2.25,2.25,0,0,1-.41.34,1.58,1.58,0,0,1-.42.09,23.66,23.66,0,0,0,2.19,1.28Zm-.34,8.69,1.28,1.5.53-.8L116.75,177A6,6,0,0,0,116.1,177.5Zm-1.85-10Zm2.8,9.28,1.14,1.1.15-.18-1.13-1.1Zm.42-.56,1.25,1.14.86-.83A1.46,1.46,0,0,0,117.47,176.25ZM115,166.3a1.86,1.86,0,0,1,.47-.09,20.8,20.8,0,0,1-2-1.41v0a1.83,1.83,0,0,0-.47.05,1.53,1.53,0,0,0-.41.31,2.27,2.27,0,0,1-.45.28,1.53,1.53,0,0,1-.43,0c.64.55,1.31,1.07,2,1.56h0a1.55,1.55,0,0,0,.43-.07,2.31,2.31,0,0,0,.42-.34A1.41,1.41,0,0,1,115,166.3Zm-4.69-4.13a1.83,1.83,0,0,1,.47,0c-.54-.6-1.05-1.22-1.53-1.87v0a1.84,1.84,0,0,0-.47-.07,1.35,1.35,0,0,0-.47.18,2.38,2.38,0,0,1-.52.15,1.86,1.86,0,0,1-.41-.08,24.79,24.79,0,0,0,1.52,2h0a1.53,1.53,0,0,0,.43,0,2.37,2.37,0,0,0,.5-.2A1.39,1.39,0,0,1,110.29,162.17Zm-3-1.53Zm.53-.62a1.23,1.23,0,0,1,.49-.16,1.22,1.22,0,0,1,.46.09,22.76,22.76,0,0,1-1.27-2.06v0a1.39,1.39,0,0,0-.45-.14,1.72,1.72,0,0,0-.5.11,2.35,2.35,0,0,1-.53.09,1.53,1.53,0,0,1-.41-.14,25.14,25.14,0,0,0,1.25,2.21h0a1.45,1.45,0,0,0,.41.1,2.21,2.21,0,0,0,.52-.14Zm4.68,4.47a1.75,1.75,0,0,1,.46,0,22.2,22.2,0,0,1-1.71-1.65v0a1.42,1.42,0,0,0-.46,0,1.26,1.26,0,0,0-.44.24,2.09,2.09,0,0,1-.48.22,1.39,1.39,0,0,1-.41,0,22.68,22.68,0,0,0,1.72,1.81h0a1.48,1.48,0,0,0,.42,0,2.07,2.07,0,0,0,.45-.27,1.18,1.18,0,0,1,.43-.26Zm-.85,1Zm-2.34-2.29Z"/><path id="flor" class="cls-4" d="M124.48,150.3h-.1a25.25,25.25,0,0,0-2.88.4c-.47-1.85-1.81-4.22-4.11-3.88-2,.28-2.8,2.3-2.32,4.1-2.81.39-5.18-1.89-5.75-4.48a6.34,6.34,0,0,1,6.07-7.78c5.75,0,8.84,7.58,9,11.63m7.27.11c.19-4.05,3.29-11.63,9-11.63a6.35,6.35,0,0,1,6.07,7.77c-.57,2.59-2.93,4.87-5.75,4.48.48-1.8-.35-3.82-2.32-4.1-2.3-.34-3.64,2-4.11,3.86a29,29,0,0,0-2.89-.37Zm-3.63,3.44c-4.29,0-7.77-.64-7.77-1.42s3.46-1.42,7.76-1.42,7.77.64,7.77,1.42-3.48,1.41-7.77,1.41m6.37.25A3.13,3.13,0,0,0,139,156.6a3.49,3.49,0,0,1-3.3,3.25c-2.41,0-3.82-3.68-4-5.38h0a24.91,24.91,0,0,0,2.71-.39Zm-10,.39c-.17,1.69-1.58,5.42-4,5.42a3.47,3.47,0,0,1-3.29-3.25,3.13,3.13,0,0,0,4.63-2.56v0a26.83,26.83,0,0,0,2.69.4Zm3.64-27.54a27.42,27.42,0,0,0,3.1,2.69,9.21,9.21,0,0,1,3.91,7.1c0,4.41-3.68,8.28-4.14,13.6a21.32,21.32,0,0,0-2.4-.13c.1-5.4-.11-12.72-.47-18-.37,5.28-.57,12.6-.48,18a21.14,21.14,0,0,0-2.39.13c-.46-5.32-4.18-9.19-4.15-13.6a9.17,9.17,0,0,1,3.91-7.1,26.68,26.68,0,0,0,3.11-2.69m0,37.85a10.74,10.74,0,0,1-5.11-4.82,12.13,12.13,0,0,0,2.19-5.4c.75.06,1.57.09,2.4.09a43.35,43.35,0,0,0,.52,6.13,42,42,0,0,0,.51-6.13c.84,0,1.65,0,2.41-.09a12.13,12.13,0,0,0,2.19,5.4,10.65,10.65,0,0,1-5.11,4.82"/></svg>