<svg id="Capa_1" data-name="Capa 1" xmlns="http://www.w3.org/2000/svg" viewBox="0 0 256 256"><defs><style>.cls-1{fill:#00652a;}.cls-2{fill:#00407f;}.cls-3{fill:#e3ebbb;}.cls-4{fill:#fff;}.cls-5{fill:#00471f;}.cls-6{fill:#1d1d1b;}</style></defs><title>insignia-final</title><path class="cls-1" d="M32,0H224a32.09,32.09,0,0,1,32,32V224a32.09,32.09,0,0,1-32,32H32A32.09,32.09,0,0,1,0,224V32A32.09,32.09,0,0,1,32,0"/><path class="cls-2" d="M251.74,42.77V213.23c-45.11-2.25-81.06-40.1-81.06-85.23s35.9-83.06,81.07-85.23"/><path class="cls-3" d="M251.33,84.57l.1,2.38-3.05-.47,1-1.81h-1.81V82h-.67l-.28-1.53,1.9-.09-.09-1.62,1-1.72,1.73-2.76.67-2.89v13ZM215.4,203.08c-1.28-6.13,5.2-4.3,9.57-5,1.92-.11,0-3.35,1.73-4a24.73,24.73,0,0,0,10.17-5.45c2-1.31.56-4.11,2.75-4.9,2.61,1,5.45-6.58,4.51-7.76-4.76-1.17-9-7.16-13.51-3.53.46-2.78.7-4.51-3.17-4.36-5.41,2.74-1.63-1.31-1.77-4.12-.36-2.36-2.57,0-2.26-2.69.48-2.84-4.76-8.62-7.89-7.43-1.54.22.21-2.08-1.21-2.26-2.8.85-4.6-1.81-3.46-4.48-3.82,0-2.82-1.74-5.86-4.5-1.42-1.12-1.62,1.18-3.87,1.09-3-.32-.09-2.68.5-5.14,1.9-2.93-4.19-.52-5.64,1.29-1.22,2.94-1.62,2.87-2-.71-7.78-1.22-1-8.14-1.43-12.59,1.34.23,2.28-.73,1.59-2.71-2.15-.47-7-4.62-2.38-4.47.41-.59.61-3.91-1.18-4-2.75-.37-1.11,2.08-2.49,3.78-1.69,1.74-4.53-1.25-3.53-4.14,1.26-3.4,3.8-14.15,9.36-8.13,2.65,2.49,6.33,3.49,3.61,8.41-.86,1.31.78,2.72,2.25,1,1-1.93,2.73-1.92,3.8-4.43.66-.47-.48-2.82,1.19-3,4,.23,5.19-3.54,9.36-4.8,2.5-1.32,4.28-4.48,8.36-3.49,2.18,0-.79-4.9,3.29-3.09,2.52,2.22-2.43,3.88.24,4.28.3-.49.42-2.07,2.1-1.46,5.39-.64-3.67-3.53-.2-4.25-.67-2.91,3.77-2.34,4.21.32,1.3.92.85-1.67,2.77-.71.66.94-1.83,1.29-1.89,2.38.12.48.1.66-.81.47-.41,1.54,1.66.46,2.34,1.74,3.28,3.47,2.23-1.91,1.68-5.93-.48-1.58,1.94-1.66-.19-3.4.67-1.91-.55-1.46-1-3.35-.16-1.48,1.81-1.06,2.12-2.7.78-1.66-.79-4.68-2-2.65.39,1.16-1.21-.33-1,1,.25.9-.61.89-1.66.55-.19-.2-1.21-2.66.2-2.81,2.71-1.2-.3-6.22-3.29-4.16.48,2.08-1.9,0-1.08,2.47-.09.51-1.21,2.11-2.49,1.57-.46.19.73,2.06-.35,2.1-3.42-1-.41,1.62-2.3,2.06-1.24.06-.09,1.34-1.79,2.14-.58,1.07-1.43,2.33-2.34.2-2-.44.4-2.31.6-3.21,0-.56-.09-1,1-.67-.37-1.92,2.25.46,2.1-2.08.68-2.6-4.68-.64-1.86-5.37,1.56.4.09-1.9.47-2.94,1.67-.4,3.87.26,4.52-2.06,2.18,0,0-1.52,1.57-2,1.38-.11.55,2.61,2.79,2.31-.56-3.56,11.62,1.94,7.17-3.78-2.3.89-.38-1.11-1.86-1.34-.69-.12-1.3.79-1.38-.53a5.8,5.8,0,0,0,.83-4.26c.49,0,1.37.32,1.18-1.34-.88-1.42-3.57,0-2.55-4.12.51-4.74,9.36-.86,8.19-7.07-3.34-2.71-2.61,1.11-5.79-.08-.66-3.35-1.76,1.14-3.65,0-.71-3.11-2.35.27-4.2.08-.11,1.8-1.48,3.18-2.27,5.05-2.83-.84-.73,1-3,.78-2.12-.71-.63,1.39-3,.8-1.19-.24,0,1.1-1.21,1.11-.35.08-1.38-.57-1.3.25-.21,1.1-2.57,1.22-3.08,2.62.28,1.3-.57,1.35-1.6,2.53-1.78.41-1.34,3.43-3.93,3.88,1.06,2.86-5,4.35-7.23,4.23-7.47,15.11-7.87,1.07-20,31.39,2.12-.16,1.15-3.06,3.22-5.22,2.56-.77-.77,4.48-1.35,6.5-1.37,2.8-1.58,5.36-1.87,8.79-2,.52-1.65,2.73-1.58,5.15,1.8.43,1.94,1.69,3.19,3.17,5.49.33.39,7.14,2.92,8.9,6,1.81-2.42,8.51,6.1,12.59.66.4-.9,2.79.35,3.33.43,0,1.33,1.32,0,1.51-1.41-.18.18,1.6-1,1.92-1.62-.08-.87,2.13-2.29,2.5-2.58-.29-1.13,2.2.18,2.85.51,2.12-1.65.46-1.12,2.46.21.89-2.62,1.5-.43,2.69,3.54-.7,1,3.65,2.33,6.78,3,1.65,1.66,5.95,6.36,7.91,4.34,2.8,3.47,10.26,6.42,13.61,0,1.69-1.48,3.82.89,3.59.5,8.65,5.09,9.75,11.44,12.51M250.92,63.85l-3.58.68-.13-1.66,2.41-2.81-.51-.66-1.82,1.87-1.78,3.5-1.12-1.41,1.41-1.93-3.14.28v-1l1.05-.48.29-.76-1.81-.1-.29,1h-1.14l.47-1.14-1-.67-2.86-.19L237,60.09l-.57-.19-.29-2.19,1.52-.1V56.38l1-1,1.72-1.23L242.66,53l1.15-1.52.25-.76,2-.79,1.89-.93,3.21-.25.58-.19V63.69ZM235.71,78.47l-1-.09.09-3.33-.95.09v-2l1.9-.38,1,.67,1.33-1,.86-2.09.67-1.91L239,67.24l-1-.67-.18-1.43,4.09.1,1.24.47.19,1-1.24.86L242,68l1.52.09v1.72L243,70l1.62.57-.19,1.81-.76.19L243.62,74h-.86l.09,3-1.9-.09-.28-2.67-1.63.09.2,2.2L240,77v2.67h-1.81l-.48,1.71L236,81.05Zm16-35.7V47.3l-4.7.36-3.65.12-1.08.7L242.25,46l3.35-.11.09-.82,1.11-.93L248.46,43c1.09-.09,2.2-.18,3.27-.23m-42,96.53,0,1.82h1l-.11-1.86Zm-1.93-5-.07,1.86,1.18.11-.15-2.08Z"/><path class="cls-4" d="M252.9,133.87h0q-7.87-6.81-15.29-14.19t-14.5-15.51q-7-8.06-13.54-16.77c14,8,27.73,15.16,41.26,21.48l1.14-3C236.59,98.67,220.91,90.33,204.92,81a303.13,303.13,0,0,1-24.83-41.75l4.91-.38q17-1.19,33.57-1.57t32.76,0h.29l.06-3.28h-.25q-16.25-.34-32.91,0t-33.69,1.57c-2.08.14-4.18.32-6.27.48A315.25,315.25,0,0,1,165.24,3.68l-2.76,1.18a321,321,0,0,0,12.85,31.48Q158.32,37.74,141,40q-25.09-17.43-51-37L88.31,5.63c16.27,12.26,32.28,24,48,35A748.59,748.59,0,0,0,3.85,71l.84,3.16A745.37,745.37,0,0,1,140.32,43.36q16,11.09,31.61,21.16T203,83.6q8.55,12,18,22.85,7.1,8.14,14.66,15.67t15.44,14.35h0l1.81-2.6ZM173.42,61.68q-14-9-28.33-18.91,16-2,31.75-3.25A307.22,307.22,0,0,0,198.61,77.3Q186.13,69.88,173.42,61.68Z"/><path class="cls-5" d="M140.55,119.31,128,78.43,115.5,119.36,77.72,99.28l20,37.77-41,12.53,40.88,12.56L77.6,200l37.82-20L128,221,140.63,180l37.86,20-20.05-37.87,40.9-12.6-41-12.58,20-37.79L152.4,113Zm-12.47-2.45a32.83,32.83,0,1,1-32.83,32.83,32.83,32.83,0,0,1,32.83-32.83M84.65,140.8,62.28,122.31l29,2.79m-.58,49.06L62.2,176.84l22.53-18.61m34.41,35.07-18.39,22.21,2.76-29.16m49.15.25,2.72,28.91-18.82-22.72m34.9-34.52L194,176.86l-29.39-2.77m.27-49,29-2.78L171.33,141m-34.85-34.31,18.81-22.82-2.78,29.09m-48.86.22-2.8-29.29,18.57,22.53M155.26,83.8l3.37-8.15m19.75,23.56L184.61,93m9.27,29.3,8.14-3.37m-2.81,30.66,8.94.11m-14.3,27.15,8.25,3.42m-23.61,19.79,6.23,6.23m-29.45,9.1,3.44,8.31M128,221v8.77m-27.26-14.39-3.42,8.28M77.6,200l-6.22,6.23m-9.21-29.37L54,180.22M57,149.58H48m14.24-27.24L54.11,119M78,99.51,71.49,93m29.37-9L97.42,75.7m30.66,2.73a71.26,71.26,0,1,1-71.27,71.26,71.27,71.27,0,0,1,71.27-71.26m0-8.81A80.07,80.07,0,1,1,48,149.69a80.08,80.08,0,0,1,80.07-80.07"/><path class="cls-6" d="M128,231a4,4,0,1,1-4,4,4,4,0,0,1,4-4m84.95-85.53a4,4,0,1,1-4,4,4,4,0,0,1,4-4m-169.84-.06a4,4,0,1,1-4,4,4,4,0,0,1,4-4m59-69.23A2.08,2.08,0,1,1,101,78.86a2.07,2.07,0,0,1,1.13-2.72m50.35.1A2.08,2.08,0,1,1,151.35,79a2.08,2.08,0,0,1,1.12-2.72m7.39,2.94a2.08,2.08,0,1,1-1.13,2.71,2.07,2.07,0,0,1,1.13-2.71m17.8,12a2.08,2.08,0,1,1-1.13,2.71,2.07,2.07,0,0,1,1.13-2.71m5.91,5.71a2.08,2.08,0,1,1-1.12,2.72,2.07,2.07,0,0,1,1.12-2.72m12.07,17.87a2.08,2.08,0,1,1-1.13,2.72,2.07,2.07,0,0,1,1.13-2.72m3,7.45a2.08,2.08,0,0,1,1.59,3.85,2.08,2.08,0,0,1-1.59-3.85M203,143.52a2.08,2.08,0,1,1-1.13,2.71,2.09,2.09,0,0,1,1.13-2.71M94.77,79.32A2.08,2.08,0,1,1,93.64,82a2.08,2.08,0,0,1,1.13-2.71M76.9,91.13a2.08,2.08,0,1,1-1.12,2.72,2.09,2.09,0,0,1,1.12-2.72M59.11,114.69A2.07,2.07,0,1,1,58,117.4a2.08,2.08,0,0,1,1.12-2.71m-3,7.42A2.08,2.08,0,1,1,55,124.83a2.08,2.08,0,0,1,1.13-2.72m-4.4,21.15A2.08,2.08,0,1,1,50.56,146a2.09,2.09,0,0,1,1.12-2.72M71.07,96.9a2.08,2.08,0,1,1-1.13,2.72,2.07,2.07,0,0,1,1.13-2.72M203,151.67a2.08,2.08,0,1,1-1.13,2.71,2.07,2.07,0,0,1,1.13-2.71m-4.24,21a2.08,2.08,0,1,1-1.13,2.71,2.06,2.06,0,0,1,1.13-2.71m-3.12,7.71a2.08,2.08,0,1,1-1.12,2.72,2.09,2.09,0,0,1,1.12-2.72M183.9,198a2.08,2.08,0,1,1-1.13,2.71A2.07,2.07,0,0,1,183.9,198m-6.24,6.15a2.08,2.08,0,1,1-1.13,2.71,2.08,2.08,0,0,1,1.13-2.71m-17.75,11.7a2.08,2.08,0,1,1-1.13,2.72,2.07,2.07,0,0,1,1.13-2.72M152.37,219a2.08,2.08,0,1,1-1.12,2.73,2.09,2.09,0,0,1,1.12-2.73m-21.09,4a2.08,2.08,0,1,1-1.13,2.71,2.08,2.08,0,0,1,1.13-2.71m-29.37-4.19a2.08,2.08,0,1,1-1.12,2.72,2.08,2.08,0,0,1,1.12-2.72M76.48,203.62a2.08,2.08,0,1,1-1.12,2.71,2.08,2.08,0,0,1,1.12-2.71M59.11,180.13A2.08,2.08,0,1,1,58,182.85a2.06,2.06,0,0,1,1.13-2.72m-3.32-7.83A2.08,2.08,0,1,1,54.67,175a2.08,2.08,0,0,1,1.12-2.71m15.1,25.55a2.08,2.08,0,1,1-1.12,2.71,2.08,2.08,0,0,1,1.12-2.71m23.48,17.93a2.08,2.08,0,1,1-1.13,2.71,2.07,2.07,0,0,1,1.13-2.71m28.77,7.4a2.08,2.08,0,1,1-1.12,2.71,2.08,2.08,0,0,1,1.12-2.71M51.75,151.41a2.08,2.08,0,1,1-1.13,2.72,2.08,2.08,0,0,1,1.13-2.72"/><path class="cls-6" d="M209.2,149.68a81.07,81.07,0,0,0-80-81.08l.22-11.69h9.73a47.13,47.13,0,0,1-.77,7.37l14.37-9.12L138.42,46a59.86,59.86,0,0,1,.77,8h-9.67l0-2.81a6.31,6.31,0,0,0,.23-12.25l.16-8.26a48.75,48.75,0,0,1,7.68.77l-9.12-14.36-9.16,14.36a58.57,58.57,0,0,1,7.67-.75l-.16,8.16a6.31,6.31,0,0,0-.23,12.3L126.58,54h-9.42a59.83,59.83,0,0,1,.76-8l-14.36,9.16,14.36,9.12a48.35,48.35,0,0,1-.76-7.37h9.37l-.23,11.7A81.05,81.05,0,0,0,47,149.68h0a81.1,81.1,0,0,0,81.11,81.11h0A81.12,81.12,0,0,0,209.2,149.7h0Zm-8.56-31.32-6.2,2.56a72.45,72.45,0,0,0-14.58-21.7l4.74-4.74A79.21,79.21,0,0,1,200.64,118.36Zm-62.8,74.31,3.42-11.11,10.38,5.49L154,212.21Zm15.83,22.42a69.87,69.87,0,0,1-24.22,4.8l7.64-24.81Zm-25.59-33.63h0A31.8,31.8,0,0,1,96.3,149.7h0a34.16,34.16,0,0,1,2-11.7h0a1.06,1.06,0,0,0,.49-1.3,29,29,0,0,1,16.37-15.83,35.63,35.63,0,0,1,13.05-2.47,35.19,35.19,0,0,1,13,2.45,28.65,28.65,0,0,1,16.19,15.75l0,.12a1.05,1.05,0,0,0,.57,1.26,34.75,34.75,0,0,1,1.92,11.73h0a31.8,31.8,0,0,1-31.77,31.77h0Zm-26,30.74L104.5,187l10.29-5.44,3.45,11.23Zm16.86-17,7.61,24.73a69.72,69.72,0,0,1-24.12-4.8Zm41-32.34,11.17-3.44,19.51,16.12-25.22-2.38Zm16,34.71L143,180.11a34.22,34.22,0,0,0,9-6.46,33.68,33.68,0,0,0,6.49-9.08Zm-15.78-37A33.8,33.8,0,0,0,162,149.7h0a37.54,37.54,0,0,0-1.54-11l35.34,10.85Zm-.29-24.17,5.44-10.27,25.22-2.42L171.06,139.8Zm-1.23-2.18a30.64,30.64,0,0,0-15.76-14.93l10-5.31,23-12.19Zm7.85-10.32L178.64,101a70.46,70.46,0,0,1,13.71,20.41Zm-12.77-12.76,2.47-25.77A70.4,70.4,0,0,1,176.61,99Zm-2.22,1.18-10.34,5.49-3.39-11.07,16.13-19.57Zm-14.47-8-7.61-24.81a70.14,70.14,0,0,1,24.14,4.77ZM139,117.84a38.07,38.07,0,0,0-22,.12L128,82Zm-20-13.6-16.46-20a70,70,0,0,1,24-4.76Zm-.73,2.4-3.42,11.19-10.24-5.44-2.42-25.24ZM94.2,149.7A33.82,33.82,0,0,0,96,160.5L60.4,149.58l35.35-10.82a37.42,37.42,0,0,0-1.56,10.93h0Zm2,13.07-5.52,10.39v0L65.5,175.48,85,159.35Zm1.45,1.77A34.09,34.09,0,0,0,113,180.06L80.14,197.45ZM85.12,139.82,65.6,123.69l25.17,2.42,5.47,10.31Zm-4.86-38,33,17.54a31,31,0,0,0-15.75,14.93Zm22.15,9.38L79.48,99A70.33,70.33,0,0,1,99.93,85.35ZM89.59,123.88,63.8,121.4A70.74,70.74,0,0,1,77.46,101ZM82.7,140.56l-24.81,7.59A70,70,0,0,1,62.7,124Zm-.07,18.05-20,16.52A69.78,69.78,0,0,1,57.88,151Zm6.86,16.72L77.34,198.22A70.62,70.62,0,0,1,63.7,177.76Zm12.79,12.79L99.84,214a70.37,70.37,0,0,1-20.47-13.74Zm51.58.1,22.86,12.09A70.29,70.29,0,0,1,156.29,214Zm12.74-12.88,25.85,2.43a70.18,70.18,0,0,1-13.7,20.51Zm7-16.71L198.28,151a70,70,0,0,1-4.75,24.12Zm-.08-18.09,20-16.52a69.85,69.85,0,0,1,4.83,24.13ZM183.11,93l-4.74,4.74a72.24,72.24,0,0,0-21.74-14.49L159.2,77A79.39,79.39,0,0,1,183.11,93ZM157.25,76.24l-2.56,6.19a71.92,71.92,0,0,0-25.62-5l.13-6.71A78.69,78.69,0,0,1,157.25,76.24Zm-31-5.53-.12,6.7h.31a72.38,72.38,0,0,0-25.09,5.06L98.8,76.28A78.57,78.57,0,0,1,126.26,70.71ZM96.85,77.08l2.57,6.2a72.24,72.24,0,0,0-21.7,14.51L73,93.05A79.39,79.39,0,0,1,96.85,77.08ZM71.49,94.54l4.74,4.74A72.42,72.42,0,0,0,61.69,121L55.5,118.4A79.28,79.28,0,0,1,71.49,94.54Zm-16.8,25.8,6.2,2.57a71.93,71.93,0,0,0-5.12,25.61H49.06A78.84,78.84,0,0,1,54.69,120.34Zm-5.63,30.29h6.71a72.39,72.39,0,0,0,5,25.65l-6.19,2.56A78.91,78.91,0,0,1,49.06,150.63Zm6.36,30.16,6.19-2.57A72.33,72.33,0,0,0,76.12,200l-4.74,4.74A79.08,79.08,0,0,1,55.42,180.79Zm17.45,25.43,4.73-4.74a72.81,72.81,0,0,0,21.73,14.59l-2.56,6.19A79.11,79.11,0,0,1,72.87,206.22ZM127,228.71a78.71,78.71,0,0,1-28.25-5.64l2.57-6.2A71.88,71.88,0,0,0,127,222ZM128,217.38l-11-35.64a33.73,33.73,0,0,0,11,1.83h0a33.85,33.85,0,0,0,10.9-1.79Zm1,11.33V222a72.13,72.13,0,0,0,25.7-5.08l2.57,6.19A78.79,78.79,0,0,1,129.07,228.71Zm30.21-6.41-2.56-6.19a72.43,72.43,0,0,0,21.77-14.57l4.73,4.73A79,79,0,0,1,159.28,222.3Zm25.44-17.51L180,200a72.36,72.36,0,0,0,14.55-21.78l6.19,2.57A79.21,79.21,0,0,1,184.72,204.79Zm16.8-25.91-6.19-2.56a72,72,0,0,0,5-25.68l6.71.09A78.86,78.86,0,0,1,201.52,178.88Zm-1.14-30.34a72.1,72.1,0,0,0-5.13-25.68l6.19-2.56a78.47,78.47,0,0,1,5.65,28.33Z"/><path class="cls-6" d="M104.92,126.54,77.79,99.41l37.78,20a35.86,35.86,0,0,0-10.65,7.08m-9.59,23H57L97.85,137a35.91,35.91,0,0,0-2.52,12.54m9.38,23.25L77.59,199.94l20-37.78a36.19,36.19,0,0,0,7.08,10.65M128,182.6V221l-12.53-40.89A35.85,35.85,0,0,0,128,182.6M151.41,173l27.12,27.12-37.77-20A36.38,36.38,0,0,0,151.41,173m9.42-23.48h38.36l-40.88,12.53a36.31,36.31,0,0,0,2.52-12.53m-9.57-22.92,27.13-27.13-20,37.77a36.08,36.08,0,0,0-7.08-10.64M128,116.77V78.41l12.54,40.88A36.32,36.32,0,0,0,128,116.77"/><path class="cls-2" d="M63.87,44.48A10.67,10.67,0,1,1,53.2,55.15,10.67,10.67,0,0,1,63.87,44.48M4.27,167.15V210c4.59-10.21,11.27-21.94,18.2-35.26,20-38.37,14.4-61.93,1-77.55,5.27,17.26,1.22,38.4-16.35,65.3-1,1.54-1.95,3.08-2.86,4.62M4.27,84v45.26C9.38,119.72,15,110,20.21,100.52,43.55,57.72,37.06,31.46,21.39,14c6,18.64,2.14,41.47-17.12,69.93"/><path class="cls-3" d="M151.23,126.54l27.14-27.13-37.78,20a36,36,0,0,1,10.64,7.08m9.6,23H199.2L158.31,137a36.37,36.37,0,0,1,2.52,12.54m-9.38,23.25,27.13,27.13-20.06-37.78a36.15,36.15,0,0,1-7.07,10.65m-23.3,9.79V221l12.53-40.89a35.81,35.81,0,0,1-12.53,2.52M104.75,173,77.63,200.16l37.77-20A36.38,36.38,0,0,1,104.75,173m-9.42-23.48H57l40.89,12.53a36.08,36.08,0,0,1-2.52-12.53m9.56-22.92L77.77,99.51l20,37.77a36.24,36.24,0,0,1,7.07-10.64m23.26-9.87V78.41l-12.53,40.88a36.26,36.26,0,0,1,12.53-2.52"/><path class="cls-5" d="M29,0H227V0a29,29,0,0,1,29,29h0V227h0a28.93,28.93,0,0,1-8.5,20.49h0A28.87,28.87,0,0,1,227,256v0H29v0a28.89,28.89,0,0,1-20.49-8.51h0A28.87,28.87,0,0,1,0,227H0V29H0A29,29,0,0,1,29,0V0ZM227,8.53H29A20.61,20.61,0,0,0,8.52,29h0V227h0a20.43,20.43,0,0,0,6,14.45h0a20.46,20.46,0,0,0,14.46,6H227a20.42,20.42,0,0,0,14.45-6h0A20.46,20.46,0,0,0,247.49,227h0V29h0A20.61,20.61,0,0,0,227,8.52Z"/><circle id="fondo" class="cls-5" cx="128" cy="150" r="32"/><path id="rizo" class="cls-4" d="M129.55,122.8a1.52,1.52,0,0,0,.17-.48,2,2,0,0,1,.21-.5,1.35,1.35,0,0,1,.32-.26v0c.84.08,1.68.19,2.5.35a1.48,1.48,0,0,0-.35.25,2.37,2.37,0,0,0-.25.47,1.35,1.35,0,0,1-.22.47,1.46,1.46,0,0,1-.38.27h0c-.79-.12-1.6-.2-2.4-.25A1.36,1.36,0,0,0,129.55,122.8Zm3.23-.91Zm-.53,1.58a22.93,22.93,0,0,1,2.35.55l0,0a1.47,1.47,0,0,0,.41-.22,1.41,1.41,0,0,0,.27-.43,2.29,2.29,0,0,1,.32-.43,1.54,1.54,0,0,1,.38-.2h0a22.1,22.1,0,0,0-2.45-.67h0a1.43,1.43,0,0,0-.37.23,2.59,2.59,0,0,0-.26.46,1.53,1.53,0,0,1-.23.46A2,2,0,0,1,132.25,123.47Zm-6-2Zm-.8,1.72a1.74,1.74,0,0,0,.3-.36,1.22,1.22,0,0,0,.08-.5,2.33,2.33,0,0,1,.13-.52,1.34,1.34,0,0,1,.29-.34c-.85.06-1.69.17-2.52.31v0a1.48,1.48,0,0,0-.25.35,1.88,1.88,0,0,0-.07.53,1.69,1.69,0,0,1,0,.5,2,2,0,0,1-.25.39,23.61,23.61,0,0,1,2.38-.39ZM105.81,135a1.39,1.39,0,0,0,.12.41,2,2,0,0,0,.38.39,1.52,1.52,0,0,1,.38.34,1.7,1.7,0,0,1,.15.45,21.78,21.78,0,0,1,1.14-2.13h0a1.47,1.47,0,0,0-.11-.46,1.4,1.4,0,0,0-.35-.38,2.25,2.25,0,0,1-.34-.41,2.07,2.07,0,0,1-.08-.42c-.46.71-.89,1.44-1.28,2.19Zm22.71-11.9h0a1.72,1.72,0,0,0,.34-.32,1.31,1.31,0,0,0,.15-.5,2.47,2.47,0,0,1,.19-.5,1.22,1.22,0,0,1,.33-.27h0a21.38,21.38,0,0,0-2.53,0h0a1.47,1.47,0,0,0-.29.32,1.75,1.75,0,0,0-.14.51,1.45,1.45,0,0,1-.11.5,2.11,2.11,0,0,1-.31.36A21.13,21.13,0,0,1,128.52,123.05Zm7.27,45.5a17.82,17.82,0,0,0-2.6,1.08,3.45,3.45,0,0,0-.33.16,1.72,1.72,0,0,0-.11.5c0,.15,0,.39,0,.55a1.83,1.83,0,0,1-.31.81,9,9,0,0,0,2.59-1l.41-.22a2.81,2.81,0,0,0,.1-.31,2.34,2.34,0,0,0,.07-.45c0-.15-.12-.25-.07-.46a3.17,3.17,0,0,1,.28-.62Zm-7.29,3.1a4.34,4.34,0,0,0,1.35-.89c.11-.11.44-.36.55-.47s-1.07-.91-.87-1.55c-1.2,1-1.68,1.58-2.68,1.58-.25,0,0,0,0,0a1.8,1.8,0,0,0-.25.5,2.26,2.26,0,0,0-.1.45,3.25,3.25,0,0,0,0,.54A4.1,4.1,0,0,0,128.5,171.65Zm-1.63-1.82a2,2,0,0,0,.91-.38l.43-.34a3.06,3.06,0,0,0-2.63-1.16c-.18,0-.45,0-.58.15h0s-.89,1.1-.53,1.48a3,3,0,0,1,1,0,3.2,3.2,0,0,1,1.11.19Zm5.18,4.42s1.22-1.14,2-.78l-.17-.16a4.21,4.21,0,0,0-2.39-.85c-.75,0-2.07.2-2.37.69a4,4,0,0,1,1.85.94C131,174.16,131.33,174.07,132.05,174.25Zm-1.57-3.31-.43.36c-.1.08-.55.35-.61.4s.81.39,2.29.17h0a1.48,1.48,0,0,0,.25-.35,2.23,2.23,0,0,0,.16-.56,3.18,3.18,0,0,0,.06-.43,1.51,1.51,0,0,1,.07-.37c-.17.08-1.05.38-1.05.38l-.41.09c-.12.1-.22.23-.33.32Zm-4.09-.63a1.63,1.63,0,0,0-.25.47,2.79,2.79,0,0,0-.14.47c-.14.64,0,.64,0,.64a9.26,9.26,0,0,1-3.15-.77s.23-.29.3-.35.22-.14.29-.29a1.51,1.51,0,0,1,.67-.44,15.12,15.12,0,0,0,2,.29Zm5.8-2.63a4.64,4.64,0,0,0-2.17.81h0c-.4.45.89,1.45.89,1.45h0a2.1,2.1,0,0,1,1.8-.66,18.35,18.35,0,0,1,1.9-.76,2.61,2.61,0,0,0-2.42-.84Zm-20-39.53a1.3,1.3,0,0,1,.22.46,1.83,1.83,0,0,1,0,.47c.6-.54,1.22-1.05,1.87-1.53h0a1.26,1.26,0,0,0,.08-.47,1.35,1.35,0,0,0-.18-.47,4.13,4.13,0,0,1-.15-.5,2,2,0,0,1,.08-.43c-.7.48-1.37,1-2,1.53v0a1.39,1.39,0,0,0,0,.41A2.37,2.37,0,0,0,112.14,128.15Zm-3.08,2Zm-1.56,1.93a1.61,1.61,0,0,0,.07.43,2.65,2.65,0,0,0,.33.42,1.41,1.41,0,0,1,.34.39,1.79,1.79,0,0,1,.09.46,22.72,22.72,0,0,1,1.42-2h0a1.51,1.51,0,0,0,0-.47,1.33,1.33,0,0,0-.29-.41,2,2,0,0,1-.28-.46,2.09,2.09,0,0,1,0-.43c-.54.64-1.06,1.3-1.55,2Zm2.23-2c-.08.17,0,.32.12.47a1.44,1.44,0,0,1,.27.42,1.56,1.56,0,0,1,0,.48h0c.52-.62,1.07-1.21,1.65-1.84h0a1,1,0,0,0,0-.4,1.33,1.33,0,0,0-.25-.45,2.71,2.71,0,0,1-.22-.49,1.56,1.56,0,0,1,0-.43h0c-.64.57-1.24,1.16-1.88,1.78v0a.81.81,0,0,0,.25.43Zm10.1-7.18Zm.25,1.66a21.14,21.14,0,0,1,2.31-.7h0a1.41,1.41,0,0,0,.25-.4,1.25,1.25,0,0,0,0-.51,2.33,2.33,0,0,1,.06-.53,1.48,1.48,0,0,1,.23-.36,23.22,23.22,0,0,0-2.45.64h0a1.83,1.83,0,0,0-.23.38,2.35,2.35,0,0,0,0,.53,1.1,1.1,0,0,1,0,.51,1.19,1.19,0,0,1-.21.42Zm-5.41,2.35a1.86,1.86,0,0,1-.09.47,22.76,22.76,0,0,1,2.06-1.27h0a1.47,1.47,0,0,0,.14-.45,1.72,1.72,0,0,0-.11-.5,2.35,2.35,0,0,1-.09-.53,1.53,1.53,0,0,1,.14-.41,25.14,25.14,0,0,0-2.21,1.25v0a1.5,1.5,0,0,0-.09.42,2.33,2.33,0,0,0,.13.52A1.34,1.34,0,0,1,114.67,126.85Zm2.82-1.5a1.42,1.42,0,0,1-.16.45c.72-.37,1.45-.7,2.21-1h0a1.69,1.69,0,0,0,.2-.43,1.67,1.67,0,0,0,0-.5,2.37,2.37,0,0,1,0-.53,1.41,1.41,0,0,1,.19-.39c-.8.28-1.58.6-2.35,1v0a1.44,1.44,0,0,0-.15.41,2.31,2.31,0,0,0,.06.52A1.44,1.44,0,0,1,117.49,125.35Zm5.34,45.77Zm24-41.25Zm-.92.93a1.06,1.06,0,0,1-.47,0h0a23.33,23.33,0,0,1,1.54,1.88v0a1.77,1.77,0,0,0,.46.08,1.33,1.33,0,0,0,.48-.18,2.21,2.21,0,0,1,.5-.15,1.16,1.16,0,0,1,.42.08c-.47-.7-1-1.38-1.53-2.16h0a.63.63,0,0,1-.42.09,2.75,2.75,0,0,0-.5.2,1.05,1.05,0,0,1-.47.21Zm-2.2-2.25a.76.76,0,0,1-.48.1,21.08,21.08,0,0,1,1.75,1.66v0a1.29,1.29,0,0,0,.48,0,1.43,1.43,0,0,0,.45-.25,2,2,0,0,1,.49-.21,1.19,1.19,0,0,1,.42,0,20.05,20.05,0,0,0-1.78-1.79h0a1,1,0,0,0-.42,0,2.34,2.34,0,0,0-.47.25.65.65,0,0,1-.43.25Zm-2.52-1.75a1.58,1.58,0,0,1-.48.1,23.86,23.86,0,0,1,2,1.44v0a1.31,1.31,0,0,0,.48,0,1.28,1.28,0,0,0,.43-.3,2,2,0,0,1,.47-.28,1.29,1.29,0,0,1,.44,0c-.66-.56-1.34-1.09-2.06-1.6h0a1.61,1.61,0,0,0-.43.07,3,3,0,0,0-.44.33,1.4,1.4,0,0,1-.42.35Zm.67-1.22Zm9.92,12.73Zm-.8.5a.62.62,0,0,1-.4,0,1.4,1.4,0,0,1-.43-.2,9.1,9.1,0,0,1,.58,2.31v0c.24.1.38.18.52.25a1.69,1.69,0,0,0,.5,0,2,2,0,0,1,.54.05,1.21,1.21,0,0,1,.35.24,21.84,21.84,0,0,0-.64-2.44h0a.86.86,0,0,0-.38-.22,2.93,2.93,0,0,0-.62,0Zm1.67,2.67ZM149.93,136a1.43,1.43,0,0,1-.5.09,1.7,1.7,0,0,1-.45-.15,21.8,21.8,0,0,1,1,2.2v0a1.38,1.38,0,0,0,.43.19,1.4,1.4,0,0,0,.5,0,1.63,1.63,0,0,1,.54,0,1.46,1.46,0,0,1,.38.18,25.09,25.09,0,0,0-1-2.35h0a1.44,1.44,0,0,0-.41-.15A1.84,1.84,0,0,0,149.93,136Zm-1.7-2.82a.9.9,0,0,1-.43.16,1.87,1.87,0,0,1-.46-.09,8.86,8.86,0,0,1,1.14,2.05v0c.28.06.43.11.59.13a1.25,1.25,0,0,0,.5-.11,1.89,1.89,0,0,1,.53-.08,1.17,1.17,0,0,1,.4.13c-.38-.76-.79-1.49-1.25-2.25h0l-.42-.05a4.12,4.12,0,0,0-.59.12Zm2.27,2.16ZM121,174.55a5,5,0,0,0,1.5-.05c.16-.06.3-.15.42-.2h0a2.82,2.82,0,0,1-1-2.17c-1.1-.13-1.37-1.33-1.39-1.4a4.26,4.26,0,0,0-.25,1.37,4.46,4.46,0,0,0,.7,2.45ZM152,142a1.2,1.2,0,0,1-.5,0,1.62,1.62,0,0,1-.39-.25,24.08,24.08,0,0,1,.39,2.38v0a1.31,1.31,0,0,0,.36.3,1.22,1.22,0,0,0,.5.08,2.33,2.33,0,0,1,.52.13,1.22,1.22,0,0,1,.32.28,24.07,24.07,0,0,0-.31-2.52h0a1.48,1.48,0,0,0-.35-.25A2.27,2.27,0,0,0,152,142Zm-27.84,31.79a2.48,2.48,0,0,1,.94.21s1.16-1.2,1.29-1.15a6.11,6.11,0,0,0-3.78-.25l.23.41.61.84Zm-3.61-3Zm32.57-26Zm-29,25.33Zm0,0Zm-.63-1.95a4.42,4.42,0,0,0-2.59,2h0s.27,1.36,1.16,1.4a4,4,0,0,1,1.39-1.54l.17-.2A2.31,2.31,0,0,1,124,168ZM139,124Zm-3.36.13a1.65,1.65,0,0,1-.42.21c.76.25,1.52.53,2.25.85h0a1.74,1.74,0,0,0,.45-.17,1.34,1.34,0,0,0,.32-.39,2,2,0,0,1,.37-.39,1.36,1.36,0,0,1,.4-.14,22.94,22.94,0,0,0-2.33-1h0a1.38,1.38,0,0,0-.39.18,2.18,2.18,0,0,0-.33.42A1.23,1.23,0,0,1,135.64,124.08Zm2.88,1.11a1.76,1.76,0,0,1-.44.15c.72.35,1.44.73,2.13,1.14l0,0a1.47,1.47,0,0,0,.46-.11A1.37,1.37,0,0,0,141,126a2.25,2.25,0,0,1,.41-.34,1.25,1.25,0,0,1,.42-.08,24.15,24.15,0,0,0-2.19-1.29h0a1.23,1.23,0,0,0-.41.13,2.22,2.22,0,0,0-.38.37,1.26,1.26,0,0,1-.34.39Zm-20.64,43.43a2.28,2.28,0,0,1-.38.38,1.42,1.42,0,0,1-.41.14c.77.37,1.55.71,2.34,1h0a1.38,1.38,0,0,0,.39-.18,2.18,2.18,0,0,0,.33-.42,1.37,1.37,0,0,1,.29-.42,1.65,1.65,0,0,1,.42-.21,22.65,22.65,0,0,1-2.25-.86l0,0a1.74,1.74,0,0,0-.45.17A1.34,1.34,0,0,0,117.88,168.62Zm17.7,5.17a2.9,2.9,0,0,0,.36-2.88l-1.81.83a1,1,0,0,1-.21,1.17s1.76.77,1.66.88Zm1.09,4.78.5.82,1.33-1.45a6,6,0,0,0-.63-.5Zm.69-1.5-1.18,1.05.16.17,1.19-1Zm4.79-9.73ZM139.32,169Zm2-2.76a1.51,1.51,0,0,1,.09-.47,20.8,20.8,0,0,1-2.06,1.28h0a1.45,1.45,0,0,0-.13.45,1.25,1.25,0,0,0,.11.5,2.34,2.34,0,0,1,.08.53,1.34,1.34,0,0,1-.13.4,21.79,21.79,0,0,0,2.2-1.25h0a2.13,2.13,0,0,0,.1-.42,2.35,2.35,0,0,0-.14-.52,1.2,1.2,0,0,1-.14-.49Zm-6.22,10.62.83.87,1.29-1.09a1.45,1.45,0,0,0-2.12.22Zm3.65-9.06a1.36,1.36,0,0,1,.14-.4c-.65.33-1.31.63-2,.9h0a2,2,0,0,0-.2.38,1.25,1.25,0,0,0,0,.47,2,2,0,0,1,0,.49,2.62,2.62,0,0,1-.15.39c.71-.25,1.56-.58,2.26-.9v0a1.58,1.58,0,0,0,.14-.36,3.5,3.5,0,0,0-.06-.48,1.27,1.27,0,0,1-.09-.47Zm-13.22,6.81a1.65,1.65,0,0,1-.58,1.89c1.4.36,3-1.15,3-1.15a5.46,5.46,0,0,0-1.67-.57Zm4.68-.33A7.53,7.53,0,0,0,127.3,173l-1.55,1.09,1.85.61c.56.15.71.42,1.41.87,0,0,1.64-.94,1.16-1.32Zm-5.25.45a1.94,1.94,0,0,1-.48,0,2.47,2.47,0,0,1-.89-.17h0c-.25.77-2,.6-2,.6a4.27,4.27,0,0,0,2.36,1.17h0s1-.21,1-1.63Zm11.69,1.14h0c-.36-.48-.67-.9-.85-1.09a5.08,5.08,0,0,0-.75-.64,1.71,1.71,0,0,0-2.33.35,5.26,5.26,0,0,1,1.67,1.48l.22.37s1.2-1.25,2-.46Zm-2.14.5v0h0Zm-2.08-1.72a3.21,3.21,0,0,1-1.5-.07c.07.47-1.3,1.38-1.3,1.38a3.6,3.6,0,0,0,2.15.54,2.7,2.7,0,0,0,1.6-.64,2.89,2.89,0,0,1-.95-1.21ZM105.46,135.6ZM153,148.75a1.75,1.75,0,0,0-.28-.33,2,2,0,0,0-.5-.21,1.2,1.2,0,0,1-.48-.17,1.47,1.47,0,0,1-.31-.35,24.08,24.08,0,0,1-.24,2.4v0a1,1,0,0,0,.74.6,1.77,1.77,0,0,1,.47.25,1.24,1.24,0,0,1,.25.35c.16-.83.27-1.66.35-2.5Zm-.32,2.53ZM144,164.86a2.32,2.32,0,0,1-.18-.46,1.3,1.3,0,0,1,0-.48c-.6.55-1.22,1.06-1.87,1.63h0a.68.68,0,0,0-.08.37,1.33,1.33,0,0,0,.18.48,2.21,2.21,0,0,1,.15.5,1.26,1.26,0,0,1-.08.43c.7-.48,1.38-1,2.08-1.53v0a3.09,3.09,0,0,1,0-.43,1.49,1.49,0,0,0-.24-.49Zm-19,9.93h0Zm26.59-20a2,2,0,0,0-.4-.36,1.76,1.76,0,0,1-.4-.32,1.49,1.49,0,0,1-.17-.44,21.78,21.78,0,0,1-1,2.19h0a1.47,1.47,0,0,0,.14.45,1.54,1.54,0,0,0,.36.36,2,2,0,0,1,.37.39,1.91,1.91,0,0,1,.11.41h0c.41-.73.8-1.48,1.15-2.26v0A1.34,1.34,0,0,0,151.57,154.78Zm1.53-9.23h0a1.83,1.83,0,0,0-.32-.3,3,3,0,0,0-.51-.14,1.44,1.44,0,0,1-.5-.1,1.55,1.55,0,0,1-.36-.31h0a21.56,21.56,0,0,1,.08,2.41v0a1.78,1.78,0,0,0,.32.35,1.38,1.38,0,0,0,.49.14,2.37,2.37,0,0,1,.5.2,1.22,1.22,0,0,1,.28.32,24.15,24.15,0,0,0,0-2.55Zm-.87,6.08a2.13,2.13,0,0,0-.46-.27,1.33,1.33,0,0,1-.46-.23,2,2,0,0,1-.25-.39,22.93,22.93,0,0,1-.55,2.35l0,0a1.41,1.41,0,0,0,.22.42,1.21,1.21,0,0,0,.43.27,2.24,2.24,0,0,1,.43.31,1.44,1.44,0,0,1,.2.39h0c.26-.81.49-1.62.67-2.45v0a1.78,1.78,0,0,0-.25-.36ZM147.05,163Zm-.61.17a2.55,2.55,0,0,0-.25-.46,1.33,1.33,0,0,1-.28-.43,1.89,1.89,0,0,1,0-.47,22.91,22.91,0,0,1-1.66,1.76h0a1.85,1.85,0,0,0,0,.47,1.24,1.24,0,0,0,.25.45,3.06,3.06,0,0,1,.22.49,1.56,1.56,0,0,1,0,.43,23.4,23.4,0,0,0,1.81-1.78v0a1.29,1.29,0,0,0,0-.44Zm-1.69,2.16Zm5.56-7.16a1.48,1.48,0,0,0-.12-.41,2.28,2.28,0,0,0-.38-.38,1.54,1.54,0,0,1-.38-.34,1.7,1.7,0,0,1-.15-.45,24.16,24.16,0,0,1-1.14,2.13h0a1.9,1.9,0,0,0,.1.46,1.37,1.37,0,0,0,.35.37,2.31,2.31,0,0,1,.34.42,1.16,1.16,0,0,1,.08.42,24.15,24.15,0,0,0,1.29-2.19Zm-1.7,2.81a1.56,1.56,0,0,0-.08-.43,2.13,2.13,0,0,0-.31-.43,1.24,1.24,0,0,1-.34-.38,1.86,1.86,0,0,1-.09-.47c-.44.68-.91,1.34-1.41,2l0,0a1.48,1.48,0,0,0,0,.47,1.37,1.37,0,0,0,.29.42,2.18,2.18,0,0,1,.28.46,1.5,1.5,0,0,1,0,.42c.54-.63,1.07-1.3,1.56-2ZM153.13,148Zm-48.9,3.12a1.4,1.4,0,0,1,.5,0,2,2,0,0,1,.39.25,23.61,23.61,0,0,1-.39-2.38v0a1.69,1.69,0,0,0-.36-.3,1.22,1.22,0,0,0-.5-.08,1.8,1.8,0,0,1-.52-.13,1.44,1.44,0,0,1-.33-.28c.06.85.17,1.69.31,2.52h0a1.24,1.24,0,0,0,.35.25A2.35,2.35,0,0,0,104.23,151.14ZM103,148.36Zm.45,3.25ZM120,173.77a2.39,2.39,0,0,0-.37.15l.1-.07a3,3,0,0,0-.78.59c-.18.19-.51.62-.89,1.09h0c.89-.77,2,.55,2,.55v0l.35-.35a6.36,6.36,0,0,1,.57-.46A2.49,2.49,0,0,1,120,173.77Zm-16.81-25.91a3,3,0,0,0,.51.14,1.44,1.44,0,0,1,.5.1,1.55,1.55,0,0,1,.36.31,21.56,21.56,0,0,1-.08-2.41v0a1.52,1.52,0,0,0-.33-.34,1.4,1.4,0,0,0-.49-.15,3,3,0,0,1-.5-.19,1.58,1.58,0,0,1-.27-.32,23.73,23.73,0,0,0,0,2.53h0A1.52,1.52,0,0,0,103.19,147.86Zm3.09,9.28a1.43,1.43,0,0,1,.5-.09,1.7,1.7,0,0,1,.45.15,22.85,22.85,0,0,1-1-2.2v0a1.38,1.38,0,0,0-.43-.19,1.4,1.4,0,0,0-.5,0,2.37,2.37,0,0,1-.53,0,1.41,1.41,0,0,1-.39-.19c.28.8.6,1.58,1,2.35h0a1.49,1.49,0,0,0,.4.15A2.33,2.33,0,0,0,106.28,157.14Zm-1.93-2.36Zm.13-16.83a1,1,0,0,0,.18.4,2.36,2.36,0,0,0,.42.33,1.32,1.32,0,0,1,.42.29,1.5,1.5,0,0,1,.21.42,21.69,21.69,0,0,1,.85-2.25v0a2.2,2.2,0,0,0-.17-.45,1.33,1.33,0,0,0-.38-.33,2.4,2.4,0,0,1-.4-.38,1.42,1.42,0,0,1-.14-.41c-.37.77-.71,1.55-1,2.34Zm-1.5,7.13Zm.53-4a1.16,1.16,0,0,0,.23.36,2,2,0,0,0,.47.28,1.53,1.53,0,0,1,.46.23,2,2,0,0,1,.26.39,23.56,23.56,0,0,1,.55-2.35v0a1.27,1.27,0,0,0-.23-.41,1.23,1.23,0,0,0-.43-.28,2.61,2.61,0,0,1-.43-.31,1.41,1.41,0,0,1-.19-.39c-.27.81-.49,1.62-.68,2.45Zm-.35,3.25a1.75,1.75,0,0,0,.28.33,2,2,0,0,0,.5.21,1.2,1.2,0,0,1,.48.17,1.73,1.73,0,0,1,.31.35A24.09,24.09,0,0,1,105,143v0a1.49,1.49,0,0,0-.28-.38,1.3,1.3,0,0,0-.46-.22,1.92,1.92,0,0,1-.47-.25,1.24,1.24,0,0,1-.25-.35,23.13,23.13,0,0,0-.35,2.5Zm.23-2.53ZM105,154.27a1.42,1.42,0,0,1,.5,0,1.56,1.56,0,0,1,.43.21,23.78,23.78,0,0,1-.7-2.32v0a1.41,1.41,0,0,0-.4-.25,1.21,1.21,0,0,0-.5,0,2.48,2.48,0,0,1-.54-.06,1.41,1.41,0,0,1-.35-.23c.17.82.38,1.64.63,2.45h0a1.54,1.54,0,0,0,.38.2,2,2,0,0,0,.55,0Zm11.44,14.54a1.55,1.55,0,0,0,.42-.12,2.73,2.73,0,0,0,.38-.38,1.23,1.23,0,0,1,.34-.38,1.76,1.76,0,0,1,.44-.15,24.16,24.16,0,0,1-2.13-1.14l0,0a1.41,1.41,0,0,0-.46.11,1.38,1.38,0,0,0-.38.34,2.25,2.25,0,0,1-.41.34,1.58,1.58,0,0,1-.42.09,23.66,23.66,0,0,0,2.19,1.28Zm-.34,8.69,1.28,1.5.53-.8L116.75,177A6,6,0,0,0,116.1,177.5Zm-1.85-10Zm2.8,9.28,1.14,1.1.15-.18-1.13-1.1Zm.42-.56,1.25,1.14.86-.83A1.46,1.46,0,0,0,117.47,176.25ZM115,166.3a1.86,1.86,0,0,1,.47-.09,20.8,20.8,0,0,1-2-1.41v0a1.83,1.83,0,0,0-.47.05,1.53,1.53,0,0,0-.41.31,2.27,2.27,0,0,1-.45.28,1.53,1.53,0,0,1-.43,0c.64.55,1.31,1.07,2,1.56h0a1.55,1.55,0,0,0,.43-.07,2.31,2.31,0,0,0,.42-.34A1.41,1.41,0,0,1,115,166.3Zm-4.69-4.13a1.83,1.83,0,0,1,.47,0c-.54-.6-1.05-1.22-1.53-1.87v0a1.84,1.84,0,0,0-.47-.07,1.35,1.35,0,0,0-.47.18,2.38,2.38,0,0,1-.52.15,1.86,1.86,0,0,1-.41-.08,24.79,24.79,0,0,0,1.52,2h0a1.53,1.53,0,0,0,.43,0,2.37,2.37,0,0,0,.5-.2A1.39,1.39,0,0,1,110.29,162.17Zm-3-1.53Zm.53-.62a1.23,1.23,0,0,1,.49-.16,1.22,1.22,0,0,1,.46.09,22.76,22.76,0,0,1-1.27-2.06v0a1.39,1.39,0,0,0-.45-.14,1.72,1.72,0,0,0-.5.11,2.35,2.35,0,0,1-.53.09,1.53,1.53,0,0,1-.41-.14,25.14,25.14,0,0,0,1.25,2.21h0a1.45,1.45,0,0,0,.41.1,2.21,2.21,0,0,0,.52-.14Zm4.68,4.47a1.75,1.75,0,0,1,.46,0,22.2,22.2,0,0,1-1.71-1.65v0a1.42,1.42,0,0,0-.46,0,1.26,1.26,0,0,0-.44.24,2.09,2.09,0,0,1-.48.22,1.39,1.39,0,0,1-.41,0,22.68,22.68,0,0,0,1.72,1.81h0a1.48,1.48,0,0,0,.42,0,2.07,2.07,0,0,0,.45-.27,1.18,1.18,0,0,1,.43-.26Zm-.85,1Zm-2.34-2.29Z"/><path id="flor" class="cls-4" d="M124.48,150.3h-.1a25.25,25.25,0,0,0-2.88.4c-.47-1.85-1.81-4.22-4.11-3.88-2,.28-2.8,2.3-2.32,4.1-2.81.39-5.18-1.89-5.75-4.48a6.34,6.34,0,0,1,6.07-7.78c5.75,0,8.84,7.58,9,11.63m7.27.11c.19-4.05,3.29-11.63,9-11.63a6.35,6.35,0,0,1,6.07,7.77c-.57,2.59-2.93,4.87-5.75,4.48.48-1.8-.35-3.82-2.32-4.1-2.3-.34-3.64,2-4.11,3.86a29,29,0,0,0-2.89-.37Zm-3.63,3.44c-4.29,0-7.77-.64-7.77-1.42s3.46-1.42,7.76-1.42,7.77.64,7.77,1.42-3.48,1.41-7.77,1.41m6.37.25A3.13,3.13,0,0,0,139,156.6a3.49,3.49,0,0,1-3.3,3.25c-2.41,0-3.82-3.68-4-5.38h0a24.91,24.91,0,0,0,2.71-.39Zm-10,.39c-.17,1.69-1.58,5.42-4,5.42a3.47,3.47,0,0,1-3.29-3.25,3.13,3.13,0,0,0,4.63-2.56v0a26.83,26.83,0,0,0,2.69.4Zm3.64-27.54a27.42,27.42,0,0,0,3.1,2.69,9.21,9.21,0,0,1,3.91,7.1c0,4.41-3.68,8.28-4.14,13.6a21.32,21.32,0,0,0-2.4-.13c.1-5.4-.11-12.72-.47-18-.37,5.28-.57,12.6-.48,18a21.14,21.14,0,0,0-2.39.13c-.46-5.32-4.18-9.19-4.15-13.6a9.17,9.17,0,0,1,3.91-7.1,26.68,26.68,0,0,0,3.11-2.69m0,37.85a10.74,10.74,0,0,1-5.11-4.82,12.13,12.13,0,0,0,2.19-5.4c.75.06,1.57.09,2.4.09a43.35,43.35,0,0,0,.52,6.13,42,42,0,0,0,.51-6.13c.84,0,1.65,0,2.41-.09a12.13,12.13,0,0,0,2.19,5.4,10.65,10.65,0,0,1-5.11,4.82"/></svg>