<svg id="Capa_1" data-name="Capa 1" xmlns="http://www.w3.org/2000/svg" viewBox="0 0 256 256"><defs><style>.cls-1{fill:#0075be;}.cls-2{fill:#ffec00;}.cls-3{fill:#fff;}.cls-4{fill:#009d3c;}.cls-5{fill:#e20613;}.cls-6{fill:#0b6822;}</style></defs><title>progresion</title><rect class="cls-1" x="10" y="10" width="236" height="236"/><path class="cls-2" d="M32,141.8l6.64-12.17c-2.64-2.19-5.1-3.23-8.38-4.62l-6-2.55,6.52-.24c1.65-.06,3.19,0,4.71,0a52.1,52.1,0,0,0,5.85-.08A36.9,36.9,0,0,0,43.37,117c.41-1.2.84-2.42,1.38-3.73L47,107.93l1.27,13.4.47,0a21.85,21.85,0,0,0,7.51-1.85l5.88-2.35-4.27,4.67a27.72,27.72,0,0,1-6.94,6c.24,3,1.13,3.55,1.54,3.78l6.3,3.6-8.44-1.05a28.09,28.09,0,0,1-5.45-1Zm161.4-5.37,7.74-14.28a37.29,37.29,0,0,0-8.47-4.63c-1-.43-2-.87-3-1.35l-5.52-2.59,6.1-.18c2-.05,4.05,0,6,0,2.72.06,5.29.1,8-.09a49.94,49.94,0,0,0,2.59-6.35c.57-1.59,1.15-3.21,1.91-5L211,96.77l1.38,15.44c4.65-.65,6.6-1.41,11.06-3.57l7.35-3.57L225.11,111c-.93,1-1.68,1.78-2.36,2.52a37.47,37.47,0,0,1-7,6.31c.23,4.06,1.32,4.79,2.06,5.28l5.4,3.6-8.28-1.22a54.1,54.1,0,0,1-6.49-1.18ZM86.64,92.93,70.31,69.67a109.24,109.24,0,0,1-22.05,2.72H43.42l4-2.67A163.37,163.37,0,0,0,62.14,59.14,146.49,146.49,0,0,0,42.8,42.51L36.4,38,44,39.92A239,239,0,0,1,69.8,47.76,25.5,25.5,0,0,0,76.39,38l1.11-2.65L79,37.83A44.18,44.18,0,0,1,84.2,51.59l26.65,12.52L87,64.83Zm87.69-5.06,9-15.46a62.34,62.34,0,0,0-13.63-8.54l-5.52-2.6,6.51-.17c5.34-.14,10.85-.28,16.2-.78,2.26-4.2,4.44-8.78,6.5-13.64l2.65-6.24.4,19.43a65.83,65.83,0,0,0,17.17-5.7l7.25-3.44-5.59,5.76a104.17,104.17,0,0,1-14.21,12.67c.61,4,1.59,5.78,2.49,7l2.85,3.8-4.49-1.57a40.84,40.84,0,0,0-9-2.18ZM121.89,65.32,111,50a73.28,73.28,0,0,1-13.37,1.58H92.78l4.09-2.66a90,90,0,0,0,8.46-6.08c-.4-.45-.76-.91-1.12-1.36a12,12,0,0,0-1.6-1.82L88.2,28.79l6.93,1.74C100.82,32,106,33.48,110.8,35.2a13.92,13.92,0,0,0,3.56-5.5l1-2.76L117,29.42a24.82,24.82,0,0,1,3.38,8.45l18.29,8.65-16.55.41Z"/><path class="cls-3" d="M133.2,155.59l10-36.69,1.44,42.33a36.56,36.56,0,0,0-11.41-5.64M153,171.05,185.93,152,157,183a34.62,34.62,0,0,0-4-12m3.32,24.41,36.7,9.83-42.33,1.59a36.6,36.6,0,0,0,5.63-11.42m-15,20.08L154.72,239l1.74,3L151,239.81,129.3,219.59a35.77,35.77,0,0,0,12-4.05m-25,3.18-5.64,21.53-.86,3L106,243l-.14-3.18L105,213.09a36,36,0,0,0,11.27,5.63M96.51,203.26,63.57,222.33l28.89-31.06a38.05,38.05,0,0,0,4.05,12m-2.89-24.55-36.84-10,42.33-1.45a33.36,33.36,0,0,0-5.49,11.42m15-19.65L89.57,126.12,120.63,155a34.69,34.69,0,0,0-12,4.05"/><circle class="cls-4" cx="124.9" cy="187.21" r="31.16"/><path class="cls-3" d="M133.21,162a1.2,1.2,0,0,0,.28-.41,2.15,2.15,0,0,1,.32-.41,1.12,1.12,0,0,1,.37-.17h0a23.56,23.56,0,0,1,2.26,1,1.19,1.19,0,0,0-.4.14,2.11,2.11,0,0,0-.35.38,1.18,1.18,0,0,1-.32.38,1.31,1.31,0,0,1-.43.16l0,0a21.65,21.65,0,0,0-2.2-.84A1.4,1.4,0,0,0,133.21,162Zm3.27,0Zm-.9,1.35a21.74,21.74,0,0,1,2.08,1.11l0,0a1.67,1.67,0,0,0,.44-.11,1.2,1.2,0,0,0,.37-.34,2.44,2.44,0,0,1,.4-.32,1.43,1.43,0,0,1,.41-.09h0a20.48,20.48,0,0,0-2.13-1.25h0a1.42,1.42,0,0,0-.4.12,2.16,2.16,0,0,0-.37.37,1.29,1.29,0,0,1-.33.37A1.57,1.57,0,0,1,135.58,163.33Zm-6.44-2a1.46,1.46,0,0,0,.38-.27,1.54,1.54,0,0,0,.21-.45,2,2,0,0,1,.24-.46,1.41,1.41,0,0,1,.36-.24,22.55,22.55,0,0,0-2.45-.34h0a1,1,0,0,0-.52.75,1.5,1.5,0,0,1-.17.46,1.87,1.87,0,0,1-.33.3,23.19,23.19,0,0,1,2.34.24Zm-21.32,6.11a1.48,1.48,0,0,0,0,.42,2.51,2.51,0,0,0,.26.45,1.17,1.17,0,0,1,.27.42,1.75,1.75,0,0,1,0,.46c.51-.6,1-1.17,1.61-1.72h0a1.42,1.42,0,0,0,0-.46,1.6,1.6,0,0,0-.23-.45,1.82,1.82,0,0,1-.21-.47,1.39,1.39,0,0,1,0-.41,20.53,20.53,0,0,0-1.76,1.73Zm24.47-5.38h0a1.31,1.31,0,0,0,.4-.22,1.21,1.21,0,0,0,.27-.43,2.47,2.47,0,0,1,.3-.42,1.37,1.37,0,0,1,.37-.17h0a23.58,23.58,0,0,0-2.36-.67v0a1.46,1.46,0,0,0-.35.22,2,2,0,0,0-.26.45,1.42,1.42,0,0,1-.23.44,1.7,1.7,0,0,1-.38.26A19.5,19.5,0,0,1,132.29,162.09Zm-4.76,44.58a19.16,19.16,0,0,0-2.71.36l-.35.07a1.6,1.6,0,0,0-.23.45c0,.14-.13.35-.16.5a1.83,1.83,0,0,1-.51.69,8.84,8.84,0,0,0,2.71-.33l.44-.1a2.46,2.46,0,0,0,.17-.27,1.36,1.36,0,0,0,.17-.41c0-.13,0-.26.06-.44a2.59,2.59,0,0,1,.42-.51Zm-7.62,1a4.11,4.11,0,0,0,1.49-.5c.14-.08.52-.23.65-.31s-.78-1.12-.43-1.67c-1.39.68-2,1.06-2.92.81-.24,0,0,0,0,0a1.77,1.77,0,0,0-.36.41,1.53,1.53,0,0,0-.21.4,2.36,2.36,0,0,0-.12.51A4,4,0,0,0,119.91,207.7Zm-1.07-2.12a1.83,1.83,0,0,0,1-.14l.49-.2a3,3,0,0,0-2.17-1.76c-.19,0-.42-.16-.59,0h0s-1.12.8-.87,1.25a2.93,2.93,0,0,1,1,.24,3,3,0,0,1,1,.46ZM122.6,211s1.43-.77,2.08-.24l-.13-.19a4.15,4.15,0,0,0-2-1.4c-.7-.2-2-.33-2.41,0a3.93,3.93,0,0,1,1.5,1.36C121.66,210.69,122,210.69,122.6,211Zm-.75-3.54-.5.23c-.11.05-.6.19-.67.23s.66.56,2.11.73h0a1.59,1.59,0,0,0,.32-.26,2.43,2.43,0,0,0,.29-.49,3.29,3.29,0,0,0,.17-.39,1,1,0,0,1,.16-.33c-.18,0-1.09.09-1.09.09l-.41,0c-.13.07-.26.16-.39.22Zm-3.58-1.59a1.27,1.27,0,0,0-.35.38,3.42,3.42,0,0,0-.26.4c-.28.57-.16.6-.16.6a9,9,0,0,1-2.76-1.52s.28-.21.36-.25.25-.08.35-.2a1.41,1.41,0,0,1,.74-.24,15.33,15.33,0,0,0,1.82.78Zm6.11-1a4.46,4.46,0,0,0-2.24.22h0c-.49.32.47,1.59.47,1.59h0a2,2,0,0,1,1.86-.17c.65-.11,1.32-.19,2-.24a2.55,2.55,0,0,0-2.06-1.4Zm-9-42.2a1.37,1.37,0,0,1,.09.49,1.41,1.41,0,0,1-.14.44,20.61,20.61,0,0,1,2.14-1h0a1.59,1.59,0,0,0,.19-.42,1.37,1.37,0,0,0,0-.49,2.9,2.9,0,0,1,0-.51,1.3,1.3,0,0,1,.19-.37c-.78.27-1.55.58-2.29.92v0a1.74,1.74,0,0,0-.14.38A2.24,2.24,0,0,0,115.37,162.69Zm-3.27,1.06Zm-2,1.48a1.2,1.2,0,0,0,0,.42,1.68,1.68,0,0,0,.2.48,1.45,1.45,0,0,1,.22.45,1.78,1.78,0,0,1,0,.46,20.16,20.16,0,0,1,1.83-1.49h0a1.43,1.43,0,0,0,.07-.46,1.12,1.12,0,0,0-.17-.46,2.21,2.21,0,0,1-.15-.5,1.42,1.42,0,0,1,.08-.41,21.66,21.66,0,0,0-2,1.49Zm2.52-1.44a1.21,1.21,0,0,0,.09.49,1.36,1.36,0,0,1,.16.48,1.8,1.8,0,0,1-.09.45h0c.64-.45,1.31-.87,2-1.26h0a1.53,1.53,0,0,0,.13-.43,1.41,1.41,0,0,0-.12-.49,1.75,1.75,0,0,1-.08-.51,1.17,1.17,0,0,1,.13-.4h0c-.74.37-1.46.78-2.32,1.18v0a1,1,0,0,1,.13.47ZM124,161.32a23,23,0,0,1,2.35-.07h0a1.38,1.38,0,0,0,.33-.31,1.34,1.34,0,0,0,.15-.48A2.18,2.18,0,0,1,127,160a1.19,1.19,0,0,1,.31-.28c-.82-.05-1.65-.05-2.47,0v0a1.26,1.26,0,0,0-.31.3,2.19,2.19,0,0,0-.14.5,1.19,1.19,0,0,1-.1.49,1.38,1.38,0,0,1-.3.34Zm-5.69.85a1.35,1.35,0,0,1-.2.42,21.79,21.79,0,0,1,2.26-.68h0a1.58,1.58,0,0,0,.24-.39,1.21,1.21,0,0,0,0-.5,2.24,2.24,0,0,1,.06-.52,1.63,1.63,0,0,1,.23-.35,23.93,23.93,0,0,0-2.39.62v0a1.62,1.62,0,0,0-.19.37,3,3,0,0,0,0,.52A1.16,1.16,0,0,1,118.31,162.17Zm2.86-1a2,2,0,0,1-.26.39,22.92,22.92,0,0,1,2.32-.39h0a1.64,1.64,0,0,0,.29-.35,1.13,1.13,0,0,0,.08-.48,2.36,2.36,0,0,1,.12-.51,1.38,1.38,0,0,1,.28-.31c-.82.06-1.64.16-2.45.3v0a1.39,1.39,0,0,0-.24.34,2.26,2.26,0,0,0-.08.51A1.34,1.34,0,0,1,121.17,161.17Zm-6.46,44.59Zm33-32.74Zm-1.11.7-.43-.19h0a10.59,10.59,0,0,1,.88,2.12v0a3,3,0,0,0,.52.21,1.2,1.2,0,0,0,.5,0,2.18,2.18,0,0,1,.51,0,1.59,1.59,0,0,1,.37.18c-.27-.77-.58-1.54-.91-2.35h0a2,2,0,0,1-.42-.08,1.86,1.86,0,0,0-.52.07,3.31,3.31,0,0,1-.5.13Zm-1.51-2.67a1.33,1.33,0,0,1-.45-.08,10.88,10.88,0,0,1,1.12,2v0a2.58,2.58,0,0,0,.55.15,1.19,1.19,0,0,0,.49-.13,3,3,0,0,1,.52-.08,1.79,1.79,0,0,1,.39.13,13.66,13.66,0,0,0-1.24-2.07h0a.52.52,0,0,0-.38-.16,2.15,2.15,0,0,0-.5.12,1.26,1.26,0,0,1-.49.18Zm-2-2.31a1.23,1.23,0,0,1-.47,0c.54.6,1.05,1.22,1.53,1.87v0a1.44,1.44,0,0,0,.46.08,1.4,1.4,0,0,0,.48-.18,2.29,2.29,0,0,1,.51-.15,1.56,1.56,0,0,1,.43.08c-.48-.69-1-1.37-1.53-2h0a1.57,1.57,0,0,0-.43,0,2.37,2.37,0,0,0-.5.2,1.17,1.17,0,0,1-.48.22Zm1.06-1Zm6.12,14.47Zm-.75.31a2,2,0,0,1-.52-.11,1.43,1.43,0,0,1-.34-.31c.06.79.09,1.58.09,2.36v0a1.55,1.55,0,0,0,.3.33,1.36,1.36,0,0,0,.47.15,2.22,2.22,0,0,1,.49.18,1.58,1.58,0,0,1,.27.31,17.27,17.27,0,0,0,0-2.39h0a.68.68,0,0,0-.29-.36,1.77,1.77,0,0,0-.45-.14Zm.77,2.89Zm-1.22-6.1a1.2,1.2,0,0,1-.5,0,1.39,1.39,0,0,1-.38-.25,22.92,22.92,0,0,1,.39,2.32v0a1.64,1.64,0,0,0,.36.29,1.13,1.13,0,0,0,.48.08,2.19,2.19,0,0,1,.5.14,1.18,1.18,0,0,1,.32.27,22.47,22.47,0,0,0-.31-2.45h0a2.62,2.62,0,0,0-.34-.24A2.28,2.28,0,0,0,149,179.31Zm-.7-2.84a2.21,2.21,0,0,1-.57,0,1.2,1.2,0,0,1-.41-.2c.26.74.49,1.49.68,2.25v0a1.58,1.58,0,0,0,.39.24,1.21,1.21,0,0,0,.5,0,2.31,2.31,0,0,1,.52.06,1.24,1.24,0,0,1,.35.23,23.09,23.09,0,0,0-.63-2.38h0a1,1,0,0,0-.37-.21,1,1,0,0,0-.45,0Zm1.46,2.58Zm-37.68,29.53a7.8,7.8,0,0,0,1.44.28c.17,0,.33-.07.43,0h0a3,3,0,0,1-.38-2.35,1.72,1.72,0,0,1-.94-1.67,4,4,0,0,0-.59,1.23,4.73,4.73,0,0,0,0,2.53Zm37.33-23.09a1.28,1.28,0,0,1-.46-.17,1.18,1.18,0,0,1-.3-.33,23.19,23.19,0,0,1-.24,2.34v0a1.9,1.9,0,0,0,.26.37,1.51,1.51,0,0,0,.45.2,2.55,2.55,0,0,1,.46.25,1.41,1.41,0,0,1,.23.35,22.21,22.21,0,0,0,.34-2.45h0a1.64,1.64,0,0,0-.27-.32A2,2,0,0,0,149.42,185.49Zm-34.13,23.08a2.46,2.46,0,0,1,.83.44,7.8,7.8,0,0,1,1.5-.76,5.92,5.92,0,0,0-3.49-1.19l.11.44.37.95Zm-2.64-3.75Zm37.18-16.25Zm-33.72,16.56C116,205.1,116.07,205.12,116.11,205.13Zm.06-.07Zm-.11-1.93a4.28,4.28,0,0,0-2.94,1.19h0s-.09,1.34.74,1.6a3.9,3.9,0,0,1,1.7-1.09l.21-.15a2.22,2.22,0,0,1,.78-1.53Zm25.75-37.64Zm-3.14-.91a1.2,1.2,0,0,1-.45.09c.65.43,1.29.88,1.9,1.37v0a1.71,1.71,0,0,0,.45,0,1.33,1.33,0,0,0,.41-.29,1,1,0,0,1,.86-.31c-.62-.53-1.27-1-2-1.51h0a2,2,0,0,0-.42.07,2.15,2.15,0,0,0-.41.32A1.29,1.29,0,0,1,138.67,164.58Zm2.36,2a1.75,1.75,0,0,1-.46,0,20.1,20.1,0,0,1,1.72,1.61v0a1.42,1.42,0,0,0,.46,0,1.26,1.26,0,0,0,.44-.24,4,4,0,0,1,.47-.21,1.49,1.49,0,0,1,.42,0,23.94,23.94,0,0,0-1.73-1.76h0a1.48,1.48,0,0,0-.42,0,2.46,2.46,0,0,0-.45.25,1.37,1.37,0,0,1-.42.29Zm-30.34,35.58a2,2,0,0,1-.45.26,1.49,1.49,0,0,1-.42,0,22.25,22.25,0,0,0,2,1.53h0a1.4,1.4,0,0,0,.41-.06,2.15,2.15,0,0,0,.41-.32,1.44,1.44,0,0,1,.38-.32,1.8,1.8,0,0,1,.45-.09,21.28,21.28,0,0,1-1.9-1.37v0a1.44,1.44,0,0,0-.46,0A1.12,1.12,0,0,0,110.69,202.17ZM126,211.5a2.85,2.85,0,0,0,1.07-2.63l-1.91.32a1,1,0,0,1-.5,1.06s1.46,1.16,1.34,1.25Zm-.18,4.76.27.9,1.62-1a7.36,7.36,0,0,0-.47-.63Zm1-1.23-1.38.69.12.2,1.38-.69Zm7-7.95Zm-3.08.85Zm2.66-2a2.22,2.22,0,0,1,.2-.41,21.62,21.62,0,0,1-2.25.68h0a1.41,1.41,0,0,0-.24.39,1.39,1.39,0,0,0,0,.5,2.21,2.21,0,0,1,0,.51,1.41,1.41,0,0,1-.23.35,22.07,22.07,0,0,0,2.39-.62v0a1.46,1.46,0,0,0,.2-.37,2.26,2.26,0,0,0,0-.52,1.4,1.4,0,0,1,0-.5Zm-8.64,8.34.56,1,1.49-.7a1.41,1.41,0,0,0-2-.33Zm5.6-7.58a1.63,1.63,0,0,1,.23-.35,18.77,18.77,0,0,1-2.1.35h0a1.64,1.64,0,0,0-.28.31,1.14,1.14,0,0,0-.14.44,2.35,2.35,0,0,1-.17.44,2,2,0,0,1-.24.33c.73-.05,1.61-.16,2.35-.28h0a2.18,2.18,0,0,0,.22-.31,1.89,1.89,0,0,0,.06-.47,1.2,1.2,0,0,1,0-.46Zm-14,3a1.6,1.6,0,0,1-1,1.62c1.23.7,3.11-.32,3.11-.32a5.2,5.2,0,0,0-1.42-.95Zm4.48.87a7.45,7.45,0,0,0-2.39-1.91l-1.73.63,1.59,1.05c.48.28.55.57,1.1,1.17,0,0,1.77-.47,1.43-.94Zm-5-.91a2.33,2.33,0,0,1-.46-.08,2.68,2.68,0,0,1-.79-.4h0c-.43.66-2,.07-2,.07a4.36,4.36,0,0,0,1.93,1.7h0s1,0,1.36-1.29Zm10.71,4h0c-.22-.55-.41-1-.53-1.25a5.5,5.5,0,0,0-.54-.79,1.68,1.68,0,0,0-2.28-.26,5.13,5.13,0,0,1,1.19,1.82l.12.4s1.45-.88,2,.08Zm-2,0v0h0Zm-1.65-2.17c-.28.09-1.13-.31-1.4-.45-.05.46-1.57,1-1.57,1a3.5,3.5,0,0,0,1.89,1.05,2.64,2.64,0,0,0,1.66-.2,2.73,2.73,0,0,1-.58-1.38ZM107.33,168Zm41.56,24.39a1.63,1.63,0,0,0-.17-.38,2.12,2.12,0,0,0-.42-.32,1,1,0,0,1-.62-.7,19.61,19.61,0,0,1-.83,2.21v0a1.25,1.25,0,0,0,.17.43,1.18,1.18,0,0,0,.38.32,2.5,2.5,0,0,1,.38.35,1.9,1.9,0,0,1,.14.4c.36-.74.68-1.5,1-2.26Zm-1.07,2.26Zm-11.5,10.61a.73.73,0,0,1-.19-.52,1.41,1.41,0,0,1,.14-.44,10.69,10.69,0,0,1-2.12.88h0a3.47,3.47,0,0,0-.21.51,1.37,1.37,0,0,0,0,.49,2.18,2.18,0,0,1,0,.51,1.33,1.33,0,0,1-.18.38,6,6,0,0,0,2-1v0c.35-.05.4-.18.43-.32a1.5,1.5,0,0,1,0-.48Zm-20.56,4.3v0h0Zm30-11.94a3,3,0,0,0-.28-.44.9.9,0,0,1-.35-.85,21.78,21.78,0,0,1-1.51,1.8h0a1.78,1.78,0,0,0,0,.46,1.41,1.41,0,0,0,.26.42,2.25,2.25,0,0,1,.24.46,1.48,1.48,0,0,1,0,.42h0c.58-.58,1.13-1.2,1.66-1.84h0A1.51,1.51,0,0,0,145.76,197.61Zm4-8.17h0a1.34,1.34,0,0,0-.22-.36,2.51,2.51,0,0,0-.45-.26,1.24,1.24,0,0,1-.44-.23,1.42,1.42,0,0,1-.26-.38h0c-.14.77-.32,1.54-.53,2.29v0a1.62,1.62,0,0,0,.22.41,1.29,1.29,0,0,0,.42.26,2.53,2.53,0,0,1,.42.31,1.62,1.62,0,0,1,.19.37,22.33,22.33,0,0,0,.67-2.39Zm-2.34,5.45a2.22,2.22,0,0,0-.37-.38,1.16,1.16,0,0,1-.37-.33,1.55,1.55,0,0,1-.14-.43,19.7,19.7,0,0,1-1.11,2.08l0,0a1.41,1.41,0,0,0,.11.45,1.26,1.26,0,0,0,.33.36,1.86,1.86,0,0,1,.33.41,1.43,1.43,0,0,1,.09.41h0c.45-.69.87-1.41,1.25-2.14h0a1.72,1.72,0,0,0-.14-.4Zm-7.86,9.33Zm-.51.1a2.89,2.89,0,0,0-.11-.51,1.1,1.1,0,0,1-.16-.47,1.8,1.8,0,0,1,.09-.45,21.52,21.52,0,0,1-2,1.24h0a1.39,1.39,0,0,0-.13.44,1.41,1.41,0,0,0,.12.49,2.17,2.17,0,0,1,.08.51,1.28,1.28,0,0,1-.13.39,22.73,22.73,0,0,0,2.15-1.21v0a1.23,1.23,0,0,0,.07-.42Zm-2.25,1.51Zm7-5.33a1.48,1.48,0,0,0,0-.42,2.51,2.51,0,0,0-.26-.45,1.17,1.17,0,0,1-.27-.42,1.19,1.19,0,0,1,0-.46c-.51.6-1,1.17-1.61,1.72h0a1.76,1.76,0,0,0,0,.46,1.26,1.26,0,0,0,.24.44,2.81,2.81,0,0,1,.21.47,1.49,1.49,0,0,1,0,.42,22.12,22.12,0,0,0,1.76-1.73Zm-2.31,2.21a1.5,1.5,0,0,0,0-.42,2,2,0,0,0-.2-.48,1.54,1.54,0,0,1-.21-.45,1.78,1.78,0,0,1,0-.46,21.5,21.5,0,0,1-1.82,1.49h0a1.43,1.43,0,0,0-.07.46,1.4,1.4,0,0,0,.17.47,2.07,2.07,0,0,1,.15.5,1.35,1.35,0,0,1-.08.4,23.55,23.55,0,0,0,2-1.48Zm7.51-11Zm-46.89-9.36a1.28,1.28,0,0,1,.46.17,1.62,1.62,0,0,1,.31.33,20.59,20.59,0,0,1,.23-2.34v0a1.59,1.59,0,0,0-.27-.37,1.17,1.17,0,0,0-.45-.21,1.66,1.66,0,0,1-.45-.25,1.16,1.16,0,0,1-.24-.34c-.15.81-.27,1.62-.34,2.45h0a1.18,1.18,0,0,0,.27.32A1.56,1.56,0,0,0,102.14,182.32Zm-.33-2.94Zm-.39,3.17Zm10,25a2.58,2.58,0,0,0-.39,0l.11,0a2.92,2.92,0,0,0-.88.36c-.22.12-.64.45-1.11.79h0c1-.5,1.76,1,1.76,1h0l.42-.23a5.37,5.37,0,0,1,.65-.29A2.41,2.41,0,0,1,111.39,207.55ZM102.22,179a2.07,2.07,0,0,0,.45.27,1.22,1.22,0,0,1,.44.22,1.42,1.42,0,0,1,.26.38,22.39,22.39,0,0,1,.54-2.29v0a1.34,1.34,0,0,0-.23-.4,1.17,1.17,0,0,0-.42-.27,2.47,2.47,0,0,1-.42-.3,1.33,1.33,0,0,1-.18-.38c-.25.79-.47,1.58-.65,2.38h0A1.62,1.62,0,0,0,102.22,179Zm.34,9.45a1.17,1.17,0,0,1,.49,0,1.67,1.67,0,0,1,.38.25,22.43,22.43,0,0,1-.38-2.32v0a1.64,1.64,0,0,0-.35-.29,1.61,1.61,0,0,0-.48-.08,2.11,2.11,0,0,1-.51-.12,1.64,1.64,0,0,1-.32-.27,22.47,22.47,0,0,0,.31,2.45h0a1.36,1.36,0,0,0,.35.24A1.7,1.7,0,0,0,102.56,188.48Zm-1.11-2.73Zm4.36-15.8a1.42,1.42,0,0,0,.07.42,2.1,2.1,0,0,0,.31.41,1.31,1.31,0,0,1,.33.38,1.8,1.8,0,0,1,.09.45,22.83,22.83,0,0,1,1.37-1.9h0a1.35,1.35,0,0,0,0-.45,1.17,1.17,0,0,0-.27-.42,2.6,2.6,0,0,1-.28-.45,1.49,1.49,0,0,1,0-.42,24.32,24.32,0,0,0-1.53,2Zm-3.21,6.33Zm1.64-3.57a1.42,1.42,0,0,0,.12.4,2.28,2.28,0,0,0,.38.38,1.46,1.46,0,0,1,.37.33,1.76,1.76,0,0,1,.15.44,21.89,21.89,0,0,1,1.11-2.08v0a1.65,1.65,0,0,0-.1-.44,1.34,1.34,0,0,0-.34-.37,2.06,2.06,0,0,1-.33-.4,1.15,1.15,0,0,1-.08-.41,21.43,21.43,0,0,0-1.25,2.12Zm-1.38,2.91a1.46,1.46,0,0,0,.18.38,2.15,2.15,0,0,0,.41.32,1.2,1.2,0,0,1,.41.28,1.77,1.77,0,0,1,.21.41,22.59,22.59,0,0,1,.84-2.2v0a1.59,1.59,0,0,0-.16-.43,1.34,1.34,0,0,0-.39-.32,2.58,2.58,0,0,1-.38-.36,1.64,1.64,0,0,1-.14-.39,22.53,22.53,0,0,0-1,2.26Zm1-2.3Zm-1.49,12.2a1.28,1.28,0,0,1,.47.1,1.43,1.43,0,0,1,.35.3,23.06,23.06,0,0,1-.07-2.35v0a1.67,1.67,0,0,0-.32-.33,1.25,1.25,0,0,0-.46-.15,2.26,2.26,0,0,1-.49-.19,1.38,1.38,0,0,1-.28-.31c0,.82-.05,1.65,0,2.47h0a1.38,1.38,0,0,0,.31.28,2.15,2.15,0,0,0,.51.15Zm7,16.47a1.48,1.48,0,0,0,.42,0,2.51,2.51,0,0,0,.45-.26,1.17,1.17,0,0,1,.42-.27,1.18,1.18,0,0,1,.46,0c-.6-.51-1.18-1-1.72-1.61v0a1.42,1.42,0,0,0-.46,0,1.1,1.1,0,0,0-.44.23,2.06,2.06,0,0,1-.48.21,1.88,1.88,0,0,1-.41,0,23.8,23.8,0,0,0,1.73,1.75Zm-2.51,8.08.82,1.74.7-.62-.79-1.4C107.26,209.87,107,210,106.78,210.07Zm.77-9.84Zm.29,9.43.8,1.33.19-.13-.79-1.33Zm.54-.42.89,1.39,1-.56A1.43,1.43,0,0,0,108.38,209.24Zm.05-10a1.78,1.78,0,0,1,.46,0,21.5,21.5,0,0,1-1.49-1.82v0a1.41,1.41,0,0,0-.45-.07,1.1,1.1,0,0,0-.46.19,2.85,2.85,0,0,1-.5.14,1.15,1.15,0,0,1-.41-.08c.46.68,1,1.34,1.49,2h0a1.39,1.39,0,0,0,.41,0,2.13,2.13,0,0,0,.49-.21A1.57,1.57,0,0,1,108.43,199.29Zm-3.37-5.07a1.76,1.76,0,0,1,.44.15,21.77,21.77,0,0,1-1-2.15v0a1.57,1.57,0,0,0-.42-.18,1.16,1.16,0,0,0-.49.05,3,3,0,0,1-.52,0,1.66,1.66,0,0,1-.38-.18,23.68,23.68,0,0,0,.93,2.28h0a1.3,1.3,0,0,0,.39.14,2.31,2.31,0,0,0,.52-.06A1.37,1.37,0,0,1,105.06,194.22ZM102.73,192Zm.77-.37a1.35,1.35,0,0,1,.49,0,1.65,1.65,0,0,1,.42.21,22.37,22.37,0,0,1-.68-2.25v0a1.28,1.28,0,0,0-.39-.24,1.16,1.16,0,0,0-.49,0,2.24,2.24,0,0,1-.52-.06A1.18,1.18,0,0,1,102,189a21.49,21.49,0,0,0,.62,2.39h0a1.3,1.3,0,0,0,.37.19,1.81,1.81,0,0,0,.52,0Zm3,5.32a1.64,1.64,0,0,1,.44.09c-.43-.64-.82-1.3-1.19-2v0a1.33,1.33,0,0,0-.43-.13,1.12,1.12,0,0,0-.47.11,1.81,1.81,0,0,1-.51.08A1.29,1.29,0,0,1,104,195c.35.73.74,1.44,1.16,2.13h0a1.37,1.37,0,0,0,.4.09,2.22,2.22,0,0,0,.49-.13,1.07,1.07,0,0,1,.47-.14Zm-.94.75ZM104,195Z"/><path class="cls-3" d="M112.15,179.87l1-1.18,1.44.64-.8-1.38,1-1.18-1.54.34-.8-1.37-.15,1.58-1.55.34,1.45.64Zm9.25,6.76h0a24.09,24.09,0,0,0-2.8-.36c0-1.85-.65-4.42-2.89-4.68a3,3,0,0,0-3.22,3.27c-2.74-.34-4.39-3.08-4.28-5.66a6.18,6.18,0,0,1,7.67-5.79c5.41,1.45,6.41,9.36,5.56,13.22m18.28.62.66-1.44L142,186l-1.17-1.06.65-1.44-1.38.79-1.17-1.06.32,1.54-1.37.78,1.57.17Zm-11.45,1.26c1.2-3.77,6-10.11,11.43-8.67a6.18,6.18,0,0,1,3.75,8.84c-1.18,2.3-4,3.84-6.54,2.77a3,3,0,0,0-1.14-4.45c-2.08-.89-3.94,1-4.84,2.6-.89-.44-1.86-.79-2.63-1.08Zm-4.06,1.53c3.49.93,6.39,1.36,6.45,1.14s-2.67-1.32-6.17-2.26-6.41-1.34-6.47-1.12,2.7,1.3,6.2,2.24m-.23.78c-4-1.08-7.15-2.55-6.95-3.29s3.61-.46,7.65.62,7.15,2.56,6.95,3.29-3.62.46-7.66-.62m5.82,1.81a3,3,0,0,0,3.71,3.53,3.39,3.39,0,0,1-3.91,2.23c-2.27-.61-2.67-4.42-2.42-6.08v0a26,26,0,0,0,2.64.31Zm-9.51-2.16c-.58,1.55-2.85,4.7-5.14,4.09a3.39,3.39,0,0,1-2.28-3.89,3,3,0,0,0,5-1.24v0c.79.39,1.6.74,2.42,1Zm10.47-24.95a27.09,27.09,0,0,0,2.24,3.31,9,9,0,0,1,1.89,7.66c-1.08,4.15-5.55,6.86-7.32,11.75a22.15,22.15,0,0,0-2.22-.73c1.45-5.06,3.1-12,4.08-17.05-1.67,4.88-3.71,11.71-5,16.81a22.16,22.16,0,0,0-2.29-.48c.91-5.12-1.61-9.7-.46-13.84a8.9,8.9,0,0,1,5.46-5.69,26,26,0,0,0,3.6-1.74m-9.54,35.59a10.49,10.49,0,0,1-3.59-5.82,11.75,11.75,0,0,0,3.42-4.53c.69.25,1.45.48,2.24.7a41.53,41.53,0,0,0-1.06,5.89,41.88,41.88,0,0,0,2-5.63c.79.21,1.55.38,2.29.52a11.83,11.83,0,0,0,.69,5.62,10.32,10.32,0,0,1-6,3.25"/><path class="cls-5" d="M52.16,192.28a2.11,2.11,0,0,1-1.88,2.32A2.2,2.2,0,0,1,48,192.86a2.1,2.1,0,0,1,1.88-2.31A2,2,0,0,1,52.16,192.28ZM51,198.78a2.21,2.21,0,0,0-1.88,2.32A2.33,2.33,0,0,0,51.58,203a2.12,2.12,0,0,0-.58-4.19Zm7.23,24.13a2,2,0,1,0-.44-4,2.12,2.12,0,0,0-1.88,2.32A2,2,0,0,0,58.23,222.91ZM51.87,173.5a2,2,0,1,0-2.31-1.73A2,2,0,0,0,51.87,173.5Zm148.21,9.68a2.1,2.1,0,0,0,1.74-2.31,2,2,0,1,0-1.74,2.31ZM63.57,146.63a2.29,2.29,0,0,0,1.73-2.31A2.11,2.11,0,0,0,63,142.44a2,2,0,0,0-1.73,2.32A2.1,2.1,0,0,0,63.57,146.63Zm146.48,63.28a3.91,3.91,0,0,1-4.91,2.74,3.66,3.66,0,0,1-2.71-2.61,80.6,80.6,0,0,1-16.68,30.46,6.62,6.62,0,0,0-.64,1.05c-.56,1.06-1.15,2.15-2.28,2.42a2.09,2.09,0,0,1-1.67-.35,3.42,3.42,0,0,0-1.06-.69,1.52,1.52,0,0,1-1.11.39c-3.4.07-7,.11-10.72.12-2.84.41-5.79.68-8.79.85l.35.61-1.37-.55a196.29,196.29,0,0,1-21-.24,2.13,2.13,0,0,1-1,.36l-9-.14a1.48,1.48,0,0,1-1.31-.85l-.08-.16L122.1,243l-6-.05-.54.85a1.5,1.5,0,0,1-1.32.68L111,244.3l-.15.55-6.26-.48-.07-1.42a344.84,344.84,0,0,0-35.76,1.66l-.33,0c-1.48,0-2.29-1.3-2.78-2.1a4.88,4.88,0,0,0-.57-.81A80.81,80.81,0,0,1,46.2,168.15a4.07,4.07,0,0,1-3.72.88,4,4,0,0,1-2.74-4.77,3.91,3.91,0,0,1,4.76-2.89A4.06,4.06,0,0,1,47.33,164a81.25,81.25,0,0,1,97.08-55.42l2.7-10L138,96.17a46,46,0,0,0-1.19,7.56L125.4,91.31l16-5.2a65.57,65.57,0,0,0-2.66,7.2l9.11,2.44.66-2.42a6.26,6.26,0,0,1,3.17-11.75l2.11-7.82a57.33,57.33,0,0,0-7.62-1.23l12.43-11.42,5.05,16a47.23,47.23,0,0,0-7-2.64l-2.11,7.84A6.26,6.26,0,0,1,151.4,94.1l-.66,2.42L159.87,99a57,57,0,0,0,1.21-7.51l11.41,12.42-16,5.06a47.85,47.85,0,0,0,2.67-7.1L150,99.38l-2.69,10a80.91,80.91,0,0,1,56.18,96.74,4,4,0,0,1,3.85-1A3.82,3.82,0,0,1,210.05,209.91Zm-29,17.73a70.34,70.34,0,0,0,10.15-20.8l-24.3.91Zm-17.69-19.75-10.71.4L155,218.84l22,8.21Zm-10.29,31.16-12.37-21.54a37.29,37.29,0,0,1-8.25,3l19.34,18.05ZM94.55,180.49A30.57,30.57,0,0,0,94,190.74a1.89,1.89,0,0,1,.09.34,2.16,2.16,0,0,1,0,.36,30.19,30.19,0,0,0,.91,4.28c.09.32.19.63.3.95v.05c.41,1.2.9,2.42,1.45,3.64.36.75.74,1.5,1.16,2.23a31.24,31.24,0,0,0,7.8,9,1,1,0,0,1,.22.14,1.54,1.54,0,0,1,.19.17,31.21,31.21,0,0,0,42.29-4.48l1.08-1.47a34.8,34.8,0,0,0,5.4-11l.17-.55a31.2,31.2,0,0,0,.83-9l-.32-2.24a33.2,33.2,0,0,0-3.87-11.48L151,170.5l.07,0a30.69,30.69,0,0,0-8.25-8.69,33.87,33.87,0,0,0-5.78-3.21,31.26,31.26,0,0,0-14.09-2.38l-2.1.3a33.41,33.41,0,0,0-11.48,3.87l-1.27.71h0a31.25,31.25,0,0,0-7.85,7.2,32,32,0,0,0-5.31,10.82ZM109.45,239l5.06-19.33a38.38,38.38,0,0,1-7.9-3.7l.25,7.56.51,15.33Zm50.11-56.52,9.08,5.68,21.23-9.68-23-3.85Zm18.26-24.12-22.74,13.17a34.35,34.35,0,0,1,3,8.08Zm-24.11,46.9,29.42-1.11-25.78-6.9A33.78,33.78,0,0,1,153.71,205.28Zm30.4-3.91-25.24-15.81a34,34,0,0,1-.77,8.85ZM193.75,180l-22.11,10.08,20.6,12.9A68.94,68.94,0,0,0,193.75,180Zm-.53-3.93a68.61,68.61,0,0,0-7.44-21.75l-16.5,17.74Zm-15.87-20.83L147.84,162a33.73,33.73,0,0,1,5.76,7Zm6.36-4.51a69.06,69.06,0,0,0-15.16-17.27l-8.49,22.79Zm-18.92-15.67-19.12,13.68.21,6.17.15,4.49L156.61,157Zm-25.27,21.4a32,32,0,0,1,3.51,1.9l-.17-5L142,128.77l-7,25.84c1.05.35,2.06.75,3.05,1.18l1,.41Zm-.4-28.3-15.68,25c.49,0,1,0,1.48,0a34.14,34.14,0,0,1,7.2.79Zm1.71-8.31a68.8,68.8,0,0,0-22.91-1.56l10,22.12ZM116.37,122l-3.94,23.18,7.9,7.34,5.73-9.15Zm-2.46-3.24a69.1,69.1,0,0,0-21.86,7.46l17.79,16.54Zm3.46,35.2L95.82,134,109.18,157A34.29,34.29,0,0,1,117.37,154ZM93.29,135.49l6.6,28.59a33.81,33.81,0,0,1,6.72-5.57Zm1.53,19.82-21.9-8.2L86.5,166.24l10.76-.37Zm-6.24-27.05A69.2,69.2,0,0,0,71.3,143.35L94,151.85ZM68.86,146.52a69.14,69.14,0,0,0-10.2,20.67L83,166.36Zm25,54.6-.36-.83c-.22-.54-.44-1.08-.64-1.63-.09-.24-.16-.48-.25-.72s-.27-.77-.38-1.15c-.24-.76-.45-1.52-.63-2.26L71.47,216.05l23.09-13.37c-.12-.24-.22-.48-.33-.73S94,201.39,93.85,201.12Zm-3.64-9.6-9.06-5.68-21.37,9.82,23,3.8ZM66.68,169.88l25.81,7a33.57,33.57,0,0,1,3.7-8Zm-.94,2.82,25.11,15.72a33.83,33.83,0,0,1,.86-8.7ZM56,194.13,78.15,184,57.6,171.09A68.85,68.85,0,0,0,56,194.13Zm.51,4a68.94,68.94,0,0,0,7.34,21.73l16.55-17.79Zm16.22,20.62,29-6.58a34.2,34.2,0,0,1-5.7-6.93Zm129.59-40.38-5.7.76A71.87,71.87,0,0,1,195,204.28l5.54,1.48A77.69,77.69,0,0,0,202.33,178.36Zm-9.29-29-5,2.88a71.78,71.78,0,0,1,8.2,23.92l5.7-.76A78,78,0,0,0,193,149.38ZM173.5,126.15,170,130.76a72.16,72.16,0,0,1,16.61,18.94l5-2.88A77.88,77.88,0,0,0,173.5,126.15ZM145,117.89A72.17,72.17,0,0,1,167.59,129l3.56-4.61a77.87,77.87,0,0,0-24.64-12.13Zm-.26,3,.83,24.3L165.36,131A69.25,69.25,0,0,0,144.72,120.88Zm-28.49-11.19.73,5.71a72.16,72.16,0,0,1,25.16,1.72l1.52-5.66A77.81,77.81,0,0,0,116.23,109.69ZM87.29,119l2.82,5A71.82,71.82,0,0,1,114,115.79l-.74-5.7A78.78,78.78,0,0,0,87.29,119ZM64.05,138.43,68.58,142a72.23,72.23,0,0,1,18.9-16.54l-2.87-5A78.54,78.54,0,0,0,64.05,138.43ZM50,165.36l5.66,1.54a72.1,72.1,0,0,1,11.13-22.55l-4.55-3.58A77.55,77.55,0,0,0,50,165.36ZM47.35,195.7l5.77-.67a71.89,71.89,0,0,1,1.76-25.27l-5.66-1.54A78.5,78.5,0,0,0,47.35,195.7Zm.38,2.94a77.67,77.67,0,0,0,8.85,26.14l5-3a72.17,72.17,0,0,1-8-23.84ZM76.52,241a5.24,5.24,0,0,0-.62-.77A73.06,73.06,0,0,1,63,224.38l-5,3a78.81,78.81,0,0,0,9.2,12.34,7.39,7.39,0,0,1,.95,1.29,4,4,0,0,0,.53.76C71.19,241.44,73.8,241.19,76.52,241Zm5-1.39,8-21.63-23.72,5.37a70.13,70.13,0,0,0,12,14.68A7.74,7.74,0,0,1,79,239.4a5.25,5.25,0,0,0,.86,1c.5-.16,1-.32,1.55-.46A1.38,1.38,0,0,1,81.54,239.59Zm5.75-2L104,225.71l-.35-10.93L93,217.18,84.89,239l.2.05Zm8.86.9c2.63,0,5.38.09,8.23.23l-.3-9.45-13.14,9.35C92.61,238.52,94.35,238.48,96.15,238.48Zm30.18-17.34a34.67,34.67,0,0,1-8.93-.83l-5,18.92,2.43.19Zm-1.72,18.91-2.8-6.18-3.67,5.82,2.78.23,1.33.11Zm12.81-10.86-8-7.44-5.75,9.12,4.19,9.21,7.68.1.08-.37Zm12,11.17L140,231.61l-1.44,8.61h.94Zm7.24-1.05L150,210.1a33.94,33.94,0,0,1-6.88,5.71Zm22-8.49-22.81-8.52L160,240.46c2.76,0,5.47,0,8.08,0l1.6-.25a6.32,6.32,0,0,0,.43-.5,6.67,6.67,0,0,1,.91-.93A67.76,67.76,0,0,0,178.63,230.82Zm7.23,4.91-4.55-3.53a69.11,69.11,0,0,1-7.72,8.24q2.74,0,5.37-.09a2.34,2.34,0,0,1,1.25-.38,3.73,3.73,0,0,1,2,.73l.31-.55a8.75,8.75,0,0,1,1-1.59C184.32,237.63,185.1,236.69,185.86,235.73Zm13.86-27-5.52-1.59a72.71,72.71,0,0,1-11.1,22.68l4.55,3.53A76.92,76.92,0,0,0,199.72,208.76ZM70.07,138a2.09,2.09,0,0,0-2.31-1.88A2.06,2.06,0,0,0,66,138.4a2.1,2.1,0,0,0,2.31,1.88A2.08,2.08,0,0,0,70.07,138Zm126.55,74.68a2.08,2.08,0,0,0,1.73-2.31,2,2,0,1,0-1.73,2.31Zm-16.76,23.84a2.19,2.19,0,0,0,2.31,1.73,2.1,2.1,0,0,0,1.88-2.31,2.08,2.08,0,0,0-2.31-1.73A2.1,2.1,0,0,0,179.86,236.49Zm6.79-9a2,2,0,1,0,2.31,1.74A2,2,0,0,0,186.65,227.53ZM61.55,225.8a2.11,2.11,0,0,0-1.74,2.31,2,2,0,0,0,4-.58A2.1,2.1,0,0,0,61.55,225.8Zm-8.24-64.14a2,2,0,1,0,2.32,1.73A2,2,0,0,0,53.31,161.66Zm118.32-31.35a2,2,0,1,0,1.73-2.31A2.09,2.09,0,0,0,171.63,130.31ZM191.56,151a2.07,2.07,0,0,0-1.73,2.31,2.1,2.1,0,0,0,2.31,1.88,2.12,2.12,0,0,0-.58-4.19ZM188,148.08a2,2,0,1,0-2.31-1.73A2,2,0,0,0,188,148.08Zm11.12,27.3a2.11,2.11,0,0,0-.43-4.19,2.11,2.11,0,1,0,.43,4.19ZM196.47,203a2.1,2.1,0,0,0,2.31,1.88,2.3,2.3,0,0,0,1.74-2.31,2.11,2.11,0,0,0-2.31-1.88A2,2,0,0,0,196.47,203Zm-84.94-87.54a1.9,1.9,0,0,0,1.73-2.31,2,2,0,1,0-4,.58A1.91,1.91,0,0,0,111.53,115.43ZM84.37,126.27a2,2,0,1,0-2.31-1.74A2.12,2.12,0,0,0,84.37,126.27Zm85.09-1.16a2.11,2.11,0,1,0-1.88,2.31A2.19,2.19,0,0,0,169.46,125.11Zm-78-2.89a2,2,0,1,0-2.31-1.73A2,2,0,0,0,91.45,122.22Zm28-7.94a2,2,0,0,0-.58-4,2,2,0,0,0-1.74,2.31A1.92,1.92,0,0,0,119.48,114.28Z"/><path class="cls-6" d="M223.63,256H32.51A32.48,32.48,0,0,1,0,223.63V32.51A32.55,32.55,0,0,1,32.51,0H223.63A32.48,32.48,0,0,1,256,32.51V223.63A32.41,32.41,0,0,1,223.63,256ZM32.51,17.06A15.66,15.66,0,0,0,17.06,32.51V223.63a15.4,15.4,0,0,0,15.45,15.31H223.63a15.51,15.51,0,0,0,15.31-15.31V32.51a15.59,15.59,0,0,0-15.31-15.45Z"/></svg>