<svg id="Capa_1" data-name="Capa 1" xmlns="http://www.w3.org/2000/svg" viewBox="0 0 256 256"><defs><style>.cls-1{fill:#009c3d;}.cls-2{fill:#e20613;}.cls-3{fill:#fff;}.cls-4{fill:#009d3c;}.cls-5{fill:#014898;}.cls-6{fill:#0b6822;}</style></defs><title>progresion</title><rect class="cls-1" x="10" y="10" width="236" height="236"/><path class="cls-2" d="M241.83,154.58v76.71l-15.6,13.29H93.91l-7.08-6.21C38,184.77,34.68,134.93,99.54,97.52c36-20.66,10.55-57.06-31.06-74.83L58.22,18.35l-4.91-2.16,21.24-.58,5,1.59,16.76,5.49c61.4,20.08,80.18,39,72.52,80-7.65,41.89,44.64,47.38,73,51.86"/><path class="cls-3" d="M152.41,163.83l-18.92-32.94,30.91,28.89a35.77,35.77,0,0,0-12,4.05m24.85-3,9.82-36.69,1.59,42.33a36.56,36.56,0,0,0-11.41-5.64m19.65,14.88L229.7,156.6,201,187.66a38.11,38.11,0,0,0-4-12m3.46,24.85,36.7,9.82-42.33,1.45a37.46,37.46,0,0,0,5.63-11.27m-15.31,19.79,13.29,23.11,1.45,2.46-4.19-.58-2.17-2-20.37-18.93a37.78,37.78,0,0,0,12-4m-24.85,3-5.34,20.23-1,3.61H150l-.15-4.05L149,217.71a34.2,34.2,0,0,0,11.26,5.63M140.71,208,107.77,227.1,136.67,196a34.39,34.39,0,0,0,4,12m-3.18-24.41-36.69-9.83,42.33-1.59a36.62,36.62,0,0,0-5.64,11.42"/><circle class="cls-4" cx="168.83" cy="191.96" r="31.16"/><path class="cls-3" d="M156.9,168.27a1.32,1.32,0,0,0-.09-.48,1.93,1.93,0,0,1-.07-.53,1.37,1.37,0,0,1,.15-.38v0c.74-.34,1.5-.65,2.28-.92a1.46,1.46,0,0,0-.18.38,2.24,2.24,0,0,0,0,.52,1.4,1.4,0,0,1,0,.5,1.28,1.28,0,0,1-.19.41h0c-.73.29-1.45.61-2.15,1A1.54,1.54,0,0,0,156.9,168.27Zm2.29-2.34Zm.31,1.59a23.26,23.26,0,0,1,2.25-.69h0a1.3,1.3,0,0,0,.25-.39,1.35,1.35,0,0,0,0-.49,2.24,2.24,0,0,1,.06-.52,1.32,1.32,0,0,1,.23-.35h0a22.07,22.07,0,0,0-2.39.62v0a1.48,1.48,0,0,0-.2.37,2.26,2.26,0,0,0,0,.52,1.41,1.41,0,0,1,0,.5A1.73,1.73,0,0,1,159.5,167.52Zm-5.94,3.16a1.77,1.77,0,0,0,.07-.46,1.28,1.28,0,0,0-.17-.46,2.21,2.21,0,0,1-.15-.5,1.56,1.56,0,0,1,.08-.43c-.68.47-1.34,1-2,1.49v0a1.12,1.12,0,0,0,0,.41,2,2,0,0,0,.19.48,1.32,1.32,0,0,1,.21.45,1.36,1.36,0,0,1,0,.45,21.5,21.5,0,0,1,1.82-1.49Zm-10.76,19.4a1.33,1.33,0,0,0,.3.28,1.84,1.84,0,0,0,.51.14,1.58,1.58,0,0,1,.48.1,1.73,1.73,0,0,1,.35.31,23.07,23.07,0,0,1-.08-2.35v0a1.72,1.72,0,0,0-.32-.34,1.34,1.34,0,0,0-.48-.15,2.22,2.22,0,0,1-.49-.18,2,2,0,0,1-.27-.31c-.05.82-.05,1.64,0,2.47ZM156.3,169h0a1.25,1.25,0,0,0,.13-.44,1.17,1.17,0,0,0-.11-.49,2.27,2.27,0,0,1-.09-.52,1.37,1.37,0,0,1,.15-.38h0c-.74.37-1.45.77-2.15,1.2v0a1.37,1.37,0,0,0-.09.4,1.74,1.74,0,0,0,.13.51,1.24,1.24,0,0,1,.15.47,1.71,1.71,0,0,1-.09.45Q155.28,169.53,156.3,169Zm28.16,34.9A18.32,18.32,0,0,0,182.8,206c-.11.15-.2.3-.2.3a1.36,1.36,0,0,0,.15.47c.07.13.16.35.24.48a1.83,1.83,0,0,1,.13.84A8.79,8.79,0,0,0,184.8,206l.24-.38c0-.1,0-.2-.07-.31a1.59,1.59,0,0,0-.16-.41c-.07-.12-.22-.15-.28-.35a2.46,2.46,0,0,1-.06-.66ZM179.8,210a4.14,4.14,0,0,0,.7-1.41c0-.15.2-.52.24-.67,0,0-1.35-.24-1.49-.88-.5,1.47-.65,2.15-1.49,2.63-.19.16,0,0,0,0a1.62,1.62,0,0,0,0,.54,1.73,1.73,0,0,0,.14.44,2.32,2.32,0,0,0,.28.44A4.1,4.1,0,0,0,179.8,210Zm-2.26-.74a1.9,1.9,0,0,0,.57-.77l.21-.49a3,3,0,0,0-2.79.29c-.14.11-.4.18-.41.42h0s-.22,1.36.27,1.5a2.75,2.75,0,0,1,.86-.52,3.22,3.22,0,0,1,1-.39Zm6.51,1.2s.48-1.55,1.31-1.63l-.23-.05a4.11,4.11,0,0,0-2.41.44c-.65.35-1.66,1.18-1.67,1.74a4,4,0,0,1,2-.1C183.15,210.85,183.36,210.64,184.05,210.43Zm-3-2-.19.52c-.05.11-.29.56-.32.63s.87-.07,2-1h0a1.5,1.5,0,0,0,0-.42,2.12,2.12,0,0,0-.14-.55,2.27,2.27,0,0,0-.16-.39,1.12,1.12,0,0,1-.12-.35c-.1.15-.7.83-.7.83-.18.18-.3.28-.3.28s-.08.3-.12.43Zm-3.66,1.41a1.3,1.3,0,0,0,0,.52,2.52,2.52,0,0,0,.1.46c.2.6.31.54.31.54a8.82,8.82,0,0,1-3,.88s.05-.35.07-.44a1.15,1.15,0,0,0,.11-.38,1.45,1.45,0,0,1,.35-.7,17.17,17.17,0,0,0,1.84-.73Zm3.6-5a4.5,4.5,0,0,0-1.43,1.74h0c-.12.57,1.46.79,1.46.79h0c.31-.83.72-1.33,1.19-1.43.38-.55.8-1.07,1.23-1.58a2.53,2.53,0,0,0-2.44.47Zm-36.21-23.47a1.42,1.42,0,0,1,.41.28,1.77,1.77,0,0,1,.21.41,20.21,20.21,0,0,1,.83-2.2h0a1.75,1.75,0,0,0-.17-.43,1.29,1.29,0,0,0-.38-.31,3.06,3.06,0,0,1-.37-.35,1.36,1.36,0,0,1-.14-.4c-.35.75-.68,1.5-1,2.28v0a1.76,1.76,0,0,0,.17.37A2.15,2.15,0,0,0,144.76,181.36Zm-1.57,3.06Zm-.34,2.44a1.35,1.35,0,0,0,.26.32,1.87,1.87,0,0,0,.49.2,1.4,1.4,0,0,1,.47.17,1.63,1.63,0,0,1,.3.34,20.4,20.4,0,0,1,.25-2.34h0a1.41,1.41,0,0,0-.27-.37,1.32,1.32,0,0,0-.45-.21,2.55,2.55,0,0,1-.46-.25,1.56,1.56,0,0,1-.23-.34,21.71,21.71,0,0,0-.34,2.44Zm.76-2.8a1.24,1.24,0,0,0,.42.28,1.42,1.42,0,0,1,.44.23,1.7,1.7,0,0,1,.26.38h0a23.17,23.17,0,0,1,.53-2.3h0a1.47,1.47,0,0,0-.21-.39,1.21,1.21,0,0,0-.43-.26,2.24,2.24,0,0,1-.43-.31,1.27,1.27,0,0,1-.18-.37h0c-.26.78-.48,1.58-.81,2.47h0a1.07,1.07,0,0,1,.42.25Zm6.28-9.77a21.7,21.7,0,0,1,1.61-1.71h0a.92.92,0,0,0-.21-.9,2.62,2.62,0,0,1-.22-.48,1.39,1.39,0,0,1,0-.41,22.09,22.09,0,0,0-1.76,1.73h0a1.56,1.56,0,0,0,0,.43,2.51,2.51,0,0,0,.26.45,1.34,1.34,0,0,1,.28.42,1.41,1.41,0,0,1,0,.46Zm-3.42,4.62a1.21,1.21,0,0,1,.15.44,22.92,22.92,0,0,1,1.12-2.07h0a1.48,1.48,0,0,0-.11-.45,1.14,1.14,0,0,0-.33-.36,2.12,2.12,0,0,1-.33-.41,1.43,1.43,0,0,1-.09-.41c-.45.69-.87,1.4-1.25,2.13v0a1.38,1.38,0,0,0,.13.39,2.16,2.16,0,0,0,.36.38A1.42,1.42,0,0,1,146.47,178.91Zm1.31-2.72a1.17,1.17,0,0,1,.09.45c.43-.66.88-1.3,1.37-1.92l0,0a.89.89,0,0,0-.33-.86,3.23,3.23,0,0,1-.27-.44,1.49,1.49,0,0,1,0-.42c-.54.63-1,1.27-1.52,1.95h0a2,2,0,0,0,.07.42,2.1,2.1,0,0,0,.31.41A1.3,1.3,0,0,1,147.78,176.19Zm27,36.09Zm.16-46.46Zm-.29,1.28c-.15.05-.29.12-.44.16h0a10.62,10.62,0,0,1,2.12.89v0a3.52,3.52,0,0,0,.52-.22,1.44,1.44,0,0,0,.32-.38,2,2,0,0,1,.35-.37,1.3,1.3,0,0,1,.39-.14c-.74-.36-1.5-.68-2.31-1h0a2,2,0,0,1-.34.23,1.86,1.86,0,0,0-.33.41,2.28,2.28,0,0,1-.26.45Zm-3-.82a1.18,1.18,0,0,1-.37.26,10.41,10.41,0,0,1,2.18.6v0a2.47,2.47,0,0,0,.49-.28,1.17,1.17,0,0,0,.26-.44,2.1,2.1,0,0,1,.31-.41,1.09,1.09,0,0,1,.37-.19,14.91,14.91,0,0,0-2.34-.6h0a.6.6,0,0,0-.39.16,2.47,2.47,0,0,0-.27.44,1.26,1.26,0,0,1-.21.47Zm-3.06-.2a1.34,1.34,0,0,1-.36.31c.81,0,1.61.12,2.41.24v0a1.46,1.46,0,0,0,.38-.27,1.33,1.33,0,0,0,.21-.47,2.59,2.59,0,0,1,.26-.46,1.61,1.61,0,0,1,.35-.25c-.82-.15-1.66-.27-2.51-.35h0a1.29,1.29,0,0,0-.33.28,1.77,1.77,0,0,0-.21.49,1.28,1.28,0,0,1-.19.49Zm0-1.46Zm14.56,5.91Zm-.32.74a1.39,1.39,0,0,1-.44.29,1.75,1.75,0,0,1-.46,0c.6.51,1.18,1,1.73,1.6v0a1.33,1.33,0,0,0,.45,0,1.49,1.49,0,0,0,.43-.23,2.06,2.06,0,0,1,.48-.21,1.43,1.43,0,0,1,.41,0,19.32,19.32,0,0,0-1.7-1.69h0a.67.67,0,0,0-.45,0,1.83,1.83,0,0,0-.42.22Zm2.59,1.51Zm-5.17-3.45a1.3,1.3,0,0,1-.38.32,1.71,1.71,0,0,1-.45.09,21.43,21.43,0,0,1,1.91,1.37v0a1.75,1.75,0,0,0,.46,0,1.28,1.28,0,0,0,.4-.29,2.51,2.51,0,0,1,.45-.26,1.49,1.49,0,0,1,.42,0c-.63-.54-1.28-1.05-1.95-1.52h0a1.41,1.41,0,0,0-.41.07A1.79,1.79,0,0,0,180.3,169.33Zm-2.5-1.52a3.32,3.32,0,0,1-.4.42,2.25,2.25,0,0,1-.44.14c.71.34,1.41.71,2.08,1.11v0a.93.93,0,0,0,.81-.44,3.19,3.19,0,0,1,.4-.33,1.42,1.42,0,0,1,.41-.08,22.55,22.55,0,0,0-2.12-1.24h0a1.13,1.13,0,0,0-.41.11,1.07,1.07,0,0,0-.32.32Zm2.85.79Zm-5.76,47.53a7.72,7.72,0,0,0,1.22-.83c.1-.12.18-.27.28-.32h0a3,3,0,0,1-1.93-1.4,1.7,1.7,0,0,1-1.85-.51,4.08,4.08,0,0,0,.46,1.28,4.63,4.63,0,0,0,1.81,1.78ZM185,173.4a1.37,1.37,0,0,1-.44.21,1.41,1.41,0,0,1-.46,0,21.5,21.5,0,0,1,1.49,1.82v0a1.41,1.41,0,0,0,.45.07,1.12,1.12,0,0,0,.46-.17,2.21,2.21,0,0,1,.5-.15,1.86,1.86,0,0,1,.41.08c-.46-.67-1-1.33-1.49-2h0a1.5,1.5,0,0,0-.42,0A2,2,0,0,0,185,173.4Zm-7.82,40.46a2.62,2.62,0,0,1,.9-.28,8,8,0,0,1,.52-1.6,6,6,0,0,0-3.31,1.63l.4.23.93.42Zm-4.51-.79Zm14.8-37.78Zm-12.14,35.55Zm0-.09Zm-1.44-1.29a4.3,4.3,0,0,0-1.23,2.93h0s.89,1,1.66.62a3.78,3.78,0,0,1,.42-2l.05-.26a2.28,2.28,0,0,1-.54-1.64Zm-8.41-44.82Zm-2.86,1.58a2,2,0,0,1-.25.39,22.24,22.24,0,0,1,2.31-.38h0a1.43,1.43,0,0,0,.3-.35,1.67,1.67,0,0,0,.08-.49,2.23,2.23,0,0,1,.12-.51,1.34,1.34,0,0,1,.27-.31c-.81.06-1.63.16-2.45.3h0a1.16,1.16,0,0,0-.24.34,2.26,2.26,0,0,0-.08.51A1.2,1.2,0,0,1,162.57,166.22Zm3.09-.25a1.63,1.63,0,0,1-.3.34,23,23,0,0,1,2.35-.07h0a1.66,1.66,0,0,0,.33-.32,1.29,1.29,0,0,0,.15-.47,2.22,2.22,0,0,1,.18-.49,1.39,1.39,0,0,1,.32-.27,22.8,22.8,0,0,0-2.48,0h0a1.38,1.38,0,0,0-.29.3,2.17,2.17,0,0,0-.13.5,1.44,1.44,0,0,1-.1.5Zm3.71,46.62a2.19,2.19,0,0,1-.14.5,1.64,1.64,0,0,1-.27.32q1.23-.09,2.46-.3v0a1.42,1.42,0,0,0,.25-.34,2.24,2.24,0,0,0,.07-.51,1.2,1.2,0,0,1,0-.5,1.39,1.39,0,0,1,.25-.38,22.22,22.22,0,0,1-2.31.37h0a1.48,1.48,0,0,0-.29.36A1.15,1.15,0,0,0,169.37,212.59Zm17.44-4.26a2.85,2.85,0,0,0-1.1-2.61l-1.13,1.58a1,1,0,0,1,.4,1.1,8.06,8.06,0,0,1,1.83-.07Zm3.24,3.5.82.44.42-1.87a6.49,6.49,0,0,0-.77-.11Zm-.14-1.6-.49,1.46.22.06.49-1.46Zm-.71-10.54Zm-1.57,2.78Zm.46-3.3a1.76,1.76,0,0,1-.15-.44,20.59,20.59,0,0,1-1.11,2.07h0a1.35,1.35,0,0,0,.11.45,1.33,1.33,0,0,0,.34.37,2.08,2.08,0,0,1,.32.4,1.43,1.43,0,0,1,.09.41c.45-.69.87-1.4,1.25-2.13h0a1.51,1.51,0,0,0-.13-.41,2.09,2.09,0,0,0-.36-.37,1.46,1.46,0,0,1-.36-.34Zm-.22,12,1.13.32.55-1.54a1.41,1.41,0,0,0-1.68,1.22Zm-1.39-9.32a1.15,1.15,0,0,1-.08-.41c-.39.6-.8,1.18-1.24,1.74h0a2,2,0,0,0,0,.42,1.1,1.1,0,0,0,.21.4,2.17,2.17,0,0,1,.19.44,2.76,2.76,0,0,1,.06.4c.49-.56,1-1.25,1.47-1.86v0a1.19,1.19,0,0,0-.06-.37,2.66,2.66,0,0,0-.28-.38,1,1,0,0,1-.31-.35Zm-7.77,12.08a1.59,1.59,0,0,1,.42,1.87c1.37-.38,2-2.42,2-2.42a5.13,5.13,0,0,0-1.69.33Zm3.78-2.56a7.22,7.22,0,0,0-3,.35l-.78,1.67,1.86-.39a5,5,0,0,1,1.61.05s.92-1.59.34-1.67Zm-4.21,2.94-.38.26a2.52,2.52,0,0,1-.84.28h0c.16.77-1.39,1.48-1.39,1.48a4.16,4.16,0,0,0,2.56-.16h0a1.47,1.47,0,0,0,.05-1.86Zm10.42-4.73h0c-.54-.23-1-.44-1.25-.51a5.14,5.14,0,0,0-.95-.18,1.68,1.68,0,0,0-1.79,1.43,5.38,5.38,0,0,1,2.13.44l.37.21c0-.06.4-1.65,1.49-1.39ZM187.26,211h0Zm-2.71-.37c-.13.27-1,.59-1.3.67.28.37-.43,1.8-.43,1.8a3.48,3.48,0,0,0,2.08-.59,2.66,2.66,0,0,0,1-1.32,2.87,2.87,0,0,1-1.39-.56Zm-41.73-19.81Zm46.64-12.14a1.49,1.49,0,0,0-.4-.15,2.32,2.32,0,0,0-.52.07,1.37,1.37,0,0,1-.49.09,1.73,1.73,0,0,1-.44-.14,20.61,20.61,0,0,1,1,2.14v0a1.75,1.75,0,0,0,.42.19,1.4,1.4,0,0,0,.5-.05,3,3,0,0,1,.52,0,1.46,1.46,0,0,1,.38.18c-.27-.77-.58-1.54-.92-2.28Zm.84,2.35Zm-.64,15.64a.74.74,0,0,1-.5-.23,1.42,1.42,0,0,1-.2-.41,11.8,11.8,0,0,1-.88,2.12h0a2.93,2.93,0,0,0,.21.51,1.15,1.15,0,0,0,.38.31,2.47,2.47,0,0,1,.37.35,1.47,1.47,0,0,1,.14.4,6.06,6.06,0,0,0,.71-2.13h0c.22-.29.16-.42.08-.54a1.34,1.34,0,0,1-.32-.36Zm-11.49,17.58h0Zm12.77-29.66a2.71,2.71,0,0,0-.51-.11,1.35,1.35,0,0,1-.49-.07,1.65,1.65,0,0,1-.36-.28,22.85,22.85,0,0,1,.21,2.34v0a1.38,1.38,0,0,0,.33.31,1.18,1.18,0,0,0,.49.12,2.81,2.81,0,0,1,.49.16,1.18,1.18,0,0,1,.29.3h0c0-.83,0-1.65-.12-2.47v0A1.64,1.64,0,0,0,190.94,184.56ZM188,176h0a1.17,1.17,0,0,0-.41-.1,2.17,2.17,0,0,0-.5.13,1.6,1.6,0,0,1-.48.16,1.8,1.8,0,0,1-.45-.09h0a21.52,21.52,0,0,1,1.24,2v0a1.71,1.71,0,0,0,.44.13,1.4,1.4,0,0,0,.49-.11,1.81,1.81,0,0,1,.51-.08,1.44,1.44,0,0,1,.4.13A20.7,20.7,0,0,0,188,176Zm2.2,5.5a2.26,2.26,0,0,0-.52,0,1.21,1.21,0,0,1-.5,0,1.53,1.53,0,0,1-.4-.21c.26.75.49,1.5.68,2.26v0a2,2,0,0,0,.39.24,1.68,1.68,0,0,0,.5,0,1.84,1.84,0,0,1,.52.05,1.56,1.56,0,0,1,.34.23h0a21.49,21.49,0,0,0-.62-2.39v0a1.46,1.46,0,0,0-.38-.18Zm1,12.16Zm-.28.42a2.16,2.16,0,0,0-.44-.27,1.22,1.22,0,0,1-.44-.22,2,2,0,0,1-.26-.38,20.49,20.49,0,0,1-.53,2.29h0a1.53,1.53,0,0,0,.21.4,1.5,1.5,0,0,0,.44.26,2.1,2.1,0,0,1,.41.31,1.3,1.3,0,0,1,.19.37,24.68,24.68,0,0,0,.66-2.38v0a1.4,1.4,0,0,0-.25-.35Zm-.52,2.67Zm1.21-8.75a1.42,1.42,0,0,0-.31-.29,2.85,2.85,0,0,0-.5-.14,1.19,1.19,0,0,1-.49-.1,1.38,1.38,0,0,1-.34-.3,23.06,23.06,0,0,1,.07,2.35v0a1.4,1.4,0,0,0,.31.33,1.34,1.34,0,0,0,.48.15,2.26,2.26,0,0,1,.49.19,1.34,1.34,0,0,1,.27.31,22.62,22.62,0,0,0,0-2.47Zm-.08,3.2a1.4,1.4,0,0,0-.26-.33,2,2,0,0,0-.48-.2,1.33,1.33,0,0,1-.47-.17,1.22,1.22,0,0,1-.3-.34,23.19,23.19,0,0,1-.24,2.34v0a1.68,1.68,0,0,0,.27.37,1.32,1.32,0,0,0,.45.21,1.86,1.86,0,0,1,.46.25,1.31,1.31,0,0,1,.24.34c.15-.8.27-1.62.34-2.44Zm-2.48-13.11ZM149.28,204.6a1.32,1.32,0,0,1,.45-.21,1.36,1.36,0,0,1,.45,0,21.5,21.5,0,0,1-1.49-1.82v0a1.78,1.78,0,0,0-.45-.08,1.47,1.47,0,0,0-.47.17,2.07,2.07,0,0,1-.5.15,1.19,1.19,0,0,1-.41-.08c.47.69,1,1.34,1.49,2h0a1.87,1.87,0,0,0,.42,0A2.15,2.15,0,0,0,149.28,204.6ZM147,202.74Zm2,2.52Zm24.73,10.64a1.76,1.76,0,0,0-.24.3l.05-.11a2.82,2.82,0,0,0-.36.88c-.07.25-.14.77-.23,1.35h0c.37-1.08,2-.51,2-.51v0l.13-.47a5.46,5.46,0,0,1,.26-.67A2.42,2.42,0,0,1,173.66,215.9ZM147,202.21a2.17,2.17,0,0,0,.5-.13,1.36,1.36,0,0,1,.47-.15,1.33,1.33,0,0,1,.45.08c-.44-.64-.86-1.31-1.24-2h0a1.69,1.69,0,0,0-.44-.12,1.21,1.21,0,0,0-.49.11,2.26,2.26,0,0,1-.51.08,1.3,1.3,0,0,1-.39-.14,23.82,23.82,0,0,0,1.22,2.15h0A1.46,1.46,0,0,0,147,202.21Zm6.92,6.45a1.46,1.46,0,0,1,.37-.33,1.8,1.8,0,0,1,.45-.09,21.43,21.43,0,0,1-1.91-1.37v0a1.8,1.8,0,0,0-.46.05,1.38,1.38,0,0,0-.4.28,1.79,1.79,0,0,1-.44.27,1.5,1.5,0,0,1-.42,0c.63.53,1.28,1,2,1.51h0a1.14,1.14,0,0,0,.41-.07A2.47,2.47,0,0,0,153.94,208.66Zm-2.72-1.15Zm-8.08-14.26a1.42,1.42,0,0,0,.34.25,2.24,2.24,0,0,0,.51.07,1.2,1.2,0,0,1,.5,0,1.39,1.39,0,0,1,.38.25,22.22,22.22,0,0,1-.37-2.31v0a1.48,1.48,0,0,0-.36-.29,1.29,1.29,0,0,0-.48-.1,2.31,2.31,0,0,1-.52-.12,1.38,1.38,0,0,1-.31-.28,22.32,22.32,0,0,0,.29,2.46Zm2.2,6.74ZM144,196.32a1.3,1.3,0,0,0,.37.19,2.44,2.44,0,0,0,.54,0,1.05,1.05,0,0,1,.5,0,1.42,1.42,0,0,1,.41.2,20,20,0,0,1-.68-2.25h0a1.77,1.77,0,0,0-.4-.24,1.61,1.61,0,0,0-.49,0,1.8,1.8,0,0,1-.52-.05,1.41,1.41,0,0,1-.35-.23,24.66,24.66,0,0,0,.62,2.39Zm1.08,3a1.9,1.9,0,0,0,.4.14,1.86,1.86,0,0,0,.52-.07,1.37,1.37,0,0,1,.49-.09,1.57,1.57,0,0,1,.43.15c-.35-.7-.67-1.42-1-2.15v0a1.59,1.59,0,0,0-.42-.19,1.17,1.17,0,0,0-.49.05,3,3,0,0,1-.52,0,1.48,1.48,0,0,1-.38-.18,22.17,22.17,0,0,0,.92,2.28Zm-1-2.3Zm7.57,9.68a1.62,1.62,0,0,1,.41-.27,1.75,1.75,0,0,1,.46,0,20.1,20.1,0,0,1-1.72-1.61v0a1.76,1.76,0,0,0-.46,0,1.19,1.19,0,0,0-.43.23,2.58,2.58,0,0,1-.48.21,1.39,1.39,0,0,1-.41,0,22.12,22.12,0,0,0,1.73,1.76h0a1.41,1.41,0,0,0,.41,0,2.16,2.16,0,0,0,.47-.26Zm16.58,6.72a1.38,1.38,0,0,0,.28-.31,1.78,1.78,0,0,0,.14-.5,1,1,0,0,1,.41-.83,23.06,23.06,0,0,1-2.35.07h0a1.72,1.72,0,0,0-.34.32,1.11,1.11,0,0,0-.14.47,2.92,2.92,0,0,1-.19.49,2.06,2.06,0,0,1-.31.28c.82,0,1.64.05,2.47,0Zm3.94,7.49,1.81.64.06-.93-1.55-.43A6.58,6.58,0,0,0,172.19,220.94Zm-6.42-7.51Zm6.88,6.47,1.5.37,0-.23-1.49-.37Zm.08-.68,1.61.35.33-1.12A1.43,1.43,0,0,0,172.73,219.22Zm-7-7.07a1.73,1.73,0,0,1,.35-.31,20.54,20.54,0,0,1-2.35-.23l0,0a1.46,1.46,0,0,0-.38.27,1.25,1.25,0,0,0-.19.46,2,2,0,0,1-.25.45,1.31,1.31,0,0,1-.34.24c.8.15,1.62.26,2.44.34h0a1.18,1.18,0,0,0,.32-.27,2.1,2.1,0,0,0,.2-.49A1.25,1.25,0,0,1,165.73,212.15Zm-6-1.21a1.74,1.74,0,0,1,.41-.2c-.75-.24-1.49-.52-2.21-.83v0a1.52,1.52,0,0,0-.42.16,1.34,1.34,0,0,0-.32.39,2.53,2.53,0,0,1-.36.37,1.4,1.4,0,0,1-.39.14,23.74,23.74,0,0,0,2.27,1h0a1.84,1.84,0,0,0,.38-.17,2.51,2.51,0,0,0,.32-.41A1.22,1.22,0,0,1,159.77,210.94Zm-3.23.08Zm.29-.8a1.06,1.06,0,0,1,.33-.37,1.57,1.57,0,0,1,.43-.15c-.7-.34-1.4-.71-2.07-1.11v0a.93.93,0,0,0-.81.44,2.6,2.6,0,0,1-.4.33,1.86,1.86,0,0,1-.41.08c.69.45,1.4.87,2.13,1.25h0a1.36,1.36,0,0,0,.39-.12,2.6,2.6,0,0,0,.38-.36Zm5.91,1.62a1.15,1.15,0,0,1,.37-.25,21.79,21.79,0,0,1-2.25-.57l0,0a1.39,1.39,0,0,0-.4.21,1.27,1.27,0,0,0-.25.42,2.47,2.47,0,0,1-.3.42,1.52,1.52,0,0,1-.36.18c.76.26,1.54.49,2.33.68h0a1.36,1.36,0,0,0,.35-.21,2.46,2.46,0,0,0,.25-.45,1.22,1.22,0,0,1,.24-.43ZM162.6,213Zm-3.09-.79Z"/><path class="cls-3" d="M154.62,195.78l-.09-1.57,1.48-.57-1.54-.41-.1-1.58-.84,1.33-1.53-.4,1,1.22-.85,1.34,1.47-.57ZM166,194h0a24.63,24.63,0,0,0-2.23,1.73c-1.29-1.32-3.58-2.67-5.35-1.27a3,3,0,0,0,0,4.59c-2.18,1.7-5.28.93-7-1a6.18,6.18,0,0,1,1.33-9.51c4.84-2.8,11.14,2.08,13.28,5.41m13.36-12.49-.56-1.48,1.23-1-1.58.07-.56-1.48-.41,1.54-1.58.07,1.32.87-.42,1.52,1.23-1Zm-7.21,9c-1.81-3.51-2.88-11.41,2-14.21a6.17,6.17,0,0,1,8.9,3.6c.79,2.46-.1,5.53-2.67,6.58a3,3,0,0,0-4-2.34c-2.1.84-2.08,3.49-1.58,5.26a28,28,0,0,0-2.62,1.1Zm-1.79,3.95c3.13-1.8,5.48-3.55,5.37-3.75s-2.82,1-6,2.77-5.48,3.58-5.37,3.78,2.83-1,6-2.8m.39.72c-3.62,2.08-6.86,3.24-7.24,2.58s2.23-2.88,5.85-5,6.86-3.25,7.24-2.59-2.24,2.89-5.86,5m5.4-2.84a3,3,0,0,0,5.12-.13,3.38,3.38,0,0,1-1.19,4.34c-2,1.18-5-1.23-6-2.58h0a25.22,25.22,0,0,0,2.09-1.65Zm-8.25,5.2c.68,1.51,1.3,5.34-.75,6.53a3.39,3.39,0,0,1-4.36-1.14,3.05,3.05,0,0,0,2.66-4.42v0a23.71,23.71,0,0,0,2.46-1Zm-10.24-25.05a27.41,27.41,0,0,0,3.92.76,8.92,8.92,0,0,1,6.75,4.08c2.18,3.7.93,8.77,3.13,13.49a21.32,21.32,0,0,0-2.08,1.05c-2.55-4.6-6.28-10.67-9.16-14.94,2.26,4.63,5.65,10.9,8.36,15.41a21.17,21.17,0,0,0-2,1.27c-3-4.26-8-5.72-10.11-9.45a8.88,8.88,0,0,1-.16-7.89,26.39,26.39,0,0,0,1.31-3.78m18.42,31.91a10.46,10.46,0,0,1-6.66-1.57,11.6,11.6,0,0,0-.78-5.62c.66-.32,1.37-.69,2.08-1.09a40.75,40.75,0,0,0,3.41,4.91,40.66,40.66,0,0,0-2.55-5.42c.71-.4,1.37-.83,2-1.24a11.82,11.82,0,0,0,4.47,3.48,10.34,10.34,0,0,1-2,6.55"/><path class="cls-5" d="M247,211.48l-4-1.08c.22-17.83,0-36.07-.7-51.63a5.11,5.11,0,0,0-1.16-2.88,9.8,9.8,0,0,1-.54-.88c-.56-1.11-1.12-2.22-1.82-3.48a81,81,0,0,0-109.11-30.26l-5.14-9,8.2-4.7a45,45,0,0,1,3.07,6.81l7.8-14.88-16.9-.72a63.66,63.66,0,0,1,4.52,6.24l-8.16,4.68-1.36-2.38a6.47,6.47,0,0,0-6.25-10.89L109.67,86.4a44.24,44.24,0,0,1,6.93-3.14l-14.88-7.8L101,92.36a63.19,63.19,0,0,1,6.13-4.45l5.73,10a6.49,6.49,0,0,0,6.3,11l1.34,2.34-8,4.59a45,45,0,0,1-3.27-7.16l-7.8,14.88,16.9.72a65.32,65.32,0,0,1-4.31-5.9l8-4.57,5.15,9A80.64,80.64,0,0,0,97.9,230.61a3.77,3.77,0,0,0-4,0,3.92,3.92,0,1,0,3.9,6.79,4.06,4.06,0,0,0,2-3.12c.42.92.83,1.9,1.25,2.92,2.11,5.16,4.5,11,9.92,10.48,2.8-.29,6-.5,9.46-.63a3.2,3.2,0,0,0,2.36,1.06h0c8.16-.75,16.84-1,25.69-1v.41a1,1,0,0,0,0,.16l0,1h.57a2.17,2.17,0,0,0,.88.29l8.53-.15a1.47,1.47,0,0,0,1.24-.72l.46-.77,8.69.25.86,0,.24.5a1.47,1.47,0,0,0,1.34.86h0l9.1-.29a1.49,1.49,0,0,0,1.22-.73c15.8.42,31.39.68,44.52.15a2.83,2.83,0,0,0,2.39-1.78,2.75,2.75,0,0,0,.15-.29,75,75,0,0,0,11.31-16.14c.25-.43.53-.84.81-1.25a8.12,8.12,0,0,0,1.85-4.51c.1-4.11.19-8.29.25-12.49Zm-47,31.84L187,220.7a33.84,33.84,0,0,0,6.82-5.66l6.45,28.26Zm-46.88.8h-1.8l-.85-23.49a36.91,36.91,0,0,0,7.89,3.7l-5,18.85Zm-10.57-35.48.1-.06-.71-1.27a33.34,33.34,0,0,1-3.87-11.48l-.42-2.9a31.15,31.15,0,0,1,.72-7.54l.11,0L139,184a35.29,35.29,0,0,1,5.4-11l1.38-1.86a31.2,31.2,0,0,1,7.56-6.11h0c.71-.41,1.43-.78,2.15-1.13a33.69,33.69,0,0,1,9.16-2.73l.58-.08a31.22,31.22,0,0,1,10.3.54l0,.1,1.38.41a34.91,34.91,0,0,1,10.95,5.4l1.68,1.24a31,31,0,0,1,6.12,7.5h0a36.53,36.53,0,0,1,3.9,11.52l.08.56a31.26,31.26,0,0,1-6,22.3,1,1,0,0,0-.13.16.83.83,0,0,0-.13.18,30.42,30.42,0,0,1-9,7.81,30.91,30.91,0,0,1-11.49,3.86l-.18,0A31.42,31.42,0,0,1,142.61,208.64Zm95-23.83A68.42,68.42,0,0,1,236.12,208l-20.6-13Zm-25,8.3-9.15-5.75,7.34-7.93,23.09,3.85Zm.6-16.28,16.36-17.68A69.31,69.31,0,0,1,237,180.81ZM197.6,210.19a39.37,39.37,0,0,0,3.74-7.88l25.37,6.79Zm4.3-25.73a34,34,0,0,0-3-8.22l23-13.4Zm-4.51-10.78a33.77,33.77,0,0,0-5.64-6.77l28.65-6.61Zm-7.32-9.42-.41-10.86,18.92-13.46-8.17,21.94Zm13.79-3.18,8.48-22.76a68.61,68.61,0,0,1,15.13,17.32Zm-14.33-11.21-.9-24.06a68.61,68.61,0,0,1,20.54,10.08Zm-3.67-15.47,1.08,28.84a34.75,34.75,0,0,0-7.83-3.62Zm-9.61,24.44a33.71,33.71,0,0,0-7.51-.85c-.49,0-1,0-1.48,0l16.09-25.69Zm-21.5,2.21-.89.41-.87.4L139.68,138.7l21.55,20.14a33.18,33.18,0,0,0-6,2Zm17-15.72-10-22.1a69.07,69.07,0,0,1,22.92,1.5Zm-1.89,3-5.73,9.14-3.35-3.13-4.44-4.14L160.16,127Zm-16.11-.56-5-4.66L136,131.19a69.21,69.21,0,0,1,21.71-7.43Zm-3.27,15.61a34.07,34.07,0,0,0-6.68,5.54l-6.61-28.66Zm-9.28,7.4-10.79.37L116.81,152l21.92,8.16Zm-3.25-14.08-22.71-8.45A69.11,69.11,0,0,1,132.5,133.2Zm-11.08,14.57-24.29.83a68.48,68.48,0,0,1,10.22-20.69ZM140,173.8a34.58,34.58,0,0,0-3.67,8L110.7,174.9Zm-4.44,10.83a33.79,33.79,0,0,0-.83,8.7l-24.7-15.54Zm-1.37,11.85-7.33,7.84-23.07-3.88,21.27-9.7Zm-32.69-20.56,20.57,12.94L100,199A68.71,68.71,0,0,1,101.53,175.92Zm22.94,31-16.58,17.74a68.88,68.88,0,0,1-7.41-21.78Zm11.08-7.51a34,34,0,0,0,3,8.15l-23,13.3Zm4.5,10.71a34.18,34.18,0,0,0,5.69,6.8L117,223.45Zm56.1,33.63-19.92-18.5a40.82,40.82,0,0,0,8.25-3l12.31,21.42Zm.29-30.54,10.87-.37,13.5,19-22-8.14Zm5.47-13.81a34.16,34.16,0,0,0,.8-9l25.43,16Zm38.14,10.11-1.17-.32q.75-3.08,1.23-6.21Q240.09,206.25,240.05,209.51Zm-1.35-52a3.21,3.21,0,0,1,.65,1.28c.29,6.85.51,14.2.63,21.8a72.31,72.31,0,0,0-8.21-23.49l5.14-2.85c.39.73.76,1.47,1.19,2.32A10,10,0,0,0,238.7,157.55Zm-3.32-6-5.11,3a71.38,71.38,0,0,0-16.53-18.91l3.53-4.58A77.57,77.57,0,0,1,235.38,151.59Zm-45.12-34.38a78.29,78.29,0,0,1,24.66,12.07l-3.53,4.57a71.68,71.68,0,0,0-22.63-11.09Zm-2.85-.77L185.9,122a71.78,71.78,0,0,0-25.13-1.65l-.78-5.72A78.2,78.2,0,0,1,187.41,116.44ZM157.06,115l.78,5.73a72.21,72.21,0,0,0-23.79,8.16l-2.91-5.07A77.31,77.31,0,0,1,157.06,115Zm-28.48,10.3,2.91,5.06a72.15,72.15,0,0,0-19,16.52l-4.63-3.49A78.07,78.07,0,0,1,128.58,125.31Zm-22.49,20.44,4.62,3.48a71.8,71.8,0,0,0-11.17,22.66L94,170.43A77.84,77.84,0,0,1,106.09,145.75ZM93.21,173.28l.65.17,4.91,1.32a71.83,71.83,0,0,0-1.69,25.07l-5.7.76A77.5,77.5,0,0,1,93.21,173.28Zm-1.44,30.25,5.7-.76a72.3,72.3,0,0,0,8.13,23.89l-4.94,2.88A77.38,77.38,0,0,1,91.77,203.53Zm18.9,41.17c-3,.23-4.75-3.41-6.9-8.66-.53-1.31-1.09-2.66-1.69-3.9l5-2.93a93.27,93.27,0,0,0,11.06,14.94C115.43,244.28,112.93,244.46,110.67,244.7Zm15-.79-3.86.1,0,0a10.17,10.17,0,0,0-1.09-1.41,90.21,90.21,0,0,1-10.82-14.45l23.6-5.37-7.16,19.32Zm3.21,0h-.06l8.1-21.92,10.61-2.41,0,.33.35,10.48-16.85,12Zm5.16,0,14-10,.34,10.16C143.38,244,138.58,243.88,134,243.86Zm24.63.32-2.49,0,5.1-19.11a33.19,33.19,0,0,0,8.83.86Zm3.45.06,3.5-5.59,2.65,5.72Zm17.26.38-6.39-.14-1.43,0-4.06-8.78,5.73-9.14,8,7.42Zm4.43-8.27,9.13,8.49c-3.52,0-7.05-.08-10.57-.16Zm31.47,6.88a8.09,8.09,0,0,1-.92,1,8.7,8.7,0,0,0-.9.36c-3.26.14-6.56.22-9.89.27a1.52,1.52,0,0,0,0-.6l-3.92-17.06,22.81,8.44a71.41,71.41,0,0,1-6.48,6.92C215.72,242.75,215.5,243,215.28,243.23Zm10.85,1.9h0Zm.37-1a5.53,5.53,0,0,0-.45.72l-.17.3c-2.75.1-5.6.18-8.53.22l.14-.16c.18-.19.35-.4.51-.55a75,75,0,0,0,7.06-7.58l4.54,3.43C228.62,241.72,227.58,242.93,226.5,244.12Zm13.28-20.05a5.75,5.75,0,0,1-1.34,2.89c-.31.46-.63.93-1,1.49a68.61,68.61,0,0,1-6.07,9.71l-4.54-3.43a71.5,71.5,0,0,0,11.24-22.68l1.91.53C240,216.44,239.88,220.28,239.78,224.07Zm-14.92,8.38-14-19.73,24.21-.83A68.51,68.51,0,0,1,224.86,232.45Zm7.44,3.17a2.24,2.24,0,0,1-2.89.44,2.07,2.07,0,0,1,2.46-3.33A2.09,2.09,0,0,1,232.3,235.62Zm-8.23,3.9a2.11,2.11,0,1,1,.43,2.89A2.06,2.06,0,0,1,224.07,239.52ZM161.23,115.87a2,2,0,0,1,2.88-.29,2,2,0,0,1,.44,2.89,2.06,2.06,0,0,1-2.89.28A2.16,2.16,0,0,1,161.23,115.87Zm21.23,1.44a2.11,2.11,0,1,1,.43,2.89A1.93,1.93,0,0,1,182.46,117.31ZM107.2,231a2.07,2.07,0,1,1-2.46,3.32,2,2,0,0,1-.43-2.89A2.09,2.09,0,0,1,107.2,231Zm102.71-99.39a2.11,2.11,0,1,1,2.89-.43A2.06,2.06,0,0,1,209.91,131.61Zm-16.33-9.82a1.92,1.92,0,0,1-2.88.43,2.05,2.05,0,0,1,2.6-3.18A1.88,1.88,0,0,1,193.58,121.79ZM153.42,117a2.06,2.06,0,0,1,2.89-.29,1.94,1.94,0,0,1,.44,2.89,2.06,2.06,0,0,1-2.89.29A2.22,2.22,0,0,1,153.42,117Zm77,35.68a2.07,2.07,0,0,1-.29-2.89,2,2,0,0,1,2.89-.43,2.06,2.06,0,0,1,.29,2.89A2.18,2.18,0,0,1,230.42,152.7Zm-14.59-19.07a2.24,2.24,0,0,1,2.89-.43,2.06,2.06,0,0,1,.29,2.89,1.93,1.93,0,0,1-2.89.43A2.06,2.06,0,0,1,215.83,133.63Zm21.24,22.68a2.07,2.07,0,0,1,.29,2.89,1.94,1.94,0,0,1-2.89.44,2.06,2.06,0,0,1-.29-2.89A2.24,2.24,0,0,1,237.07,156.31ZM96.8,206.59a2,2,0,0,1-2.89.43,2.06,2.06,0,1,1,2.45-3.32A2,2,0,0,1,96.8,206.59Zm3.75,20.8a2.06,2.06,0,0,1-.29-2.89,2,2,0,0,1,2.89-.43,2.06,2.06,0,0,1,.29,2.89A2.19,2.19,0,0,1,100.55,227.39Zm-5.2-31.49a2.06,2.06,0,0,1-2.45,3.32,2.06,2.06,0,1,1,2.45-3.32Zm3.9-26.15a2,2,0,0,1-2.89.43,2.07,2.07,0,0,1-.29-2.89,2,2,0,0,1,2.89-.43A2.06,2.06,0,0,1,99.25,169.75Zm6.21-21.53a2.06,2.06,0,0,1,2.89-.28,1.94,1.94,0,0,1,.44,2.88,2.05,2.05,0,0,1-2.89.29A2.18,2.18,0,0,1,105.46,148.22Zm8.09-3.75a2.11,2.11,0,1,1-.43-2.89A2,2,0,0,1,113.55,144.47ZM93.91,175.09a2.07,2.07,0,0,1,3.32,2.46,2.07,2.07,0,1,1-3.32-2.46Z"/><path class="cls-6" d="M223.63,256H32.51A32.55,32.55,0,0,1,0,223.49V32.37A32.48,32.48,0,0,1,32.51,0H223.63A32.41,32.41,0,0,1,256,32.37V223.49A32.48,32.48,0,0,1,223.63,256ZM32.51,17.06A15.4,15.4,0,0,0,17.06,32.37V223.49a15.66,15.66,0,0,0,15.45,15.45H223.63a15.59,15.59,0,0,0,15.31-15.45V32.37a15.51,15.51,0,0,0-15.31-15.31Z"/></svg>