<svg id="Capa_1" data-name="Capa 1" xmlns="http://www.w3.org/2000/svg" viewBox="0 0 256 256"><defs><style>.cls-1{fill:#ffd400;}.cls-2{fill:#009d3c;}.cls-3{fill:#fff;}.cls-4{fill:#005ca8;}.cls-5{fill:#009540;}.cls-6{fill:#0b6822;}</style></defs><title>progresion</title><rect class="cls-1" x="10" y="10" width="236" height="236"/><circle class="cls-2" cx="80.8" cy="175.9" r="32.24"/><path class="cls-3" d="M95.85,153a1.41,1.41,0,0,0,.39-.34,2,2,0,0,1,.44-.33,1.41,1.41,0,0,1,.41-.07h0a23.45,23.45,0,0,1,2,1.56,1.6,1.6,0,0,0-.44,0,2.6,2.6,0,0,0-.45.28,1.35,1.35,0,0,1-.42.3,1.57,1.57,0,0,1-.48.05l0,0a23.13,23.13,0,0,0-2-1.43A1.51,1.51,0,0,0,95.85,153Zm3.29.83Zm-1.26,1.11a23.16,23.16,0,0,1,1.77,1.66v0a1.47,1.47,0,0,0,.47,0,1.35,1.35,0,0,0,.46-.24,2.71,2.71,0,0,1,.49-.22,1.56,1.56,0,0,1,.43,0h0a22,22,0,0,0-1.79-1.83h0a1.61,1.61,0,0,0-.44,0,2.48,2.48,0,0,0-.47.27,1.23,1.23,0,0,1-.43.28A1.44,1.44,0,0,1,97.88,154.89Zm-4.25-4.74Zm-1.66,1a1.49,1.49,0,0,0,.44-.17,1.13,1.13,0,0,0,.33-.39,2.72,2.72,0,0,1,.37-.39,1.62,1.62,0,0,1,.42-.15,24.3,24.3,0,0,0-2.35-1h0a1.38,1.38,0,0,0-.39.18,2.18,2.18,0,0,0-.33.42,1.37,1.37,0,0,1-.29.42,2.1,2.1,0,0,1-.42.22,20.15,20.15,0,0,1,2.28.86Zm-23,.4a1.5,1.5,0,0,0-.09.42,2.42,2.42,0,0,0,.13.53,1.36,1.36,0,0,1,.16.48,1.86,1.86,0,0,1-.09.47,21.69,21.69,0,0,1,2.07-1.28h0a1.45,1.45,0,0,0,.14-.46,1.46,1.46,0,0,0-.12-.5,2.52,2.52,0,0,1-.08-.54,1.19,1.19,0,0,1,.14-.4A24.5,24.5,0,0,0,69,151.57Zm25.91,1.18h0a1.55,1.55,0,0,0,.47-.12,1.27,1.27,0,0,0,.38-.35,2.79,2.79,0,0,1,.42-.35,1.84,1.84,0,0,1,.42-.07h0c-.71-.47-1.44-.9-2.19-1.3v0a1.48,1.48,0,0,0-.41.12,2.34,2.34,0,0,0-.39.38,1.24,1.24,0,0,1-.34.38,1.42,1.42,0,0,1-.45.16A21.62,21.62,0,0,1,94.92,152.77Zm-16.7,43.29a19,19,0,0,0-2.81-.36l-.37,0a1.75,1.75,0,0,0-.34.38c-.08.14-.23.32-.31.47a1.92,1.92,0,0,1-.68.55,9.36,9.36,0,0,0,2.79.39l.46,0,.25-.22a1.93,1.93,0,0,0,.28-.36c.07-.13,0-.28.18-.43a2.48,2.48,0,0,1,.56-.4Zm-7.89-1A4.21,4.21,0,0,0,72,195l.73-.14s-.48-1.33,0-1.79c-1.58.32-2.27.53-3.13,0-.24-.09,0,0,0,0a1.6,1.6,0,0,0-.47.31,2.08,2.08,0,0,0-.32.34,2.73,2.73,0,0,0-.25.48A4.09,4.09,0,0,0,70.33,195Zm-.51-2.4a2.1,2.1,0,0,0,1,.12l.54-.08a3,3,0,0,0-1.7-2.34c-.17-.07-.37-.27-.58-.16h0s-1.34.51-1.21,1a3,3,0,0,1,.92.5,3,3,0,0,1,.87.72Zm2.3,6.46s1.63-.38,2.14.32l-.08-.22a4.22,4.22,0,0,0-1.65-1.94c-.64-.39-1.9-.87-2.41-.6a4.17,4.17,0,0,1,1.13,1.76C71.27,198.51,71.57,198.58,72.12,199.1Zm.2-3.73-.56.1c-.12,0-.66,0-.73,0s.5.74,1.91,1.3h0a1.53,1.53,0,0,0,.39-.18,2,2,0,0,0,.42-.41,2.33,2.33,0,0,0,.27-.35,1.32,1.32,0,0,1,.25-.28c-.19,0-1.11-.2-1.11-.2l-.4-.12c-.15,0-.31.08-.45.11Zm-3.16-2.56a1.65,1.65,0,0,0-.45.29,2.31,2.31,0,0,0-.36.34c-.44.48-.32.55-.32.55a9.13,9.13,0,0,1-2.36-2.25s.34-.14.43-.16.27,0,.4-.1a1.49,1.49,0,0,1,.81,0,16.33,16.33,0,0,0,1.61,1.27Zm6.39.63a4.58,4.58,0,0,0-2.31-.38h0c-.57.18.05,1.71.05,1.71h0a2.09,2.09,0,0,1,1.9.33,20.22,20.22,0,0,1,2,.29c-.18-1-.69-1.42-1.69-1.95Zm2.29-44.6a1.26,1.26,0,0,1,0,.51,1.53,1.53,0,0,1-.26.4,24,24,0,0,1,2.4-.4h0a1.35,1.35,0,0,0,.3-.37,1.43,1.43,0,0,0,.09-.5,2.31,2.31,0,0,1,.12-.52,1.22,1.22,0,0,1,.28-.32,24.12,24.12,0,0,0-2.54.31v0a1.61,1.61,0,0,0-.24.34A2.52,2.52,0,0,0,77.84,148.84Zm-3.55.18Zm-2.37.95a1.44,1.44,0,0,0-.15.41,2,2,0,0,0,.07.54,1.24,1.24,0,0,1,.1.5,1.42,1.42,0,0,1-.16.45,23.28,23.28,0,0,1,2.23-1h0a1.72,1.72,0,0,0,.19-.44,1.27,1.27,0,0,0,0-.51,2.44,2.44,0,0,1,0-.54,1.41,1.41,0,0,1,.19-.39q-1.2.42-2.37,1Zm2.91-.76a1.13,1.13,0,0,0,0,.52,1.25,1.25,0,0,1,0,.51,1.52,1.52,0,0,1-.2.43h0a23.26,23.26,0,0,1,2.33-.72h0a2.14,2.14,0,0,0,.24-.39,1.57,1.57,0,0,0,0-.53,1.94,1.94,0,0,1,0-.53,1.41,1.41,0,0,1,.24-.36h0c-.84.17-1.66.39-2.63.55v0a1.05,1.05,0,0,1,0,.5Zm12.53-1.13Zm-.53,1.7a21.46,21.46,0,0,1,2.37.56l0,0a1.41,1.41,0,0,0,.42-.22,1.44,1.44,0,0,0,.28-.44,2.13,2.13,0,0,1,.31-.43,1.44,1.44,0,0,1,.39-.2c-.81-.26-1.63-.49-2.46-.67h0a1.5,1.5,0,0,0-.39.22,2.13,2.13,0,0,0-.27.46,1.17,1.17,0,0,1-.23.46,1.31,1.31,0,0,1-.4.26Zm-5.91-.67a1.74,1.74,0,0,1-.31.36A21.91,21.91,0,0,1,83,149.4h0a1.56,1.56,0,0,0,.35-.33,1.4,1.4,0,0,0,.15-.49,2.23,2.23,0,0,1,.19-.51,1.81,1.81,0,0,1,.33-.29c-.85-.05-1.71-.05-2.56,0v0a1.47,1.47,0,0,0-.29.32,1.91,1.91,0,0,0-.14.52A1.46,1.46,0,0,1,80.92,149.11Zm3.12-.24a1.59,1.59,0,0,1-.36.32,21.72,21.72,0,0,1,2.43.23h0a1.49,1.49,0,0,0,.38-.28,1.28,1.28,0,0,0,.21-.46,3.1,3.1,0,0,1,.26-.47,1.41,1.41,0,0,1,.36-.24c-.84-.16-1.68-.28-2.53-.36v0a1.54,1.54,0,0,0-.34.28,2.13,2.13,0,0,0-.21.49A1.38,1.38,0,0,1,84,148.87ZM65.65,191.72Zm41.72-23.9Zm-1.3.4c-.12-.11-.25-.2-.37-.3h0a10.84,10.84,0,0,1,.31,2.35v0a3.11,3.11,0,0,0,.46.35,1.25,1.25,0,0,0,.51.09,2.36,2.36,0,0,1,.51.12,1.75,1.75,0,0,1,.33.28c-.06-.85-.17-1.69-.28-2.6h0a2,2,0,0,1-.39-.18,1.89,1.89,0,0,0-.53-.08,4.86,4.86,0,0,1-.54,0Zm-.79-3.07a1.15,1.15,0,0,1-.43-.21,11.19,11.19,0,0,1,.59,2.27l0,0a2.27,2.27,0,0,0,.51.3,1.51,1.51,0,0,0,.52,0,1.57,1.57,0,0,1,.53.06,1.16,1.16,0,0,1,.36.23,14.26,14.26,0,0,0-.68-2.41h0a.49.49,0,0,0-.34-.26,2.37,2.37,0,0,0-.53,0,1.11,1.11,0,0,1-.54,0Zm-1.41-2.85a1.79,1.79,0,0,1-.46-.16c.38.74.72,1.5,1,2.28v0a1.58,1.58,0,0,0,.44.2,1.35,1.35,0,0,0,.53,0,2.53,2.53,0,0,1,.55,0,1.34,1.34,0,0,1,.4.19,25.18,25.18,0,0,0-1-2.43h0a1.5,1.5,0,0,0-.42-.15,2.06,2.06,0,0,0-.55.06,1.23,1.23,0,0,1-.54.09Zm1.33-.73Zm2.24,16.11Zm-.83.11a1.87,1.87,0,0,1-.49-.25,1.53,1.53,0,0,1-.26-.4c-.15.81-.33,1.6-.54,2.38v0a1.19,1.19,0,0,0,.21.42,1.34,1.34,0,0,0,.43.26,2.67,2.67,0,0,1,.43.32,1.41,1.41,0,0,1,.19.39,18.25,18.25,0,0,0,.64-2.4h0A.69.69,0,0,0,107,178a1.72,1.72,0,0,0-.42-.25Zm0,3.1Zm.42-6.43a1.25,1.25,0,0,1-.49-.17,1.34,1.34,0,0,1-.31-.36,24.38,24.38,0,0,1-.24,2.43v0a1.75,1.75,0,0,0,.28.39,1.48,1.48,0,0,0,.46.21,2.2,2.2,0,0,1,.47.27,1.45,1.45,0,0,1,.24.35,23.68,23.68,0,0,0,.35-2.53h0a1.22,1.22,0,0,0-.27-.33A2.12,2.12,0,0,0,107,174.46Zm.06-3a2.31,2.31,0,0,1-.58-.15,1.47,1.47,0,0,1-.35-.31c.06.81.09,1.62.08,2.44v0a1.29,1.29,0,0,0,.32.34,1.4,1.4,0,0,0,.49.15,2.25,2.25,0,0,1,.51.2,1.43,1.43,0,0,1,.28.32,23.93,23.93,0,0,0,0-2.54h0a1,1,0,0,0-.31-.31,1.16,1.16,0,0,0-.45-.12Zm.77,3ZM62.27,193.84a8.24,8.24,0,0,0,1.37.66,1.15,1.15,0,0,1,.43.09h0a3.12,3.12,0,0,1,.25-2.45,1.79,1.79,0,0,1-.5-1.92,4.24,4.24,0,0,0-.91,1.07,5,5,0,0,0-.66,2.54Zm43.51-13.09a1.37,1.37,0,0,1-.42-.29,1.68,1.68,0,0,1-.22-.42,20.15,20.15,0,0,1-.86,2.28l0,0a1.46,1.46,0,0,0,.16.44,1.34,1.34,0,0,0,.39.32,2,2,0,0,1,.39.38,1.38,1.38,0,0,1,.15.4c.36-.76.7-1.54,1-2.35h0a1.38,1.38,0,0,0-.18-.39A2.18,2.18,0,0,0,105.78,180.75ZM65.47,194.68a2.49,2.49,0,0,1,.71.66,8.08,8.08,0,0,1,1.71-.36,6.12,6.12,0,0,0-3.18-2.12v.47l.11,1Zm-1.63-4.46Zm41.52-6.28Zm-38.14,7.52Zm.07-.06Zm.41-2a4.46,4.46,0,0,0-3.26.4h0s-.45,1.32.31,1.8a4,4,0,0,1,2-.63l.25-.1a2.37,2.37,0,0,1,1.19-1.33Zm35.82-30.74Zm-2.9-1.74a1.83,1.83,0,0,1-.47,0,23.22,23.22,0,0,1,1.53,1.88v0a1.5,1.5,0,0,0,.47.08,1.4,1.4,0,0,0,.48-.18,2.29,2.29,0,0,1,.51-.15,1.26,1.26,0,0,1,.43.08c-.48-.7-1-1.38-1.54-2h0a1.32,1.32,0,0,0-.44,0,2.37,2.37,0,0,0-.5.2A1.26,1.26,0,0,1,100.62,157Zm1.83,2.63a1.27,1.27,0,0,1-.47-.09,22.28,22.28,0,0,1,1.29,2.07v0a1.86,1.86,0,0,0,.46.13,1.22,1.22,0,0,0,.5-.11,2.56,2.56,0,0,1,.53-.09,1.65,1.65,0,0,1,.41.14,24.33,24.33,0,0,0-1.26-2.22h0a1.29,1.29,0,0,0-.42-.1,2.2,2.2,0,0,0-.52.13,1.29,1.29,0,0,1-.5.17ZM62.58,187.05a1.82,1.82,0,0,1-.52.14,1.56,1.56,0,0,1-.42-.08,25.5,25.5,0,0,0,1.54,2h0a1.53,1.53,0,0,0,.43,0,3.07,3.07,0,0,0,.5-.2,1.33,1.33,0,0,1,.46-.23,1.94,1.94,0,0,1,.48,0,21.24,21.24,0,0,1-1.54-1.87v0a1.5,1.5,0,0,0-.47-.08A1.45,1.45,0,0,0,62.58,187.05Zm12.85,13.43a3,3,0,0,0,1.77-2.33l-2-.2a1,1,0,0,1-.78.93s1.15,1.55,1,1.6ZM74,205.2l0,1,1.89-.59c-.09-.25-.19-.51-.3-.75Zm1.36-1-1.56.32.06.23,1.56-.32Zm9.08-6.08Zm-3.3,0Zm3.2-1.29a1.34,1.34,0,0,1,.31-.36c-.81.07-1.62.09-2.44.08h0a1.37,1.37,0,0,0-.35.33,1.4,1.4,0,0,0-.15.49,2.37,2.37,0,0,1-.2.5,1.47,1.47,0,0,1-.32.29,24.27,24.27,0,0,0,2.56,0v0a1.3,1.3,0,0,0,.3-.32,1.82,1.82,0,0,0,.14-.52,1.28,1.28,0,0,1,.13-.5Zm-10.88,6,.3,1.17,1.67-.31a1.47,1.47,0,0,0-2-.87Zm7.63-6.08a1.29,1.29,0,0,1,.33-.28c-.74,0-1.47-.11-2.2-.22h0a2.92,2.92,0,0,0-.37.24,1.28,1.28,0,0,0-.25.4,2.27,2.27,0,0,1-.29.4,2.1,2.1,0,0,1-.33.26,24.51,24.51,0,0,0,2.43.35h0a1.42,1.42,0,0,0,.3-.25,2.25,2.25,0,0,0,.19-.45,1.21,1.21,0,0,1,.16-.45Zm-14.84-.71a1.66,1.66,0,0,1-1.46,1.35c1,1,3.19.51,3.19.51a5.34,5.34,0,0,0-1.16-1.33Zm4.25,2.07a7.44,7.44,0,0,0-1.89-2.54l-1.89.16,1.3,1.47c.42.41.41.72.79,1.47,0,0,1.9,0,1.68-.56Zm-4.81-2.26a1.72,1.72,0,0,1-.43-.21,2.34,2.34,0,0,1-.69-.6h0c-.61.54-2.05-.48-2.05-.48A4.38,4.38,0,0,0,64,196.85h0s1,.3,1.7-.92Zm9.63,6.89h0c-.07-.6-.14-1.13-.2-1.38a5,5,0,0,0-.33-.94,1.73,1.73,0,0,0-2.21-.87,5.26,5.26,0,0,1,.71,2.14v.43c.06,0,1.68-.49,2,.62Zm-2-.57v0h0Zm-1.07-2.62c-.3,0-1-.6-1.27-.81-.18.43-1.83.54-1.83.54a3.58,3.58,0,0,0,1.6,1.55,2.74,2.74,0,0,0,1.72.25,2.87,2.87,0,0,1-.22-1.53ZM68.38,152Zm35,35.51a1.54,1.54,0,0,0-.07-.42,2.41,2.41,0,0,0-.33-.44,1.28,1.28,0,0,1-.34-.39,1.5,1.5,0,0,1-.09-.46c-.44.68-.92,1.34-1.42,2h0a1.54,1.54,0,0,0,0,.47,1.37,1.37,0,0,0,.29.42,2.16,2.16,0,0,1,.29.45,1.6,1.6,0,0,1,0,.44c.55-.64,1.07-1.32,1.56-2Zm-1.67,2ZM87.38,197a.73.73,0,0,1,0-.57,2.11,2.11,0,0,1,.26-.4,10.76,10.76,0,0,1-2.35.31l0,0a2.65,2.65,0,0,0-.35.45,1.44,1.44,0,0,0-.09.51,2.36,2.36,0,0,1-.12.51,1.44,1.44,0,0,1-.28.33,6.16,6.16,0,0,0,2.27-.47v0c.37.05.45-.07.52-.2a1.37,1.37,0,0,1,.16-.47Zm-21.7-1.2h0Zm33.19-3.9a2.43,2.43,0,0,0-.17-.52,1.55,1.55,0,0,1-.19-.48,1.58,1.58,0,0,1,.07-.47c-.64.5-1.3,1-2,1.41h0a1.89,1.89,0,0,0-.11.47,1.4,1.4,0,0,0,.15.49,3.21,3.21,0,0,1,.11.52,1.19,1.19,0,0,1-.11.42h0c.74-.43,1.45-.89,2.15-1.39v0A1.47,1.47,0,0,0,98.87,191.89Zm6.17-7.1h0a1.47,1.47,0,0,0-.13-.42,2.28,2.28,0,0,0-.38-.38,1.38,1.38,0,0,1-.38-.34,1.59,1.59,0,0,1-.15-.45h0c-.35.73-.73,1.45-1.15,2.14v0a1.53,1.53,0,0,0,.11.47,1.37,1.37,0,0,0,.35.37,2.65,2.65,0,0,1,.33.42,1.27,1.27,0,0,1,.09.43,22.51,22.51,0,0,0,1.31-2.21Zm-3.8,4.81a3.1,3.1,0,0,0-.26-.47,1.23,1.23,0,0,1-.28-.43,1.47,1.47,0,0,1,0-.47A23.55,23.55,0,0,1,99,190h0a1.55,1.55,0,0,0,0,.48,1.31,1.31,0,0,0,.24.45,2.13,2.13,0,0,1,.21.49,1.23,1.23,0,0,1,0,.43h0a22,22,0,0,0,1.82-1.79v0a1.32,1.32,0,0,0,0-.44Zm-10.35,7.22Zm-.53,0a2.36,2.36,0,0,0,0-.53,1.3,1.3,0,0,1,0-.52,1.35,1.35,0,0,1,.2-.42,23.16,23.16,0,0,1-2.33.7h0a1.87,1.87,0,0,0-.25.41,1.51,1.51,0,0,0,0,.52,3.17,3.17,0,0,1,0,.53,1.41,1.41,0,0,1-.24.36,23.57,23.57,0,0,0,2.47-.64v0a1.47,1.47,0,0,0,.19-.4Zm-2.66.91Zm8.47-3.44a1.57,1.57,0,0,0,.09-.43,2.33,2.33,0,0,0-.13-.52,1.23,1.23,0,0,1-.16-.49,1.27,1.27,0,0,1,.09-.47A22.28,22.28,0,0,1,94,193.64h0a1.67,1.67,0,0,0-.13.45,1.25,1.25,0,0,0,.11.5,2.45,2.45,0,0,1,.09.53,1.88,1.88,0,0,1-.14.42c.76-.39,1.5-.81,2.22-1.27Zm-2.91,1.58a1.38,1.38,0,0,0,.15-.4,2.48,2.48,0,0,0-.06-.54.93.93,0,0,1,.06-1c-.73.37-1.47.7-2.22,1h0a1.66,1.66,0,0,0-.19.43,1.53,1.53,0,0,0,0,.52,2.42,2.42,0,0,1,0,.54,1.93,1.93,0,0,1-.19.38,24,24,0,0,0,2.37-1Zm10.46-9ZM59.36,164.92a1.42,1.42,0,0,1,.41.28,1.68,1.68,0,0,1,.22.42,24.18,24.18,0,0,1,.86-2.28l0,0a1.46,1.46,0,0,0-.16-.44,1.41,1.41,0,0,0-.4-.33,2.22,2.22,0,0,1-.38-.37,1.44,1.44,0,0,1-.15-.41c-.37.77-.7,1.56-1,2.36h0a1.38,1.38,0,0,0,.18.39A2.37,2.37,0,0,0,59.36,164.92Zm.46-3ZM58.58,165Zm3.26,27.66a2.63,2.63,0,0,0-.39-.06h.12a3,3,0,0,0-1,.12c-.25.07-.76.28-1.32.5h0c1.16-.23,1.48,1.5,1.48,1.5h0l.48-.13a6.13,6.13,0,0,1,.73-.11A2.51,2.51,0,0,1,61.84,192.61Zm-1.52-31a2.28,2.28,0,0,0,.38.38,1.27,1.27,0,0,1,.38.35,1.2,1.2,0,0,1,.15.45c.35-.74.73-1.45,1.15-2.15v0a1.21,1.21,0,0,0-.12-.46,1.38,1.38,0,0,0-.34-.38,2.24,2.24,0,0,1-.34-.42,1.25,1.25,0,0,1-.08-.42c-.47.71-.9,1.45-1.3,2.2h0A1.24,1.24,0,0,0,60.32,161.65Zm-2.2,9.54a1.25,1.25,0,0,1,.49.17,1.47,1.47,0,0,1,.31.35c0-.81.12-1.62.24-2.42v0a2.14,2.14,0,0,0-.28-.39,1.59,1.59,0,0,0-.46-.21,1.92,1.92,0,0,1-.47-.25,1.78,1.78,0,0,1-.25-.36c-.16.84-.27,1.68-.35,2.53h0a1.7,1.7,0,0,0,.27.33A3.06,3.06,0,0,0,58.12,171.19Zm-.37-3Zm8.59-14.62a1.24,1.24,0,0,0,0,.43,2.37,2.37,0,0,0,.2.5,1.65,1.65,0,0,1,.23.46,1.56,1.56,0,0,1,0,.48,20.94,20.94,0,0,1,1.88-1.53h0a1.85,1.85,0,0,0,.08-.47,1.6,1.6,0,0,0-.16-.48,2,2,0,0,1-.16-.53,1.26,1.26,0,0,1,.08-.43,25.5,25.5,0,0,0-2,1.54ZM61.44,159ZM64,155.87a1.54,1.54,0,0,0,0,.43,3,3,0,0,0,.28.49,1.23,1.23,0,0,1,.28.43,1.83,1.83,0,0,1,0,.47,23.29,23.29,0,0,1,1.67-1.77h0a1.48,1.48,0,0,0,0-.47,1.35,1.35,0,0,0-.24-.46,2.71,2.71,0,0,1-.22-.49,1.56,1.56,0,0,1,0-.43,22,22,0,0,0-1.82,1.79Zm-2.16,2.54a1.49,1.49,0,0,0,.08.42,2,2,0,0,0,.33.44,1.37,1.37,0,0,1,.33.39,1.52,1.52,0,0,1,.1.46c.44-.68.91-1.33,1.42-2v0a1.48,1.48,0,0,0-.05-.47,1.37,1.37,0,0,0-.29-.42,2.22,2.22,0,0,1-.29-.46,1.57,1.57,0,0,1,0-.43,25,25,0,0,0-1.56,2Zm1.57-2Zm-4.76,11.79a1.37,1.37,0,0,1,.45.23,2,2,0,0,1,.26.39,24,24,0,0,1,.56-2.37l0,0a1.41,1.41,0,0,0-.22-.42,1.36,1.36,0,0,0-.43-.27,2.18,2.18,0,0,1-.43-.32,1.25,1.25,0,0,1-.2-.38c-.26.81-.49,1.63-.68,2.46h0a1.28,1.28,0,0,0,.23.37,2,2,0,0,0,.47.28Zm2.56,18.33a1.18,1.18,0,0,0,.42.1,2.33,2.33,0,0,0,.52-.13,1.23,1.23,0,0,1,.49-.16,1.27,1.27,0,0,1,.47.09,22.28,22.28,0,0,1-1.29-2.07v0a1.86,1.86,0,0,0-.46-.13,1.22,1.22,0,0,0-.5.11,2.56,2.56,0,0,1-.53.09,1.48,1.48,0,0,1-.42-.14c.39.76.81,1.5,1.27,2.22Zm-4.68,7.41.36,1.95.87-.42-.42-1.61A7.4,7.4,0,0,0,56.56,193.9ZM60,184.27Zm-2.23,9.51.44,1.53.22-.08L58,193.7Zm.65-.28.51,1.63,1.17-.29S59.87,193.26,58.39,193.5Zm2.71-9.93a1.49,1.49,0,0,1,.45.15,22.13,22.13,0,0,1-1-2.22l0,0a1.69,1.69,0,0,0-.43-.2,1.29,1.29,0,0,0-.51.07,2.44,2.44,0,0,1-.54,0,1.5,1.5,0,0,1-.38-.19,23.9,23.9,0,0,0,.95,2.37h0a1.56,1.56,0,0,0,.41.15,2,2,0,0,0,.54-.08A1.44,1.44,0,0,1,61.1,183.57Zm-2-6a1.45,1.45,0,0,1,.4.26,22,22,0,0,1-.4-2.41v0a2.2,2.2,0,0,0-.37-.3,1.47,1.47,0,0,0-.51-.08,2.33,2.33,0,0,1-.52-.13,1.44,1.44,0,0,1-.33-.28c.07.85.17,1.7.32,2.54h0a1.78,1.78,0,0,0,.36.25,2.33,2.33,0,0,0,.53.07A1.3,1.3,0,0,1,59.09,177.6Zm-1.74-2.85Zm.87-.16a1.21,1.21,0,0,1,.5.1,1.55,1.55,0,0,1,.36.31c-.06-.8-.09-1.61-.07-2.43v0a1.52,1.52,0,0,0-.33-.34,1.22,1.22,0,0,0-.49-.15,2.18,2.18,0,0,1-.5-.2,1.47,1.47,0,0,1-.29-.32,24.1,24.1,0,0,0,0,2.55l0,0a1.42,1.42,0,0,0,.31.29,2.38,2.38,0,0,0,.52.15Zm1.61,6.13a2,2,0,0,1,.42.2,22.42,22.42,0,0,1-.66-2.3v0a1.47,1.47,0,0,0-.4-.24,1.39,1.39,0,0,0-.5,0,1.87,1.87,0,0,1-.53,0,1.32,1.32,0,0,1-.35-.23c.16.83.36,1.64.6,2.45h0a1.44,1.44,0,0,0,.37.19,2.35,2.35,0,0,0,.53,0,1.25,1.25,0,0,1,.51,0Zm-1.15.49ZM57.8,178Z"/><path class="cls-3" d="M70,165.14l1.36-.9,1.28,1-.43-1.59,1.37-.9L72,162.71l-.43-1.58L71,162.66l-1.63-.07,1.27,1Zm7.43,9.25h0a25.21,25.21,0,0,0-2.71-1.1c.51-1.85.54-4.6-1.64-5.46-1.86-.75-3.6.6-4.09,2.41-2.65-1.08-3.56-4.25-2.76-6.81a6.4,6.4,0,0,1,9.22-3.73c5,2.9,3.89,11.07,2,14.7m18.1,5.51,1-1.26,1.53.59-.88-1.38,1-1.26-1.6.42-.88-1.38-.1,1.64-1.58.41,1.53.59Zm-11.78-1.8c2.21-3.44,8.73-8.49,13.75-5.6A6.39,6.39,0,0,1,99,182.35c-1.8,2-5,2.77-7.28,1a3.14,3.14,0,0,0,0-4.75c-1.84-1.45-4.21-.05-5.53,1.3-.77-.67-1.66-1.29-2.34-1.78Zm-4.47.44c3.24,1.87,6,3.07,6.14,2.87s-2.32-2-5.57-3.91-6-3.06-6.16-2.86,2.35,2,5.6,3.91m-.44.72c-3.75-2.16-6.46-4.47-6.07-5.15s3.74.5,7.49,2.67,6.46,4.47,6.06,5.15-3.74-.52-7.49-2.68m5.33,3.37A3.15,3.15,0,0,0,87,187.16a3.5,3.5,0,0,1-4.51,1.18c-2.11-1.22-1.49-5.13-.79-6.72h0a26.82,26.82,0,0,0,2.56,1Zm-8.92-4.7c-1,1.39-4.12,3.93-6.24,2.7a3.48,3.48,0,0,1-1.23-4.49c1.32,1.93,3.7,2.08,5.33.09v0A27.16,27.16,0,0,0,75.31,178Zm17.15-22.15a27,27,0,0,0,1.35,3.91,9.32,9.32,0,0,1-.16,8.17c-2.2,3.86-7.39,5.37-10.47,9.78a22.76,22.76,0,0,0-2-1.32c2.81-4.67,6.31-11.15,8.66-16-3,4.43-6.85,10.71-9.49,15.47a22.82,22.82,0,0,0-2.15-1.09c2.27-4.88,1-10.13,3.23-14a9.26,9.26,0,0,1,7-4.23,25.64,25.64,0,0,0,4.07-.78m-19.07,33a10.77,10.77,0,0,1-2-6.78A12.3,12.3,0,0,0,76,178.43c.62.43,1.32.87,2,1.29a44.27,44.27,0,0,0-2.64,5.61A42.3,42.3,0,0,0,79,180.24c.73.43,1.45.8,2.15,1.14a12.13,12.13,0,0,0-.81,5.81,10.78,10.78,0,0,1-6.89,1.63"/><path class="cls-4" d="M169.75,153.66C153.61,127.32,157,93.29,180.26,59.41,192.11,42.1,199.07,26.71,202,13.1c.15-.89,0-2.07.44-2.66a1.87,1.87,0,0,1,1.63-.6c3.41-.14,11,3.56,11.25.6,0-1,.3,1.77.3,2.81,1.63,14.05-1.48,31.07-11.55,52.23-1.48,2.81-2.81,5.62-4.44,8.58C181,108.24,164.42,131.91,169.75,153.66Zm-3.55,61.7a96.17,96.17,0,0,0-10.52,21.45c-.29.89-.14,2.52-.88,2.67v.14c1.63.15,18.06-.74,18.65.45.6,1,1.19-2.52,1.48-3.26,1.63-3.25,3.41-6.51,5-9.91,18.06-36.25,13-58.44.88-73.24C185.74,169.94,182,189.91,166.2,215.36ZM229.27,96.69c4.3,14.06,1.93,30.78-9.47,51.5-1.78,2.95-3.56,6.06-5.63,9.32a89.51,89.51,0,0,0-10.07,19.38c-6.81,17.61-6.81,34.47,0,49,.6,1.48,1.48,3,2.22,4.44-3.11-13.17,3.7-27.22,13.48-45.27,2.66-5,5.62-10.51,8.58-16.28,8.15-15.68,11.7-28.7,12.14-39.65v-3.7A45.33,45.33,0,0,0,229.27,96.69ZM204.1,141.83c3.56-9,9.33-19,15.7-30.34,2.07-3.7,4.29-7.54,6.51-11.69,21.62-39.8,15.55-64.06,1-80.34,4.59,14.21,2.81,30.78-7.55,50.9a164.58,164.58,0,0,1-10.22,16.72A97,97,0,0,0,204.1,96c-14.95,26.18-16.14,51.93-3.55,72.35C198.48,160,200.11,151.44,204.1,141.83Z"/><path class="cls-3" d="M97.65,146.56l19.69-34-9.92,42.76a37,37,0,0,0-9.77-8.73m15.54,20.71,38.06-10.21-37.17,23.38a39.86,39.86,0,0,0-.89-13.17m-3.25,25.3,34.2,19.68-42.79-9.76a37.46,37.46,0,0,0,8.59-9.92m-20.44,16,10.22,38.17L76.47,209.44a32.86,32.86,0,0,0,13-.89m-25.76-3.4-19.69,34L54,196.42a37.37,37.37,0,0,0,9.77,8.73M48.05,184.43,10,194.65l37.31-23.24a35.42,35.42,0,0,0,.74,13M51.75,159l-34.2-19.68,42.79,9.76A37.46,37.46,0,0,0,51.75,159M72,143.45l-10.22-38,23.4,37.14a40.19,40.19,0,0,0-13.18.89"/><path class="cls-5" d="M23.76,226.45a2.14,2.14,0,0,1-2.36,1.93,2.39,2.39,0,0,1-1.93-2.52A2.19,2.19,0,0,1,22,224.09,2.14,2.14,0,0,1,23.76,226.45ZM56.49,104.09a2.09,2.09,0,1,0-1.78-2.36A2,2,0,0,0,56.49,104.09Zm-17.33,7.85a2.15,2.15,0,0,0-1.77-2.37,2.17,2.17,0,1,0-.6,4.29A2.15,2.15,0,0,0,39.16,111.94Zm-.59,126.94a2.16,2.16,0,0,0-2.37,1.78A2.19,2.19,0,0,0,38,243.17a2.15,2.15,0,0,0,2.37-1.92A2.06,2.06,0,0,0,38.57,238.88Zm4.89,5.77a2.29,2.29,0,0,0,1.92,2.52,2.16,2.16,0,1,0,.45-4.29A2.12,2.12,0,0,0,43.46,244.65ZM16.81,217.58a2.28,2.28,0,0,0-2.52,1.77,2.15,2.15,0,0,0,1.92,2.37,2.09,2.09,0,0,0,.6-4.14Zm140.8-29.74a2.18,2.18,0,0,0-2.51,1.77,2.3,2.3,0,0,0,1.92,2.52,2.17,2.17,0,0,0,.59-4.29ZM158.94,160a2,2,0,0,0-1.77-2.37,2.1,2.1,0,1,0,1.77,2.37ZM11.33,142.71a2.16,2.16,0,0,0,2.37-1.92,2.05,2.05,0,0,0-1.78-2.37,2.16,2.16,0,0,0-2.37,1.92A2.12,2.12,0,0,0,11.33,142.71Zm143,10.95a2.12,2.12,0,0,0,2.37-1.78,2.15,2.15,0,0,0-1.92-2.36,2,2,0,0,0-2.37,1.77A2.15,2.15,0,0,0,154.35,153.66ZM17.84,133.54a2,2,0,0,0-1.78-2.37A2.15,2.15,0,0,0,13.7,133a2.18,2.18,0,0,0,1.77,2.51A2.15,2.15,0,0,0,17.84,133.54Zm12.44-14.65a2.17,2.17,0,0,0,.59-4.29,2.3,2.3,0,0,0-2.52,1.92A2.24,2.24,0,0,0,30.28,118.89Zm109.27,8.73a2.16,2.16,0,0,0,2.37-1.92,2.1,2.1,0,0,0-4.15-.6A2.27,2.27,0,0,0,139.55,127.62ZM150.5,209a2.37,2.37,0,0,0-2.51,1.92,2.16,2.16,0,0,0,4.29.44A2.12,2.12,0,0,0,150.5,209Zm-5.92-75a2.15,2.15,0,0,0,2.37-1.92,2.08,2.08,0,1,0-4.14-.45A2,2,0,0,0,144.58,134Zm-.74,84.19a2.16,2.16,0,1,0,4.29.44,2.16,2.16,0,0,0-4.29-.44Zm16,3.26a4.08,4.08,0,0,1-5.62,1.47,3.88,3.88,0,0,1-2-3.44,83.66,83.66,0,0,1-32.72,30.66,7.9,7.9,0,0,0-1,.57,5.18,5.18,0,0,1-2.78,1.08l-13.1,0,1.14,4.25-2.66-4.25c-21,0-41.38-.17-55.87-.28-1.86,0-3.35-1.08-4.66-2a16,16,0,0,0-1.66-1.11A83.87,83.87,0,0,1,7.66,216.84a11.78,11.78,0,0,0-1-1.64,7.9,7.9,0,0,1-2-4.58c.24-4.21.33-8.6.34-13.09L.68,198.69,5,196c0-7-.23-14.29-.45-21.4-.33-10.83-.67-22-.32-32.54a5.82,5.82,0,0,1,1.06-2.56c.15-.23.3-.47.43-.72.53-1.17,1.16-2.31,1.82-3.49L8.24,134C31.05,94.53,81.5,80.7,121.35,102.68l5.43-9.32-8.5-4.92A51.48,51.48,0,0,0,115,95.66l-8-15.53,17.48-.74a62.42,62.42,0,0,0-4.66,6.48l8.49,4.91,1.37-2.34a6.49,6.49,0,0,1,6.38-11l4.21-7.22A60.81,60.81,0,0,0,132.89,67l15.39-8.14L149,76.28a46.08,46.08,0,0,0-6.19-4.53l-4.25,7.3a6.47,6.47,0,0,1-6.33,10.85l-1.38,2.37,8.47,4.9a60.59,60.59,0,0,0,3.32-7.28l8,15.54-17.32.74a56.67,56.67,0,0,0,4.53-6.41l-8.49-4.91-5.43,9.32a83.82,83.82,0,0,1,30.38,111.64,4.32,4.32,0,0,1,4,0A4.13,4.13,0,0,1,159.83,221.43Zm-.77-65.07-5.78,1.47a74.36,74.36,0,0,1,1.79,26.22l5.92.77A81.19,81.19,0,0,0,159.06,156.36Zm-8.51,2.9-21.34,13.43,22.95,10.47A71.28,71.28,0,0,0,150.55,159.26ZM112.71,139.1l-.11.45,23.85-8.94a71.33,71.33,0,0,0-18.12-15.76Zm28.8,22.12-26.41,7.09a35.31,35.31,0,0,1,.82,9Zm-24.85,19.36,7.58,8.17,24-4.08-22.09-10.08ZM142.2,158l-31.81-1.08a35.61,35.61,0,0,1,3.94,8.55Zm-32.35-19.76,3.77-16.26-14,24.17c.86.59,1.67,1.19,2.44,1.79a34.55,34.55,0,0,1,4.56,4.12Zm-.57,15.67,11.31.36,14.15-19.79-23,8.61Zm40.19,1.35a71.27,71.27,0,0,0-10.59-21.43l-14.71,20.56Zm-38.41-34.8L88.37,141.52A34.77,34.77,0,0,1,97,144.69Zm3.77-7.58a71.29,71.29,0,0,0-22.64-7.78l4.12,25Zm-25.11-4.41L79.55,130.64l6,9.46,8.18-7.61Zm-1.5-3.9a71.76,71.76,0,0,0-24.11,1.6l13.54,21.5Zm-22.4,10.06,7.25,27a35.22,35.22,0,0,1,9.22-.85Zm-2.85.87-1,30.71a34.94,34.94,0,0,1,8.26-3.81Zm-3.57,17,.86-25.29a71.29,71.29,0,0,0-21.43,10.5ZM39.45,121.77l8.49,22.91,11,2.53L59.28,136Zm-3.81-1.68A71.49,71.49,0,0,0,19.8,138.18l24.66,5.7ZM26.91,143l24.23,13.95a34.72,34.72,0,0,1,5.92-7.06Zm-1.54,2.56,21.05,22.59a35.47,35.47,0,0,1,3.22-8.63Zm12,17.27-24.14,4.1L35.32,177,45,171ZM17.75,141.73a71.48,71.48,0,0,0-7.83,22.7l25-4.25ZM9.39,168.41a71.4,71.4,0,0,0,1.55,23.88L32.3,178.91Zm9.92,22.19,27-7.24a38.66,38.66,0,0,1-.76-9.09Zm.63,2.92L51,194.67a35,35,0,0,1-3.85-8.45Zm20.91,3.76-14.24,20,22.94-8.53,2.56-11.08ZM12,196.21a71.43,71.43,0,0,0,10.59,21.61l14.71-20.68Zm13.08,24.85a71.24,71.24,0,0,0,18,15.72l5.67-24.53Zm22.7,8.73,14-24.18a41.85,41.85,0,0,1-7-5.93Zm2.54,1.57,22.84-21.15A35.48,35.48,0,0,1,64.42,207ZM89.08,207a32,32,0,0,0,10.54-5l.78-.64h0l0,0h0a36.09,36.09,0,0,0,8.19-9.48l.68-1.14a32.28,32.28,0,0,0,3.17-9.41l.1-1a38.89,38.89,0,0,0-.86-12.69l-.32-1.4h0a32.14,32.14,0,0,0-4.28-8.72l-1-1.3a31.72,31.72,0,0,0-6.36-6.23l-.26-.2-.11-.07c-.83-.59-1.69-1.15-2.59-1.67a32,32,0,0,0-10.54-3.82l-1.3-.14a39.26,39.26,0,0,0-12.7.86l-1.31.3a32.22,32.22,0,0,0-9.73,5l0,0A36.27,36.27,0,0,0,53,159.74L52.28,161l-.07,0A32.24,32.24,0,0,0,55,195.16a1.19,1.19,0,0,1,.19.2,1.28,1.28,0,0,1,.15.25A32.43,32.43,0,0,0,89.08,207Zm45.7,1.61-24.28-14a34.91,34.91,0,0,1-5.85,7.09Zm-48,14.53,8.89,14.17-7.21-26.94a34.74,34.74,0,0,1-9.11.86Zm11.83,13.63,1.15-31.23a35.2,35.2,0,0,1-8.46,3.9Zm3.64-17.62-.94,25.43A71.34,71.34,0,0,0,123,233.87Zm20.15,10.69-8.57-22.91-11-2.56-.41,11.22Zm3.78,1.59a71.32,71.32,0,0,0,15.65-18l-24.51-5.68Zm9.9-25.51-20.91-22.56A34.78,34.78,0,0,1,112,192Zm7.78,4a71.31,71.31,0,0,0,7.8-22.77l-25,4.24Zm1.81-82.08-4.71,3.72A74.39,74.39,0,0,1,152.5,155l5.79-1.47A81.12,81.12,0,0,0,145.65,127.81ZM119.37,112a74.3,74.3,0,0,1,19.75,17.16l4.71-3.73a80,80,0,0,0-21.39-18.7ZM91.94,102a74.2,74.2,0,0,1,24.84,8.52l3-5.28a80.74,80.74,0,0,0-27.12-9.17ZM61.29,97.61l1.6,5.74A74.34,74.34,0,0,1,89,101.61l.77-5.92A81.43,81.43,0,0,0,61.29,97.61Zm-28.45,13.3,3.67,4.75a74.17,74.17,0,0,1,23.42-11.51l-1.55-5.76A80.8,80.8,0,0,0,32.84,110.91ZM11.6,134.18l5.3,3a74.25,74.25,0,0,1,17.24-19.75l-3.67-4.75A79.75,79.75,0,0,0,11.6,134.18ZM7.19,162.73A74.27,74.27,0,0,1,15.4,139.8l-5.28-3c-.61,1.1-1.21,2.17-1.73,3.3a9.56,9.56,0,0,1-.62,1.06,3.35,3.35,0,0,0-.59,1.21C7,148.87,7,155.78,7.19,162.73ZM8,194.16l.33-.21c-.12-.45-.24-.9-.34-1.36C8,193.12,8,193.64,8,194.16Zm7.77,29.61,4.79-3.7A74.29,74.29,0,0,1,9,196.46l-1,.27c0,4.79-.09,9.49-.34,14A5.81,5.81,0,0,0,9,213.46a14.8,14.8,0,0,1,1.26,2A85.36,85.36,0,0,0,15.73,223.77ZM39.06,245l3-5.3a74.46,74.46,0,0,1-19.73-17.23l-4.78,3.71A80.18,80.18,0,0,0,39.06,245Zm24.85,3.66a74.58,74.58,0,0,1-19.26-7.47l-3,5.37.72.51a5.83,5.83,0,0,0,2.91,1.46Zm5.58-1.94-4.34-25L46.62,238.83A71.4,71.4,0,0,0,69.49,246.68Zm2.45-3.32,10.15-22.08L76,211.61l-8.26,7.64Zm25.33,2.26L84,224.3,73.46,247.2A71.25,71.25,0,0,0,97.27,245.62Zm2,3.14-.3-.49c-.67.17-1.33.34-2,.49Zm29.61-8L125.17,236a74.42,74.42,0,0,1-23.68,11.63l.32,1.19,13.9,0a4.15,4.15,0,0,0,1.18-.61,9.44,9.44,0,0,1,1.34-.75A80.68,80.68,0,0,0,128.84,240.78ZM150,217.5l-5.23-3.15a74.2,74.2,0,0,1-17.19,19.78L131.2,239A81.28,81.28,0,0,0,150,217.5Zm10.65-29.72-5.92-.78a74.15,74.15,0,0,1-8.45,24.73l5.28,3A80.34,80.34,0,0,0,160.6,187.78Zm-4.32-6.31A2.39,2.39,0,0,0,158.2,184a2.15,2.15,0,0,0,2.37-1.92,2,2,0,0,0-1.77-2.37A2.19,2.19,0,0,0,156.28,181.47Zm-33.61,58.45a2,2,0,0,0,1.78,2.37,2.14,2.14,0,0,0,2.36-1.93A2,2,0,0,0,125,238,2.14,2.14,0,0,0,122.67,239.92Zm-36-139.23a2.16,2.16,0,0,0,2.37-1.92,2.16,2.16,0,0,0-4.29-.45A2.15,2.15,0,0,0,86.69,100.69Zm8.74-3.25a2.19,2.19,0,0,0-2.52,1.77,2.15,2.15,0,0,0,1.92,2.37A2,2,0,0,0,97.2,99.8,2.15,2.15,0,0,0,95.43,97.44ZM64.63,102a2.4,2.4,0,0,0,2.52-1.92,2.25,2.25,0,0,0-1.93-2.37,2.17,2.17,0,0,0-2.37,1.93A2,2,0,0,0,64.63,102Zm67.07,130.8a2.09,2.09,0,1,0-.59,4.14,2.2,2.2,0,0,0,2.52-1.78A2.16,2.16,0,0,0,131.7,232.82Z"/><path class="cls-6" d="M223.65,255.83H32.35A32.37,32.37,0,0,1,0,223.5v-191A32.45,32.45,0,0,1,32.35,0h191.3A32.45,32.45,0,0,1,256,32.48v191A32.37,32.37,0,0,1,223.65,255.83ZM32.35,17A15.6,15.6,0,0,0,17,32.48v191a15.33,15.33,0,0,0,15.32,15.31h191.3A15.33,15.33,0,0,0,239,223.5v-191A15.41,15.41,0,0,0,223.65,17Z"/></svg>