<svg id="Capa_1" data-name="Capa 1" xmlns="http://www.w3.org/2000/svg" viewBox="0 0 256 256"><defs><style>.cls-1{fill:#e10613;}.cls-2{fill:#005ca8;}.cls-3{fill:#009540;}.cls-4{fill:#fff;}.cls-5{fill:#009d3c;}.cls-6{fill:#ffec00;}.cls-7{fill:#0b6822;}</style></defs><title>progresion</title><rect class="cls-1" x="10" y="10" width="236" height="236"/><circle class="cls-2" cx="128" cy="128" r="102.42"/><path class="cls-3" d="M111.24,56c3.75-.06.85,1.85,1.74,2.6,3.23.38.3,2.78,0,4.63-.65-.05-1.28-.21-.91,1.31,1.1,4.92-3.33,2-2.41-1.17-3.28-.74-2.28,2.11-.62,4.07.72,4.42-1.44,1.32-2.66,3.19.29,1.81-2,2.12-2.57.35.37-3.11-2.47-2.23-1-6,.08-1.45-1.16.52-1.6-1.16.07-1.24-.24-1.89,1.8-2.11,3.35,1.75,5.46-2.4,5.05-5.93-.49-.92-3.41-2.56-1.25-3.6C110.29,52.16,114.89,52.38,111.24,56ZM83.63,212.53c14.1-.07,4.56-2.37,9.82-5.45,6.53-1.79,12.63-5.23,14-12,4.47-.11,3.9-2.82,5.84-6.5,2.37-3.31-1.1-3.26-3.68-4.78-5.9-3.12-7.21-5.3-12.34-2.85,2.46-7.07-3.4-4.31-6.84-4-1.29-2,4.06-7.5-1.33-7.34.16-5.45-1.6-4.78-4.91-9.35-.8-3.05-4.64-.13-5.63-2.12,1-3.86-7.4-.11-4.77-7.33-4.35,1.36-5-6.54-8.38-5.35-.71.48-3,2.17-4.5.75-2-1.48,3.84-5.54,1.82-7.21-7.15-.44-8.06,9.21-8.91,4.6.64-4.58-5.07-1.11-4.85-6.47-.35-4.43,3.5-6.3,2.86-10.91,2.77.72,3.18-3.61,0-4.21-4.49-1-4-4.68-.73-4.79.26-1.29.12-4-1.44-4.39-1.26,0-2.51-.21-2.47,1.58-.6,9-10.45.35-.25-12.25,2.25-5.35,9.86,2.78,12.26,6.13.38,1.12-4,6.87.09,6.43,2.4-1.79,4.73-3.46,6-7.07.31-1.54-.26-3.25,2.65-2.49,3.11-.07,2.7-2.93,6.58-4,3.08-2.25,7.29-3.78,9.62-6.43,1.45-.25,4,1.24,4.63-.38-.64-2.72.19-4,3-2.94,2.82,3.8-2.26,3.39-.15,5.31,1.18.11.21-2,2.1-2.06.91-.06,2.15.74,2.5-.46.55-3.08-1.65-1.74-3-3.48-.58-1,1.3-.49,1.07-1.5-1.44-1.94,2.47-2.15,3.84-1.57.13,1.26.55,2.56,2.45,2.6a1.16,1.16,0,0,1,2.23-.52c-.56,1.15-2.27,1.49-2.87,3-.54-.35-1.22.94,0,1.14,3.33-.89,1.6,3.13,5,2-.59-2.45.46-4.68-.67-8.29-.54-1.34,1.23-1.3.67-3.28-1.49-.33-.75-1-.73-3.18-1.23.15-2.44-2.22-.15-3.19,2.6-.87,2.22-6.94-1.15-5.34.42,1.82-1.1.14-1.15,1.66.47,1.1-1.93,1.46-2.41,0C98,71.1,100.6,72.55,101,70c1.11-3.74-4.35-5.32-5-2.84.48,1.35-1.23.15-1.51,1.26-.07.52.86,1.92-.28,1.72-1.31-.44.15,1.68-1.18,1.46-.91-.1-1.57-.66-1.22,1,1,2.7-2.35,0-2.58,1.7.69,3.16-.35,1.16-1.42,2.78,0,1.12.33,1.56-1.33,1.31.34,2.08-1.26.21-1,2.17-.47.33-1.76.3-1.29-1.3-2.32.22-1.06-3,.2-3.51-.14-1-.3-1.41,1.24-1.12-.25-2.27,3.16.44,2.42-3.5.07-2-2.24,0-2.8-1.54-.25-2.48-.61-3.76,1.55-4.37-.93-4.3-.16-3,3.78-3.67,1.54.38-.15-1.63,1.28-1.95.59-.36,1.55.15,1.39-1-1-1.27,1-2.16,1.5-.69-.67,1.26,2.5,3.3,2.45,1.47-.21-1.13.45-1,1.67-1.13,3.44,0,7.93,2.88,7.92-1.51.38-2.58-2.23-.06-2.64-1.57.43-1.7-.8-1.23-2.2-1.23,0-1.37,1.46-3.56.87-5.78,1.3.85,2.53-2.81.07-2.32-2.54.78-2.35-5.2-.63-6.2,2.78-2.34,6.39-.63,8.46-3.76,2.62-1.88-3.37-6.39-3.57-2.91-3.39,1.59-1.85-1.22-4.55-1.41-1.34.14-.31,2.65-3,1.41-.34-.42.39-1.9-1.61-1.6-2.39,0-.5,1.08-2,1.68-.74.21-1.35-.77-1.45.56.56,2.6-1,.52-1.2,2.38,0,1.18-1.29,2.1-1.38,3.07-1.2.06-3-1-2.2,1-2.18-.18-3.33,1-5.78,1-.29.5.59,1.55-1.08,1.16-1.85-.38-.42.49-1.55,1.12-.54.31-2-.15-1.85,1,.45,1.28-1.69.13-1.46,1.48-.12.65.8,1.15-.41,1.35-1.17-.08-.11,1.11-1.19,1.63-.72.42-.94-.36-1.42.79-.66,1.44-1.36,4.33-3.46,3.22.29,3.72-.79,2.65-3.46,4.38,0,1.84-.5,1.07-2.61,1.11-5.07-.82-4.68,5.72-7.66,8.82-5.67,2.55-9.51,7.45-11.7,14-2.28,4-5.47,8-7,13.58-.62,5.51,1.92-3.65,4.13-5,1.36,4.36-3.63,8.13-4,13.37.52,4.73-2.52,5.46-2.47,10.14-.44,1.72.95,1.82,2.53,2.53.74.52-.19,2.18,1.4,2.66,5.34.56,2.37,6.11,2.54,9.77,3.39,2.2,4.36,3.33,3.22,9-.78,3.48,1.59,2.12,1.74,4.61-.48,1.74,2.38-.25,2.36,1.69,1.55,1.66,0,3.36,2.11,5.49.47,1.23-1.38.39-1.45,1.58-.15.66.67,1.18-.47,1.56-2-.13-1.11,2.74-2.68,3-1.46-.25-2,.22-1.55,2.24.14,1.34,1.27-.26,1.7,1.2.52,1.81-1.15,1.09-1.48,2.23.66,1.93-.82.78-1.27,2.28-1,3.3,5.14.08,3,3.29-.9,2,1,4,.71,6.45,1.71.36,2.15,3.36,3.65,5.22.06.8-1,2.29.44,2,4.22,1.43,7.26,5.62,8,11,.75,2,1.27,5.18,2.5,6.44,1-.34,1,.44.74,1.8-1.88,6.41,1.66,1.72,1,5.15.84,3.52,1.33,5.15,2,6.12a103.14,103.14,0,0,0,11.85,7.52C80.18,216.73,78.42,211.67,83.63,212.53Zm-11.1-70.94c-1.14,1.15,1.2,4.19,1.41.65C73.64,141.73,74.07,141.37,72.53,141.59Zm144.73,36.62a102.86,102.86,0,0,1-11.79,16.73c-1.49,1.58-3.11,3.29-4.84,5.21a100.45,100.45,0,0,1-9.18,8.2c-.75-1.65-.28-6.07-2.18-7.52-4.26-3.83,1.67-10.74.56-15-9-9.78-1.82-8.54-4.05-16.34-1.42-8.19-7-1.8-12.27.44-8.69,4-17.79,7.93-22.25-2.61-6.58-6-5.78-8-4.42-15.33.48-3.3-2.37-5.6,0-8.44,2.89-5,6.87-7.65,10.23-12.53-3.67-3.36,2.28-7.92,5.63-9.69,1.34.16,2.52,2.37,4.74.89,1.9-.56.51-3.72,2.46-4.41,3.74-.55,7.3-2.27,11.44-1.69,1.27.56.68,5.22,2.79,5.28,4-.23,5.92.91,7.48-2.47,4.26.62,5.78-1.14,10.23-1.18,2.54-.21,0-3.53,2.32-3.22,3.34.92,2.52-6.43,1.12-8.64-.24-.77-4.89-1.2-5.44,0,1.12,7.51-5.38-4.21-5.79-.13a4.44,4.44,0,0,0,1,4c6.92,6.71-5.57,5.25-2.6.29-2.26-.08-1.49-.81-3.61-2.17-.54-.68-5.45-1.78-2.6.58,3.61,2.7,1.88,2.68-1.88,3.9-.2-.55,2.47-2.14.43-2.6-3-.79-4.53-5.1-7.93-6.13-6.91-1-.64,3.77-4.76,4.06-1.48.41-2.69-.77-3.61,1,1.72,4.55,1.24,10.37-5.33,10.85-8.1,3.41-9.72-7.89-6.82-11.79,3.61-.54,8.23,2.66,7.47-3.13-.16-2.33-1.23-.79-2.8-1.75-1-.85-.79-1.13-2.83-1-3.45-1.39,1.84-2.32,2.34-4.13,1.06-.48,2.61,3.07,3.73,1.27.38-5.11.91-2.64,3.35-.69,2.77-4.45-5.55-12.48-.14-14.32,2,.53.77,4,2.35,4.58,2.33.43.73-1.67,2.19-1.92,1.9.63,1.68-.61,2-2.22,1.81.4,3.19,0,2.68-3.09,0-2.18-5-.45-3.69-3.71.41-.42,2.82,1.54,2.48.07-.32-2-2.26-.93-2.61-2.35-.38-1,1.91-2.42.46-2.85-1.3,0-1.83.38-1.34,2.29.76,4-2.49-.34-3.69-2.38-.31-2.33-1.11-6.35-3.09-3.77-.7,8.48,5.92,6.77,7.1,12.45,1,9.07-6.51.12-7.25-3-1.61.23.54,1.38-1.88,2.29.42,1.68-.38,2.92-2.08,1.33-.31-1.75-4.34-3.25-2.15-4.94,3.37,0,2.82-7.13,1.91-8.87-2.52-.74-2.89-9.64,1.45-8-.71-2.58,4.11-1.84,5.92-1.45.93.86-2.09,4.51.67,4.56,1.53,2.41,3,3.15,2.51-1.81a6.59,6.59,0,0,0-7.51-8.68c-1.59-2.52-3.28-1.68-6-3.69-2.12-2.21,1.42-3.49,2.12-5.2-.34-1.48-.3-2.65-2.53-2.1-7.9-1.54-5.91-11.19-21.85-9.33-3.36-3.78-5.29-1.47-10.48-1.41-4.3.2-10.4.77-13.92,1.23-.39-2.55.16-3.12,3.13-2.54a14.76,14.76,0,0,1,5.55-3.68q4-.32,8.1-.32a102.34,102.34,0,0,1,83.14,42.62,49.23,49.23,0,0,1,7.44,18.41,3.84,3.84,0,0,1,3.18.13,102.32,102.32,0,0,1,4.52,12.36,3,3,0,0,1-2.5.52c-1.08,1.65.53,4.83-1.59,6.66-2.31-.42-2.49,2.21.43,1.59.07.81.54,1.5,2.29,1,3.71-.13.23,6.85,1.09,9.8-.6,4-.57,9-3.27,12.53-4.54.21-12.42-8.21-13.09-12.2,1.22-2.74-1-2.3-2.93-.9-1.13,1.68,2.6,2.55,3.9,4.64,4.62,3.73,7.1,8.34,11.43,11.42,2,.22,2.89-1.09,3.9-2.72,3.17,1.82,1,6.77.15,10-1.45,1.62.42,4.34,0,6.27-3.14,3.25-3.89,7.06-7,10.51C219.45,167.31,218.8,173.44,217.26,178.21ZM166.86,49.47c-.55-.31-2.26.49-2.59-1.45,0-1.19-3.71-3.68-3.09-.89C162.33,48.55,166.16,53.3,166.86,49.47Zm4-.93c-.46,1.08-4.21.42-2.07,2.05,2.42-.9,1.24,1.85,3.89.9C172.79,51,172.19,48.11,170.82,48.54Zm31,28.12c2.37-.06,1.57,3.94,4.77,2.89.68-1.39-.58-.85-1.16-1.59-.16-.54.62-1.93-.49-1.75C203.69,76.23,201,70.88,201.82,76.66Zm0,14.75c-1.56-.44-2.2-.69-4-1.29-.27-1-1.48-1.56-1.59-.05,0,1.18,1.77,3.18.25,3.64-7.28.58,2.07-5.82-2.2-7.41-1.73-.11-.62,2.1-1.17,3.37-1.66-.08-2.5.51-2.65,3.11-.4,3.29,1,2.32,2.25,3.45.7.88,0,4,2,3.28.53.16-.65,2.25.72,2.32s.44-1.36.72-2.47c1.07.16,3-1.62,3.33-3.47C201.64,96.34,203.09,93.76,201.82,91.41Zm5.05-3.33c.2,2.46,3.52,2.68,3,6.22,2.29,1.85,3.8-.25,2.6-2.75-1.84,0-.56-1.6-1.89-2.16-1.14.13.21-1-.7-1.12-.39-.15-1.3.41-.88-.48.8-1-1.19-.07-.88-.93.38-.67-.07-.57-1.14-1.09-.26-.34.63-1.78-1.1-1.37-1.38-.46-.7-1.91-3.67-1.38-1.28-.7-1.18-2.85-1.59-4.48-2.84-.66-4,1.51-.94,2.84.23.8-.46,2.36,1,2.09,2.23-.23.76,2.63,3.71,2C204.8,86.54,204.89,87.81,206.87,88.08ZM70.22,135.66c-.83.83-.07,3.76,1.56,1.93C71.82,136.44,71.89,135.13,70.22,135.66ZM130.16,69c1.57,0,3.15,1.18,2.61-1.26,1.48-.42,7.4-.57,4.36-3.49-2,.41-2-1.57-1.33-3.31.22-.2,1.86-.66,1.32.92,1.37,5.08,2.49-2.54,4.2-5,2.05-3.17,5.43-4.54,5.89-9,.74-17.86-3.51-5.68-7.19-12.6-1.83-2.34-4.74-.28-6.08-2.6-3.57.59-2.89.94-5.07-1.08-5.91,1.19-12.72.44-16.37,5.82-2.53,2.42-6,2.82-7.12,6.37-1.73-.47-1.68,1.15-.93,2.65,1.39.76.29-2,1.88-2.1,1.12.19,3.86.05,3.76,1.7-.59,1-.67,1.39,1,1-.56-1.2,3-2.17,2.17-.15-.46.36-1.88.27-1.3,1.74,8.63-2-1.69,3.08,3.91,3.38,1.42-1.67,1.63-6.38,4.26-5.85.54.86,0,1.06-1.12,2.13-5.43,5.43,2.21,3.49,5.37,2.36.31-.8,2.1-4.42,2.16-1-.26,2.07-1.29,2.34-3.17,2.92-.44,3.2.24,7.35-1.3,11.14-1.56,1.77-3,5.39-3.63,7.5-.79.15-1.78-.62-1.84.56.71,1.61,1.53,2,1.13,4.38.26.42,2.66-.75,2.11.5-2.83,2.32,2.12,3.6,2.8,1.7-.65-2-.18-2.56,1.88-3.07.48-.52-.44-2.14.84-2.38C132.14,73.16,130,72.28,130.16,69ZM179,111.8c.69-.62-.25-2.6-1.48-1C177.55,111.8,177.39,112.33,179,111.8ZM155.94,97.88c2.2.77.78-.78,2.34-1.11,2.33.78,2.36-.93,3.66-2,4.79-.12-1.13-4.83-2.88-6.41-4.27-1.25-1.38-5.91-3.61-5.2-1.26,2.37-.53-.25-2.31-.15-4.31.15,2.12,4.41,3.32,6.94,0,.26-2.13,2-.65,2.46,1.18-.38-.53,1.44,1,1.17.56,0,1-.1.95,1C156.28,94.24,155.38,96.85,155.94,97.88Zm20.74,10.59c.75-.58-.34-2.63-1.45-1C175.38,108.58,175.2,108.7,176.68,108.47Zm6.21,6.22a17.09,17.09,0,0,0,3.76.29C188.59,112.86,182.26,111.87,182.89,114.69ZM56.06,128.87c-1.54,1.77,3,3.8,2.6,1C56.4,130.42,58.33,128.1,56.06,128.87ZM63,126.7c-2.62-.9-2.39-5.06-5.34-5.35-1.21-1.42,1.75-4.37-3.3-3.42-2.17,1,.83.88,1,2-.55,1.67,1.91,1.22,2.13,3,.57.42,2,2.14,1.39,3.32-.62.27-.51,1.42.78,1.16C59.22,129.55,64,129.78,63,126.7Zm2.75,8.53c.07,1.69,4.22.72,2.84-1-3-.64-2.11-2.63-4.35-3.83-2.36-.54-.15,1.38-1.75,1.56-1.19-.4-.79,1.85.8,1.38C63.13,135.93,64.66,133.56,65.74,135.23Zm74.43-58c1.62.3-.1-1.74,1.93-2.36,3.41-2.32-.32-2.95-2.69-4.53-1-1.15-1.09,2.6-2.66,2.2-1.56-.79-2.58,1.58-.06,1.51,1.12-.16,0,1.16,1,1.27.61.13,1.06-.6,1.13.5S138.41,77.22,140.17,77.18Zm10.08,15.53c-.08.39.73,1.24,1.73,1.59,5.16-.46.94-9.51-1.26-4.28C152.69,90,152.42,93.07,150.25,92.71Z"/><path class="cls-4" d="M154.44,152.44l-10.12-37.17,23,36.45a35.24,35.24,0,0,0-12.85.72m25.13,3.62,19.36-33.41-9.68,41.94a34.45,34.45,0,0,0-9.68-8.53m15.31,19.81,37.27-10-36.4,22.85a39.11,39.11,0,0,0-.87-12.87m-3,25.31,33.52,19.38-42-9.69a37.15,37.15,0,0,0,8.52-9.69m-20.37,15.47,6.21,23.14,1,3.33-3.76.29-2-3.18-14.3-22.85a35,35,0,0,0,12.85-.73m-25.13-3.47L131,239.65l-1.44,2.46-1.45-.29.44-2.17,8.09-35a37,37,0,0,0,9.68,8.53m-15.17-20.24-37.42,10,36.55-22.85a32.67,32.67,0,0,0,.87,12.88m3.32-24.88L101,148.68l42,9.69a34.61,34.61,0,0,0-8.52,9.69"/><circle class="cls-5" cx="162.99" cy="184.49" r="31.78"/><path class="cls-4" d="M157.49,158a1.41,1.41,0,0,0,0-.5,2.43,2.43,0,0,1,.08-.54,1.31,1.31,0,0,1,.24-.34h0a22.88,22.88,0,0,1,2.49-.31,1.26,1.26,0,0,0-.28.33,2.36,2.36,0,0,0-.12.51,1.43,1.43,0,0,1-.09.5,1.76,1.76,0,0,1-.29.37h0c-.79.09-1.59.22-2.37.38A1.55,1.55,0,0,0,157.49,158Zm2.87-1.71Zm-.11,1.65c.8-.07,1.6-.09,2.4-.08h0a1.52,1.52,0,0,0,.34-.33,1.34,1.34,0,0,0,.15-.48,2.08,2.08,0,0,1,.19-.49,1.47,1.47,0,0,1,.32-.29h0a23.54,23.54,0,0,0-2.52,0l0,0a1.42,1.42,0,0,0-.29.31,2.33,2.33,0,0,0-.13.52,1.35,1.35,0,0,1-.11.49A1.43,1.43,0,0,1,160.25,157.94Zm-6.69,1.55a1.82,1.82,0,0,0,.19-.43,1.27,1.27,0,0,0-.05-.51,2.34,2.34,0,0,1,0-.53,1.41,1.41,0,0,1,.19-.39,24.65,24.65,0,0,0-2.33.94v0a1.38,1.38,0,0,0-.15.4,1.81,1.81,0,0,0,.07.52,1.41,1.41,0,0,1,.09.49,2.06,2.06,0,0,1-.14.44c.71-.36,1.44-.69,2.18-1Zm-15.73,16.27a1.69,1.69,0,0,0,.23.36,2.13,2.13,0,0,0,.46.27,1.47,1.47,0,0,1,.45.23,1.4,1.4,0,0,1,.26.39,22.56,22.56,0,0,1,.55-2.33h0a1.86,1.86,0,0,0-.23-.41,1.21,1.21,0,0,0-.43-.27,2.24,2.24,0,0,1-.43-.31,1.93,1.93,0,0,1-.19-.38,24.71,24.71,0,0,0-.67,2.42Zm18.88-17.24h0a1.67,1.67,0,0,0,.25-.4,1.52,1.52,0,0,0,0-.52,1.87,1.87,0,0,1,0-.53,1.31,1.31,0,0,1,.24-.34h0c-.82.17-1.63.37-2.43.62h0a2,2,0,0,0-.2.38,2.35,2.35,0,0,0,0,.53,1.46,1.46,0,0,1,0,.51,1.65,1.65,0,0,1-.21.42A22,22,0,0,1,156.71,158.52Zm18.54,41.82A19.19,19.19,0,0,0,173,202l-.27.24a1.46,1.46,0,0,0,0,.51c0,.14.06.38.1.53a1.79,1.79,0,0,1-.09.86,9,9,0,0,0,2.22-1.67l.34-.31c0-.11,0-.22,0-.32a1.63,1.63,0,0,0-.06-.45c0-.14-.18-.21-.18-.43a2.94,2.94,0,0,1,.11-.66ZM169,205.13a4.34,4.34,0,0,0,1.06-1.2c.08-.14.33-.46.41-.6s-1.26-.6-1.23-1.26c-.88,1.31-1.21,1.94-2.16,2.2-.23.11,0,0,0,0a1.68,1.68,0,0,0-.11.54,1.85,1.85,0,0,0,0,.47,2,2,0,0,0,.16.51A4.18,4.18,0,0,0,169,205.13Zm-2-1.33a2,2,0,0,0,.77-.6l.33-.43a3,3,0,0,0-2.82-.45c-.18.07-.45.07-.52.3h0s-.58,1.28-.13,1.55a3.09,3.09,0,0,1,1-.29,3.24,3.24,0,0,1,1.12-.1Zm6.1,2.91s.88-1.41,1.72-1.27l-.21-.1a4.28,4.28,0,0,0-2.5-.21c-.73.18-1.94.73-2.1,1.27a4,4,0,0,1,2,.44C172.11,206.88,172.37,206.73,173.11,206.71ZM170.65,204c-.06.07-.19.26-.32.45s-.44.48-.48.55.87.16,2.24-.43h0a1.49,1.49,0,0,0,.15-.4,2.25,2.25,0,0,0,0-.58,2,2,0,0,0-.05-.43,1.2,1.2,0,0,1,0-.38c-.14.13-.91.64-.91.64l-.36.19c-.09.13-.16.28-.24.39Zm-4,.41a1.63,1.63,0,0,0-.12.52,2.68,2.68,0,0,0,0,.49c0,.64.16.61.16.61a9.07,9.07,0,0,1-3.21.07s.14-.33.18-.41.19-.2.21-.35a1.47,1.47,0,0,1,.53-.6,14.9,14.9,0,0,0,2-.23Zm4.88-4a4.69,4.69,0,0,0-1.87,1.34h0c-.27.53,1.23,1.16,1.23,1.16h0c.53-.73,1.06-1.11,1.56-1.09a17.83,17.83,0,0,1,1.63-1.23,2.6,2.6,0,0,0-2.54-.18Zm-29.48-32.68a1.19,1.19,0,0,1,.33.38,1.5,1.5,0,0,1,.09.46c.44-.67.9-1.32,1.4-1.95h0a1.51,1.51,0,0,0-.05-.47,1.46,1.46,0,0,0-.29-.41,1.79,1.79,0,0,1-.27-.44,1.23,1.23,0,0,1,0-.43,24.69,24.69,0,0,0-1.55,2v0a1.41,1.41,0,0,0,.07.41A2.29,2.29,0,0,0,142.07,167.69Zm-2.35,2.6Zm-1,2.31a1.38,1.38,0,0,0,.18.39,2,2,0,0,0,.43.33,1.25,1.25,0,0,1,.41.28,1.65,1.65,0,0,1,.21.42c.25-.76.54-1.51.86-2.24h0a1.59,1.59,0,0,0-.16-.43,1.16,1.16,0,0,0-.4-.33,2.22,2.22,0,0,1-.38-.37,1.72,1.72,0,0,1-.14-.4c-.36.75-.69,1.53-1,2.32Zm1.5-2.55a1.21,1.21,0,0,0,.33.39,1.21,1.21,0,0,1,.38.33,1.7,1.7,0,0,1,.15.45h0c.34-.73.72-1.43,1.13-2.13h0a1.49,1.49,0,0,0-.11-.44,1.37,1.37,0,0,0-.35-.37,2.25,2.25,0,0,1-.34-.41,1.2,1.2,0,0,1-.08-.42h0c-.47.7-.89,1.43-1.45,2.22v0c.2.1.25.24.35.35Zm8.76-8a21.53,21.53,0,0,1,2-1.26h0a1.69,1.69,0,0,0,.14-.45,1.36,1.36,0,0,0-.12-.49,3.08,3.08,0,0,1-.08-.53,1.44,1.44,0,0,1,.13-.4c-.75.38-1.48.79-2.19,1.24v0a1.45,1.45,0,0,0-.12.42,1.94,1.94,0,0,0,.14.51,1.36,1.36,0,0,1,.16.48,1.8,1.8,0,0,1-.1.46Zm-4.59,3.65a1.47,1.47,0,0,1,0,.47c.52-.61,1.07-1.19,1.65-1.75h0a1.83,1.83,0,0,0,0-.47,1.31,1.31,0,0,0-.24-.45,2.62,2.62,0,0,1-.22-.48,1.53,1.53,0,0,1,0-.43c-.63.56-1.23,1.15-1.8,1.76v0a1.23,1.23,0,0,0,0,.43,1.75,1.75,0,0,0,.26.46A1.45,1.45,0,0,1,144.4,165.73Zm2-2.34a1.47,1.47,0,0,1,0,.47q.9-.81,1.86-1.53h0a1.77,1.77,0,0,0,.07-.46,1.56,1.56,0,0,0-.17-.47,2.15,2.15,0,0,1-.15-.51,1.15,1.15,0,0,1,.08-.41,22.92,22.92,0,0,0-2,1.51v0a2,2,0,0,0,0,.43,2.92,2.92,0,0,0,.19.49A1.28,1.28,0,0,1,146.42,163.39Zm17,42.68Zm12.42-45.74Zm-.63,1.19-.47,0h0a10.78,10.78,0,0,1,1.86,1.43v0a3.25,3.25,0,0,0,.57-.07,1.21,1.21,0,0,0,.41-.3,4,4,0,0,1,.44-.27,1.56,1.56,0,0,1,.43,0c-.64-.55-1.3-1.06-2-1.62h0a2.35,2.35,0,0,1-.4.14,2.18,2.18,0,0,0-.43.32,3.23,3.23,0,0,1-.37.37Zm-2.69-1.59a1.46,1.46,0,0,1-.44.16,10.42,10.42,0,0,1,2,1.17v0a2.89,2.89,0,0,0,.56-.15,1.58,1.58,0,0,0,.37-.36,1.86,1.86,0,0,1,.41-.33,1.43,1.43,0,0,1,.42-.09,14.47,14.47,0,0,0-2.16-1.2h0a.57.57,0,0,0-.43,0,2.6,2.6,0,0,0-.38.36,1.06,1.06,0,0,1-.34.41Zm-3-1a1.72,1.72,0,0,1-.43.21q1.17.38,2.31.87v0a1.44,1.44,0,0,0,.45-.17,1.41,1.41,0,0,0,.33-.4,2,2,0,0,1,.38-.39,1.56,1.56,0,0,1,.41-.15c-.77-.37-1.56-.71-2.38-1h0a1.59,1.59,0,0,0-.4.18,2,2,0,0,0-.33.43,1.5,1.5,0,0,1-.32.44Zm.42-1.43Zm12.79,9.67Zm-.5.64a1.44,1.44,0,0,1-.52.17,1.5,1.5,0,0,1-.46-.09c.46.66.88,1.34,1.29,2v0a1.28,1.28,0,0,0,.43.14,1.21,1.21,0,0,0,.49-.11,3.12,3.12,0,0,1,.52-.08,1.53,1.53,0,0,1,.41.14,18.46,18.46,0,0,0-1.23-2.12h0a.65.65,0,0,0-.44-.18,1.83,1.83,0,0,0-.46.11Zm2.15,2.17Zm-4.19-4.77a1.35,1.35,0,0,1-.45.22,1.23,1.23,0,0,1-.47,0,20.88,20.88,0,0,1,1.52,1.86v0a1.43,1.43,0,0,0,.46.07,1.66,1.66,0,0,0,.47-.17,2.13,2.13,0,0,1,.51-.14,1.56,1.56,0,0,1,.42.08,23,23,0,0,0-1.52-2h0a1.2,1.2,0,0,0-.42,0A1.74,1.74,0,0,0,180.26,165.21Zm-2.06-2.15a2.62,2.62,0,0,1-.5.3,1.26,1.26,0,0,1-.47,0c.61.52,1.19,1.07,1.75,1.65v0a1.76,1.76,0,0,0,.46,0,1.31,1.31,0,0,0,.45-.24,2.13,2.13,0,0,1,.49-.21,1.19,1.19,0,0,1,.42,0,22.77,22.77,0,0,0-1.76-1.78h0a1,1,0,0,0-.43,0,1.05,1.05,0,0,0-.4.23Zm2.6,1.53ZM162.58,209.9a7.37,7.37,0,0,0,1.41-.49c.14-.1.25-.23.37-.24h0a3.05,3.05,0,0,1-1.53-1.89,1.74,1.74,0,0,1-1.69-1,4.26,4.26,0,0,0,.11,1.38,4.71,4.71,0,0,0,1.31,2.23Zm21.2-39.44a1.41,1.41,0,0,1-.49.09,1.62,1.62,0,0,1-.44-.14c.36.71.69,1.44,1,2.18v0a1.33,1.33,0,0,0,.42.19,1.4,1.4,0,0,0,.5,0,2.35,2.35,0,0,1,.53,0,1.5,1.5,0,0,1,.38.19c-.27-.79-.59-1.57-.94-2.34h0a1.38,1.38,0,0,0-.4-.15A1.8,1.8,0,0,0,183.78,170.46Zm-18.39,37.8a2.64,2.64,0,0,1,1,0,8.56,8.56,0,0,1,.93-1.44,6.08,6.08,0,0,0-3.69.74l.33.33.8.65Zm-4.23-2ZM185.72,173ZM164.37,204.8Zm0-.09Zm-1.08-1.65a4.36,4.36,0,0,0-2,2.55h0s.61,1.24,1.47,1a3.92,3.92,0,0,1,.94-1.83l.11-.24a2.31,2.31,0,0,1-.1-1.75Zm3.55-46.39Zm-3.24.81a1.73,1.73,0,0,1-.35.31,23.68,23.68,0,0,1,2.38.24l0,0a1.46,1.46,0,0,0,.38-.27,1.28,1.28,0,0,0,.21-.46,2.64,2.64,0,0,1,.25-.47,2.25,2.25,0,0,1,.36-.24c-.82-.15-1.65-.27-2.5-.34h0a1.26,1.26,0,0,0-.33.27,2.33,2.33,0,0,0-.21.49A1.23,1.23,0,0,1,163.61,157.48Zm3.12.56a1.66,1.66,0,0,1-.39.26,23.85,23.85,0,0,1,2.33.55l0,0a1.68,1.68,0,0,0,.42-.22,1.57,1.57,0,0,0,.27-.43,2.13,2.13,0,0,1,.31-.43,1.5,1.5,0,0,1,.38-.19c-.8-.26-1.61-.49-2.43-.67h0a1.69,1.69,0,0,0-.36.23,2.13,2.13,0,0,0-.27.46,1.3,1.3,0,0,1-.22.46ZM158.07,205a1.92,1.92,0,0,1-.27.46,1.21,1.21,0,0,1-.35.24c.83.16,1.66.28,2.5.36v0a1.09,1.09,0,0,0,.33-.27,2.06,2.06,0,0,0,.21-.48,1.15,1.15,0,0,1,.17-.48,1.47,1.47,0,0,1,.35-.31,23.68,23.68,0,0,1-2.38-.24h0a1.46,1.46,0,0,0-.38.27A1.37,1.37,0,0,0,158.07,205Zm18.31.41a2.87,2.87,0,0,0-.4-2.86l-1.52,1.26a1,1,0,0,1,.1,1.19,8.31,8.31,0,0,1,1.82.41Zm2.27,4.31.69.65.91-1.73a6.11,6.11,0,0,0-.74-.32Zm.28-1.62-.86,1.31.2.12.87-1.31ZM181,197.48Zm-2.28,2.32Zm1.32-3.13a1.83,1.83,0,0,1,0-.47,19.4,19.4,0,0,1-1.64,1.75h0a1.48,1.48,0,0,0,0,.47,1.4,1.4,0,0,0,.24.45,2.06,2.06,0,0,1,.21.48,1.18,1.18,0,0,1,0,.42,22.85,22.85,0,0,0,1.79-1.76v0a2,2,0,0,0,0-.42,2.68,2.68,0,0,0-.26-.47,1.21,1.21,0,0,1-.27-.43Zm-3.38,11.77,1,.62,1-1.38a1.43,1.43,0,0,0-2,.76Zm1.08-9.55a1.49,1.49,0,0,1,0-.42,18.67,18.67,0,0,1-1.68,1.38h0a3.15,3.15,0,0,0-.09.42,1.46,1.46,0,0,0,.1.46,1.93,1.93,0,0,1,.08.48,2.7,2.7,0,0,1-.05.41c.63-.42,1.35-1,1.94-1.45h0a1.29,1.29,0,0,0,0-.39,1.85,1.85,0,0,0-.18-.44,1.3,1.3,0,0,1-.2-.43Zm-10.84,9.85a1.64,1.64,0,0,1-.08,2c1.45,0,2.59-1.87,2.59-1.87a5.85,5.85,0,0,0-1.75-.12Zm4.4-1.52a7.43,7.43,0,0,0-3.08-.46L167,208.2l1.94.11c.57,0,.78.22,1.57.48,0,0,1.33-1.33.78-1.56ZM166.4,209a2.32,2.32,0,0,1-.44.16,2.8,2.8,0,0,1-.91.06h0c0,.8-1.76,1.09-1.76,1.09a4.41,4.41,0,0,0,2.57.52h0a1.51,1.51,0,0,0,.54-1.83Zm11.52-1.91h0c-.47-.37-.88-.69-1.11-.83a4.74,4.74,0,0,0-.88-.42,1.71,1.71,0,0,0-2.14.94,5.13,5.13,0,0,1,2,1l.31.3s.83-1.52,1.83-1Zm-1.8,1v0h0ZM173.55,207a3.25,3.25,0,0,1-1.45.32c.18.43-.9,1.65-.9,1.65a3.59,3.59,0,0,0,2.2,0,2.7,2.7,0,0,0,1.37-1,2.85,2.85,0,0,1-1.22-.92Zm-35.88-30.54Zm49.15.35a1.36,1.36,0,0,0-.34-.25,2,2,0,0,0-.54-.07,1.2,1.2,0,0,1-.5,0,1.33,1.33,0,0,1-.39-.26,23.41,23.41,0,0,1,.39,2.37v0a2,2,0,0,0,.36.29,1.43,1.43,0,0,0,.5.09,2.31,2.31,0,0,1,.52.12,1.4,1.4,0,0,1,.33.27c-.06-.83-.17-1.66-.31-2.49Zm.21,2.54Zm-4.75,15.24a.69.69,0,0,1-.43-.36,1.46,1.46,0,0,1-.1-.46,12.16,12.16,0,0,1-1.42,1.86h0a3.24,3.24,0,0,0,.07.56,1.31,1.31,0,0,0,.3.41,2.89,2.89,0,0,1,.27.44,1.56,1.56,0,0,1,0,.43,6.17,6.17,0,0,0,1.26-1.91v0c.29-.22.27-.36.23-.5a1.3,1.3,0,0,1-.22-.44Zm-16,14.29h0ZM186.73,183a2.73,2.73,0,0,0-.48-.25,1.18,1.18,0,0,1-.46-.2,1.44,1.44,0,0,1-.28-.37c-.1.79-.24,1.58-.41,2.36v0a1.5,1.5,0,0,0,.25.4,1.29,1.29,0,0,0,.44.25,2.6,2.6,0,0,1,.45.28,1.36,1.36,0,0,1,.21.37h0c.21-.81.39-1.63.53-2.47h0A1.42,1.42,0,0,0,186.73,183Zm-.65-9.25h0a2,2,0,0,0-.38-.2,2.36,2.36,0,0,0-.53,0,1.1,1.1,0,0,1-.51,0,1.35,1.35,0,0,1-.42-.2h0a23.16,23.16,0,0,1,.69,2.29v0a1.5,1.5,0,0,0,.4.25,1.39,1.39,0,0,0,.5,0,2.32,2.32,0,0,1,.53.05,1.41,1.41,0,0,1,.36.24,25.13,25.13,0,0,0-.63-2.45Zm.71,6a1.84,1.84,0,0,0-.51-.14,1.25,1.25,0,0,1-.5-.11,1.43,1.43,0,0,1-.34-.31c.07.81.09,1.61.08,2.4v0a1.29,1.29,0,0,0,.32.34,1.34,1.34,0,0,0,.48.15,2.34,2.34,0,0,1,.5.19,1.43,1.43,0,0,1,.28.32h0a23.71,23.71,0,0,0,0-2.53h0a1.48,1.48,0,0,0-.33-.28ZM184.6,192Zm-.39.34a2.14,2.14,0,0,0-.36-.38,1.35,1.35,0,0,1-.38-.34,1.63,1.63,0,0,1-.15-.44,23.89,23.89,0,0,1-1.13,2.12h0a1.47,1.47,0,0,0,.11.46,1.37,1.37,0,0,0,.35.37,2.25,2.25,0,0,1,.34.41,1.15,1.15,0,0,1,.08.41,22.45,22.45,0,0,0,1.28-2.17h0a1.5,1.5,0,0,0-.15-.42ZM183,194.87Zm3.5-8.3a1.69,1.69,0,0,0-.23-.36,2.13,2.13,0,0,0-.46-.27,1.2,1.2,0,0,1-.45-.23,1.4,1.4,0,0,1-.26-.39c-.15.79-.33,1.57-.55,2.34v0a1.78,1.78,0,0,0,.22.41,1.3,1.3,0,0,0,.43.27,2.24,2.24,0,0,1,.43.31,1.18,1.18,0,0,1,.19.39,23,23,0,0,0,.67-2.43Zm-.92,3.13a1.38,1.38,0,0,0-.18-.39A3.39,3.39,0,0,0,185,189a1.4,1.4,0,0,1-.42-.28,1.35,1.35,0,0,1-.2-.42c-.25.76-.53,1.51-.85,2.24h0a1.82,1.82,0,0,0,.17.44,1.34,1.34,0,0,0,.39.32,2.72,2.72,0,0,1,.39.37,1.72,1.72,0,0,1,.14.4c.36-.75.69-1.53,1-2.32Zm1-13.57Zm-46.2,15.65a1.41,1.41,0,0,1,.49-.09,1.33,1.33,0,0,1,.44.14,23.93,23.93,0,0,1-1-2.19v0a1.52,1.52,0,0,0-.43-.19,1.22,1.22,0,0,0-.5.05,2.34,2.34,0,0,1-.53,0,1.46,1.46,0,0,1-.38-.18,24.65,24.65,0,0,0,.94,2.33h0a1.49,1.49,0,0,0,.4.15A2.32,2.32,0,0,0,140.39,191.78Zm-1.79-2.44Zm1.27,3Zm21.56,17a2.35,2.35,0,0,0-.32.23l.08-.09a2.77,2.77,0,0,0-.59.77c-.13.23-.34.72-.58,1.27h0c.65-1,2.08,0,2.08,0v0l.25-.42a6.36,6.36,0,0,1,.43-.59A2.45,2.45,0,0,1,161.43,209.35Zm-22.64-20.52a2.35,2.35,0,0,0,.53,0,1.25,1.25,0,0,1,.51,0,1.35,1.35,0,0,1,.42.2,22.61,22.61,0,0,1-.7-2.3v0a1.42,1.42,0,0,0-.41-.24,1.46,1.46,0,0,0-.51,0,1.94,1.94,0,0,1-.53-.05,1.31,1.31,0,0,1-.34-.24c.17.82.38,1.64.63,2.44h0A1.25,1.25,0,0,0,138.79,188.83ZM143.9,197a1.22,1.22,0,0,1,.46-.22,1.25,1.25,0,0,1,.47,0A22.91,22.91,0,0,1,143.3,195v0a1.83,1.83,0,0,0-.46-.07,1.47,1.47,0,0,0-.47.17,2.15,2.15,0,0,1-.51.15,1.54,1.54,0,0,1-.42-.07,24.48,24.48,0,0,0,1.52,2h0a1.5,1.5,0,0,0,.42,0A2.62,2.62,0,0,0,143.9,197Zm-2.37-1.85ZM137.33,179a1.4,1.4,0,0,0,.27.33,2.33,2.33,0,0,0,.49.21,1.36,1.36,0,0,1,.48.16,1.79,1.79,0,0,1,.31.36,23.68,23.68,0,0,1,.24-2.38v0a1.49,1.49,0,0,0-.28-.38,1.42,1.42,0,0,0-.44-.23,2.23,2.23,0,0,1-.48-.26,1.21,1.21,0,0,1-.24-.35,21.2,21.2,0,0,0-.36,2.5Zm.39,7.22Zm-.37-4a1.23,1.23,0,0,0,.31.29,1.91,1.91,0,0,0,.52.14,1.4,1.4,0,0,1,.5.11,2,2,0,0,1,.36.3,21.13,21.13,0,0,1-.08-2.39v0a1.78,1.78,0,0,0-.32-.35,1.41,1.41,0,0,0-.48-.15,1.78,1.78,0,0,1-.5-.19,1.22,1.22,0,0,1-.28-.32,23.54,23.54,0,0,0,0,2.52Zm.26,3.27a1.21,1.21,0,0,0,.35.24,2.34,2.34,0,0,0,.53.08,1.46,1.46,0,0,1,.51,0,2,2,0,0,1,.39.26,20.88,20.88,0,0,1-.38-2.37v0a1.31,1.31,0,0,0-.36-.3,1.43,1.43,0,0,0-.5-.09,2.31,2.31,0,0,1-.52-.12,1.4,1.4,0,0,1-.33-.27,23.52,23.52,0,0,0,.31,2.49Zm-.33-2.51Zm4.9,11.53a1.36,1.36,0,0,1,.47-.15,1.22,1.22,0,0,1,.46.09,23.8,23.8,0,0,1-1.26-2v0a1.37,1.37,0,0,0-.45-.13,1.33,1.33,0,0,0-.48.1,2.35,2.35,0,0,1-.53.09,1.47,1.47,0,0,1-.4-.14c.38.75.79,1.48,1.24,2.19h0a1.43,1.43,0,0,0,.41.09,2,2,0,0,0,.53-.13Zm14.56,11a1.69,1.69,0,0,0,.36-.23,2.13,2.13,0,0,0,.27-.46,1.47,1.47,0,0,1,.23-.45,1.4,1.4,0,0,1,.39-.26,23.37,23.37,0,0,1-2.34-.55l0,0a1.49,1.49,0,0,0-.41.22,1.21,1.21,0,0,0-.27.43,2.61,2.61,0,0,1-.31.43,1.93,1.93,0,0,1-.38.19c.8.26,1.61.49,2.43.67Zm1.91,8.42,1.61,1.11.3-.9-1.41-.83A5,5,0,0,0,158.65,213.93Zm-4.34-9.09Zm5.07,8.18,1.37.76.11-.21-1.38-.76Zm.26-.64,1.49.77.61-1A1.44,1.44,0,0,0,159.64,212.38Zm-5-8.82a1.72,1.72,0,0,1,.43-.21,21.64,21.64,0,0,1-2.25-.84v0a1.59,1.59,0,0,0-.43.16,1.31,1.31,0,0,0-.31.4,2.72,2.72,0,0,1-.37.39,1.9,1.9,0,0,1-.4.14c.75.36,1.53.69,2.32,1h0a1.46,1.46,0,0,0,.38-.17,2,2,0,0,0,.33-.44A1.34,1.34,0,0,1,154.6,203.56ZM149,200.8a1.87,1.87,0,0,1,.46-.09c-.67-.44-1.32-.9-1.95-1.4v0a1.48,1.48,0,0,0-.47,0,1.46,1.46,0,0,0-.41.29,2.35,2.35,0,0,1-.46.28,1.46,1.46,0,0,1-.42,0c.64.55,1.3,1.06,2,1.55h0a1.54,1.54,0,0,0,.42-.07,2.22,2.22,0,0,0,.42-.32A1.37,1.37,0,0,1,149,200.8Zm-3.19-.78Zm.49-.71a1.23,1.23,0,0,1,.43-.28,1.78,1.78,0,0,1,.46,0c-.61-.52-1.19-1.07-1.74-1.64v0a1.78,1.78,0,0,0-.46,0,1.22,1.22,0,0,0-.45.24,3.06,3.06,0,0,1-.49.22,1.56,1.56,0,0,1-.43,0,25.05,25.05,0,0,0,1.77,1.8h0a1.55,1.55,0,0,0,.43,0,2.59,2.59,0,0,0,.46-.26Zm5.4,3.15a1.57,1.57,0,0,1,.43-.15,19.63,19.63,0,0,1-2.06-1.14v0a1.65,1.65,0,0,0-.44.1,1.46,1.46,0,0,0-.36.34,2.25,2.25,0,0,1-.41.34,1.35,1.35,0,0,1-.4.08,21.78,21.78,0,0,0,2.12,1.29h0a1.33,1.33,0,0,0,.4-.12,2.1,2.1,0,0,0,.37-.36,1.2,1.2,0,0,1,.34-.37Zm-.46,1.15Zm-2.83-1.6Z"/><path class="cls-4" d="M148,184.5l.33-1.57,1.6-.18-1.41-.81.33-1.58-1.19,1.09-1.4-.79.66,1.47-1.18,1.09,1.6-.18Zm11.62,1.27h0a24.91,24.91,0,0,0-2.66,1.12c-.93-1.64-2.82-3.57-4.94-2.66-1.82.78-2.09,2.93-1.17,4.53-2.6,1.1-5.45-.48-6.67-2.82a6.3,6.3,0,0,1,3.82-9c5.52-1.48,10.43,5,11.66,8.84M176.11,177l-.16-1.61,1.48-.65-1.58-.35-.16-1.6-.81,1.41-1.58-.35,1.07,1.2-.81,1.39,1.47-.65Zm-9.47,6.95c-.86-3.94.16-12,5.67-13.48a6.31,6.31,0,0,1,7.83,5.9c.12,2.63-1.56,5.42-4.37,5.77a3.09,3.09,0,0,0-3.28-3.34c-2.29.27-3,2.89-3,4.76-1,.07-2,.25-2.87.39Zm-2.81,3.43c3.56-1,6.34-2.06,6.28-2.28s-3,.19-6.6,1.15-6.35,2.08-6.29,2.3,3.05-.22,6.62-1.18m.19.81c-4.11,1.11-7.61,1.39-7.81.64s2.95-2.25,7.08-3.36,7.61-1.38,7.81-.63-3,2.25-7.09,3.35m6.07-1.36a3.11,3.11,0,0,0,5.08,1.22,3.44,3.44,0,0,1-2.32,4c-2.32.62-4.62-2.54-5.24-4.13h0a26.09,26.09,0,0,0,2.5-1.07Zm-9.5,2.94c.27,1.66-.12,5.61-2.46,6.23a3.44,3.44,0,0,1-4-2.27,3.11,3.11,0,0,0,3.78-3.65v0a26.61,26.61,0,0,0,2.67-.31Zm-3.48-27.39a26.42,26.42,0,0,0,3.67,1.78,9.16,9.16,0,0,1,5.57,5.81c1.17,4.22-1.4,8.89-.47,14.11-.79.13-1.57.29-2.33.49-1.3-5.2-3.38-12.17-5.09-17.14,1,5.16,2.69,12.23,4.17,17.39a22.1,22.1,0,0,0-2.26.74c-1.81-5-6.37-7.75-7.47-12a9.08,9.08,0,0,1,1.92-7.82,25.72,25.72,0,0,0,2.29-3.38m9.73,36.31a10.63,10.63,0,0,1-6.14-3.31,12.08,12.08,0,0,0,.71-5.74c.73-.14,1.53-.32,2.33-.53a43,43,0,0,0,2.07,5.74,42.33,42.33,0,0,0-1.08-6c.81-.21,1.57-.45,2.29-.7a11.88,11.88,0,0,0,3.48,4.61,10.53,10.53,0,0,1-3.66,5.94"/><path class="cls-6" d="M203.41,118.89a2.08,2.08,0,0,1,2.89.43,2,2,0,0,1-.44,2.89,2.05,2.05,0,0,1-2.89-.29A2.11,2.11,0,0,1,203.41,118.89Zm34.38,69.71a2.22,2.22,0,0,0-.29,3,2.06,2.06,0,0,0,1.25.72c0-1.37,0-2.73.05-4.08A2.56,2.56,0,0,0,237.79,188.6Zm-1.3-21.55a2.39,2.39,0,0,0-.43,3,2.21,2.21,0,0,0,3,.29l.06-.05c0-1,.08-2,.12-3A2.23,2.23,0,0,0,236.49,167.05ZM175.67,107.9a2.11,2.11,0,1,0,2.6,3.32,2.06,2.06,0,0,0,.29-2.89A2,2,0,0,0,175.67,107.9Zm-54.46,15.47a2.11,2.11,0,1,0-2.6-3.33,2.06,2.06,0,0,0-.29,2.9A2.24,2.24,0,0,0,121.21,123.37Zm115.71,39.19a2.11,2.11,0,1,0-2.6-3.32,2,2,0,0,0-.29,2.89A2.23,2.23,0,0,0,236.92,162.56ZM236.78,197a2.07,2.07,0,0,0-.29,2.9,2,2,0,0,0,2.1.82c0-1.36.07-2.73.09-4.08A2.21,2.21,0,0,0,236.78,197Zm-37.71-81.71a2.11,2.11,0,1,0-3.32,2.61,2.11,2.11,0,0,0,3.32-2.61ZM83.16,203.75a4,4,0,1,0,1,3.91c-.18-.63-.37-1.26-.54-1.9S83.32,204.42,83.16,203.75Zm18.4,22.3a2,2,0,0,0-2.88-.43,2.08,2.08,0,0,0-.44,2.89,2.12,2.12,0,0,0,3,.44A2.07,2.07,0,0,0,101.56,226.05Zm122.65-83.44a2.24,2.24,0,0,0,2.89.43,2.12,2.12,0,0,0,.43-3,2.06,2.06,0,0,0-2.89-.29A2,2,0,0,0,224.21,142.61Zm18.25,21.08c-.45,7.35-.54,15.25-.64,23.61-.08,7.21-.17,14.67-.51,22a7.94,7.94,0,0,1-1.15,3.66,12.39,12.39,0,0,0-.54,1.17,81.93,81.93,0,0,1-18,28c-.14.17-.32.47-.51.76-.66,1-1.56,2.43-3.3,2.43-4.14-.18-8.53-.42-13.11-.68a4.18,4.18,0,0,1-2,.39c-5.89-.66-12.43-1.18-19.35-1.55a1.5,1.5,0,0,1-1.4,1.41l-6.64.43h-.1a1.48,1.48,0,0,1-1-.37h-.08l-.54-.85-.72-1.07c-3.84-.12-7.76-.2-11.71-.23l-.48,1.06a1.52,1.52,0,0,1-1.45.88l-8-.44a1.49,1.49,0,0,1-1.4-1.28l0-.2c-5.74.07-11.47.23-17.09.48h0a1.5,1.5,0,0,1-.91.41l-3.76.29a1.43,1.43,0,0,1-1.15-.41q-3.23.18-6.38.41h0a3.39,3.39,0,0,1-1.89-.58c-3.72.41-7.23.92-10.49,1.57-1.89.44-2.92-1.29-3.53-2.31a5.94,5.94,0,0,0-.56-.85,80.49,80.49,0,0,1-19.93-34.21,3.88,3.88,0,0,0,0-2.14,3.76,3.76,0,0,0-1.07-1.77,82,82,0,0,1,57.07-98.15l-2.68-10.22-9.2,2.44a50.21,50.21,0,0,0,2.68,7.33l-16.32-5.21,11.56-12.73a70.33,70.33,0,0,0,1.32,7.7l9.19-2.43L136.14,90a6.33,6.33,0,0,1-6.26-4.67A6.45,6.45,0,0,1,133,78.07l-2.11-8a67.84,67.84,0,0,0-7.37,2.71l5.2-16.34L141.29,68a51.85,51.85,0,0,0-7.49,1.28l2.1,8A6.17,6.17,0,0,1,142.16,82a6.53,6.53,0,0,1-3.11,7.25l.64,2.45L149,89.24a62.89,62.89,0,0,0-2.78-7.38l16.47,5.21L151,99.8a45.49,45.49,0,0,0-1.21-7.65l-9.31,2.46,2.68,10.2A82.38,82.38,0,0,1,239,153.32a35.86,35.86,0,0,1,1.63,4.33,15.2,15.2,0,0,0,.62,1.47A9.46,9.46,0,0,1,242.46,163.69Zm-15.78-26.22L222,141a72.68,72.68,0,0,1,11.38,23l6-1.61a13.36,13.36,0,0,0-.78-2,16.7,16.7,0,0,1-.74-1.8,34.36,34.36,0,0,0-1.54-4.06A78.91,78.91,0,0,0,226.68,137.47Zm4.65,30.71-12.1,7.6-8.69,5.49,22.57,10.39A71.06,71.06,0,0,0,231.33,168.18Zm-55.12,71.89-5.81-21.64a38.41,38.41,0,0,1-8.9.72L174.57,240Zm-41.3-70a31.9,31.9,0,0,0-2.71,7.33,34.94,34.94,0,0,0,.43,15.2l.31,1.46h0c11.38,32.63,55.44,27.18,61.18-4.1a41.41,41.41,0,0,0-1-15.11,32.3,32.3,0,0,0-3.21-6.95,38.07,38.07,0,0,0-11.09-10.51l-1.25-.81h0a31.36,31.36,0,0,0-8.87-3.11,32.65,32.65,0,0,0-13.86.61h0a31.44,31.44,0,0,0-8.39,3.57h0a38.93,38.93,0,0,0-10.69,11.2Zm6,41.1c-.45-.37-.88-.75-1.3-1.13l-.37-.32c-.62-.59-1.23-1.18-1.81-1.79l-6.8,29.39,13.67-23.61-.73-.53c-.18-.11-.34-.24-.51-.36-.4-.28-.79-.57-1.16-.86S141.26,211.4,140.94,211.13Zm-8.27,4.12,2.12-9.16-10.9-.41-13.78,19.41,22.21-8.32ZM94.56,200.64l11.65-7.28,9.35-5.89L93,177.18A70,70,0,0,0,94.56,200.64Zm103.67-11.59,7.41,8,23.47-3.93-21.61-9.94Zm19.37-15.8,5.24-3.31-26.07,7a34.61,34.61,0,0,1,.81,8.9Zm4.9-6.33-30.28-1A34.72,34.72,0,0,1,196,174Zm-34-5.9,6.47-28.48L181.69,155.4A34.36,34.36,0,0,1,188.46,161Zm2.73,1.84,10.87.37L215.81,144l-22.14,8.17Zm39.06,1.31a69.77,69.77,0,0,0-10.31-20.8l-14.27,20Zm-12.78-24A70.22,70.22,0,0,0,200,124.85l-5.49,23.79Zm-24.38-10.42-22.53,21a34.84,34.84,0,0,1,8.53,3.16Zm3.14-7.05a70.31,70.31,0,0,0-22-7.47l4.1,24.24Zm-24.55-4.22-9.9,21.68,5.82,9.23,8.05-7.46Zm-1.57-3.79a70.14,70.14,0,0,0-23.39,1.57l13.14,20.85Zm-6.68,35.26h1l-16-25.35,7.09,26.08a39.61,39.61,0,0,1,6-.71l.41,0C162.44,149.92,162.94,149.93,163.43,149.94Zm-17.94-24.65-1,30a34.25,34.25,0,0,1,8.16-3.71Zm-3.57,16.64.83-24.61a70.53,70.53,0,0,0-20.84,10.24Zm-19.45-10.26,8.33,22.23,10.64,2.45.36-10.81Zm-3.82-1.62a70.08,70.08,0,0,0-15.4,17.5l24,5.54Zm-8.23,22.35,23.41,13.53a35,35,0,0,1,5.66-6.83Zm-1.51,2.6,20.32,21.85a34.92,34.92,0,0,1,3.1-8.31Zm-5.8,43.86,26.11-7a34.59,34.59,0,0,1-.81-8.87l-20.2,12.62Zm24.72-19.1-7.39-7.95L97,175.68l21.61,9.88Zm-26.65-28.65a70,70,0,0,0-7.61,22.09l24.41-4Zm2.18,50.8L133.78,203a34.64,34.64,0,0,1-3.78-8.23Zm-7.73,2.73A71,71,0,0,0,106,225.7l14.3-20.15ZM215.7,216.71l-23.37-13.52a39.06,39.06,0,0,1-5.77,6.88l6.09,1.4Zm-31.53,7,19.48,13.8-8.21-22.29-2.48-.57-8.35-1.89Zm33.3-9.43-20.68-22.34a35.24,35.24,0,0,1-3.15,8.55Zm7.44,3.6a65.73,65.73,0,0,0,7.71-22.27l-24.53,4.11Zm-21.1-101.11-3,5.1a73.35,73.35,0,0,1,19.3,16.8l4.72-3.56A79.26,79.26,0,0,0,203.81,116.75ZM174,112.15a73.45,73.45,0,0,1,24.2,8.2l3-5.1a79.93,79.93,0,0,0-26.4-9Zm-30.12-4.43,1.51,5.77a72.85,72.85,0,0,1,25.64-1.74l.76-5.87A78.75,78.75,0,0,0,143.9,107.72Zm-28,13.12,3.64,4.71a73.38,73.38,0,0,1,22.94-11.27l-1.57-5.76A79.47,79.47,0,0,0,115.92,120.84Zm-20.7,22.78,5.14,2.9a73.06,73.06,0,0,1,16.81-19.14l-3.64-4.7A78.75,78.75,0,0,0,95.22,143.62ZM84.7,172.54l5.81.76a73,73,0,0,1,8.31-24.13l-4.92-2.85-.19-.1A78.88,78.88,0,0,0,84.7,172.54Zm1.47,31,5.61-1.59a72.81,72.81,0,0,1-1.67-25.62l-5.8-.77A78.85,78.85,0,0,0,86.17,203.5Zm13,28,4.67-3.61a74,74,0,0,1-11.32-23.07L87,206.41A78.91,78.91,0,0,0,99.2,231.5Zm16.7,9.33a75.77,75.77,0,0,1-10.2-10.55l-4.66,3.6a74.08,74.08,0,0,0,5.21,5.87,7.6,7.6,0,0,1,1,1.42,5.15,5.15,0,0,0,.67,1Q111.7,241.38,115.9,240.83Zm11.1-1.05,4.51-19.5-23,8.65a73.18,73.18,0,0,0,9.67,9.86,9.93,9.93,0,0,1,1.29,1.25l.31.35Q123.26,240,127,239.78Zm22.33-.54-1.69-9.68L137,239.34C141,239.24,145.16,239.21,149.33,239.24Zm6.07-20.94a34.69,34.69,0,0,1-8.45-3.16l-13.67,23.59.33-.32Zm8.77,10.83-5.86-9.42-8,7.42,2.11,12.15q3.52,0,7.08.14Zm6.65,10.69-4.75-7.63-3.35,7.33Q166.77,239.64,170.82,239.82Zm10.74-26.08a34.22,34.22,0,0,1-8.26,3.82l6.22,22.67,1,.05Zm22.56,27.78L184,227.27l-.53,13.16c5,.27,9.85.55,14.54.83l6,.35Zm3.16-3.08a71.86,71.86,0,0,0,15.43-16.95L198.94,216l8.28,22.48Zm23.53-13-5.12-3a75.17,75.17,0,0,1-16.57,18.39,7.57,7.57,0,0,0-.89.81,1.52,1.52,0,0,1,0,.21c3.38.19,6.63.36,9.72.5a12.67,12.67,0,0,0,.71-1.05,8.7,8.7,0,0,1,.83-1.17A80.07,80.07,0,0,0,230.81,225.43Zm9-28a2,2,0,0,0-1.13-.8c0-.22,0-.44,0-.65l-3-.42a68.66,68.66,0,0,1-8.44,24.3l5.07,3a78,78,0,0,0,4.51-9.74c.2-.51.43-1,.66-1.43a5.54,5.54,0,0,0,.83-2.37c.13-2.86.21-5.72.28-8.58a2,2,0,0,0,.79-.39A2.09,2.09,0,0,0,239.81,197.42Zm1-8.39a2.29,2.29,0,0,0-2-.76c0-.33,0-.67,0-1,.06-5.88.14-11.52.33-16.94a2.06,2.06,0,0,0,.23-2.84l-.11-.12c.06-1.3.12-2.61.2-3.88a2.66,2.66,0,0,0,0-.39l-.91.58.51,1.94-4.92,1.31a73.91,73.91,0,0,1,1.93,25.64l2.7.38v-.59a2,2,0,0,0,1.64-.43A2.06,2.06,0,0,0,240.82,189Zm-153.7,9.4a2.07,2.07,0,1,0,2.89.43A2,2,0,0,0,87.12,198.43Zm1.3-18.51a2.2,2.2,0,0,0,.43-2.89,2.39,2.39,0,0,0-3-.44,2.23,2.23,0,0,0-.29,3A2,2,0,0,0,88.42,179.92Zm-1.59-11.28a2.06,2.06,0,0,0-.29,2.89,1.94,1.94,0,0,0,2.89.43,2.07,2.07,0,0,0,.43-2.89A2.1,2.1,0,0,0,86.83,168.64Zm2.46,37.74a2.08,2.08,0,0,0-.44,2.9,2.4,2.4,0,0,0,3,.43,2.23,2.23,0,0,0,.28-3A2.06,2.06,0,0,0,89.29,206.38Zm7.07-54.81a2.1,2.1,0,0,0,.44-3,2.05,2.05,0,0,0-2.89-.29,2,2,0,0,0-.44,2.89A2.23,2.23,0,0,0,96.36,151.57Zm7.52,80.85a2.05,2.05,0,0,0-.29,2.89,2,2,0,0,0,2.89.43,2.11,2.11,0,1,0-2.6-3.32Zm121.34-4.63a2.06,2.06,0,0,0,2.89.29,2,2,0,0,0,.43-2.89,2.39,2.39,0,0,0-3-.44A2.23,2.23,0,0,0,225.22,227.79Zm-110.37-99.5a2,2,0,0,0,.44-2.89,2.08,2.08,0,0,0-2.89-.44,2.11,2.11,0,0,0-.43,3A2,2,0,0,0,114.85,128.29Zm55.48-18.08a2.06,2.06,0,0,0,.29-2.89,2.09,2.09,0,0,0-2.89-.44,2.11,2.11,0,1,0,2.6,3.33Zm59.66,107a2.06,2.06,0,0,0-.29,2.89,2.08,2.08,0,0,0,2.89.44,2.25,2.25,0,0,0,.43-3A2.22,2.22,0,0,0,230,217.23Zm-7.66-80.7a2.23,2.23,0,0,0,.29-3,2,2,0,0,0-2.89-.28,2.11,2.11,0,1,0,2.6,3.32ZM101,141.59a2.07,2.07,0,0,0-3.33,2.46,2.1,2.1,0,0,0,2.89.44A2,2,0,0,0,101,141.59Z"/><path class="cls-7" d="M223.49,256H32.37A32.43,32.43,0,0,1,0,223.59V32.4A32.42,32.42,0,0,1,32.37,0H223.49A32.5,32.5,0,0,1,256,32.4V223.59A32.5,32.5,0,0,1,223.49,256ZM32.37,17.08A15.52,15.52,0,0,0,17.06,32.4V223.59a15.52,15.52,0,0,0,15.31,15.33H223.49a15.4,15.4,0,0,0,15.45-15.33V32.4a15.41,15.41,0,0,0-15.45-15.32Z"/></svg>