<svg id="Capa_1" data-name="Capa 1" xmlns="http://www.w3.org/2000/svg" viewBox="0 0 256 192"><defs><style>.cls-1{fill:#dfedfa;}</style></defs><title>caminante</title><path d="M164.11,116.78,250.44,90l3.15-1,1.27-1.59-3.86.52-61.89,8.29c-1.55,6.93-14.51,13.08-22.66,3L144,101.11Z" transform="translate(0 -32)"/><path d="M91.89,139.22,5.56,166l-3.15,1-1.27,1.59L5,168.06l61.89-8.29c1.55-6.93,14.52-13.08,22.66-3.05L112,154.89Z" transform="translate(0 -32)"/><path d="M143,155.08l35.73,64.75,1.29,2.36,2.12,1-.68-2.9-11.06-46.41c-9.24-1.17-17.44-10.89-4.07-17L163.85,140Z" transform="translate(0 -32)"/><path d="M91.89,116.78,5.58,89.94,2.44,89,0,89.42l3.22,1.67,51.58,27c7.62-4.07,22.59-1.55,18.9,9.86l17.61,10.63Z" transform="translate(0 -32)"/><path d="M164.11,139.21l86.31,26.85,3.14,1,2.4-.45-3.21-1.68-51.59-27c-7.62,4.07-22.59,1.55-18.89-9.86Z" transform="translate(0 -32)"/><path d="M143,100.92l35.79-64.74,1.3-2.35-.6-1.8-2.23,2.41-36,38.69c5.44,5.72,2.07,16.94-13.14,14.17l-14.18,13.21Z" transform="translate(0 -32)"/><path d="M113.05,155.09,77.26,219.82,76,222.17l.6,1.8,2.23-2.41,35.95-38.69c-5.44-5.72-2.07-16.94,13.15-14.17l14.17-13.21Z" transform="translate(0 -32)"/><path d="M113,100.92,77.32,36.17,76,33.81l-2.12-1,.68,2.9L85.64,82.16c9.24,1.17,17.44,10.89,4.07,17L92.15,116Z" transform="translate(0 -32)"/><path class="cls-1" d="M164.1,139.27l86.33,26.79,3.15,1,1.27,1.58-3.86-.51-61.89-8.3c-1.54-6.93-14.51-13.07-22.66-3.05L144,154.94Z" transform="translate(0 -32)"/><path class="cls-1" d="M113,155.08,77.25,219.82,76,222.18l-2.12,1,.69-2.89,11.06-46.42c9.24-1.16,17.44-10.89,4.07-17L92.08,140Z" transform="translate(0 -32)"/><path class="cls-1" d="M143,100.92l35.72-64.74,1.3-2.36,2.12-1-.69,2.89L170.42,82.17c-9.24,1.16-17.44,10.89-4.07,17L163.92,116Z" transform="translate(0 -32)"/><path class="cls-1" d="M164.15,116.82,250.46,90l3.14-1,2.4.45-3.22,1.68-51.58,27c-7.62-4.08-22.59-1.55-18.9,9.86l-17.61,10.63Z" transform="translate(0 -32)"/><path class="cls-1" d="M91.85,139.18,5.54,166,2.4,167,0,166.55l3.22-1.68,51.58-27c7.62,4.08,22.59,1.55,18.9-9.86l17.62-10.63Z" transform="translate(0 -32)"/><path class="cls-1" d="M142.9,155.11l35.79,64.74,1.3,2.35-.6,1.8-2.24-2.41L141.21,182.9c5.44-5.72,2.07-16.94-13.14-14.17l-14.18-13.21Z" transform="translate(0 -32)"/><path class="cls-1" d="M113.1,100.89,77.31,36.15,76,33.8l.6-1.8,2.23,2.41,36,38.69c-5.44,5.72-2.07,16.94,13.15,14.17l14.17,13.21Z" transform="translate(0 -32)"/><path class="cls-1" d="M91.9,116.73,5.57,89.94,2.42,89,1.15,87.37,5,87.89,66.9,96.18c1.54,6.93,14.51,13.08,22.66,3.06L112,101.06Z" transform="translate(0 -32)"/><path d="M140.24,124.2l29.25-9.08,1.07-.33.43-.54-1.31.17-21,2.81c-.52,2.35-4.92,4.44-7.68,1l-7.62.62Z" transform="translate(0 -32)"/><path d="M115.76,131.8l-29.25,9.08-1.07.33-.43.54,1.31-.17,21-2.81c.53-2.35,4.92-4.44,7.68-1l7.62-.62Z" transform="translate(0 -32)"/><path d="M133.07,137.18l12.11,21.94.44.8.72.32-.24-1-3.75-15.73c-3.13-.39-5.9-3.69-1.37-5.76l-.83-5.71Z" transform="translate(0 -32)"/><path d="M115.76,124.2l-29.24-9.1-1.07-.33-.81.15,1.09.57,17.48,9.14c2.58-1.38,7.65-.53,6.4,3.34l6,3.6Z" transform="translate(0 -32)"/><path d="M140.24,131.8l29.25,9.1,1.06.33.82-.15-1.09-.58-17.49-9.13c-2.58,1.38-7.65.53-6.4-3.34l-6-3.6Z" transform="translate(0 -32)"/><path d="M133.07,118.82l12.12-21.93.45-.8-.2-.61-.76.81L132.5,109.4c1.84,1.94.69,5.75-4.46,4.81l-4.8,4.48Z" transform="translate(0 -32)"/><path d="M122.93,137.18l-12.12,21.93-.45.8.21.61.75-.82,12.19-13.11c-1.85-1.93-.7-5.74,4.45-4.8l4.81-4.47Z" transform="translate(0 -32)"/><path d="M122.93,118.82l-12.1-21.94-.45-.8-.71-.32.23,1,3.75,15.73c3.13.39,5.91,3.69,1.38,5.76l.82,5.71Z" transform="translate(0 -32)"/><path class="cls-1" d="M140.24,131.82l29.25,9.08,1.07.33.43.54-1.31-.18-21-2.81c-.53-2.35-4.92-4.43-7.68-1l-7.62-.62Z" transform="translate(0 -32)"/><path class="cls-1" d="M122.91,137.18,110.8,159.12l-.44.8-.71.32.23-1,3.75-15.73c3.13-.39,5.9-3.69,1.37-5.76l.83-5.71Z" transform="translate(0 -32)"/><path class="cls-1" d="M133.09,118.82,145.2,96.88l.44-.8.72-.32-.24,1-3.74,15.73c-3.14.39-5.91,3.69-1.38,5.76l-.83,5.71Z" transform="translate(0 -32)"/><path class="cls-1" d="M140.25,124.21l29.25-9.09,1.07-.33.81.15-1.09.57-17.48,9.13c-2.59-1.38-7.66-.52-6.41,3.34l-6,3.61Z" transform="translate(0 -32)"/><path class="cls-1" d="M115.75,131.79,86.5,140.88l-1.06.33-.82-.15,1.09-.57,17.48-9.13c2.59,1.38,7.66.52,6.41-3.34l6-3.61Z" transform="translate(0 -32)"/><path class="cls-1" d="M133.05,137.19l12.13,21.93.44.8-.2.61-.76-.82L132.48,146.6c1.84-1.93.7-5.74-4.46-4.8l-4.8-4.47Z" transform="translate(0 -32)"/><path class="cls-1" d="M123,118.81,110.82,96.88l-.44-.8.2-.61.76.81,12.18,13.11c-1.84,1.94-.7,5.75,4.46,4.81l4.8,4.48Z" transform="translate(0 -32)"/><path class="cls-1" d="M115.77,124.18,86.51,115.1l-1.07-.33-.43-.54,1.31.18,21,2.81c.53,2.34,4.92,4.43,7.68,1l7.62.62Z" transform="translate(0 -32)"/></svg>