<svg id="Capa_1" data-name="Capa 1" xmlns="http://www.w3.org/2000/svg" viewBox="0 0 256 192"><defs><style>.cls-1{fill:#a9d1e2;}.cls-2{fill:#005c9d;}.cls-3{fill:#1d1d1b;}.cls-4{fill:#d7e9f4;}.cls-5{fill:#00407f;}.cls-6{fill:#ad0d41;}.cls-7{fill:#ffdc00;}</style></defs><title>enlace</title><rect class="cls-1" width="256" height="192"/><path class="cls-2" d="M8.38,47.22C28.17,36.38,42.28,27.71,77,20.85c37.69-7.45,92.81-7.63,136.27,17,62.27,35.31,53.06,91-5.67,119.15-38.79,18.57-106.87,24.24-150.47,12.16-17-4.71-59-24.54-45.42-51.07C28.18,86,103.16,48.4,145.16,59.76c24.66,6.66,45.88,37.44,31.23,58.35-20.89,29.81-83.33,13-45.43-19.45-13.68,2.93-48.28,12.22-42.58,26.75,15.69,40,107.42,19,113.56-19.45C211.55,45.78,128,35.57,79.86,47.6c-28.49,7.11-48.92,19-70.52,34.46-13,9.29-11.58-29-1-34.84" transform="translate(0)"/><path class="cls-3" d="M95.63,115.85,107.9,115c4.44,4.86,11.52,1.88,12.36-1.49l33.77-4,2.11-.25-.7.77-1.71.47-47.11,13ZM67.21,134.37l-47.11,13-1.71.47-.7.77,2.11-.25,33.77-4c.84-3.36,7.92-6.35,12.36-1.48L78.2,142Zm27.87,7.7,19.49,31.45.71,1.15,1.16.46-.38-1.41-6-22.54c-5-.57-9.52-5.29-2.22-8.26l-1.33-8.19Zm-27.87-18.6-47.1-13L18.4,110l-1.31.21,1.75.82L47,124.08c4.16-2,12.33-.75,10.31,4.79L66.92,134Zm39.41,10.89,47.1,13,1.71.47,1.31-.21-1.76-.82-28.14-13.1c-4.16,2-12.33.76-10.32-4.78l-9.61-5.17Zm-11.55-18.6L114.6,84.32l.71-1.15L115,82.3l-1.22,1.17L94.15,102.26c3,2.78,1.13,8.23-7.17,6.89l-7.74,6.41ZM78.75,142.07,59.23,173.51l-.71,1.15.32.87,1.22-1.17,19.62-18.79c-3-2.78-1.13-8.23,7.17-6.89l7.73-6.42Zm0-26.31L59.26,84.31l-.71-1.15-1.16-.46.38,1.41,6,22.54c5,.57,9.51,5.29,2.22,8.26l1.33,8.18Z" transform="translate(0)"/><path class="cls-4" d="M106.61,134.39l47.11,13,1.72.47.69.78-2.1-.25-33.77-4c-.85-3.37-7.93-6.35-12.37-1.48L95.63,142Zm-39.3.34L66,142.92c7.29,3,2.82,7.69-2.22,8.26l-6,22.54-.38,1.4,1.16-.46.71-1.14,19.5-31.45Zm39.2-11.63,1.33-8.19c-7.29-3-2.82-7.69,2.22-8.26l6-22.54.37-1.41-1.15.47-.72,1.14L95.11,115.76Zm.42,11,9.62-5.16c-2-5.54,6.15-6.77,10.31-4.79L155,111l1.75-.82-1.31-.22-1.71.48-47.1,13Zm-40-10.27-9.62,5.16c2,5.54-6.15,6.77-10.31,4.79L18.82,146.82l-1.75.82,1.31.22,1.71-.48,47.1-13Zm12.32,18.5L87,148.7c8.3-1.35,10.14,4.1,7.17,6.88l19.62,18.79,1.22,1.17.33-.87-.72-1.14L95.05,142.08Zm15.39-26.73-7.73-6.42c-8.3,1.35-10.14-4.1-7.18-6.88L60.09,83.46l-1.22-1.17-.33.87.71,1.14,19.53,31.44Zm-16.41.28-12.27-.89c-4.44,4.87-11.52,1.89-12.36-1.48l-33.77-4-2.1-.25.69.77,1.71.48,47.11,13Z" transform="translate(0)"/><path class="cls-5" d="M99.84,117.67c9.31,4.76,11.06,13.66,3.92,19.87S83.29,144.93,74,140.16s-11.06-13.66-3.92-19.88,20.47-7.38,29.77-2.61" transform="translate(0)"/><path class="cls-3" d="M89.87,124.49l4.15-.3c1.51,1.65,3.91.64,4.2-.51l11.44-1.36.71-.08-.23.26-.58.16-16,4.41Zm-9.63,6.27-16,4.41-.58.16-.24.26.72-.08,11.44-1.37c.29-1.14,2.69-2.15,4.19-.5l4.16-.3Zm9.44,2.61L96.29,144l.24.39.39.15-.13-.47-2-7.64c-1.71-.19-3.23-1.79-.76-2.8l-.44-2.77Zm-9.44-6.3-16-4.42-.58-.16-.44.07.6.28,9.54,4.44c1.41-.67,4.17-.26,3.49,1.62l3.26,1.75Zm13.35,3.69,16,4.42.58.16.45-.07L110,135l-9.54-4.44c-1.41.67-4.17.26-3.49-1.62l-3.26-1.75Zm-3.91-6.3L96.3,113.8l.24-.39-.11-.29-.42.39-6.64,6.37c1,.94.38,2.79-2.43,2.33l-2.62,2.18Zm-5.53,8.91L77.53,144l-.24.39.11.29.41-.39L84.46,138c-1-.95-.38-2.79,2.43-2.34l2.62-2.17Zm0-8.91L77.54,113.8l-.24-.39-.39-.16.13.48,2,7.64c1.71.19,3.23,1.79.75,2.8l.45,2.77Z" transform="translate(0)"/><path class="cls-4" d="M93.59,130.77l16,4.41.59.16.23.26-.71-.08-11.45-1.37c-.28-1.14-2.68-2.15-4.19-.5l-4.15-.3Zm-13.32.12-.45,2.77c2.47,1,1,2.61-.75,2.8l-2,7.64-.12.47.39-.15.24-.39,6.61-10.66Zm13.29-3.95.45-2.77c-2.48-1-1-2.61.75-2.8l2-7.64.13-.47-.39.15-.24.39-6.61,10.66Zm.14,3.71L97,128.91c-.69-1.88,2.08-2.3,3.49-1.63l9.54-4.43.59-.28-.44-.07-.58.16-16,4.41Zm-13.57-3.48-3.26,1.75c.69,1.88-2.08,2.3-3.49,1.63L63.84,135l-.6.28.45.07.58-.16,16-4.42Zm4.17,6.27,2.62,2.18c2.82-.46,3.44,1.39,2.44,2.33L96,144.32l.42.4.11-.3-.24-.39-6.62-10.65Zm5.22-9.06-2.62-2.17c-2.81.46-3.44-1.39-2.43-2.33l-6.65-6.37-.41-.4-.11.3.24.39,6.62,10.65Zm-5.56.1-4.15-.3c-1.51,1.65-3.91.64-4.2-.5l-11.44-1.37-.71-.08.23.26.58.16,16,4.41Z" transform="translate(0)"/><polygon class="cls-6" points="190.83 18.59 177.29 53.15 110.95 103.85 110.95 111.84 126.86 111.84 187.35 65.48 236.69 59.21 236.69 45.15 193.79 50.58 206.3 18.59 190.83 18.59"/><path class="cls-3" d="M192.33,20.68l-13,33.21-.22.54-.46.36-65.53,50.07v4.89h13L186,63.84l.47-.36.6-.07,47.45-6V47.53l-40.45,5.12-3.58.46,1.27-3.27,11.4-29.16ZM175.47,51.87l13.33-34,.54-1.36h20.1l-1.11,2.83L197.1,48.05l39.31-5,2.46-.31V61l-1.9.24-48.73,6.19-60,46-.59.46H108.78V102.83l.82-.62Z" transform="translate(0)"/><path class="cls-3" d="M201.38,101.62a22.35,22.35,0,0,1-6.49-1,28.19,28.19,0,0,1-3-1.08l-.76,1.25h-6.68l-.58-19.44h7.4l.57,2a28.09,28.09,0,0,0,1.59,4.27,13.5,13.5,0,0,0,2.21,3.26A9,9,0,0,0,198.39,93a8.24,8.24,0,0,0,3.59.72,8.4,8.4,0,0,0,2.69-.37,3.68,3.68,0,0,0,1.42-.8,3.35,3.35,0,0,0,.78-1.24,6.25,6.25,0,0,0,.31-2.06,5.36,5.36,0,0,0-1-3.09,6,6,0,0,0-3-2.18c-1.28-.49-2.75-1-4.4-1.63s-3.24-1.22-4.51-1.78a16.82,16.82,0,0,1-6.64-4.9,12.92,12.92,0,0,1-2.56-8.23,12.35,12.35,0,0,1,1.26-5.52,14.15,14.15,0,0,1,3.46-4.46,15.74,15.74,0,0,1,5-2.87,18.4,18.4,0,0,1,12.13,0c.78.29,1.52.61,2.24.94l.66-1.06h6.69l.34,19h-7.38l-.56-2c-.42-1.49-.89-2.91-1.4-4.23a13,13,0,0,0-1.77-3.2,6.21,6.21,0,0,0-5.44-2.56,4.28,4.28,0,0,0-3,1.05,2.85,2.85,0,0,0-1.08,2.29,4.64,4.64,0,0,0,.76,2.81,6.59,6.59,0,0,0,2.66,2,41.91,41.91,0,0,0,4,1.65c1.47.51,2.88,1,4.26,1.64a33.44,33.44,0,0,1,3.75,1.85,15.65,15.65,0,0,1,3.5,2.69,12.29,12.29,0,0,1,2.57,4.09,14,14,0,0,1,.81,4.92,13.79,13.79,0,0,1-5.11,11A18.2,18.2,0,0,1,201.38,101.62Z" transform="translate(0)"/><path class="cls-3" d="M178.86,75.12H163.13l-.82-1.24c-2.52-3.81-4.8-7.11-6.78-9.81-1.77-2.41-3.7-4.93-5.74-7.48h-.2V66.85a4.1,4.1,0,0,0,0,.42,8.78,8.78,0,0,0,1.17.2,19.66,19.66,0,0,0,2,.18l2.7.08v7.39H132V67.87l2.56-.21,2-.19a10.13,10.13,0,0,0,1.1-.17c0-.06,0-.21,0-.45V37.28a3.38,3.38,0,0,0,0-.47,11.65,11.65,0,0,0-1.34-.31c-.68-.12-1.25-.2-1.73-.24L132,36.08V28.8h22.36a25.93,25.93,0,0,1,5.69.6,16.85,16.85,0,0,1,5.13,2.07A11.52,11.52,0,0,1,169,35.41a11.29,11.29,0,0,1,1.48,5.84,13.52,13.52,0,0,1-1,5.19,11.36,11.36,0,0,1-2.9,4.12,15.92,15.92,0,0,1-3.88,2.59l-.89.41q1.66,2.14,2.94,3.83c1.39,1.83,3.08,4,5.09,6.65a11.39,11.39,0,0,0,1.88,2,9.66,9.66,0,0,0,1.63,1,4.89,4.89,0,0,0,1.18.32,10.92,10.92,0,0,0,1.55.19l2.69.1ZM149.59,48.69h1.13a7,7,0,0,0,5-1.8,6.37,6.37,0,0,0,1.88-5,5.24,5.24,0,0,0-1.4-4,5.84,5.84,0,0,0-4.27-1.37h-2.3Z" transform="translate(0)"/><path class="cls-7" d="M160.49,51.64a9.7,9.7,0,0,1-6.87,2.55H149.7V36.67h5.08A8.55,8.55,0,0,1,161,38.84a7.89,7.89,0,0,1,2.21,5.88A9,9,0,0,1,160.49,51.64ZM179,73.15a14.23,14.23,0,0,1-1.94-.23,7.11,7.11,0,0,1-1.94-.57A13.45,13.45,0,0,1,173,71a14.08,14.08,0,0,1-2.38-2.55q-3-3.93-5.09-6.66t-5.22-6.75a24.78,24.78,0,0,0,4.16-1.54,12.83,12.83,0,0,0,3.22-2.15,8.43,8.43,0,0,0,2.21-3.14,10.86,10.86,0,0,0,.75-4.18,8.7,8.7,0,0,0-1.1-4.48,8.88,8.88,0,0,0-3-3,13.71,13.71,0,0,0-4.28-1.71,22.54,22.54,0,0,0-5.05-.54H137.66v2.05c.55,0,1.23.13,2,.27a13.35,13.35,0,0,1,1.94.48A2.17,2.17,0,0,1,143,38.28a5.17,5.17,0,0,1,.29,1.79V69.64a3.72,3.72,0,0,1-.4,1.84,2.55,2.55,0,0,1-1.3,1.1,7.33,7.33,0,0,1-1.9.37c-.9.1-1.6.17-2.07.2v2h17.93v-2a22.62,22.62,0,0,1-2.27-.2,9.63,9.63,0,0,1-1.89-.37,2.3,2.3,0,0,1-1.4-1.17,4.44,4.44,0,0,1-.33-1.77v-13H154q3.59,4.44,6.65,8.62t6.85,9.91H179Z" transform="translate(0)"/><path class="cls-7" d="M179.3,75.53h-12l-.1-.15c-2.49-3.78-4.79-7.11-6.84-9.9s-4.22-5.62-6.53-8.48H150V69.64a4,4,0,0,0,.31,1.64,2,2,0,0,0,1.21,1,9.31,9.31,0,0,0,1.8.35,21.64,21.64,0,0,0,2.24.2h.33v2.7H137.32V72.85l.31,0c.47,0,1.16-.1,2.06-.2a6.33,6.33,0,0,0,1.8-.35,2.22,2.22,0,0,0,1.14-1,3.43,3.43,0,0,0,.36-1.68V40.07a4.89,4.89,0,0,0-.27-1.68,1.88,1.88,0,0,0-1.21-1,12.17,12.17,0,0,0-1.89-.46,19.21,19.21,0,0,0-2-.27l-.31,0V34h19.91a23.27,23.27,0,0,1,5.13.54,14.27,14.27,0,0,1,4.38,1.76,9.1,9.1,0,0,1,3.07,3.13A8.87,8.87,0,0,1,171,44a11.39,11.39,0,0,1-.77,4.31,8.89,8.89,0,0,1-2.3,3.26,13.56,13.56,0,0,1-3.3,2.2,25.55,25.55,0,0,1-3.74,1.42c1.94,2.49,3.6,4.63,4.92,6.37s3.08,4.05,5.1,6.66a14.12,14.12,0,0,0,2.31,2.49,12.26,12.26,0,0,0,2,1.3,7.41,7.41,0,0,0,1.85.55,14.68,14.68,0,0,0,1.89.22h.33Zm-11.57-.66h10.89v-1.4c-.48,0-1-.11-1.66-.22a7.7,7.7,0,0,1-2-.61,12.54,12.54,0,0,1-2.16-1.37,13.85,13.85,0,0,1-2.44-2.62c-2-2.61-3.71-4.83-5.1-6.66s-3.14-4.09-5.21-6.74l-.3-.38.48-.14a24.17,24.17,0,0,0,4.09-1.52,12.79,12.79,0,0,0,3.15-2.09,8.23,8.23,0,0,0,2.13-3,10.66,10.66,0,0,0,.72-4.06,8.25,8.25,0,0,0-1.06-4.31,8.41,8.41,0,0,0-2.85-2.9,13.44,13.44,0,0,0-4.16-1.67,22.5,22.5,0,0,0-5-.53H138V36c.5.05,1.09.14,1.75.26a12.67,12.67,0,0,1,2,.48,2.54,2.54,0,0,1,1.62,1.38,5.5,5.5,0,0,1,.32,1.91V69.64a4.14,4.14,0,0,1-.45,2,2.84,2.84,0,0,1-1.47,1.24,7.41,7.41,0,0,1-2,.4l-1.77.18v1.41h17.25v-1.4c-.57,0-1.24-.09-2-.19a10.09,10.09,0,0,1-2-.39,2.61,2.61,0,0,1-1.59-1.35,4.73,4.73,0,0,1-.36-1.9V56.34h4.85l.1.12c2.35,2.92,4.59,5.82,6.66,8.63S165.26,71.15,167.73,74.87ZM153.61,54.52h-4.25V36.33h5.42a8.93,8.93,0,0,1,6.49,2.27,8.25,8.25,0,0,1,2.31,6.12,9.32,9.32,0,0,1-2.85,7.16h0A10.15,10.15,0,0,1,153.61,54.52ZM150,53.86h3.57a9.47,9.47,0,0,0,6.65-2.46h0a8.7,8.7,0,0,0,2.64-6.68,7.6,7.6,0,0,0-2.11-5.65,8.23,8.23,0,0,0-6-2.07H150Z" transform="translate(0)"/><path class="cls-7" d="M207.44,74.3A30.69,30.69,0,0,0,204,72.6c-1.31-.56-2.67-1.08-4.08-1.57s-2.83-1.07-4.29-1.74a9.34,9.34,0,0,1-3.73-2.87A7.19,7.19,0,0,1,190.6,62a5.51,5.51,0,0,1,2-4.3A7.11,7.11,0,0,1,197.45,56,9.43,9.43,0,0,1,202,57a9.8,9.8,0,0,1,3.14,2.66,16,16,0,0,1,2.13,3.86c.55,1.43,1,2.92,1.48,4.47h2.42l-.24-13.57h-2.39l-1.22,2a25.87,25.87,0,0,0-4.23-2,14.86,14.86,0,0,0-5.25-.87,14.41,14.41,0,0,0-4.93.86,12.64,12.64,0,0,0-4.09,2.34A11.22,11.22,0,0,0,186,60.27a9.7,9.7,0,0,0-1,4.34,10.31,10.31,0,0,0,2,6.59,14,14,0,0,0,5.57,4.08c1.22.53,2.66,1.1,4.34,1.7s3.16,1.16,4.45,1.65a8.85,8.85,0,0,1,4.27,3.22,8,8,0,0,1,1.44,4.58,8.62,8.62,0,0,1-.46,2.95,6,6,0,0,1-1.42,2.24,6.22,6.22,0,0,1-2.5,1.47,11.2,11.2,0,0,1-3.6.52,10.86,10.86,0,0,1-4.83-1,12,12,0,0,1-3.63-2.7A16.51,16.51,0,0,1,188,86a30.29,30.29,0,0,1-1.75-4.68h-2.43l.42,14h2.39l1.29-2.1a22.29,22.29,0,0,0,4.9,2.06,19.61,19.61,0,0,0,5.68.85A15.37,15.37,0,0,0,208.8,92.6a11.9,11.9,0,0,0,3.51-12.92,9.48,9.48,0,0,0-2-3.16A13.26,13.26,0,0,0,207.44,74.3Z" transform="translate(0)"/><path class="cls-7" d="M198.49,96.45a20.29,20.29,0,0,1-5.78-.86A23.37,23.37,0,0,1,188,93.66l-1.21,2H183.9v-.33L183.47,81h3l.07.24a31.81,31.81,0,0,0,1.73,4.63,16.11,16.11,0,0,0,2.6,3.83,11.72,11.72,0,0,0,3.53,2.63,10.7,10.7,0,0,0,4.67,1,11.08,11.08,0,0,0,3.49-.5,6,6,0,0,0,2.36-1.39,5.71,5.71,0,0,0,1.34-2.11,8.32,8.32,0,0,0,.45-2.85,7.79,7.79,0,0,0-1.38-4.4,8.61,8.61,0,0,0-4.11-3.09q-2-.73-4.45-1.64c-1.68-.61-3.14-1.19-4.36-1.72a14.31,14.31,0,0,1-5.7-4.18,10.65,10.65,0,0,1-2.06-6.79,10.09,10.09,0,0,1,1-4.49,11.82,11.82,0,0,1,2.89-3.71A13.28,13.28,0,0,1,192.79,54a15,15,0,0,1,5-.87,15.31,15.31,0,0,1,5.37.89,25.82,25.82,0,0,1,4,1.87l1.15-1.83h2.92l.25,14.23h-3l-.07-.24c-.44-1.56-.93-3.06-1.47-4.44a15.22,15.22,0,0,0-2.09-3.78,9.26,9.26,0,0,0-3-2.57,9.11,9.11,0,0,0-4.37-1A6.81,6.81,0,0,0,192.83,58a5.14,5.14,0,0,0-1.89,4,7,7,0,0,0,1.22,4.21A9,9,0,0,0,195.77,69c1.44.66,2.87,1.25,4.26,1.73s2.78,1,4.1,1.58A32.27,32.27,0,0,1,207.62,74a13.24,13.24,0,0,1,3,2.28,9.73,9.73,0,0,1,2,3.26,11.77,11.77,0,0,1,.67,4.11A11.58,11.58,0,0,1,209,92.86,15.86,15.86,0,0,1,198.49,96.45Zm-10.7-3.7.3.18a21.84,21.84,0,0,0,4.82,2,19.27,19.27,0,0,0,5.58.84,15.14,15.14,0,0,0,10.09-3.44,10.91,10.91,0,0,0,4-8.68,11.16,11.16,0,0,0-.62-3.88,9.29,9.29,0,0,0-1.92-3,12.71,12.71,0,0,0-2.81-2.16,29.3,29.3,0,0,0-3.42-1.68c-1.3-.56-2.67-1.08-4-1.57s-2.86-1.08-4.32-1.75a9.7,9.7,0,0,1-3.87-3A7.5,7.5,0,0,1,190.26,62a5.85,5.85,0,0,1,2.12-4.54,7.46,7.46,0,0,1,5.07-1.84,9.83,9.83,0,0,1,4.7,1,10,10,0,0,1,3.25,2.75,16.07,16.07,0,0,1,2.18,4c.51,1.33,1,2.75,1.42,4.25h1.82l-.23-12.91h-1.86l-1.31,2.09-.29-.18a25.56,25.56,0,0,0-4.17-2,14.68,14.68,0,0,0-5.13-.84,14.18,14.18,0,0,0-4.81.83,12.49,12.49,0,0,0-4,2.28,11.17,11.17,0,0,0-2.72,3.5,9.38,9.38,0,0,0-1,4.2A10.09,10.09,0,0,0,187.27,71a13.67,13.67,0,0,0,5.44,4c1.2.53,2.65,1.1,4.32,1.7s3.16,1.16,4.46,1.66a9.16,9.16,0,0,1,4.43,3.34,8.35,8.35,0,0,1,1.49,4.76,9,9,0,0,1-.48,3.06,6.43,6.43,0,0,1-1.5,2.36,6.77,6.77,0,0,1-2.63,1.56,11.8,11.8,0,0,1-3.71.54,11.37,11.37,0,0,1-5-1,12.26,12.26,0,0,1-3.73-2.78,16.62,16.62,0,0,1-2.7-4,31.18,31.18,0,0,1-1.7-4.49h-1.81L184.56,95h1.87Z" transform="translate(0)"/><path class="cls-5" d="M91.29,125.1c3.16,1.62,3.75,4.63,1.33,6.74s-6.94,2.5-10.09.89S78.79,128.1,81.2,126s6.94-2.5,10.09-.89" transform="translate(0)"/></svg>