<svg id="Capa_1" data-name="Capa 1" xmlns="http://www.w3.org/2000/svg" viewBox="0 0 256 150"><defs><style>.cls-1{fill:#79529c;}.cls-2{fill:#5e3289;}.cls-3{fill:#562b7c;}.cls-4{fill:#5c2f87;}.cls-5{fill:#63378c;}.cls-6{fill:#35a8e0;}.cls-7{fill:#fff;}.cls-8{fill:#391b4d;}</style></defs><title>IDS</title><g id="desarrollo-comunitario"><path class="cls-1" d="M127.42,6.7c-.84,0-73-2.13-118.06,67.33l119.23,68.25L247.05,73C239.39,60.3,203.11,7.74,127.42,6.7Z"/><path class="cls-2" d="M98.09,10.34c-4.09,1-8.48,2.22-13.08,3.79l6.83,17.21Z"/><polygon class="cls-3" points="91.83 31.34 69.17 32.18 71.19 46.72 72.38 55.27 72.51 55.31 91.83 31.34"/><polygon class="cls-4" points="63.67 30.95 42.12 48.01 42.64 48.14 72.38 55.27 71.19 46.72 69.17 32.19 63.67 30.95"/><polygon class="cls-3" points="42.12 48.01 42.12 48.01 80.07 96.06 80.08 96.06 96.65 61.1 72.51 55.31 72.38 55.27 42.64 48.13 42.12 48.01"/><path class="cls-3" d="M42.12,48Zm0,0L10.87,71.74,9.36,74,23.8,82.29Z"/><polygon class="cls-4" points="42.11 48.01 42.11 48.01 23.8 82.29 49.36 96.92 80.07 96.06 80.07 96.06 42.12 48.01 42.11 48.01"/><path class="cls-4" d="M51.26,30.85A148.56,148.56,0,0,0,10.87,71.74L42.11,48h0Z"/><polygon class="cls-2" points="80.07 96.06 49.36 96.92 83.53 116.48 80.07 96.06"/><polygon class="cls-3" points="80.07 96.06 80.07 96.06 83.53 116.48 96 123.62 90.76 96.07 80.07 96.06 80.07 96.06"/><polygon class="cls-4" points="136.08 94.55 90.76 96.07 96 123.62 128.59 142.28 142.1 134.37 136.08 94.55"/><polygon class="cls-5" points="181 93.42 136.13 94.55 136.09 94.55 142.1 134.37 142.93 133.88 181.69 105.75 181 93.42"/><polygon class="cls-2" points="156.49 82.61 135.5 88.68 136.08 94.55 136.13 94.54 156.99 91.07 156.49 82.61"/><path class="cls-6" d="M136,51.43a24.74,24.74,0,1,1-23.61-25.8A24.72,24.72,0,0,1,136,51.43"/><path class="cls-4" d="M110.14,75.52l-.73-.66c-8.56-7.67-12.84-15.72-12.74-23.92l-10.25-.49.12-2.5,10.29.48c1.6-13.43,14.28-22.17,14.83-22.55l.86-.58.73.73c7.84,7.75,11.83,15.73,11.9,23.74l10.95.52-.12,2.5-10.93-.51C123.76,66,111.48,74.6,111,75Zm2.36-23.84-.88,19.54c3.44-3,10-9.88,10.92-19.06Zm-13.33-.63c0,6.79,3.3,13.54,9.94,20.1L110,51.56Zm13.45-1.87,10,.47c-.1-6.58-3.17-13.21-9.15-19.76Zm-13.28-.63,10.77.51L111,29.58C107.45,32.58,100.51,39.5,99.34,48.55Z"/><path class="cls-7" d="M164.05,93h0c-17.12-13-29.73-4.5-30.26-4.13a68.75,68.75,0,0,1-9.14,3.57c-13.18,2-26.15,5.3-26.28,5.33-3.25.86-3.46,2.13-3.46,2.14-.26,1.29,0,1.78.22,2.06.84,1,3.07,1.31,3.79,1.31A240.07,240.07,0,0,1,131.37,100c4.81-.14,5.93,1.26,6,2.41,0,3-4.57,3.44-5.48,3.5-11.27-1.07-29.07,2-29.25,2-6.24,1.17-8.79-.28-9.06-.45-5-3.26-4.61-7.74-3.7-9.66.59-2.18,2.64-3.49,4.5-4.26-4.19-2.54-9.7-6-9.77-6-2.58-1.68-4.25-.69-4.33-.65l-.55.34L79.06,87a18.47,18.47,0,0,0-9.43-.28c-.78.36-1,.76-1,.91a.62.62,0,0,0,0,.43c14.65,16.85,43,30.13,43.31,30.26,9.69,4.68,16.2.37,16.27.33l.28-.15c13.34-5.17,17.87-5.92,18.94-6a10.34,10.34,0,0,1,13.11,6c.79,1.2,1.6,2.47,2.4,3.73l19.47-11.39A237.35,237.35,0,0,0,164.05,93Z"/><path class="cls-4" d="M165.86,90.81h0C147,76.57,132.3,86.44,132.32,86.45A71.58,71.58,0,0,1,124,89.67c-9.1,1.4-18.19,3.42-23,4.53l-2.44-1.42c-3.84-2.24-12.43-7.62-12.5-7.66a7.08,7.08,0,0,0-6.75-1,21,21,0,0,0-10.71-.07,4.62,4.62,0,0,0-2.82,2.8,3.43,3.43,0,0,0,.51,2.89c15.18,17.49,43.2,30.61,44.37,31.15,10.42,5,17.77.94,18.94.21,14.22-5.51,18-5.8,18.1-5.8l.4-.08c6.78-2.25,9.47,3.61,9.87,4.52.82,1.25,1.64,2.54,2.47,3.84l2.44-1.42c-.8-1.26-1.61-2.53-2.4-3.73a10.34,10.34,0,0,0-13.11-6c-1.07.11-5.6.86-18.94,6l-.28.15c-.07,0-6.58,4.35-16.27-.33-.29-.13-28.66-13.41-43.31-30.26a.62.62,0,0,1,0-.43c0-.15.27-.55,1-.91a18.47,18.47,0,0,1,9.43.28l.65.18.55-.34c.08,0,1.75-1,4.33.65.07,0,5.58,3.5,9.77,6-1.86.77-3.91,2.08-4.5,4.26-.91,1.92-1.31,6.4,3.7,9.66.27.17,2.82,1.62,9.06.45.18,0,18-3.08,29.25-2,.91-.06,5.43-.49,5.48-3.5,0-1.15-1.17-2.55-6-2.41a240.07,240.07,0,0,0-32.45,3.28c-.72,0-3-.26-3.79-1.31-.22-.28-.48-.77-.22-2.06,0,0,.21-1.28,3.46-2.14.13,0,13.1-3.29,26.28-5.33a68.75,68.75,0,0,0,9.14-3.57c.53-.37,13.14-8.88,30.26,4.13h0a237.35,237.35,0,0,1,18.36,17.78l2.52-1.47A243.23,243.23,0,0,0,165.86,90.81Zm-32.79,12.07a8.69,8.69,0,0,1-1.15.2c-.78-.08-1.57-.13-2.4-.17l1.91-.07C132.09,102.83,132.63,102.85,133.07,102.88Z"/><path class="cls-8" d="M127.6,0C126.83,0,48.81-2.44,1.82,73.43L0,76.37,128.62,150,256,75.49l-1.42-2.81C254.21,72,217.32,1.25,127.6,0Zm1,142.26L9.36,74C54.39,4.57,126.58,6.67,127.42,6.7c75.69,1,112,53.6,119.63,66.28Z"/></g></svg>