<svg id="Capa_1" data-name="Capa 1" xmlns="http://www.w3.org/2000/svg" viewBox="0 0 256 150"><defs><style>.cls-1{fill:#79529c;}.cls-2{fill:#63378c;}.cls-3{fill:#5e3289;}.cls-4{fill:#562b7c;}.cls-5{fill:#5c2f87;}.cls-6{fill:#fff;}.cls-7{fill:#aec90b;}.cls-8{fill:#391b4d;}</style></defs><title>IDS</title><g id="medio-ambiente"><path class="cls-1" d="M125.63,6.8C49.9,11,15.92,64.92,8.83,77.9l121.08,64.4L246.66,70.21C200.13,1.3,126.38,6.74,125.63,6.8Z"/><path class="cls-2" d="M9.52,76.43c-.26.46-.5.89-.71,1.28L41.93,95.32l-.49-7.85Z"/><path class="cls-3" d="M41.29,66.85l-27.08,2c-2,3-3.58,5.63-4.69,7.59l31.92,11Z"/><polygon class="cls-3" points="63.01 95.2 59.16 104.48 76.54 113.73 79.17 100.84 63.01 95.2"/><path class="cls-4" d="M239.46,60.19l-10.89,14.5,3.05,4.61,15-9.28q-3.51-5.19-7.19-9.83"/><polygon class="cls-5" points="228.57 74.69 223.78 84.15 231.62 79.31 228.57 74.69"/><path class="cls-2" d="M234.06,53.76l-16.12,6.15,10.63,14.78,10.88-14.5c-1.77-2.24-3.56-4.38-5.39-6.43"/><path class="cls-3" d="M217.94,59.91,200.2,66.66,146.88,87.4l-12.73,22.53L165,120.47l58.82-36.32,4.79-9.46ZM200.2,66.66Z"/><path class="cls-4" d="M231.84,51.3l-54.07,9.81,22.43,5.55h0l17.74-6.76,16.12-6.14c-.74-.84-1.48-1.65-2.22-2.46"/><polygon class="cls-2" points="164.19 57.84 164.19 57.84 161.35 62.7 146.88 87.4 200.21 66.66 200.2 66.66 164.19 57.84"/><polygon class="cls-4" points="159.77 57.02 152.48 65.37 152.87 77.17 161.35 62.7 164.19 57.85 159.77 57.02"/><polygon class="cls-3" points="152.14 54.8 132.78 67.87 140.68 78.4 159.77 57.02 152.14 54.8"/><polygon class="cls-3" points="140.44 79.36 126 95.78 146.88 87.4 140.44 79.36"/><polygon class="cls-4" points="146.88 87.4 126 95.78 127.19 107 134.16 109.93 146.88 87.4"/><polygon class="cls-4" points="122.78 73.08 117.58 99 126 95.78 122.78 73.08"/><polygon class="cls-4" points="117.04 103.63 114 115.82 121.66 118.59 127.35 111.81 127.19 107.01 117.04 103.63"/><polygon class="cls-2" points="121.66 118.59 121.66 118.59 109.92 131.48 119.83 136.76 129.57 120.94 121.66 118.59"/><polygon class="cls-5" points="129.57 120.94 129.57 120.94 132.27 140.66 152.39 128.24 129.57 120.94"/><polygon class="cls-3" points="129.57 120.94 129.57 120.94 119.83 136.75 129.91 142.12 132.27 140.66 129.57 120.94"/><polygon class="cls-3" points="106.1 36.85 74.56 51.4 86.25 65.38 113.86 63.61 106.1 36.85"/><polygon class="cls-4" points="113.87 63.61 86.25 65.38 81.51 91.08 91.48 98.1 113.87 63.61"/><path class="cls-6" d="M134,89.09a69.35,69.35,0,0,1-9,3.9c-13.07,2.53-25.91,6.27-26,6.31-3.22,1-3.37,2.26-3.37,2.27-.22,1.3.06,1.78.29,2.05.88,1,3.16,1.19,3.83,1.17a240,240,0,0,1,32.27-4.5c4.86-.26,6,1,6.06,2.19.07,2.93-4.07,3.57-5.34,3.7-11.27-.64-28.94,3.07-29.12,3.1-6.19,1.41-8.78,0-9.06-.11-5.13-3.07-4.9-7.56-4.06-9.52.5-2.19,2.5-3.58,4.33-4.42-4.27-2.38-9.9-5.62-10-5.66-2.65-1.59-4.28-.54-4.35-.49l-.54.36-.65-.16a18.48,18.48,0,0,0-9.43.07c-.76.4-1,.8-1,1a.65.65,0,0,0,.06.43C84.18,107,113,119.22,113.29,119.34c9.77,4.28,16-.09,16.25-.28l.28-.16c13.12-5.66,17.61-6.57,18.67-6.72a11.77,11.77,0,0,1,4-.76c5,0,8.17,3.74,9.3,6.21.79,1.12,1.6,2.3,2.41,3.47l19.21-11.86A237.06,237.06,0,0,0,164.38,92.1C146.8,79.73,134.51,88.7,134,89.09Z"/><path class="cls-5" d="M166,89.79c-19.36-13.64-33.62-3.07-33.61-3.07a71,71,0,0,1-8.17,3.53c-9,1.74-18,4.09-22.73,5.38L99,94.3c-3.91-2.08-12.69-7.14-12.76-7.18-3.18-1.92-5.66-1.24-6.78-.72a20.84,20.84,0,0,0-10.69.32,4.66,4.66,0,0,0-2.72,2.92,3.45,3.45,0,0,0,.62,2.86c15.81,16.91,44.28,29,45.46,29.45,10.58,4.64,17.77.28,18.91-.49,14-6,17.72-6.46,17.85-6.47l.4-.09c6.68-2.51,9.59,3.24,10,4.14.81,1.15,1.64,2.34,2.47,3.55l2.4-1.49c-.81-1.17-1.62-2.35-2.41-3.47-1.13-2.47-4.29-6.21-9.3-6.21a11.77,11.77,0,0,0-4,.76c-1.06.15-5.55,1.06-18.67,6.72l-.28.16c-.26.19-6.48,4.56-16.25.28C113,119.22,84.18,107,68.92,90.73a.65.65,0,0,1-.06-.43c0-.15.25-.55,1-1a18.48,18.48,0,0,1,9.43-.07l.65.16.54-.36c.07,0,1.7-1.1,4.35.49.07,0,5.7,3.28,10,5.66-1.83.84-3.83,2.23-4.33,4.42-.84,2-1.07,6.45,4.06,9.52.28.16,2.87,1.52,9.06.11.18,0,17.85-3.74,29.12-3.1,1.27-.13,5.41-.77,5.34-3.7-.1-1.15-1.2-2.45-6.06-2.19a240,240,0,0,0-32.27,4.5c-.67,0-3-.15-3.83-1.17-.23-.27-.51-.75-.29-2.05,0,0,.15-1.29,3.37-2.27.12,0,13-3.78,26-6.31a69.35,69.35,0,0,0,9-3.9c.52-.39,12.81-9.36,30.39,3a237.06,237.06,0,0,1,19.06,17.14l2.49-1.53a239.33,239.33,0,0,0-19.84-17.88Zm-32.23,13.32a9.1,9.1,0,0,1-1.15.24c-.78,0-1.58-.07-2.41-.08,1.21-.1,1.88-.14,1.91-.14A15.66,15.66,0,0,1,133.81,103.11Z"/><path class="cls-7" d="M88.38,68.14s-6.12-.56-3.69,3.94c0,0,13,24.74,28.59,11.27s10.31-11.77,10.31-11.77,22.34,6.9,32.95-18.61c0,0-17.57-.95-27.88,10.82l7.26-11.68S138.11,49,132,48.43c0,0,14.67-18-3.53-38,0,0-12.56,12.6-.11,43.46,0,0-5,11.61-13.12,18.73l-.13-3.81s14.8-14.2-8.8-36.31c0,0-10,22.43,3.49,37.25l1.73,6s-7.92,14.74-23.14-7.64"/><path class="cls-8" d="M125.16.14C35.57,5,1.64,77.18,1.3,77.91L0,80.77,130.16,150,256,72.29l-1.85-2.86C205.52-5.95,125.86.08,125.16.14Zm4.75,142.16L8.83,77.9C15.92,64.92,49.9,11,125.63,6.8c.75-.06,74.5-5.5,121,63.41Z"/></g></svg>