<svg id="Capa_1" data-name="Capa 1" xmlns="http://www.w3.org/2000/svg" viewBox="0 0 256 150"><defs><style>.cls-1{fill:#79529c;}.cls-2{fill:#562b7c;}.cls-3{fill:#5c2f87;}.cls-4{fill:#63378c;}.cls-5{fill:#5e3289;}.cls-6{fill:#deedfa;}.cls-7{fill:#fff;}.cls-8{fill:#391b4d;}</style></defs><title>IDS</title><g id="paz"><path class="cls-1" d="M128.26,6.7C52.5,8.2,16.51,61,8.93,73.69l118.88,68.59,118.81-69C201.17,4.12,129,6.66,128.26,6.7Z"/><path class="cls-2" d="M193.7,56.14l-.21.1.13,0L179.36,63l-3.2,15.83,31.27,17.11,34.78-20.19,3.84-3.41c-.87-1.31-1.74-2.57-2.62-3.82Z"/><path class="cls-3" d="M176.16,78.79l-3.07,14.62,1.66,6.11c2.69,2.57,6,5.83,9.68,9.73l23-13.34Z"/><polygon class="cls-4" points="180.65 53.18 179.31 63 179.37 62.97 193.62 56.27 193.49 56.24 180.65 53.18"/><polygon class="cls-5" points="180.65 53.18 164.75 62.48 166.29 67.58 179.31 63 180.65 53.18"/><polygon class="cls-3" points="139.78 59.44 124.81 68.04 140.8 81.63 166.29 67.58 164.75 62.48 154.86 68.01 139.78 59.44"/><path class="cls-2" d="M124.81,68,92.25,85.73l3.18,6c1.59,1,3.1,1.88,4.2,2.53l2.45,1.42c2.19-.51,5.29-1.21,8.91-2l27-14.52Z"/><polygon class="cls-4" points="123.61 50.02 108.89 53.62 124.81 68.03 139.78 59.44 123.61 50.02"/><path class="cls-5" d="M61.71,23.49c-.86.46-1.7.93-2.53,1.4L92.25,85.73,124.81,68,108.88,53.62,80.79,28.18Z"/><polygon class="cls-4" points="135.69 122.92 133.31 124.55 138.86 135.7 148.31 130.22 135.69 122.92"/><polygon class="cls-5" points="133.31 124.56 121.91 138.72 127.81 142.12 138.86 135.7 133.31 124.56"/><path class="cls-4" d="M246.05,72.31l-3.84,3.41,4.41-2.56-.57-.85"/><path class="cls-6" d="M91.51,69.59s17,5.73,17,12c0,0,5.16-17,17.07-19.18s18.19-12.95,14.82-22,4-4.51,4-4.51-5.6-16.44-23.25,3.87c0,0-3.93-8.51-15.84-6.86s-14.13-8-14.13-8S86,39,101.8,48.69c0,0-9.08,3.35-17-9.69,0,0-.66,23.21,23.15,23.86a47.9,47.9,0,0,1-16.47,6.73"/><path class="cls-3" d="M166.88,92.36h0C155.85,83,140.24,83,133.29,88a64.74,64.74,0,0,1-8.38,3.21c-9.13,1.4-18.12,3.38-22.84,4.48-3.56-2-11.62-7-14.92-9.09h0c-1.78-1.1-4.47-2-6.76-1-2-.92-9.26-.83-10.58-.14l-.1,0c-1.78.56-3.93,3.25-2.44,5.55l0,.07c9.17,11.68,35.23,27.32,44.4,31.26h0c5.32,3.35,16,2.72,18.91.23,9.38-3.48,12.15-4.6,18-5.78H149a7.68,7.68,0,0,1,9.94,4.22l0,.12.08.11c.44.68.89,1.4,1.33,2.09l2.47-1.43c-.45-.72-.91-1.43-1.37-2.13-1.65-4-7.17-8-13-5.8-.7,0-5.67.84-19.14,6.06l-.14.09h0c-2.1,2-11.39,2.63-16.25-.33h0c-11.19-5.14-33.45-18.57-43.28-30.35l-.06-.24.13-.34a2.76,2.76,0,0,1,1.07-.75,19.33,19.33,0,0,1,10,.53l.56-.37a4.6,4.6,0,0,1,4.29.65h0s5.57,3.5,9.8,6.07a7.66,7.66,0,0,0-4.52,4.24h0c-1.29,2.72-.24,7.28,3.67,9.66h0c1,.82,5.84,1.21,9.06.46h0c6.5-1,19.47-2.85,29.11-2h.12c1.18-.33,5,0,5.49-3.5,0-4.49-21.25-1.74-38.54.83a8,8,0,0,1-2.42-.48,3.09,3.09,0,0,1-1.2-.75,1.67,1.67,0,0,1-.41-1.14,5.38,5.38,0,0,1,.14-.94v-.09c6.68-4.71,17-4.58,29.63-7.38l.1,0a73.59,73.59,0,0,0,9.07-3.5l.08,0c6.36-4.66,20.58-4,30.26,4.17A227.29,227.29,0,0,1,182,110.83l2.52-1.46A230.21,230.21,0,0,0,166.88,92.36Zm-34.45,12c.59,0,.39,0,1.57,0l-.47.09a5.85,5.85,0,0,1-.77.1c-.77-.07-1.56-.12-2.36-.16Z"/><path class="cls-7" d="M165.34,94.77l-.27-.21c-7.39-5.62-13.87-7.19-18.94-7.19a21.23,21.23,0,0,0-11.32,3l-.08,0-.09,0a51.25,51.25,0,0,1-5.74,2.36c-1.82.65-3.23,1.08-3.24,1.09l-.1,0h-.1c-9.83,1.51-19.6,3.71-23.86,4.72l-2.21.54a6.64,6.64,0,0,0-3,1.47,1.26,1.26,0,0,0-.42.64v.09l-.05.21a3.53,3.53,0,0,0-.09.73,1.67,1.67,0,0,0,.41,1.14,3.09,3.09,0,0,0,1.2.75,8,8,0,0,0,2.42.48,240.32,240.32,0,0,1,32.56-3.24h.48a11.78,11.78,0,0,1,3.48.4A3,3,0,0,1,138,103a1.72,1.72,0,0,1,.32.89v.1a2.48,2.48,0,0,1-.43,1.34,3.12,3.12,0,0,1-.85.85,6,6,0,0,1-1.86.81,12.47,12.47,0,0,1-2.35.4h-.23c-1.68-.17-3.53-.24-5.45-.24a158.19,158.19,0,0,0-21.41,1.87c-1.33.2-2.09.33-2.14.34h0a25.06,25.06,0,0,1-4.44.45,9.15,9.15,0,0,1-4.62-.91h0a9.76,9.76,0,0,1-3.36-3.5,7.09,7.09,0,0,1-.86-3.4,6.85,6.85,0,0,1,.55-2.76h0a6,6,0,0,1,1.8-2.64,10.79,10.79,0,0,1,2.65-1.58l.07,0C91.18,92.47,85.62,89,85.61,89h0a5.2,5.2,0,0,0-2.86-1,2.91,2.91,0,0,0-1.43.33l-.56.37-.66-.21a17.37,17.37,0,0,0-5.19-.77,17.59,17.59,0,0,0-4.11.45,2.76,2.76,0,0,0-1.07.75l-.13.34.06.24c6.46,7.42,15.54,14.18,23.71,19.4a194,194,0,0,0,18.33,10.35c.81.39,1.24.59,1.24.6h0a20.38,20.38,0,0,0,8.89,2.18,14.14,14.14,0,0,0,7.36-1.85h0l.14-.09.15-.06c13.78-5.31,18.1-5.92,19-6a12,12,0,0,1,3.62-.61,9.78,9.78,0,0,1,7.29,3.3,11.85,11.85,0,0,1,2.08,3.11c.46.7.92,1.41,1.37,2.13L182,110.83C173,101.4,166.69,95.92,165.34,94.77Z"/><path class="cls-8" d="M128,0C38.23,1.8,1.76,72.73,1.41,73.44L0,76.26,127.82,150,256,75.61l-1.84-2.93C206.71-2.91,128.72,0,128,0Zm-.23,142.26L8.93,73.69C16.51,61,52.5,8.2,128.26,6.7c.73,0,72.91-2.58,118.36,66.62Z"/></g></svg>