<svg id="Capa_1" data-name="Capa 1" xmlns="http://www.w3.org/2000/svg" viewBox="0 0 256 256"><defs><style>.cls-1{fill:#1f5b9e;}.cls-2{fill:#fff;}.cls-3{fill:#244181;}.cls-4{fill:#1a642e;}.cls-5{fill:#e21523;}.cls-6{fill:#c4c4c9;}.cls-7{fill:#ac1843;}.cls-8{fill:#00417f;}</style></defs><title>insignia-final</title><path class="cls-1" d="M32,0H224a32.11,32.11,0,0,1,32,32V224a32.12,32.12,0,0,1-32,32H32A32.1,32.1,0,0,1,0,224V32A32.09,32.09,0,0,1,32,0"/><path class="cls-2" d="M250.9,174.3h0q-5.25,4.41-11.27,8.76c-27.31-17.82-47.54-36.38-63-55.27C196.37,120,215.42,108,233.78,91.5c6,3.21,11.79,6.52,17.25,9.94l.09,0,1.45-2.87-.09-.05q-7.68-4.81-16.17-9.38,8.3-7.69,16.41-16.67l-2.08-2.33q-8.53,9.45-17.27,17.44c-2.14-1.12-4.32-2.24-6.53-3.34q-13.74-6.81-29.09-12.88a486,486,0,0,0-62.53-19.68c-4.76-13.51-8.63-26.91-12.43-40.07L120.86,5,118,6,120,12.66c3.62,12.56,7.31,25.35,11.76,38.23A647.07,647.07,0,0,0,4.65,34.25l-.08,3.28c46.29,1.59,89.64,7.63,128.46,17,8.51,23.87,19.84,48.05,38.41,71.75a162.57,162.57,0,0,1-35.3,8.6C95.2,140.16,51.49,130.45,5,110l-1.09,3c46.91,20.7,91.1,30.5,132.55,25.18A165.53,165.53,0,0,0,173.57,129c15.47,19.15,35.78,38,63.25,56.07l-.39.28q-7.87,5.47-17.23,11-4.56,2.67-9.48,5.34a197.54,197.54,0,0,1-20.57,2.27c-58.43,3.38-127-17.48-183.72-63L3.7,143.63c57.31,45.94,126.55,67,185.6,63.59q6-.34,11.8-1C171,221.48,132,236.3,82.53,250.12l.72,3.2c54.3-15.17,96.07-31.56,127.37-48.47q6-1,11.87-2.4a157.1,157.1,0,0,0,27.37-9.18l1,.58.62-1.3.92-.41.08,0h0l-.35-.92.11-.22-.25-.15-.66-1.74h0l-.08,0-1.16.52q-3.87-2.34-7.57-4.71,5.46-4,10.2-8l0,0h0l-1.29-1.84ZM136.54,55.43a480.7,480.7,0,0,1,60.23,19.08q15.27,6,28.87,12.79c1.75.87,3.46,1.75,5.17,2.64-18.1,16.09-36.87,27.66-56.3,35.22C156.27,102.13,145,78.65,136.54,55.43ZM246.46,191.21a154.72,154.72,0,0,1-24.58,8l-2.08.47.78-.46q9.36-5.49,17.42-11.11l1.68-1.2C241.9,188.36,244.15,189.79,246.46,191.21ZM175.59,5.84h0l.85-3.15h0q6,2,12,4.3t11.69,4.79c19.75,8.66,37.88,19.5,52.6,31.9l-1.79,2.62C236.41,34.08,218.52,23.4,199,14.84q-5.82-2.55-11.57-4.76C183.6,8.6,179.64,7.19,175.59,5.84Z"/><g id="MundoDerecha"><path class="cls-3" d="M4.27,213.23V42.77h0c45.14,2.2,81,40.06,81,85.23a85.65,85.65,0,0,1-81,85.23"/><path class="cls-4" d="M4.27,46.73v-4C33,44.13,58.5,59.47,73.45,84.57L74,89.35l1.48,4.13L78,93.32a81.57,81.57,0,0,1,4,10.92l-2.14.16-.33,3.8-1,1.66-1.33.17v1.15h1.66l.33.84,2.64.16v4.47l-.17,4.3-.66,4-.82,3.14-.66,2.31-1.16.33L68.09,121l.16-2-2.81,1.16,5.79,5.8,4,3.79L77.85,133l2.64-.33,1.15-1.82L83,132.69l-.17,2.49-1,4-.66,2.31.83,2.48-2,2.65-2,4-2,2.65v4.3l-.66,4.13.33,3.15-.13,2.92a83.23,83.23,0,0,1-22.83,27.36l-.36-4.47-2.48-3.81,1.65-10.59-3.31-4.13-.49-3.48,1-3.64-.5-2.31L46.75,159l-6.62,2.64-4.31,2.65-5.95,1.65-4,.5-3.64-1.16-2.81-4.46L16,157.18l-1.32-3.65,1-4.13v-2.64L15,142.28l1.66-2.47,1.65-2.65,2-2.15,2.32-2.32,1.66-2.15-1-1.32.33-2.32,2.48-2.48,2.81-2,2.65,1.16,1.82-.82,1.16-3.15L41,118.14h3.48l1.82,4.29,6-.32.33-1.49h4l1.15-1H61l1.66-1v-1.82h2l-.5-7.61L60,109v2.32l-1.49-.17-3.14-2.64-.33.83v2l.82,1.49,1.49,1.66.17,1.81-1.32.5-2.49-1.65L53,113.83l.66-.82L52,112.84l-.33-1.16-1-.5-2.49-.82-.49.5.82.82,1.82,2-.82.49-2.65.83,1.16-1.82-2.65-1.49-2-2-2.15-2-3.3.17v2.81l-4,.66-.33,1.16.66,1.16.33,2.64L33,119.45l-2,1.17-3,.49-2.31.17-2-1-.82-3.14.33-5.79,6.12-.17v-3.79H27.89l-1.33-1.17-2-.16v-1.49l2-.83.5-1,1.65.83.5.66H30l.33-1.49v-1.32h1.32l.66,1.82H33V98.78l-1-2.32V94.81l-.82-1.16L31.53,92l1.32-.67,1.32,2,.17,1.82L36.15,95V93.65H38l.33-2,1.82.16.16-3.31-2.81-1V86l2,.5-1-1.82h-1V83.56l.66-1.66-1.49.17-.16,3-1.65-1.49-1.16-1.33L32.52,78.1H31.2l1.15,5.79,4,3.14v5.13L35,92l-1.16-1.33-1.49-1.16-1-1V86.7l-1-.16v1.32l-1,.16-.17,1.82H27.89l-1-1.48L25.24,86.7V85.54l1.65-.49.5-7.12-.83-.16V71.31h2L28.71,70l4.8.16-.33,3.47,1.33.5.16,1.32h1.48v-3l.17-4.14-1.15-1-1.82-1.82-1-.5-2.48.17-1.65-1.82-2.15-.33-1.49-1.49.33-2.15,1.76-1-.6-2.31H24.58l-2.15-.5-.66-1.16L20,54,19.4,52.4,18.79,51l-2.15-.66-1.16-1.16-4.3-1L7,48.49,5.77,48l-.86-1.25m-.64,1.92v29l2.3-.26L8,76.85,8.09,75l-1.62-.19V72.09L7.62,72v1.81L9,74l1.25-3.82c3.51-7.09,6.62-3.36,5.61-14.57V53.42l-2.67-1L11,52.47,10.47,51l-1.8-1.33-1.44-.2-1.6.16-.18-1M9,85.62,9,85.52l1.81.1.1-1.33,1.32-.87L13,81.8,11.33,81l-2-1.24-1.52,2H6.19v1.14l1.52.29V84H9m36.88,31.71-.09,1.21,3.13.2.09-1.41Zm-4.46-2.43.11,1.31,1-.1.1-1.21Zm-1.86-2.79.1,1.31,1-.1.11-1.21Zm-16.57-7.95,1.62.41.19-.94,1.89.09.95-.64.22-1,1.63-.18.19-1.64L28.11,97l-2.23-2L24,93.52l-.41-1.82.3-1.21-1,.1-.3.81h-.71l-.1-.91H19.91l.2,1.82,1.82,1.41L23,95.35l.72.91-.92,1v1.12h.71v.91h1l.31.81-1.22.1-.1,1.72m-4.86-5.77,1.11.4.11,1.83-1.32.2L20,99.91l1.42-.51L22,97.27l-.31-1.83h-.91l-.9-.5Z"/></g><path class="cls-5" d="M96.33,128.88l9.32,21.38L52.57,203.38l-1.93,1.94-2,.29,29-45.21C85,162.09,95,155,87.61,144.82Zm-.74-51.11L53,50.52l-2.66-1.7.29,2,1.94,1.93,53.12,53.09,21.37-9.32-15.94-8.73C101,95.18,93.89,85.11,95.59,77.77Zm72.63,33.55c-7.43-10.17,2.65-17.27,10-15.58l29-45.21-2,.29-1.93,1.94-53.07,53.12,9.31,21.38Zm35,92.1L150.1,150.33l-21.38,9.32,15.94,8.72c10.16-7.42,17.27,2.66,15.58,10l42.55,27.25,2.65,1.69-.29-2Z"/><path class="cls-2" d="M77.67,95.72,48.72,50.51l2,.29,1.93,1.93,53.08,53.13-9.32,21.38-8.72-15.95C95.08,101.13,85,94,77.67,95.72Zm9.91,49,17.45,5.1L96.5,128.07l-75.09,0H18.67l-1.59,1.18,3.07.67,49.36,10.83C73.5,134.34,85.65,132.24,87.58,144.68Zm148.1-18.44-49.36-10.83c-4,6.39-16.14,8.49-18.08-4l-17.44-5.1,8.53,21.7,75.09,0h2.74l1.59-1.18ZM52.59,203.37l-1.94,1.94-.29,2,2.65-1.7,42.55-27.25c-1.69-7.34,5.42-17.41,15.58-10l15.94-8.72-21.38-9.32ZM127.94,21.55V18.82l-1.18-1.6-11.5,52.43c6.38,4,8.48,16.15-4,18.08l-5.11,17.45,21.71-8.53Zm0,213v2.73l1.18,1.6,11.5-52.43c-6.39-4-8.48-16.15,4-18.09l5.1-17.44-21.7,8.52Zm50.27-74.17c-7.33,1.69-17.4-5.41-10-15.58l-8.72-15.94-9.32,21.38,53.08,53.13,1.93,1.93,2,.29-1.7-2.65Zm27-109.59.3-2-2.65,1.69L160.26,77.81c1.7,7.34-5.41,17.42-15.57,10l-15.94,8.72,21.37,9.32,53.12-53.09Z"/><path class="cls-5" d="M96.49,128l-75.09,0H18.66l-1.59-1.19,3.07-.67L69.5,115.36c4,6.39,16.14,8.49,18.07-3.94L105,106.31Zm140.68.07h-2.74l-75.09,0-8.52,21.71,17.44-5.11c1.93-12.43,14.08-10.33,18.07-3.94L235.69,130l3.08-.68Zm-92.64-40.5c-12.44-1.94-10.34-14.09-4-18.08L129.08,17.07l-1.19,1.6V21.4l0,75.1L149.63,105ZM106.16,151l5.1,17.45c12.43,1.93,10.33,14.08,3.95,18.08l11.5,52.43,1.18-1.59V234.6l0-75.1Z"/><path class="cls-6" d="M29,0H227V0a29,29,0,0,1,29,29h0V227h0a28.9,28.9,0,0,1-8.52,20.49h0A28.9,28.9,0,0,1,227,256v0H29v0a28.9,28.9,0,0,1-20.48-8.5v0A28.89,28.89,0,0,1,0,227H0V29H0A29,29,0,0,1,29,0V0ZM227,8.53H29v0A20.61,20.61,0,0,0,8.52,29h0V227h0a20.45,20.45,0,0,0,6,14.46v0a20.38,20.38,0,0,0,14.45,6v0H227v0a20.47,20.47,0,0,0,14.46-6h0A20.42,20.42,0,0,0,247.47,227h0V29h0A20.62,20.62,0,0,0,227,8.51v0"/><path class="cls-7" d="M217.3,71.46a10.67,10.67,0,1,1-10.67,10.67A10.67,10.67,0,0,1,217.3,71.46"/><circle id="fondo" class="cls-8" cx="128" cy="128" r="32"/><path id="rizo" class="cls-2" d="M129.55,100.8a1.52,1.52,0,0,0,.17-.48,2,2,0,0,1,.21-.5,1.35,1.35,0,0,1,.32-.26v0c.84.08,1.68.19,2.5.35a1.48,1.48,0,0,0-.35.25,2.37,2.37,0,0,0-.25.47,1.35,1.35,0,0,1-.22.47,1.46,1.46,0,0,1-.38.27h0c-.79-.12-1.6-.2-2.4-.25A1.36,1.36,0,0,0,129.55,100.8Zm3.23-.91Zm-.53,1.58a22.93,22.93,0,0,1,2.35.55l0,0a1.47,1.47,0,0,0,.41-.22,1.41,1.41,0,0,0,.27-.43,2.29,2.29,0,0,1,.32-.43,1.54,1.54,0,0,1,.38-.2h0a22.1,22.1,0,0,0-2.45-.67h0a1.43,1.43,0,0,0-.37.23,2.59,2.59,0,0,0-.26.46,1.53,1.53,0,0,1-.23.46A2,2,0,0,1,132.25,101.47Zm-6-2Zm-.8,1.72a1.48,1.48,0,0,0,.3-.36,1.43,1.43,0,0,0,.09-.5,2.31,2.31,0,0,1,.12-.52,1.58,1.58,0,0,1,.29-.34c-.84.06-1.68.17-2.52.31v0a1.48,1.48,0,0,0-.25.35,2.33,2.33,0,0,0-.07.53,1.41,1.41,0,0,1,0,.5,1.62,1.62,0,0,1-.25.39,24.08,24.08,0,0,1,2.38-.39ZM105.81,113a1.39,1.39,0,0,0,.12.41,2,2,0,0,0,.38.39,1.52,1.52,0,0,1,.38.34,1.7,1.7,0,0,1,.15.45,21.78,21.78,0,0,1,1.14-2.13h0a1.47,1.47,0,0,0-.11-.46,1.4,1.4,0,0,0-.35-.38,2.25,2.25,0,0,1-.34-.41,2.07,2.07,0,0,1-.08-.42c-.46.71-.89,1.44-1.28,2.19Zm22.73-11.86h0a1.72,1.72,0,0,0,.34-.32,1.31,1.31,0,0,0,.15-.5,2.72,2.72,0,0,1,.19-.5,1.22,1.22,0,0,1,.33-.27h0c-.85,0-1.69-.06-2.53,0h0a1.47,1.47,0,0,0-.29.32,1.84,1.84,0,0,0-.14.51,1.45,1.45,0,0,1-.11.5,1.55,1.55,0,0,1-.31.36A23.76,23.76,0,0,1,128.54,101.09Zm7.25,45.54a17.82,17.82,0,0,0-2.6,1.08,3.45,3.45,0,0,0-.33.16,1.72,1.72,0,0,0-.11.5c0,.15,0,.39,0,.55a1.83,1.83,0,0,1-.31.81,9,9,0,0,0,2.59-1l.41-.22a2.81,2.81,0,0,0,.1-.31,2.34,2.34,0,0,0,.07-.45c0-.15-.12-.25-.07-.46a3.17,3.17,0,0,1,.28-.62Zm-7.29,3a4.34,4.34,0,0,0,1.35-.89c.11-.11.44-.36.55-.47s-1.07-.91-.87-1.55c-1.2,1-1.68,1.58-2.68,1.58-.25,0,0,0,0,0a1.8,1.8,0,0,0-.25.5,2.26,2.26,0,0,0-.1.45,3.25,3.25,0,0,0,0,.54A4.1,4.1,0,0,0,128.5,149.65Zm-1.63-1.82a2,2,0,0,0,.91-.38l.43-.34a3.06,3.06,0,0,0-2.63-1.16c-.18,0-.45,0-.58.15h0s-.89,1.1-.53,1.48a3,3,0,0,1,1,0,3.2,3.2,0,0,1,1.11.19Zm5.18,4.42s1.22-1.14,2-.78l-.17-.16a4.21,4.21,0,0,0-2.39-.85c-.75,0-2.07.2-2.37.69a4,4,0,0,1,1.85.94C131,152.16,131.33,152.07,132.05,152.25Zm-1.66-3.31-.43.36c-.1.08-.55.35-.61.4s.81.39,2.3.17h0a1.83,1.83,0,0,0,.25-.35,2.75,2.75,0,0,0,.16-.56,3.32,3.32,0,0,0,.06-.44,1.21,1.21,0,0,1,.07-.37c-.17.09-1.06.39-1.06.39l-.41.09c-.11.1-.22.23-.33.32Zm-4-.63a1.63,1.63,0,0,0-.25.47,2.79,2.79,0,0,0-.14.47c-.14.64,0,.64,0,.64a9.26,9.26,0,0,1-3.15-.77s.23-.29.3-.35.22-.14.29-.29a1.51,1.51,0,0,1,.67-.44,15.12,15.12,0,0,0,2,.29Zm5.8-2.63a4.64,4.64,0,0,0-2.17.81h0c-.4.45.89,1.45.89,1.45h0a2.1,2.1,0,0,1,1.8-.66,18.35,18.35,0,0,1,1.9-.76,2.61,2.61,0,0,0-2.42-.84ZM112.1,106.25a1.5,1.5,0,0,1,.22.46,1.83,1.83,0,0,1,0,.47,23.06,23.06,0,0,1,1.87-1.53h0a1.5,1.5,0,0,0,.08-.47,1.35,1.35,0,0,0-.18-.47,2.21,2.21,0,0,1-.15-.5,1.56,1.56,0,0,1,.08-.43c-.7.48-1.37,1-2,1.53v0a1.12,1.12,0,0,0,0,.41A1.94,1.94,0,0,0,112.1,106.25Zm-3,1.88Zm-1.56,2a1.48,1.48,0,0,0,.07.42,2.34,2.34,0,0,0,.33.43,1.28,1.28,0,0,1,.34.39,1.71,1.71,0,0,1,.09.46,22.72,22.72,0,0,1,1.42-2h0a1.48,1.48,0,0,0,0-.47,1.37,1.37,0,0,0-.29-.42,1.78,1.78,0,0,1-.28-.45,2.09,2.09,0,0,1,0-.43c-.54.64-1.06,1.3-1.55,2Zm2.08-2.13a2.2,2.2,0,0,0,.27.47,1.44,1.44,0,0,1,.27.42,1.56,1.56,0,0,1,0,.48h0a23,23,0,0,1,1.65-1.77h0a1.48,1.48,0,0,0,0-.47,1.33,1.33,0,0,0-.25-.45,2.71,2.71,0,0,1-.22-.49,1.56,1.56,0,0,1,0-.43h0a25.37,25.37,0,0,0-1.81,1.78v0a1.56,1.56,0,0,0,0,.43Zm10.25-7.18Zm.32,1.63a21.14,21.14,0,0,1,2.31-.7h0a1.67,1.67,0,0,0,.25-.4,1.25,1.25,0,0,0,0-.51,2.33,2.33,0,0,1,.06-.53A1.05,1.05,0,0,1,123,100a22.6,22.6,0,0,0-2.45.64v0a1.28,1.28,0,0,0-.23.37,2.35,2.35,0,0,0,0,.53,1.14,1.14,0,0,1,0,.52,1.65,1.65,0,0,1-.21.42Zm-5.37,2.33a1.27,1.27,0,0,1-.09.47c.67-.46,1.35-.88,2.06-1.27h0a1.78,1.78,0,0,0,.13-.45,1.25,1.25,0,0,0-.11-.5,1.89,1.89,0,0,1-.08-.53,1.51,1.51,0,0,1,.13-.41c-.76.38-1.49.8-2.21,1.25v0a1.5,1.5,0,0,0-.09.42,2.33,2.33,0,0,0,.13.52A1.34,1.34,0,0,1,114.78,104.8Zm2.7-1.55a1.42,1.42,0,0,1-.16.45,22.85,22.85,0,0,1,2.2-1h0a1.49,1.49,0,0,0,.19-.43,1.4,1.4,0,0,0,0-.5,2.37,2.37,0,0,1,0-.53,1.41,1.41,0,0,1,.19-.39,25.09,25.09,0,0,0-2.35,1v0a1.49,1.49,0,0,0-.15.4,2.33,2.33,0,0,0,.06.53A1.44,1.44,0,0,1,117.48,103.25Zm5.35,45.87Zm24-41.25Zm-.92.95a1.47,1.47,0,0,1-.47,0h0a21.27,21.27,0,0,1,1.53,1.88v0a1.93,1.93,0,0,0,.47.08,1.33,1.33,0,0,0,.48-.18,2.21,2.21,0,0,1,.5-.15,1.16,1.16,0,0,1,.42.08,21.42,21.42,0,0,0-1.53-2h0a1.47,1.47,0,0,0-.42,0,2.75,2.75,0,0,0-.5.2,1.19,1.19,0,0,1-.47.22Zm-2.2-2.2a1.94,1.94,0,0,1-.48,0,21.08,21.08,0,0,1,1.75,1.66v0a1.29,1.29,0,0,0,.48,0,1.43,1.43,0,0,0,.45-.25,2,2,0,0,1,.49-.21,1.19,1.19,0,0,1,.42,0A23.37,23.37,0,0,0,145,106h0a1.48,1.48,0,0,0-.42,0,2.34,2.34,0,0,0-.47.25,1.34,1.34,0,0,1-.43.32Zm-2.48-1.89a1.5,1.5,0,0,1-.46.09c.67.44,1.33.91,2,1.41v0a1.47,1.47,0,0,0,.47,0,1.79,1.79,0,0,0,.42-.3,2.6,2.6,0,0,1,.45-.28,1.56,1.56,0,0,1,.43,0c-.64-.55-1.3-1.07-2-1.56h0a1.48,1.48,0,0,0-.42.07,2.29,2.29,0,0,0-.43.32,1.23,1.23,0,0,1-.41.34Zm.63-1.15Zm9.92,12.73Zm-.7.5a1.07,1.07,0,0,1-.5,0,1.4,1.4,0,0,1-.43-.2,21.14,21.14,0,0,1,.7,2.31v0a2.06,2.06,0,0,0,.4.25,1.69,1.69,0,0,0,.5,0,2,2,0,0,1,.54,0,1.21,1.21,0,0,1,.35.24A23.39,23.39,0,0,0,152,117h0a1.07,1.07,0,0,0-.38-.2,2.27,2.27,0,0,0-.52,0Zm1.57,2.67Zm-2.78-5.6a1.43,1.43,0,0,1-.5.09,1.7,1.7,0,0,1-.45-.15,19.78,19.78,0,0,1,1,2.2v0a1.49,1.49,0,0,0,.43.19,1.2,1.2,0,0,0,.5,0,2.44,2.44,0,0,1,.54,0,1.93,1.93,0,0,1,.38.19,22.64,22.64,0,0,0-1-2.35h0a1.49,1.49,0,0,0-.4-.15A1.87,1.87,0,0,0,149.87,113.88Zm-1.58-2.75a1.57,1.57,0,0,1-.49.16,1.87,1.87,0,0,1-.46-.09,22.69,22.69,0,0,1,1.28,2v0a1.67,1.67,0,0,0,.45.13,1.25,1.25,0,0,0,.5-.11,1.89,1.89,0,0,1,.53-.08,1.17,1.17,0,0,1,.4.13,22.66,22.66,0,0,0-1.25-2.2h0a1.29,1.29,0,0,0-.42-.1,2.4,2.4,0,0,0-.53.12Zm2.21,2.16ZM121,152.5a3.79,3.79,0,0,0,1.5,0,1.07,1.07,0,0,0,.42-.28h0a2.55,2.55,0,0,1-1-2.09c-1.1-.13-1.37-1.33-1.39-1.4a4.26,4.26,0,0,0-.25,1.37,4.18,4.18,0,0,0,.7,2.4Zm30.91-32.61a1.42,1.42,0,0,1-.5,0,1.36,1.36,0,0,1-.39-.25c.17.79.3,1.59.39,2.39v0a1.69,1.69,0,0,0,.36.3,1.22,1.22,0,0,0,.5.08,3,3,0,0,1,.52.13,1.75,1.75,0,0,1,.33.28c-.07-.84-.17-1.68-.32-2.52h0a1.66,1.66,0,0,0-.34-.25A2,2,0,0,0,151.89,119.89Zm-27.75,31.86a2.48,2.48,0,0,1,.94.21s1.16-1.2,1.29-1.15a6.11,6.11,0,0,0-3.78-.25l.23.41.61.84Zm-3.61-3Zm32.57-26Zm-29,25.31Zm0,0Zm-.63-2a4.38,4.38,0,0,0-2.59,2h0s.27,1.36,1.16,1.39a3.93,3.93,0,0,1,1.39-1.53l.17-.2A2.35,2.35,0,0,1,124,146ZM139,102Zm-3.36,0a1.65,1.65,0,0,1-.42.21,22.59,22.59,0,0,1,2.25.85h0a1.74,1.74,0,0,0,.45-.17,1.48,1.48,0,0,0,.32-.39,2,2,0,0,1,.37-.39,1.12,1.12,0,0,1,.4-.14,22.94,22.94,0,0,0-2.33-1h0a1.38,1.38,0,0,0-.39.18,1.7,1.7,0,0,0-.33.42A1.33,1.33,0,0,1,135.64,102Zm2.88,1.18a1.46,1.46,0,0,1-.44.16,23,23,0,0,1,2.13,1.14l0,0a1.82,1.82,0,0,0,.46-.11A1.4,1.4,0,0,0,141,104a2.25,2.25,0,0,1,.41-.34,2.07,2.07,0,0,1,.42-.08,24.15,24.15,0,0,0-2.19-1.29h0a1.23,1.23,0,0,0-.41.13,2.22,2.22,0,0,0-.38.37,1.16,1.16,0,0,1-.34.39Zm-20.64,43.44a2.28,2.28,0,0,1-.38.38,1.42,1.42,0,0,1-.41.14c.77.37,1.55.71,2.34,1h0a1.38,1.38,0,0,0,.39-.18,2.18,2.18,0,0,0,.33-.42,1.37,1.37,0,0,1,.29-.42,1.65,1.65,0,0,1,.42-.21,22.65,22.65,0,0,1-2.25-.86l0,0a1.74,1.74,0,0,0-.45.17A1.34,1.34,0,0,0,117.88,146.62Zm17.7,5.17a2.9,2.9,0,0,0,.36-2.88l-1.81.83a1,1,0,0,1-.21,1.17s1.76.77,1.66.88Zm1.09,4.78.5.82,1.33-1.45a6,6,0,0,0-.63-.5Zm.69-1.5-1.18,1.05.16.17,1.19-1Zm4.79-9.73ZM139.32,147Zm2-2.69a1.86,1.86,0,0,1,.09-.47c-.66.46-1.35.89-2,1.28h0a1.37,1.37,0,0,0-.13.45,1.25,1.25,0,0,0,.11.5,1.89,1.89,0,0,1,.08.53,1.11,1.11,0,0,1-.13.4,20.75,20.75,0,0,0,2.2-1.25v0a1.43,1.43,0,0,0,.1-.42,2.93,2.93,0,0,0-.13-.51,1.45,1.45,0,0,1-.15-.5Zm-6.25,10.55.83.87,1.29-1.09a1.45,1.45,0,0,0-2.12.22Zm3.57-9a1.76,1.76,0,0,1,.15-.44c-.71.37-1.45.7-2.2,1h0a2.06,2.06,0,0,0-.21.42,1.3,1.3,0,0,0,0,.52,2,2,0,0,1-.07.54,2.23,2.23,0,0,1-.16.43c.79-.27,1.72-.64,2.5-1v0a1.38,1.38,0,0,0,.15-.4,2.33,2.33,0,0,0-.06-.53,1.29,1.29,0,0,1-.1-.51Zm-13.14,6.75a1.65,1.65,0,0,1-.58,1.89c1.4.36,3-1.15,3-1.15a5.46,5.46,0,0,0-1.67-.57Zm4.68-.33A7.53,7.53,0,0,0,127.3,151l-1.55,1.09,1.85.61c.56.15.71.42,1.41.87,0,0,1.64-.94,1.16-1.32Zm-5.25.45a1.94,1.94,0,0,1-.48,0,2.47,2.47,0,0,1-.89-.17h0c-.25.77-2,.6-2,.6a4.27,4.27,0,0,0,2.36,1.17h0s1-.21,1-1.63Zm11.69,1.14h0c-.36-.48-.67-.9-.85-1.09a5.08,5.08,0,0,0-.75-.64,1.71,1.71,0,0,0-2.33.35,5.26,5.26,0,0,1,1.67,1.48l.22.37s1.2-1.25,2-.46Zm-2,.5v0h0Zm-2.2-1.72a3.21,3.21,0,0,1-1.5-.07c.07.47-1.3,1.38-1.3,1.38a3.6,3.6,0,0,0,2.15.54,2.7,2.7,0,0,0,1.6-.64,2.89,2.89,0,0,1-.95-1.21ZM105.46,113.6Zm47.59,13.15a1.4,1.4,0,0,0-.27-.33,2.41,2.41,0,0,0-.5-.21,1.15,1.15,0,0,1-.48-.17,1.52,1.52,0,0,1-.32-.35,21.42,21.42,0,0,1-.23,2.4v0a1.46,1.46,0,0,0,.27.38,1.56,1.56,0,0,0,.47.22,1.94,1.94,0,0,1,.47.25,1.48,1.48,0,0,1,.25.35c.15-.83.27-1.66.35-2.5Zm-.33,2.53ZM144,142.86a1.22,1.22,0,0,1-.22-.46,1.3,1.3,0,0,1,0-.48,22.81,22.81,0,0,1-1.87,1.54h0a1.44,1.44,0,0,0-.08.46,1.33,1.33,0,0,0,.18.48,2.21,2.21,0,0,1,.15.5,1.26,1.26,0,0,1-.08.43c.7-.48,1.38-1,2-1.53v0a2.09,2.09,0,0,0,0-.43,2.33,2.33,0,0,0-.21-.49Zm-19.09,9.86h0Zm26.61-19.94a1.9,1.9,0,0,0-.39-.36,1.57,1.57,0,0,1-.4-.32,1.85,1.85,0,0,1-.18-.44,21.78,21.78,0,0,1-1,2.19h0a1.81,1.81,0,0,0,.14.45,1.41,1.41,0,0,0,.37.36,2.25,2.25,0,0,1,.36.39,1.46,1.46,0,0,1,.11.41h0a25.21,25.21,0,0,0,1.15-2.26v0A1.11,1.11,0,0,0,151.54,132.78Zm1.6-9.29h0a1.11,1.11,0,0,0-.31-.3,1.91,1.91,0,0,0-.52-.14,1.45,1.45,0,0,1-.5-.11,1.47,1.47,0,0,1-.35-.31h0c.07.81.09,1.61.08,2.42v0a1.72,1.72,0,0,0,.32.34,1.4,1.4,0,0,0,.49.15,2.34,2.34,0,0,1,.5.19,1.43,1.43,0,0,1,.28.32,21.55,21.55,0,0,0,0-2.54Zm-.82,6.14a1.92,1.92,0,0,0-.46-.27,1.28,1.28,0,0,1-.45-.23,1.36,1.36,0,0,1-.25-.39c-.15.8-.33,1.58-.55,2.35v0a1.68,1.68,0,0,0,.22.42,1.41,1.41,0,0,0,.43.27,2.32,2.32,0,0,1,.44.31,1.41,1.41,0,0,1,.19.39h0a23.37,23.37,0,0,0,.67-2.45v0a1.74,1.74,0,0,0-.24-.36ZM147.05,141Zm-.52.1a2.3,2.3,0,0,0-.25-.46,1.39,1.39,0,0,1-.28-.43,1.83,1.83,0,0,1,0-.47,21.19,21.19,0,0,1-1.65,1.76h0a1.87,1.87,0,0,0,0,.47,1.58,1.58,0,0,0,.25.46,2.09,2.09,0,0,1,.22.48,1.54,1.54,0,0,1,0,.43,23.25,23.25,0,0,0,1.8-1.78v0a1.34,1.34,0,0,0,0-.44Zm-1.78,2.23Zm5.56-7.16a1.48,1.48,0,0,0-.12-.41,2.28,2.28,0,0,0-.38-.38,1.54,1.54,0,0,1-.38-.34,1.7,1.7,0,0,1-.15-.45,24.16,24.16,0,0,1-1.14,2.13h0a1.9,1.9,0,0,0,.1.46,1.37,1.37,0,0,0,.35.37,2.31,2.31,0,0,1,.34.42,1.16,1.16,0,0,1,.08.42,24.15,24.15,0,0,0,1.29-2.19Zm-1.7,2.81a1.56,1.56,0,0,0-.08-.43,2.13,2.13,0,0,0-.31-.43,1.24,1.24,0,0,1-.34-.38,1.86,1.86,0,0,1-.09-.47c-.44.68-.91,1.34-1.41,2l0,0a1.48,1.48,0,0,0,0,.47,1.37,1.37,0,0,0,.29.42,2.18,2.18,0,0,1,.28.46,1.5,1.5,0,0,1,0,.42c.54-.63,1.07-1.3,1.56-2ZM153.13,126Zm-48.91,3.2a1.2,1.2,0,0,1,.5,0,1.44,1.44,0,0,1,.39.25,24.08,24.08,0,0,1-.39-2.38v0a1.48,1.48,0,0,0-.36-.3,1.43,1.43,0,0,0-.5-.09,2.31,2.31,0,0,1-.52-.12,1.43,1.43,0,0,1-.32-.28,21.67,21.67,0,0,0,.31,2.52h0a1.78,1.78,0,0,0,.36.25A2.27,2.27,0,0,0,104.22,129.22ZM103,126.36Zm.45,3.25ZM120,151.77a2.39,2.39,0,0,0-.37.15l.1-.07a3,3,0,0,0-.78.59c-.18.19-.51.62-.89,1.09h0c.89-.77,2,.55,2,.55v0l.35-.35a6.36,6.36,0,0,1,.57-.46A2.49,2.49,0,0,1,120,151.77Zm-16.7-25.85a2.38,2.38,0,0,0,.52.15,1.44,1.44,0,0,1,.5.1,1.73,1.73,0,0,1,.35.31c-.06-.8-.09-1.61-.08-2.41v0a1.52,1.52,0,0,0-.33-.34,1.34,1.34,0,0,0-.49-.15,3,3,0,0,1-.5-.19,2.16,2.16,0,0,1-.27-.33c0,.85,0,1.7,0,2.54h0A1.22,1.22,0,0,0,103.3,125.92Zm3,9.31a1.24,1.24,0,0,1,.5-.1,1.7,1.7,0,0,1,.45.15,19.78,19.78,0,0,1-1-2.2v0a1.52,1.52,0,0,0-.43-.2,1.4,1.4,0,0,0-.5.05,2.44,2.44,0,0,1-.54,0,1.46,1.46,0,0,1-.38-.18,23.86,23.86,0,0,0,1,2.34h0a1.38,1.38,0,0,0,.4.15A2.32,2.32,0,0,0,106.25,135.23Zm-1.9-2.45Zm.13-16.83a1,1,0,0,0,.18.4,2.36,2.36,0,0,0,.42.33,1.32,1.32,0,0,1,.42.29,1.5,1.5,0,0,1,.21.42,21.69,21.69,0,0,1,.85-2.25v0a2.2,2.2,0,0,0-.17-.45,1.33,1.33,0,0,0-.38-.33,2.4,2.4,0,0,1-.4-.38,1.42,1.42,0,0,1-.14-.41c-.37.77-.71,1.55-1,2.34Zm-1.5,7.13Zm.57-4a1.16,1.16,0,0,0,.23.36,2,2,0,0,0,.47.28,1.53,1.53,0,0,1,.46.23,2,2,0,0,1,.26.39,23.56,23.56,0,0,1,.55-2.35v0a1.47,1.47,0,0,0-.22-.41,1.37,1.37,0,0,0-.44-.28,2.61,2.61,0,0,1-.43-.31,1.41,1.41,0,0,1-.19-.39c-.27.81-.49,1.62-.68,2.45Zm-.5,3.25a1.4,1.4,0,0,0,.27.33,2.41,2.41,0,0,0,.5.21,1.25,1.25,0,0,1,.49.17,1.73,1.73,0,0,1,.31.35,21.45,21.45,0,0,1,.25-2.4v0a1.78,1.78,0,0,0-.28-.38,1.35,1.35,0,0,0-.47-.22,2.37,2.37,0,0,1-.47-.25,1.48,1.48,0,0,1-.25-.35c-.16.82-.27,1.66-.35,2.5Zm.34-2.53ZM105,132.3a1.42,1.42,0,0,1,.5,0,1.72,1.72,0,0,1,.43.21,21.31,21.31,0,0,1-.7-2.32v0a1.41,1.41,0,0,0-.4-.25,1.21,1.21,0,0,0-.5,0,2.48,2.48,0,0,1-.54-.06,1.41,1.41,0,0,1-.35-.23c.17.82.38,1.64.63,2.45h0a1.38,1.38,0,0,0,.38.2,2,2,0,0,0,.54,0Zm11.42,14.51a1.55,1.55,0,0,0,.42-.12,2.73,2.73,0,0,0,.38-.38,1.23,1.23,0,0,1,.34-.38,1.76,1.76,0,0,1,.44-.15,24.16,24.16,0,0,1-2.13-1.14l0,0a1.41,1.41,0,0,0-.46.11,1.38,1.38,0,0,0-.38.34,2.25,2.25,0,0,1-.41.34,1.58,1.58,0,0,1-.42.09,23.66,23.66,0,0,0,2.19,1.28Zm-.34,8.69,1.28,1.5.53-.8L116.75,155A6,6,0,0,0,116.1,155.5Zm-1.85-10Zm2.8,9.28,1.14,1.1.15-.18-1.13-1.1Zm.42-.56,1.25,1.14.86-.83A1.46,1.46,0,0,0,117.47,154.25Zm-2.58-9.87a1.46,1.46,0,0,1,.46-.1,20.66,20.66,0,0,1-2-1.41v0a1.47,1.47,0,0,0-.47,0,1.39,1.39,0,0,0-.41.31,2.6,2.6,0,0,1-.45.28,1.56,1.56,0,0,1-.43,0c.64.55,1.31,1.07,2,1.56h0a1.48,1.48,0,0,0,.42-.07,2.38,2.38,0,0,0,.43-.34A1.23,1.23,0,0,1,114.89,144.38Zm-4.68-4.09a1.23,1.23,0,0,1,.47,0c-.54-.6-1.05-1.22-1.53-1.87v0a1.85,1.85,0,0,0-.47-.08,1.64,1.64,0,0,0-.48.18,2.15,2.15,0,0,1-.51.15,1.25,1.25,0,0,1-.42-.08c.48.7,1,1.38,1.53,2h0a1.53,1.53,0,0,0,.43,0,3.07,3.07,0,0,0,.5-.2A1.23,1.23,0,0,1,110.21,140.29Zm-2.94-1.65Zm.55-.66a1.41,1.41,0,0,1,.49-.16,1.46,1.46,0,0,1,.46.1c-.46-.67-.88-1.35-1.27-2.06v0a1.67,1.67,0,0,0-.45-.13,1.45,1.45,0,0,0-.5.11,1.89,1.89,0,0,1-.53.08,1.23,1.23,0,0,1-.41-.13c.38.76.8,1.49,1.25,2.21h0a1.43,1.43,0,0,0,.41.09,1.8,1.8,0,0,0,.52-.13Zm4.59,4.5a1.89,1.89,0,0,1,.47,0c-.61-.52-1.2-1.07-1.76-1.65v0a1.48,1.48,0,0,0-.47,0,1.28,1.28,0,0,0-.45.23,2,2,0,0,1-.5.22,1.55,1.55,0,0,1-.43,0,25.19,25.19,0,0,0,1.78,1.8h0a1.55,1.55,0,0,0,.43,0,2.13,2.13,0,0,0,.46-.27,1.56,1.56,0,0,1,.45-.26Zm-.78,1.06Zm-2.34-2.29Z"/><path id="flor" class="cls-2" d="M124.42,128.39h0a25.25,25.25,0,0,0-2.88.4c-.47-1.84-1.81-4.21-4.11-3.88a3.11,3.11,0,0,0-2.32,4.1c-2.81.39-5.18-1.88-5.75-4.48a6.35,6.35,0,0,1,6.07-7.78c5.75,0,8.84,7.58,9,11.64m7.27,0c.19-4.05,3.29-11.63,9-11.63a6.35,6.35,0,0,1,6.07,7.77c-.57,2.59-2.93,4.87-5.75,4.48.48-1.8-.35-3.82-2.32-4.1-2.3-.34-3.64,2-4.11,3.86a29,29,0,0,0-2.89-.37Zm-3.63,3.44c-4.29,0-7.77-.64-7.77-1.42s3.46-1.42,7.76-1.42,7.77.64,7.77,1.42-3.48,1.41-7.77,1.41m6.3.25A3.13,3.13,0,0,0,139,134.6a3.48,3.48,0,0,1-3.29,3.25c-2.42,0-3.83-3.68-4-5.38h0a24.56,24.56,0,0,0,2.71-.39Zm-9.93.39c-.17,1.69-1.59,5.42-4,5.42a3.47,3.47,0,0,1-3.29-3.25,3.13,3.13,0,0,0,4.63-2.56v0a26.63,26.63,0,0,0,2.68.4Zm3.63-27.54a27.42,27.42,0,0,0,3.1,2.69,9.21,9.21,0,0,1,3.91,7.1c0,4.41-3.68,8.28-4.14,13.6a21.32,21.32,0,0,0-2.4-.13c.1-5.4-.11-12.72-.47-18-.37,5.28-.57,12.6-.48,18a21.14,21.14,0,0,0-2.39.13c-.46-5.32-4.18-9.19-4.15-13.6a9.17,9.17,0,0,1,3.91-7.1,26.68,26.68,0,0,0,3.11-2.69m0,37.85a10.74,10.74,0,0,1-5.11-4.82,12.13,12.13,0,0,0,2.19-5.4c.75.06,1.57.09,2.4.09a43.35,43.35,0,0,0,.52,6.13,42,42,0,0,0,.51-6.13c.84,0,1.65,0,2.41-.09a12.13,12.13,0,0,0,2.19,5.4,10.65,10.65,0,0,1-5.11,4.82"/></svg>