<svg id="Capa_1" data-name="Capa 1" xmlns="http://www.w3.org/2000/svg" viewBox="0 0 256 256"><defs><style>.cls-1{fill:#0075bf;}.cls-2{fill:#1d1d1b;}.cls-3{fill:#dfedfa;}.cls-4{fill:#004c99;}.cls-5{fill:#fff;}</style></defs><title>pin-lider</title><path class="cls-1" d="M128,245.27c64.59,0,117.27-52.68,117.27-117.27S192.59,10.73,128,10.73,10.73,63.41,10.73,128,63.41,245.27,128,245.27"/><path class="cls-2" d="M192.59,120.18l25.13-1.86c9.12,10.42,23.64,4.1,25.31-3.17l1.12-.18.75,12.84-29.79,8.57Zm-58.07,39.28L38.09,187.2l-3.53.92-1.3,1.68,4.28-.56,69.05-8.56c1.68-7.07,16.2-13.4,25.32-3.17L157,175.65Zm57,16.38,19.17,32,11.91-11.36-.37-1.3c-10.43-1.3-19.55-11.17-4.66-17.5l-2.6-17.5Zm-57-39.46L38.09,108.64l-3.34-.93-2.8.37L35.49,110l57.7,27.73c8.56-4.28,25.13-1.68,21,10.24L134,158.71Zm80.59,23.08,23.09,6.7c2.42-3,.74-6,3.16-7.07.19-.19-.74-.19-.93-.38-4.28-1.67-6.89-5.21-5-10.61l-19.73-11ZM191.48,120l33.87-56.4L222,59.12,189.61,91.33c6.15,6,2.42,17.5-14.71,14.7l-15.81,13.59Zm-33.33,55.85-40,66.64-1.49,2.42.75,1.86,2.61-2.42,40-39.84c-6.15-5.95-2.24-17.49,14.7-14.7l15.82-13.59Zm0-55.85L118.32,53.36l-1.49-2.43-2.42-1.11.75,3,12.47,47.83c10.24,1.31,19.36,11.36,4.46,17.5l2.79,17.5Z"/><path class="cls-3" d="M215.11,159.46l21.78,6.33.75.18c-.37,4.28.93,3.35-2,7.45-.19,0-.37-.19-.56-.37a15.66,15.66,0,0,0-17.31,4.46l-25.13-1.86Zm-80.41.74-2.61,17.5c14.9,6.33,5.78,16.2-4.65,17.5L115.16,243l-.75,3,2.23-1.12,1.49-2.42,40-66.64Zm80.23-24.57,2.79-17.5c-15.08-6.14-5.77-16.19,4.47-17.5l7.82-30-4.47-7.26L191.66,120Zm.93,23.27,19.54-11c-2.42-7.26,2.8-11,9.12-11.92,4.28-.55,4.28-4.28.38-8.19l-29.79,8.57Zm-81.91-22-19.72,11c4.09,11.72-12.66,14.33-21,10.23l-57.7,27.74L32,187.57l2.61.55,3.53-.92,96.43-27.74Zm25.14,39.28L174.9,190c16.95-3,20.67,8.56,14.71,14.51l12.66,12.66,8.93-8.56-19.72-32.76Zm31.45-56.59L174.72,106c-16.94,2.8-20.66-8.74-14.7-14.7L120,51.49l-2.61-2.42-.56,1.86,1.49,2.43L158.15,120Zm-33.5.56-25.13-1.86c-9.12,10.24-23.64,3.91-25.32-3.17l-69.05-8.56L33.26,106l1.3,1.67,3.53.93,96.43,27.74Z"/><path class="cls-4" d="M201.34,124.09c19,10,22.52,29,8,42.07-14.7,13.22-41.88,15.82-60.86,5.58-19.18-10.05-22.71-29-8.19-42.07,14.7-13.21,41.88-15.63,61.05-5.58"/><path class="cls-2" d="M180.86,138.61l8.57-.74c3,3.53,8,1.3,8.56-1.12L221.44,134l1.3-.19-.37.56-1.3.37L188.5,144Zm-19.73,13.22-32.57,9.3-1.31.38-.37.55,1.49-.18,23.27-2.79c.75-2.43,5.58-4.66,8.56-1.12l8.56-.56Zm19.36,5.58,13.59,22.52.37.93.93.38-.37-1.12-4.09-16.19c-3.54-.38-6.71-3.73-1.68-6l-.74-5.77ZM161.13,144l-32.57-9.31-1.31-.37-.74.18,1.12.56,19.54,9.31c2.79-1.3,8.56-.56,7.08,3.54l6.7,3.72Zm27.37,7.82,32.57,9.3,1.3.38.93-.19-1.3-.56-19.54-9.31c-2.79,1.3-8.57.56-7.08-3.53l-6.7-3.73Zm-8-13.41,13.59-22.52.37-.93-.19-.56-.74.93-13.59,13.4c2,2,.75,6-5,5l-5.4,4.47Zm-11.35,19-13.59,22.52-.37.93.18.56.93-.74,13.59-13.59c-2-2.05-.93-6,4.84-5l5.4-4.46Zm0-19L155.73,115.9l-.55-.93-.75-.19.19.93,4.28,16.2c3.35.37,6.51,3.72,1.49,6l.93,5.95Z"/><path class="cls-3" d="M188.5,151.83l32.57,9.3,1.3.38.37.55-1.3-.18L198,159.09c-.56-2.43-5.58-4.66-8.56-1.12l-8.57-.56Zm-27.18.37-.93,5.77c5,2.23,1.86,5.58-1.68,6l-4.09,16.19-.19,1.12.75-.38.37-.93,13.59-22.52Zm27.18-8.38.93-5.95c-5.22-2.05-2.05-5.59,1.49-6l4.09-16.2.37-.93-.93.19-.37.93-13.59,22.52Zm.18,7.82,6.7-3.72c-1.49-3.91,4.29-4.84,7.08-3.54L222,135.07l1.3-.56-.93-.18-1.11.37L188.5,144ZM161,144.19l-6.7,3.73c1.48,4.09-4.29,4.83-7.08,3.53l-19.54,9.31-1.3.56.92.19,1.31-.38,32.57-9.3Zm8.56,13.41,5.4,4.46c5.77-.93,7.07,3,4.84,5l13.77,13.59.74.74.19-.56-.37-.93-13.59-22.52Zm10.61-19.36-5.4-4.47c-5.58.93-6.89-3-4.84-5l-13.59-13.59-.93-.74-.18.56.55.93,13.41,22.52Zm-11.36.37-8.56-.74c-3,3.53-7.81,1.3-8.56-1.12L128.37,134l-1.49-.19.37.56,1.31.37L161.13,144Z"/><path class="cls-4" d="M183.84,139.91c6.33,3.35,7.64,9.68,2.61,14.15-4.84,4.47-14.15,5.4-20.66,2.05-6.33-3.54-7.63-9.87-2.61-14.34,4.84-4.46,14.15-5.4,20.66-1.86"/><path class="cls-5" d="M119.81,161.51q0,23.73-7.82,35.18v.37c-4.65,5.21-11.72,8-21.22,8-14,0-25.13-1.67-33.13-4.84a10.71,10.71,0,0,1-5-3.35c-1.12-1.3-1.67-3.53-1.67-6.33,0-4.47,1.67-6.7,5-6.7a17.09,17.09,0,0,1,6,1.31c-.93-18.81-1.3-34.81-1.3-47.84,0-21.78.74-44.68,2.42-68.69L60.62,69h-.38C57.45,69,56,66.38,56,61.36c0-3.91.92-6.52,2.79-8.19,1.48-1.3,4.28-2.05,8.18-2.05,6,0,10.8,1.3,14.34,4.28a12.29,12.29,0,0,1,4.84,10.06,12.09,12.09,0,0,1-1.31,6C83.89,73.08,83,74,81.83,74c-.74,0-2-.75-3.9-2.42a12.52,12.52,0,0,0-5.21-3.17c-2,23.46-3,46.16-3,68.69,0,10,.56,26.62,1.87,50.07a104.83,104.83,0,0,0,17.31,2.05c7.63,0,13.77-2.42,18.24-7.45,1.3-3,2.42-8.93,3-17.68.56-5.77.93-9.49,1.31-11,.55-2.42,1.85-3.54,3.71-3.54,3,0,4.66,3.91,4.66,11.92"/><path class="cls-4" d="M90.77,208.73c-14.33,0-25.93-1.72-34.48-5.1A13.94,13.94,0,0,1,49.63,199c-1.5-1.72-2.36-4.65-2.36-8.46,0-9.61,6.66-10.36,8.69-10.36a14.81,14.81,0,0,1,2.06.15c-.71-15.57-1.07-30-1.07-43,0-21.32.72-43.09,2.15-64.78-2.89-.47-6.8-2.62-6.8-11.17,0-4.92,1.31-8.49,4-10.91,2.26-2,5.83-3,10.63-3,7.13,0,12.59,1.68,16.7,5.14a15.85,15.85,0,0,1,6.14,12.86A15.64,15.64,0,0,1,88,73.19c-.61,1.11-2.48,4.49-6.18,4.49-1.72,0-3.57-.93-6-3C74.21,95.48,73.4,116,73.4,137.12c0,10.29.58,26.49,1.69,47a88.18,88.18,0,0,0,13.82,1.5c6.47,0,11.41-1.89,15.09-5.77.66-1.76,1.85-6.17,2.47-15.93.66-6.85,1-10,1.41-11.65.9-3.91,3.63-6.3,7.27-6.3,5.52,0,8.32,5.24,8.32,15.57,0,16.1-2.56,28-7.82,36.29v.3l-.93,1.41C109.26,205.62,101.2,208.73,90.77,208.73ZM56,187.51c-.64,0-1.36,0-1.36,3,0,2.39.5,3.61.8,4,.42.58,1.2,1.41,3.55,2.31,7.73,3.06,18.42,4.6,31.82,4.6,7.85,0,13.86-2.06,17.88-6.14l.32-.64c4.76-7,7.18-18.11,7.18-33.12,0-4.83-.65-7-1.06-7.85a1.84,1.84,0,0,0-.08.3c-.35,1.38-.8,6-1.23,10.52-.38,6-1.27,14.22-3.27,18.8l-.62,1c-5.12,5.76-12.18,8.68-21,8.68-4.24,0-10-.67-18-2.11l-2.85-.51-.16-2.89c-1.22-22-1.87-39.37-1.87-50.28,0-23.37,1-45.94,3-69l.38-4.27,4.16,1a16.18,16.18,0,0,1,6.79,4c.45.41.82.71,1.11.94l.11-.19a8.65,8.65,0,0,0,.84-4.17,8.63,8.63,0,0,0-3.4-7.15c-2.86-2.41-6.78-3.53-12.11-3.53-4.34,0-5.63,1-5.77,1.14-.35.33-1.54,1.39-1.54,5.44,0,3.24.71,4,.72,4L67,64.3l-.32,4.57c-1.6,22.9-2.41,45.92-2.41,68.44,0,14.27.44,30.3,1.3,47.65l.28,5.63-5.26-2A13.33,13.33,0,0,0,56,187.51Z"/><path class="cls-4" d="M128,256A128,128,0,1,1,256,128,128.14,128.14,0,0,1,128,256Zm0-234.54A106.54,106.54,0,1,0,234.54,128,106.66,106.66,0,0,0,128,21.46Z"/></svg>