<svg id="Capa_1" data-name="Capa 1" xmlns="http://www.w3.org/2000/svg" viewBox="0 0 256 256"><defs><style>.cls-1{fill:#009c3d;}.cls-2{fill:#fff;}.cls-3{fill:#004c98;}</style></defs><title>progresiones</title><rect class="cls-1" x="13" y="13" width="230" height="230"/><path class="cls-2" d="M74.9,245.14c-.84-3.18-1.73-6.31-2.64-9.4-17.26,1-37.93-2.89-59.52-12a2.18,2.18,0,0,1,.71-4.19c19-1.22,35.86-4.09,50.43-8.46q-3.1-8-6.55-15.46a157.46,157.46,0,0,1-44.86,1l.5-4.33a153.17,153.17,0,0,0,42.42-.74q-4.22-8.72-8.92-16.7a71,71,0,0,1-19.09-7.8A124.08,124.08,0,0,1,13.79,172l-1.26-4.19q5.22-1.56,10.21-3.55-5.35-3.39-11.06-7.8L14.35,153a139.76,139.76,0,0,0,13.3,9.16q4.05-1.83,7.92-3.95A172.79,172.79,0,0,0,11.7,131.5l2.92-3.24A178.37,178.37,0,0,1,39.39,156a120.76,120.76,0,0,0,17.1-12.38,237.1,237.1,0,0,1-34.39-36.4c-3-.91-6-1.72-8.86-2.39a2.18,2.18,0,0,1,0-4.26q1.66-.37,3.33-.81C15.7,98.53,14.82,97.28,14,96s-1.61-2.19-2.36-3.4l3.7-2.31c.69,1.1,1.38,2.06,2.21,3.17,1.15,1.69,2.33,3.36,3.52,5Q44.18,91,64.28,70.3A170,170,0,0,0,12.34,56.35L12.82,52A172.68,172.68,0,0,1,67.41,67Q87.84,44.62,104.8,8.47a2.18,2.18,0,0,1,3.44-.68q4.35,4,8.26,8.14c.39-2.44.76-4.92,1.11-7.41l4.32.6q-.78,5.57-1.68,10.94A141.66,141.66,0,0,1,131.31,34.5c-.28-8.41-1-17-2.14-25.68l4.32-.58a255.25,255.25,0,0,1,2.29,33.5c17.19,30,19.86,63.33,6.2,93.18a98.18,98.18,0,0,1-12.74,20.63A57,57,0,0,1,123,174.74a108,108,0,0,0,10.71,2.07c22.73,3.2,42.84-1.83,58.21-14.52,34.1-28.18,37.72-87.9,9.23-152.15l4-1.77c29.3,66.09,25.21,127.83-10.43,157.29-16.34,13.49-37.64,18.84-61.61,15.47a112.8,112.8,0,0,1-12.4-2.47,62.33,62.33,0,0,1-4.54,6.21c.17.72.32,1.43.46,2.14,2.32,12,.18,22.87-6.2,31.43-7.07,9.53-18.91,15.2-33.7,16.91q1.24,4.28,2.42,8.67Zm-51.65-22c17.16,6.13,33.6,8.82,47.67,8.14q-2.58-8.3-5.48-16.11A219.83,219.83,0,0,1,23.25,223.17Zm46.35-9.28q3.08,8.28,5.78,17.08c14-1.46,25.13-6.53,31.52-15.14,5.43-7.29,7.37-16.58,5.61-26.91C102.32,199.41,87.83,207.85,69.6,213.89Zm-7.85-19.06q3.31,7.26,6.31,15c18.85-6.21,33.5-15.05,43.28-26.08a61,61,0,0,0-3.08-8.54A123,123,0,0,1,61.75,194.83Zm-9.68-19q4.08,7.2,7.78,14.94A119.74,119.74,0,0,0,103.71,173a153.33,153.33,0,0,1-15.79-7.55,58.54,58.54,0,0,1-24.13,10h0A42.06,42.06,0,0,1,52.07,175.81Zm61.49.8c.39,1,.76,2,1.1,3,.54-.73,1.07-1.47,1.57-2.22C115.34,177.17,114.45,176.89,113.56,176.61Zm-.74-4.84c1.94.66,3.86,1.26,5.79,1.81a53,53,0,0,0,4.75-11.35A101.71,101.71,0,0,1,112.82,171.77Zm-49.75-.56.36,2.15-.35-2.15a54.21,54.21,0,0,0,20.66-8.11,189.33,189.33,0,0,1-23.83-16.62,125.14,125.14,0,0,1-18,13.13q3.8,5.47,7.32,11.36A39.09,39.09,0,0,0,63.07,171.21Zm-30.73-6.42a69.81,69.81,0,0,0,10.82,4.62q-2.46-3.9-5-7.61Q35.28,163.36,32.34,164.79Zm59.42-2.19a146.46,146.46,0,0,0,13.36,6.29,94.42,94.42,0,0,0-7.57-11.47A77.52,77.52,0,0,1,91.76,162.6Zm8.83-8.34a98.26,98.26,0,0,1,9.28,14.28,97.49,97.49,0,0,0,15.19-14.78c.21-1.76.34-3.55.38-5.37a61.18,61.18,0,0,0-5.13-25.29A114.32,114.32,0,0,1,100.59,154.26ZM63.17,143.52a183.52,183.52,0,0,0,24.51,16.83,71.26,71.26,0,0,0,7.21-6.27,135.18,135.18,0,0,0-21.84-20.83A137.49,137.49,0,0,1,63.17,143.52Zm12.69-13.61a139.77,139.77,0,0,1,22,21c7.93-8.76,14.67-19.95,20-32.95A93.15,93.15,0,0,0,98.66,93,175,175,0,0,1,75.86,129.91Zm46.71-12.24a67.18,67.18,0,0,1,7.25,29.8A93.49,93.49,0,0,0,138,133.1c12-26.24,10.77-55.39-2.37-82.29C134.78,75.53,130.18,98.41,122.57,117.67Zm-92.93-7.91A229.93,229.93,0,0,0,59.76,140.7a131.32,131.32,0,0,0,9.76-10.08q-4.93-3.57-10.26-6.82A171,171,0,0,0,29.64,109.76Zm-4.91-6.27a175.28,175.28,0,0,1,36.79,16.57q5.62,3.43,10.82,7.22A171.61,171.61,0,0,0,95.26,89.93,128,128,0,0,0,68.43,72.28Q47.76,94,23.74,102.18Zm75.8-14.63a100.75,100.75,0,0,1,19.41,23.85c7.35-20.07,11.46-44,11.5-69.74a130.68,130.68,0,0,0-12.17-17.32C114.91,49.34,108.64,70.46,100.53,88.86ZM71.49,69A132.23,132.23,0,0,1,97.08,85.83q12.15-28,18.51-64.44c-2.55-2.84-5.27-5.63-8.13-8.36Q91.14,47.13,71.49,69Z"/><path class="cls-3" d="M38.3,144.76a9.18,9.18,0,1,1-9.11,9.1,9.16,9.16,0,0,1,9.11-9.1m179.27-99.1a9.1,9.1,0,1,0,9.1,9.1,9.06,9.06,0,0,0-9.1-9.1"/><path class="cls-3" d="M168.89,139l18.49-4.48c8.23,10.26,18.05,2,18.34-5.92l40.74-12.86.15,4.77L188,154.15Zm-38,47.82L63,226l-2.46,1.44-.87,1.88,3.18-1,50.27-15.9c.29-7.79,10.26-16,18.5-5.77L150,202.11Zm44.93,12.28,27.59,48h7.52l-9.54-30.2c-7.94-.28-16.18-10.25-5.93-18.49L191,180ZM143,142,104,74l-1.44-2.45-1.88-.87,1,3.18,15.89,50.42c7.8.28,16,10.11,5.78,18.34l4.48,18.49Z"/><path class="cls-2" d="M188,154.15l58.51-33.66.29,5.78L219,151.55c-6.93-3.61-19.07.72-14.3,13l-13.14,13.72Zm-60.52,8.52-13.15,13.72c4.62,12.28-7.37,16.77-14.3,13L60.83,224.93l-2.46,2.17,2.17.29L63,225.94l67.89-39.14Zm24.27,39.87,13.72,13.15c12.28-4.63,16.61,7.37,13,14.3l15.46,17h9.53l-27.59-48Zm15.6-64.14-13.73-13.14c-12.28,4.76-16.75-7.37-13-14.31L105,72l-2.16-2.46-.29,2L104,74l39,68Z"/><path class="cls-3" d="M223.64,256H32.52A32.56,32.56,0,0,1,0,223.49V32.37A32.48,32.48,0,0,1,32.52,0H223.64A32.4,32.4,0,0,1,256,32.37V223.49A32.48,32.48,0,0,1,223.64,256ZM32.52,17.06A15.4,15.4,0,0,0,17.06,32.37V223.49a15.67,15.67,0,0,0,15.46,15.45H223.64a15.59,15.59,0,0,0,15.3-15.45V32.37a15.51,15.51,0,0,0-15.3-15.31Z"/><circle id="fondo" class="cls-3" cx="159.76" cy="171.09" r="33.49"/><path id="rizo" class="cls-2" d="M146.93,145.63a1.34,1.34,0,0,0-.1-.52,2.22,2.22,0,0,1-.07-.57,1.38,1.38,0,0,1,.15-.4v0a23.73,23.73,0,0,1,2.45-1,1.33,1.33,0,0,0-.19.42,2.53,2.53,0,0,0,0,.55,1.4,1.4,0,0,1,.05.54,1.46,1.46,0,0,1-.2.44h0a24,24,0,0,0-2.31,1A1.62,1.62,0,0,0,146.93,145.63Zm2.46-2.52Zm.34,1.71a25,25,0,0,1,2.42-.74h0a1.54,1.54,0,0,0,.26-.42,1.64,1.64,0,0,0,0-.54,2,2,0,0,1,0-.55,1.67,1.67,0,0,1,.25-.38h0a23.7,23.7,0,0,0-2.57.67v0a1.53,1.53,0,0,0-.21.4,2.62,2.62,0,0,0,0,.56,1.56,1.56,0,0,1,0,.53A1.78,1.78,0,0,1,149.73,144.82Zm-6.47,1.36Zm.18,2a2,2,0,0,0,.08-.49,1.44,1.44,0,0,0-.19-.5,2.41,2.41,0,0,1-.16-.54,1.71,1.71,0,0,1,.09-.45,25,25,0,0,0-2.12,1.6h0a1.38,1.38,0,0,0,0,.45,1.78,1.78,0,0,0,.21.52,1.35,1.35,0,0,1,.22.47,1.61,1.61,0,0,1,0,.49,23.17,23.17,0,0,1,2-1.6Zm-11.67,20.91a1.4,1.4,0,0,0,.33.31,2.39,2.39,0,0,0,.54.15,1.31,1.31,0,0,1,.52.11,1.46,1.46,0,0,1,.37.33c-.07-.84-.09-1.69-.08-2.53v0a1.65,1.65,0,0,0-.34-.36,1.52,1.52,0,0,0-.51-.16,2,2,0,0,1-.53-.2,1.81,1.81,0,0,1-.29-.33,26,26,0,0,0,0,2.65Zm14.4-22.65h0a2,2,0,0,0,.14-.47,1.38,1.38,0,0,0-.13-.53,2.62,2.62,0,0,1-.09-.56,1.59,1.59,0,0,1,.16-.41h0a26.13,26.13,0,0,0-2.31,1.29v0a1.34,1.34,0,0,0-.1.44,2.15,2.15,0,0,0,.14.54,1.54,1.54,0,0,1,.17.51,1.58,1.58,0,0,1-.1.48Q145.06,147,146.17,146.42Zm30.4,37.49a19.21,19.21,0,0,0-1.79,2.33l-.22.32a1.8,1.8,0,0,0,.17.51c.08.14.17.37.26.51a2,2,0,0,1,.14.91,9.4,9.4,0,0,0,1.8-2.31l.26-.41c0-.11,0-.22-.07-.33a1.77,1.77,0,0,0-.18-.45c-.08-.13-.24-.16-.3-.38a2.8,2.8,0,0,1-.06-.71Zm-5,6.55a4.39,4.39,0,0,0,.76-1.51c0-.17.21-.57.25-.72,0,0-1.45-.27-1.59-1-.54,1.59-.71,2.32-1.61,2.84-.2.17,0,0,0,0a1.63,1.63,0,0,0,0,.58,2.54,2.54,0,0,0,.14.47,3.15,3.15,0,0,0,.3.47A4.21,4.21,0,0,0,171.54,190.46Zm-2.42-.8a2.1,2.1,0,0,0,.62-.82l.21-.53a3.19,3.19,0,0,0-3,.32c-.16.11-.44.19-.44.44h0s-.24,1.46.29,1.61a3.16,3.16,0,0,1,.93-.56,3.32,3.32,0,0,1,1.1-.41Zm7,1.3s.51-1.67,1.4-1.76l-.24,0a4.44,4.44,0,0,0-2.6.48c-.69.37-1.77,1.26-1.79,1.86a4.32,4.32,0,0,1,2.17-.11C175.15,191.41,175.37,191.18,176.12,191Zm-3.23-2.14c0,.1-.12.33-.2.56s-.32.61-.34.68.93-.07,2.16-1v0a1.3,1.3,0,0,0,.05-.44,2.93,2.93,0,0,0-.15-.6c-.05-.14-.11-.29-.17-.42a1.32,1.32,0,0,1-.13-.38c-.11.17-.76.9-.76.9-.19.19-.32.3-.32.3s-.08.32-.13.46Zm-4,1.53a2.12,2.12,0,0,0,0,.56,3.89,3.89,0,0,0,.12.49c.21.65.33.58.33.58a9.59,9.59,0,0,1-3.25,1s0-.37.08-.47a1.25,1.25,0,0,0,.12-.41,1.52,1.52,0,0,1,.37-.75,17,17,0,0,0,2-.79Zm3.88-5.42a4.75,4.75,0,0,0-1.54,1.87h0c-.13.61,1.57.85,1.57.85h0c.33-.89.77-1.42,1.28-1.54a18,18,0,0,1,1.33-1.69,2.76,2.76,0,0,0-2.64.5ZM134,159.7a1.37,1.37,0,0,1,.44.3,1.57,1.57,0,0,1,.22.45,24.09,24.09,0,0,1,.9-2.37h0a1,1,0,0,0-.58-.8,2.34,2.34,0,0,1-.4-.37,1.69,1.69,0,0,1-.15-.43c-.38.8-.73,1.62-1,2.45v0a1.38,1.38,0,0,0,.18.39A2.12,2.12,0,0,0,134,159.7ZM132.19,163Zm-.36,2.65a1.64,1.64,0,0,0,.29.35,2.44,2.44,0,0,0,.53.21,1.58,1.58,0,0,1,.5.18,1.89,1.89,0,0,1,.32.37q.08-1.27.27-2.52h0a1.64,1.64,0,0,0-.29-.4,1.21,1.21,0,0,0-.49-.22,2.62,2.62,0,0,1-.49-.27,1.85,1.85,0,0,1-.25-.37,25.21,25.21,0,0,0-.36,2.63Zm.78-3a2.36,2.36,0,0,0,.48.29,1.44,1.44,0,0,1,.48.24,1.62,1.62,0,0,1,.27.41h0a23.12,23.12,0,0,1,.58-2.46h0a1.64,1.64,0,0,0-.24-.43,1.21,1.21,0,0,0-.46-.28,3.72,3.72,0,0,1-.45-.33,1.25,1.25,0,0,1-.2-.4h0a24.85,24.85,0,0,0-.71,2.56v0a1.55,1.55,0,0,0,.26.37Zm5.53-11.87Zm1.14,1.31a23.21,23.21,0,0,1,1.73-1.84h0a1.67,1.67,0,0,0,0-.5,1.42,1.42,0,0,0-.25-.47,2.34,2.34,0,0,1-.23-.51,1.71,1.71,0,0,1,0-.45q-1,.88-1.89,1.86v0a1.42,1.42,0,0,0,0,.46,2.31,2.31,0,0,0,.28.48,1.2,1.2,0,0,1,.29.45,1.35,1.35,0,0,1,0,.49ZM135.64,157a2,2,0,0,1,.16.47,23.76,23.76,0,0,1,1.2-2.22h0a1.36,1.36,0,0,0-.12-.48,1.22,1.22,0,0,0-.36-.39,2.94,2.94,0,0,1-.35-.44,1.64,1.64,0,0,1-.09-.44,25,25,0,0,0-1.35,2.29h0a1.55,1.55,0,0,0,.14.43,1.85,1.85,0,0,0,.39.4A1.67,1.67,0,0,1,135.64,157Zm1.63-2.81a1.57,1.57,0,0,1,.09.48c.46-.71.95-1.39,1.48-2.06l0,0a1.34,1.34,0,0,0-.05-.49,1.28,1.28,0,0,0-.3-.43,2.36,2.36,0,0,1-.29-.48,1.08,1.08,0,0,1,0-.44,24,24,0,0,0-1.64,2.09h0a1.7,1.7,0,0,0,.08.45,2.36,2.36,0,0,0,.33.45A1.35,1.35,0,0,1,137.27,154.17Zm28.85,38.77Zm.17-49.95Zm-.34,1.34a1.4,1.4,0,0,1-.44.22h0a21.75,21.75,0,0,1,2.37.89v0a1.83,1.83,0,0,0,.46-.18,1.23,1.23,0,0,0,.34-.41,2.4,2.4,0,0,1,.38-.4,1.23,1.23,0,0,1,.42-.14,23.83,23.83,0,0,0-2.44-1h0a1.69,1.69,0,0,0-.41.19,2.51,2.51,0,0,0-.35.44,1.37,1.37,0,0,1-.3.45Zm-3.14-.83a1.88,1.88,0,0,1-.42.27c.83.15,1.65.35,2.46.58l0,0a1.64,1.64,0,0,0,.43-.24,1.5,1.5,0,0,0,.28-.47,2.36,2.36,0,0,1,.33-.45,1.5,1.5,0,0,1,.4-.2c-.84-.28-1.69-.51-2.56-.71h0a1.81,1.81,0,0,0-.37.24,2.66,2.66,0,0,0-.3.47,1.21,1.21,0,0,1-.22.52Zm-3.24-.42a1.26,1.26,0,0,1-.37.32c.84,0,1.69.13,2.52.25h0a2,2,0,0,0,.4-.29,1.45,1.45,0,0,0,.22-.49,2.34,2.34,0,0,1,.27-.49,1.51,1.51,0,0,1,.37-.25,25.22,25.22,0,0,0-2.63-.37h0a1.64,1.64,0,0,0-.35.29,2.31,2.31,0,0,0-.22.51,1.36,1.36,0,0,1-.19.52Zm0-1.38Zm15.65,6.36Zm-.37.82a1.6,1.6,0,0,1-.44.29,2.07,2.07,0,0,1-.5,0c.65.55,1.27,1.13,1.85,1.73v0a1.61,1.61,0,0,0,.49,0,1.4,1.4,0,0,0,.47-.24,2.94,2.94,0,0,1,.51-.23,1.6,1.6,0,0,1,.44,0,25.64,25.64,0,0,0-1.87-1.89h0a1.7,1.7,0,0,0-.45,0,2.34,2.34,0,0,0-.49.27Zm2.82,1.6Zm-5.46-3.63a1.45,1.45,0,0,1-.4.34,1.64,1.64,0,0,1-.49.1,21.37,21.37,0,0,1,2.06,1.47v0a1.6,1.6,0,0,0,.49-.05,1.28,1.28,0,0,0,.43-.3,2.15,2.15,0,0,1,.49-.28,1.08,1.08,0,0,1,.44,0c-.67-.58-1.37-1.13-2.09-1.64h0a1.63,1.63,0,0,0-.44.08A2.1,2.1,0,0,0,172.19,146.85Zm-2.87-1.67a1.48,1.48,0,0,1-.35.4,1.63,1.63,0,0,1-.47.16,23.93,23.93,0,0,1,2.23,1.2v0a2.11,2.11,0,0,0,.48-.12,1.67,1.67,0,0,0,.39-.36,2.42,2.42,0,0,1,.43-.36,1.72,1.72,0,0,1,.44-.09c-.73-.48-1.5-.93-2.28-1.34h0a1.64,1.64,0,0,0-.43.13,2.46,2.46,0,0,0-.41.38Zm3.14.81Zm-6.24,51a3.88,3.88,0,0,0,1.36-.79,1.09,1.09,0,0,0,.23-.47h0a2.67,2.67,0,0,1-2-1.37,1.83,1.83,0,0,1-2-.55,4.46,4.46,0,0,0,.49,1.38,4.35,4.35,0,0,0,1.89,1.81Zm10.95-45.75a1.21,1.21,0,0,1-.47.23,1.6,1.6,0,0,1-.49,0,23,23,0,0,1,1.6,1.95v0a1.61,1.61,0,0,0,.48.08,1.5,1.5,0,0,0,.5-.18,2,2,0,0,1,.53-.16,1.78,1.78,0,0,1,.45.08c-.5-.72-1-1.43-1.61-2.11h0a1.71,1.71,0,0,0-.45,0A2.5,2.5,0,0,0,177.17,151.23Zm-8.48,43.41a2.74,2.74,0,0,1,1-.3,8.61,8.61,0,0,1,.56-1.72,6.45,6.45,0,0,0-3.56,1.75l.42.25,1,.45Zm-4.85-.85Zm15.91-40.61Zm-13.09,38.14Zm0,0Zm-1.59-1.45a4.61,4.61,0,0,0-1.32,3.14h0s1,1.09,1.78.66a4.16,4.16,0,0,1,.46-2.12l.05-.28a2.45,2.45,0,0,1-.58-1.76Zm-9-48.12Zm-3,1.8a1.62,1.62,0,0,1-.27.41c.82-.18,1.65-.31,2.48-.41h0a1.48,1.48,0,0,0,.31-.39,1.3,1.3,0,0,0,.09-.52,2.59,2.59,0,0,1,.13-.55,1.87,1.87,0,0,1,.29-.34c-.87.07-1.75.18-2.63.33h0a1.18,1.18,0,0,0-.26.37,2,2,0,0,0-.08.55A1.64,1.64,0,0,1,153.08,143.53Zm3.23-.44a1.46,1.46,0,0,1-.33.37,23.82,23.82,0,0,1,2.53-.07l0,0a1.65,1.65,0,0,0,.36-.34,1.45,1.45,0,0,0,.16-.51,2.07,2.07,0,0,1,.2-.52,1.53,1.53,0,0,1,.33-.29,26,26,0,0,0-2.65,0h0a1.93,1.93,0,0,0-.31.33,2.55,2.55,0,0,0-.15.54,1.39,1.39,0,0,1-.1.53Zm4,50.18a2.38,2.38,0,0,1-.14.54,1.38,1.38,0,0,1-.3.34,25.7,25.7,0,0,0,2.64-.31v0a1.14,1.14,0,0,0,.26-.36,2.09,2.09,0,0,0,.08-.55,1.64,1.64,0,0,1,0-.54,1.42,1.42,0,0,1,.28-.41,23.08,23.08,0,0,1-2.49.41h0a1.52,1.52,0,0,0-.32.39A1.5,1.5,0,0,0,160.33,193.27Zm18.75-4.57a3,3,0,0,0-1.18-2.81l-1.21,1.7a1.08,1.08,0,0,1,.43,1.18s2-.23,2-.07Zm3.49,3.76.88.47.45-2a7.55,7.55,0,0,0-.83-.13Zm-.16-1.73-.52,1.58.24.06.53-1.57Zm-.75-11.33Zm-1.7,3Zm.41-3.48a1.63,1.63,0,0,1-.16-.47,23.93,23.93,0,0,1-1.2,2.23l0,0a1,1,0,0,0,.47.88,2.42,2.42,0,0,1,.36.43,1.64,1.64,0,0,1,.09.44c.48-.74.93-1.5,1.34-2.28v0a1.64,1.64,0,0,0-.13-.43,3,3,0,0,0-.39-.4,1.38,1.38,0,0,1-.39-.37Zm-.14,12.84,1.21.35.59-1.67a1.52,1.52,0,0,0-1.81,1.31Zm-1.48-10a2,2,0,0,1-.09-.48c-.46.71-.95,1.39-1.47,2h0a2.75,2.75,0,0,0,0,.5,1.38,1.38,0,0,0,.25.48,2,2,0,0,1,.23.52,2.67,2.67,0,0,1,.08.48c.57-.67,1.22-1.49,1.74-2.21v0a1.76,1.76,0,0,0-.07-.45,2.46,2.46,0,0,0-.34-.44,1.61,1.61,0,0,1-.36-.42Zm-8.37,13a1.72,1.72,0,0,1,.45,2c1.47-.41,2.12-2.61,2.12-2.61a5.69,5.69,0,0,0-1.81.36Zm4.06-2.75a7.75,7.75,0,0,0-3.26.37l-.84,1.79,2-.41c.58-.16.85,0,1.73.05,0,0,1-1.71.36-1.8Zm-4.52,3.15a2.7,2.7,0,0,1-1.32.59h0c.18.83-1.5,1.59-1.5,1.59a4.57,4.57,0,0,0,2.76-.17h0a1.61,1.61,0,0,0,.06-2Zm11.2-5.08h0c-.58-.25-1.09-.47-1.35-.55a5.74,5.74,0,0,0-1-.19,1.8,1.8,0,0,0-1.92,1.54,5.46,5.46,0,0,1,2.29.47l.39.22c0-.06.43-1.77,1.61-1.49Zm-1.57,1.51v0h0Zm-2.9-.41c-.14.28-1.08.63-1.39.72.3.39-.46,1.93-.46,1.93a3.7,3.7,0,0,0,2.23-.64,2.84,2.84,0,0,0,1.11-1.41,3,3,0,0,1-1.49-.6Zm-44.86-21.3Zm50-13a1.69,1.69,0,0,0-.43-.15,2.1,2.1,0,0,0-.56.07,1.61,1.61,0,0,1-.53.1,1.79,1.79,0,0,1-.46-.16c.38.75.73,1.52,1,2.3v0a1.51,1.51,0,0,0,.45.2,1.35,1.35,0,0,0,.53,0,2.09,2.09,0,0,1,.56,0,1.65,1.65,0,0,1,.41.18c-.29-.83-.63-1.65-1-2.44Zm1,2.47Zm-.78,16.86a1.43,1.43,0,0,1-.44-.3,2,2,0,0,1-.22-.44,22.39,22.39,0,0,1-.89,2.36h0a1.52,1.52,0,0,0,.18.46,1.23,1.23,0,0,0,.41.34,2.34,2.34,0,0,1,.39.38,1.35,1.35,0,0,1,.16.42,26.21,26.21,0,0,0,1-2.44v0a1.69,1.69,0,0,0-.19-.41,2.24,2.24,0,0,0-.43-.33Zm-12.14,18.93h0Zm13.69-32a2.57,2.57,0,0,0-.55-.12,1.37,1.37,0,0,1-.53-.08,1.85,1.85,0,0,1-.39-.3,23.83,23.83,0,0,1,.23,2.52v0a1.61,1.61,0,0,0,.36.33,1.18,1.18,0,0,0,.52.13,3.27,3.27,0,0,1,.53.17,1.62,1.62,0,0,1,.32.32h0a26.49,26.49,0,0,0-.14-2.66h0A1.6,1.6,0,0,0,183.6,163.1Zm-3.41-9.26h0a1.65,1.65,0,0,0-.44-.1,2.52,2.52,0,0,0-.54.14,1.34,1.34,0,0,1-.51.17,1.58,1.58,0,0,1-.48-.1h0c.48.7.92,1.41,1.33,2.15v0a1.59,1.59,0,0,0,.47.14,1.31,1.31,0,0,0,.52-.11,1.77,1.77,0,0,1,.56-.09,1.23,1.23,0,0,1,.42.14,25.2,25.2,0,0,0-1.3-2.33Zm2.47,6a2.62,2.62,0,0,0-.56,0,1.56,1.56,0,0,1-.53,0,1.49,1.49,0,0,1-.43-.23c.28.81.53,1.61.73,2.43v0a1.54,1.54,0,0,0,.42.26,1.4,1.4,0,0,0,.54,0,2.57,2.57,0,0,1,.55.06,1.39,1.39,0,0,1,.38.25h0a25.72,25.72,0,0,0-.67-2.58h0a1.62,1.62,0,0,0-.42-.2Zm1.16,13Zm-.41.37a2.59,2.59,0,0,0-.47-.29,1.35,1.35,0,0,1-.48-.24,2.29,2.29,0,0,1-.28-.41,23.07,23.07,0,0,1-.57,2.46h0a1.49,1.49,0,0,0,.23.43,1.46,1.46,0,0,0,.46.28,1.87,1.87,0,0,1,.45.33,1.53,1.53,0,0,1,.21.4,24.8,24.8,0,0,0,.7-2.56h0a1.7,1.7,0,0,0-.26-.38Zm-.45,3Zm1.29-9.4a1.22,1.22,0,0,0-.33-.31,2.39,2.39,0,0,0-.54-.15,1.35,1.35,0,0,1-.52-.11,1.46,1.46,0,0,1-.37-.33,23.84,23.84,0,0,1,.08,2.53v0a1,1,0,0,0,.85.52,2.07,2.07,0,0,1,.52.2,1.22,1.22,0,0,1,.3.34,26.25,26.25,0,0,0,0-2.66Zm-.08,3.43a1.3,1.3,0,0,0-.28-.34,2,2,0,0,0-.52-.22,1.58,1.58,0,0,1-.5-.18,1.65,1.65,0,0,1-.33-.37,23.44,23.44,0,0,1-.25,2.51v0a2,2,0,0,0,.29.4,1.47,1.47,0,0,0,.49.23,2.34,2.34,0,0,1,.49.27,1.45,1.45,0,0,1,.25.36,25.22,25.22,0,0,0,.37-2.63Zm-2.67-14.09Zm-42.66,28.49a1.49,1.49,0,0,1,.48-.22,1.55,1.55,0,0,1,.48,0c-.56-.63-1.1-1.28-1.6-2v0a1.93,1.93,0,0,0-.48-.08,1.44,1.44,0,0,0-.5.19,2.41,2.41,0,0,1-.54.16,1.64,1.64,0,0,1-.44-.09,25.57,25.57,0,0,0,1.6,2.12h0a1.35,1.35,0,0,0,.45,0A1.91,1.91,0,0,0,138.84,184.64Zm-2.59-1.95Zm2.11,2.71ZM165,196.83a1.92,1.92,0,0,0-.26.32l.06-.11a3,3,0,0,0-.4.94c-.07.27-.14.83-.24,1.45h0c.4-1.16,2.12-.55,2.12-.55v0l.14-.5c.08-.24.17-.48.27-.71A2.63,2.63,0,0,1,165,196.83Zm-28.66-14.69a2.69,2.69,0,0,0,.54-.14,1.54,1.54,0,0,1,.51-.17,1.65,1.65,0,0,1,.48.1,23.93,23.93,0,0,1-1.33-2.15v0a1.37,1.37,0,0,0-.48-.13,1.31,1.31,0,0,0-.52.11,2.62,2.62,0,0,1-.56.09,1.56,1.56,0,0,1-.41-.15,24,24,0,0,0,1.31,2.31h0A1.69,1.69,0,0,0,136.29,182.14Zm7.54,6.89a1.35,1.35,0,0,1,.4-.35,2.05,2.05,0,0,1,.48-.1,21.23,21.23,0,0,1-2.05-1.47v0a1.6,1.6,0,0,0-.49.05,1.48,1.48,0,0,0-.43.31,2.92,2.92,0,0,1-.48.29,1.6,1.6,0,0,1-.44,0,23.85,23.85,0,0,0,2.09,1.63h0a1.76,1.76,0,0,0,.45-.07A3.72,3.72,0,0,0,143.83,189Zm-3-1.22Zm-8.69-15.32a1.64,1.64,0,0,0,.37.26,2.61,2.61,0,0,0,.55.08,1.41,1.41,0,0,1,.54,0,1.62,1.62,0,0,1,.41.27,23.05,23.05,0,0,1-.4-2.49v0a1.61,1.61,0,0,0-.38-.31,1.35,1.35,0,0,0-.52-.11,2.68,2.68,0,0,1-.56-.13,1.38,1.38,0,0,1-.34-.3,25.7,25.7,0,0,0,.31,2.64Zm2.37,7.24Zm-1.56-3.9a1.53,1.53,0,0,0,.4.21,2.18,2.18,0,0,0,.57,0,1.24,1.24,0,0,1,.54,0,1.63,1.63,0,0,1,.44.21,25,25,0,0,1-.73-2.42v0a1.83,1.83,0,0,0-.42-.26,1.4,1.4,0,0,0-.54,0,2.57,2.57,0,0,1-.55-.06,1.19,1.19,0,0,1-.38-.25,24.86,24.86,0,0,0,.67,2.57Zm1.25,3.21a1.5,1.5,0,0,0,.42.15,2.1,2.1,0,0,0,.56-.07,1.61,1.61,0,0,1,.53-.1,2,2,0,0,1,.47.16,24,24,0,0,1-1-2.31l0,0a1.89,1.89,0,0,0-.46-.2,1.37,1.37,0,0,0-.53.05,2.6,2.6,0,0,1-.56,0,1.69,1.69,0,0,1-.41-.19c.29.83.62,1.65,1,2.45Zm-1-2.47Zm8,10.45a1.25,1.25,0,0,1,.44-.29,1.63,1.63,0,0,1,.49,0,23.1,23.1,0,0,1-1.84-1.73v0a1.67,1.67,0,0,0-.5,0,1.45,1.45,0,0,0-.46.24,2.34,2.34,0,0,1-.51.23,1.71,1.71,0,0,1-.45,0c.59.66,1.21,1.3,1.86,1.9h0a1.7,1.7,0,0,0,.45,0,2.46,2.46,0,0,0,.5-.28Zm17.95,7.18a1.93,1.93,0,0,0,.31-.33,2.72,2.72,0,0,0,.15-.54,1.4,1.4,0,0,1,.11-.53,1.85,1.85,0,0,1,.32-.37,23.68,23.68,0,0,1-2.53.08h0a1.67,1.67,0,0,0-.36.34,1.38,1.38,0,0,0-.16.51,3.05,3.05,0,0,1-.2.53,1.58,1.58,0,0,1-.34.29,23.61,23.61,0,0,0,2.66,0Zm4.24,8.05,1.94.69.06-1-1.66-.46A5.82,5.82,0,0,0,163.37,202.25Zm-6.9-8.07Zm7.39,6.95,1.61.4.05-.25-1.61-.4Zm.09-.73,1.73.38.35-1.2A1.53,1.53,0,0,0,164,200.4Zm-7.51-7.6a1.7,1.7,0,0,1,.38-.33,21.08,21.08,0,0,1-2.52-.25v0a2,2,0,0,0-.4.29,1.51,1.51,0,0,0-.21.49,2.12,2.12,0,0,1-.27.49,1.37,1.37,0,0,1-.37.26c.87.16,1.75.28,2.63.36h0a1.35,1.35,0,0,0,.35-.28,2.66,2.66,0,0,0,.21-.53A1.34,1.34,0,0,1,156.44,192.8Zm-6.38-1.26a2.35,2.35,0,0,1,.45-.22,21.75,21.75,0,0,1-2.37-.89v0a1.83,1.83,0,0,0-.46.18,1.36,1.36,0,0,0-.34.41,2.52,2.52,0,0,1-.39.41,1.88,1.88,0,0,1-.42.14c.8.39,1.61.73,2.44,1h0a1.92,1.92,0,0,0,.41-.19,2.51,2.51,0,0,0,.35-.44A1.54,1.54,0,0,1,150.06,191.54Zm-3.52.05Zm.15-.89a1.72,1.72,0,0,1,.36-.4,1.84,1.84,0,0,1,.47-.15,23.93,23.93,0,0,1-2.23-1.2v0a1.53,1.53,0,0,0-.47.11,1.41,1.41,0,0,0-.4.37,2.86,2.86,0,0,1-.43.35,1.72,1.72,0,0,1-.44.09,26.25,26.25,0,0,0,2.28,1.35l0,0a1.26,1.26,0,0,0,.43-.13,1.85,1.85,0,0,0,.4-.39Zm6.52,1.68a2,2,0,0,1,.41-.28,23.07,23.07,0,0,1-2.46-.57v0a1.54,1.54,0,0,0-.44.23,1.41,1.41,0,0,0-.28.45,2,2,0,0,1-.34.46,1.53,1.53,0,0,1-.4.21c.84.27,1.69.51,2.56.7h0a1.73,1.73,0,0,0,.38-.24,2.31,2.31,0,0,0,.28-.48,1.47,1.47,0,0,1,.27-.47Zm-.16,1.37Zm-3.32-.85Z"/><path id="flor" class="cls-2" d="M144.48,175.21l-.1-1.7,1.59-.61-1.65-.44-.11-1.7-.91,1.43-1.64-.42,1.08,1.31-.92,1.43,1.59-.61Zm12.24-1.88,0,0a24,24,0,0,0-2.4,1.86c-1.39-1.42-3.85-2.87-5.76-1.36-1.63,1.29-1.33,3.55,0,4.93-2.35,1.83-5.68,1-7.56-1.05a6.64,6.64,0,0,1,1.43-10.23c5.21-3,12,2.24,14.27,5.82m14.35-13.46-.6-1.59,1.33-1.06-1.7.07-.6-1.59-.44,1.66-1.7.07,1.41.94-.45,1.63,1.33-1.06Zm-7.74,9.66c-1.95-3.77-3.11-12.26,2.1-15.27a6.64,6.64,0,0,1,9.57,3.87c.84,2.65-.11,5.95-2.87,7.07-.51-1.88-2.32-3.28-4.25-2.51-2.26.91-2.23,3.76-1.7,5.65-1,.35-2,.82-2.82,1.18Zm-1.93,4.26c3.37-1.94,5.89-3.83,5.77-4s-3,1-6.4,3-5.9,3.85-5.78,4.06,3.05-1.06,6.42-3m.42.77c-3.89,2.25-7.37,3.49-7.78,2.78s2.39-3.09,6.29-5.34,7.37-3.49,7.78-2.78-2.41,3.1-6.3,5.35m5.84-3.08a3.27,3.27,0,0,0,5.51-.14,3.64,3.64,0,0,1-1.28,4.67c-2.2,1.27-5.39-1.33-6.46-2.77h0a27.46,27.46,0,0,0,2.25-1.78Zm-8.8,5.55c.73,1.62,1.4,5.75-.8,7a3.64,3.64,0,0,1-4.69-1.22c2.42-.19,3.8-2.26,2.86-4.75v0a27.29,27.29,0,0,0,2.64-1Zm-11.12-26.86A29.09,29.09,0,0,0,152,151a9.64,9.64,0,0,1,7.26,4.39c2.34,4,1,9.43,3.36,14.5a23.31,23.31,0,0,0-2.23,1.13c-2.75-4.94-6.76-11.47-9.86-16.07,2.44,5,6.08,11.72,9,16.57-.72.42-1.42.88-2.1,1.37-3.2-4.58-8.6-6.15-10.87-10.16a9.55,9.55,0,0,1-.18-8.48,27.11,27.11,0,0,0,1.41-4.06m19.81,34.3a11.25,11.25,0,0,1-7.16-1.69,12.59,12.59,0,0,0-.84-6c.71-.34,1.47-.74,2.23-1.18a45.7,45.7,0,0,0,3.68,5.29,47.12,47.12,0,0,0-2.74-5.83c.76-.44,1.47-.89,2.13-1.34a12.63,12.63,0,0,0,4.81,3.75,11.13,11.13,0,0,1-2.11,7"/></svg>