<svg id="Capa_1" data-name="Capa 1" xmlns="http://www.w3.org/2000/svg" viewBox="0 0 256 256"><defs><style>.cls-1{fill:#ffd400;}.cls-2{fill:#fff;}.cls-3{fill:#0b6822;}.cls-4{fill:#004c98;}</style></defs><title>progresiones</title><rect class="cls-1" x="13" y="13" width="230" height="230"/><path class="cls-2" d="M74.9,245.13q-1.29-4.77-2.65-9.41c-17.25,1.05-37.93-2.9-59.51-12a2.19,2.19,0,0,1,.71-4.2c19-1.19,35.84-4.06,50.41-8.41q-3.11-8-6.55-15.42a157.27,157.27,0,0,1-44.84,1l.5-4.35a153.38,153.38,0,0,0,42.4-.76q-4.26-8.79-9-16.83A72.1,72.1,0,0,1,27.47,167a131.34,131.34,0,0,1-13.84,5l-1.25-4.19q5.34-1.59,10.42-3.61-5.43-3.45-11.13-7.9l2.68-3.45a130.63,130.63,0,0,0,13.39,9.26c2.65-1.19,5.26-2.47,7.8-3.84a170.62,170.62,0,0,0-24-26.65l2.91-3.26a175.79,175.79,0,0,1,24.91,27.75,119.07,119.07,0,0,0,17.17-12.26,237.08,237.08,0,0,1-34.71-36.71q-4.32-1.32-8.61-2.36a2.19,2.19,0,0,1,0-4.26c1-.23,2.08-.49,3.12-.76-.87-1.21-1.72-2.44-2.57-3.68s-1.45-2.32-2.15-3.3l3.56-2.53c.74,1,1.49,2.24,2.24,3.43q1.66,2.43,3.36,4.79,23.25-7.42,43.37-28.12a169.79,169.79,0,0,0-52-14l.48-4.34a173.12,173.12,0,0,1,54.66,15Q87.78,44.69,104.64,8.49a2.16,2.16,0,0,1,1.55-1.22,2.2,2.2,0,0,1,1.9.53q4.39,4,8.36,8.24c.4-2.52.79-5.08,1.15-7.66l4.33.61q-.81,5.68-1.73,11.19a139.47,139.47,0,0,1,11.06,14.47,258.69,258.69,0,0,0-2.1-25.82l4.32-.58a258.63,258.63,0,0,1,2.25,33.62c17.12,29.91,19.81,63.18,6.23,92.95a98.37,98.37,0,0,1-12.78,20.73,57.24,57.24,0,0,1-6.26,19.28c3.55.86,7.1,1.55,10.63,2,22.73,3.19,42.84-1.84,58.21-14.54,34.3-28.14,37.92-87.86,9.22-152.17l4-1.79c29.52,66.16,25.42,127.92-10.44,157.33-16.33,13.51-37.63,18.87-61.59,15.5a113.38,113.38,0,0,1-12.33-2.45A61.46,61.46,0,0,1,116,185c.15.64.28,1.29.41,1.93,2.36,12.07.21,23-6.2,31.62-7.06,9.46-18.85,15.09-33.56,16.79q1.25,4.28,2.42,8.67Zm-51.63-22c17.15,6.13,33.62,8.81,47.63,8.15q-2.58-8.28-5.48-16.08A220.28,220.28,0,0,1,23.27,223.14Zm46.32-9.25q3.06,8.28,5.78,17.06c13.91-1.45,25-6.48,31.38-15,5.43-7.3,7.38-16.57,5.65-26.89C102.22,199.48,87.76,207.89,69.59,213.89Zm-7.85-19q3.3,7.24,6.3,14.95c18.81-6.18,33.43-15,43.2-26a61.79,61.79,0,0,0-3.09-8.6A123,123,0,0,1,61.74,194.86ZM52,175.76q4.11,7.23,7.84,15a119.83,119.83,0,0,0,43.73-17.7,155.54,155.54,0,0,1-15.75-7.52,58.58,58.58,0,0,1-24,10l-.36-2.16.35,2.16A42.51,42.51,0,0,1,52,175.76Zm61.48.94c.39,1,.76,2,1.09,3.07.56-.74,1.09-1.49,1.6-2.25C115.26,177.26,114.36,177,113.47,176.7Zm-.77-4.85q2.91,1,5.84,1.82a52.84,52.84,0,0,0,4.78-11.45A104.48,104.48,0,0,1,112.7,171.85Zm-63.57-1a39.64,39.64,0,0,0,13.95.36,53.86,53.86,0,0,0,20.54-8.06A189.09,189.09,0,0,1,60,146.74a124,124,0,0,1-18.06,13Q45.65,165.13,49.13,170.89Zm-16.67-6.1A70.36,70.36,0,0,0,43,169.28c-1.59-2.51-3.22-5-4.89-7.38C36.25,162.91,34.38,163.87,32.46,164.79Zm59.18-2.1q6.67,3.54,13.4,6.29a94,94,0,0,0-7.58-11.49Q94.63,160.28,91.64,162.69Zm8.86-8.37a97.47,97.47,0,0,1,9.26,14.27A97.7,97.7,0,0,0,125,153.76c.2-1.72.33-3.46.37-5.23a61.46,61.46,0,0,0-5.17-25.41A114.6,114.6,0,0,1,100.5,154.32ZM63.26,143.8a182.79,182.79,0,0,0,24.3,16.64,70.56,70.56,0,0,0,7.23-6.3,134.25,134.25,0,0,0-21.6-20.59A132.11,132.11,0,0,1,63.26,143.8ZM76,130.22A138.64,138.64,0,0,1,97.81,151c7.92-8.77,14.66-20,20-33a93.12,93.12,0,0,0-19-24.74A171.45,171.45,0,0,1,76,130.22Zm46.44-12.52a67.44,67.44,0,0,1,7.29,29.79A94.49,94.49,0,0,0,138,133c11.94-26.16,10.67-55.23-2.42-82.08C134.66,75.62,130.05,98.47,122.46,117.7Zm-93.12-8A229.47,229.47,0,0,0,59.83,141a129.85,129.85,0,0,0,9.82-10.06c-3.36-2.44-6.88-4.77-10.53-7A160.6,160.6,0,0,0,29.34,109.68Zm-4.89-6.26a166.88,166.88,0,0,1,37,16.79c3.84,2.33,7.55,4.8,11.09,7.37a167.41,167.41,0,0,0,22.87-37.4,128.27,128.27,0,0,0-27-17.82q-20.67,21.71-44.8,29.86Zm76.18-14.3a100.57,100.57,0,0,1,19.19,23.63c7.34-20,11.47-43.93,11.56-69.65a130.49,130.49,0,0,0-12.17-17.33Q112.64,61.6,100.63,89.12ZM71.41,69.05a133.14,133.14,0,0,1,25.77,17q12-27.91,18.36-64.56-3.89-4.32-8.22-8.46Q91.06,47.19,71.41,69.05Z"/><path class="cls-3" d="M38.14,144.92a9.08,9.08,0,0,1,9.25,9,9.18,9.18,0,0,1-18.35,0,9,9,0,0,1,9.1-9M217.56,45.56a9.07,9.07,0,0,0-9.1,9.12,9.11,9.11,0,1,0,18.21,0,9.08,9.08,0,0,0-9.11-9.12"/><path class="cls-3" d="M191,179.92l4.48,18.51c-10.26,8.25-2,18.08,5.78,18.37l9.68,30.37h-7.51L175.67,199Zm-48-37.75L104,74.06l-1.45-2.46-1.87-.87.86,3.18,16,50.33c7.8.29,16,10.27,5.78,18.51l4.47,18.37Z"/><path class="cls-2" d="M175.67,199l27.74,48.16h-9.54l-15.6-17.07c3.76-6.94-.72-19.09-12.86-14.31l-13.72-13.16Zm-8.52-60.45L153.42,125.4c-12.13,4.77-16.61-7.38-13-14.32L105,71.89l-2.31-2.46-.15,2.17L104,74.06l39,68.11Z"/><path class="cls-4" d="M223.49,256H32.36A32.42,32.42,0,0,1,0,223.6V32.4A32.42,32.42,0,0,1,32.36,0H223.49A32.5,32.5,0,0,1,256,32.4V223.6A32.5,32.5,0,0,1,223.49,256ZM32.36,17.08A15.52,15.52,0,0,0,17.06,32.4V223.6a15.52,15.52,0,0,0,15.3,15.32H223.49a15.4,15.4,0,0,0,15.45-15.32V32.4a15.4,15.4,0,0,0-15.45-15.32Z"/><circle id="fondo" class="cls-4" cx="159.7" cy="171.09" r="33.49"/><path id="rizo" class="cls-2" d="M146.87,145.63a1.34,1.34,0,0,0-.1-.52,2.78,2.78,0,0,1-.07-.57,1.4,1.4,0,0,1,.16-.4v0a24.68,24.68,0,0,1,2.45-1,1.59,1.59,0,0,0-.19.42,2,2,0,0,0,0,.55,1.63,1.63,0,0,1,.05.54,1.78,1.78,0,0,1-.21.44h0a24,24,0,0,0-2.31,1A1.62,1.62,0,0,0,146.87,145.63Zm2.46-2.52Zm.34,1.71c.8-.29,1.61-.53,2.42-.74h0a2.26,2.26,0,0,0,.26-.42,1.63,1.63,0,0,0,0-.54,2.51,2.51,0,0,1,.06-.55,1.36,1.36,0,0,1,.24-.38h0a23.7,23.7,0,0,0-2.57.67v0a1.53,1.53,0,0,0-.21.4,2.62,2.62,0,0,0,0,.56,1.18,1.18,0,0,1,0,.53A1.78,1.78,0,0,1,149.67,144.82Zm-6.47,1.36Zm.18,2a1.62,1.62,0,0,0,.08-.49,1.43,1.43,0,0,0-.18-.5,2.43,2.43,0,0,1-.17-.54,1.71,1.71,0,0,1,.09-.45,25,25,0,0,0-2.12,1.6h0a1.71,1.71,0,0,0,0,.45,2.57,2.57,0,0,0,.21.52,1.35,1.35,0,0,1,.22.47,1.61,1.61,0,0,1,0,.49,24.87,24.87,0,0,1,2-1.6Zm-11.67,20.91a1.62,1.62,0,0,0,.33.31,2.55,2.55,0,0,0,.54.15,1.31,1.31,0,0,1,.52.11,1.7,1.7,0,0,1,.38.33,23.76,23.76,0,0,1-.08-2.53v0a1.94,1.94,0,0,0-.34-.36,1.57,1.57,0,0,0-.52-.16,1.93,1.93,0,0,1-.52-.2,1.55,1.55,0,0,1-.3-.33c-.05.88-.05,1.77,0,2.65Zm14.4-22.65h0a1.59,1.59,0,0,0,.14-.47,1.37,1.37,0,0,0-.12-.53,2.62,2.62,0,0,1-.09-.56,1.56,1.56,0,0,1,.15-.41h0a26.13,26.13,0,0,0-2.31,1.29v0a1.65,1.65,0,0,0-.1.44,2.69,2.69,0,0,0,.14.54,1.34,1.34,0,0,1,.17.51,1.58,1.58,0,0,1-.1.48Q145,147,146.11,146.42Zm30.4,37.49a20.28,20.28,0,0,0-1.79,2.33l-.21.32a1.52,1.52,0,0,0,.16.51c.08.14.17.37.26.51a1.9,1.9,0,0,1,.14.91,9.16,9.16,0,0,0,1.8-2.31l.26-.41a1.94,1.94,0,0,0-.07-.33,1.77,1.77,0,0,0-.18-.45c-.07-.13-.23-.16-.29-.38a2.81,2.81,0,0,1-.07-.71Zm-5,6.55a4.55,4.55,0,0,0,.75-1.51c0-.17.22-.57.26-.72,0,0-1.45-.27-1.6-1-.54,1.59-.7,2.32-1.6,2.84-.21.17,0,0,0,0a1.89,1.89,0,0,0,0,.58,2,2,0,0,0,.15.47,2.09,2.09,0,0,0,.3.47A4.35,4.35,0,0,0,171.49,190.46Zm-2.43-.8a2,2,0,0,0,.62-.82l.22-.53a3.19,3.19,0,0,0-3,.32c-.16.11-.44.19-.45.44h0s-.24,1.46.29,1.61a3.16,3.16,0,0,1,.93-.56,3.38,3.38,0,0,1,1.11-.41Zm7,1.3s.51-1.67,1.4-1.76l-.24,0a4.41,4.41,0,0,0-2.6.48c-.69.37-1.78,1.26-1.8,1.86a4.32,4.32,0,0,1,2.17-.11C175.09,191.41,175.32,191.18,176.07,191Zm-3.24-2.14c0,.1-.12.33-.2.56s-.32.61-.34.68.93-.07,2.17-1v0a1.6,1.6,0,0,0,0-.44,2,2,0,0,0-.15-.6,2.17,2.17,0,0,0-.17-.42,1.71,1.71,0,0,1-.13-.38c-.11.17-.75.9-.75.9l-.33.3c-.05.15-.08.32-.13.46Zm-4,1.53a1.52,1.52,0,0,0,0,.56,2.68,2.68,0,0,0,.11.49c.21.65.34.58.34.58a9.71,9.71,0,0,1-3.26,1s.06-.37.08-.47a1.25,1.25,0,0,0,.12-.41,1.52,1.52,0,0,1,.37-.75,17.9,17.9,0,0,0,2-.79Zm3.87-5.42a4.83,4.83,0,0,0-1.54,1.87h0c-.13.61,1.57.85,1.57.85h0c.33-.89.78-1.42,1.28-1.54a19.76,19.76,0,0,1,1.33-1.69,2.74,2.74,0,0,0-2.63.5ZM133.91,159.7a1.63,1.63,0,0,1,.44.3,2.35,2.35,0,0,1,.22.45,21.75,21.75,0,0,1,.89-2.37h0a1.83,1.83,0,0,0-.18-.46,1.36,1.36,0,0,0-.41-.34,2.79,2.79,0,0,1-.4-.37,1.36,1.36,0,0,1-.14-.43,25,25,0,0,0-1,2.45v0a1.38,1.38,0,0,0,.18.39A2.18,2.18,0,0,0,133.91,159.7ZM132.14,163Zm-.36,2.65a1.39,1.39,0,0,0,.29.35,2.36,2.36,0,0,0,.52.21,1.43,1.43,0,0,1,.5.18,1.65,1.65,0,0,1,.33.37,23.38,23.38,0,0,1,.26-2.52h0a1.41,1.41,0,0,0-.29-.4,1.23,1.23,0,0,0-.48-.22,2.12,2.12,0,0,1-.49-.27,1.55,1.55,0,0,1-.26-.37c-.16.86-.28,1.74-.36,2.63Zm.77-3a2.36,2.36,0,0,0,.48.29,1.35,1.35,0,0,1,.48.24,1.62,1.62,0,0,1,.27.41h0c.15-.83.35-1.65.58-2.46h0a1.37,1.37,0,0,0-.23-.43,1.25,1.25,0,0,0-.47-.28,3.72,3.72,0,0,1-.45-.33,1.5,1.5,0,0,1-.2-.4h0a24.85,24.85,0,0,0-.71,2.56v0a1.9,1.9,0,0,0,.26.37Zm5.53-11.87Zm1.14,1.31a23.33,23.33,0,0,1,1.74-1.84h0a1.67,1.67,0,0,0,0-.5,1.26,1.26,0,0,0-.25-.47,2.31,2.31,0,0,1-.22-.51,1.36,1.36,0,0,1,0-.45q-1,.88-1.89,1.86v0a1.77,1.77,0,0,0,0,.46,2.87,2.87,0,0,0,.28.48,1.37,1.37,0,0,1,.3.45,1.61,1.61,0,0,1,0,.49ZM135.58,157a1.63,1.63,0,0,1,.16.47c.36-.76.77-1.5,1.2-2.22h0a1.6,1.6,0,0,0-.11-.48,1.38,1.38,0,0,0-.37-.39,2.94,2.94,0,0,1-.35-.44,1.64,1.64,0,0,1-.09-.44,25,25,0,0,0-1.35,2.29h0a1.55,1.55,0,0,0,.14.43,2.11,2.11,0,0,0,.39.4A1.67,1.67,0,0,1,135.58,157Zm1.63-2.81a1.58,1.58,0,0,1,.1.48,24.18,24.18,0,0,1,1.47-2.06l0,0a2,2,0,0,0,0-.49,1.48,1.48,0,0,0-.31-.43,2.92,2.92,0,0,1-.29-.48,1.6,1.6,0,0,1,0-.44,22.08,22.08,0,0,0-1.63,2.09h0a1.37,1.37,0,0,0,.07.45,2.36,2.36,0,0,0,.33.45A1.35,1.35,0,0,1,137.21,154.17Zm28.85,38.77Zm.17-49.95Zm-.33,1.34a1.57,1.57,0,0,1-.45.22h0a22.72,22.72,0,0,1,2.38.89l0,0a1.91,1.91,0,0,0,.47-.18,1.36,1.36,0,0,0,.34-.41,2.34,2.34,0,0,1,.37-.4,1.36,1.36,0,0,1,.43-.14,25,25,0,0,0-2.45-1h0a1.69,1.69,0,0,0-.41.19,2.07,2.07,0,0,0-.34.44,1.57,1.57,0,0,1-.31.45Zm-3.15-.83a1.62,1.62,0,0,1-.41.27c.82.15,1.64.35,2.45.58v0a1.82,1.82,0,0,0,.43-.24,1.72,1.72,0,0,0,.28-.47,2.83,2.83,0,0,1,.32-.45,1.66,1.66,0,0,1,.4-.2c-.84-.28-1.69-.51-2.56-.71h0a1.63,1.63,0,0,0-.38.24,2.59,2.59,0,0,0-.29.47,1.36,1.36,0,0,1-.23.52Zm-3.23-.42a1.44,1.44,0,0,1-.38.32c.85,0,1.69.13,2.52.25h0a2,2,0,0,0,.4-.29,1.47,1.47,0,0,0,.23-.49,2.34,2.34,0,0,1,.27-.49,1.29,1.29,0,0,1,.36-.25,25,25,0,0,0-2.62-.37h0a1.64,1.64,0,0,0-.35.29,2.31,2.31,0,0,0-.22.51,1.36,1.36,0,0,1-.19.52Zm0-1.38Zm15.65,6.36Zm-.37.82a1.6,1.6,0,0,1-.44.29,2,2,0,0,1-.49,0c.64.55,1.26,1.13,1.84,1.73v0a1.61,1.61,0,0,0,.49,0,1.4,1.4,0,0,0,.47-.24,2.94,2.94,0,0,1,.51-.23,1.71,1.71,0,0,1,.45,0c-.59-.66-1.22-1.29-1.87-1.89h0a1.7,1.7,0,0,0-.45,0,2.27,2.27,0,0,0-.48.27Zm2.82,1.6Zm-5.45-3.63a1.49,1.49,0,0,1-.41.34,1.58,1.58,0,0,1-.48.1,22.69,22.69,0,0,1,2.06,1.47l0,0a1.67,1.67,0,0,0,.5-.05,1.25,1.25,0,0,0,.42-.3,2.39,2.39,0,0,1,.49-.28,1.09,1.09,0,0,1,.44,0,24,24,0,0,0-2.09-1.64h0a1.63,1.63,0,0,0-.44.08A2,2,0,0,0,172.14,146.85Zm-2.88-1.67a1.48,1.48,0,0,1-.35.4,1.63,1.63,0,0,1-.47.16,23.93,23.93,0,0,1,2.23,1.2v0a2,2,0,0,0,.48-.12,1.49,1.49,0,0,0,.39-.36,2.17,2.17,0,0,1,.44-.36,1.64,1.64,0,0,1,.44-.09c-.74-.48-1.5-.93-2.29-1.34h0a1.76,1.76,0,0,0-.43.13,2.46,2.46,0,0,0-.41.38Zm3.14.81Zm-6.24,51a3.88,3.88,0,0,0,1.36-.79,1.09,1.09,0,0,0,.23-.47h0a2.69,2.69,0,0,1-2-1.37,1.83,1.83,0,0,1-2-.55,4.73,4.73,0,0,0,.49,1.38,4.35,4.35,0,0,0,1.89,1.81Zm11-45.75a1.21,1.21,0,0,1-.47.23,1.61,1.61,0,0,1-.49,0,23.14,23.14,0,0,1,1.61,1.95l0,0a1.61,1.61,0,0,0,.48.08,1.43,1.43,0,0,0,.5-.18,2,2,0,0,1,.54-.16,1.63,1.63,0,0,1,.44.08c-.5-.72-1-1.43-1.6-2.11h0a1.71,1.71,0,0,0-.45,0A2.5,2.5,0,0,0,177.11,151.23Zm-8.48,43.41a2.74,2.74,0,0,1,1-.3,8.61,8.61,0,0,1,.56-1.72,6.48,6.48,0,0,0-3.56,1.75l.43.25,1,.45Zm-4.85-.85Zm15.91-40.61ZM166.6,191.32Zm0,0Zm-1.59-1.45a4.62,4.62,0,0,0-1.33,3.14h0s1,1.09,1.78.66a4.16,4.16,0,0,1,.46-2.12l.05-.28a2.45,2.45,0,0,1-.58-1.76Zm-9-48.12Zm-3,1.8a1.62,1.62,0,0,1-.27.41c.82-.18,1.65-.31,2.49-.41h0a1.48,1.48,0,0,0,.31-.39,1.3,1.3,0,0,0,.1-.52,2.57,2.57,0,0,1,.12-.55,1.59,1.59,0,0,1,.3-.34q-1.32.11-2.64.33h0a1.37,1.37,0,0,0-.26.37,2,2,0,0,0-.08.55A1.41,1.41,0,0,1,153,143.53Zm3.23-.44a1.64,1.64,0,0,1-.32.37,23.68,23.68,0,0,1,2.53-.07l0,0a1.46,1.46,0,0,0,.36-.34,1.27,1.27,0,0,0,.16-.51,2.54,2.54,0,0,1,.2-.52,1.58,1.58,0,0,1,.34-.29,26.23,26.23,0,0,0-2.66,0h0a1.55,1.55,0,0,0-.3.33,2.55,2.55,0,0,0-.15.54,1.4,1.4,0,0,1-.11.53Zm4,50.18a2,2,0,0,1-.14.54,1.38,1.38,0,0,1-.3.34,26.22,26.22,0,0,0,2.65-.31v0a1.58,1.58,0,0,0,.26-.36,2.08,2.08,0,0,0,.07-.55,1.42,1.42,0,0,1,.05-.54,1.62,1.62,0,0,1,.27-.41,23.08,23.08,0,0,1-2.49.41h0a1.52,1.52,0,0,0-.32.39A1.5,1.5,0,0,0,160.27,193.27ZM179,188.7a3,3,0,0,0-1.18-2.81l-1.21,1.7a1.08,1.08,0,0,1,.43,1.18s2-.23,2-.07Zm3.49,3.76.88.47.46-2a8.13,8.13,0,0,0-.84-.13Zm-.15-1.73-.53,1.58.24.06.53-1.57Zm-.76-11.33Zm-1.69,3Zm.4-3.48a2,2,0,0,1-.16-.47c-.36.76-.76,1.51-1.19,2.23l0,0a1.66,1.66,0,0,0,.11.49,1.52,1.52,0,0,0,.37.39,2.86,2.86,0,0,1,.35.43,1.64,1.64,0,0,1,.09.44,23.84,23.84,0,0,0,1.34-2.28v0a1.64,1.64,0,0,0-.13-.43,2.46,2.46,0,0,0-.39-.4,1.53,1.53,0,0,1-.39-.37Zm-.14,12.84,1.21.35.59-1.67a1.51,1.51,0,0,0-1.8,1.31Zm-1.47-10a1.65,1.65,0,0,1-.1-.48,22.55,22.55,0,0,1-1.47,2h0a2.07,2.07,0,0,0,0,.5,1.23,1.23,0,0,0,.25.48,2.39,2.39,0,0,1,.22.52,2.67,2.67,0,0,1,.08.48c.57-.67,1.22-1.49,1.74-2.21v0a1.78,1.78,0,0,0-.08-.45,2.46,2.46,0,0,0-.34-.44,1.57,1.57,0,0,1-.35-.42Zm-8.38,13a1.71,1.71,0,0,1,.45,2c1.47-.41,2.13-2.61,2.13-2.61a5.64,5.64,0,0,0-1.81.36Zm4.07-2.75a7.8,7.8,0,0,0-3.27.37l-.84,1.79,2-.41c.58-.16.85,0,1.73.05,0,0,1-1.71.36-1.8Zm-4.53,3.15a2.71,2.71,0,0,1-.41.28,2.65,2.65,0,0,1-.91.31h0c.18.83-1.49,1.59-1.49,1.59a4.57,4.57,0,0,0,2.76-.17h0a1.61,1.61,0,0,0,.05-2Zm11.2-5.08h0c-.58-.25-1.08-.47-1.35-.55a5.8,5.8,0,0,0-1-.19,1.81,1.81,0,0,0-1.93,1.54,5.46,5.46,0,0,1,2.29.47l.4.22c0-.06.43-1.77,1.6-1.49Zm-1.57,1.51v0h0Zm-2.89-.41c-.14.28-1.09.63-1.4.72.3.39-.46,1.93-.46,1.93a3.7,3.7,0,0,0,2.23-.64,2.78,2.78,0,0,0,1.11-1.41,3,3,0,0,1-1.49-.6Zm-44.86-21.3Zm50-13a1.62,1.62,0,0,0-.42-.15,2.22,2.22,0,0,0-.57.07,1.5,1.5,0,0,1-.52.1,1.86,1.86,0,0,1-.47-.16,24.93,24.93,0,0,1,1,2.3v0a1.51,1.51,0,0,0,.45.2,1.35,1.35,0,0,0,.53,0,2.1,2.1,0,0,1,.56,0,1.5,1.5,0,0,1,.41.18,25.94,25.94,0,0,0-1-2.44Zm1,2.47ZM182,176.18a1.23,1.23,0,0,1-.44-.3,1.65,1.65,0,0,1-.22-.44,24.91,24.91,0,0,1-.9,2.36h0a1.83,1.83,0,0,0,.18.46,1.23,1.23,0,0,0,.41.34,2.4,2.4,0,0,1,.4.38,1.62,1.62,0,0,1,.15.42,26.21,26.21,0,0,0,1-2.44v0a1.65,1.65,0,0,0-.18-.41,2.3,2.3,0,0,0-.44-.33Zm-12.15,18.93h0Zm13.69-32A2.48,2.48,0,0,0,183,163a1.37,1.37,0,0,1-.53-.08,1.45,1.45,0,0,1-.39-.3,23.81,23.81,0,0,1,.22,2.52v0a1.86,1.86,0,0,0,.36.33,1.21,1.21,0,0,0,.52.13,3,3,0,0,1,.53.17,1.39,1.39,0,0,1,.32.32h0a26.49,26.49,0,0,0-.14-2.66h0A1.93,1.93,0,0,0,183.54,163.1Zm-3.41-9.26h0a1.75,1.75,0,0,0-.44-.1,2.61,2.61,0,0,0-.55.14,1.29,1.29,0,0,1-.5.17,1.64,1.64,0,0,1-.49-.1h0c.48.7.93,1.41,1.34,2.15l0,0a1.56,1.56,0,0,0,.48.14,1.35,1.35,0,0,0,.52-.11A1.71,1.71,0,0,1,181,156a1.36,1.36,0,0,1,.43.14,25.29,25.29,0,0,0-1.31-2.33Zm2.48,6a2.62,2.62,0,0,0-.56,0,1.64,1.64,0,0,1-.54,0,1.49,1.49,0,0,1-.43-.23,24.11,24.11,0,0,1,.73,2.43v0a1.29,1.29,0,0,0,.42.26,1.35,1.35,0,0,0,.53,0,2.67,2.67,0,0,1,.56.06,1.51,1.51,0,0,1,.37.25h0a25.72,25.72,0,0,0-.67-2.58h0a1.73,1.73,0,0,0-.41-.2Zm1.15,13Zm-.41.37a2.29,2.29,0,0,0-.47-.29,1.44,1.44,0,0,1-.48-.24,1.82,1.82,0,0,1-.27-.41,23.12,23.12,0,0,1-.58,2.46h0a1.78,1.78,0,0,0,.23.43,1.5,1.5,0,0,0,.47.28,2.36,2.36,0,0,1,.45.33,1.87,1.87,0,0,1,.2.4,24.85,24.85,0,0,0,.71-2.56h0a1.46,1.46,0,0,0-.27-.38Zm-.45,3Zm1.3-9.4a1.6,1.6,0,0,0-.33-.31,2.72,2.72,0,0,0-.54-.15,1.4,1.4,0,0,1-.53-.11,1.65,1.65,0,0,1-.37-.33,23.84,23.84,0,0,1,.08,2.53v0a1.67,1.67,0,0,0,.34.36,1.52,1.52,0,0,0,.51.16,1.93,1.93,0,0,1,.52.2,1.22,1.22,0,0,1,.3.34,26.25,26.25,0,0,0,0-2.66Zm-.08,3.43a1.58,1.58,0,0,0-.29-.34,1.92,1.92,0,0,0-.51-.22,1.55,1.55,0,0,1-.51-.18,1.61,1.61,0,0,1-.32-.37,23.46,23.46,0,0,1-.26,2.51l0,0a1,1,0,0,0,.77.63,2.12,2.12,0,0,1,.49.27,1.5,1.5,0,0,1,.26.36c.16-.86.28-1.74.36-2.63Zm-2.67-14.09Zm-42.66,28.49a1.35,1.35,0,0,1,.47-.22,1.61,1.61,0,0,1,.49,0c-.57-.63-1.1-1.28-1.61-2l0,0a2.09,2.09,0,0,0-.49-.08,1.44,1.44,0,0,0-.5.19,2.49,2.49,0,0,1-.53.16,1.64,1.64,0,0,1-.44-.09,23.43,23.43,0,0,0,1.59,2.12h0a1.38,1.38,0,0,0,.45,0A2.1,2.1,0,0,0,138.79,184.64Zm-2.59-1.95Zm2.11,2.71Zm26.58,11.43a4,4,0,0,0-.26.32l.06-.11a3.25,3.25,0,0,0-.4.94c-.07.27-.14.83-.24,1.45h0c.4-1.16,2.12-.55,2.12-.55v0l.14-.5c.08-.24.17-.48.27-.71A2.63,2.63,0,0,1,164.89,196.83Zm-28.66-14.69a2.52,2.52,0,0,0,.54-.14,1.54,1.54,0,0,1,.51-.17,1.58,1.58,0,0,1,.48.1c-.48-.7-.92-1.41-1.33-2.15v0a1.1,1.1,0,0,0-1,0,2.63,2.63,0,0,1-.55.09,1.5,1.5,0,0,1-.42-.15,26.33,26.33,0,0,0,1.31,2.31h0A1.69,1.69,0,0,0,136.23,182.14Zm7.54,6.89a1.48,1.48,0,0,1,.4-.35,2,2,0,0,1,.49-.1,22.69,22.69,0,0,1-2.06-1.47v0a1,1,0,0,0-.92.36,2.47,2.47,0,0,1-.47.29,1.71,1.71,0,0,1-.45,0c.67.58,1.37,1.12,2.09,1.63h0a1.62,1.62,0,0,0,.44-.07A3.72,3.72,0,0,0,143.77,189Zm-3-1.22Zm-8.69-15.32a1.9,1.9,0,0,0,.37.26,2.61,2.61,0,0,0,.56.08,1.35,1.35,0,0,1,.53,0,1.62,1.62,0,0,1,.41.27,23.05,23.05,0,0,1-.4-2.49v0a1.61,1.61,0,0,0-.38-.31,1.35,1.35,0,0,0-.52-.11,2.68,2.68,0,0,1-.56-.13,1.38,1.38,0,0,1-.34-.3,25.71,25.71,0,0,0,.32,2.64Zm2.38,7.24Zm-1.57-3.9a1.53,1.53,0,0,0,.4.21,2.25,2.25,0,0,0,.58,0,1.18,1.18,0,0,1,.53,0,1.85,1.85,0,0,1,.45.21,22.53,22.53,0,0,1-.74-2.42v0a1.64,1.64,0,0,0-.42-.26,1.35,1.35,0,0,0-.53,0,2.6,2.6,0,0,1-.56-.06,1.32,1.32,0,0,1-.38-.25c.18.87.41,1.73.67,2.57Zm1.25,3.21a1.62,1.62,0,0,0,.42.15,2.22,2.22,0,0,0,.57-.07,1.5,1.5,0,0,1,.52-.1,2,2,0,0,1,.47.16,23.88,23.88,0,0,1-1-2.31v0a1.82,1.82,0,0,0-.45-.2,1.42,1.42,0,0,0-.54.05,2.53,2.53,0,0,1-.55,0,1.59,1.59,0,0,1-.42-.19,24.68,24.68,0,0,0,1,2.45Zm-1-2.47Zm8,10.45a1.25,1.25,0,0,1,.44-.29,1.67,1.67,0,0,1,.5,0,23.23,23.23,0,0,1-1.85-1.73v0a1.61,1.61,0,0,0-.49,0,1.4,1.4,0,0,0-.47.24,2.34,2.34,0,0,1-.51.23,1.71,1.71,0,0,1-.45,0,25.77,25.77,0,0,0,1.87,1.9h0a1.7,1.7,0,0,0,.45,0,2.22,2.22,0,0,0,.5-.28Zm17.95,7.18a1.93,1.93,0,0,0,.31-.33,2.72,2.72,0,0,0,.15-.54,1.4,1.4,0,0,1,.11-.53,2.24,2.24,0,0,1,.32-.37,23.57,23.57,0,0,1-2.52.08h0a1.67,1.67,0,0,0-.36.34,1.38,1.38,0,0,0-.16.51,2.41,2.41,0,0,1-.2.53,1.81,1.81,0,0,1-.33.29,23.43,23.43,0,0,0,2.65,0Zm4.24,8.05,1.94.69.07-1-1.67-.46A7.51,7.51,0,0,0,163.31,202.25Zm-6.9-8.07Zm7.4,6.95,1.6.4.05-.25-1.6-.4Zm.09-.73,1.73.38.34-1.2A1.52,1.52,0,0,0,163.9,200.4Zm-7.51-7.6a1.46,1.46,0,0,1,.37-.33,21.5,21.5,0,0,1-2.52-.25v0a2,2,0,0,0-.4.29,1.3,1.3,0,0,0-.2.49,2.12,2.12,0,0,1-.27.49,1.55,1.55,0,0,1-.37.26c.86.16,1.74.28,2.63.36h0a1.35,1.35,0,0,0,.35-.28,2.66,2.66,0,0,0,.21-.53A1.55,1.55,0,0,1,156.39,192.8ZM150,191.54a2,2,0,0,1,.44-.22,22.55,22.55,0,0,1-2.37-.89v0a2,2,0,0,0-.46.18,1.36,1.36,0,0,0-.34.41,2.46,2.46,0,0,1-.38.41,2.3,2.3,0,0,1-.42.14,26.28,26.28,0,0,0,2.44,1h0a1.72,1.72,0,0,0,.41-.19,2.12,2.12,0,0,0,.35-.44A1.39,1.39,0,0,1,150,191.54Zm-3.52.05Zm.15-.89a1.48,1.48,0,0,1,.35-.4,2,2,0,0,1,.47-.15,23.76,23.76,0,0,1-2.22-1.2v0a1.53,1.53,0,0,0-.48.11,1.41,1.41,0,0,0-.4.37,2.44,2.44,0,0,1-.43.35,1.64,1.64,0,0,1-.44.09,25,25,0,0,0,2.29,1.35l0,0a1.33,1.33,0,0,0,.43-.13,2.11,2.11,0,0,0,.4-.39Zm6.51,1.68a2.29,2.29,0,0,1,.41-.28,23.07,23.07,0,0,1-2.46-.57v0a1.49,1.49,0,0,0-.43.23,1.44,1.44,0,0,0-.29.45,2,2,0,0,1-.34.46,1.39,1.39,0,0,1-.4.21c.84.27,1.7.51,2.56.7h0a1.36,1.36,0,0,0,.38-.24,2.92,2.92,0,0,0,.29-.48,1.28,1.28,0,0,1,.26-.47Zm-.15,1.37Zm-3.32-.85Z"/><path id="flor" class="cls-2" d="M144.43,175.21l-.1-1.7,1.58-.61-1.65-.44-.1-1.7-.92,1.43-1.64-.42,1.08,1.31-.91,1.43,1.58-.61Zm12.23-1.88,0,0a26.56,26.56,0,0,0-2.4,1.86c-1.39-1.42-3.84-2.87-5.76-1.36-1.63,1.29-1.32,3.55,0,4.93-2.34,1.83-5.68,1-7.56-1.05a6.65,6.65,0,0,1,1.43-10.23c5.21-3,12,2.24,14.28,5.82M171,159.86l-.59-1.59,1.32-1.06-1.7.07-.6-1.59-.44,1.66-1.7.07,1.42.94-.45,1.63,1.32-1.06Zm-7.74,9.66c-1.95-3.77-3.1-12.26,2.1-15.27a6.64,6.64,0,0,1,9.57,3.87c.85,2.65-.11,5.95-2.87,7.07-.5-1.88-2.31-3.28-4.25-2.51-2.26.91-2.23,3.76-1.7,5.65-1,.35-2,.82-2.81,1.18Zm-1.92,4.26c3.36-1.94,5.89-3.83,5.77-4s-3,1-6.41,3-5.9,3.85-5.78,4.06,3.05-1.06,6.43-3m.41.77c-3.89,2.25-7.37,3.49-7.78,2.78s2.39-3.09,6.29-5.34,7.38-3.49,7.78-2.78-2.41,3.1-6.3,5.35m5.85-3.08a3.26,3.26,0,0,0,5.5-.14,3.64,3.64,0,0,1-1.28,4.67c-2.19,1.27-5.39-1.33-6.46-2.77h0a27.46,27.46,0,0,0,2.25-1.78ZM158.8,177c.73,1.62,1.4,5.75-.81,7a3.63,3.63,0,0,1-4.68-1.22c2.41-.19,3.79-2.26,2.85-4.75v0c.9-.3,1.78-.65,2.65-1Zm-11.13-26.86a29.09,29.09,0,0,0,4.22.81,9.64,9.64,0,0,1,7.26,4.39c2.34,4,1,9.43,3.37,14.5a22.35,22.35,0,0,0-2.24,1.13c-2.74-4.94-6.76-11.47-9.85-16.07,2.43,5,6.07,11.72,9,16.57-.72.42-1.42.88-2.1,1.37-3.2-4.58-8.6-6.15-10.87-10.16a9.58,9.58,0,0,1-.17-8.48,28.23,28.23,0,0,0,1.4-4.06m19.81,34.3a11.21,11.21,0,0,1-7.15-1.69,12.71,12.71,0,0,0-.84-6c.7-.34,1.47-.74,2.23-1.18a44.37,44.37,0,0,0,3.67,5.29,45.71,45.71,0,0,0-2.74-5.83c.76-.44,1.47-.89,2.13-1.34a12.78,12.78,0,0,0,4.81,3.75,11.13,11.13,0,0,1-2.11,7"/></svg>