<svg id="Capa_1" data-name="Capa 1" xmlns="http://www.w3.org/2000/svg" xmlns:xlink="http://www.w3.org/1999/xlink" viewBox="0 0 92.6957 46"><defs><style>.cls-1{fill:none;}.cls-2{fill:#fff;}.cls-3{clip-path:url(#clip-path);}</style><clipPath id="clip-path" transform="translate(-1.2281 -1)"><rect class="cls-1" width="36" height="48"/></clipPath></defs><title>mi-agenda-label</title><path class="cls-2" d="M39.9038,21.17c0,.0928-.0644.1572-.1924.1924a8.845,8.845,0,0,1-1.4316.0615,9.7384,9.7384,0,0,1-1.4165-.0615.4148.4148,0,0,1-.3311-.3457,2.94,2.94,0,0,0-.4077-1.1855,16.921,16.921,0,0,0-2.063-.0538,6.13,6.13,0,0,0-1.393.0684,2.13,2.13,0,0,0-.2925.8242c-.0977.4258-.2158.6572-.354.6924a12.9651,12.9651,0,0,1-1.7554.0615q-1.1771,0-1.1772-.2226,0-.2007,1.7392-4.919,1.886-5.1035,2.0474-5.6113c.062-.1943.1338-.292.2158-.292.1387,0,.3525.0127.6426.0381s.5068.0381.65.0381q.2079,0,.6118-.0264c.27-.0176.4712-.0273.6045-.0273q.1456,0,.27.2539.3765.8085,2.2012,5.542Q39.9036,20.9624,39.9038,21.17Zm-5.4575-7.0117q-.1611.3384-.5464,1.47a7.9847,7.9847,0,0,0-.4155,1.4092c0,.0918.1538.1436.4619.1533q.238.0162.7851.0157.5076,0,.5616-.1231l.0156-.1074a7.5055,7.5055,0,0,0-.354-1.4014A10.8351,10.8351,0,0,0,34.4463,14.1582Z" transform="translate(-1.2281 -1)"/><path class="cls-2" d="M50.8188,21.1162q.0154.2081-.2158.208a5.6965,5.6965,0,0,1-.8427-.17q-.6966-.1684-.8584-.23a8.4364,8.4364,0,0,1-3.0865.6309,5.177,5.177,0,0,1-3.9023-1.585A5.4559,5.4559,0,0,1,40.4043,16.02a5.7907,5.7907,0,0,1,1.4624-4.0488,5.0453,5.0453,0,0,1,3.918-1.6621,5.48,5.48,0,0,1,2.2016.4463,4.1709,4.1709,0,0,1,1.7549,1.3857.59.59,0,0,1,.1309.2617,2.9232,2.9232,0,0,1-.689,1.1045q-.6893.8585-.8892.8584a1.5081,1.5081,0,0,1-.354-.3164,3.2678,3.2678,0,0,0-.77-.585,2.6863,2.6863,0,0,0-1.2934-.3154,2.2065,2.2065,0,0,0-1.8321.8623,3.0772,3.0772,0,0,0-.6308,1.9785,2.8665,2.8665,0,0,0,.6543,1.9854,2.4421,2.4421,0,0,0,1.9165.7549,4.7338,4.7338,0,0,0,1.7548-.3926q-.0226-.2549-.1386-1.294a10.9594,10.9594,0,0,1-.1-1.2929c0-.0967.0337-.1563.1-.1768l.1235-.0156q.2226,0,.6733.043t.6812.042q.2462,0,.7388-.0352t.7392-.0342c.128,0,.1924.085.1924.2539q0,.3692-.0425,1.1162t-.0424,1.1162q0,.9933.1464,2.9708Z" transform="translate(-1.2281 -1)"/><path class="cls-2" d="M59.7783,18.9688a10.0688,10.0688,0,0,1-.1308,1.2158,4.6573,4.6573,0,0,1-.2466,1.1474.2868.2868,0,0,1-.2539.1455,1.797,1.797,0,0,1-.231-.0224q-.5617-.0777-3.2788-.0772-.5932,0-1.7627-.0078t-1.7554-.0078c-.1689,0-.2539-.0742-.2539-.2227q0-.8627.0962-2.5908t.0962-2.59q0-.8775-.0923-3.2715-.0226-.6153-.0844-1.84L51.873,10.74c-.01-.1181.0538-.1767.1924-.1767q.57,0,1.7129.03t1.7124.0312q.5618,0,1.6934-.0312t1.6933-.03q.4006,0,.462.3.0387.1771.1191,1.0742t.0811,1.0889c0,.1074-.0513.1621-.1539.1621l-.1616-.0078q-2.0478-.17-3.68-.17-.4079,0-.5.1924a2.4107,2.4107,0,0,0-.0385.5928,1.0885,1.0885,0,0,0,.1538.6934.6658.6658,0,0,0,.5005.1455c.0512,0,.1513-.0039.3-.0108s.272-.0117.3692-.0117q.9705,0,1.9629-.0537c.0566-.0059.1977-.0186.4233-.0391a3.7329,3.7329,0,0,1,.4155-.03c.1236,0,.1851.0586.1851.1767a11.0776,11.0776,0,0,0-.1387,1.1778q-.0615.6152-.0615,1.2314c0,.1025-.0747.1543-.2231.1543L58.2,17.1523q-.4388-.0468-2.0015-.0468h-.8159q-.3156,0-.3691.1543-.0081.0381-.0078.4775a2.2481,2.2481,0,0,0,.0771.7539q.13.2929.9849.3467h1.124q.408,0,1.2124-.0733t1.2046-.0732C59.7217,18.6914,59.7783,18.7842,59.7783,18.9688Z" transform="translate(-1.2281 -1)"/><path class="cls-2" d="M71.1011,10.8018q0,.8773-.0733,2.6367t-.0732,2.6435v5.0723q0,.2081-.2232.208-.1845,0-.5581.0156c-.249.01-.435.0157-.5581.0157-.1333,0-.3335-.0108-.6006-.0313s-.4667-.03-.6-.03q-.1384,0-.3311-.2539-.5544-.747-2.4937-3.31-.5316-.7149-1.6167-2.1084l-.1152-.0928-.062.17q0,.8922.05,2.6778t.05,2.6787c0,.18-.0689.27-.2075.27H61.0249c-.1484,0-.2231-.0791-.2231-.2383q0-.832.081-2.51t.0806-2.5166q0-.8849-.0728-2.6475T60.8174,10.81c0-.1133.1-.169.3-.169q.4459,0,1.1006-.0615.1538-.016.6079-.1006a3.6772,3.6772,0,0,1,.6084-.0693c.0615,0,.1562.0879.2846.2617L66.59,14.6045q.3846.53,1.1621,1.5547c.1285.1592.2388.2383.3311.2383q.1,0,.1-.6,0-.8086-.0884-2.4327t-.0889-2.44c0-.1894.0542-.2842.1617-.2842q.4621,0,1.3935-.039t1.3931-.0381C71.0522,10.5635,71.1011,10.6426,71.1011,10.8018Z" transform="translate(-1.2281 -1)"/><path class="cls-2" d="M82.5771,15.9053a5.7691,5.7691,0,0,1-1.4545,3.9258,4.7421,4.7421,0,0,1-3.61,1.5625q-.4468.0146-2.4556.0156-.3771,0-1.1352-.0235t-1.1353-.0234c-.1489,0-.2236-.0586-.2236-.1768q0-.8466.0654-2.5439t.0654-2.5439q0-.8849-.0654-2.6514t-.0654-2.6445c0-.1075.0747-.1719.2236-.1924q.5464-.0615,1.7935-.0615,2.37,0,3.0708.0693a5.8778,5.8778,0,0,1,2.8559.9238,4.68,4.68,0,0,1,1.5318,1.9395A5.7743,5.7743,0,0,1,82.5771,15.9053Zm-2.9477,0a2.9732,2.9732,0,0,0-.7773-2.125,2.6885,2.6885,0,0,0-2.0787-.8535q-1.185,0-1.185.3154,0,.454-.0156,1.3662t-.0152,1.3662q0,.4468.0152,1.3428t.0156,1.3515q0,.3311,1.2314.33a2.6186,2.6186,0,0,0,2.0938-.8847A3.2883,3.2883,0,0,0,79.6294,15.9053Z" transform="translate(-1.2281 -1)"/><path class="cls-2" d="M93.9238,21.17c0,.0928-.0644.1572-.1933.1924a8.8385,8.8385,0,0,1-1.4317.0615,9.74,9.74,0,0,1-1.416-.0615.4135.4135,0,0,1-.331-.3457,2.9381,2.9381,0,0,0-.4082-1.1855,16.8985,16.8985,0,0,0-2.0625-.0538,6.13,6.13,0,0,0-1.3931.0684,2.13,2.13,0,0,0-.2925.8242c-.0976.4258-.2158.6572-.354.6924a12.9651,12.9651,0,0,1-1.7554.0615q-1.1769,0-1.1772-.2226,0-.2007,1.7392-4.919,1.8861-5.1035,2.0474-5.6113c.062-.1943.1338-.292.2158-.292q.2081,0,.6426.0381t.65.0381q.2081,0,.6118-.0264c.27-.0176.4712-.0273.6045-.0273q.1458,0,.27.2539.3772.8085,2.2017,5.542Q93.9229,20.9624,93.9238,21.17Zm-5.458-7.0117q-.1611.3384-.5464,1.47a7.9946,7.9946,0,0,0-.4155,1.4092c0,.0918.1538.1436.4619.1533q.238.0162.7852.0157.5076,0,.5615-.1231l.0156-.1074a7.4967,7.4967,0,0,0-.354-1.4014A10.8194,10.8194,0,0,0,88.4658,14.1582Z" transform="translate(-1.2281 -1)"/><path class="cls-2" d="M35.0005,33.1514A3.401,3.401,0,0,1,33.6846,35.83a5.6233,5.6233,0,0,1-2.81,1.2549l-.1.0078q-.1773,0-.7852-1.0821a4.6683,4.6683,0,0,1-.6079-1.3193l.1153-.1084a8.101,8.101,0,0,0,1.478-.4307,1.2716,1.2716,0,0,0,.8-1.1855,1.8138,1.8138,0,0,0-.5234-1.1162q-.9082-1.0459-.9854-1.1621a3.134,3.134,0,0,1-.5308-1.7705,2.7864,2.7864,0,0,1,1.3008-2.34,5.8528,5.8528,0,0,1,2.6094-1.001l.1309-.0078c.0771,0,.1386.0625.1845.1856q.2.561.9317,2.0322l.0229.0762c0,.0879-.0464.1308-.1387.1308a1.64,1.64,0,0,1-.2075-.0224,1.5406,1.5406,0,0,0-.2236-.0235,1.8274,1.8274,0,0,0-.97.2539.9053.9053,0,0,0-.5005.8165,2.0175,2.0175,0,0,0,.5542,1.1543q.9777,1.2318,1.0239,1.2929A3.0934,3.0934,0,0,1,35.0005,33.1514Z" transform="translate(-1.2281 -1)"/><path class="cls-2" d="M45.269,34.9531a.5888.5888,0,0,1-.1616.3233,4.6727,4.6727,0,0,1-3.7641,1.6855,5.0237,5.0237,0,0,1-3.8951-1.64,5.6934,5.6934,0,0,1-1.4545-4.003,5.8314,5.8314,0,0,1,1.4238-3.9716A4.7892,4.7892,0,0,1,41.1968,25.64a5.0609,5.0609,0,0,1,3.9106,1.5313.4815.4815,0,0,1,.1538.3,4.7957,4.7957,0,0,1-.5351,1.0859,6.2535,6.2535,0,0,1-.6734,1.0547l-.1538.0616a2.0206,2.0206,0,0,1-.3852-.3086,4.0665,4.0665,0,0,0-.8159-.5772,2.7624,2.7624,0,0,0-1.2623-.3076,2.1971,2.1971,0,0,0-1.8085.8467,3.0184,3.0184,0,0,0-.6236,1.9394,3.0739,3.0739,0,0,0,.6236,1.9629,2.1812,2.1812,0,0,0,1.8085.8623,2.8589,2.8589,0,0,0,1.27-.2929,3.9167,3.9167,0,0,0,.8007-.5381,1.9529,1.9529,0,0,1,.377-.293l.1538.085q.123.1377.67.9619A5.5951,5.5951,0,0,1,45.269,34.9531Z" transform="translate(-1.2281 -1)"/><path class="cls-2" d="M56.792,31.3047A5.6414,5.6414,0,0,1,55.26,35.33a5.5465,5.5465,0,0,1-7.9048-.0156,6.0131,6.0131,0,0,1,0-8.0362,5.4943,5.4943,0,0,1,7.89,0A5.6649,5.6649,0,0,1,56.792,31.3047Zm-2.9175-.0156a2.8932,2.8932,0,0,0-.7007-1.9629,2.4271,2.4271,0,0,0-3.71.03,3.0549,3.0549,0,0,0-.0459,3.9112,2.4806,2.4806,0,0,0,3.7329-.0469A2.8515,2.8515,0,0,0,53.8745,31.2891Z" transform="translate(-1.2281 -1)"/><path class="cls-2" d="M67.1294,32.9131a5.3062,5.3062,0,0,1-.47,2.6787Q65.7976,36.9,62.3569,36.9a9.2216,9.2216,0,0,1-2.394-.2393,2.4062,2.4062,0,0,1-1.7393-1.47,6.0749,6.0749,0,0,1-.2-1.8935q0-.315.023-.9395.0234-.6225.0229-.9307,0-.8936-.0844-2.6787T57.9,26.0781q0-.1845.1621-.1845.4688,0,1.42.038t1.42.0381q.1926,0,.1928.17,0,1.0152-.0654,3.044t-.0654,3.0439a3.5357,3.5357,0,0,0,.2539,1.6319,1.5083,1.5083,0,0,0,1.416.5781,1.3749,1.3749,0,0,0,1.5781-1.5322q0-1.1163-.0537-3.3487T64.104,26.209c0-.1592.0645-.2393.1924-.2393q.454,0,1.37-.0381t1.37-.038c.1489,0,.2237.0615.2237.1845q0,.8849-.0733,2.6709t-.0732,2.6787q0,.2461.0078.7422T67.1294,32.9131Z" transform="translate(-1.2281 -1)"/><path class="cls-2" d="M76.1421,28.248c0,.1036-.0562.1543-.169.1543q-.293,0-2.3168-.1152Q73.61,30.234,73.61,31.0039q0,.9082.0732,2.7324t.0732,2.7325c0,.0976-.0234.1591-.0693.1855a.9856.9856,0,0,1-.2158.0381,11.0757,11.0757,0,0,1-1.3545.0615,10.6136,10.6136,0,0,1-1.3931-.0615.226.226,0,0,1-.2158-.2383q0-.9082.0772-2.7256t.0766-2.7246q0-.6006-.0615-2.6787-1.54.1538-2.4551.1543l-.1235-.0772a4.5492,4.5492,0,0,1,.1079-.5927q.123-.5391.1387-.6543.0226-.3618.0537-.7237.0542-.577.185-.5771l.1075.0078a31.13,31.13,0,0,0,3.687.1621q.6928,0,2.5556-.1465,1.0005-.0775,1.0083-.0771a.4231.4231,0,0,1,.1773.02l.0307.1494c0,.1387-.0053.3311-.0156.5782q-.0153.4071-.0151.5771a4.56,4.56,0,0,0,.05.5654A4.6434,4.6434,0,0,1,76.1421,28.248Z" transform="translate(-1.2281 -1)"/><g class="cls-3"><g class="cls-3"><path class="cls-2" d="M9.604,12.4976c-.035.594-.08,1.188-.103,1.783-.066,1.667-.138,3.334-.178,5.001-.034,1.406-.028,2.813-.037,4.22-.002.232.004.464.016.696.005.112-.025.155-.147.16-.468.019-.937.047-1.405.077-.086.005-.1-.036-.109-.101-.05-.32-.09-.644-.154-.961a12.7275,12.7275,0,0,0-.849-2.569c-.402-.931-.821-1.854-1.215-2.788a7.995,7.995,0,0,1-.533-1.884,5.2678,5.2678,0,0,1,.599-3.343,6.8356,6.8356,0,0,1,1.96-2.261A18.6927,18.6927,0,0,0,9.563,8.73a.8555.8555,0,0,1,.076-.053,6.0824,6.0824,0,0,0,.433.446c.599.501,1.202.999,1.813,1.486a6.5668,6.5668,0,0,1,2.314,3.323,5.3592,5.3592,0,0,1,.004,2.865,16.333,16.333,0,0,1-1.038,2.718,26.5046,26.5046,0,0,0-1.108,2.68,9.6332,9.6332,0,0,0-.458,2.06c-.019.189-.021.177-.219.164-.434-.028-.869-.046-1.304-.061-.112-.004-.151-.03-.152-.152-.002-1.706.008-3.413-.024-5.119-.028-1.503-.103-3.006-.164-4.508-.028-.696-.072-1.391-.11-2.086l-.022.005" transform="translate(-1.2281 -1)"/><path class="cls-2" d="M18.4908,24.9052c.016-.304.054-.586.04-.866a2.0178,2.0178,0,0,0-.557-1.341,1.9266,1.9266,0,0,0-2.601-.129,3.8061,3.8061,0,0,0-1.117,1.684c-.049.13-.089.263-.127.397-.02.071-.053.091-.128.081-.524-.071-1.048-.137-1.573-.204-.042-.006-.084-.011-.127-.014-.218-.013-.225-.013-.206-.234a9.6868,9.6868,0,0,1,.422-2.068,10.6208,10.6208,0,0,1,1.613-3.229,6.1146,6.1146,0,0,1,2.186-1.89,4.2306,4.2306,0,0,1,5.918,2.417,4.1141,4.1141,0,0,1-.688,4.086,3.4414,3.4414,0,0,1-2.093,1.291,2.5373,2.5373,0,0,1-.962.019m-.422-4.143c.312-.046.61-.084.906-.137a.15.15,0,0,1,.194.103c.111.237.233.469.351.703.015.03.035.057.069.112.047-.28.092-.524.128-.769.039-.263.035-.264.299-.304.025-.004.051-.005.076-.009.233-.035.467-.071.736-.111-.302-.156-.569-.297-.839-.431-.079-.039-.116-.079-.096-.174.038-.186.065-.374.095-.561.018-.111.034-.223.05-.335-.018-.01-.035-.021-.052-.03-.211.221-.422.441-.63.665a.1171.1171,0,0,1-.165.026c-.236-.127-.476-.247-.714-.368-.039-.02-.079-.035-.146-.065.131.26.248.49.363.72.113.225.11.223-.07.402-.182.181-.361.366-.555.563" transform="translate(-1.2281 -1)"/><path class="cls-2" d="M9.6362,31.37c.043-.295.105-.589.126-.886.069-.994.124-1.989.182-2.983.01-.169.007-.165.182-.171.457-.017.913-.033,1.369-.058.102-.006.124.041.137.12a7.5847,7.5847,0,0,0,.861,2.542c.162.297.347.582.534.864a.2136.2136,0,0,1,.013.251,6.6412,6.6412,0,0,1-1.631,1.98,6.94,6.94,0,0,1-1.701,1.091.2467.2467,0,0,1-.177.007,7.2637,7.2637,0,0,1-3.337-3.068.2232.2232,0,0,1,.018-.273,8.1308,8.1308,0,0,0,1.363-3.233c.051-.278.05-.274.338-.262.41.016.819.03,1.229.037.104.002.134.033.14.137.044.911.086,1.822.15,2.732.027.378.106.752.162,1.127a.1891.1891,0,0,0,.017.045l.025.001" transform="translate(-1.2281 -1)"/><path class="cls-2" d="M9.6205,24.8571a27.98,27.98,0,0,1,2.938.181,7.8213,7.8213,0,0,1,1.821.382,1.8234,1.8234,0,0,1,.374.189c.211.141.218.341-.005.462a3.6455,3.6455,0,0,1-.763.313,10.0253,10.0253,0,0,1-2.145.327c-.885.046-1.772.089-2.658.089a18.0144,18.0144,0,0,1-3.311-.277,11.2412,11.2412,0,0,1-1.144-.309.9129.9129,0,0,1-.276-.156c-.183-.137-.192-.319.005-.433a3.1641,3.1641,0,0,1,.696-.303,10.6063,10.6063,0,0,1,2.219-.354c.748-.054,1.499-.075,2.249-.111m4.545,1.014v-.064a4.2641,4.2641,0,0,0-.539-.12c-.879-.079-1.758-.166-2.639-.212a30.1611,30.1611,0,0,0-3.532.035c-.688.046-1.373.136-2.06.214a2.22,2.22,0,0,0-.336.089v.052c.108.028.214.066.323.085a18.1689,18.1689,0,0,0,2.879.242c1.126.018,2.253.005,3.379-.032.676-.022,1.351-.11,2.025-.18a4.0252,4.0252,0,0,0,.5-.109" transform="translate(-1.2281 -1)"/><path class="cls-2" d="M2.3188,28.6992a2.0323,2.0323,0,0,0,2.991-1.728c.153.026.305.056.459.077.418.056.837.112,1.256.162.097.011.13.04.112.143a5.4492,5.4492,0,0,1-1.336,2.867,1.8224,1.8224,0,0,1-1.716.641,2.26,2.26,0,0,1-1.627-1.192,1.7192,1.7192,0,0,1-.139-.97" transform="translate(-1.2281 -1)"/><path class="cls-2" d="M12.0688,27.2324l.218-.034c.497-.071.995-.141,1.492-.215.097-.014.138-.002.162.108a2.2655,2.2655,0,0,0,.84,1.408,2.0965,2.0965,0,0,0,2.134.21c.038-.015.077-.029.152-.056a4.6151,4.6151,0,0,1-.093.456,2.34,2.34,0,0,1-1.666,1.684,1.7886,1.7886,0,0,1-1.766-.474,4.6089,4.6089,0,0,1-1.112-1.726,5.4475,5.4475,0,0,1-.353-1.264c-.004-.029-.005-.058-.008-.097" transform="translate(-1.2281 -1)"/><path class="cls-2" d="M10.5991,36.8262a1.531,1.531,0,0,0,.602,1.024c-.005.016-.005.033-.013.039-.27.22-.527.457-.812.656a2.4166,2.4166,0,0,1-1.748.36.1488.1488,0,0,1-.101-.097,1.2871,1.2871,0,0,1,.197-.858.1784.1784,0,0,1,.119-.078,1.73,1.73,0,0,0,1.097-.486c.186-.156.367-.316.551-.473.031-.026.063-.051.108-.087" transform="translate(-1.2281 -1)"/><path class="cls-2" d="M14.0669,36.667c-.419.172-.832.34-1.244.508a.1131.1131,0,0,1-.062.01,1.2377,1.2377,0,0,0-.943.263.5792.5792,0,0,0-.113.081.1675.1675,0,0,1-.284-.008c-.136-.151-.278-.295-.414-.447a.4843.4843,0,0,1-.07-.119c-.097-.204-.088-.261.108-.368a3.1336,3.1336,0,0,1,2.049-.47,1.6045,1.6045,0,0,1,.936.479.238.238,0,0,1,.031.04.1188.1188,0,0,1,.006.031" transform="translate(-1.2281 -1)"/><path class="cls-2" d="M8.0278,40.44c.362-.25.694-.479,1.026-.705a.1348.1348,0,0,1,.094-.022,5.9362,5.9362,0,0,1,1.591.603c.097.062.191.127.283.196.128.095.148.176.048.299a2.4653,2.4653,0,0,1-.334.328c-.114.094-.247.165-.366.254a.14.14,0,0,1-.203-.008,4.8553,4.8553,0,0,0-1.884-.857c-.075-.026-.15-.052-.255-.088" transform="translate(-1.2281 -1)"/><path class="cls-2" d="M6.814,36.292a2.6569,2.6569,0,0,0-.169.427,2.3307,2.3307,0,0,0-.055.576.4054.4054,0,0,1-.172.352c-.25.227-.493.463-.733.702a.5393.5393,0,0,0-.117.194c-.033.088-.079.103-.166.079a.6671.6671,0,0,1-.415-.317,4.2413,4.2413,0,0,1-.25-.564.1968.1968,0,0,1,.041-.147,2.9676,2.9676,0,0,1,1.833-1.261c.064-.016.128-.026.203-.041" transform="translate(-1.2281 -1)"/><path class="cls-2" d="M12.604,38.8271c.001-.027-.002-.042.004-.051a1.418,1.418,0,0,0,.199-.823c.001-.034.002-.067.005-.102a.3865.3865,0,0,1,.251-.369c.576-.228,1.146-.472,1.719-.71a.7944.7944,0,0,1,.091-.019,3.18,3.18,0,0,0-.149.357.4846.4846,0,0,0-.008.242,1.02,1.02,0,0,1-.079.605.1293.1293,0,0,1-.062.06,7.4483,7.4483,0,0,1-1.846.791,1.0638,1.0638,0,0,1-.125.019" transform="translate(-1.2281 -1)"/><path class="cls-2" d="M6.1133,40.52a.4909.4909,0,0,1-.361.209c-.288.013-.576.005-.865-.007a.2174.2174,0,0,1-.15-.096,2.7993,2.7993,0,0,1-.281-2.371c.008-.023.021-.044.042-.089.025.062.042.104.058.146a1.1146,1.1146,0,0,0,.815.78.1223.1223,0,0,1,.077.087,1.7474,1.7474,0,0,0,.643,1.302.1558.1558,0,0,1,.022.039" transform="translate(-1.2281 -1)"/><path class="cls-2" d="M7.9683,36.2686a2.3635,2.3635,0,0,1,1.546.534.9847.9847,0,0,1,.074.07c.164.173.161.188-.029.334a1.4643,1.4643,0,0,1-.599.326.56.56,0,0,1-.27-.011,3.7568,3.7568,0,0,0-1.452-.138c-.085.006-.122-.025-.119-.088a.778.778,0,0,1,.048-.319,5.96,5.96,0,0,1,.372-.603.2721.2721,0,0,1,.162-.083,2.1522,2.1522,0,0,1,.267-.022" transform="translate(-1.2281 -1)"/><path class="cls-2" d="M13.6631,39.9561a1.7065,1.7065,0,0,0-1.216.496.2875.2875,0,0,1-.256.059c-.154-.031-.313-.037-.468-.059a.297.297,0,0,1-.153-.046,2.7,2.7,0,0,0-1.182-.598.3513.3513,0,0,1-.061-.039.8588.8588,0,0,1,.215-.168,5.4674,5.4674,0,0,1,.813-.246,2.8309,2.8309,0,0,1,2.118.457c.066.044.127.095.19.144" transform="translate(-1.2281 -1)"/><path class="cls-2" d="M15.394,41.5762c-.56-.307-.936.051-1.336.368a3.5129,3.5129,0,0,0-1.291-1.25,1.0458,1.0458,0,0,1,.566-.392,1.2566,1.2566,0,0,1,1.031.157,3.7252,3.7252,0,0,1,1.033,1.089c.003.005-.002.015-.003.028" transform="translate(-1.2281 -1)"/><path class="cls-2" d="M10.6685,41.6768c.2-.165.403-.312.581-.485a4.2031,4.2031,0,0,0,.284-.382.18.18,0,0,1,.134-.043,3.789,3.789,0,0,0,.658.056.3477.3477,0,0,1,.4.218,4.9461,4.9461,0,0,0,.467.585,2.1681,2.1681,0,0,1-2.524.051" transform="translate(-1.2281 -1)"/><path class="cls-2" d="M8.48,37.8848a1.9871,1.9871,0,0,0-.297,1.063,6.47,6.47,0,0,1-2.137-.525,1.5948,1.5948,0,0,1,.147-.184c.195-.17.336-.407.594-.502a.5379.5379,0,0,1,.242-.03c.469.049.938.107,1.406.162a.1759.1759,0,0,1,.045.016" transform="translate(-1.2281 -1)"/><path class="cls-2" d="M15.1431,37.88c.039-.164.08-.316.11-.471a.6971.6971,0,0,0,.007-.214.7966.7966,0,0,1,.153-.56.2109.2109,0,0,1,.085-.068c.449-.204.898-.404,1.348-.605a.2226.2226,0,0,1,.046-.013c.005.013.014.023.012.027a.9943.9943,0,0,0,.013.724.683.683,0,0,1,.017.238.4006.4006,0,0,1-.256.358c-.477.18-.95.371-1.424.558a.757.757,0,0,1-.111.026" transform="translate(-1.2281 -1)"/><path class="cls-2" d="M8.3149,6.1294a.7516.7516,0,0,0,.272-.605.7319.7319,0,0,1,.07-.242A.4088.4088,0,0,1,9.0509,5c.491.012.981.01,1.471.015a.6518.6518,0,0,1,.1.022.9458.9458,0,0,0-.383.706.52.52,0,0,1-.501.38c-.405.008-.81.023-1.215.034-.062.002-.125,0-.187,0l-.021-.028" transform="translate(-1.2281 -1)"/><path class="cls-2" d="M14.9927,38.29a1.8744,1.8744,0,0,1-.223,1.909c-.394-.194-.773-.381-1.149-.565a1.5863,1.5863,0,0,0,.153-.332,2.1424,2.1424,0,0,0-.001-.384c0-.038.01-.098.033-.109.381-.178.764-.351,1.147-.524.007-.003.017.002.04.005" transform="translate(-1.2281 -1)"/><path class="cls-2" d="M26.3906,25.0723a.9286.9286,0,0,0-.624-.451.496.496,0,0,1-.342-.582c.051-.41.085-.822.126-1.234a.4872.4872,0,0,1,.026-.135c.151.284.443.296.694.386a.57.57,0,0,1,.139.065.4115.4115,0,0,1,.228.415c-.074.492-.143.985-.214,1.477a.3075.3075,0,0,1-.033.059" transform="translate(-1.2281 -1)"/><path class="cls-2" d="M8.38,5.05a1.0915,1.0915,0,0,0-.286.791.5.5,0,0,1-.443.398c-.4.059-.799.128-1.199.193-.061.011-.122.02-.209.034.033-.054.049-.082.068-.108a.6316.6316,0,0,0,.124-.415.7807.7807,0,0,1,.173-.629.2422.2422,0,0,1,.123-.078c.519-.069,1.04-.132,1.56-.195a.5133.5133,0,0,1,.089.009" transform="translate(-1.2281 -1)"/><path class="cls-2" d="M19.9438,9.89c.024-.033.027-.039.029-.039a1.0409,1.0409,0,0,0,.684-.29.61.61,0,0,1,.24-.11.4261.4261,0,0,1,.429.118c.32.34.654.665.981.997a1.3213,1.3213,0,0,1,.08.109,1.104,1.104,0,0,0-.807.243.4845.4845,0,0,1-.59-.091c-.318-.299-.64-.594-.962-.89a.4146.4146,0,0,0-.084-.047" transform="translate(-1.2281 -1)"/><path class="cls-2" d="M6.1587,5.37a.97.97,0,0,0-.17.757.4955.4955,0,0,1-.392.5c-.404.115-.806.24-1.209.361-.039.012-.078.023-.115.034l-.016-.032a.8338.8338,0,0,0,.08-.646.7944.7944,0,0,1-.006-.189.4341.4341,0,0,1,.344-.438c.468-.123.938-.24,1.408-.358a.37.37,0,0,1,.048-.007Z" transform="translate(-1.2281 -1)"/><path class="cls-2" d="M18.7041,34.8857a.76.76,0,0,1-.019.126.6053.6053,0,0,0,.055.429.7881.7881,0,0,1,.086.609.2941.2941,0,0,1-.105.148c-.45.257-.903.509-1.355.761a.5425.5425,0,0,1-.074.027.9169.9169,0,0,0,.061-.262,1.9014,1.9014,0,0,0-.085-.457.6511.6511,0,0,1,.038-.502.2.2,0,0,1,.072-.083q.639-.396,1.279-.788c.009-.006.024-.004.047-.008" transform="translate(-1.2281 -1)"/><path class="cls-2" d="M25.5361,20.604c.039.032.067.054.095.078a.6749.6749,0,0,0,.413.175.7678.7678,0,0,1,.601.258.2387.2387,0,0,1,.059.133c0,.506-.005,1.012-.011,1.519a.6367.6367,0,0,1-.027.113.81.81,0,0,0-.592-.346.6651.6651,0,0,1-.438-.256.2863.2863,0,0,1-.056-.148c-.022-.493-.039-.986-.058-1.479a.3346.3346,0,0,1,.014-.047" transform="translate(-1.2281 -1)"/><path class="cls-2" d="M22.7607,12.9287l.013-.014a1.1639,1.1639,0,0,0,.762-.114.8513.8513,0,0,1,.289-.032.35.35,0,0,1,.314.198c.226.411.465.816.698,1.223.018.032.031.067.046.099-.014.009-.024.019-.028.017a.8505.8505,0,0,0-.705.023.6789.6789,0,0,1-.509-.037.2174.2174,0,0,1-.089-.084q-.3885-.618-.773-1.238a.2336.2336,0,0,1-.018-.041" transform="translate(-1.2281 -1)"/><path class="cls-2" d="M10.41,6.0967a.72.72,0,0,0,.334-.515.6624.6624,0,0,1,.319-.482.2454.2454,0,0,1,.13-.037c.515.067,1.029.138,1.543.21a.4869.4869,0,0,1,.095.042c-.303.136-.367.41-.473.66a.49.49,0,0,1-.517.296c-.411-.04-.823-.079-1.233-.119-.062-.006-.124-.014-.186-.021l-.012-.034" transform="translate(-1.2281 -1)"/><path class="cls-2" d="M12.4673,6.3608c.058-.039.095-.064.132-.088a.6248.6248,0,0,0,.248-.311c.087-.21.168-.432.409-.525a.2686.2686,0,0,1,.145-.024c.514.136,1.027.277,1.54.418.01.003.018.015.043.037-.308.099-.413.365-.552.604a.5017.5017,0,0,1-.555.22c-.418-.099-.838-.193-1.257-.289-.044-.011-.087-.024-.153-.042" transform="translate(-1.2281 -1)"/><path class="cls-2" d="M24.9292,26.7012l.013.006a1.0288,1.0288,0,0,0,.489.542.683.683,0,0,1,.133.119.4056.4056,0,0,1,.078.505c-.21.415-.425.826-.639,1.239-.018.033-.04.064-.059.094-.015-.007-.028-.009-.029-.013a.834.834,0,0,0-.399-.563.6492.6492,0,0,1-.253-.425.2253.2253,0,0,1,.016-.133c.206-.449.417-.896.626-1.344a.15.15,0,0,1,.024-.027" transform="translate(-1.2281 -1)"/><path class="cls-2" d="M23.8716,31.1553a.7048.7048,0,0,0-.291-.542c-.051-.051-.108-.096-.156-.148a.473.473,0,0,1-.056-.568c.206-.373.405-.75.607-1.125.02-.036.04-.071.059-.105.018.008.031.009.032.013a.8717.8717,0,0,0,.412.523.8227.8227,0,0,1,.163.16.41.41,0,0,1,.048.507c-.232.397-.468.793-.704,1.187a1.17,1.17,0,0,1-.078.107l-.036-.009" transform="translate(-1.2281 -1)"/><path class="cls-2" d="M20.79,9.1279a.8981.8981,0,0,0-.708.304.6464.6464,0,0,1-.466.133.1815.1815,0,0,1-.091-.04q-.5925-.4185-1.184-.84c-.019-.015-.035-.034-.052-.05.007-.012.01-.025.014-.025a.7778.7778,0,0,0,.536-.282.6843.6843,0,0,1,.519-.263.2329.2329,0,0,1,.13.032c.413.312.824.628,1.234.944a.5441.5441,0,0,1,.068.087" transform="translate(-1.2281 -1)"/><path class="cls-2" d="M22.5386,32.9189a.9674.9674,0,0,0-.333-.699.4975.4975,0,0,1-.001-.632c.251-.336.494-.677.74-1.016.026-.036.052-.073.093-.129a1.0836,1.0836,0,0,0,.051.189,1.8923,1.8923,0,0,0,.168.289c.08.108.184.199.263.309a.4076.4076,0,0,1-.008.51c-.282.365-.569.726-.855,1.088-.025.032-.056.062-.084.092l-.034-.001" transform="translate(-1.2281 -1)"/><path class="cls-2" d="M25.32,24.7412c.021.008.038.01.042.018a.7947.7947,0,0,0,.49.378,1.1951,1.1951,0,0,1,.235.128.4106.4106,0,0,1,.185.455c-.125.46-.257.918-.387,1.376a.8146.8146,0,0,1-.055.116,1.0022,1.0022,0,0,0-.586-.544.4873.4873,0,0,1-.239-.586c.104-.426.199-.855.297-1.282.004-.018.011-.037.018-.059" transform="translate(-1.2281 -1)"/><path class="cls-2" d="M25.2363,18.5664c.039.023.069.037.095.056a.659.659,0,0,0,.419.125.7874.7874,0,0,1,.624.161.3268.3268,0,0,1,.099.166c.061.409.113.82.164,1.23a2.1221,2.1221,0,0,1,.016.343.8246.8246,0,0,0-.504-.228c-.063-.008-.127-.015-.19-.017a.6308.6308,0,0,1-.45-.237.1824.1824,0,0,1-.034-.092q-.123-.7095-.243-1.421a.4622.4622,0,0,1,.004-.086" transform="translate(-1.2281 -1)"/><path class="cls-2" d="M23.74,12.3813a1.7551,1.7551,0,0,0-.341.004c-.131.028-.254.094-.384.135a1.1935,1.1935,0,0,1-.27.058.4365.4365,0,0,1-.407-.203c-.261-.34-.543-.662-.817-.992-.019-.022-.037-.044-.062-.074.021-.009.035-.022.048-.02a.8216.8216,0,0,0,.579-.145.6613.6613,0,0,1,.57-.114.2594.2594,0,0,1,.116.068c.32.412.635.826.952,1.241a.1521.1521,0,0,1,.016.042" transform="translate(-1.2281 -1)"/><path class="cls-2" d="M24.6758,16.5664a.7862.7862,0,0,0,.647.11.6559.6559,0,0,1,.526.099.2729.2729,0,0,1,.1.123c.136.495.266.992.397,1.489a.6624.6624,0,0,1,0,.103.9663.9663,0,0,0-.788-.184.5037.5037,0,0,1-.493-.372c-.127-.42-.258-.838-.387-1.256-.008-.027-.013-.055-.02-.082l.018-.03" transform="translate(-1.2281 -1)"/><path class="cls-2" d="M7.147,24.35c.01.11-.02.15-.13.16-.51.05-1.02.12-1.53.18a2.0024,2.0024,0,0,0-.24.04c-.08.03-.11,0-.14-.08a4.7168,4.7168,0,0,0-.67-1.46,2.3921,2.3921,0,0,0-1.23-.98,2.0965,2.0965,0,0,0-.7-.08,2.5123,2.5123,0,0,0,.04-.27,14.9362,14.9362,0,0,0,.06-3.72,9.7221,9.7221,0,0,0-.22-1.26,4.7253,4.7253,0,0,1,1.02.48,6.7611,6.7611,0,0,1,2.02,2.07,11.1352,11.1352,0,0,1,1.59,3.95c.06.32.08.65.13.97" transform="translate(-1.2281 -1)"/><path class="cls-2" d="M2.4668,7.79l-.12.06c-.01-.02-.02-.02-.01-.03a1.0761,1.0761,0,0,0-.03-.77.612.612,0,0,1,.07-.42.2932.2932,0,0,1,.1-.09c.49-.2.98-.4,1.48-.6a.218.218,0,0,0,.06.01.8287.8287,0,0,0-.08.73.5171.5171,0,0,1-.32.6c-.39.16-.77.34-1.15.51" transform="translate(-1.2281 -1)"/><path class="cls-2" d="M17.0684,6.6982c-.341.061-.475.31-.641.526a.5078.5078,0,0,1-.578.148c-.413-.157-.828-.309-1.242-.464-.03-.011-.059-.027-.107-.05.043-.022.067-.036.091-.046a.6436.6436,0,0,0,.339-.309.7779.7779,0,0,1,.48-.461.2176.2176,0,0,1,.121-.003q.732.3,1.461.605a.5992.5992,0,0,1,.076.054" transform="translate(-1.2281 -1)"/><path class="cls-2" d="M20.3389,33.5859c0,.066.003.1,0,.132a.6524.6524,0,0,0,.117.441.8107.8107,0,0,1,.169.532.3156.3156,0,0,1-.123.238c-.4.295-.797.594-1.195.89a.85.85,0,0,1-.107.057c.127-.331-.042-.578-.146-.842a.4752.4752,0,0,1,.164-.536c.335-.267.666-.54.998-.81.033-.027.064-.053.123-.102" transform="translate(-1.2281 -1)"/><path class="cls-2" d="M23.8257,14.665a.7.7,0,0,0,.58.053,1.3457,1.3457,0,0,1,.261-.055.4854.4854,0,0,1,.178-.003.4268.4268,0,0,1,.355.265c.166.437.348.868.524,1.302a.5965.5965,0,0,1,.025.092c-.016.007-.027.014-.031.012a.8694.8694,0,0,0-.715-.059.6394.6394,0,0,1-.482-.112.2014.2014,0,0,1-.068-.088c-.204-.44-.405-.881-.607-1.321a.5178.5178,0,0,1-.02-.086" transform="translate(-1.2281 -1)"/><path class="cls-2" d="M16.4238,7.604c.342-.022.468-.276.649-.466a.8207.8207,0,0,1,.233-.171.3751.3751,0,0,1,.384.022c.402.246.813.479,1.22.718a1.3515,1.3515,0,0,1,.111.082c-.353.011-.522.25-.723.446a.5017.5017,0,0,1-.595.058c-.41-.224-.822-.443-1.279-.689" transform="translate(-1.2281 -1)"/><path class="cls-2" d="M4.7422,36.9238c-.056.028-.084.046-.115.06a.6315.6315,0,0,0-.324.306.7858.7858,0,0,1-.472.453.2243.2243,0,0,1-.135.006c-.488-.2-.891-.545-1.377-.749-.018-.008.035.116,0,.087.301-.048.298-.255.444-.466a.5064.5064,0,0,1,.652-.189c.416.159.837.309,1.256.464Z" transform="translate(-1.2281 -1)"/><path class="cls-2" d="M20.9663,34.4941a.8827.8827,0,0,0-.218-.717.6505.6505,0,0,1-.074-.464.16.16,0,0,1,.04-.076c.355-.369.711-.736,1.07-1.107l.011.006a.872.872,0,0,0,.255.613.8553.8553,0,0,1,.124.206.4045.4045,0,0,1-.081.494q-.4875.483-.981.961c-.034.034-.074.064-.111.096Z" transform="translate(-1.2281 -1)"/><path class="cls-2" d="M8.4492,39.5332c-.284.271-.545.524-.81.773a.1.1,0,0,1-.088.022,1.6641,1.6641,0,0,0-.941-.086.2051.2051,0,0,1-.232-.105c-.161-.243-.331-.478-.52-.749a4.3617,4.3617,0,0,1,2.591.145" transform="translate(-1.2281 -1)"/><path class="cls-2" d="M5.2129,41.16a2.6082,2.6082,0,0,0,.307-.002,4.3318,4.3318,0,0,0,.676-.11c.119-.035.211-.157.316-.237.027-.02.064-.05.09-.046.147.027.29.075.437.091a3.6589,3.6589,0,0,0,.432.004,1.0243,1.0243,0,0,1-.672,1.091.7685.7685,0,0,1-.299-.046,2.9545,2.9545,0,0,1-1.219-.641.55.55,0,0,1-.054-.054.1746.1746,0,0,1-.014-.05" transform="translate(-1.2281 -1)"/><path class="cls-2" d="M7.4893,42.0283a1.0859,1.0859,0,0,0,.379-1.263,7.0566,7.0566,0,0,1,1.657.496,2.3689,2.3689,0,0,1-2.036.767" transform="translate(-1.2281 -1)"/><path class="cls-2" d="M4.7808,41.251c-.185.159-.383.33-.569.489-.213-.144-.412-.302-.633-.423a.6872.6872,0,0,0-.721.022c.364-.446.659-.956,1.258-1.139a4.7014,4.7014,0,0,0,.265.571,4.6871,4.6871,0,0,0,.4.48" transform="translate(-1.2281 -1)"/><path class="cls-2" d="M12.46,37.7676c-.065.308-.108.586-.185.855a.4487.4487,0,0,1-.466.35,4.6044,4.6044,0,0,1-1.043-.042c-.091-.017-.179-.049-.301-.083.062-.052.098-.082.135-.111.244-.189.487-.38.735-.566a.7651.7651,0,0,1,.207-.111c.261-.09.525-.172.788-.256.027-.009.055-.015.13-.036" transform="translate(-1.2281 -1)"/><path class="cls-2" d="M14.3809,42.2939a.9475.9475,0,0,1,1.448-.155c-.098.085-.197.17-.296.254-.165.14-.329.282-.498.418-.029.022-.104.036-.123.017-.18-.173-.353-.352-.531-.534" transform="translate(-1.2281 -1)"/><path class="cls-2" d="M2.4106,41.8877a.8561.8561,0,0,1,1.051-.134,2.9592,2.9592,0,0,1,.34.265c.051.041.046.08-.002.125-.161.151-.317.307-.48.456a.1506.1506,0,0,1-.105.017c-.021-.002-.038-.032-.057-.049-.247-.225-.495-.451-.747-.68" transform="translate(-1.2281 -1)"/><path class="cls-2" d="M16.7446,43.0078c-.316.339-.612.656-.926.992-.117-.189-.225-.358-.326-.532-.011-.019.014-.071.037-.094.234-.221.469-.441.708-.657.024-.022.086-.039.105-.024.133.096.259.202.402.315" transform="translate(-1.2281 -1)"/><path class="cls-2" d="M15.2681,43.2559c-.146-.117-.146-.116-.025-.222.232-.203.464-.405.714-.624.042.042.08.079.129.128-.284.249-.549.482-.818.718" transform="translate(-1.2281 -1)"/><path class="cls-2" d="M29.8291,47H6.1711a4.9778,4.9778,0,0,1-4.943-5V6a4.9771,4.9771,0,0,1,4.943-5h23.658a4.954,4.954,0,0,1,4.938,4.8l-1.998.079A2.9964,2.9964,0,0,0,29.8291,3H6.1711a2.9753,2.9753,0,0,0-2.943,3V42a2.9753,2.9753,0,0,0,2.943,3h23.658a2.9751,2.9751,0,0,0,2.942-3h2a4.9763,4.9763,0,0,1-4.942,5" transform="translate(-1.2281 -1)"/></g></g></svg>